G04*
G04 #@! TF.GenerationSoftware,Altium Limited,Altium Designer,25.4.2 (15)*
G04*
G04 Layer_Color=2752767*
%FSLAX44Y44*%
%MOMM*%
G71*
G04*
G04 #@! TF.SameCoordinates,0D125D48-EFC7-4563-9314-FCFFD8E44349*
G04*
G04*
G04 #@! TF.FilePolarity,Positive*
G04*
G01*
G75*
%ADD51C,0.1270*%
D51*
X221250Y239920D02*
X223790Y242460D01*
X226330D01*
X223790Y245000D01*
X226330Y247540D01*
X223790D01*
X221250Y250080D01*
X218710Y247540D01*
X216170D01*
X218710Y245000D01*
X216170Y242460D01*
X218710D01*
X221250Y239920D01*
Y301474D02*
X223790Y304014D01*
X226330D01*
X223790Y306554D01*
X226330Y309094D01*
X223790D01*
X221250Y311634D01*
X218710Y309094D01*
X216170D01*
X218710Y306554D01*
X216170Y304014D01*
X218710D01*
X221250Y301474D01*
X244000D02*
X246540Y304014D01*
X249080D01*
X246540Y306554D01*
X249080Y309094D01*
X246540D01*
X244000Y311634D01*
X241460Y309094D01*
X238920D01*
X241460Y306554D01*
X238920Y304014D01*
X241460D01*
X244000Y301474D01*
Y239920D02*
X246540Y242460D01*
X249080D01*
X246540Y245000D01*
X249080Y247540D01*
X246540D01*
X244000Y250080D01*
X241460Y247540D01*
X238920D01*
X241460Y245000D01*
X238920Y242460D01*
X241460D01*
X244000Y239920D01*
X242670Y25420D02*
X245210D01*
X247750Y27960D01*
X250290Y25420D01*
X252830D01*
Y27960D01*
X250290Y30500D01*
X252830Y33040D01*
Y35580D01*
X250290D01*
X247750Y33040D01*
X245210Y35580D01*
X242670D01*
Y33040D01*
X245210Y30500D01*
X242670Y27960D01*
Y25420D01*
X192670D02*
X195210D01*
X197750Y27960D01*
X200290Y25420D01*
X202830D01*
Y27960D01*
X200290Y30500D01*
X202830Y33040D01*
Y35580D01*
X200290D01*
X197750Y33040D01*
X195210Y35580D01*
X192670D01*
Y33040D01*
X195210Y30500D01*
X192670Y27960D01*
Y25420D01*
X242670Y74670D02*
X245210D01*
X247750Y77210D01*
X250290Y74670D01*
X252830D01*
Y77210D01*
X250290Y79750D01*
X252830Y82290D01*
Y84830D01*
X250290D01*
X247750Y82290D01*
X245210Y84830D01*
X242670D01*
Y82290D01*
X245210Y79750D01*
X242670Y77210D01*
Y74670D01*
X192670D02*
X195210D01*
X197750Y77210D01*
X200290Y74670D01*
X202830D01*
Y77210D01*
X200290Y79750D01*
X202830Y82290D01*
Y84830D01*
X200290D01*
X197750Y82290D01*
X195210Y84830D01*
X192670D01*
Y82290D01*
X195210Y79750D01*
X192670Y77210D01*
Y74670D01*
X285450Y463720D02*
X280370Y473880D01*
X290530D01*
X285450Y463720D01*
X310850D02*
X305770Y473880D01*
X315930D01*
X310850Y463720D01*
X145050Y269520D02*
X139970Y279680D01*
X150130D01*
X145050Y269520D01*
X170450D02*
X165370Y279680D01*
X175530D01*
X170450Y269520D01*
X195850D02*
X190770Y279680D01*
X200930D01*
X195850Y269520D01*
X221250D02*
X216170Y279680D01*
X226330D01*
X221250Y269520D01*
X145050Y422920D02*
X139970Y433080D01*
X150130D01*
X145050Y422920D01*
X170450D02*
X165370Y433080D01*
X175530D01*
X170450Y422920D01*
X195850D02*
X190770Y433080D01*
X200930D01*
X195850Y422920D01*
X221250D02*
X216170Y433080D01*
X226330D01*
X221250Y422920D01*
X407500Y309420D02*
X410040Y311960D01*
X412580D01*
X410040Y314500D01*
X412580Y317040D01*
X410040D01*
X407500Y319580D01*
X404960Y317040D01*
X402420D01*
X404960Y314500D01*
X402420Y311960D01*
X404960D01*
X407500Y309420D01*
Y334820D02*
X410040Y337360D01*
X412580D01*
X410040Y339900D01*
X412580Y342440D01*
X410040D01*
X407500Y344980D01*
X404960Y342440D01*
X402420D01*
X404960Y339900D01*
X402420Y337360D01*
X404960D01*
X407500Y334820D01*
Y360220D02*
X410040Y362760D01*
X412580D01*
X410040Y365300D01*
X412580Y367840D01*
X410040D01*
X407500Y370380D01*
X404960Y367840D01*
X402420D01*
X404960Y365300D01*
X402420Y362760D01*
X404960D01*
X407500Y360220D01*
Y385620D02*
X410040Y388160D01*
X412580D01*
X410040Y390700D01*
X412580Y393240D01*
X410040D01*
X407500Y395780D01*
X404960Y393240D01*
X402420D01*
X404960Y390700D01*
X402420Y388160D01*
X404960D01*
X407500Y385620D01*
Y411020D02*
X410040Y413560D01*
X412580D01*
X410040Y416100D01*
X412580Y418640D01*
X410040D01*
X407500Y421180D01*
X404960Y418640D01*
X402420D01*
X404960Y416100D01*
X402420Y413560D01*
X404960D01*
X407500Y411020D01*
Y436420D02*
X410040Y438960D01*
X412580D01*
X410040Y441500D01*
X412580Y444040D01*
X410040D01*
X407500Y446580D01*
X404960Y444040D01*
X402420D01*
X404960Y441500D01*
X402420Y438960D01*
X404960D01*
X407500Y436420D01*
Y461820D02*
X410040Y464360D01*
X412580D01*
X410040Y466900D01*
X412580Y469440D01*
X410040D01*
X407500Y471980D01*
X404960Y469440D01*
X402420D01*
X404960Y466900D01*
X402420Y464360D01*
X404960D01*
X407500Y461820D01*
Y487220D02*
X410040Y489760D01*
X412580D01*
X410040Y492300D01*
X412580Y494840D01*
X410040D01*
X407500Y497380D01*
X404960Y494840D01*
X402420D01*
X404960Y492300D01*
X402420Y489760D01*
X404960D01*
X407500Y487220D01*
X141750Y351980D02*
X144290Y354520D01*
X146830D01*
X144290Y357060D01*
X146830Y359600D01*
X144290D01*
X141750Y362140D01*
X139210Y359600D01*
X136670D01*
X139210Y357060D01*
X136670Y354520D01*
X139210D01*
X141750Y351980D01*
X167150D02*
X169690Y354520D01*
X172230D01*
X169690Y357060D01*
X172230Y359600D01*
X169690D01*
X167150Y362140D01*
X164610Y359600D01*
X162070D01*
X164610Y357060D01*
X162070Y354520D01*
X164610D01*
X167150Y351980D01*
X360500Y487220D02*
X355420Y497380D01*
X365580D01*
X360500Y487220D01*
Y461820D02*
X355420Y471980D01*
X365580D01*
X360500Y461820D01*
Y436420D02*
X355420Y446580D01*
X365580D01*
X360500Y436420D01*
Y411020D02*
X355420Y421180D01*
X365580D01*
X360500Y411020D01*
Y385620D02*
X355420Y395780D01*
X365580D01*
X360500Y385620D01*
Y360220D02*
X355420Y370380D01*
X365580D01*
X360500Y360220D01*
Y334820D02*
X355420Y344980D01*
X365580D01*
X360500Y334820D01*
Y309420D02*
X355420Y319580D01*
X365580D01*
X360500Y309420D01*
Y284020D02*
X355420Y294180D01*
X365580D01*
X360500Y284020D01*
Y258620D02*
X355420Y268780D01*
X365580D01*
X360500Y258620D01*
Y233220D02*
X355420Y243380D01*
X365580D01*
X360500Y233220D01*
Y207820D02*
X355420Y217980D01*
X365580D01*
X360500Y207820D01*
Y182420D02*
X355420Y192580D01*
X365580D01*
X360500Y182420D01*
Y131620D02*
X355420Y141780D01*
X365580D01*
X360500Y131620D01*
Y157020D02*
X355420Y167180D01*
X365580D01*
X360500Y157020D01*
X106500Y207820D02*
X101420Y217980D01*
X111580D01*
X106500Y207820D01*
Y487220D02*
X101420Y497380D01*
X111580D01*
X106500Y487220D01*
Y461820D02*
X101420Y471980D01*
X111580D01*
X106500Y461820D01*
Y436420D02*
X101420Y446580D01*
X111580D01*
X106500Y436420D01*
Y411020D02*
X101420Y421180D01*
X111580D01*
X106500Y411020D01*
Y385620D02*
X101420Y395780D01*
X111580D01*
X106500Y385620D01*
Y360220D02*
X101420Y370380D01*
X111580D01*
X106500Y360220D01*
Y334820D02*
X101420Y344980D01*
X111580D01*
X106500Y334820D01*
Y309420D02*
X101420Y319580D01*
X111580D01*
X106500Y309420D01*
Y284020D02*
X101420Y294180D01*
X111580D01*
X106500Y284020D01*
Y258620D02*
X101420Y268780D01*
X111580D01*
X106500Y258620D01*
Y233220D02*
X101420Y243380D01*
X111580D01*
X106500Y233220D01*
Y182420D02*
X101420Y192580D01*
X111580D01*
X106500Y182420D01*
Y157020D02*
X101420Y167180D01*
X111580D01*
X106500Y157020D01*
Y131620D02*
X101420Y141780D01*
X111580D01*
X106500Y131620D01*
X323500Y189420D02*
X326040Y191960D01*
X328580D01*
X326040Y194500D01*
X328580Y197040D01*
X326040D01*
X323500Y199580D01*
X320960Y197040D01*
X318420D01*
X320960Y194500D01*
X318420Y191960D01*
X320960D01*
X323500Y189420D01*
X298100D02*
X300640Y191960D01*
X303180D01*
X300640Y194500D01*
X303180Y197040D01*
X300640D01*
X298100Y199580D01*
X295560Y197040D01*
X293020D01*
X295560Y194500D01*
X293020Y191960D01*
X295560D01*
X298100Y189420D01*
Y351980D02*
X300640Y354520D01*
X303180D01*
X300640Y357060D01*
X303180Y359600D01*
X300640D01*
X298100Y362140D01*
X295560Y359600D01*
X293020D01*
X295560Y357060D01*
X293020Y354520D01*
X295560D01*
X298100Y351980D01*
X323500D02*
X326040Y354520D01*
X328580D01*
X326040Y357060D01*
X328580Y359600D01*
X326040D01*
X323500Y362140D01*
X320960Y359600D01*
X318420D01*
X320960Y357060D01*
X318420Y354520D01*
X320960D01*
X323500Y351980D01*
X167150Y189420D02*
X169690Y191960D01*
X172230D01*
X169690Y194500D01*
X172230Y197040D01*
X169690D01*
X167150Y199580D01*
X164610Y197040D01*
X162070D01*
X164610Y194500D01*
X162070Y191960D01*
X164610D01*
X167150Y189420D01*
X141750D02*
X144290Y191960D01*
X146830D01*
X144290Y194500D01*
X146830Y197040D01*
X144290D01*
X141750Y199580D01*
X139210Y197040D01*
X136670D01*
X139210Y194500D01*
X136670Y191960D01*
X139210D01*
X141750Y189420D01*
X35670Y218770D02*
X38210Y223850D01*
X35670Y228930D01*
X40750Y226390D01*
X45830Y228930D01*
X43290Y223850D01*
X45830Y218770D01*
X40750Y221310D01*
X35670Y218770D01*
Y179170D02*
X38210Y184250D01*
X35670Y189330D01*
X40750Y186790D01*
X45830Y189330D01*
X43290Y184250D01*
X45830Y179170D01*
X40750Y181710D01*
X35670Y179170D01*
Y139570D02*
X38210Y144650D01*
X35670Y149730D01*
X40750Y147190D01*
X45830Y149730D01*
X43290Y144650D01*
X45830Y139570D01*
X40750Y142110D01*
X35670Y139570D01*
X34170Y305420D02*
X36710Y310500D01*
X34170Y315580D01*
X39250Y313040D01*
X44330Y315580D01*
X41790Y310500D01*
X44330Y305420D01*
X39250Y307960D01*
X34170Y305420D01*
Y265820D02*
X36710Y270900D01*
X34170Y275980D01*
X39250Y273440D01*
X44330Y275980D01*
X41790Y270900D01*
X44330Y265820D01*
X39250Y268360D01*
X34170Y265820D01*
X43750Y524621D02*
X46290Y527161D01*
X48830D01*
X46290Y529701D01*
X48830Y532241D01*
X46290D01*
X43750Y534781D01*
X41210Y532241D01*
X38670D01*
X41210Y529701D01*
X38670Y527161D01*
X41210D01*
X43750Y524621D01*
Y499220D02*
X46290Y501760D01*
X48830D01*
X46290Y504300D01*
X48830Y506840D01*
X46290D01*
X43750Y509380D01*
X41210Y506840D01*
X38670D01*
X41210Y504300D01*
X38670Y501760D01*
X41210D01*
X43750Y499220D01*
X43710Y372210D02*
Y369670D01*
X48790D01*
Y372210D01*
X51330D01*
Y377290D01*
X48790D01*
Y379830D01*
X43710D01*
Y377290D01*
X41170D01*
Y372210D01*
X43710D01*
Y462210D02*
Y459670D01*
X48790D01*
Y462210D01*
X51330D01*
Y467290D01*
X48790D01*
Y469830D01*
X43710D01*
Y467290D01*
X41170D01*
Y462210D01*
X43710D01*
X68170Y353670D02*
Y363830D01*
X78330D01*
Y353670D01*
X68170D01*
X317420Y267420D02*
Y277580D01*
X327580D01*
Y267420D01*
X317420D01*
X396420Y47920D02*
Y58080D01*
X406580D01*
Y47920D01*
X396420D01*
X292420Y308420D02*
Y318580D01*
X302580D01*
Y308420D01*
X292420D01*
X300670Y12670D02*
Y22830D01*
X310830D01*
Y12670D01*
X300670D01*
X395546Y241000D02*
Y251160D01*
X405706D01*
Y241000D01*
X395546D01*
M02*
