M48
;Layer_Color=9474304
;FILE_FORMAT=4:4
METRIC,LZ
;TYPE=PLATED
T01F00S00C0.7112
T02F00S00C0.8000
T03F00S00C0.8500
T04F00S00C0.9000
T05F00S00C1.1600
T06F00S00C1.6500
%
T01
X0030575Y0001775
X003225Y002725
X002975Y003135
X00400626Y0024608
X004015Y00053
X0007325Y0035875
T02
X0019775Y000305
Y0007975
X0024775
Y000305
T03
X0004625Y0037475
Y0046475
T04
X0014175Y001945
X0016715
X0022125Y00245
X00244
Y00306554
X0022125
X002981Y001945
X003235
X004075Y003145
Y003399
Y003653
Y003907
Y004161
Y004415
Y004669
Y004923
X003235Y0035706
X002981
X0016715
X0014175
X0004375Y005043
Y00529701
T05
X001065Y001367
Y001621
Y001875
Y002129
Y002383
Y002637
Y002891
Y003145
Y003399
X0014505Y002746
X0017045
X0019585
X0022125
X003605Y002637
Y002891
Y003145
Y003399
Y002383
Y002129
Y001875
Y001621
Y001367
Y003653
Y003907
Y004161
Y004415
Y004669
Y004923
X0031085Y004688
X0028545
X0022125Y00428
X0019585
X0017045
X0014505
X001065Y004161
Y004415
Y004669
Y004923
Y003907
Y003653
T06
X0004075Y0014465
Y0018425
Y0022385
X0003925Y002709
Y003105
M30
