G04*
G04 #@! TF.GenerationSoftware,Altium Limited,Altium Designer,25.4.2 (15)*
G04*
G04 Layer_Color=65535*
%FSLAX44Y44*%
%MOMM*%
G71*
G04*
G04 #@! TF.SameCoordinates,6A45B100-41C4-4237-90B8-33650A0F4B54*
G04*
G04*
G04 #@! TF.FilePolarity,Positive*
G04*
G01*
G75*
%ADD10C,0.2000*%
%ADD11C,0.2540*%
%ADD12C,0.2500*%
%ADD13C,0.1540*%
G36*
X214746Y166000D02*
X214469D01*
Y165861D01*
X214331D01*
Y165723D01*
X214193D01*
Y165585D01*
X213916D01*
Y165447D01*
X213778D01*
Y165309D01*
X213502D01*
Y165170D01*
X213364D01*
Y165032D01*
X213226D01*
Y164894D01*
X212949D01*
Y164756D01*
X212811D01*
Y164618D01*
X212673D01*
Y164480D01*
X212397D01*
Y164341D01*
X212258D01*
Y164203D01*
X211982D01*
Y164065D01*
X211844D01*
Y163927D01*
X211705D01*
Y163789D01*
X211429D01*
Y163650D01*
X211291D01*
Y163512D01*
X211015D01*
Y163374D01*
X210877D01*
Y163236D01*
X210738D01*
Y163098D01*
X210462D01*
Y162959D01*
X210324D01*
Y162821D01*
X210186D01*
Y162683D01*
X209909D01*
Y162545D01*
X209771D01*
Y162407D01*
X209495D01*
Y162269D01*
X209356D01*
Y162130D01*
X209218D01*
Y161992D01*
X208942D01*
Y161854D01*
X208804D01*
Y161716D01*
X208666D01*
Y161578D01*
X208389D01*
Y161439D01*
X208251D01*
Y161301D01*
X207975D01*
Y161163D01*
X207836D01*
Y161025D01*
X207698D01*
Y160887D01*
X207422D01*
Y160749D01*
X207284D01*
Y160610D01*
X207146D01*
Y160472D01*
X206869D01*
Y160334D01*
X206731D01*
Y160196D01*
X206593D01*
Y160058D01*
X206316D01*
Y159919D01*
X206178D01*
Y159781D01*
X205902D01*
Y159643D01*
X205764D01*
Y159505D01*
X205625D01*
Y159367D01*
X205349D01*
Y159228D01*
X205211D01*
Y159090D01*
X204935D01*
Y158952D01*
X204796D01*
Y158814D01*
X204658D01*
Y158676D01*
X204382D01*
Y158538D01*
X204244D01*
Y158399D01*
X203967D01*
Y158261D01*
X203829D01*
Y158123D01*
X203691D01*
Y157985D01*
X203414D01*
Y157847D01*
X203276D01*
Y157709D01*
X203000D01*
Y157570D01*
X202862D01*
Y157432D01*
X202724D01*
Y157294D01*
X202447D01*
Y157156D01*
X202309D01*
Y157018D01*
X202033D01*
Y156879D01*
X201894D01*
Y156741D01*
X201756D01*
Y156603D01*
X201480D01*
Y156465D01*
X201342D01*
Y156327D01*
X201065D01*
Y156188D01*
X200927D01*
Y156050D01*
X200651D01*
Y155912D01*
X200513D01*
Y155774D01*
X200236D01*
Y155636D01*
X200098D01*
Y155498D01*
X199822D01*
Y155359D01*
X199545D01*
Y155221D01*
X199407D01*
Y155083D01*
X199131D01*
Y154945D01*
X198993D01*
Y154807D01*
X198716D01*
Y154668D01*
X198440D01*
Y154530D01*
X198302D01*
Y154392D01*
X198025D01*
Y154254D01*
X197749D01*
Y154116D01*
X197611D01*
Y153977D01*
X197334D01*
Y153839D01*
X197058D01*
Y153701D01*
X196782D01*
Y153563D01*
X196644D01*
Y153425D01*
X196367D01*
Y153287D01*
X196091D01*
Y153148D01*
X195814D01*
Y153010D01*
X195538D01*
Y152872D01*
X195262D01*
Y152734D01*
X194985D01*
Y152596D01*
X194709D01*
Y152458D01*
X194433D01*
Y152319D01*
X194156D01*
Y152181D01*
X193880D01*
Y152043D01*
X193603D01*
Y151905D01*
X193327D01*
Y151767D01*
X193051D01*
Y151628D01*
X192774D01*
Y151490D01*
X192498D01*
Y151352D01*
X192222D01*
Y151214D01*
X191807D01*
Y151076D01*
X191531D01*
Y150938D01*
X191254D01*
Y150799D01*
X190840D01*
Y150661D01*
X190564D01*
Y150523D01*
X190149D01*
Y150385D01*
X189734D01*
Y150247D01*
X189320D01*
Y150108D01*
X188905D01*
Y149970D01*
X188491D01*
Y149832D01*
X187938D01*
Y149694D01*
X187385D01*
Y149556D01*
X186694D01*
Y149417D01*
X185727D01*
Y149279D01*
X184760D01*
Y149141D01*
X182963D01*
Y149003D01*
X180338D01*
Y168625D01*
X214746D01*
Y166000D01*
D02*
G37*
G36*
X178403Y149003D02*
X175640D01*
Y149141D01*
X173981D01*
Y149279D01*
X172876D01*
Y149417D01*
X172047D01*
Y149556D01*
X171356D01*
Y149694D01*
X170803D01*
Y149832D01*
X170250D01*
Y149970D01*
X169836D01*
Y150108D01*
X169283D01*
Y150247D01*
X168869D01*
Y150385D01*
X168454D01*
Y150523D01*
X168178D01*
Y150661D01*
X167763D01*
Y150799D01*
X167487D01*
Y150938D01*
X167210D01*
Y151076D01*
X166796D01*
Y151214D01*
X166520D01*
Y151352D01*
X166243D01*
Y151490D01*
X165967D01*
Y151628D01*
X165690D01*
Y151767D01*
X165276D01*
Y151905D01*
X165000D01*
Y152043D01*
X164723D01*
Y152181D01*
X164447D01*
Y152319D01*
X164170D01*
Y152458D01*
X163894D01*
Y152596D01*
X163618D01*
Y152734D01*
X163341D01*
Y152872D01*
X163203D01*
Y153010D01*
X162927D01*
Y153148D01*
X162650D01*
Y153287D01*
X162374D01*
Y153425D01*
X162098D01*
Y153563D01*
X161959D01*
Y153701D01*
X161683D01*
Y153839D01*
X161407D01*
Y153977D01*
X161130D01*
Y154116D01*
X160854D01*
Y154254D01*
X160716D01*
Y154392D01*
X160439D01*
Y154530D01*
X160163D01*
Y154668D01*
X160025D01*
Y154807D01*
X159748D01*
Y154945D01*
X159472D01*
Y155083D01*
X159334D01*
Y155221D01*
X159058D01*
Y155359D01*
X158919D01*
Y155498D01*
X158643D01*
Y155636D01*
X158505D01*
Y155774D01*
X158229D01*
Y155912D01*
X158090D01*
Y156050D01*
X157814D01*
Y156188D01*
X157676D01*
Y156327D01*
X157399D01*
Y156465D01*
X157261D01*
Y156603D01*
X156985D01*
Y156741D01*
X156847D01*
Y156879D01*
X156570D01*
Y157018D01*
X156432D01*
Y157156D01*
X156156D01*
Y157294D01*
X156018D01*
Y157432D01*
X155879D01*
Y157570D01*
X155603D01*
Y157709D01*
X155465D01*
Y157847D01*
X155189D01*
Y157985D01*
X155050D01*
Y158123D01*
X154912D01*
Y158261D01*
X154636D01*
Y158399D01*
X154498D01*
Y158538D01*
X154359D01*
Y158676D01*
X154083D01*
Y158814D01*
X153945D01*
Y158952D01*
X153668D01*
Y159090D01*
X153530D01*
Y159228D01*
X153392D01*
Y159367D01*
X153116D01*
Y159505D01*
X152978D01*
Y159643D01*
X152839D01*
Y159781D01*
X152563D01*
Y159919D01*
X152425D01*
Y160058D01*
X152148D01*
Y160196D01*
X152010D01*
Y160334D01*
X151734D01*
Y160472D01*
X151596D01*
Y160610D01*
X151458D01*
Y160749D01*
X151181D01*
Y160887D01*
X151043D01*
Y161025D01*
X150905D01*
Y161163D01*
X150628D01*
Y161301D01*
X150490D01*
Y161439D01*
X150352D01*
Y161578D01*
X150076D01*
Y161716D01*
X149937D01*
Y161854D01*
X149661D01*
Y161992D01*
X149523D01*
Y162130D01*
X149385D01*
Y162269D01*
X149108D01*
Y162407D01*
X148970D01*
Y162545D01*
X148694D01*
Y162683D01*
X148556D01*
Y162821D01*
X148418D01*
Y162959D01*
X148141D01*
Y163098D01*
X148003D01*
Y163236D01*
X147865D01*
Y163374D01*
X147588D01*
Y163512D01*
X147450D01*
Y163650D01*
X147312D01*
Y163789D01*
X147036D01*
Y163927D01*
X146897D01*
Y164065D01*
X146621D01*
Y164203D01*
X146483D01*
Y164341D01*
X146345D01*
Y164480D01*
X146068D01*
Y164618D01*
X145930D01*
Y164756D01*
X145792D01*
Y164894D01*
X145516D01*
Y165032D01*
X145377D01*
Y165170D01*
X145101D01*
Y165309D01*
X144963D01*
Y165447D01*
X144686D01*
Y165585D01*
X144548D01*
Y165723D01*
X144410D01*
Y165861D01*
X144134D01*
Y166000D01*
X143996D01*
Y168625D01*
X178403D01*
Y149003D01*
D02*
G37*
G36*
X214746Y133250D02*
X180338D01*
Y146930D01*
X181858D01*
Y147068D01*
X184207D01*
Y147206D01*
X185451D01*
Y147345D01*
X186418D01*
Y147483D01*
X187109D01*
Y147621D01*
X187800D01*
Y147759D01*
X188353D01*
Y147897D01*
X188905D01*
Y148036D01*
X189458D01*
Y148174D01*
X189872D01*
Y148312D01*
X190287D01*
Y148450D01*
X190702D01*
Y148588D01*
X190978D01*
Y148727D01*
X191393D01*
Y148865D01*
X191807D01*
Y149003D01*
X192083D01*
Y149141D01*
X192360D01*
Y149279D01*
X192636D01*
Y149417D01*
X193051D01*
Y149556D01*
X193327D01*
Y149694D01*
X193603D01*
Y149832D01*
X193880D01*
Y149970D01*
X194156D01*
Y150108D01*
X194433D01*
Y150247D01*
X194847D01*
Y150385D01*
X194985D01*
Y150523D01*
X195262D01*
Y150661D01*
X195676D01*
Y150799D01*
X195814D01*
Y150938D01*
X196091D01*
Y151076D01*
X196367D01*
Y151214D01*
X196644D01*
Y151352D01*
X196920D01*
Y151490D01*
X197196D01*
Y151628D01*
X197334D01*
Y151767D01*
X197611D01*
Y151905D01*
X197887D01*
Y152043D01*
X198164D01*
Y152181D01*
X198440D01*
Y152319D01*
X198578D01*
Y152458D01*
X198855D01*
Y152596D01*
X199131D01*
Y152734D01*
X199269D01*
Y152872D01*
X199545D01*
Y153010D01*
X199822D01*
Y153148D01*
X199960D01*
Y153287D01*
X200236D01*
Y153425D01*
X200513D01*
Y153563D01*
X200651D01*
Y153701D01*
X200927D01*
Y153839D01*
X201065D01*
Y153977D01*
X201342D01*
Y154116D01*
X201618D01*
Y154254D01*
X201756D01*
Y154392D01*
X201894D01*
Y154530D01*
X202171D01*
Y154668D01*
X202447D01*
Y154807D01*
X202585D01*
Y154945D01*
X202862D01*
Y155083D01*
X203000D01*
Y155221D01*
X203138D01*
Y155359D01*
X203414D01*
Y155498D01*
X203553D01*
Y155636D01*
X203829D01*
Y155774D01*
X203967D01*
Y155912D01*
X204105D01*
Y156050D01*
X204382D01*
Y156188D01*
X204520D01*
Y156327D01*
X204796D01*
Y156465D01*
X204935D01*
Y156603D01*
X205073D01*
Y156741D01*
X205349D01*
Y156879D01*
X205487D01*
Y157018D01*
X205625D01*
Y157156D01*
X205902D01*
Y157294D01*
X206040D01*
Y157432D01*
X206316D01*
Y157570D01*
X206455D01*
Y157709D01*
X206593D01*
Y157847D01*
X206869D01*
Y157985D01*
X207007D01*
Y158123D01*
X207146D01*
Y158261D01*
X207422D01*
Y158399D01*
X207560D01*
Y158538D01*
X207836D01*
Y158676D01*
X207975D01*
Y158814D01*
X208113D01*
Y158952D01*
X208389D01*
Y159090D01*
X208527D01*
Y159228D01*
X208666D01*
Y159367D01*
X208942D01*
Y159505D01*
X209080D01*
Y159643D01*
X209356D01*
Y159781D01*
X209495D01*
Y159919D01*
X209633D01*
Y160058D01*
X209909D01*
Y160196D01*
X210047D01*
Y160334D01*
X210324D01*
Y160472D01*
X210462D01*
Y160610D01*
X210600D01*
Y160749D01*
X210877D01*
Y160887D01*
X211015D01*
Y161025D01*
X211153D01*
Y161163D01*
X211429D01*
Y161301D01*
X211567D01*
Y161439D01*
X211844D01*
Y161578D01*
X211982D01*
Y161716D01*
X212120D01*
Y161854D01*
X212397D01*
Y161992D01*
X212535D01*
Y162130D01*
X212811D01*
Y162269D01*
X212949D01*
Y162407D01*
X213087D01*
Y162545D01*
X213364D01*
Y162683D01*
X213502D01*
Y162821D01*
X213640D01*
Y162959D01*
X213916D01*
Y163098D01*
X214055D01*
Y163236D01*
X214331D01*
Y163374D01*
X214469D01*
Y163512D01*
X214746D01*
Y133250D01*
D02*
G37*
G36*
X144272Y163374D02*
X144410D01*
Y163236D01*
X144548D01*
Y163098D01*
X144825D01*
Y162959D01*
X144963D01*
Y162821D01*
X145239D01*
Y162683D01*
X145377D01*
Y162545D01*
X145654D01*
Y162407D01*
X145792D01*
Y162269D01*
X145930D01*
Y162130D01*
X146207D01*
Y161992D01*
X146345D01*
Y161854D01*
X146483D01*
Y161716D01*
X146759D01*
Y161578D01*
X146897D01*
Y161439D01*
X147174D01*
Y161301D01*
X147312D01*
Y161163D01*
X147450D01*
Y161025D01*
X147727D01*
Y160887D01*
X147865D01*
Y160749D01*
X148003D01*
Y160610D01*
X148279D01*
Y160472D01*
X148418D01*
Y160334D01*
X148694D01*
Y160196D01*
X148832D01*
Y160058D01*
X148970D01*
Y159919D01*
X149247D01*
Y159781D01*
X149385D01*
Y159643D01*
X149661D01*
Y159505D01*
X149799D01*
Y159367D01*
X149937D01*
Y159228D01*
X150214D01*
Y159090D01*
X150352D01*
Y158952D01*
X150490D01*
Y158814D01*
X150767D01*
Y158676D01*
X150905D01*
Y158538D01*
X151181D01*
Y158399D01*
X151319D01*
Y158261D01*
X151458D01*
Y158123D01*
X151734D01*
Y157985D01*
X151872D01*
Y157847D01*
X152010D01*
Y157709D01*
X152287D01*
Y157570D01*
X152425D01*
Y157432D01*
X152701D01*
Y157294D01*
X152839D01*
Y157156D01*
X152978D01*
Y157018D01*
X153254D01*
Y156879D01*
X153392D01*
Y156741D01*
X153530D01*
Y156603D01*
X153807D01*
Y156465D01*
X153945D01*
Y156327D01*
X154221D01*
Y156188D01*
X154359D01*
Y156050D01*
X154498D01*
Y155912D01*
X154774D01*
Y155774D01*
X154912D01*
Y155636D01*
X155189D01*
Y155498D01*
X155327D01*
Y155359D01*
X155465D01*
Y155221D01*
X155741D01*
Y155083D01*
X155879D01*
Y154945D01*
X156156D01*
Y154807D01*
X156294D01*
Y154668D01*
X156570D01*
Y154530D01*
X156708D01*
Y154392D01*
X156985D01*
Y154254D01*
X157123D01*
Y154116D01*
X157399D01*
Y153977D01*
X157538D01*
Y153839D01*
X157814D01*
Y153701D01*
X158090D01*
Y153563D01*
X158229D01*
Y153425D01*
X158505D01*
Y153287D01*
X158643D01*
Y153148D01*
X158919D01*
Y153010D01*
X159196D01*
Y152872D01*
X159334D01*
Y152734D01*
X159610D01*
Y152596D01*
X159887D01*
Y152458D01*
X160163D01*
Y152319D01*
X160301D01*
Y152181D01*
X160578D01*
Y152043D01*
X160854D01*
Y151905D01*
X161130D01*
Y151767D01*
X161269D01*
Y151628D01*
X161545D01*
Y151490D01*
X161821D01*
Y151352D01*
X162098D01*
Y151214D01*
X162374D01*
Y151076D01*
X162512D01*
Y150938D01*
X162927D01*
Y150799D01*
X163065D01*
Y150661D01*
X163341D01*
Y150523D01*
X163618D01*
Y150385D01*
X163894D01*
Y150247D01*
X164309D01*
Y150108D01*
X164447D01*
Y149970D01*
X164723D01*
Y149832D01*
X165138D01*
Y149694D01*
X165414D01*
Y149556D01*
X165690D01*
Y149417D01*
X165967D01*
Y149279D01*
X166243D01*
Y149141D01*
X166658D01*
Y149003D01*
X166934D01*
Y148865D01*
X167349D01*
Y148727D01*
X167625D01*
Y148588D01*
X168039D01*
Y148450D01*
X168454D01*
Y148312D01*
X168869D01*
Y148174D01*
X169283D01*
Y148036D01*
X169836D01*
Y147897D01*
X170250D01*
Y147759D01*
X170941D01*
Y147621D01*
X171494D01*
Y147483D01*
X172323D01*
Y147345D01*
X173291D01*
Y147206D01*
X174534D01*
Y147068D01*
X176331D01*
Y146930D01*
X176469D01*
Y147068D01*
X176745D01*
Y146930D01*
X178265D01*
Y133250D01*
X143996D01*
Y163512D01*
X144272D01*
Y163374D01*
D02*
G37*
G36*
X272168Y175857D02*
X274677D01*
Y175438D01*
X276350D01*
Y175020D01*
X277604D01*
Y174602D01*
X278859D01*
Y174184D01*
X279695D01*
Y173766D01*
X280949D01*
Y173348D01*
X281367D01*
Y172930D01*
X282622D01*
Y172511D01*
X283040D01*
Y172093D01*
X283876D01*
Y171675D01*
X284713D01*
Y171257D01*
X285131D01*
Y170839D01*
X285549D01*
Y170421D01*
X286385D01*
Y170003D01*
X286803D01*
Y169584D01*
X287221D01*
Y169166D01*
X288058D01*
Y168748D01*
X288476D01*
Y168330D01*
X288894D01*
Y167912D01*
X289312D01*
Y167494D01*
X289730D01*
Y167076D01*
X290149D01*
Y166657D01*
X290567D01*
Y166239D01*
X290985D01*
Y165821D01*
X291403D01*
Y164985D01*
X291821D01*
Y164567D01*
X292239D01*
Y164149D01*
X292657D01*
Y163312D01*
X293076D01*
Y162894D01*
X293494D01*
Y162058D01*
X293912D01*
Y161640D01*
X294330D01*
Y160803D01*
X294748D01*
Y159967D01*
X295166D01*
Y159131D01*
X295584D01*
Y158294D01*
X296003D01*
Y157458D01*
X296421D01*
Y156204D01*
X296839D01*
Y154949D01*
X297257D01*
Y153277D01*
X297675D01*
Y151186D01*
X298093D01*
Y146168D01*
X298511D01*
Y145750D01*
X298093D01*
Y141569D01*
X297675D01*
Y139478D01*
X297257D01*
Y137805D01*
X296839D01*
Y136551D01*
X296421D01*
Y135715D01*
X296003D01*
Y134460D01*
X295584D01*
Y133624D01*
X295166D01*
Y132787D01*
X294748D01*
Y131951D01*
X294330D01*
Y131533D01*
X293912D01*
Y130697D01*
X293494D01*
Y129860D01*
X293076D01*
Y129442D01*
X292657D01*
Y129024D01*
X292239D01*
Y128188D01*
X291821D01*
Y127770D01*
X291403D01*
Y127352D01*
X290985D01*
Y126933D01*
X290567D01*
Y126515D01*
X290149D01*
Y125679D01*
X289730D01*
Y125261D01*
X289312D01*
Y124843D01*
X288476D01*
Y124424D01*
X288058D01*
Y124006D01*
X287640D01*
Y123588D01*
X287221D01*
Y123170D01*
X286803D01*
Y122752D01*
X285967D01*
Y122334D01*
X285549D01*
Y121916D01*
X285131D01*
Y121497D01*
X284294D01*
Y121079D01*
X283458D01*
Y120661D01*
X283040D01*
Y120243D01*
X282204D01*
Y119825D01*
X281367D01*
Y119407D01*
X280531D01*
Y118989D01*
X279695D01*
Y118570D01*
X278440D01*
Y118152D01*
X277186D01*
Y117734D01*
X275931D01*
Y117316D01*
X274259D01*
Y116898D01*
X271332D01*
Y116480D01*
X263805D01*
Y116898D01*
X260878D01*
Y117316D01*
X259624D01*
Y117734D01*
X257951D01*
Y118152D01*
X256697D01*
Y118570D01*
X255860D01*
Y118989D01*
X254606D01*
Y119407D01*
X253770D01*
Y119825D01*
X252933D01*
Y120243D01*
X252097D01*
Y120661D01*
X251679D01*
Y121079D01*
X250843D01*
Y121497D01*
X250424D01*
Y121916D01*
X249588D01*
Y122334D01*
X249170D01*
Y122752D01*
X248334D01*
Y123170D01*
X247916D01*
Y123588D01*
X247497D01*
Y124006D01*
X247079D01*
Y124424D01*
X246661D01*
Y124843D01*
X246243D01*
Y125261D01*
X245825D01*
Y125679D01*
X245407D01*
Y126097D01*
X244989D01*
Y126515D01*
X244570D01*
Y126933D01*
X244152D01*
Y127352D01*
X243734D01*
Y127770D01*
X243316D01*
Y128188D01*
X242898D01*
Y129024D01*
X242480D01*
Y129442D01*
X242062D01*
Y130279D01*
X241643D01*
Y130697D01*
X241225D01*
Y131533D01*
X240807D01*
Y132369D01*
X240389D01*
Y133206D01*
X239971D01*
Y133624D01*
X239553D01*
Y134460D01*
X239135D01*
Y135715D01*
X238716D01*
Y136969D01*
X238298D01*
Y138223D01*
X237880D01*
Y139896D01*
X237462D01*
Y141987D01*
X237044D01*
Y150768D01*
X237462D01*
Y153277D01*
X237880D01*
Y154531D01*
X238298D01*
Y155786D01*
X238716D01*
Y157040D01*
X239135D01*
Y158294D01*
X239553D01*
Y159131D01*
X239971D01*
Y159967D01*
X240389D01*
Y160803D01*
X240807D01*
Y161222D01*
X241225D01*
Y162058D01*
X241643D01*
Y162894D01*
X242062D01*
Y163312D01*
X242480D01*
Y163730D01*
X242898D01*
Y164567D01*
X243316D01*
Y164985D01*
X243734D01*
Y165403D01*
X244152D01*
Y165821D01*
X244570D01*
Y166657D01*
X244989D01*
Y167076D01*
X245407D01*
Y167494D01*
X245825D01*
Y167912D01*
X246243D01*
Y168330D01*
X247079D01*
Y168748D01*
X247497D01*
Y169166D01*
X247916D01*
Y169584D01*
X248334D01*
Y170003D01*
X248752D01*
Y170421D01*
X249588D01*
Y170839D01*
X250006D01*
Y171257D01*
X250843D01*
Y171675D01*
X251261D01*
Y172093D01*
X252097D01*
Y172511D01*
X252933D01*
Y172930D01*
X253770D01*
Y173348D01*
X254606D01*
Y173766D01*
X255442D01*
Y174184D01*
X256697D01*
Y174602D01*
X257533D01*
Y175020D01*
X258787D01*
Y175438D01*
X260460D01*
Y175857D01*
X262969D01*
Y176275D01*
X272168D01*
Y175857D01*
D02*
G37*
G36*
X184207Y119017D02*
X185174D01*
Y118879D01*
X185589D01*
Y118741D01*
X186003D01*
Y118603D01*
X186280D01*
Y118464D01*
X186418D01*
Y118326D01*
X186694D01*
Y118188D01*
X186833D01*
Y118050D01*
X186971D01*
Y117912D01*
X187109D01*
Y117773D01*
X187247D01*
Y117635D01*
X187385D01*
Y117497D01*
X187523D01*
Y117221D01*
X187662D01*
Y117083D01*
X187800D01*
Y116806D01*
X187938D01*
Y116530D01*
X188076D01*
Y116115D01*
X188214D01*
Y115562D01*
X188353D01*
Y114733D01*
X188491D01*
Y103817D01*
X188353D01*
Y103679D01*
X184069D01*
Y103817D01*
X183931D01*
Y114043D01*
X183792D01*
Y114457D01*
X183654D01*
Y114733D01*
X183516D01*
Y115010D01*
X183378D01*
Y115148D01*
X183240D01*
Y115286D01*
X183102D01*
Y115424D01*
X182963D01*
Y115562D01*
X182549D01*
Y115701D01*
X180891D01*
Y115562D01*
X180476D01*
Y115424D01*
X180200D01*
Y115286D01*
X180061D01*
Y115148D01*
X179923D01*
Y115010D01*
X179785D01*
Y114872D01*
X179647D01*
Y114733D01*
X179509D01*
Y114457D01*
X179371D01*
Y114181D01*
X179232D01*
Y113766D01*
X179094D01*
Y113352D01*
X178956D01*
Y112522D01*
X178818D01*
Y103679D01*
X174534D01*
Y103817D01*
X174396D01*
Y118879D01*
X178542D01*
Y118326D01*
X178680D01*
Y116668D01*
X178818D01*
Y116115D01*
X178956D01*
Y116253D01*
X179094D01*
Y116530D01*
X179232D01*
Y116806D01*
X179371D01*
Y117083D01*
X179509D01*
Y117221D01*
X179647D01*
Y117497D01*
X179785D01*
Y117635D01*
X179923D01*
Y117773D01*
X180061D01*
Y117912D01*
X180200D01*
Y118050D01*
X180338D01*
Y118188D01*
X180614D01*
Y118326D01*
X180752D01*
Y118464D01*
X181029D01*
Y118603D01*
X181305D01*
Y118741D01*
X181720D01*
Y118879D01*
X182134D01*
Y119017D01*
X183102D01*
Y119155D01*
X184207D01*
Y119017D01*
D02*
G37*
G36*
X170665Y110035D02*
X170527D01*
Y109068D01*
X170389D01*
Y108515D01*
X170250D01*
Y108101D01*
X170112D01*
Y107686D01*
X169974D01*
Y107410D01*
X169836D01*
Y107133D01*
X169698D01*
Y106857D01*
X169560D01*
Y106581D01*
X169421D01*
Y106442D01*
X169283D01*
Y106166D01*
X169145D01*
Y106028D01*
X169007D01*
Y105890D01*
X168869D01*
Y105751D01*
X168730D01*
Y105613D01*
X168592D01*
Y105475D01*
X168454D01*
Y105337D01*
X168316D01*
Y105199D01*
X168178D01*
Y105061D01*
X167901D01*
Y104922D01*
X167763D01*
Y104784D01*
X167487D01*
Y104646D01*
X167349D01*
Y104508D01*
X167072D01*
Y104370D01*
X166796D01*
Y104231D01*
X166381D01*
Y104093D01*
X166105D01*
Y103955D01*
X165552D01*
Y103817D01*
X165138D01*
Y103679D01*
X164309D01*
Y103540D01*
X163065D01*
Y103402D01*
X161407D01*
Y103540D01*
X160025D01*
Y103679D01*
X159334D01*
Y103817D01*
X158781D01*
Y103955D01*
X158367D01*
Y104093D01*
X157952D01*
Y104231D01*
X157676D01*
Y104370D01*
X157399D01*
Y104508D01*
X157123D01*
Y104646D01*
X156847D01*
Y104784D01*
X156708D01*
Y104922D01*
X156432D01*
Y105061D01*
X156294D01*
Y105199D01*
X156156D01*
Y105337D01*
X156018D01*
Y105475D01*
X155879D01*
Y105613D01*
X155741D01*
Y105751D01*
X155603D01*
Y105890D01*
X155465D01*
Y106028D01*
X155327D01*
Y106166D01*
X155189D01*
Y106442D01*
X155050D01*
Y106581D01*
X154912D01*
Y106857D01*
X154774D01*
Y106995D01*
X154636D01*
Y107410D01*
X154498D01*
Y107686D01*
X154359D01*
Y107962D01*
X154221D01*
Y108515D01*
X154083D01*
Y109068D01*
X153945D01*
Y110035D01*
X153807D01*
Y123301D01*
X153945D01*
Y123439D01*
X158229D01*
Y123301D01*
X158367D01*
Y110035D01*
X158505D01*
Y109482D01*
X158643D01*
Y109068D01*
X158781D01*
Y108792D01*
X158919D01*
Y108515D01*
X159058D01*
Y108377D01*
X159196D01*
Y108239D01*
X159334D01*
Y107962D01*
X159610D01*
Y107824D01*
X159748D01*
Y107686D01*
X159887D01*
Y107548D01*
X160025D01*
Y107410D01*
X160301D01*
Y107271D01*
X160716D01*
Y107133D01*
X161269D01*
Y106995D01*
X163341D01*
Y107133D01*
X163894D01*
Y107271D01*
X164170D01*
Y107410D01*
X164447D01*
Y107548D01*
X164585D01*
Y107686D01*
X164861D01*
Y107824D01*
X165000D01*
Y107962D01*
X165138D01*
Y108101D01*
X165276D01*
Y108377D01*
X165414D01*
Y108515D01*
X165552D01*
Y108792D01*
X165690D01*
Y109206D01*
X165829D01*
Y109621D01*
X165967D01*
Y110173D01*
X166105D01*
Y123301D01*
X166243D01*
Y123439D01*
X170665D01*
Y110035D01*
D02*
G37*
G36*
X199960Y123301D02*
X201342D01*
Y123163D01*
X202033D01*
Y123024D01*
X202585D01*
Y122886D01*
X203000D01*
Y122748D01*
X203414D01*
Y122610D01*
X203691D01*
Y122472D01*
X203967D01*
Y122333D01*
X204105D01*
Y122195D01*
X204382D01*
Y122057D01*
X204520D01*
Y121919D01*
X204796D01*
Y121781D01*
X204935D01*
Y121643D01*
X205073D01*
Y121504D01*
X205211D01*
Y121366D01*
X205349D01*
Y121090D01*
X205487D01*
Y120952D01*
X205625D01*
Y120675D01*
X205764D01*
Y120399D01*
X205902D01*
Y119984D01*
X206040D01*
Y119570D01*
X206178D01*
Y117359D01*
X206040D01*
Y116806D01*
X205902D01*
Y116530D01*
X205764D01*
Y116253D01*
X205625D01*
Y115977D01*
X205487D01*
Y115839D01*
X205349D01*
Y115562D01*
X205211D01*
Y115424D01*
X205073D01*
Y115286D01*
X204935D01*
Y115148D01*
X204658D01*
Y115010D01*
X204520D01*
Y114872D01*
X204244D01*
Y114733D01*
X203967D01*
Y114595D01*
X203691D01*
Y114457D01*
X203414D01*
Y114319D01*
X203000D01*
Y114181D01*
X203138D01*
Y114043D01*
X203691D01*
Y113904D01*
X204105D01*
Y113766D01*
X204520D01*
Y113628D01*
X204796D01*
Y113490D01*
X205073D01*
Y113352D01*
X205349D01*
Y113213D01*
X205487D01*
Y113075D01*
X205764D01*
Y112937D01*
X205902D01*
Y112799D01*
X206040D01*
Y112661D01*
X206178D01*
Y112522D01*
X206316D01*
Y112384D01*
X206455D01*
Y112108D01*
X206593D01*
Y111970D01*
X206731D01*
Y111693D01*
X206869D01*
Y111417D01*
X207007D01*
Y111002D01*
X207146D01*
Y110588D01*
X207284D01*
Y108101D01*
X207146D01*
Y107548D01*
X207007D01*
Y107133D01*
X206869D01*
Y106857D01*
X206731D01*
Y106581D01*
X206593D01*
Y106442D01*
X206455D01*
Y106166D01*
X206316D01*
Y106028D01*
X206178D01*
Y105890D01*
X206040D01*
Y105751D01*
X205902D01*
Y105613D01*
X205764D01*
Y105475D01*
X205625D01*
Y105337D01*
X205487D01*
Y105199D01*
X205211D01*
Y105061D01*
X205073D01*
Y104922D01*
X204796D01*
Y104784D01*
X204658D01*
Y104646D01*
X204244D01*
Y104508D01*
X203967D01*
Y104370D01*
X203553D01*
Y104231D01*
X203138D01*
Y104093D01*
X202585D01*
Y103955D01*
X201894D01*
Y103817D01*
X200513D01*
Y103679D01*
X192360D01*
Y103817D01*
X192222D01*
Y116253D01*
Y116392D01*
Y123439D01*
X199960D01*
Y123301D01*
D02*
G37*
G36*
X221287Y537275D02*
X221941D01*
Y534004D01*
X216054D01*
Y534658D01*
X214745D01*
Y534004D01*
X212129D01*
Y533350D01*
X212783D01*
Y530079D01*
Y529425D01*
Y511763D01*
X213437D01*
Y509146D01*
X212783D01*
Y506530D01*
X213437D01*
Y503913D01*
X210166D01*
Y504567D01*
X207550D01*
Y503913D01*
X206241D01*
Y504567D01*
X205587D01*
Y509146D01*
X206241D01*
Y525500D01*
X206896D01*
Y526154D01*
X207550D01*
Y527462D01*
X206896D01*
Y528116D01*
X206241D01*
Y532696D01*
X205587D01*
Y534004D01*
X203625D01*
Y533350D01*
X199046D01*
Y534004D01*
X197738D01*
Y533350D01*
X197084D01*
Y535966D01*
X196430D01*
Y539237D01*
X195775D01*
Y539891D01*
X196430D01*
Y540545D01*
X200354D01*
Y539891D01*
X204933D01*
Y540545D01*
X206896D01*
Y539891D01*
X209512D01*
Y540545D01*
X212129D01*
Y541199D01*
X218016D01*
Y540545D01*
X218670D01*
Y541199D01*
X219324D01*
Y541853D01*
X221287D01*
Y537275D01*
D02*
G37*
G36*
X161106Y534004D02*
X155873D01*
Y534658D01*
X154564D01*
Y534004D01*
X151948D01*
Y533350D01*
X152602D01*
Y513071D01*
X151948D01*
Y512417D01*
X152602D01*
Y505876D01*
X153256D01*
Y503913D01*
X149985D01*
Y504567D01*
X147369D01*
Y503913D01*
X145406D01*
Y511109D01*
X146061D01*
Y513071D01*
X145406D01*
Y516996D01*
X146061D01*
Y525500D01*
X146715D01*
Y528116D01*
X146061D01*
Y528771D01*
X145406D01*
Y534004D01*
X142790D01*
Y533350D01*
X138865D01*
Y534004D01*
X137557D01*
Y533350D01*
X136903D01*
Y534658D01*
X136249D01*
Y537929D01*
X135594D01*
Y540545D01*
X140173D01*
Y539891D01*
X144752D01*
Y540545D01*
X146715D01*
Y539891D01*
X149331D01*
Y540545D01*
X151948D01*
Y541199D01*
X157835D01*
Y540545D01*
X158489D01*
Y541199D01*
X159143D01*
Y541853D01*
X161106D01*
Y534004D01*
D02*
G37*
G36*
X170918Y541199D02*
X188580D01*
Y540545D01*
X189234D01*
Y535966D01*
X181384D01*
Y519613D01*
X182038D01*
Y518959D01*
X189234D01*
Y514380D01*
X188580D01*
Y513725D01*
X187271D01*
Y514380D01*
X184001D01*
Y513725D01*
X179422D01*
Y514380D01*
X178768D01*
Y513725D01*
X171572D01*
Y514380D01*
X169610D01*
Y513725D01*
X166993D01*
Y519613D01*
X172880D01*
Y518959D01*
X174189D01*
Y519613D01*
X174843D01*
Y524846D01*
X175497D01*
Y526808D01*
X174843D01*
Y529425D01*
X176151D01*
Y530733D01*
X174843D01*
Y534658D01*
X174189D01*
Y535966D01*
X168955D01*
Y535312D01*
X167647D01*
Y535966D01*
X166993D01*
Y536620D01*
Y541199D01*
X167647D01*
Y541853D01*
X170918D01*
Y541199D01*
D02*
G37*
G36*
X176151Y509801D02*
X189234D01*
Y504567D01*
X186617D01*
Y505222D01*
X184655D01*
Y504567D01*
X181384D01*
Y505222D01*
X180730D01*
Y505876D01*
X180076D01*
Y505222D01*
X178768D01*
Y504567D01*
X170918D01*
Y505222D01*
X169610D01*
Y504567D01*
X166993D01*
Y506530D01*
Y507184D01*
Y509801D01*
X167647D01*
Y510455D01*
X172226D01*
Y509801D01*
X174843D01*
Y510455D01*
X176151D01*
Y509801D01*
D02*
G37*
G36*
X230445Y506530D02*
Y510455D01*
X235678D01*
Y509801D01*
X236986D01*
Y510455D01*
X240257D01*
Y509801D01*
X252031D01*
Y504567D01*
X250723D01*
Y505222D01*
X246144D01*
Y504567D01*
X244836D01*
Y505222D01*
X244182D01*
Y505876D01*
X242873D01*
Y505222D01*
X241565D01*
Y504567D01*
X234370D01*
Y505222D01*
X232407D01*
Y504567D01*
X230445D01*
Y505876D01*
Y506530D01*
D02*
G37*
G36*
X242219Y543162D02*
X244182D01*
Y542508D01*
X246144D01*
Y541853D01*
X247452D01*
Y541199D01*
X248107D01*
Y540545D01*
X247452D01*
Y539237D01*
X246798D01*
Y538583D01*
X246144D01*
Y537275D01*
X245490D01*
Y536620D01*
X244836D01*
Y535966D01*
X245490D01*
Y534658D01*
X246144D01*
Y532696D01*
X246798D01*
Y530079D01*
X247452D01*
Y528771D01*
X248107D01*
Y527462D01*
X248761D01*
Y526808D01*
X249415D01*
Y526154D01*
X248761D01*
Y524192D01*
X250069D01*
Y523538D01*
X250723D01*
Y522883D01*
X251377D01*
Y521575D01*
X252031D01*
Y520267D01*
X252686D01*
Y518959D01*
X253340D01*
Y516996D01*
X253994D01*
Y516342D01*
X254648D01*
Y515688D01*
X255302D01*
Y515034D01*
X254648D01*
Y514380D01*
X252686D01*
Y513725D01*
X250723D01*
Y513071D01*
X248761D01*
Y512417D01*
X248107D01*
Y513071D01*
X247452D01*
Y514380D01*
X246798D01*
Y516342D01*
X246144D01*
Y517650D01*
X239603D01*
Y516996D01*
X236986D01*
Y517650D01*
X236332D01*
Y516996D01*
X235678D01*
Y516342D01*
X235024D01*
Y513725D01*
X234370D01*
Y513071D01*
X233061D01*
Y513725D01*
X231753D01*
Y514380D01*
X230445D01*
Y515034D01*
X227828D01*
Y515688D01*
X227174D01*
Y516342D01*
X227828D01*
Y517650D01*
X228482D01*
Y518959D01*
X229137D01*
Y519613D01*
X229791D01*
Y520921D01*
X230445D01*
Y521575D01*
X231099D01*
Y523538D01*
X231753D01*
Y524846D01*
X232407D01*
Y526154D01*
X233061D01*
Y526808D01*
X233715D01*
Y527462D01*
X234370D01*
Y528771D01*
X235024D01*
Y530079D01*
X235678D01*
Y532041D01*
X236986D01*
Y532696D01*
X237640D01*
Y534004D01*
X236986D01*
Y535312D01*
X237640D01*
Y536620D01*
X238295D01*
Y537929D01*
X238949D01*
Y539891D01*
X239603D01*
Y540545D01*
X240257D01*
Y541199D01*
X240911D01*
Y541853D01*
X240257D01*
Y543162D01*
X240911D01*
Y543816D01*
X242219D01*
Y543162D01*
D02*
G37*
G36*
X263152Y540545D02*
X269039D01*
Y537275D01*
X270347D01*
Y536620D01*
X271001D01*
Y535966D01*
X271656D01*
Y535312D01*
X272310D01*
Y534658D01*
X272964D01*
Y534004D01*
X273618D01*
Y533350D01*
X274272D01*
Y532696D01*
X274926D01*
Y530733D01*
X275581D01*
Y530079D01*
X276235D01*
Y530733D01*
X277543D01*
Y530079D01*
X278197D01*
Y528771D01*
X278851D01*
Y528116D01*
X279505D01*
Y527462D01*
X280814D01*
Y539237D01*
X280159D01*
Y540545D01*
X288009D01*
Y534004D01*
X287355D01*
Y532041D01*
X288009D01*
Y530079D01*
X287355D01*
Y518959D01*
X286047D01*
Y517650D01*
X286701D01*
Y516996D01*
X287355D01*
Y508492D01*
X286701D01*
Y507838D01*
X287355D01*
Y507184D01*
X288009D01*
Y504567D01*
X280814D01*
Y505222D01*
X280159D01*
Y509801D01*
X280814D01*
Y519613D01*
X279505D01*
Y520267D01*
X278197D01*
Y520921D01*
X277543D01*
Y521575D01*
X276889D01*
Y522229D01*
X276235D01*
Y522883D01*
X275581D01*
Y523538D01*
X274926D01*
Y524192D01*
X273618D01*
Y524846D01*
X272964D01*
Y525500D01*
X272310D01*
Y526154D01*
X271656D01*
Y526808D01*
X271001D01*
Y527462D01*
X270347D01*
Y528116D01*
X269693D01*
Y528771D01*
X269039D01*
Y513725D01*
X268385D01*
Y513071D01*
X269039D01*
Y511109D01*
X269693D01*
Y510455D01*
X269039D01*
Y506530D01*
X269693D01*
Y504567D01*
X266423D01*
Y505222D01*
X263806D01*
Y504567D01*
X262498D01*
Y505222D01*
X261843D01*
Y511109D01*
X262498D01*
Y526808D01*
X263152D01*
Y527462D01*
X263806D01*
Y528116D01*
X263152D01*
Y528771D01*
X262498D01*
Y529425D01*
X261843D01*
Y535966D01*
X262498D01*
Y537929D01*
X261843D01*
Y539237D01*
X261189D01*
Y540545D01*
X262498D01*
X263152D01*
D02*
G37*
G36*
X311558Y541853D02*
X314829D01*
Y542508D01*
X315483D01*
Y543162D01*
X316137D01*
Y543816D01*
X316791D01*
Y544470D01*
X317446D01*
Y543816D01*
X318100D01*
Y541853D01*
X318754D01*
Y540545D01*
X319408D01*
Y538583D01*
X320062D01*
Y536620D01*
X318100D01*
Y535966D01*
X316137D01*
Y535312D01*
X313521D01*
Y534658D01*
X312212D01*
Y534004D01*
X310250D01*
Y533350D01*
X308288D01*
Y532696D01*
X306979D01*
Y532041D01*
X305671D01*
Y530733D01*
X306325D01*
Y530079D01*
X306979D01*
Y529425D01*
X307633D01*
Y528771D01*
X308288D01*
Y528116D01*
X308942D01*
Y527462D01*
X309596D01*
Y526808D01*
X310250D01*
Y524192D01*
X312867D01*
Y523538D01*
X313521D01*
Y522883D01*
X314175D01*
Y522229D01*
X314829D01*
Y521575D01*
X316137D01*
Y520921D01*
X316791D01*
Y520267D01*
X317446D01*
Y519613D01*
X318100D01*
Y518304D01*
X318754D01*
Y516996D01*
X320716D01*
Y517650D01*
X322024D01*
Y516342D01*
X322679D01*
Y514380D01*
X323333D01*
Y513071D01*
X323987D01*
Y511109D01*
X324641D01*
Y510455D01*
X323333D01*
Y509801D01*
X321370D01*
Y509146D01*
X318100D01*
Y508492D01*
X317446D01*
Y507838D01*
X316137D01*
Y507184D01*
X313521D01*
Y506530D01*
X312212D01*
Y505876D01*
X310250D01*
Y505222D01*
X308942D01*
Y504567D01*
X306979D01*
Y503913D01*
X305671D01*
Y503259D01*
X303709D01*
Y502605D01*
X301092D01*
Y503259D01*
X300438D01*
Y504567D01*
X299784D01*
Y505876D01*
X299130D01*
Y507184D01*
X298475D01*
Y508492D01*
X300438D01*
Y509146D01*
X301746D01*
Y509801D01*
X305017D01*
Y510455D01*
X306325D01*
Y511109D01*
X307633D01*
Y511763D01*
X308942D01*
Y511109D01*
X310250D01*
Y511763D01*
X310904D01*
Y513071D01*
X312212D01*
Y515034D01*
X311558D01*
Y515688D01*
X310904D01*
Y516342D01*
X310250D01*
Y516996D01*
X309596D01*
Y517650D01*
X308942D01*
Y518304D01*
X308288D01*
Y518959D01*
X307633D01*
Y519613D01*
X306979D01*
Y520267D01*
X306325D01*
Y520921D01*
X305671D01*
Y521575D01*
X305017D01*
Y522229D01*
X304363D01*
Y522883D01*
X303709D01*
Y523538D01*
X303054D01*
Y524192D01*
X302400D01*
Y524846D01*
X301746D01*
Y525500D01*
X301092D01*
Y526154D01*
X300438D01*
Y526808D01*
X299784D01*
Y527462D01*
X299130D01*
Y528771D01*
X297167D01*
Y529425D01*
X296513D01*
Y530733D01*
X295859D01*
Y532041D01*
X295205D01*
Y532696D01*
X294551D01*
Y534004D01*
X293897D01*
Y534658D01*
X295205D01*
Y535312D01*
X296513D01*
Y535966D01*
X299784D01*
Y536620D01*
X301746D01*
Y537275D01*
X302400D01*
Y537929D01*
X303709D01*
Y538583D01*
X304363D01*
Y537929D01*
X306325D01*
Y538583D01*
X306979D01*
Y539891D01*
X308942D01*
Y540545D01*
X310250D01*
Y541199D01*
X311558D01*
Y541853D01*
D02*
G37*
%LPC*%
G36*
X281367Y167494D02*
X280949D01*
Y167076D01*
X275931D01*
Y166239D01*
X275513D01*
Y165403D01*
X275095D01*
Y164149D01*
X274677D01*
Y163312D01*
X274259D01*
Y162058D01*
X273841D01*
Y160803D01*
X273423D01*
Y159549D01*
X273004D01*
Y158294D01*
X272586D01*
Y157040D01*
X272168D01*
Y155786D01*
X271750D01*
Y154531D01*
X271332D01*
Y153277D01*
X270914D01*
Y152022D01*
X270495D01*
Y150350D01*
X270077D01*
Y149095D01*
X269659D01*
Y147841D01*
X269241D01*
Y146168D01*
X268823D01*
Y144914D01*
X268405D01*
Y144496D01*
X267987D01*
Y147841D01*
X267568D01*
Y150350D01*
X267150D01*
Y152858D01*
X266732D01*
Y154949D01*
X266314D01*
Y157040D01*
X265896D01*
Y158713D01*
X265478D01*
Y160385D01*
X265060D01*
Y162058D01*
X264641D01*
Y162894D01*
X264223D01*
Y164149D01*
X263805D01*
Y164985D01*
X263387D01*
Y165403D01*
X262969D01*
Y166239D01*
X262551D01*
Y166657D01*
X261714D01*
Y167076D01*
X260878D01*
Y167494D01*
X257533D01*
Y167076D01*
X256697D01*
Y166657D01*
X256279D01*
Y166239D01*
X255860D01*
Y165821D01*
X255442D01*
Y165403D01*
X255024D01*
Y164567D01*
X254606D01*
Y163730D01*
X254188D01*
Y162058D01*
X253770D01*
Y157458D01*
X255442D01*
Y159967D01*
X255860D01*
Y160803D01*
X256279D01*
Y161640D01*
X256697D01*
Y162058D01*
X257115D01*
Y162476D01*
X260460D01*
Y162058D01*
X260878D01*
Y161640D01*
X261296D01*
Y161222D01*
X261714D01*
Y160803D01*
X262133D01*
Y160385D01*
X262551D01*
Y159549D01*
X262969D01*
Y158294D01*
X263387D01*
Y157040D01*
X263805D01*
Y154949D01*
X264223D01*
Y152858D01*
X264641D01*
Y150768D01*
X265060D01*
Y148259D01*
X265478D01*
Y145750D01*
X265896D01*
Y143241D01*
X266314D01*
Y140314D01*
X266732D01*
Y138642D01*
X266314D01*
Y137805D01*
X265896D01*
Y136969D01*
X265478D01*
Y136133D01*
X265060D01*
Y135296D01*
X264641D01*
Y134042D01*
X264223D01*
Y132787D01*
X263805D01*
Y131533D01*
X263387D01*
Y130279D01*
X262969D01*
Y128188D01*
X262551D01*
Y125261D01*
X262969D01*
Y124006D01*
X263387D01*
Y123588D01*
X263805D01*
Y123170D01*
X264641D01*
Y122752D01*
X266314D01*
Y123170D01*
X267150D01*
Y123588D01*
X267568D01*
Y124006D01*
X267987D01*
Y125261D01*
X268405D01*
Y126515D01*
X268823D01*
Y129860D01*
X269241D01*
Y135715D01*
X268823D01*
Y140314D01*
X269241D01*
Y141150D01*
X269659D01*
Y141987D01*
X270077D01*
Y142823D01*
X270495D01*
Y144077D01*
X270914D01*
Y144914D01*
X271332D01*
Y145750D01*
X271750D01*
Y146586D01*
X272168D01*
Y147423D01*
X272586D01*
Y148259D01*
X273004D01*
Y149095D01*
X273423D01*
Y150350D01*
X273841D01*
Y151186D01*
X274259D01*
Y152022D01*
X274677D01*
Y152858D01*
X275095D01*
Y153695D01*
X275513D01*
Y154531D01*
X275931D01*
Y155786D01*
X276350D01*
Y156622D01*
X276768D01*
Y157458D01*
X277186D01*
Y158294D01*
X277604D01*
Y159131D01*
X278022D01*
Y159967D01*
X278440D01*
Y160803D01*
X278859D01*
Y161640D01*
X279277D01*
Y162476D01*
X279695D01*
Y163312D01*
X280113D01*
Y164149D01*
X280531D01*
Y164985D01*
X280949D01*
Y165821D01*
X281367D01*
Y166657D01*
X281786D01*
Y167076D01*
X281367D01*
Y167494D01*
D02*
G37*
G36*
X198993Y120261D02*
X198578D01*
Y120122D01*
X198440D01*
Y120261D01*
X196782D01*
Y120122D01*
X196644D01*
Y115562D01*
X199407D01*
Y115701D01*
X200098D01*
Y115839D01*
X200513D01*
Y115977D01*
X200789D01*
Y116115D01*
X201065D01*
Y116253D01*
X201204D01*
Y116392D01*
X201342D01*
Y116668D01*
X201480D01*
Y116944D01*
X201618D01*
Y117359D01*
X201756D01*
Y118464D01*
X201618D01*
Y118879D01*
X201480D01*
Y119155D01*
X201342D01*
Y119432D01*
X201204D01*
Y119570D01*
X201065D01*
Y119708D01*
X200789D01*
Y119846D01*
X200513D01*
Y119984D01*
X199960D01*
Y120122D01*
X198993D01*
Y120261D01*
D02*
G37*
G36*
X200375Y112246D02*
X196644D01*
Y109482D01*
Y109344D01*
Y106995D01*
X200375D01*
Y107133D01*
X200927D01*
Y107271D01*
X201342D01*
Y107410D01*
X201618D01*
Y107548D01*
X201894D01*
Y107686D01*
X202033D01*
Y107824D01*
X202171D01*
Y107962D01*
X202309D01*
Y108101D01*
X202447D01*
Y108377D01*
X202585D01*
Y108653D01*
X202724D01*
Y109344D01*
X202862D01*
Y109897D01*
X202724D01*
Y110588D01*
X202585D01*
Y110864D01*
X202447D01*
Y111141D01*
X202309D01*
Y111279D01*
X202171D01*
Y111417D01*
X202033D01*
Y111555D01*
X201894D01*
Y111693D01*
X201618D01*
Y111832D01*
X201342D01*
Y111970D01*
X200927D01*
Y112108D01*
X200375D01*
Y112246D01*
D02*
G37*
G36*
X241565Y528116D02*
X240911D01*
Y526808D01*
X240257D01*
Y525500D01*
X239603D01*
Y524192D01*
X238949D01*
Y523538D01*
X238295D01*
Y522229D01*
X237640D01*
Y521575D01*
X244182D01*
Y522883D01*
X243528D01*
Y524192D01*
X242873D01*
Y525500D01*
X242219D01*
Y526808D01*
X241565D01*
Y528116D01*
D02*
G37*
%LPD*%
D10*
X240939Y38817D02*
G03*
X205885Y41250I-18189J-8317D01*
G01*
Y19750D02*
G03*
X240939Y22183I16865J10750D01*
G01*
Y88067D02*
G03*
X205885Y90500I-18189J-8317D01*
G01*
Y69000D02*
G03*
X240939Y71433I16865J10750D01*
G01*
X394800Y505350D02*
X420200D01*
Y302150D02*
Y505350D01*
X394800Y302150D02*
X420200D01*
X394800D02*
Y505350D01*
X1750Y138150D02*
Y230350D01*
X20750D01*
Y243350D01*
X86750D01*
Y125150D02*
Y243350D01*
X20750Y125150D02*
X86750D01*
X20750D02*
Y138150D01*
X1750D02*
X20750D01*
X19250Y330000D02*
X87250D01*
X19250Y317500D02*
Y330000D01*
X2250Y317500D02*
X19250D01*
Y251400D02*
X87250D01*
X19250D02*
Y263900D01*
X2250D02*
X19250D01*
X2250D02*
Y317500D01*
X87250Y251400D02*
Y330000D01*
X43750Y488300D02*
Y493300D01*
X41250Y490800D02*
X46250D01*
X52990Y388250D02*
X58250D01*
X34250Y451250D02*
X39510D01*
X34250Y388250D02*
X39510D01*
X52990Y451250D02*
X58250D01*
Y388250D02*
Y451250D01*
X34250Y388250D02*
Y451250D01*
X123000Y4250D02*
Y108250D01*
X107000D02*
X123000D01*
X107000Y4250D02*
X123000D01*
X20000Y342997D02*
Y333000D01*
X24998D01*
X26665Y334666D01*
Y336332D01*
X24998Y337998D01*
X20000D01*
X24998D01*
X26665Y339664D01*
Y341331D01*
X24998Y342997D01*
X20000D01*
X31663Y339664D02*
X34995D01*
X36661Y337998D01*
Y333000D01*
X31663D01*
X29997Y334666D01*
X31663Y336332D01*
X36661D01*
X41660Y341331D02*
Y339664D01*
X39994D01*
X43326D01*
X41660D01*
Y334666D01*
X43326Y333000D01*
X54989D02*
X48324D01*
X54989Y339664D01*
Y341331D01*
X53323Y342997D01*
X49990D01*
X48324Y341331D01*
X64985D02*
X63319Y342997D01*
X59987D01*
X58321Y341331D01*
Y339664D01*
X59987Y337998D01*
X63319D01*
X64985Y336332D01*
Y334666D01*
X63319Y333000D01*
X59987D01*
X58321Y334666D01*
D11*
X377600Y546700D02*
G03*
X377600Y546700I-2000J0D01*
G01*
X92500D02*
G03*
X92500Y546700I-2000J0D01*
G01*
X126250Y487000D02*
Y495000D01*
X341250D01*
Y477000D02*
Y495000D01*
Y257000D02*
Y487000D01*
X126250Y226000D02*
Y487000D01*
Y226000D02*
X341250D01*
Y257000D01*
X226500Y39700D02*
X236500D01*
X343500Y120700D02*
X380500D01*
Y149700D01*
X427040Y465710D02*
X436037D01*
Y461211D01*
X434538Y459712D01*
X431539D01*
X430039Y461211D01*
Y465710D01*
X433038Y455213D02*
Y452214D01*
X431539Y450715D01*
X427040D01*
Y455213D01*
X428540Y456713D01*
X430039Y455213D01*
Y450715D01*
X434538Y446216D02*
X433038D01*
Y447716D01*
Y444717D01*
Y446216D01*
X428540D01*
X427040Y444717D01*
X433038Y440218D02*
X427040D01*
X430039D01*
X431539Y438719D01*
X433038Y437219D01*
Y435720D01*
X427040Y429722D02*
Y426723D01*
X428540Y425223D01*
X431539D01*
X433038Y426723D01*
Y429722D01*
X431539Y431221D01*
X428540D01*
X427040Y429722D01*
X433038Y416226D02*
Y420724D01*
X431539Y422224D01*
X428540D01*
X427040Y420724D01*
Y416226D01*
Y413227D02*
Y410228D01*
Y411727D01*
X433038D01*
Y413227D01*
X427040Y405729D02*
X433038D01*
Y401231D01*
X431539Y399731D01*
X427040D01*
Y396732D02*
Y393733D01*
Y395233D01*
X433038D01*
Y396732D01*
X427040Y387735D02*
Y384736D01*
X428540Y383237D01*
X431539D01*
X433038Y384736D01*
Y387735D01*
X431539Y389235D01*
X428540D01*
X427040Y387735D01*
X436037Y365243D02*
X427040D01*
Y369741D01*
X428540Y371241D01*
X431539D01*
X433038Y369741D01*
Y365243D01*
X427040Y357745D02*
Y360744D01*
X428540Y362243D01*
X431539D01*
X433038Y360744D01*
Y357745D01*
X431539Y356245D01*
X430039D01*
Y362243D01*
X427040Y344249D02*
X436037D01*
X433038Y341250D01*
X436037Y338251D01*
X427040D01*
X433038Y333753D02*
Y330754D01*
X431539Y329254D01*
X427040D01*
Y333753D01*
X428540Y335252D01*
X430039Y333753D01*
Y329254D01*
X433038Y326255D02*
X427040D01*
X430039D01*
X431539Y324756D01*
X433038Y323256D01*
Y321757D01*
X427040Y317258D02*
Y314259D01*
Y315758D01*
X433038D01*
Y317258D01*
X427040Y308261D02*
Y305262D01*
X428540Y303762D01*
X431539D01*
X433038Y305262D01*
Y308261D01*
X431539Y309760D01*
X428540D01*
X427040Y308261D01*
Y291766D02*
X436037D01*
Y287268D01*
X434538Y285768D01*
X431539D01*
X430039Y287268D01*
Y291766D01*
X433038Y281270D02*
Y278271D01*
X431539Y276771D01*
X427040D01*
Y281270D01*
X428540Y282769D01*
X430039Y281270D01*
Y276771D01*
X427040Y273772D02*
Y269274D01*
X428540Y267774D01*
X430039Y269274D01*
Y272273D01*
X431539Y273772D01*
X433038Y272273D01*
Y267774D01*
X434538Y263276D02*
X433038D01*
Y264775D01*
Y261776D01*
Y263276D01*
X428540D01*
X427040Y261776D01*
X433038Y257278D02*
X427040D01*
X430039D01*
X431539Y255778D01*
X433038Y254278D01*
Y252779D01*
Y246781D02*
Y243782D01*
X431539Y242282D01*
X427040D01*
Y246781D01*
X428540Y248280D01*
X430039Y246781D01*
Y242282D01*
X427040Y239283D02*
X433038D01*
Y234785D01*
X431539Y233285D01*
X427040D01*
X433038Y228787D02*
Y225788D01*
X431539Y224288D01*
X427040D01*
Y228787D01*
X428540Y230286D01*
X430039Y228787D01*
Y224288D01*
X452036Y465960D02*
X443039D01*
Y461461D01*
X444538Y459962D01*
X450537D01*
X452036Y461461D01*
Y465960D01*
X443039Y452464D02*
Y455463D01*
X444538Y456963D01*
X447537D01*
X449037Y455463D01*
Y452464D01*
X447537Y450965D01*
X446038D01*
Y456963D01*
X443039Y447966D02*
Y443467D01*
X444538Y441968D01*
X446038Y443467D01*
Y446466D01*
X447537Y447966D01*
X449037Y446466D01*
Y441968D01*
X443039Y438969D02*
Y435970D01*
Y437469D01*
X449037D01*
Y438969D01*
X440040Y428472D02*
Y426973D01*
X441539Y425473D01*
X449037D01*
Y429972D01*
X447537Y431471D01*
X444538D01*
X443039Y429972D01*
Y425473D01*
Y422474D02*
X449037D01*
Y417976D01*
X447537Y416476D01*
X443039D01*
X440040Y404480D02*
X449037D01*
Y399981D01*
X447537Y398482D01*
X444538D01*
X443039Y399981D01*
Y404480D01*
Y393983D02*
Y390984D01*
X444538Y389485D01*
X447537D01*
X449037Y390984D01*
Y393983D01*
X447537Y395483D01*
X444538D01*
X443039Y393983D01*
X449037Y386486D02*
X443039D01*
X446038D01*
X447537Y384986D01*
X449037Y383487D01*
Y381987D01*
Y377489D02*
Y375989D01*
X447537D01*
Y377489D01*
X449037D01*
X444538D02*
Y375989D01*
X443039D01*
Y377489D01*
X444538D01*
X443039Y360994D02*
X452036D01*
X449037Y357995D01*
X452036Y354996D01*
X443039D01*
X449037Y350497D02*
Y347498D01*
X447537Y345999D01*
X443039D01*
Y350497D01*
X444538Y351997D01*
X446038Y350497D01*
Y345999D01*
X450537Y341500D02*
X449037D01*
Y343000D01*
Y340001D01*
Y341500D01*
X444538D01*
X443039Y340001D01*
X452036Y335502D02*
X443039D01*
X447537D01*
X449037Y334003D01*
Y331004D01*
X447537Y329504D01*
X443039D01*
Y322007D02*
Y325006D01*
X444538Y326505D01*
X447537D01*
X449037Y325006D01*
Y322007D01*
X447537Y320507D01*
X446038D01*
Y326505D01*
X449037Y317508D02*
X444538D01*
X443039Y316008D01*
Y311510D01*
X449037D01*
X443039Y308511D02*
Y304012D01*
X444538Y302513D01*
X446038Y304012D01*
Y307012D01*
X447537Y308511D01*
X449037Y307012D01*
Y302513D01*
X452036Y284519D02*
Y290517D01*
X447537D01*
Y287518D01*
Y290517D01*
X443039D01*
Y277021D02*
Y280020D01*
X444538Y281520D01*
X447537D01*
X449037Y280020D01*
Y277021D01*
X447537Y275522D01*
X446038D01*
Y281520D01*
X443039Y272523D02*
Y269524D01*
Y271023D01*
X452036D01*
Y272523D01*
X443039Y265025D02*
Y262026D01*
Y263526D01*
X449037D01*
Y265025D01*
Y257528D02*
X443039Y251529D01*
X446038Y254528D01*
X449037Y251529D01*
X443039Y257528D01*
X451703Y152960D02*
Y146295D01*
Y149628D01*
X441706D01*
X451703Y142963D02*
Y136299D01*
Y139631D01*
X441706D01*
X446704Y132966D02*
Y126302D01*
X451703Y116305D02*
Y122970D01*
X441706D01*
Y116305D01*
X446704Y122970D02*
Y119637D01*
X451703Y112973D02*
Y106308D01*
Y109641D01*
X441706D01*
X440040Y102976D02*
Y96312D01*
X451703Y92979D02*
X445038D01*
X441706Y89647D01*
X445038Y86315D01*
X451703D01*
X450037Y76318D02*
X451703Y77984D01*
Y81316D01*
X450037Y82983D01*
X448371D01*
X446704Y81316D01*
Y77984D01*
X445038Y76318D01*
X443372D01*
X441706Y77984D01*
Y81316D01*
X443372Y82983D01*
X450037Y66321D02*
X451703Y67987D01*
Y71320D01*
X450037Y72986D01*
X448371D01*
X446704Y71320D01*
Y67987D01*
X445038Y66321D01*
X443372D01*
X441706Y67987D01*
Y71320D01*
X443372Y72986D01*
X450037Y56325D02*
X451703Y57991D01*
Y61323D01*
X450037Y62989D01*
X448371D01*
X446704Y61323D01*
Y57991D01*
X445038Y56325D01*
X443372D01*
X441706Y57991D01*
Y61323D01*
X443372Y62989D01*
X446704Y52992D02*
Y46328D01*
X441706Y42995D02*
X451703D01*
X448371Y39663D01*
X451703Y36331D01*
X441706D01*
X448371Y31332D02*
Y28000D01*
X446704Y26334D01*
X441706D01*
Y31332D01*
X443372Y32999D01*
X445038Y31332D01*
Y26334D01*
X441706Y23002D02*
Y19670D01*
Y21336D01*
X448371D01*
Y23002D01*
X441706Y14671D02*
X448371D01*
Y9673D01*
X446704Y8007D01*
X441706D01*
X324383Y120554D02*
X337078D01*
X339618Y123093D01*
Y128172D01*
X337078Y130711D01*
X324383D01*
X339618Y145946D02*
Y135789D01*
X329461Y145946D01*
X326922D01*
X324383Y143407D01*
Y138328D01*
X326922Y135789D01*
X189304Y218867D02*
Y206172D01*
X191843Y203633D01*
X196922D01*
X199461Y206172D01*
Y218867D01*
X204539Y216328D02*
X207078Y218867D01*
X212157D01*
X214696Y216328D01*
Y213789D01*
X212157Y211250D01*
X209618D01*
X212157D01*
X214696Y208711D01*
Y206172D01*
X212157Y203633D01*
X207078D01*
X204539Y206172D01*
X141593Y62368D02*
Y49672D01*
X144132Y47133D01*
X149211D01*
X151750Y49672D01*
Y62368D01*
X156828Y47133D02*
X161907D01*
X159368D01*
Y62368D01*
X156828Y59828D01*
X65883Y482657D02*
X81118D01*
Y475039D01*
X78578Y472500D01*
X73500D01*
X70961Y475039D01*
Y482657D01*
Y477578D02*
X65883Y472500D01*
Y467422D02*
Y462343D01*
Y464882D01*
X81118D01*
X78578Y467422D01*
X429632Y503446D02*
X444868D01*
Y495828D01*
X442328Y493289D01*
X437250D01*
X434711Y495828D01*
Y503446D01*
X442328Y488211D02*
X444868Y485672D01*
Y480593D01*
X442328Y478054D01*
X439789D01*
X437250Y480593D01*
Y483133D01*
Y480593D01*
X434711Y478054D01*
X432172D01*
X429632Y480593D01*
Y485672D01*
X432172Y488211D01*
X16868Y235054D02*
X1632D01*
Y242672D01*
X4172Y245211D01*
X9250D01*
X11789Y242672D01*
Y235054D01*
X16868Y260446D02*
Y250289D01*
X6711Y260446D01*
X4172D01*
X1632Y257907D01*
Y252828D01*
X4172Y250289D01*
X18118Y113093D02*
X2882D01*
Y120711D01*
X5422Y123250D01*
X10500D01*
X13039Y120711D01*
Y113093D01*
X18118Y128328D02*
Y133407D01*
Y130868D01*
X2882D01*
X5422Y128328D01*
X84118Y532407D02*
X68882D01*
Y524789D01*
X71422Y522250D01*
X81578D01*
X84118Y524789D01*
Y532407D01*
X68882Y517172D02*
Y512093D01*
Y514632D01*
X84118D01*
X81578Y517172D01*
X267461Y14578D02*
X264922Y17118D01*
X259843D01*
X257304Y14578D01*
Y4422D01*
X259843Y1883D01*
X264922D01*
X267461Y4422D01*
X282696Y1883D02*
X272539D01*
X282696Y12039D01*
Y14578D01*
X280157Y17118D01*
X275078D01*
X272539Y14578D01*
X266250Y57828D02*
X263711Y60367D01*
X258633D01*
X256093Y57828D01*
Y47672D01*
X258633Y45132D01*
X263711D01*
X266250Y47672D01*
X271329Y45132D02*
X276407D01*
X273868D01*
Y60367D01*
X271329Y57828D01*
D12*
X43000Y118650D02*
G03*
X43000Y118650I-1250J0D01*
G01*
X40500Y244900D02*
G03*
X40500Y244900I-1250J0D01*
G01*
X156750Y20600D02*
G03*
X156750Y20600I-1250J0D01*
G01*
D13*
X437028Y145718D02*
Y149210D01*
X434409D01*
Y147464D01*
Y149210D01*
X431790D01*
Y141353D02*
Y143099D01*
X432663Y143972D01*
X434409D01*
X435282Y143099D01*
Y141353D01*
X434409Y140479D01*
X433536D01*
Y143972D01*
X431790Y138733D02*
Y136987D01*
Y137860D01*
X435282D01*
Y138733D01*
X436155Y133495D02*
X435282D01*
Y134368D01*
Y132622D01*
Y133495D01*
X432663D01*
X431790Y132622D01*
Y129130D02*
Y127384D01*
X432663Y126511D01*
X434409D01*
X435282Y127384D01*
Y129130D01*
X434409Y130003D01*
X432663D01*
X431790Y129130D01*
Y119526D02*
X435282D01*
Y116907D01*
X434409Y116034D01*
X431790D01*
Y113415D02*
Y111669D01*
X432663Y110796D01*
X434409D01*
X435282Y111669D01*
Y113415D01*
X434409Y114288D01*
X432663D01*
X431790Y113415D01*
X436155Y100319D02*
X437028Y101192D01*
Y102938D01*
X436155Y103811D01*
X432663D01*
X431790Y102938D01*
Y101192D01*
X432663Y100319D01*
X431790Y95954D02*
Y97700D01*
X432663Y98573D01*
X434409D01*
X435282Y97700D01*
Y95954D01*
X434409Y95081D01*
X433536D01*
Y98573D01*
X435282Y93335D02*
X431790D01*
X433536D01*
X434409Y92462D01*
X435282Y91589D01*
Y90716D01*
Y88097D02*
X431790D01*
X433536D01*
X434409Y87224D01*
X435282Y86350D01*
Y85477D01*
Y81985D02*
Y80239D01*
X434409Y79366D01*
X431790D01*
Y81985D01*
X432663Y82858D01*
X433536Y81985D01*
Y79366D01*
X437028Y74128D02*
X431790D01*
Y76747D01*
X432663Y77620D01*
X434409D01*
X435282Y76747D01*
Y74128D01*
X431790Y71509D02*
Y69763D01*
X432663Y68889D01*
X434409D01*
X435282Y69763D01*
Y71509D01*
X434409Y72382D01*
X432663D01*
X431790Y71509D01*
X437028Y61905D02*
X431790D01*
Y59286D01*
X432663Y58413D01*
X433536D01*
X434409Y59286D01*
Y61905D01*
Y59286D01*
X435282Y58413D01*
X436155D01*
X437028Y59286D01*
Y61905D01*
X435282Y56667D02*
X431790D01*
X433536D01*
X434409Y55794D01*
X435282Y54921D01*
Y54048D01*
Y50555D02*
Y48809D01*
X434409Y47936D01*
X431790D01*
Y50555D01*
X432663Y51428D01*
X433536Y50555D01*
Y47936D01*
X431790Y46190D02*
Y43571D01*
X432663Y42698D01*
X433536Y43571D01*
Y45317D01*
X434409Y46190D01*
X435282Y45317D01*
Y42698D01*
X431790Y40952D02*
Y39206D01*
Y40079D01*
X435282D01*
Y40952D01*
X431790Y36587D02*
Y34841D01*
Y35714D01*
X437028D01*
Y36587D01*
X431790Y29602D02*
Y31348D01*
X432663Y32221D01*
X434409D01*
X435282Y31348D01*
Y29602D01*
X434409Y28729D01*
X433536D01*
Y32221D01*
X431790Y26983D02*
Y25237D01*
Y26110D01*
X435282D01*
Y26983D01*
Y22618D02*
X431790D01*
X433536D01*
X434409Y21745D01*
X435282Y20872D01*
Y19999D01*
X431790Y16507D02*
Y14760D01*
X432663Y13887D01*
X434409D01*
X435282Y14760D01*
Y16507D01*
X434409Y17380D01*
X432663D01*
X431790Y16507D01*
M02*
