G04*
G04 #@! TF.GenerationSoftware,Altium Limited,Altium Designer,25.4.2 (15)*
G04*
G04 Layer_Physical_Order=2*
G04 Layer_Color=16711680*
%FSLAX44Y44*%
%MOMM*%
G71*
G04*
G04 #@! TF.SameCoordinates,3DD580B5-EB9C-4BB7-A259-C10CE48ABDDF*
G04*
G04*
G04 #@! TF.FilePolarity,Positive*
G04*
G01*
G75*
%ADD32C,0.8000*%
%ADD33R,2.0000X2.5000*%
%ADD34O,2.0000X2.5000*%
%ADD35C,1.3500*%
%ADD36R,1.3500X1.3500*%
%ADD37R,2.5000X2.0000*%
%ADD38O,2.5000X2.0000*%
%ADD39C,1.5000*%
%ADD40R,1.5000X1.5000*%
%ADD41C,2.1500*%
%ADD42R,2.1500X2.1500*%
%ADD43C,1.4000*%
%ADD44R,1.4000X1.4000*%
%ADD45R,1.3500X1.3500*%
%ADD46C,1.2700*%
G36*
X457500Y506122D02*
X457500Y0D01*
X0D01*
Y506979D01*
X33312Y506982D01*
X34210Y506084D01*
Y494760D01*
X53290D01*
Y506984D01*
X456602Y507020D01*
X457500Y506122D01*
D02*
G37*
%LPC*%
G36*
X408822Y502340D02*
X406178D01*
X403625Y501656D01*
X401335Y500334D01*
X399466Y498465D01*
X398144Y496175D01*
X397460Y493622D01*
Y490978D01*
X398144Y488425D01*
X399466Y486135D01*
X401335Y484266D01*
X403625Y482944D01*
X406178Y482260D01*
X408822D01*
X411375Y482944D01*
X413665Y484266D01*
X415534Y486135D01*
X416856Y488425D01*
X417540Y490978D01*
Y493622D01*
X416856Y496175D01*
X415534Y498465D01*
X413665Y500334D01*
X411375Y501656D01*
X408822Y502340D01*
D02*
G37*
G36*
X310850Y467548D02*
X307576Y467117D01*
X304526Y465854D01*
X301906Y463844D01*
X299896Y461224D01*
X298837Y458667D01*
X297463D01*
X296404Y461224D01*
X294394Y463844D01*
X291774Y465854D01*
X288724Y467117D01*
X287950Y467219D01*
Y452400D01*
Y437581D01*
X288724Y437683D01*
X291774Y438946D01*
X294394Y440956D01*
X296404Y443576D01*
X297463Y446133D01*
X298837D01*
X299896Y443576D01*
X301906Y440956D01*
X304526Y438946D01*
X307576Y437683D01*
X310850Y437252D01*
X314124Y437683D01*
X317174Y438946D01*
X319794Y440956D01*
X321804Y443576D01*
X323067Y446626D01*
X323498Y449900D01*
Y454900D01*
X323067Y458174D01*
X321804Y461224D01*
X319794Y463844D01*
X317174Y465854D01*
X314124Y467117D01*
X310850Y467548D01*
D02*
G37*
G36*
X408822Y476940D02*
X406178D01*
X403625Y476256D01*
X401335Y474934D01*
X399466Y473065D01*
X398144Y470775D01*
X397460Y468222D01*
Y465578D01*
X398144Y463025D01*
X399466Y460735D01*
X401335Y458866D01*
X403625Y457544D01*
X406178Y456860D01*
X408822D01*
X411375Y457544D01*
X413665Y458866D01*
X415534Y460735D01*
X416856Y463025D01*
X417540Y465578D01*
Y468222D01*
X416856Y470775D01*
X415534Y473065D01*
X413665Y474934D01*
X411375Y476256D01*
X408822Y476940D01*
D02*
G37*
G36*
X55540Y474040D02*
X36960D01*
Y455460D01*
X55540D01*
Y474040D01*
D02*
G37*
G36*
X282950Y467219D02*
X282176Y467117D01*
X279126Y465854D01*
X276506Y463844D01*
X274496Y461224D01*
X273233Y458174D01*
X272802Y454900D01*
X282950D01*
Y467219D01*
D02*
G37*
G36*
Y449900D02*
X272802D01*
Y449900D01*
X273233Y446626D01*
X274496Y443576D01*
X276506Y440956D01*
X279126Y438946D01*
X282176Y437683D01*
X282950Y437581D01*
Y449900D01*
D02*
G37*
G36*
X408822Y451540D02*
X406178D01*
X403625Y450856D01*
X401335Y449534D01*
X399466Y447665D01*
X398144Y445375D01*
X397460Y442822D01*
Y440178D01*
X398144Y437625D01*
X399466Y435335D01*
X401335Y433466D01*
X403625Y432144D01*
X406178Y431460D01*
X408822D01*
X411375Y432144D01*
X413665Y433466D01*
X415534Y435335D01*
X416856Y437625D01*
X417540Y440178D01*
Y442822D01*
X416856Y445375D01*
X415534Y447665D01*
X413665Y449534D01*
X411375Y450856D01*
X408822Y451540D01*
D02*
G37*
G36*
X170450Y433148D02*
X167177Y432717D01*
X164126Y431454D01*
X161507Y429444D01*
X159496Y426824D01*
X158438Y424267D01*
X157063D01*
X156004Y426824D01*
X153994Y429444D01*
X151374Y431454D01*
X148324Y432717D01*
X145050Y433148D01*
X141777Y432717D01*
X138726Y431454D01*
X136107Y429444D01*
X134096Y426824D01*
X132833Y423774D01*
X132402Y420500D01*
Y415500D01*
X132833Y412226D01*
X134096Y409176D01*
X136107Y406556D01*
X138726Y404546D01*
X141777Y403283D01*
X145050Y402852D01*
X148324Y403283D01*
X151374Y404546D01*
X153994Y406556D01*
X156004Y409176D01*
X157063Y411733D01*
X158438D01*
X159496Y409176D01*
X161507Y406556D01*
X164126Y404546D01*
X167177Y403283D01*
X170450Y402852D01*
X173724Y403283D01*
X176774Y404546D01*
X179394Y406556D01*
X181404Y409176D01*
X182667Y412226D01*
X183098Y415500D01*
Y420500D01*
X182667Y423774D01*
X181404Y426824D01*
X179394Y429444D01*
X176774Y431454D01*
X173724Y432717D01*
X170450Y433148D01*
D02*
G37*
G36*
X408822Y426140D02*
X406178D01*
X403625Y425456D01*
X401335Y424134D01*
X399466Y422265D01*
X398144Y419975D01*
X397460Y417422D01*
Y414778D01*
X398144Y412225D01*
X399466Y409935D01*
X401335Y408066D01*
X403625Y406744D01*
X406178Y406060D01*
X408822D01*
X411375Y406744D01*
X413665Y408066D01*
X415534Y409935D01*
X416856Y412225D01*
X417540Y414778D01*
Y417422D01*
X416856Y419975D01*
X415534Y422265D01*
X413665Y424134D01*
X411375Y425456D01*
X408822Y426140D01*
D02*
G37*
G36*
X203100Y433148D02*
X199826Y432717D01*
X196776Y431454D01*
X194156Y429444D01*
X192146Y426824D01*
X190883Y423774D01*
X190452Y420500D01*
Y415500D01*
X190883Y412226D01*
X192146Y409176D01*
X194156Y406556D01*
X196776Y404546D01*
X199826Y403283D01*
X203100Y402852D01*
X206374Y403283D01*
X209424Y404546D01*
X212044Y406556D01*
X214054Y409176D01*
X214690Y410712D01*
X215960Y410460D01*
Y402960D01*
X241040D01*
Y433040D01*
X215960D01*
Y425541D01*
X214690Y425288D01*
X214054Y426824D01*
X212044Y429444D01*
X209424Y431454D01*
X206374Y432717D01*
X203100Y433148D01*
D02*
G37*
G36*
X408822Y400740D02*
X406178D01*
X403625Y400056D01*
X401335Y398734D01*
X399466Y396865D01*
X398144Y394575D01*
X397460Y392022D01*
Y389378D01*
X398144Y386825D01*
X399466Y384535D01*
X401335Y382666D01*
X403625Y381344D01*
X406178Y380660D01*
X408822D01*
X411375Y381344D01*
X413665Y382666D01*
X415534Y384535D01*
X416856Y386825D01*
X417540Y389378D01*
Y392022D01*
X416856Y394575D01*
X415534Y396865D01*
X413665Y398734D01*
X411375Y400056D01*
X408822Y400740D01*
D02*
G37*
G36*
X48750Y383698D02*
Y377250D01*
X55198D01*
X54907Y378336D01*
X53684Y380454D01*
X51954Y382184D01*
X49836Y383407D01*
X48750Y383698D01*
D02*
G37*
G36*
X43750D02*
X42664Y383407D01*
X40546Y382184D01*
X38816Y380454D01*
X37593Y378336D01*
X37302Y377250D01*
X43750D01*
Y383698D01*
D02*
G37*
G36*
X55198Y372250D02*
X48750D01*
Y365802D01*
X49836Y366093D01*
X51954Y367316D01*
X53684Y369046D01*
X54907Y371164D01*
X55198Y372250D01*
D02*
G37*
G36*
X43750D02*
X37302D01*
X37593Y371164D01*
X38816Y369046D01*
X40546Y367316D01*
X42664Y366093D01*
X43750Y365802D01*
Y372250D01*
D02*
G37*
G36*
X300600Y366784D02*
Y359560D01*
X307824D01*
X307456Y360935D01*
X306134Y363225D01*
X304265Y365094D01*
X301975Y366416D01*
X300600Y366784D01*
D02*
G37*
G36*
X295600D02*
X294225Y366416D01*
X291935Y365094D01*
X290066Y363225D01*
X288744Y360935D01*
X288376Y359560D01*
X295600D01*
Y366784D01*
D02*
G37*
G36*
X307824Y354560D02*
X300600D01*
Y347336D01*
X301975Y347704D01*
X304265Y349026D01*
X306134Y350895D01*
X307456Y353185D01*
X307824Y354560D01*
D02*
G37*
G36*
X295600D02*
X288376D01*
X288744Y353185D01*
X290066Y350895D01*
X291935Y349026D01*
X294225Y347704D01*
X295600Y347336D01*
Y354560D01*
D02*
G37*
G36*
X410000Y349624D02*
Y342400D01*
X417224D01*
X416856Y343775D01*
X415534Y346065D01*
X413665Y347934D01*
X411375Y349256D01*
X410000Y349624D01*
D02*
G37*
G36*
X405000D02*
X403625Y349256D01*
X401335Y347934D01*
X399466Y346065D01*
X398144Y343775D01*
X397776Y342400D01*
X405000D01*
Y349624D01*
D02*
G37*
G36*
X417224Y337400D02*
X410000D01*
Y330176D01*
X411375Y330544D01*
X413665Y331866D01*
X415534Y333735D01*
X416856Y336025D01*
X417224Y337400D01*
D02*
G37*
G36*
X405000D02*
X397776D01*
X398144Y336025D01*
X399466Y333735D01*
X401335Y331866D01*
X403625Y330544D01*
X405000Y330176D01*
Y337400D01*
D02*
G37*
G36*
X41750Y323589D02*
Y313000D01*
X52339D01*
X51634Y315630D01*
X49885Y318660D01*
X47410Y321135D01*
X44380Y322884D01*
X41750Y323589D01*
D02*
G37*
G36*
X36750D02*
X34120Y322884D01*
X31090Y321135D01*
X28615Y318660D01*
X26866Y315630D01*
X26161Y313000D01*
X36750D01*
Y323589D01*
D02*
G37*
G36*
X227108Y395932D02*
X154500D01*
X152793Y395708D01*
X151202Y395049D01*
X149836Y394000D01*
X137086Y381251D01*
X136038Y379884D01*
X135379Y378293D01*
X135154Y376586D01*
Y364663D01*
X133716Y363225D01*
X132394Y360935D01*
X131710Y358382D01*
Y355738D01*
X132394Y353185D01*
X133716Y350895D01*
X135585Y349026D01*
X137875Y347704D01*
X140428Y347020D01*
X143072D01*
X145625Y347704D01*
X147915Y349026D01*
X149784Y350895D01*
X151106Y353185D01*
X151790Y355738D01*
Y358382D01*
X151106Y360935D01*
X149784Y363225D01*
X148347Y364662D01*
Y373854D01*
X157232Y382740D01*
X224376D01*
X253640Y353475D01*
Y347778D01*
X253865Y346070D01*
X254524Y344479D01*
X255572Y343113D01*
X272261Y326424D01*
X273627Y325376D01*
X275218Y324717D01*
X276926Y324492D01*
X277179D01*
X288610Y313061D01*
Y312330D01*
X289216Y310069D01*
X290386Y308041D01*
X292041Y306386D01*
X294069Y305216D01*
X296330Y304610D01*
X298670D01*
X300931Y305216D01*
X302959Y306386D01*
X304614Y308041D01*
X305784Y310069D01*
X306390Y312330D01*
Y314670D01*
X305784Y316931D01*
X304614Y318959D01*
X302959Y320614D01*
X300931Y321784D01*
X298670Y322390D01*
X297939D01*
X284576Y335753D01*
X283210Y336801D01*
X281619Y337460D01*
X279911Y337685D01*
X279658D01*
X266833Y350510D01*
Y356208D01*
X266608Y357915D01*
X265949Y359506D01*
X264901Y360872D01*
X231772Y394000D01*
X230406Y395049D01*
X228815Y395708D01*
X227108Y395932D01*
D02*
G37*
G36*
X52339Y308000D02*
X41750D01*
Y297411D01*
X44380Y298116D01*
X47410Y299865D01*
X49885Y302340D01*
X51634Y305370D01*
X52339Y308000D01*
D02*
G37*
G36*
X36750D02*
X26161D01*
X26866Y305370D01*
X28615Y302340D01*
X31090Y299865D01*
X34120Y298116D01*
X36750Y297411D01*
Y308000D01*
D02*
G37*
G36*
X222572Y316590D02*
X219928D01*
X217375Y315906D01*
X215085Y314584D01*
X213648Y313146D01*
X207550D01*
X205843Y312922D01*
X204252Y312263D01*
X202886Y311214D01*
X193949Y302278D01*
X192901Y300912D01*
X192242Y299321D01*
X192017Y297614D01*
Y284834D01*
X192195Y283487D01*
X192146Y283424D01*
X190883Y280374D01*
X190452Y277100D01*
Y272100D01*
X190883Y268827D01*
X192146Y265776D01*
X194156Y263157D01*
X196776Y261147D01*
X199826Y259883D01*
X203100Y259452D01*
X206374Y259883D01*
X209424Y261147D01*
X212044Y263157D01*
X214054Y265776D01*
X215113Y268333D01*
X216487D01*
X217187Y266644D01*
X216877Y266241D01*
X216218Y264650D01*
X215993Y262942D01*
Y253558D01*
X215085Y253034D01*
X213216Y251165D01*
X211894Y248875D01*
X211210Y246322D01*
Y243678D01*
X211894Y241125D01*
X213216Y238835D01*
X215085Y236966D01*
X217375Y235644D01*
X219928Y234960D01*
X222572D01*
X225125Y235644D01*
X227415Y236966D01*
X229284Y238835D01*
X230606Y241125D01*
X231290Y243678D01*
Y246322D01*
X230606Y248875D01*
X229284Y251165D01*
X229186Y251263D01*
Y259542D01*
X231774Y259883D01*
X234824Y261147D01*
X237444Y263157D01*
X239454Y265776D01*
X240717Y268827D01*
X241148Y272100D01*
Y277100D01*
X240717Y280374D01*
X239454Y283424D01*
X237444Y286044D01*
X234824Y288054D01*
X231774Y289317D01*
X228500Y289748D01*
X225226Y289317D01*
X222176Y288054D01*
X219556Y286044D01*
X217546Y283424D01*
X216487Y280868D01*
X215113D01*
X214054Y283424D01*
X212044Y286044D01*
X209424Y288054D01*
X206374Y289317D01*
X205210Y289471D01*
Y294881D01*
X210282Y299954D01*
X213648D01*
X215085Y298516D01*
X217375Y297194D01*
X219928Y296510D01*
X222572D01*
X225125Y297194D01*
X227415Y298516D01*
X229284Y300385D01*
X230606Y302675D01*
X231290Y305228D01*
Y307872D01*
X230606Y310425D01*
X229284Y312715D01*
X227415Y314584D01*
X225125Y315906D01*
X222572Y316590D01*
D02*
G37*
G36*
X52540Y284190D02*
X25960D01*
Y257610D01*
X52540D01*
Y284190D01*
D02*
G37*
G36*
X42500Y237140D02*
X39000D01*
X35620Y236234D01*
X32590Y234485D01*
X30115Y232010D01*
X28366Y228980D01*
X27460Y225600D01*
Y222100D01*
X28366Y218720D01*
X30115Y215690D01*
X32590Y213215D01*
X35620Y211466D01*
X39000Y210560D01*
X42500D01*
X45880Y211466D01*
X48910Y213215D01*
X51385Y215690D01*
X53134Y218720D01*
X54040Y222100D01*
Y225600D01*
X53134Y228980D01*
X51385Y232010D01*
X48910Y234485D01*
X45880Y236234D01*
X42500Y237140D01*
D02*
G37*
G36*
X169650Y204224D02*
Y197000D01*
X176874D01*
X176506Y198375D01*
X175184Y200665D01*
X173315Y202534D01*
X171025Y203856D01*
X169650Y204224D01*
D02*
G37*
G36*
X164650Y204224D02*
X163275Y203856D01*
X160985Y202534D01*
X159116Y200665D01*
X157794Y198375D01*
X157426Y197000D01*
X164650D01*
Y204224D01*
D02*
G37*
G36*
X176874Y192000D02*
X169650D01*
Y184776D01*
X171025Y185144D01*
X173315Y186466D01*
X175184Y188335D01*
X176506Y190625D01*
X176874Y192000D01*
D02*
G37*
G36*
X164650D02*
X157426D01*
X157794Y190625D01*
X159116Y188335D01*
X160985Y186466D01*
X163275Y185144D01*
X164650Y184776D01*
Y192000D01*
D02*
G37*
G36*
X42500Y197540D02*
X39000D01*
X35620Y196634D01*
X32590Y194884D01*
X30115Y192410D01*
X28366Y189380D01*
X27460Y186000D01*
Y182500D01*
X28366Y179120D01*
X30115Y176089D01*
X32590Y173615D01*
X35620Y171866D01*
X39000Y170960D01*
X42500D01*
X45880Y171866D01*
X48910Y173615D01*
X51385Y176089D01*
X53134Y179120D01*
X54040Y182500D01*
Y186000D01*
X53134Y189380D01*
X51385Y192410D01*
X48910Y194884D01*
X45880Y196634D01*
X42500Y197540D01*
D02*
G37*
G36*
X375319Y159600D02*
X345681D01*
X345783Y158826D01*
X347046Y155776D01*
X349057Y153156D01*
X351676Y151146D01*
X353212Y150510D01*
X352960Y149240D01*
X345460D01*
Y124160D01*
X375540D01*
Y149240D01*
X368041D01*
X367788Y150510D01*
X369324Y151146D01*
X371944Y153156D01*
X373954Y155776D01*
X375217Y158826D01*
X375319Y159600D01*
D02*
G37*
G36*
X250250Y88698D02*
Y82250D01*
X256698D01*
X256407Y83336D01*
X255184Y85454D01*
X253454Y87184D01*
X251336Y88407D01*
X250250Y88698D01*
D02*
G37*
G36*
X245250D02*
X244164Y88407D01*
X242046Y87184D01*
X240316Y85454D01*
X239093Y83336D01*
X238802Y82250D01*
X245250D01*
Y88698D01*
D02*
G37*
G36*
X256698Y77250D02*
X250250D01*
Y70802D01*
X251336Y71093D01*
X253454Y72316D01*
X255184Y74046D01*
X256407Y76164D01*
X256698Y77250D01*
D02*
G37*
G36*
X245250D02*
X238802D01*
X239093Y76164D01*
X240316Y74046D01*
X242046Y72316D01*
X244164Y71093D01*
X245250Y70802D01*
Y77250D01*
D02*
G37*
G36*
X299422Y204540D02*
X296778D01*
X294225Y203856D01*
X291935Y202534D01*
X290066Y200665D01*
X288744Y198375D01*
X288060Y195822D01*
Y193178D01*
X288744Y190625D01*
X290066Y188335D01*
X291504Y186898D01*
Y175406D01*
X285726Y169629D01*
X284677Y168262D01*
X284018Y166671D01*
X283794Y164964D01*
Y134710D01*
X284018Y133003D01*
X284677Y131412D01*
X285726Y130046D01*
X367436Y48336D01*
X368802Y47287D01*
X370393Y46628D01*
X372100Y46404D01*
X395524D01*
X396041Y45886D01*
X398069Y44716D01*
X400330Y44110D01*
X402670D01*
X404931Y44716D01*
X406959Y45886D01*
X408614Y47541D01*
X409784Y49569D01*
X410390Y51830D01*
Y54170D01*
X409784Y56431D01*
X408614Y58459D01*
X406959Y60114D01*
X404931Y61284D01*
X402670Y61890D01*
X400330D01*
X398069Y61284D01*
X396041Y60114D01*
X395524Y59596D01*
X374832D01*
X296986Y137443D01*
Y162232D01*
X302764Y168010D01*
X303813Y169376D01*
X304472Y170967D01*
X304696Y172674D01*
Y186898D01*
X306134Y188335D01*
X307456Y190625D01*
X308140Y193178D01*
Y195822D01*
X307456Y198375D01*
X306134Y200665D01*
X304265Y202534D01*
X301975Y203856D01*
X299422Y204540D01*
D02*
G37*
G36*
X363000Y504948D02*
X358000D01*
X354726Y504517D01*
X351676Y503254D01*
X349057Y501244D01*
X347046Y498624D01*
X345783Y495574D01*
X345352Y492300D01*
X345783Y489026D01*
X347046Y485976D01*
X349057Y483356D01*
X351676Y481346D01*
X354233Y480287D01*
Y478913D01*
X351676Y477854D01*
X349057Y475844D01*
X347046Y473224D01*
X345783Y470174D01*
X345352Y466900D01*
X345783Y463626D01*
X347046Y460576D01*
X349057Y457956D01*
X351676Y455946D01*
X354233Y454887D01*
Y453513D01*
X351676Y452454D01*
X349057Y450444D01*
X347046Y447824D01*
X345783Y444774D01*
X345352Y441500D01*
X345783Y438226D01*
X347046Y435176D01*
X349057Y432556D01*
X351676Y430546D01*
X354233Y429487D01*
Y428113D01*
X351676Y427054D01*
X349057Y425044D01*
X347046Y422424D01*
X345783Y419374D01*
X345352Y416100D01*
X345783Y412826D01*
X347046Y409776D01*
X349057Y407156D01*
X351676Y405146D01*
X354233Y404087D01*
Y402713D01*
X351676Y401654D01*
X349057Y399644D01*
X347046Y397024D01*
X345783Y393974D01*
X345352Y390700D01*
X345783Y387426D01*
X347046Y384376D01*
X349057Y381756D01*
X351676Y379746D01*
X354233Y378687D01*
Y377313D01*
X351676Y376254D01*
X349057Y374244D01*
X347046Y371624D01*
X345783Y368574D01*
X345352Y365300D01*
X345783Y362026D01*
X347046Y358976D01*
X349057Y356356D01*
X351676Y354346D01*
X354233Y353287D01*
Y351913D01*
X351676Y350854D01*
X349057Y348844D01*
X347046Y346224D01*
X345783Y343174D01*
X345352Y339900D01*
X345783Y336626D01*
X347046Y333576D01*
X349057Y330956D01*
X351676Y328946D01*
X354233Y327887D01*
Y326513D01*
X351676Y325454D01*
X349057Y323444D01*
X347046Y320824D01*
X345783Y317774D01*
X345352Y314500D01*
X345783Y311226D01*
X347046Y308176D01*
X349057Y305556D01*
X351676Y303546D01*
X354233Y302487D01*
Y301113D01*
X351676Y300054D01*
X349057Y298044D01*
X347046Y295424D01*
X345783Y292374D01*
X345352Y289100D01*
X345783Y285826D01*
X347046Y282776D01*
X349057Y280156D01*
X351676Y278146D01*
X354233Y277087D01*
Y275713D01*
X351676Y274654D01*
X349057Y272644D01*
X347046Y270024D01*
X345783Y266974D01*
X345352Y263700D01*
X345783Y260426D01*
X347046Y257376D01*
X349057Y254756D01*
X351676Y252746D01*
X354233Y251687D01*
Y250313D01*
X351676Y249254D01*
X349057Y247244D01*
X347046Y244624D01*
X345783Y241574D01*
X345352Y238300D01*
X345783Y235026D01*
X347046Y231976D01*
X349057Y229356D01*
X351676Y227346D01*
X354233Y226287D01*
Y224913D01*
X351676Y223854D01*
X349057Y221844D01*
X347046Y219224D01*
X345783Y216174D01*
X345352Y212900D01*
X345783Y209626D01*
X347046Y206576D01*
X349057Y203956D01*
X351676Y201946D01*
X354233Y200887D01*
Y199513D01*
X351676Y198454D01*
X349057Y196444D01*
X347046Y193824D01*
X345783Y190774D01*
X345352Y187500D01*
X345783Y184226D01*
X347046Y181176D01*
X349057Y178556D01*
X351676Y176546D01*
X354233Y175487D01*
Y174113D01*
X351676Y173054D01*
X349057Y171044D01*
X347046Y168424D01*
X345783Y165374D01*
X345681Y164600D01*
X375319D01*
X375217Y165374D01*
X373954Y168424D01*
X371944Y171044D01*
X369324Y173054D01*
X366768Y174113D01*
Y175487D01*
X369324Y176546D01*
X371944Y178556D01*
X373954Y181176D01*
X375217Y184226D01*
X375648Y187500D01*
X375217Y190774D01*
X373954Y193824D01*
X371944Y196444D01*
X369324Y198454D01*
X366768Y199513D01*
Y200887D01*
X369324Y201946D01*
X371944Y203956D01*
X373954Y206576D01*
X375217Y209626D01*
X375648Y212900D01*
X375217Y216174D01*
X373954Y219224D01*
X371944Y221844D01*
X369324Y223854D01*
X366768Y224913D01*
Y226287D01*
X369324Y227346D01*
X371944Y229356D01*
X373884Y231884D01*
X373945Y231886D01*
X375154Y230973D01*
Y221522D01*
X375378Y219815D01*
X376037Y218224D01*
X377086Y216858D01*
X400754Y193190D01*
Y123082D01*
X387518Y109846D01*
X355482D01*
X331346Y133982D01*
Y188148D01*
X331534Y188335D01*
X332856Y190625D01*
X333540Y193178D01*
Y195822D01*
X332856Y198375D01*
X331534Y200665D01*
X329665Y202534D01*
X327375Y203856D01*
X324822Y204540D01*
X322178D01*
X319625Y203856D01*
X317335Y202534D01*
X315466Y200665D01*
X314144Y198375D01*
X313460Y195822D01*
Y193178D01*
X314144Y190625D01*
X315466Y188335D01*
X316903Y186898D01*
Y182860D01*
X317128Y181153D01*
X317787Y179562D01*
X318154Y179084D01*
Y131250D01*
X318378Y129543D01*
X319037Y127952D01*
X320086Y126586D01*
X348086Y98586D01*
X349452Y97537D01*
X351043Y96878D01*
X352750Y96654D01*
X390250D01*
X391957Y96878D01*
X393548Y97537D01*
X394914Y98586D01*
X412014Y115686D01*
X413063Y117052D01*
X413722Y118643D01*
X413946Y120350D01*
Y195922D01*
X413722Y197629D01*
X413063Y199220D01*
X412014Y200586D01*
X388346Y224254D01*
Y283365D01*
X388122Y285072D01*
X387463Y286663D01*
X386414Y288029D01*
X381728Y292715D01*
X380362Y293764D01*
X378771Y294423D01*
X377064Y294647D01*
X374276D01*
X373954Y295424D01*
X371944Y298044D01*
X369324Y300054D01*
X366768Y301113D01*
Y302487D01*
X369324Y303546D01*
X371944Y305556D01*
X373745Y307903D01*
X377226D01*
X394030Y291100D01*
Y252056D01*
X393512Y251539D01*
X392342Y249511D01*
X391736Y247250D01*
Y244910D01*
X392342Y242649D01*
X393512Y240621D01*
X395167Y238966D01*
X397195Y237796D01*
X399456Y237190D01*
X401796D01*
X404057Y237796D01*
X406085Y238966D01*
X407740Y240621D01*
X408910Y242649D01*
X409516Y244910D01*
Y247250D01*
X408910Y249511D01*
X407740Y251539D01*
X407222Y252056D01*
Y293832D01*
X406998Y295539D01*
X406339Y297130D01*
X405290Y298496D01*
X400500Y303287D01*
X400986Y304460D01*
X408561D01*
X426154Y286868D01*
Y52482D01*
X408018Y34346D01*
X346482D01*
X237150Y143679D01*
Y185821D01*
X268143Y216814D01*
X298411D01*
X300118Y217039D01*
X301709Y217698D01*
X303075Y218746D01*
X327164Y242836D01*
X328213Y244202D01*
X328872Y245793D01*
X329096Y247500D01*
Y266524D01*
X329614Y267041D01*
X330784Y269069D01*
X331390Y271330D01*
Y273670D01*
X330784Y275931D01*
X329614Y277959D01*
X329596Y277976D01*
Y348987D01*
X329665Y349026D01*
X331534Y350895D01*
X332856Y353185D01*
X333540Y355738D01*
Y358382D01*
X332856Y360935D01*
X331534Y363225D01*
X329665Y365094D01*
X327375Y366416D01*
X324822Y367100D01*
X322178D01*
X319625Y366416D01*
X317335Y365094D01*
X315466Y363225D01*
X314144Y360935D01*
X313460Y358382D01*
Y355738D01*
X314144Y353185D01*
X315466Y350895D01*
X316404Y349958D01*
Y278976D01*
X315386Y277959D01*
X314216Y275931D01*
X313610Y273670D01*
Y271330D01*
X314216Y269069D01*
X315386Y267041D01*
X315904Y266524D01*
Y250232D01*
X295678Y230007D01*
X265411D01*
X263703Y229782D01*
X262113Y229123D01*
X260746Y228075D01*
X225889Y193217D01*
X192963Y160292D01*
X166169D01*
X165346Y161114D01*
Y165461D01*
X165122Y167168D01*
X164463Y168759D01*
X163414Y170125D01*
X148346Y185193D01*
Y186898D01*
X149784Y188335D01*
X151106Y190625D01*
X151790Y193178D01*
Y195822D01*
X151106Y198375D01*
X149784Y200665D01*
X147915Y202534D01*
X145625Y203856D01*
X143072Y204540D01*
X140428D01*
X137875Y203856D01*
X135585Y202534D01*
X135346Y202295D01*
X134172Y202780D01*
Y263702D01*
X135375Y264110D01*
X136107Y263157D01*
X138454Y261355D01*
Y253700D01*
X138679Y251993D01*
X139338Y250402D01*
X140386Y249036D01*
X170336Y219086D01*
X171702Y218037D01*
X173293Y217378D01*
X175000Y217154D01*
X232750D01*
X234457Y217378D01*
X236048Y218037D01*
X237414Y219086D01*
X247325Y228996D01*
X248373Y230362D01*
X249032Y231953D01*
X249257Y233661D01*
Y236442D01*
X250165Y236966D01*
X252034Y238835D01*
X253356Y241125D01*
X254040Y243678D01*
Y246322D01*
X253356Y248875D01*
X252034Y251165D01*
X250165Y253034D01*
X247875Y254356D01*
X245322Y255040D01*
X242678D01*
X240125Y254356D01*
X237835Y253034D01*
X235966Y251165D01*
X234644Y248875D01*
X233960Y246322D01*
Y243678D01*
X234644Y241125D01*
X235966Y238835D01*
X236064Y238737D01*
Y236393D01*
X230018Y230346D01*
X177733D01*
X151647Y256432D01*
Y261355D01*
X153994Y263157D01*
X156004Y265776D01*
X157063Y268333D01*
X158438D01*
X159496Y265776D01*
X161507Y263157D01*
X164126Y261147D01*
X167177Y259883D01*
X170450Y259452D01*
X173724Y259883D01*
X176774Y261147D01*
X179394Y263157D01*
X181404Y265776D01*
X182667Y268827D01*
X183098Y272100D01*
Y277100D01*
X182667Y280374D01*
X181404Y283424D01*
X179394Y286044D01*
X177047Y287845D01*
Y301768D01*
X199683Y324404D01*
X230018D01*
X237279Y317143D01*
Y314027D01*
X235966Y312715D01*
X234644Y310425D01*
X233960Y307872D01*
Y305228D01*
X234644Y302675D01*
X235966Y300385D01*
X237835Y298516D01*
X240125Y297194D01*
X242678Y296510D01*
X245322D01*
X247875Y297194D01*
X250165Y298516D01*
X252034Y300385D01*
X253356Y302675D01*
X254040Y305228D01*
Y307872D01*
X253356Y310425D01*
X252034Y312715D01*
X250471Y314277D01*
Y319875D01*
X250247Y321582D01*
X249588Y323173D01*
X248539Y324539D01*
X237414Y335664D01*
X236048Y336713D01*
X234457Y337372D01*
X232750Y337596D01*
X196950D01*
X195243Y337372D01*
X193652Y336713D01*
X192286Y335664D01*
X165786Y309164D01*
X164737Y307798D01*
X164079Y306207D01*
X163854Y304500D01*
Y287845D01*
X161507Y286044D01*
X159496Y283424D01*
X158438Y280868D01*
X157063D01*
X156004Y283424D01*
X153994Y286044D01*
X151374Y288054D01*
X148324Y289317D01*
X145050Y289748D01*
X141777Y289317D01*
X138726Y288054D01*
X136107Y286044D01*
X135375Y285091D01*
X134172Y285499D01*
Y292370D01*
X171815Y330012D01*
X172863Y331378D01*
X173522Y332969D01*
X173747Y334676D01*
Y349458D01*
X175184Y350895D01*
X176506Y353185D01*
X177190Y355738D01*
Y358382D01*
X176506Y360935D01*
X175184Y363225D01*
X173315Y365094D01*
X171025Y366416D01*
X168472Y367100D01*
X165828D01*
X163275Y366416D01*
X160985Y365094D01*
X159116Y363225D01*
X157794Y360935D01*
X157110Y358382D01*
Y355738D01*
X157794Y353185D01*
X159116Y350895D01*
X160554Y349458D01*
Y337408D01*
X122912Y299766D01*
X121863Y298400D01*
X121204Y296809D01*
X121091Y295946D01*
X120663Y295750D01*
X119772Y295661D01*
X117944Y298044D01*
X115324Y300054D01*
X112767Y301113D01*
Y302487D01*
X115324Y303546D01*
X117944Y305556D01*
X119954Y308176D01*
X121217Y311226D01*
X121648Y314500D01*
X121217Y317774D01*
X119954Y320824D01*
X117944Y323444D01*
X115324Y325454D01*
X112767Y326513D01*
Y327887D01*
X115324Y328946D01*
X117944Y330956D01*
X119954Y333576D01*
X121217Y336626D01*
X121648Y339900D01*
X121217Y343174D01*
X119954Y346224D01*
X117944Y348844D01*
X115324Y350854D01*
X112767Y351913D01*
Y353287D01*
X115324Y354346D01*
X117944Y356356D01*
X119954Y358976D01*
X121217Y362026D01*
X121648Y365300D01*
X121217Y368574D01*
X119954Y371624D01*
X117944Y374244D01*
X115324Y376254D01*
X112767Y377313D01*
Y378687D01*
X115324Y379746D01*
X117944Y381756D01*
X119954Y384376D01*
X121217Y387426D01*
X121648Y390700D01*
X121217Y393974D01*
X119954Y397024D01*
X117944Y399644D01*
X115324Y401654D01*
X112767Y402713D01*
Y404087D01*
X115324Y405146D01*
X117944Y407156D01*
X119954Y409776D01*
X121217Y412826D01*
X121648Y416100D01*
X121217Y419374D01*
X119954Y422424D01*
X117944Y425044D01*
X115324Y427054D01*
X112767Y428113D01*
Y429487D01*
X115324Y430546D01*
X117944Y432556D01*
X119954Y435176D01*
X121217Y438226D01*
X121648Y441500D01*
X121217Y444774D01*
X119954Y447824D01*
X117944Y450444D01*
X115324Y452454D01*
X112767Y453513D01*
Y454887D01*
X115324Y455946D01*
X117944Y457956D01*
X119954Y460576D01*
X121217Y463626D01*
X121648Y466900D01*
X121217Y470174D01*
X119954Y473224D01*
X117944Y475844D01*
X115324Y477854D01*
X112767Y478913D01*
Y480287D01*
X115324Y481346D01*
X117944Y483356D01*
X119954Y485976D01*
X121217Y489026D01*
X121648Y492300D01*
X121217Y495574D01*
X119954Y498624D01*
X117944Y501244D01*
X115324Y503254D01*
X112274Y504517D01*
X109000Y504948D01*
X104000D01*
X100726Y504517D01*
X97676Y503254D01*
X95056Y501244D01*
X93046Y498624D01*
X91783Y495574D01*
X91352Y492300D01*
X91783Y489026D01*
X93046Y485976D01*
X95056Y483356D01*
X97676Y481346D01*
X100233Y480287D01*
Y478913D01*
X97676Y477854D01*
X95056Y475844D01*
X93046Y473224D01*
X91783Y470174D01*
X91352Y466900D01*
X91783Y463626D01*
X93046Y460576D01*
X95056Y457956D01*
X97676Y455946D01*
X100233Y454887D01*
Y453513D01*
X97676Y452454D01*
X95056Y450444D01*
X93046Y447824D01*
X91783Y444774D01*
X91352Y441500D01*
X91783Y438226D01*
X93046Y435176D01*
X95056Y432556D01*
X97676Y430546D01*
X100233Y429487D01*
Y428113D01*
X97676Y427054D01*
X95056Y425044D01*
X93046Y422424D01*
X91783Y419374D01*
X91352Y416100D01*
X91783Y412826D01*
X93046Y409776D01*
X95056Y407156D01*
X97676Y405146D01*
X100233Y404087D01*
Y402713D01*
X97676Y401654D01*
X95056Y399644D01*
X93046Y397024D01*
X91783Y393974D01*
X91352Y390700D01*
X91783Y387426D01*
X93046Y384376D01*
X95056Y381756D01*
X97676Y379746D01*
X100233Y378687D01*
Y377313D01*
X97676Y376254D01*
X95056Y374244D01*
X93046Y371624D01*
X91783Y368574D01*
X91352Y365300D01*
X91783Y362026D01*
X93046Y358976D01*
X95056Y356356D01*
X97676Y354346D01*
X100233Y353287D01*
Y351913D01*
X97676Y350854D01*
X95056Y348844D01*
X93046Y346224D01*
X91783Y343174D01*
X91352Y339900D01*
X91783Y336626D01*
X93046Y333576D01*
X95056Y330956D01*
X97676Y328946D01*
X100233Y327887D01*
Y326513D01*
X97676Y325454D01*
X95056Y323444D01*
X93046Y320824D01*
X91783Y317774D01*
X91352Y314500D01*
X91783Y311226D01*
X93046Y308176D01*
X95056Y305556D01*
X97676Y303546D01*
X100233Y302487D01*
Y301113D01*
X97676Y300054D01*
X95056Y298044D01*
X93046Y295424D01*
X91783Y292374D01*
X91352Y289100D01*
X91783Y285826D01*
X93046Y282776D01*
X95056Y280156D01*
X97676Y278146D01*
X100233Y277087D01*
Y275713D01*
X97676Y274654D01*
X95056Y272644D01*
X93046Y270024D01*
X91783Y266974D01*
X91352Y263700D01*
X91783Y260426D01*
X93046Y257376D01*
X95056Y254756D01*
X97676Y252746D01*
X100233Y251687D01*
Y250313D01*
X97676Y249254D01*
X95056Y247244D01*
X93046Y244624D01*
X91783Y241574D01*
X91352Y238300D01*
X91783Y235026D01*
X93046Y231976D01*
X95056Y229356D01*
X97676Y227346D01*
X100233Y226287D01*
Y224913D01*
X97676Y223854D01*
X95056Y221844D01*
X93046Y219224D01*
X91783Y216174D01*
X91352Y212900D01*
X91783Y209626D01*
X93046Y206576D01*
X95056Y203956D01*
X97676Y201946D01*
X100233Y200887D01*
Y199513D01*
X97676Y198454D01*
X95056Y196444D01*
X93046Y193824D01*
X91783Y190774D01*
X91352Y187500D01*
X91783Y184226D01*
X93046Y181176D01*
X95056Y178556D01*
X97676Y176546D01*
X100233Y175487D01*
Y174113D01*
X97676Y173054D01*
X95056Y171044D01*
X93046Y168424D01*
X91783Y165374D01*
X91352Y162100D01*
X91599Y160226D01*
X90396Y159633D01*
X78346Y171682D01*
Y351524D01*
X78864Y352041D01*
X80034Y354069D01*
X80640Y356330D01*
Y358670D01*
X80034Y360931D01*
X78864Y362959D01*
X77209Y364614D01*
X75181Y365784D01*
X72920Y366390D01*
X70580D01*
X68319Y365784D01*
X66291Y364614D01*
X64636Y362959D01*
X63466Y360931D01*
X62860Y358670D01*
Y356330D01*
X63466Y354069D01*
X64636Y352041D01*
X65154Y351524D01*
Y168950D01*
X65378Y167243D01*
X66037Y165652D01*
X67086Y164286D01*
X91460Y139911D01*
Y124160D01*
X121540D01*
Y149240D01*
X114041D01*
X113788Y150510D01*
X115324Y151146D01*
X117944Y153156D01*
X119954Y155776D01*
X121217Y158826D01*
X121319Y159600D01*
X106500D01*
Y164600D01*
X121319D01*
X121217Y165374D01*
X119954Y168424D01*
X117944Y171044D01*
X115324Y173054D01*
X112767Y174113D01*
Y175487D01*
X115324Y176546D01*
X117944Y178556D01*
X119710Y180858D01*
X120980Y180471D01*
Y172945D01*
X121204Y171238D01*
X121863Y169646D01*
X122912Y168280D01*
X129484Y161708D01*
Y117434D01*
X129709Y115726D01*
X130368Y114135D01*
X131416Y112769D01*
X193016Y51170D01*
X194382Y50121D01*
X195973Y49462D01*
X197680Y49238D01*
X264934D01*
X296860Y17312D01*
Y16580D01*
X297466Y14319D01*
X298636Y12292D01*
X300291Y10637D01*
X302318Y9466D01*
X304580Y8860D01*
X306920D01*
X309181Y9466D01*
X311208Y10637D01*
X312864Y12292D01*
X314034Y14319D01*
X314640Y16580D01*
Y18921D01*
X314034Y21182D01*
X312864Y23209D01*
X311208Y24864D01*
X309181Y26034D01*
X306920Y26640D01*
X306189D01*
X272330Y60498D01*
X270964Y61547D01*
X269373Y62206D01*
X267666Y62430D01*
X200412D01*
X193556Y69287D01*
X194042Y70460D01*
X207040D01*
Y89040D01*
X188460D01*
Y76042D01*
X187287Y75556D01*
X142677Y120166D01*
Y164440D01*
X142452Y166148D01*
X141793Y167739D01*
X140745Y169105D01*
X134172Y175677D01*
Y180495D01*
X135378Y180753D01*
X136037Y179163D01*
X137086Y177796D01*
X152154Y162729D01*
Y158382D01*
X152378Y156674D01*
X153037Y155083D01*
X154086Y153717D01*
X158772Y149031D01*
X160138Y147983D01*
X161729Y147324D01*
X163436Y147099D01*
X195695D01*
X197403Y147324D01*
X198993Y147983D01*
X200360Y149031D01*
X222783Y171455D01*
X223957Y170968D01*
Y140947D01*
X224181Y139240D01*
X224840Y137649D01*
X225889Y136283D01*
X339086Y23086D01*
X340452Y22037D01*
X342043Y21378D01*
X343750Y21154D01*
X410750D01*
X412457Y21378D01*
X414048Y22037D01*
X415414Y23086D01*
X437414Y45086D01*
X438463Y46452D01*
X439122Y48043D01*
X439346Y49750D01*
Y289600D01*
X439122Y291307D01*
X438463Y292898D01*
X437414Y294264D01*
X417540Y314139D01*
Y324540D01*
X397460D01*
Y307986D01*
X396287Y307500D01*
X384622Y319164D01*
X383256Y320213D01*
X381665Y320872D01*
X379958Y321096D01*
X373745D01*
X371944Y323444D01*
X369324Y325454D01*
X366768Y326513D01*
Y327887D01*
X369324Y328946D01*
X371944Y330956D01*
X373954Y333576D01*
X375217Y336626D01*
X375648Y339900D01*
X375217Y343174D01*
X373954Y346224D01*
X371944Y348844D01*
X369324Y350854D01*
X366768Y351913D01*
Y353287D01*
X369324Y354346D01*
X371944Y356356D01*
X373954Y358976D01*
X375217Y362026D01*
X375648Y365300D01*
X375217Y368574D01*
X373954Y371624D01*
X371944Y374244D01*
X369324Y376254D01*
X366768Y377313D01*
Y378687D01*
X369324Y379746D01*
X371944Y381756D01*
X373954Y384376D01*
X375217Y387426D01*
X375648Y390700D01*
X375217Y393974D01*
X373954Y397024D01*
X371944Y399644D01*
X369324Y401654D01*
X366768Y402713D01*
Y404087D01*
X369324Y405146D01*
X371944Y407156D01*
X373954Y409776D01*
X375217Y412826D01*
X375648Y416100D01*
X375217Y419374D01*
X373954Y422424D01*
X371944Y425044D01*
X369324Y427054D01*
X366768Y428113D01*
Y429487D01*
X369324Y430546D01*
X371944Y432556D01*
X373954Y435176D01*
X375217Y438226D01*
X375648Y441500D01*
X375217Y444774D01*
X373954Y447824D01*
X371944Y450444D01*
X369324Y452454D01*
X366768Y453513D01*
Y454887D01*
X369324Y455946D01*
X371944Y457956D01*
X371983Y458008D01*
X373664D01*
X378154Y453518D01*
Y373000D01*
X378378Y371293D01*
X379037Y369702D01*
X380086Y368336D01*
X387436Y360986D01*
X388802Y359937D01*
X390393Y359278D01*
X392100Y359054D01*
X399548D01*
X401335Y357266D01*
X403625Y355944D01*
X406178Y355260D01*
X408822D01*
X411375Y355944D01*
X413665Y357266D01*
X415534Y359135D01*
X416856Y361425D01*
X417540Y363978D01*
Y366622D01*
X416856Y369175D01*
X415534Y371465D01*
X413665Y373334D01*
X411375Y374656D01*
X408822Y375340D01*
X406178D01*
X403625Y374656D01*
X401335Y373334D01*
X400248Y372246D01*
X394832D01*
X391346Y375732D01*
Y456250D01*
X391122Y457957D01*
X390463Y459548D01*
X389414Y460914D01*
X381060Y469268D01*
X379694Y470317D01*
X378103Y470976D01*
X376396Y471200D01*
X374792D01*
X373954Y473224D01*
X371944Y475844D01*
X369324Y477854D01*
X366768Y478913D01*
Y480287D01*
X369324Y481346D01*
X371944Y483356D01*
X373954Y485976D01*
X375217Y489026D01*
X375648Y492300D01*
X375217Y495574D01*
X373954Y498624D01*
X371944Y501244D01*
X369324Y503254D01*
X366274Y504517D01*
X363000Y504948D01*
D02*
G37*
G36*
X250250Y39448D02*
Y33000D01*
X256698D01*
X256407Y34086D01*
X255184Y36204D01*
X253454Y37934D01*
X251336Y39157D01*
X250250Y39448D01*
D02*
G37*
G36*
X245250D02*
X244164Y39157D01*
X242046Y37934D01*
X240316Y36204D01*
X239093Y34086D01*
X238802Y33000D01*
X245250D01*
Y39448D01*
D02*
G37*
G36*
X256698Y28000D02*
X250250D01*
Y21552D01*
X251336Y21843D01*
X253454Y23066D01*
X255184Y24796D01*
X256407Y26914D01*
X256698Y28000D01*
D02*
G37*
G36*
X245250D02*
X238802D01*
X239093Y26914D01*
X240316Y24796D01*
X242046Y23066D01*
X244164Y21843D01*
X245250Y21552D01*
Y28000D01*
D02*
G37*
G36*
X54040Y157940D02*
X27460D01*
Y131360D01*
X34154D01*
Y117250D01*
X34378Y115542D01*
X35038Y113952D01*
X36086Y112585D01*
X122836Y25836D01*
X124202Y24787D01*
X125793Y24128D01*
X127500Y23904D01*
X188460D01*
Y21210D01*
X207040D01*
Y39790D01*
X188460D01*
Y37097D01*
X130232D01*
X47347Y119982D01*
Y131360D01*
X54040D01*
Y157940D01*
D02*
G37*
%LPD*%
D32*
X243875Y306675D02*
X244000Y306550D01*
X243875Y306675D02*
Y319875D01*
X207550Y306550D02*
X221250D01*
X198614Y297614D02*
X207550Y306550D01*
X198614Y284834D02*
Y297614D01*
X203100Y274600D02*
Y280347D01*
X198614Y284834D02*
X203100Y280347D01*
X71750Y168950D02*
X104000Y136700D01*
X71750Y168950D02*
Y357500D01*
X228500Y268853D02*
Y274600D01*
X222589Y262942D02*
X228500Y268853D01*
X222589Y246339D02*
Y262942D01*
X221250Y245000D02*
X222589Y246339D01*
X407500Y314850D02*
X432750Y289600D01*
X104000Y136700D02*
X106500D01*
X360500Y466900D02*
X362796Y464604D01*
X376396D01*
X384750Y456250D01*
Y373000D02*
Y456250D01*
Y373000D02*
X392100Y365650D01*
X407500D01*
X343750Y27750D02*
X410750D01*
X432750Y49750D01*
Y289600D01*
X230553Y140947D02*
X343750Y27750D01*
X230553Y140947D02*
Y188553D01*
X265411Y223411D01*
X242661Y243661D02*
X244000Y245000D01*
X242661Y233661D02*
Y243661D01*
X232750Y223750D02*
X242661Y233661D01*
X232750Y331000D02*
X243875Y319875D01*
X158750Y158382D02*
Y165461D01*
X163436Y153695D02*
X195695D01*
X141750Y182461D02*
X158750Y165461D01*
Y158382D02*
X163436Y153695D01*
X195695D02*
X230553Y188553D01*
X265411Y223411D02*
X298411D01*
X127576Y172945D02*
Y295102D01*
X136080Y117434D02*
Y164440D01*
X127576Y172945D02*
X136080Y164440D01*
X127576Y295102D02*
X167150Y334676D01*
X175000Y223750D02*
X232750D01*
X145050Y253700D02*
X175000Y223750D01*
X167150Y334676D02*
Y357060D01*
X260236Y347778D02*
X276926Y331088D01*
X279911D02*
X297500Y313500D01*
X260236Y347778D02*
Y356208D01*
X276926Y331088D02*
X279911D01*
X227108Y389336D02*
X260236Y356208D01*
X154500Y389336D02*
X227108D01*
X141750Y182461D02*
Y194500D01*
X136080Y117434D02*
X197680Y55834D01*
X196950Y331000D02*
X232750D01*
X170450Y304500D02*
X196950Y331000D01*
X221250Y245000D02*
X221250Y245000D01*
X322500Y247500D02*
Y272500D01*
X298411Y223411D02*
X322500Y247500D01*
X323000Y355000D02*
X323500Y355500D01*
X323000Y273000D02*
Y355000D01*
X322500Y272500D02*
X323000Y273000D01*
X360500Y289100D02*
X361549Y288051D01*
X377064D01*
X381750Y283365D01*
Y221522D02*
Y283365D01*
Y221522D02*
X407350Y195922D01*
X323500Y192940D02*
X324750Y191690D01*
Y131250D02*
Y191690D01*
Y131250D02*
X352750Y103250D01*
X390250D01*
X407350Y120350D01*
Y195922D01*
X290390Y134710D02*
X372100Y53000D01*
X401500D01*
X127500Y30500D02*
X197750D01*
X40750Y117250D02*
X127500Y30500D01*
X40750Y117250D02*
Y144650D01*
X323500Y182860D02*
Y192940D01*
X298100Y172674D02*
Y192940D01*
X290390Y164964D02*
X298100Y172674D01*
X290390Y134710D02*
Y164964D01*
X170450Y274600D02*
Y304500D01*
X360500Y314500D02*
X379958D01*
X400626Y293832D01*
Y246080D02*
Y293832D01*
X197680Y55834D02*
X267666D01*
X305750Y17750D01*
X141750Y376586D02*
X154500Y389336D01*
X141750Y357060D02*
Y376586D01*
X145050Y253700D02*
Y274600D01*
D33*
X228500Y418000D02*
D03*
D34*
X203100D02*
D03*
X170450D02*
D03*
X145050D02*
D03*
X228500Y274600D02*
D03*
X203100D02*
D03*
X170450D02*
D03*
X145050D02*
D03*
X310850Y452400D02*
D03*
X285450D02*
D03*
D35*
X247750Y30500D02*
D03*
Y79750D02*
D03*
X46250Y374750D02*
D03*
D36*
X197750Y30500D02*
D03*
Y79750D02*
D03*
D37*
X106500Y136700D02*
D03*
X360500D02*
D03*
D38*
X106500Y162100D02*
D03*
Y187500D02*
D03*
Y238300D02*
D03*
Y263700D02*
D03*
Y289100D02*
D03*
Y314500D02*
D03*
Y339900D02*
D03*
Y365300D02*
D03*
Y390700D02*
D03*
Y416100D02*
D03*
Y441500D02*
D03*
Y466900D02*
D03*
Y492300D02*
D03*
Y212900D02*
D03*
X360500Y162100D02*
D03*
Y187500D02*
D03*
Y212900D02*
D03*
Y238300D02*
D03*
Y263700D02*
D03*
Y289100D02*
D03*
Y314500D02*
D03*
Y339900D02*
D03*
Y365300D02*
D03*
Y390700D02*
D03*
Y416100D02*
D03*
Y441500D02*
D03*
Y466900D02*
D03*
Y492300D02*
D03*
D39*
X221250Y306550D02*
D03*
Y245000D02*
D03*
X407500Y339900D02*
D03*
Y365300D02*
D03*
Y390700D02*
D03*
Y416100D02*
D03*
Y441500D02*
D03*
Y466900D02*
D03*
Y492300D02*
D03*
X141750Y357060D02*
D03*
X167150D02*
D03*
X244000Y245000D02*
D03*
Y306550D02*
D03*
X323500Y194500D02*
D03*
X298100D02*
D03*
Y357060D02*
D03*
X323500D02*
D03*
X167150Y194500D02*
D03*
X141750D02*
D03*
D40*
X407500Y314500D02*
D03*
D41*
X40750Y223850D02*
D03*
Y184250D02*
D03*
X39250Y310500D02*
D03*
D42*
X40750Y144650D02*
D03*
X39250Y270900D02*
D03*
D43*
X43750Y529701D02*
D03*
D44*
Y504300D02*
D03*
D45*
X46250Y464750D02*
D03*
D46*
X71750Y357500D02*
D03*
X322500Y272500D02*
D03*
X401500Y53000D02*
D03*
X297500Y313500D02*
D03*
X305750Y17750D02*
D03*
X400626Y246080D02*
D03*
M02*
