G04*
G04 #@! TF.GenerationSoftware,Altium Limited,Altium Designer,25.4.2 (15)*
G04*
G04 Layer_Color=255*
%FSLAX44Y44*%
%MOMM*%
G71*
G04*
G04 #@! TF.SameCoordinates,3DD580B5-EB9C-4BB7-A259-C10CE48ABDDF*
G04*
G04*
G04 #@! TF.FilePolarity,Positive*
G04*
G01*
G75*
%ADD33R,2.0000X2.5000*%
%ADD34O,2.0000X2.5000*%
%ADD35C,1.3500*%
%ADD36R,1.3500X1.3500*%
%ADD37R,2.5000X2.0000*%
%ADD38O,2.5000X2.0000*%
%ADD39C,1.5000*%
%ADD40R,1.5000X1.5000*%
%ADD41C,2.1500*%
%ADD42R,2.1500X2.1500*%
%ADD43C,1.4000*%
%ADD44R,1.4000X1.4000*%
%ADD45R,1.3500X1.3500*%
D33*
X228500Y418000D02*
D03*
D34*
X203100D02*
D03*
X170450D02*
D03*
X145050D02*
D03*
X228500Y274600D02*
D03*
X203100D02*
D03*
X170450D02*
D03*
X145050D02*
D03*
X310850Y452400D02*
D03*
X285450D02*
D03*
D35*
X247750Y30500D02*
D03*
Y79750D02*
D03*
X46250Y374750D02*
D03*
D36*
X197750Y30500D02*
D03*
Y79750D02*
D03*
D37*
X106500Y136700D02*
D03*
X360500D02*
D03*
D38*
X106500Y162100D02*
D03*
Y187500D02*
D03*
Y238300D02*
D03*
Y263700D02*
D03*
Y289100D02*
D03*
Y314500D02*
D03*
Y339900D02*
D03*
Y365300D02*
D03*
Y390700D02*
D03*
Y416100D02*
D03*
Y441500D02*
D03*
Y466900D02*
D03*
Y492300D02*
D03*
Y212900D02*
D03*
X360500Y162100D02*
D03*
Y187500D02*
D03*
Y212900D02*
D03*
Y238300D02*
D03*
Y263700D02*
D03*
Y289100D02*
D03*
Y314500D02*
D03*
Y339900D02*
D03*
Y365300D02*
D03*
Y390700D02*
D03*
Y416100D02*
D03*
Y441500D02*
D03*
Y466900D02*
D03*
Y492300D02*
D03*
D39*
X221250Y306550D02*
D03*
Y245000D02*
D03*
X407500Y339900D02*
D03*
Y365300D02*
D03*
Y390700D02*
D03*
Y416100D02*
D03*
Y441500D02*
D03*
Y466900D02*
D03*
Y492300D02*
D03*
X141750Y357060D02*
D03*
X167150D02*
D03*
X244000Y245000D02*
D03*
Y306550D02*
D03*
X323500Y194500D02*
D03*
X298100D02*
D03*
Y357060D02*
D03*
X323500D02*
D03*
X167150Y194500D02*
D03*
X141750D02*
D03*
D40*
X407500Y314500D02*
D03*
D41*
X40750Y223850D02*
D03*
Y184250D02*
D03*
X39250Y310500D02*
D03*
D42*
X40750Y144650D02*
D03*
X39250Y270900D02*
D03*
D43*
X43750Y529701D02*
D03*
D44*
Y504300D02*
D03*
D45*
X46250Y464750D02*
D03*
M02*
