G04*
G04 #@! TF.GenerationSoftware,Altium Limited,Altium Designer,25.4.2 (15)*
G04*
G04 Layer_Color=32896*
%FSLAX44Y44*%
%MOMM*%
G71*
G04*
G04 #@! TF.SameCoordinates,0EA34F5E-7CD8-41F1-BF26-68A60DD3863B*
G04*
G04*
G04 #@! TF.FilePolarity,Positive*
G04*
G01*
G75*
%ADD11C,0.2540*%
%ADD47C,0.4000*%
%ADD48C,0.3540*%
G36*
X156140Y501240D02*
X156860D01*
Y501200D01*
X157340D01*
Y501160D01*
X157700D01*
Y501120D01*
X158020D01*
Y501080D01*
X158340D01*
Y501040D01*
X158580D01*
Y501000D01*
X158820D01*
Y500960D01*
X159060D01*
Y500920D01*
X159260D01*
Y500880D01*
X159500D01*
Y500840D01*
X159660D01*
Y500800D01*
X159860D01*
Y500760D01*
X160060D01*
Y500720D01*
X160220D01*
Y500680D01*
X160380D01*
Y500640D01*
X160540D01*
Y500600D01*
X160700D01*
Y500560D01*
X160860D01*
Y500520D01*
X160980D01*
Y500480D01*
X161140D01*
Y500440D01*
X161260D01*
Y500400D01*
X161420D01*
Y500360D01*
X161540D01*
Y500320D01*
X161660D01*
Y500280D01*
X161820D01*
Y500240D01*
X161900D01*
Y500200D01*
X162020D01*
Y500160D01*
X162140D01*
Y500120D01*
X162260D01*
Y500080D01*
X162380D01*
Y500040D01*
X162500D01*
Y500000D01*
X162620D01*
Y499960D01*
X162740D01*
Y499920D01*
X162820D01*
Y499880D01*
X162940D01*
Y499840D01*
X163020D01*
Y499800D01*
X163140D01*
Y499760D01*
X163260D01*
Y499720D01*
X163340D01*
Y499680D01*
X163460D01*
Y499640D01*
X163540D01*
Y499600D01*
X163620D01*
Y499560D01*
X163740D01*
Y499520D01*
X163820D01*
Y499480D01*
X163900D01*
Y499440D01*
X163980D01*
Y499400D01*
X164100D01*
Y499360D01*
X164180D01*
Y499320D01*
X164260D01*
Y499280D01*
X164340D01*
Y499240D01*
X164420D01*
Y499200D01*
X164540D01*
Y499160D01*
X164620D01*
Y499120D01*
X164700D01*
Y499080D01*
X164780D01*
Y499040D01*
X164860D01*
Y499000D01*
X164940D01*
Y498960D01*
X165020D01*
Y498920D01*
X165100D01*
Y498880D01*
X165180D01*
Y498840D01*
X165260D01*
Y498800D01*
X165300D01*
Y498760D01*
X165380D01*
Y498720D01*
X165460D01*
Y498680D01*
X165540D01*
Y498640D01*
X165620D01*
Y498600D01*
X165700D01*
Y498560D01*
X165740D01*
Y498520D01*
X165820D01*
Y498480D01*
X165900D01*
Y498440D01*
X165980D01*
Y498400D01*
X166020D01*
Y498360D01*
X166100D01*
Y498320D01*
X166180D01*
Y498280D01*
X166260D01*
Y498240D01*
X166300D01*
Y498200D01*
X166380D01*
Y498160D01*
X166460D01*
Y498120D01*
X166500D01*
Y498080D01*
X166580D01*
Y498040D01*
X166620D01*
Y498000D01*
X166700D01*
Y497960D01*
X166780D01*
Y497920D01*
X166820D01*
Y497880D01*
X166900D01*
Y497840D01*
X166940D01*
Y497800D01*
X167020D01*
Y497760D01*
X167060D01*
Y497720D01*
X167140D01*
Y497680D01*
X167180D01*
Y497640D01*
X167260D01*
Y497600D01*
X167300D01*
Y497560D01*
X167380D01*
Y497520D01*
X167420D01*
Y497480D01*
X167500D01*
Y497440D01*
X167540D01*
Y497400D01*
X167620D01*
Y497360D01*
X167660D01*
Y497320D01*
X167700D01*
Y497280D01*
X167780D01*
Y497240D01*
X167820D01*
Y497200D01*
X167900D01*
Y497160D01*
X167940D01*
Y497120D01*
X167980D01*
Y497080D01*
X168060D01*
Y497040D01*
X168100D01*
Y497000D01*
X168140D01*
Y496960D01*
X168220D01*
Y496920D01*
X168260D01*
Y496880D01*
X168300D01*
Y496840D01*
X168380D01*
Y496800D01*
X168420D01*
Y496760D01*
X168460D01*
Y496720D01*
X168500D01*
Y496680D01*
X168580D01*
Y496640D01*
X168620D01*
Y496600D01*
X168660D01*
Y496560D01*
X168740D01*
Y496520D01*
X168780D01*
Y496480D01*
X168820D01*
Y496440D01*
X168860D01*
Y496400D01*
X168940D01*
Y496360D01*
X168980D01*
Y496320D01*
X169020D01*
Y496280D01*
X169060D01*
Y496240D01*
X169100D01*
Y496200D01*
X169180D01*
Y496160D01*
X169220D01*
Y496120D01*
X169260D01*
Y496080D01*
X169300D01*
Y496040D01*
X169340D01*
Y496000D01*
X169380D01*
Y495960D01*
X169460D01*
Y495920D01*
X169500D01*
Y495880D01*
X169540D01*
Y495840D01*
X169580D01*
Y495800D01*
X169620D01*
Y495760D01*
X169660D01*
Y495720D01*
X169700D01*
Y495680D01*
X169740D01*
Y495640D01*
X169780D01*
Y495600D01*
X169860D01*
Y495560D01*
X169900D01*
Y495520D01*
X169940D01*
Y495480D01*
X169980D01*
Y495440D01*
X170020D01*
Y495400D01*
X170060D01*
Y495360D01*
X170100D01*
Y495320D01*
X170140D01*
Y495280D01*
X170180D01*
Y495240D01*
X170220D01*
Y495200D01*
X170260D01*
Y495160D01*
X170300D01*
Y495120D01*
X170340D01*
Y495080D01*
X170380D01*
Y495040D01*
X170420D01*
Y495000D01*
X170460D01*
Y494960D01*
X170500D01*
Y494920D01*
X170540D01*
Y494880D01*
X170580D01*
Y494840D01*
X170620D01*
Y494800D01*
X170660D01*
Y494760D01*
X170700D01*
Y494720D01*
X170740D01*
Y494680D01*
X170780D01*
Y494640D01*
X170820D01*
Y494600D01*
X170860D01*
Y494560D01*
X170900D01*
Y494520D01*
X170940D01*
Y494480D01*
X170980D01*
Y494440D01*
X171020D01*
Y494400D01*
X171060D01*
Y494360D01*
X171100D01*
Y494320D01*
X171140D01*
Y494240D01*
X171180D01*
Y494200D01*
X171220D01*
Y494160D01*
X171260D01*
Y494120D01*
X171300D01*
Y494080D01*
X171340D01*
Y494040D01*
X171380D01*
Y494000D01*
X171420D01*
Y493960D01*
X171460D01*
Y493880D01*
X171500D01*
Y493840D01*
X171540D01*
Y493800D01*
X171580D01*
Y493760D01*
X171620D01*
Y493720D01*
X171660D01*
Y493680D01*
X171700D01*
Y493640D01*
X171740D01*
Y493560D01*
X171780D01*
Y493520D01*
X171820D01*
Y493480D01*
X171860D01*
Y493440D01*
X171900D01*
Y493400D01*
X171940D01*
Y493320D01*
X171980D01*
Y493280D01*
X172020D01*
Y493240D01*
X172060D01*
Y493200D01*
X172100D01*
Y493120D01*
X172140D01*
Y493080D01*
X172180D01*
Y493040D01*
X172220D01*
Y492960D01*
X172260D01*
Y492920D01*
X172300D01*
Y492880D01*
X172340D01*
Y492840D01*
X172380D01*
Y492760D01*
X172420D01*
Y492720D01*
X172460D01*
Y492680D01*
X172500D01*
Y492600D01*
X172540D01*
Y492560D01*
X172580D01*
Y492520D01*
X172620D01*
Y492440D01*
X172660D01*
Y492400D01*
X172700D01*
Y492360D01*
X172740D01*
Y492280D01*
X172780D01*
Y492240D01*
X172820D01*
Y492160D01*
X172860D01*
Y492120D01*
X172900D01*
Y492040D01*
X172940D01*
Y492000D01*
X172980D01*
Y491960D01*
X173020D01*
Y491880D01*
X173060D01*
Y491840D01*
X173100D01*
Y491760D01*
X173140D01*
Y491720D01*
X173180D01*
Y491640D01*
X173220D01*
Y491600D01*
X173260D01*
Y491520D01*
X173300D01*
Y491480D01*
X173340D01*
Y491400D01*
X173380D01*
Y491360D01*
X173420D01*
Y491280D01*
X173460D01*
Y491200D01*
X173500D01*
Y491160D01*
X173540D01*
Y491080D01*
X173580D01*
Y491040D01*
X173620D01*
Y490960D01*
X173660D01*
Y490880D01*
X173700D01*
Y490840D01*
X173740D01*
Y490760D01*
X173780D01*
Y490680D01*
X173820D01*
Y490640D01*
X173860D01*
Y490560D01*
X173900D01*
Y490480D01*
X173940D01*
Y490440D01*
X173980D01*
Y490360D01*
X174020D01*
Y490280D01*
X174060D01*
Y490200D01*
X174100D01*
Y490120D01*
X174140D01*
Y490080D01*
X174180D01*
Y490000D01*
X174220D01*
Y489920D01*
X174260D01*
Y489840D01*
X174300D01*
Y489760D01*
X174340D01*
Y489720D01*
X174380D01*
Y489600D01*
X174420D01*
Y489520D01*
X174460D01*
Y489480D01*
X174500D01*
Y489400D01*
X174540D01*
Y489320D01*
X174580D01*
Y489240D01*
X174620D01*
Y489160D01*
X174660D01*
Y489040D01*
X174700D01*
Y489000D01*
X174740D01*
Y488880D01*
X174780D01*
Y488800D01*
X174820D01*
Y488720D01*
X174860D01*
Y488640D01*
X174900D01*
Y488560D01*
X174940D01*
Y488480D01*
X174980D01*
Y488360D01*
X175020D01*
Y488280D01*
X175060D01*
Y488200D01*
X175100D01*
Y488080D01*
X175140D01*
Y488000D01*
X175180D01*
Y487880D01*
X175220D01*
Y487800D01*
X175260D01*
Y487720D01*
X175300D01*
Y487600D01*
X175340D01*
Y487480D01*
X175380D01*
Y487400D01*
X175420D01*
Y487280D01*
X175460D01*
Y487200D01*
X175500D01*
Y487080D01*
X175540D01*
Y486960D01*
X175580D01*
Y486840D01*
X175620D01*
Y486720D01*
X175660D01*
Y486640D01*
X175700D01*
Y486480D01*
X175740D01*
Y486400D01*
X175780D01*
Y486240D01*
X175820D01*
Y486120D01*
X175860D01*
Y486000D01*
X175900D01*
Y485880D01*
X175940D01*
Y485720D01*
X175980D01*
Y485600D01*
X176020D01*
Y485440D01*
X176060D01*
Y485320D01*
X176100D01*
Y485160D01*
X176140D01*
Y485000D01*
X176180D01*
Y484840D01*
X176220D01*
Y484680D01*
X176260D01*
Y484480D01*
X176300D01*
Y484320D01*
X176340D01*
Y484160D01*
X176380D01*
Y483960D01*
X176420D01*
Y483720D01*
X176460D01*
Y483520D01*
X176500D01*
Y483280D01*
X176540D01*
Y483040D01*
X176580D01*
Y482800D01*
X176620D01*
Y482480D01*
X176660D01*
Y482160D01*
X176700D01*
Y481800D01*
X176740D01*
Y481320D01*
X176780D01*
Y480640D01*
X176820D01*
Y478720D01*
X176780D01*
Y478000D01*
X176740D01*
Y477520D01*
X176700D01*
Y477120D01*
X176660D01*
Y476840D01*
X176620D01*
Y476560D01*
X176580D01*
Y476280D01*
X176540D01*
Y476040D01*
X176500D01*
Y475800D01*
X176460D01*
Y475560D01*
X176420D01*
Y475360D01*
X176380D01*
Y475160D01*
X176340D01*
Y475000D01*
X176300D01*
Y474800D01*
X176260D01*
Y474640D01*
X176220D01*
Y474480D01*
X176180D01*
Y474320D01*
X176140D01*
Y474160D01*
X176100D01*
Y474000D01*
X176060D01*
Y473880D01*
X176020D01*
Y473720D01*
X175980D01*
Y473600D01*
X175940D01*
Y473440D01*
X175900D01*
Y473320D01*
X175860D01*
Y473200D01*
X175820D01*
Y473040D01*
X175780D01*
Y472960D01*
X175740D01*
Y472800D01*
X175700D01*
Y472680D01*
X175660D01*
Y472560D01*
X175620D01*
Y472440D01*
X175580D01*
Y472360D01*
X175540D01*
Y472240D01*
X175500D01*
Y472120D01*
X175460D01*
Y472000D01*
X175420D01*
Y471920D01*
X175380D01*
Y471800D01*
X175340D01*
Y471720D01*
X175300D01*
Y471600D01*
X175260D01*
Y471520D01*
X175220D01*
Y471400D01*
X175180D01*
Y471320D01*
X175140D01*
Y471240D01*
X175100D01*
Y471120D01*
X175060D01*
Y471040D01*
X175020D01*
Y470960D01*
X174980D01*
Y470840D01*
X174940D01*
Y470760D01*
X174900D01*
Y470680D01*
X174860D01*
Y470600D01*
X174820D01*
Y470480D01*
X174780D01*
Y470400D01*
X174740D01*
Y470320D01*
X174700D01*
Y470240D01*
X174660D01*
Y470160D01*
X174620D01*
Y470080D01*
X174580D01*
Y470000D01*
X174540D01*
Y469920D01*
X174500D01*
Y469840D01*
X174460D01*
Y469760D01*
X174420D01*
Y469680D01*
X174380D01*
Y469600D01*
X174340D01*
Y469560D01*
X174300D01*
Y469480D01*
X174260D01*
Y469400D01*
X174220D01*
Y469320D01*
X174180D01*
Y469240D01*
X174140D01*
Y469160D01*
X174100D01*
Y469080D01*
X174060D01*
Y469040D01*
X174020D01*
Y468960D01*
X173980D01*
Y468880D01*
X173940D01*
Y468800D01*
X173900D01*
Y468760D01*
X173860D01*
Y468680D01*
X173820D01*
Y468600D01*
X173780D01*
Y468560D01*
X173740D01*
Y468480D01*
X173700D01*
Y468400D01*
X173660D01*
Y468360D01*
X173620D01*
Y468280D01*
X173580D01*
Y468200D01*
X173540D01*
Y468160D01*
X173500D01*
Y468080D01*
X173460D01*
Y468040D01*
X173420D01*
Y467960D01*
X173380D01*
Y467920D01*
X173340D01*
Y467840D01*
X173300D01*
Y467800D01*
X173260D01*
Y467720D01*
X173220D01*
Y467680D01*
X173180D01*
Y467600D01*
X173140D01*
Y467520D01*
X173100D01*
Y467480D01*
X173060D01*
Y467440D01*
X173020D01*
Y467360D01*
X172980D01*
Y467320D01*
X172940D01*
Y467240D01*
X172900D01*
Y467200D01*
X172860D01*
Y467160D01*
X172820D01*
Y467080D01*
X172780D01*
Y467040D01*
X172740D01*
Y466960D01*
X172700D01*
Y466920D01*
X172660D01*
Y466880D01*
X172620D01*
Y466800D01*
X172580D01*
Y466760D01*
X172540D01*
Y466680D01*
X172500D01*
Y466640D01*
X172460D01*
Y466600D01*
X172420D01*
Y466520D01*
X172380D01*
Y466480D01*
X172340D01*
Y466440D01*
X172300D01*
Y466400D01*
X172260D01*
Y466320D01*
X172220D01*
Y466280D01*
X172180D01*
Y466240D01*
X172140D01*
Y466200D01*
X172100D01*
Y466120D01*
X172060D01*
Y466080D01*
X172020D01*
Y466040D01*
X171980D01*
Y466000D01*
X171940D01*
Y465920D01*
X171900D01*
Y465880D01*
X171860D01*
Y465840D01*
X171820D01*
Y465800D01*
X171780D01*
Y465760D01*
X171740D01*
Y465680D01*
X171700D01*
Y465640D01*
X171660D01*
Y465600D01*
X171620D01*
Y465560D01*
X171580D01*
Y465520D01*
X171540D01*
Y465440D01*
X171500D01*
Y465400D01*
X171460D01*
Y465360D01*
X171420D01*
Y465320D01*
X171380D01*
Y465280D01*
X171340D01*
Y465240D01*
X171300D01*
Y465200D01*
X171260D01*
Y465160D01*
X171220D01*
Y465080D01*
X171180D01*
Y465040D01*
X171140D01*
Y465000D01*
X171100D01*
Y464960D01*
X171060D01*
Y464920D01*
X171020D01*
Y464880D01*
X170980D01*
Y464840D01*
X170940D01*
Y464800D01*
X170900D01*
Y464760D01*
X170860D01*
Y464720D01*
X170820D01*
Y464680D01*
X170780D01*
Y464640D01*
X170740D01*
Y464600D01*
X170700D01*
Y464560D01*
X170660D01*
Y464520D01*
X170620D01*
Y464480D01*
X170580D01*
Y464440D01*
X170540D01*
Y464400D01*
X170500D01*
Y464360D01*
X170460D01*
Y464320D01*
X170420D01*
Y464280D01*
X170380D01*
Y464240D01*
X170340D01*
Y464200D01*
X170300D01*
Y464160D01*
X170260D01*
Y464120D01*
X170220D01*
Y464080D01*
X170180D01*
Y464040D01*
X170140D01*
Y464000D01*
X170100D01*
Y463960D01*
X170060D01*
Y463920D01*
X170020D01*
Y463880D01*
X169980D01*
Y463840D01*
X169940D01*
Y463800D01*
X169900D01*
Y463760D01*
X169860D01*
Y463720D01*
X169820D01*
Y463680D01*
X169780D01*
Y463640D01*
X169700D01*
Y463600D01*
X169660D01*
Y463560D01*
X169620D01*
Y463520D01*
X169580D01*
Y463480D01*
X169540D01*
Y463440D01*
X169500D01*
Y463400D01*
X169460D01*
Y463360D01*
X169420D01*
Y463320D01*
X169340D01*
Y463280D01*
X169300D01*
Y463240D01*
X169260D01*
Y463200D01*
X169220D01*
Y463160D01*
X169180D01*
Y463120D01*
X169140D01*
Y463080D01*
X169060D01*
Y463040D01*
X169020D01*
Y463000D01*
X168980D01*
Y462960D01*
X168940D01*
Y462920D01*
X168860D01*
Y462880D01*
X168820D01*
Y462840D01*
X168780D01*
Y462800D01*
X168740D01*
Y462760D01*
X168660D01*
Y462720D01*
X168620D01*
Y462680D01*
X168580D01*
Y462640D01*
X168540D01*
Y462600D01*
X168460D01*
Y462560D01*
X168420D01*
Y462520D01*
X168380D01*
Y462480D01*
X168340D01*
Y462440D01*
X168260D01*
Y462400D01*
X168220D01*
Y462360D01*
X168180D01*
Y462320D01*
X168100D01*
Y462280D01*
X168060D01*
Y462240D01*
X167980D01*
Y462200D01*
X167940D01*
Y462160D01*
X167900D01*
Y462120D01*
X167820D01*
Y462080D01*
X167780D01*
Y462040D01*
X167740D01*
Y462000D01*
X167660D01*
Y461960D01*
X167620D01*
Y461920D01*
X167540D01*
Y461880D01*
X167500D01*
Y461840D01*
X167420D01*
Y461800D01*
X167380D01*
Y461760D01*
X167340D01*
Y461720D01*
X167260D01*
Y461680D01*
X167220D01*
Y461640D01*
X167140D01*
Y461600D01*
X167100D01*
Y461560D01*
X167020D01*
Y461520D01*
X166980D01*
Y461480D01*
X166900D01*
Y461440D01*
X166820D01*
Y461400D01*
X166780D01*
Y461360D01*
X166700D01*
Y461320D01*
X166620D01*
Y461280D01*
X166580D01*
Y461240D01*
X166500D01*
Y461200D01*
X166460D01*
Y461160D01*
X166380D01*
Y461120D01*
X166300D01*
Y461080D01*
X166260D01*
Y461040D01*
X166180D01*
Y461000D01*
X166100D01*
Y460960D01*
X166060D01*
Y460920D01*
X165980D01*
Y460880D01*
X165900D01*
Y460840D01*
X165820D01*
Y460800D01*
X165780D01*
Y460760D01*
X165700D01*
Y460720D01*
X165620D01*
Y460680D01*
X165540D01*
Y460640D01*
X165460D01*
Y460600D01*
X165420D01*
Y460560D01*
X165340D01*
Y460520D01*
X165260D01*
Y460480D01*
X165180D01*
Y460440D01*
X165100D01*
Y460400D01*
X165020D01*
Y460360D01*
X164940D01*
Y460320D01*
X164860D01*
Y460280D01*
X164780D01*
Y460240D01*
X164700D01*
Y460200D01*
X164620D01*
Y460160D01*
X164540D01*
Y460120D01*
X164420D01*
Y460080D01*
X164340D01*
Y460040D01*
X164260D01*
Y460000D01*
X164180D01*
Y459960D01*
X164100D01*
Y459920D01*
X164020D01*
Y459880D01*
X163900D01*
Y459840D01*
X163820D01*
Y459800D01*
X163740D01*
Y459760D01*
X163620D01*
Y459720D01*
X163540D01*
Y459680D01*
X163460D01*
Y459640D01*
X163340D01*
Y459600D01*
X163260D01*
Y459560D01*
X163140D01*
Y459520D01*
X163060D01*
Y459480D01*
X162940D01*
Y459440D01*
X162860D01*
Y459400D01*
X162740D01*
Y459360D01*
X162620D01*
Y459320D01*
X162500D01*
Y459280D01*
X162420D01*
Y459240D01*
X162300D01*
Y459200D01*
X162180D01*
Y459160D01*
X162060D01*
Y459120D01*
X161900D01*
Y459080D01*
X161820D01*
Y459040D01*
X161660D01*
Y459000D01*
X161540D01*
Y458960D01*
X161420D01*
Y458920D01*
X161260D01*
Y458880D01*
X161140D01*
Y458840D01*
X160980D01*
Y458800D01*
X160860D01*
Y458760D01*
X160700D01*
Y458720D01*
X160540D01*
Y458680D01*
X160380D01*
Y458640D01*
X160220D01*
Y458600D01*
X160060D01*
Y458560D01*
X159860D01*
Y458520D01*
X159700D01*
Y458480D01*
X159500D01*
Y458440D01*
X159300D01*
Y458400D01*
X159060D01*
Y458360D01*
X158860D01*
Y458320D01*
X158580D01*
Y458280D01*
X158300D01*
Y458240D01*
X158060D01*
Y458200D01*
X157700D01*
Y458160D01*
X157340D01*
Y458120D01*
X156860D01*
Y458080D01*
X156140D01*
Y458040D01*
X154220D01*
Y458080D01*
X153500D01*
Y458120D01*
X153060D01*
Y458160D01*
X152700D01*
Y458200D01*
X152380D01*
Y458240D01*
X152060D01*
Y458280D01*
X151820D01*
Y458320D01*
X151580D01*
Y458360D01*
X151340D01*
Y458400D01*
X151140D01*
Y458440D01*
X150900D01*
Y458480D01*
X150700D01*
Y458520D01*
X150540D01*
Y458560D01*
X150380D01*
Y458600D01*
X150180D01*
Y458640D01*
X150020D01*
Y458680D01*
X149860D01*
Y458720D01*
X149700D01*
Y458760D01*
X149540D01*
Y458800D01*
X149420D01*
Y458840D01*
X149260D01*
Y458880D01*
X149140D01*
Y458920D01*
X148980D01*
Y458960D01*
X148860D01*
Y459000D01*
X148740D01*
Y459040D01*
X148620D01*
Y459080D01*
X148460D01*
Y459120D01*
X148380D01*
Y459160D01*
X148220D01*
Y459200D01*
X148140D01*
Y459240D01*
X148020D01*
Y459280D01*
X147900D01*
Y459320D01*
X147780D01*
Y459360D01*
X147660D01*
Y459400D01*
X147580D01*
Y459440D01*
X147460D01*
Y459480D01*
X147380D01*
Y459520D01*
X147260D01*
Y459560D01*
X147180D01*
Y459600D01*
X147060D01*
Y459640D01*
X146980D01*
Y459680D01*
X146860D01*
Y459720D01*
X146780D01*
Y459760D01*
X146660D01*
Y459800D01*
X146580D01*
Y459840D01*
X146500D01*
Y459880D01*
X146380D01*
Y459920D01*
X146300D01*
Y459960D01*
X146220D01*
Y460000D01*
X146140D01*
Y460040D01*
X146060D01*
Y460080D01*
X145980D01*
Y460120D01*
X145860D01*
Y460160D01*
X145820D01*
Y460200D01*
X145700D01*
Y460240D01*
X145620D01*
Y460280D01*
X145540D01*
Y460320D01*
X145460D01*
Y460360D01*
X145420D01*
Y460400D01*
X145340D01*
Y460440D01*
X145220D01*
Y460480D01*
X145140D01*
Y460520D01*
X145100D01*
Y460560D01*
X145020D01*
Y460600D01*
X144940D01*
Y460640D01*
X144860D01*
Y460680D01*
X144780D01*
Y460720D01*
X144700D01*
Y460760D01*
X144620D01*
Y460800D01*
X144580D01*
Y460840D01*
X144500D01*
Y460880D01*
X144420D01*
Y460920D01*
X144380D01*
Y460960D01*
X144300D01*
Y461000D01*
X144220D01*
Y461040D01*
X144180D01*
Y461080D01*
X144100D01*
Y461120D01*
X144020D01*
Y461160D01*
X143980D01*
Y461200D01*
X143900D01*
Y461240D01*
X143820D01*
Y461280D01*
X143780D01*
Y461320D01*
X143700D01*
Y461360D01*
X143660D01*
Y461400D01*
X143580D01*
Y461440D01*
X143500D01*
Y461480D01*
X143460D01*
Y461520D01*
X143380D01*
Y461560D01*
X143340D01*
Y461600D01*
X143260D01*
Y461640D01*
X143220D01*
Y461680D01*
X143140D01*
Y461720D01*
X143100D01*
Y461760D01*
X143020D01*
Y461800D01*
X142980D01*
Y461840D01*
X142900D01*
Y461880D01*
X142860D01*
Y461920D01*
X142780D01*
Y461960D01*
X142740D01*
Y462000D01*
X142700D01*
Y462040D01*
X142620D01*
Y462080D01*
X142580D01*
Y462120D01*
X142500D01*
Y462160D01*
X142460D01*
Y462200D01*
X142420D01*
Y462240D01*
X142340D01*
Y462280D01*
X142300D01*
Y462320D01*
X142260D01*
Y462360D01*
X142180D01*
Y462400D01*
X142140D01*
Y462440D01*
X142100D01*
Y462480D01*
X142020D01*
Y462520D01*
X141980D01*
Y462560D01*
X141940D01*
Y462600D01*
X141860D01*
Y462640D01*
X141820D01*
Y462680D01*
X141780D01*
Y462720D01*
X141740D01*
Y462760D01*
X141660D01*
Y462800D01*
X141620D01*
Y462840D01*
X141580D01*
Y462880D01*
X141540D01*
Y462920D01*
X141500D01*
Y462960D01*
X141420D01*
Y463000D01*
X141380D01*
Y463040D01*
X141340D01*
Y463080D01*
X141300D01*
Y463120D01*
X141220D01*
Y463160D01*
X141180D01*
Y463200D01*
X141140D01*
Y463240D01*
X141100D01*
Y463280D01*
X141060D01*
Y463320D01*
X141020D01*
Y463360D01*
X140980D01*
Y463400D01*
X140900D01*
Y463440D01*
X140860D01*
Y463480D01*
X140820D01*
Y463520D01*
X140780D01*
Y463560D01*
X140740D01*
Y463600D01*
X140700D01*
Y463640D01*
X140660D01*
Y463680D01*
X140620D01*
Y463720D01*
X140540D01*
Y463760D01*
X140500D01*
Y463800D01*
X140460D01*
Y463840D01*
X140420D01*
Y463880D01*
X140380D01*
Y463920D01*
X140340D01*
Y463960D01*
X140300D01*
Y464000D01*
X140260D01*
Y464040D01*
X140220D01*
Y464080D01*
X140180D01*
Y464120D01*
X140140D01*
Y464160D01*
X140100D01*
Y464200D01*
X140060D01*
Y464240D01*
X140020D01*
Y464280D01*
X139980D01*
Y464320D01*
X139940D01*
Y464360D01*
X139900D01*
Y464400D01*
X139860D01*
Y464440D01*
X139820D01*
Y464480D01*
X139780D01*
Y464520D01*
X139740D01*
Y464560D01*
X139700D01*
Y464600D01*
X139660D01*
Y464640D01*
X139620D01*
Y464680D01*
X139580D01*
Y464720D01*
X139540D01*
Y464760D01*
X139500D01*
Y464800D01*
X139460D01*
Y464840D01*
X139420D01*
Y464880D01*
X139380D01*
Y464920D01*
X139340D01*
Y464960D01*
X139300D01*
Y465000D01*
X139260D01*
Y465080D01*
X139220D01*
Y465120D01*
X139180D01*
Y465160D01*
X139140D01*
Y465200D01*
X139100D01*
Y465240D01*
X139060D01*
Y465280D01*
X139020D01*
Y465320D01*
X138980D01*
Y465360D01*
X138940D01*
Y465440D01*
X138900D01*
Y465480D01*
X138860D01*
Y465520D01*
X138820D01*
Y465560D01*
X138780D01*
Y465600D01*
X138740D01*
Y465640D01*
X138700D01*
Y465680D01*
X138660D01*
Y465760D01*
X138620D01*
Y465800D01*
X138580D01*
Y465840D01*
X138540D01*
Y465880D01*
X138500D01*
Y465920D01*
X138460D01*
Y466000D01*
X138420D01*
Y466040D01*
X138380D01*
Y466080D01*
X138340D01*
Y466120D01*
X138300D01*
Y466200D01*
X138260D01*
Y466240D01*
X138220D01*
Y466280D01*
X138180D01*
Y466360D01*
X138140D01*
Y466400D01*
X138100D01*
Y466440D01*
X138060D01*
Y466480D01*
X138020D01*
Y466560D01*
X137980D01*
Y466600D01*
X137940D01*
Y466640D01*
X137900D01*
Y466720D01*
X137860D01*
Y466760D01*
X137820D01*
Y466800D01*
X137780D01*
Y466880D01*
X137740D01*
Y466920D01*
X137700D01*
Y466960D01*
X137660D01*
Y467040D01*
X137620D01*
Y467080D01*
X137580D01*
Y467160D01*
X137540D01*
Y467200D01*
X137500D01*
Y467240D01*
X137460D01*
Y467320D01*
X137420D01*
Y467360D01*
X137380D01*
Y467440D01*
X137340D01*
Y467480D01*
X137300D01*
Y467560D01*
X137260D01*
Y467600D01*
X137220D01*
Y467680D01*
X137180D01*
Y467720D01*
X137140D01*
Y467800D01*
X137100D01*
Y467840D01*
X137060D01*
Y467920D01*
X137020D01*
Y467960D01*
X136980D01*
Y468040D01*
X136940D01*
Y468080D01*
X136900D01*
Y468160D01*
X136860D01*
Y468240D01*
X136820D01*
Y468280D01*
X136780D01*
Y468360D01*
X136740D01*
Y468400D01*
X136700D01*
Y468480D01*
X136660D01*
Y468560D01*
X136620D01*
Y468640D01*
X136580D01*
Y468680D01*
X136540D01*
Y468760D01*
X136500D01*
Y468840D01*
X136460D01*
Y468880D01*
X136420D01*
Y468960D01*
X136380D01*
Y469040D01*
X136340D01*
Y469120D01*
X136300D01*
Y469160D01*
X136260D01*
Y469240D01*
X136220D01*
Y469320D01*
X136180D01*
Y469400D01*
X136140D01*
Y469480D01*
X136100D01*
Y469560D01*
X136060D01*
Y469600D01*
X136020D01*
Y469680D01*
X135980D01*
Y469760D01*
X135940D01*
Y469840D01*
X135900D01*
Y469920D01*
X135860D01*
Y470000D01*
X135820D01*
Y470080D01*
X135780D01*
Y470160D01*
X135740D01*
Y470240D01*
X135700D01*
Y470320D01*
X135660D01*
Y470440D01*
X135620D01*
Y470520D01*
X135580D01*
Y470600D01*
X135540D01*
Y470680D01*
X135500D01*
Y470760D01*
X135460D01*
Y470840D01*
X135420D01*
Y470960D01*
X135380D01*
Y471040D01*
X135340D01*
Y471120D01*
X135300D01*
Y471240D01*
X135260D01*
Y471320D01*
X135220D01*
Y471400D01*
X135180D01*
Y471520D01*
X135140D01*
Y471640D01*
X135100D01*
Y471720D01*
X135060D01*
Y471840D01*
X135020D01*
Y471920D01*
X134980D01*
Y472040D01*
X134940D01*
Y472120D01*
X134900D01*
Y472240D01*
X134860D01*
Y472360D01*
X134820D01*
Y472480D01*
X134780D01*
Y472600D01*
X134740D01*
Y472720D01*
X134700D01*
Y472840D01*
X134660D01*
Y472960D01*
X134620D01*
Y473040D01*
X134580D01*
Y473200D01*
X134540D01*
Y473320D01*
X134500D01*
Y473440D01*
X134460D01*
Y473600D01*
X134420D01*
Y473720D01*
X134380D01*
Y473880D01*
X134340D01*
Y474000D01*
X134300D01*
Y474160D01*
X134260D01*
Y474320D01*
X134220D01*
Y474480D01*
X134180D01*
Y474640D01*
X134140D01*
Y474800D01*
X134100D01*
Y475000D01*
X134060D01*
Y475200D01*
X134020D01*
Y475360D01*
X133980D01*
Y475600D01*
X133940D01*
Y475800D01*
X133900D01*
Y476040D01*
X133860D01*
Y476280D01*
X133820D01*
Y476520D01*
X133780D01*
Y476840D01*
X133740D01*
Y477160D01*
X133700D01*
Y477520D01*
X133660D01*
Y477960D01*
X133620D01*
Y478680D01*
X133580D01*
Y480640D01*
X133620D01*
Y481320D01*
X133660D01*
Y481800D01*
X133700D01*
Y482160D01*
X133740D01*
Y482480D01*
X133780D01*
Y482760D01*
X133820D01*
Y483040D01*
X133860D01*
Y483280D01*
X133900D01*
Y483520D01*
X133940D01*
Y483760D01*
X133980D01*
Y483960D01*
X134020D01*
Y484120D01*
X134060D01*
Y484320D01*
X134100D01*
Y484520D01*
X134140D01*
Y484680D01*
X134180D01*
Y484840D01*
X134220D01*
Y485000D01*
X134260D01*
Y485160D01*
X134300D01*
Y485320D01*
X134340D01*
Y485440D01*
X134380D01*
Y485600D01*
X134420D01*
Y485720D01*
X134460D01*
Y485840D01*
X134500D01*
Y486000D01*
X134540D01*
Y486120D01*
X134580D01*
Y486240D01*
X134620D01*
Y486360D01*
X134660D01*
Y486480D01*
X134700D01*
Y486600D01*
X134740D01*
Y486720D01*
X134780D01*
Y486840D01*
X134820D01*
Y486960D01*
X134860D01*
Y487080D01*
X134900D01*
Y487160D01*
X134940D01*
Y487280D01*
X134980D01*
Y487400D01*
X135020D01*
Y487480D01*
X135060D01*
Y487600D01*
X135100D01*
Y487680D01*
X135140D01*
Y487800D01*
X135180D01*
Y487880D01*
X135220D01*
Y488000D01*
X135260D01*
Y488080D01*
X135300D01*
Y488160D01*
X135340D01*
Y488280D01*
X135380D01*
Y488360D01*
X135420D01*
Y488440D01*
X135460D01*
Y488520D01*
X135500D01*
Y488640D01*
X135540D01*
Y488720D01*
X135580D01*
Y488800D01*
X135620D01*
Y488880D01*
X135660D01*
Y488960D01*
X135700D01*
Y489040D01*
X135740D01*
Y489160D01*
X135780D01*
Y489240D01*
X135820D01*
Y489280D01*
X135860D01*
Y489400D01*
X135900D01*
Y489480D01*
X135940D01*
Y489560D01*
X135980D01*
Y489600D01*
X136020D01*
Y489680D01*
X136060D01*
Y489760D01*
X136100D01*
Y489840D01*
X136140D01*
Y489920D01*
X136180D01*
Y490000D01*
X136220D01*
Y490040D01*
X136260D01*
Y490120D01*
X136300D01*
Y490200D01*
X136340D01*
Y490280D01*
X136380D01*
Y490360D01*
X136420D01*
Y490400D01*
X136460D01*
Y490480D01*
X136500D01*
Y490560D01*
X136540D01*
Y490640D01*
X136580D01*
Y490680D01*
X136620D01*
Y490760D01*
X136660D01*
Y490840D01*
X136700D01*
Y490880D01*
X136740D01*
Y490960D01*
X136780D01*
Y491040D01*
X136820D01*
Y491080D01*
X136860D01*
Y491160D01*
X136900D01*
Y491200D01*
X136940D01*
Y491280D01*
X136980D01*
Y491320D01*
X137020D01*
Y491400D01*
X137060D01*
Y491480D01*
X137100D01*
Y491520D01*
X137140D01*
Y491560D01*
X137180D01*
Y491640D01*
X137220D01*
Y491720D01*
X137260D01*
Y491760D01*
X137300D01*
Y491840D01*
X137340D01*
Y491880D01*
X137380D01*
Y491960D01*
X137420D01*
Y492000D01*
X137460D01*
Y492040D01*
X137500D01*
Y492120D01*
X137540D01*
Y492160D01*
X137580D01*
Y492240D01*
X137620D01*
Y492280D01*
X137660D01*
Y492320D01*
X137700D01*
Y492400D01*
X137740D01*
Y492440D01*
X137780D01*
Y492480D01*
X137820D01*
Y492560D01*
X137860D01*
Y492600D01*
X137900D01*
Y492680D01*
X137940D01*
Y492720D01*
X137980D01*
Y492760D01*
X138020D01*
Y492800D01*
X138060D01*
Y492880D01*
X138100D01*
Y492920D01*
X138140D01*
Y492960D01*
X138180D01*
Y493040D01*
X138220D01*
Y493080D01*
X138260D01*
Y493120D01*
X138300D01*
Y493160D01*
X138340D01*
Y493240D01*
X138380D01*
Y493280D01*
X138420D01*
Y493320D01*
X138460D01*
Y493360D01*
X138500D01*
Y493440D01*
X138540D01*
Y493480D01*
X138580D01*
Y493520D01*
X138620D01*
Y493560D01*
X138660D01*
Y493600D01*
X138700D01*
Y493680D01*
X138740D01*
Y493720D01*
X138780D01*
Y493760D01*
X138820D01*
Y493800D01*
X138860D01*
Y493840D01*
X138900D01*
Y493880D01*
X138940D01*
Y493920D01*
X138980D01*
Y494000D01*
X139020D01*
Y494040D01*
X139060D01*
Y494080D01*
X139100D01*
Y494120D01*
X139140D01*
Y494160D01*
X139180D01*
Y494200D01*
X139220D01*
Y494240D01*
X139260D01*
Y494280D01*
X139300D01*
Y494320D01*
X139340D01*
Y494400D01*
X139420D01*
Y494440D01*
X139460D01*
Y494520D01*
X139500D01*
Y494560D01*
X139540D01*
Y494600D01*
X139580D01*
Y494640D01*
X139620D01*
Y494680D01*
X139660D01*
Y494720D01*
X139700D01*
Y494760D01*
X139740D01*
Y494800D01*
X139780D01*
Y494840D01*
X139820D01*
Y494880D01*
X139860D01*
Y494920D01*
X139900D01*
Y494960D01*
X139940D01*
Y495000D01*
X139980D01*
Y495040D01*
X140020D01*
Y495080D01*
X140060D01*
Y495120D01*
X140100D01*
Y495160D01*
X140140D01*
Y495200D01*
X140180D01*
Y495240D01*
X140220D01*
Y495280D01*
X140260D01*
Y495320D01*
X140300D01*
Y495360D01*
X140340D01*
Y495400D01*
X140380D01*
Y495440D01*
X140420D01*
Y495480D01*
X140460D01*
Y495520D01*
X140540D01*
Y495560D01*
X140580D01*
Y495600D01*
X140620D01*
Y495640D01*
X140660D01*
Y495680D01*
X140700D01*
Y495720D01*
X140740D01*
Y495760D01*
X140780D01*
Y495800D01*
X140820D01*
Y495840D01*
X140860D01*
Y495880D01*
X140940D01*
Y495920D01*
X140980D01*
Y495960D01*
X141020D01*
Y496000D01*
X141060D01*
Y496040D01*
X141100D01*
Y496080D01*
X141140D01*
Y496120D01*
X141180D01*
Y496160D01*
X141260D01*
Y496200D01*
X141300D01*
Y496240D01*
X141340D01*
Y496280D01*
X141380D01*
Y496320D01*
X141420D01*
Y496360D01*
X141500D01*
Y496400D01*
X141540D01*
Y496440D01*
X141580D01*
Y496480D01*
X141620D01*
Y496520D01*
X141700D01*
Y496560D01*
X141740D01*
Y496600D01*
X141780D01*
Y496640D01*
X141820D01*
Y496680D01*
X141900D01*
Y496720D01*
X141940D01*
Y496760D01*
X141980D01*
Y496800D01*
X142060D01*
Y496840D01*
X142100D01*
Y496880D01*
X142140D01*
Y496920D01*
X142220D01*
Y496960D01*
X142260D01*
Y497000D01*
X142300D01*
Y497040D01*
X142380D01*
Y497080D01*
X142420D01*
Y497120D01*
X142460D01*
Y497160D01*
X142540D01*
Y497200D01*
X142580D01*
Y497240D01*
X142620D01*
Y497280D01*
X142700D01*
Y497320D01*
X142740D01*
Y497360D01*
X142820D01*
Y497400D01*
X142860D01*
Y497440D01*
X142940D01*
Y497480D01*
X142980D01*
Y497520D01*
X143020D01*
Y497560D01*
X143100D01*
Y497600D01*
X143140D01*
Y497640D01*
X143220D01*
Y497680D01*
X143260D01*
Y497720D01*
X143340D01*
Y497760D01*
X143380D01*
Y497800D01*
X143460D01*
Y497840D01*
X143540D01*
Y497880D01*
X143580D01*
Y497920D01*
X143660D01*
Y497960D01*
X143700D01*
Y498000D01*
X143780D01*
Y498040D01*
X143820D01*
Y498080D01*
X143900D01*
Y498120D01*
X143980D01*
Y498160D01*
X144020D01*
Y498200D01*
X144100D01*
Y498240D01*
X144180D01*
Y498280D01*
X144220D01*
Y498320D01*
X144300D01*
Y498360D01*
X144380D01*
Y498400D01*
X144460D01*
Y498440D01*
X144500D01*
Y498480D01*
X144580D01*
Y498520D01*
X144660D01*
Y498560D01*
X144740D01*
Y498600D01*
X144820D01*
Y498640D01*
X144860D01*
Y498680D01*
X144940D01*
Y498720D01*
X145020D01*
Y498760D01*
X145100D01*
Y498800D01*
X145180D01*
Y498840D01*
X145260D01*
Y498880D01*
X145300D01*
Y498920D01*
X145380D01*
Y498960D01*
X145500D01*
Y499000D01*
X145580D01*
Y499040D01*
X145660D01*
Y499080D01*
X145740D01*
Y499120D01*
X145820D01*
Y499160D01*
X145900D01*
Y499200D01*
X145980D01*
Y499240D01*
X146060D01*
Y499280D01*
X146140D01*
Y499320D01*
X146220D01*
Y499360D01*
X146300D01*
Y499400D01*
X146420D01*
Y499440D01*
X146500D01*
Y499480D01*
X146580D01*
Y499520D01*
X146700D01*
Y499560D01*
X146780D01*
Y499600D01*
X146860D01*
Y499640D01*
X146980D01*
Y499680D01*
X147060D01*
Y499720D01*
X147180D01*
Y499760D01*
X147260D01*
Y499800D01*
X147380D01*
Y499840D01*
X147460D01*
Y499880D01*
X147580D01*
Y499920D01*
X147660D01*
Y499960D01*
X147780D01*
Y500000D01*
X147900D01*
Y500040D01*
X148020D01*
Y500080D01*
X148140D01*
Y500120D01*
X148260D01*
Y500160D01*
X148380D01*
Y500200D01*
X148500D01*
Y500240D01*
X148620D01*
Y500280D01*
X148740D01*
Y500320D01*
X148860D01*
Y500360D01*
X149020D01*
Y500400D01*
X149140D01*
Y500440D01*
X149260D01*
Y500480D01*
X149420D01*
Y500520D01*
X149540D01*
Y500560D01*
X149700D01*
Y500600D01*
X149860D01*
Y500640D01*
X150020D01*
Y500680D01*
X150180D01*
Y500720D01*
X150380D01*
Y500760D01*
X150540D01*
Y500800D01*
X150740D01*
Y500840D01*
X150900D01*
Y500880D01*
X151140D01*
Y500920D01*
X151340D01*
Y500960D01*
X151580D01*
Y501000D01*
X151820D01*
Y501040D01*
X152100D01*
Y501080D01*
X152380D01*
Y501120D01*
X152700D01*
Y501160D01*
X153060D01*
Y501200D01*
X153540D01*
Y501240D01*
X154220D01*
Y501280D01*
X156140D01*
Y501240D01*
D02*
G37*
G36*
X65449Y108051D02*
X65802D01*
Y107697D01*
X66509D01*
Y107344D01*
X66863D01*
Y106990D01*
X67570D01*
Y106637D01*
X67924D01*
Y106283D01*
X68277D01*
Y105930D01*
X68631D01*
Y105576D01*
X68984D01*
Y105223D01*
X69338D01*
Y104516D01*
X68984D01*
Y103809D01*
X68631D01*
Y103455D01*
X68277D01*
Y102748D01*
X67924D01*
Y102041D01*
X67570D01*
Y101334D01*
X67217D01*
Y100627D01*
X66863D01*
Y98860D01*
X67217D01*
Y99213D01*
X67924D01*
Y99567D01*
X68631D01*
Y99920D01*
X68984D01*
Y100274D01*
X69691D01*
Y100627D01*
X70398D01*
Y100981D01*
X70752D01*
Y101334D01*
X71459D01*
Y101688D01*
X71812D01*
Y102041D01*
X72166D01*
Y101688D01*
X72519D01*
Y100981D01*
X72873D01*
Y100627D01*
X73226D01*
Y99920D01*
X73580D01*
Y99213D01*
X73933D01*
Y98506D01*
X74287D01*
Y97799D01*
X74640D01*
Y97092D01*
X74994D01*
Y96032D01*
X75347D01*
Y94971D01*
X75701D01*
Y93911D01*
X76054D01*
Y92143D01*
X75701D01*
Y91790D01*
X74994D01*
Y91436D01*
X74640D01*
Y91083D01*
X74287D01*
Y90729D01*
X73933D01*
Y90376D01*
X73226D01*
Y90729D01*
X72519D01*
Y91083D01*
X72166D01*
Y91436D01*
X71459D01*
Y91790D01*
X71105D01*
Y92143D01*
X70752D01*
Y92497D01*
X70045D01*
Y92850D01*
X69691D01*
Y93204D01*
X69338D01*
Y93557D01*
X68631D01*
Y93911D01*
X68277D01*
Y94264D01*
X67570D01*
Y94618D01*
X67217D01*
Y94971D01*
X66509D01*
Y95325D01*
X66156D01*
Y95678D01*
X65449D01*
Y96032D01*
X64742D01*
Y96385D01*
X64388D01*
Y96739D01*
X63682D01*
Y97092D01*
X62975D01*
Y97446D01*
X62267D01*
Y97799D01*
X60854D01*
Y97446D01*
X60146D01*
Y97092D01*
X59440D01*
Y96739D01*
X58733D01*
Y96385D01*
X58379D01*
Y96032D01*
X57672D01*
Y95678D01*
X56965D01*
Y95325D01*
X56611D01*
Y94971D01*
X55904D01*
Y94618D01*
X55551D01*
Y94264D01*
X54844D01*
Y93911D01*
X54490D01*
Y93557D01*
X53783D01*
Y93204D01*
X53430D01*
Y92850D01*
X53076D01*
Y92497D01*
X52369D01*
Y92143D01*
X52016D01*
Y91790D01*
X51662D01*
Y91436D01*
X50955D01*
Y91083D01*
X50248D01*
Y91436D01*
X49895D01*
Y91790D01*
X49541D01*
Y92143D01*
X49188D01*
Y92850D01*
X48834D01*
Y93204D01*
Y94264D01*
X49188D01*
Y95678D01*
X49541D01*
Y96739D01*
X49895D01*
Y97092D01*
X50248D01*
Y96739D01*
X50602D01*
Y96385D01*
X51309D01*
Y96032D01*
X51662D01*
Y95678D01*
X52016D01*
Y95325D01*
X52369D01*
Y94971D01*
X52723D01*
Y96739D01*
X52369D01*
Y97446D01*
X52016D01*
Y98153D01*
X51662D01*
Y98506D01*
X51309D01*
Y98860D01*
X50955D01*
Y99920D01*
X51309D01*
Y100627D01*
X51662D01*
Y101334D01*
X52016D01*
Y101688D01*
X52369D01*
Y102395D01*
X52723D01*
Y102748D01*
X53076D01*
Y103455D01*
X53430D01*
Y103809D01*
X53783D01*
Y104162D01*
X54137D01*
Y104869D01*
X54490D01*
Y105223D01*
X54844D01*
Y105576D01*
X55198D01*
Y105930D01*
X55551D01*
Y106283D01*
X55904D01*
Y106637D01*
X56258D01*
Y106990D01*
X56611D01*
Y107344D01*
X56965D01*
Y107697D01*
X57319D01*
Y108051D01*
X58025D01*
Y108405D01*
X65449D01*
Y108051D01*
D02*
G37*
G36*
X50248Y106637D02*
X49895D01*
Y106283D01*
X49541D01*
Y105930D01*
X49188D01*
Y105223D01*
X48834D01*
Y104869D01*
X48481D01*
Y104162D01*
X48127D01*
Y103455D01*
X47774D01*
Y102748D01*
X47420D01*
Y102395D01*
X47067D01*
Y101688D01*
X46713D01*
Y100981D01*
X46360D01*
Y99920D01*
X46006D01*
Y99213D01*
X45653D01*
Y98506D01*
X45299D01*
Y97446D01*
X44946D01*
Y96385D01*
X44592D01*
Y95325D01*
X44239D01*
Y94264D01*
X43885D01*
Y92850D01*
X43532D01*
Y90729D01*
X43885D01*
Y90376D01*
X44592D01*
Y90022D01*
X44946D01*
Y89669D01*
X44592D01*
Y89315D01*
X44239D01*
Y88962D01*
X43885D01*
Y88608D01*
X43178D01*
Y88255D01*
X42825D01*
Y87901D01*
X42471D01*
Y87548D01*
X42118D01*
Y87194D01*
X41764D01*
Y86841D01*
X41411D01*
Y86487D01*
X41057D01*
Y86134D01*
X40704D01*
Y85780D01*
X40350D01*
Y85427D01*
X39997D01*
Y85073D01*
X39643D01*
Y84720D01*
X39290D01*
Y84366D01*
X38936D01*
Y84013D01*
X38583D01*
Y83659D01*
X38229D01*
Y83306D01*
X37876D01*
Y82952D01*
X37522D01*
Y82599D01*
X37169D01*
Y82245D01*
X36815D01*
Y81538D01*
X36462D01*
Y81185D01*
X36108D01*
Y80831D01*
X35755D01*
Y80478D01*
X35401D01*
Y80124D01*
X35048D01*
Y79417D01*
X34694D01*
Y79064D01*
X34341D01*
Y78710D01*
X33987D01*
Y78357D01*
X33634D01*
Y77650D01*
X33280D01*
Y77296D01*
X32927D01*
Y76943D01*
X32573D01*
Y76236D01*
X32220D01*
Y75882D01*
X31866D01*
Y75529D01*
X31513D01*
Y74822D01*
X31159D01*
Y74468D01*
X30806D01*
Y73761D01*
X30452D01*
Y73408D01*
X30099D01*
Y72701D01*
X29745D01*
Y71994D01*
X29392D01*
Y70580D01*
X29038D01*
Y64570D01*
X28685D01*
Y61389D01*
Y61035D01*
Y55379D01*
X28331D01*
Y41946D01*
X28685D01*
Y39471D01*
X29038D01*
Y39118D01*
X29745D01*
Y38764D01*
X30099D01*
Y38411D01*
X30806D01*
Y38057D01*
X31513D01*
Y37704D01*
X31866D01*
Y37350D01*
X32573D01*
Y36643D01*
X32927D01*
Y33815D01*
X33280D01*
Y30634D01*
X33634D01*
Y28866D01*
X33280D01*
Y29573D01*
X32927D01*
Y29927D01*
X32573D01*
Y30280D01*
X32220D01*
Y30987D01*
X31866D01*
Y31341D01*
X31513D01*
Y32048D01*
X31159D01*
Y32401D01*
X30806D01*
Y33108D01*
X30452D01*
Y33462D01*
X30099D01*
Y33815D01*
X29745D01*
Y34522D01*
X29392D01*
Y34876D01*
X29038D01*
Y35583D01*
X28685D01*
Y35936D01*
X28331D01*
Y36643D01*
X27978D01*
Y36997D01*
X27624D01*
Y37704D01*
X27271D01*
Y38411D01*
X26917D01*
Y38764D01*
X26564D01*
Y39471D01*
X26210D01*
Y39825D01*
X25857D01*
Y40532D01*
X25503D01*
Y41239D01*
X25150D01*
Y41592D01*
X24796D01*
Y42299D01*
X24443D01*
Y43006D01*
X24089D01*
Y43713D01*
X23736D01*
Y44420D01*
X23382D01*
Y45127D01*
X23029D01*
Y45834D01*
X22675D01*
Y46541D01*
X22322D01*
Y47248D01*
X21968D01*
Y47955D01*
X21615D01*
Y49016D01*
X21261D01*
Y50076D01*
X20908D01*
Y51137D01*
X20554D01*
Y52551D01*
X21261D01*
Y52197D01*
X22322D01*
Y51844D01*
X23029D01*
Y51490D01*
X24089D01*
Y51137D01*
X24443D01*
Y51490D01*
X24089D01*
Y51844D01*
X23736D01*
Y52197D01*
X23382D01*
Y52551D01*
X23029D01*
Y52905D01*
X22675D01*
Y53258D01*
X22322D01*
Y53611D01*
X21615D01*
Y53965D01*
X21261D01*
Y54318D01*
X20908D01*
Y54672D01*
X20554D01*
Y55026D01*
X20201D01*
Y55379D01*
X19847D01*
Y55732D01*
X19494D01*
Y57147D01*
X19140D01*
Y58914D01*
X18787D01*
Y60682D01*
X18433D01*
Y62803D01*
X18080D01*
Y65277D01*
X17726D01*
Y68459D01*
X17373D01*
Y69873D01*
X17726D01*
Y69519D01*
X18433D01*
Y69166D01*
X19140D01*
Y68812D01*
X19847D01*
Y68459D01*
X20554D01*
Y68105D01*
X21615D01*
Y67752D01*
X22322D01*
Y67398D01*
X23029D01*
Y67045D01*
X23736D01*
Y66691D01*
X24443D01*
Y66338D01*
X25150D01*
Y66691D01*
X24796D01*
Y67045D01*
X24443D01*
Y67398D01*
X23736D01*
Y67752D01*
X23382D01*
Y68105D01*
X23029D01*
Y68459D01*
X22675D01*
Y68812D01*
X21968D01*
Y69166D01*
X21615D01*
Y69519D01*
X21261D01*
Y69873D01*
X20554D01*
Y70226D01*
X20201D01*
Y70580D01*
X19847D01*
Y70933D01*
X19494D01*
Y71287D01*
X18787D01*
Y71640D01*
X18433D01*
Y71994D01*
X18080D01*
Y72347D01*
X17726D01*
Y72701D01*
X17019D01*
Y83306D01*
X16666D01*
Y87548D01*
X17019D01*
Y93204D01*
X17373D01*
Y93911D01*
X17726D01*
Y93557D01*
X18787D01*
Y93204D01*
X19494D01*
Y92850D01*
X20201D01*
Y92497D01*
X20908D01*
Y92143D01*
X21968D01*
Y91790D01*
X22675D01*
Y91436D01*
X23382D01*
Y91083D01*
X24089D01*
Y90729D01*
X25150D01*
Y90376D01*
X25857D01*
Y90022D01*
X26564D01*
Y89669D01*
X27271D01*
Y89315D01*
X28331D01*
Y88962D01*
X29038D01*
Y88608D01*
X29745D01*
Y88255D01*
X30452D01*
Y87901D01*
X31159D01*
Y87548D01*
X32220D01*
Y87194D01*
X32573D01*
Y87901D01*
X31866D01*
Y88255D01*
X31513D01*
Y88608D01*
X31159D01*
Y88962D01*
X30452D01*
Y89315D01*
X30099D01*
Y89669D01*
X29745D01*
Y90022D01*
X29038D01*
Y90376D01*
X28685D01*
Y90729D01*
X28331D01*
Y91083D01*
X27624D01*
Y91436D01*
X27271D01*
Y91790D01*
X26917D01*
Y92143D01*
X26210D01*
Y92497D01*
X25857D01*
Y92850D01*
X25503D01*
Y93204D01*
X24796D01*
Y93557D01*
X24443D01*
Y93911D01*
X24089D01*
Y94264D01*
X23382D01*
Y94618D01*
X23029D01*
Y94971D01*
X22675D01*
Y95325D01*
X22322D01*
Y95678D01*
X21615D01*
Y96032D01*
X21261D01*
Y96385D01*
X20908D01*
Y96739D01*
X20201D01*
Y97446D01*
X20908D01*
Y97799D01*
X21615D01*
Y98153D01*
X22322D01*
Y98506D01*
X23029D01*
Y98860D01*
X23736D01*
Y99213D01*
X24443D01*
Y99567D01*
X25150D01*
Y99920D01*
X25857D01*
Y100274D01*
X26917D01*
Y100627D01*
X27624D01*
Y100981D01*
X28685D01*
Y101334D01*
X29392D01*
Y101688D01*
X30452D01*
Y102041D01*
X31159D01*
Y102395D01*
X32220D01*
Y102748D01*
X33280D01*
Y103102D01*
X34341D01*
Y103455D01*
X35401D01*
Y103809D01*
X36815D01*
Y104162D01*
X37876D01*
Y104516D01*
X39290D01*
Y104869D01*
X40350D01*
Y105223D01*
X41764D01*
Y105576D01*
X43532D01*
Y105930D01*
X45299D01*
Y106283D01*
X47067D01*
Y106637D01*
X49188D01*
Y106990D01*
X50248D01*
Y106637D01*
D02*
G37*
G36*
X61914Y94971D02*
X62975D01*
Y94618D01*
X63682D01*
Y94264D01*
X64388D01*
Y93911D01*
X65096D01*
Y93557D01*
X65449D01*
Y93204D01*
X66156D01*
Y92850D01*
X66863D01*
Y92497D01*
X67570D01*
Y92143D01*
X67924D01*
Y91790D01*
X68631D01*
Y91436D01*
X69338D01*
Y91083D01*
X69691D01*
Y90729D01*
X70398D01*
Y90376D01*
X70752D01*
Y90022D01*
X71459D01*
Y89669D01*
X71812D01*
Y89315D01*
X72166D01*
Y88962D01*
X72873D01*
Y88608D01*
X73226D01*
Y88255D01*
X73580D01*
Y87901D01*
X73933D01*
Y87548D01*
X74640D01*
Y87194D01*
X74994D01*
Y86841D01*
X75347D01*
Y86487D01*
X75701D01*
Y86134D01*
X76054D01*
Y85780D01*
X76761D01*
Y85427D01*
X77115D01*
Y85073D01*
X77468D01*
Y84720D01*
X77822D01*
Y84366D01*
X78175D01*
Y84013D01*
X78529D01*
Y83659D01*
X78882D01*
Y83306D01*
X79236D01*
Y82952D01*
X79589D01*
Y82599D01*
X79943D01*
Y82245D01*
X80296D01*
Y81892D01*
X80650D01*
Y81538D01*
X81003D01*
Y81185D01*
X81357D01*
Y80831D01*
X81710D01*
Y80478D01*
X82064D01*
Y80124D01*
X82417D01*
Y79771D01*
X82771D01*
Y79064D01*
X83124D01*
Y78710D01*
X83478D01*
Y78357D01*
X83831D01*
Y78003D01*
X84185D01*
Y77650D01*
X84538D01*
Y77296D01*
X84892D01*
Y76589D01*
X85245D01*
Y76236D01*
X85599D01*
Y75882D01*
X85952D01*
Y75175D01*
X86306D01*
Y74822D01*
X86659D01*
Y74468D01*
X87013D01*
Y73761D01*
X87366D01*
Y73408D01*
X87720D01*
Y73054D01*
X88073D01*
Y72701D01*
X87720D01*
Y72347D01*
X87366D01*
Y71994D01*
X87013D01*
Y71640D01*
X86306D01*
Y71287D01*
X85952D01*
Y70933D01*
X85599D01*
Y70580D01*
X85245D01*
Y70226D01*
X84538D01*
Y69873D01*
X84185D01*
Y69519D01*
X83831D01*
Y69166D01*
X83478D01*
Y68812D01*
X82771D01*
Y68459D01*
X82417D01*
Y68105D01*
X82064D01*
Y67752D01*
X81357D01*
Y67398D01*
X81003D01*
Y67045D01*
X80650D01*
Y66691D01*
X79943D01*
Y66338D01*
X79589D01*
Y65984D01*
X79236D01*
Y65631D01*
X78529D01*
Y65277D01*
X78175D01*
Y64924D01*
X77822D01*
Y64570D01*
X78529D01*
Y64924D01*
X79589D01*
Y65277D01*
X80296D01*
Y65631D01*
X81003D01*
Y65984D01*
X81710D01*
Y66338D01*
X82417D01*
Y66691D01*
X83124D01*
Y67045D01*
X83831D01*
Y67398D01*
X84538D01*
Y67752D01*
X85245D01*
Y68105D01*
X85952D01*
Y68459D01*
X87013D01*
Y68812D01*
X87720D01*
Y69166D01*
X88427D01*
Y69519D01*
X89134D01*
Y69873D01*
X89841D01*
Y66338D01*
X90194D01*
Y59621D01*
X90548D01*
Y41946D01*
X90194D01*
Y41592D01*
X89487D01*
Y41239D01*
X89134D01*
Y40885D01*
X88780D01*
Y40532D01*
X88073D01*
Y40178D01*
X87366D01*
Y39825D01*
X86659D01*
Y38411D01*
X86306D01*
Y34876D01*
X85952D01*
Y31341D01*
X85599D01*
Y27452D01*
X85245D01*
Y24978D01*
Y24624D01*
Y23917D01*
X84892D01*
Y21796D01*
X84538D01*
Y21443D01*
X84185D01*
Y21089D01*
X83831D01*
Y20736D01*
X83478D01*
Y20382D01*
X83124D01*
Y20029D01*
X82771D01*
Y19322D01*
X82417D01*
Y18968D01*
X82064D01*
Y18615D01*
X81710D01*
Y18261D01*
X81357D01*
Y17908D01*
X80650D01*
Y17554D01*
X80296D01*
Y17201D01*
X79943D01*
Y16847D01*
X79589D01*
Y16494D01*
X79236D01*
Y16140D01*
X78882D01*
Y15787D01*
X78529D01*
Y15433D01*
X78175D01*
Y19322D01*
X77822D01*
Y17554D01*
X77468D01*
Y16494D01*
X77115D01*
Y15080D01*
X76761D01*
Y14019D01*
X76408D01*
Y13666D01*
X76054D01*
Y13312D01*
X75701D01*
Y12959D01*
X75347D01*
Y12605D01*
X74640D01*
Y12252D01*
X74287D01*
Y11898D01*
X73933D01*
Y11545D01*
X73226D01*
Y11191D01*
X72873D01*
Y10838D01*
X72519D01*
Y10484D01*
X71812D01*
Y10131D01*
X71459D01*
Y9777D01*
X71105D01*
Y9424D01*
X70398D01*
Y11545D01*
X70752D01*
Y15433D01*
X71105D01*
Y19675D01*
X71459D01*
Y23564D01*
X71812D01*
Y27452D01*
X72166D01*
Y31694D01*
X72519D01*
Y35583D01*
X72873D01*
Y39471D01*
X73226D01*
Y40532D01*
X73580D01*
Y40885D01*
X74287D01*
Y41239D01*
X75347D01*
Y41592D01*
X76054D01*
Y41946D01*
X76761D01*
Y42299D01*
X77468D01*
Y42653D01*
X77822D01*
Y43006D01*
X78529D01*
Y43360D01*
X78882D01*
Y43713D01*
X79589D01*
Y44067D01*
X79943D01*
Y44420D01*
X80296D01*
Y44774D01*
X81003D01*
Y45127D01*
X81357D01*
Y45481D01*
X81710D01*
Y45834D01*
X82064D01*
Y46188D01*
X82417D01*
Y46541D01*
X82771D01*
Y46895D01*
X83124D01*
Y52551D01*
X83478D01*
Y52905D01*
X83831D01*
Y53258D01*
X83124D01*
Y52905D01*
X82417D01*
Y52551D01*
X81710D01*
Y52197D01*
X81003D01*
Y51844D01*
X80296D01*
Y51490D01*
X79943D01*
Y51137D01*
X79236D01*
Y50783D01*
X78529D01*
Y50430D01*
X77822D01*
Y50076D01*
X77115D01*
Y49723D01*
X76408D01*
Y49369D01*
X75701D01*
Y49016D01*
X74994D01*
Y48662D01*
X74287D01*
Y48309D01*
X73226D01*
Y47955D01*
X72519D01*
Y47602D01*
X71459D01*
Y47248D01*
X70752D01*
Y46895D01*
X69338D01*
Y46541D01*
X67924D01*
Y46188D01*
X67217D01*
Y42299D01*
X67570D01*
Y40178D01*
X67924D01*
Y38764D01*
X68277D01*
Y37704D01*
X68631D01*
Y36997D01*
X68984D01*
Y35936D01*
X68631D01*
Y35583D01*
X67924D01*
Y35229D01*
X67217D01*
Y34876D01*
X66863D01*
Y34522D01*
X66156D01*
Y34169D01*
X65449D01*
Y33815D01*
X65096D01*
Y33462D01*
X64388D01*
Y33108D01*
X63682D01*
Y32755D01*
X63328D01*
Y32401D01*
X62621D01*
Y32048D01*
X61914D01*
Y31694D01*
X61561D01*
Y32048D01*
X60854D01*
Y32401D01*
X60146D01*
Y32755D01*
X59793D01*
Y33108D01*
X59086D01*
Y33462D01*
X58379D01*
Y33815D01*
X57672D01*
Y34169D01*
X57319D01*
Y34522D01*
X56611D01*
Y34876D01*
X55904D01*
Y35229D01*
X55551D01*
Y35583D01*
X54844D01*
Y35936D01*
X54137D01*
Y36290D01*
X54490D01*
Y36997D01*
X54844D01*
Y37704D01*
X55198D01*
Y38764D01*
X55551D01*
Y40532D01*
X55904D01*
Y43006D01*
X56258D01*
Y46188D01*
X55551D01*
Y46541D01*
X53783D01*
Y46895D01*
X52723D01*
Y47248D01*
X51662D01*
Y47602D01*
X50955D01*
Y47955D01*
X50248D01*
Y48309D01*
X49188D01*
Y48662D01*
X48481D01*
Y49016D01*
X47774D01*
Y49369D01*
X47067D01*
Y49723D01*
X46360D01*
Y50076D01*
X45653D01*
Y50430D01*
X44946D01*
Y50783D01*
X44239D01*
Y51137D01*
X43532D01*
Y51490D01*
X42825D01*
Y51844D01*
X42471D01*
Y52197D01*
X41764D01*
Y52551D01*
X41057D01*
Y52905D01*
X40350D01*
Y53258D01*
X39643D01*
Y53611D01*
X39290D01*
Y53258D01*
X39643D01*
Y52905D01*
X39997D01*
Y52551D01*
X40350D01*
Y46895D01*
X40704D01*
Y46541D01*
X41057D01*
Y46188D01*
X41411D01*
Y45834D01*
X41764D01*
Y45481D01*
X42118D01*
Y45127D01*
X42471D01*
Y44774D01*
X43178D01*
Y44420D01*
X43532D01*
Y44067D01*
X43885D01*
Y43713D01*
X44592D01*
Y43360D01*
X44946D01*
Y43006D01*
X45653D01*
Y42653D01*
X46006D01*
Y42299D01*
X46713D01*
Y41946D01*
X47420D01*
Y41592D01*
X48127D01*
Y41239D01*
X49188D01*
Y40885D01*
X49895D01*
Y40532D01*
X50248D01*
Y39118D01*
X50602D01*
Y34876D01*
X50955D01*
Y30987D01*
X51309D01*
Y27099D01*
X51662D01*
Y22857D01*
X52016D01*
Y18968D01*
X52369D01*
Y15080D01*
X52723D01*
Y10838D01*
X53076D01*
Y9424D01*
X52369D01*
Y9777D01*
X52016D01*
Y10131D01*
X51309D01*
Y10484D01*
X50955D01*
Y10838D01*
X50602D01*
Y11191D01*
X49895D01*
Y11545D01*
X49541D01*
Y11898D01*
X49188D01*
Y12252D01*
X48834D01*
Y12605D01*
X48127D01*
Y12959D01*
X47774D01*
Y13312D01*
X47420D01*
Y13666D01*
X47067D01*
Y14019D01*
X46713D01*
Y15080D01*
X46360D01*
Y16140D01*
X46006D01*
Y17554D01*
X45653D01*
Y19322D01*
X45299D01*
Y16494D01*
X44946D01*
Y15787D01*
X44592D01*
Y16140D01*
X44239D01*
Y16494D01*
X43885D01*
Y16847D01*
X43178D01*
Y17201D01*
X42825D01*
Y17554D01*
X42471D01*
Y17908D01*
X42118D01*
Y18261D01*
X41764D01*
Y18615D01*
X41411D01*
Y18968D01*
X41057D01*
Y19322D01*
X40704D01*
Y19675D01*
X40350D01*
Y20029D01*
X39997D01*
Y20382D01*
X39643D01*
Y21089D01*
X39290D01*
Y21443D01*
X38936D01*
Y21796D01*
X38583D01*
Y23210D01*
X38229D01*
Y27099D01*
X37876D01*
Y30634D01*
X37522D01*
Y34169D01*
X37169D01*
Y38057D01*
X36815D01*
Y39471D01*
X36462D01*
Y39825D01*
X36108D01*
Y40178D01*
X35401D01*
Y40532D01*
X34694D01*
Y40885D01*
X34341D01*
Y41239D01*
X33634D01*
Y41592D01*
X33280D01*
Y41946D01*
X32927D01*
Y61035D01*
X33280D01*
Y67398D01*
X33634D01*
Y69873D01*
X34341D01*
Y69519D01*
X35048D01*
Y69166D01*
X35755D01*
Y68812D01*
X36462D01*
Y68459D01*
X37169D01*
Y68105D01*
X37876D01*
Y67752D01*
X38936D01*
Y67398D01*
X39643D01*
Y67045D01*
X40350D01*
Y66691D01*
X41057D01*
Y66338D01*
X41764D01*
Y65984D01*
X42471D01*
Y65631D01*
X43178D01*
Y65277D01*
X43885D01*
Y64924D01*
X44592D01*
Y64570D01*
X45653D01*
Y64217D01*
X46006D01*
Y64570D01*
X45653D01*
Y64924D01*
X45299D01*
Y65277D01*
X44592D01*
Y65631D01*
X44239D01*
Y65984D01*
X43885D01*
Y66338D01*
X43178D01*
Y66691D01*
X42825D01*
Y67045D01*
X42471D01*
Y67398D01*
X41764D01*
Y67752D01*
X41411D01*
Y68105D01*
X41057D01*
Y68459D01*
X40350D01*
Y68812D01*
X39997D01*
Y69166D01*
X39643D01*
Y69519D01*
X39290D01*
Y69873D01*
X38583D01*
Y70226D01*
X38229D01*
Y70580D01*
X37876D01*
Y70933D01*
X37522D01*
Y71287D01*
X36815D01*
Y71640D01*
X36462D01*
Y71994D01*
X36108D01*
Y72347D01*
X35755D01*
Y72701D01*
X35401D01*
Y73054D01*
X35755D01*
Y73408D01*
X36108D01*
Y74115D01*
X36462D01*
Y74468D01*
X36815D01*
Y74822D01*
X37169D01*
Y75529D01*
X37522D01*
Y75882D01*
X37876D01*
Y76236D01*
X38229D01*
Y76589D01*
X38583D01*
Y77296D01*
X38936D01*
Y77650D01*
X39290D01*
Y78003D01*
X39643D01*
Y78357D01*
X39997D01*
Y78710D01*
X40350D01*
Y79417D01*
X40704D01*
Y79771D01*
X41057D01*
Y80124D01*
X41411D01*
Y80478D01*
X41764D01*
Y80831D01*
X42118D01*
Y81185D01*
X42471D01*
Y81538D01*
X42825D01*
Y81892D01*
X43178D01*
Y82245D01*
X43532D01*
Y82599D01*
X43885D01*
Y82952D01*
X44239D01*
Y83306D01*
X44592D01*
Y83659D01*
X44946D01*
Y84013D01*
X45299D01*
Y84366D01*
X45653D01*
Y84720D01*
X46006D01*
Y85073D01*
X46360D01*
Y85427D01*
X46713D01*
Y85780D01*
X47067D01*
Y86134D01*
X47774D01*
Y86487D01*
X48127D01*
Y86841D01*
X48481D01*
Y87194D01*
X48834D01*
Y87548D01*
X49188D01*
Y87901D01*
X49895D01*
Y88255D01*
X50248D01*
Y88608D01*
X50602D01*
Y88962D01*
X51309D01*
Y89315D01*
X51662D01*
Y89669D01*
X52016D01*
Y90022D01*
X52723D01*
Y90376D01*
X53076D01*
Y90729D01*
X53783D01*
Y91083D01*
X54137D01*
Y91436D01*
X54844D01*
Y91790D01*
X55198D01*
Y92143D01*
X55904D01*
Y92497D01*
X56611D01*
Y92850D01*
X57319D01*
Y93204D01*
X57672D01*
Y93557D01*
X58379D01*
Y93911D01*
X59086D01*
Y94264D01*
X59793D01*
Y94618D01*
X60500D01*
Y94971D01*
X61561D01*
Y95325D01*
X61914D01*
Y94971D01*
D02*
G37*
G36*
X73933Y106637D02*
X76054D01*
Y106283D01*
X78175D01*
Y105930D01*
X79589D01*
Y105576D01*
X81357D01*
Y105223D01*
X82771D01*
Y104869D01*
X84185D01*
Y104516D01*
X85245D01*
Y104162D01*
X86659D01*
Y103809D01*
X87720D01*
Y103455D01*
X88780D01*
Y103102D01*
X89841D01*
Y102748D01*
X90901D01*
Y102395D01*
X91962D01*
Y102041D01*
X92669D01*
Y101688D01*
X93729D01*
Y101334D01*
X94790D01*
Y100981D01*
X95497D01*
Y100627D01*
X96204D01*
Y100274D01*
X97264D01*
Y99920D01*
X97971D01*
Y99567D01*
X98678D01*
Y99213D01*
X99385D01*
Y98860D01*
X100446D01*
Y98506D01*
X101153D01*
Y98153D01*
X101860D01*
Y97799D01*
X102567D01*
Y97446D01*
X103274D01*
Y97092D01*
X102920D01*
Y96739D01*
X102567D01*
Y96385D01*
X101860D01*
Y96032D01*
X101506D01*
Y95678D01*
X101153D01*
Y95325D01*
X100446D01*
Y94971D01*
X100092D01*
Y94618D01*
X99739D01*
Y94264D01*
X99032D01*
Y93911D01*
X98678D01*
Y93557D01*
X98325D01*
Y93204D01*
X97618D01*
Y92850D01*
X97264D01*
Y92497D01*
X96911D01*
Y92143D01*
X96557D01*
Y91790D01*
X95850D01*
Y91436D01*
X95497D01*
Y91083D01*
X95143D01*
Y90729D01*
X94436D01*
Y90376D01*
X94083D01*
Y90022D01*
X93729D01*
Y89669D01*
X93022D01*
Y89315D01*
X92669D01*
Y88962D01*
X92315D01*
Y88608D01*
X91608D01*
Y88255D01*
X91255D01*
Y87901D01*
X90901D01*
Y87548D01*
X90548D01*
Y87194D01*
X91255D01*
Y87548D01*
X91962D01*
Y87901D01*
X92669D01*
Y88255D01*
X93376D01*
Y88608D01*
X94436D01*
Y88962D01*
X95143D01*
Y89315D01*
X95850D01*
Y89669D01*
X96557D01*
Y90022D01*
X97264D01*
Y90376D01*
X98325D01*
Y90729D01*
X99032D01*
Y91083D01*
X99739D01*
Y91436D01*
X100446D01*
Y91790D01*
X101506D01*
Y92143D01*
X102213D01*
Y92497D01*
X102920D01*
Y92850D01*
X103627D01*
Y93204D01*
X104688D01*
Y93557D01*
X105395D01*
Y93911D01*
X106102D01*
Y90376D01*
X106455D01*
Y79064D01*
X106102D01*
Y72701D01*
X105748D01*
Y72347D01*
X105041D01*
Y71994D01*
X104688D01*
Y71640D01*
X104334D01*
Y71287D01*
X103981D01*
Y70933D01*
X103274D01*
Y70580D01*
X102920D01*
Y70226D01*
X102567D01*
Y69873D01*
X102213D01*
Y69519D01*
X101506D01*
Y69166D01*
X101153D01*
Y68812D01*
X100799D01*
Y68459D01*
X100092D01*
Y68105D01*
X99739D01*
Y67752D01*
X99385D01*
Y67398D01*
X99032D01*
Y67045D01*
X98325D01*
Y66691D01*
X97971D01*
Y66338D01*
X98678D01*
Y66691D01*
X99739D01*
Y67045D01*
X100446D01*
Y67398D01*
X101153D01*
Y67752D01*
X101860D01*
Y68105D01*
X102567D01*
Y68459D01*
X103274D01*
Y68812D01*
X103981D01*
Y69166D01*
X104688D01*
Y69519D01*
X105395D01*
Y69873D01*
X105748D01*
Y67752D01*
X105395D01*
Y64570D01*
X105041D01*
Y62095D01*
X104688D01*
Y59974D01*
X104334D01*
Y58207D01*
X103981D01*
Y56793D01*
X103627D01*
Y55379D01*
X103274D01*
Y55026D01*
X102567D01*
Y54672D01*
X102213D01*
Y54318D01*
X101860D01*
Y53965D01*
X101506D01*
Y53611D01*
X101153D01*
Y53258D01*
X100799D01*
Y52905D01*
X100092D01*
Y52551D01*
X99739D01*
Y52197D01*
X99385D01*
Y51844D01*
X99032D01*
Y51137D01*
X99385D01*
Y51490D01*
X100092D01*
Y51844D01*
X100799D01*
Y52197D01*
X101860D01*
Y52551D01*
X102567D01*
Y50783D01*
X102213D01*
Y49723D01*
X101860D01*
Y48662D01*
X101506D01*
Y47955D01*
X101153D01*
Y46895D01*
X100799D01*
Y46188D01*
X100446D01*
Y45481D01*
X100092D01*
Y44774D01*
X99739D01*
Y44067D01*
X99385D01*
Y43360D01*
X99032D01*
Y42653D01*
X98678D01*
Y42299D01*
X98325D01*
Y41592D01*
X97971D01*
Y40885D01*
X97618D01*
Y40532D01*
X97264D01*
Y39825D01*
X96911D01*
Y39118D01*
X96557D01*
Y38764D01*
X96204D01*
Y38057D01*
X95850D01*
Y37704D01*
X95497D01*
Y36997D01*
X95143D01*
Y36643D01*
X94790D01*
Y35936D01*
X94436D01*
Y35583D01*
X94083D01*
Y34876D01*
X93729D01*
Y34522D01*
X93376D01*
Y33815D01*
X93022D01*
Y33462D01*
X92669D01*
Y32755D01*
X92315D01*
Y32401D01*
X91962D01*
Y31694D01*
X91608D01*
Y31341D01*
X91255D01*
Y30987D01*
X90901D01*
Y30280D01*
X90548D01*
Y29927D01*
X90194D01*
Y29220D01*
X89841D01*
Y28866D01*
X89487D01*
Y29927D01*
X89841D01*
Y32755D01*
X90194D01*
Y35936D01*
X90548D01*
Y36997D01*
X90901D01*
Y37350D01*
X91255D01*
Y37704D01*
X91962D01*
Y38057D01*
X92315D01*
Y38411D01*
X93022D01*
Y38764D01*
X93729D01*
Y39118D01*
X94083D01*
Y39471D01*
X94790D01*
Y58561D01*
X94436D01*
Y66338D01*
X94083D01*
Y71640D01*
X93729D01*
Y72347D01*
X93376D01*
Y72701D01*
X93022D01*
Y73408D01*
X92669D01*
Y74115D01*
X92315D01*
Y74468D01*
X91962D01*
Y74822D01*
X91608D01*
Y75529D01*
X91255D01*
Y75882D01*
X90901D01*
Y76589D01*
X90548D01*
Y76943D01*
X90194D01*
Y77296D01*
X89841D01*
Y78003D01*
X89487D01*
Y78357D01*
X89134D01*
Y78710D01*
X88780D01*
Y79417D01*
X88427D01*
Y79771D01*
X88073D01*
Y80124D01*
X87720D01*
Y80478D01*
X87366D01*
Y80831D01*
X87013D01*
Y81538D01*
X86659D01*
Y81892D01*
X86306D01*
Y82245D01*
X85952D01*
Y82599D01*
X85599D01*
Y82952D01*
X85245D01*
Y83306D01*
X84892D01*
Y83659D01*
X84538D01*
Y84013D01*
X84185D01*
Y84366D01*
X83831D01*
Y84720D01*
X83478D01*
Y85073D01*
X83124D01*
Y85427D01*
X82771D01*
Y85780D01*
X82417D01*
Y86134D01*
X82064D01*
Y86487D01*
X81710D01*
Y86841D01*
X81357D01*
Y87194D01*
X81003D01*
Y87548D01*
X80650D01*
Y87901D01*
X80296D01*
Y88255D01*
X79943D01*
Y88608D01*
X79589D01*
Y88962D01*
X79236D01*
Y89315D01*
X78529D01*
Y89669D01*
X78175D01*
Y90022D01*
X78882D01*
Y90376D01*
X79236D01*
Y90729D01*
X79589D01*
Y91083D01*
X79943D01*
Y91790D01*
X79589D01*
Y93204D01*
X79236D01*
Y94264D01*
X78882D01*
Y95678D01*
X78529D01*
Y96739D01*
X78175D01*
Y97799D01*
X77822D01*
Y98506D01*
X77468D01*
Y99567D01*
X77115D01*
Y100274D01*
X76761D01*
Y100981D01*
X76408D01*
Y101688D01*
X76054D01*
Y102395D01*
X75701D01*
Y103102D01*
X75347D01*
Y103809D01*
X74994D01*
Y104162D01*
X74640D01*
Y104869D01*
X74287D01*
Y105223D01*
X73933D01*
Y105930D01*
X73580D01*
Y106283D01*
X73226D01*
Y106990D01*
X73933D01*
Y106637D01*
D02*
G37*
%LPC*%
G36*
X156220Y500560D02*
X156140D01*
Y500520D01*
X156100D01*
Y500560D01*
X155380D01*
Y500520D01*
X155220D01*
Y500480D01*
X155100D01*
Y500440D01*
X154980D01*
Y500400D01*
X154860D01*
Y500360D01*
X154740D01*
Y500320D01*
X154620D01*
Y500280D01*
X154500D01*
Y500240D01*
X154380D01*
Y500200D01*
X154260D01*
Y500160D01*
X154180D01*
Y500120D01*
X154060D01*
Y500080D01*
X153940D01*
Y500040D01*
X153860D01*
Y500000D01*
X153740D01*
Y499960D01*
X153620D01*
Y499920D01*
X153540D01*
Y499880D01*
X153420D01*
Y499840D01*
X153340D01*
Y499800D01*
X153260D01*
Y499760D01*
X153140D01*
Y499720D01*
X153060D01*
Y499680D01*
X152940D01*
Y499640D01*
X152860D01*
Y499600D01*
X152780D01*
Y499560D01*
X152700D01*
Y499520D01*
X152620D01*
Y499480D01*
X152540D01*
Y499440D01*
X152460D01*
Y499400D01*
X152340D01*
Y499360D01*
X152260D01*
Y499320D01*
X152180D01*
Y499280D01*
X152100D01*
Y499240D01*
X152020D01*
Y499200D01*
X151940D01*
Y499160D01*
X151860D01*
Y499120D01*
X151780D01*
Y499080D01*
X151700D01*
Y499040D01*
X151660D01*
Y499000D01*
X151580D01*
Y498960D01*
X151500D01*
Y498920D01*
X151420D01*
Y498880D01*
X151340D01*
Y498840D01*
X151260D01*
Y498800D01*
X151180D01*
Y498760D01*
X151140D01*
Y498720D01*
X151060D01*
Y498680D01*
X150980D01*
Y498640D01*
X150940D01*
Y498600D01*
X150860D01*
Y498560D01*
X150780D01*
Y498520D01*
X150700D01*
Y498480D01*
X150660D01*
Y498440D01*
X150580D01*
Y498400D01*
X150540D01*
Y498360D01*
X150460D01*
Y498320D01*
X150380D01*
Y498280D01*
X150340D01*
Y498240D01*
X150260D01*
Y498200D01*
X150220D01*
Y498160D01*
X150140D01*
Y498120D01*
X150060D01*
Y498080D01*
X150020D01*
Y498040D01*
X149940D01*
Y498000D01*
X149900D01*
Y497960D01*
X149820D01*
Y497920D01*
X149780D01*
Y497880D01*
X149700D01*
Y497840D01*
X149660D01*
Y497800D01*
X149580D01*
Y497760D01*
X149540D01*
Y497720D01*
X149500D01*
Y497680D01*
X149420D01*
Y497640D01*
X149380D01*
Y497080D01*
X149420D01*
Y496960D01*
X149380D01*
Y496880D01*
X149420D01*
Y496280D01*
X149460D01*
Y495440D01*
X149500D01*
Y494640D01*
X149540D01*
Y493760D01*
X149580D01*
Y493360D01*
X149620D01*
Y493320D01*
X149860D01*
Y493280D01*
X150060D01*
Y493240D01*
X150260D01*
Y493200D01*
X150460D01*
Y493160D01*
X150700D01*
Y493120D01*
X150860D01*
Y493080D01*
X151060D01*
Y493040D01*
X151260D01*
Y493000D01*
X151420D01*
Y492960D01*
X151620D01*
Y492920D01*
X151780D01*
Y492880D01*
X151980D01*
Y492840D01*
X152140D01*
Y492800D01*
X152300D01*
Y492760D01*
X152460D01*
Y492720D01*
X152620D01*
Y492680D01*
X152780D01*
Y492640D01*
X152940D01*
Y492600D01*
X153060D01*
Y492560D01*
X153260D01*
Y492520D01*
X153380D01*
Y492480D01*
X153540D01*
Y492440D01*
X153660D01*
Y492400D01*
X153820D01*
Y492360D01*
X153940D01*
Y492320D01*
X154060D01*
Y492280D01*
X154220D01*
Y492240D01*
X154340D01*
Y492200D01*
X154460D01*
Y492160D01*
X154620D01*
Y492120D01*
X154740D01*
Y492080D01*
X154860D01*
Y492040D01*
X154980D01*
Y492000D01*
X155100D01*
Y491960D01*
X155220D01*
Y491920D01*
X155340D01*
Y491880D01*
X155460D01*
Y491840D01*
X155540D01*
Y491800D01*
X155660D01*
Y491760D01*
X155780D01*
Y491720D01*
X155900D01*
Y491680D01*
X155980D01*
Y491640D01*
X156100D01*
Y491600D01*
X156220D01*
Y491560D01*
X156340D01*
Y491520D01*
X156420D01*
Y491480D01*
X156540D01*
Y491440D01*
X156620D01*
Y491400D01*
X156740D01*
Y491360D01*
X156820D01*
Y491320D01*
X156940D01*
Y491280D01*
X157020D01*
Y491240D01*
X157100D01*
Y491200D01*
X157220D01*
Y491160D01*
X157300D01*
Y491120D01*
X157380D01*
Y491080D01*
X157500D01*
Y491040D01*
X157580D01*
Y491000D01*
X157660D01*
Y490960D01*
X157740D01*
Y490920D01*
X157820D01*
Y490880D01*
X157900D01*
Y490840D01*
X158020D01*
Y490800D01*
X158060D01*
Y490760D01*
X158140D01*
Y490720D01*
X158260D01*
Y490680D01*
X158460D01*
Y490720D01*
X158580D01*
Y490760D01*
X158700D01*
Y490800D01*
X158860D01*
Y490840D01*
X158980D01*
Y490880D01*
X159060D01*
Y490920D01*
X159180D01*
Y490960D01*
X159340D01*
Y491000D01*
X159460D01*
Y491040D01*
X159580D01*
Y491080D01*
X159700D01*
Y491120D01*
X159820D01*
Y491160D01*
X159940D01*
Y491200D01*
X160060D01*
Y491240D01*
X160180D01*
Y491280D01*
X160300D01*
Y491320D01*
X160420D01*
Y491360D01*
X160540D01*
Y491400D01*
X160660D01*
Y491440D01*
X160780D01*
Y491480D01*
X160900D01*
Y491520D01*
X161060D01*
Y491560D01*
X161180D01*
Y491600D01*
X161260D01*
Y491640D01*
X161420D01*
Y491680D01*
X161540D01*
Y491720D01*
X161660D01*
Y491760D01*
X161780D01*
Y491800D01*
X161900D01*
Y491840D01*
X162020D01*
Y491880D01*
X162140D01*
Y491920D01*
X162260D01*
Y491960D01*
X162380D01*
Y492000D01*
X162500D01*
Y492040D01*
X162620D01*
Y492080D01*
X162740D01*
Y492120D01*
X162860D01*
Y492160D01*
X162980D01*
Y492200D01*
X163100D01*
Y492240D01*
X163220D01*
Y492280D01*
X163340D01*
Y492320D01*
X163500D01*
Y492360D01*
X163620D01*
Y492400D01*
X163740D01*
Y492440D01*
X163860D01*
Y492480D01*
X163980D01*
Y492520D01*
X164100D01*
Y492560D01*
X164220D01*
Y492600D01*
X164340D01*
Y492640D01*
X164460D01*
Y492680D01*
X164580D01*
Y492720D01*
X164700D01*
Y492760D01*
X164820D01*
Y492880D01*
X164780D01*
Y493040D01*
X164740D01*
Y493160D01*
X164700D01*
Y493320D01*
X164660D01*
Y493440D01*
X164620D01*
Y493600D01*
X164580D01*
Y493760D01*
X164540D01*
Y493920D01*
X164500D01*
Y494040D01*
X164460D01*
Y494200D01*
X164420D01*
Y494360D01*
X164380D01*
Y494480D01*
X164340D01*
Y494640D01*
X164300D01*
Y494800D01*
X164260D01*
Y494920D01*
X164220D01*
Y495080D01*
X164180D01*
Y495240D01*
X164140D01*
Y495360D01*
X164100D01*
Y495520D01*
X164060D01*
Y495680D01*
X164020D01*
Y495800D01*
X163980D01*
Y495960D01*
X163940D01*
Y496120D01*
X163900D01*
Y496240D01*
X163860D01*
Y496400D01*
X163820D01*
Y496560D01*
X163780D01*
Y496680D01*
X163740D01*
Y496840D01*
X163700D01*
Y496960D01*
X163660D01*
Y497120D01*
X163620D01*
Y497280D01*
X163580D01*
Y497440D01*
X163540D01*
Y497560D01*
X163500D01*
Y497720D01*
X163460D01*
Y497880D01*
X163420D01*
Y498000D01*
X163380D01*
Y498160D01*
X163340D01*
Y498280D01*
X163660D01*
Y498240D01*
X164740D01*
Y498280D01*
X164660D01*
Y498320D01*
X164580D01*
Y498360D01*
X164500D01*
Y498400D01*
X164420D01*
Y498440D01*
X164340D01*
Y498480D01*
X164260D01*
Y498520D01*
X164180D01*
Y498560D01*
X164060D01*
Y498600D01*
X163980D01*
Y498640D01*
X163900D01*
Y498680D01*
X163820D01*
Y498720D01*
X163740D01*
Y498760D01*
X163660D01*
Y498800D01*
X163540D01*
Y498840D01*
X163460D01*
Y498880D01*
X163380D01*
Y498920D01*
X163260D01*
Y498960D01*
X163180D01*
Y499000D01*
X163100D01*
Y499040D01*
X162980D01*
Y499080D01*
X162860D01*
Y499120D01*
X162780D01*
Y499160D01*
X162660D01*
Y499200D01*
X162580D01*
Y499240D01*
X162460D01*
Y499280D01*
X162340D01*
Y499320D01*
X162220D01*
Y499360D01*
X162140D01*
Y499400D01*
X162020D01*
Y499440D01*
X161900D01*
Y499480D01*
X161780D01*
Y499520D01*
X161660D01*
Y499560D01*
X161540D01*
Y499600D01*
X161420D01*
Y499640D01*
X161300D01*
Y499680D01*
X161140D01*
Y499720D01*
X161020D01*
Y499760D01*
X160860D01*
Y499800D01*
X160740D01*
Y499840D01*
X160580D01*
Y499880D01*
X160420D01*
Y499920D01*
X160300D01*
Y499960D01*
X160100D01*
Y500000D01*
X159940D01*
Y500040D01*
X159780D01*
Y500080D01*
X159580D01*
Y500120D01*
X159380D01*
Y500160D01*
X159180D01*
Y500200D01*
X158980D01*
Y500240D01*
X158740D01*
Y500280D01*
X158540D01*
Y500320D01*
X158260D01*
Y500360D01*
X157980D01*
Y500400D01*
X157620D01*
Y500440D01*
X157260D01*
Y500480D01*
X156860D01*
Y500520D01*
X156820D01*
Y500480D01*
X156780D01*
Y500520D01*
X156220D01*
Y500560D01*
D02*
G37*
G36*
X148620Y497360D02*
X148180D01*
Y497320D01*
X147580D01*
Y497280D01*
X147100D01*
Y497240D01*
X146740D01*
Y497200D01*
X146380D01*
Y497160D01*
X146100D01*
Y497120D01*
X145820D01*
Y497080D01*
X145580D01*
Y497040D01*
X145380D01*
Y497000D01*
X145140D01*
Y496960D01*
X144940D01*
Y496920D01*
X144740D01*
Y496880D01*
X144540D01*
Y496840D01*
X144340D01*
Y496800D01*
X144180D01*
Y496760D01*
X143980D01*
Y496720D01*
X143820D01*
Y496680D01*
X143660D01*
Y496640D01*
X143500D01*
Y496600D01*
X143340D01*
Y496560D01*
X143180D01*
Y496520D01*
X143020D01*
Y496480D01*
X142900D01*
Y496440D01*
X142740D01*
Y496400D01*
X142660D01*
Y496360D01*
X142620D01*
Y496320D01*
X142580D01*
Y496280D01*
X142500D01*
Y496240D01*
X142460D01*
Y496200D01*
X142420D01*
Y496160D01*
X142340D01*
Y496120D01*
X142300D01*
Y496080D01*
X142260D01*
Y496040D01*
X142220D01*
Y496000D01*
X142140D01*
Y495960D01*
X142100D01*
Y495920D01*
X142060D01*
Y495880D01*
X142020D01*
Y495840D01*
X141940D01*
Y495800D01*
X141900D01*
Y495760D01*
X141860D01*
Y495720D01*
X141820D01*
Y495680D01*
X141740D01*
Y495640D01*
X141700D01*
Y495600D01*
X141660D01*
Y495560D01*
X141620D01*
Y495520D01*
X141580D01*
Y495480D01*
X141540D01*
Y495440D01*
X141500D01*
Y495400D01*
X141420D01*
Y495360D01*
X141380D01*
Y495320D01*
X141340D01*
Y495280D01*
X141300D01*
Y495240D01*
X141260D01*
Y495200D01*
X141220D01*
Y495160D01*
X141180D01*
Y495120D01*
X141140D01*
Y495080D01*
X141060D01*
Y495040D01*
X141020D01*
Y495000D01*
X140980D01*
Y494960D01*
X140940D01*
Y494920D01*
X140900D01*
Y494880D01*
X140860D01*
Y494840D01*
X140820D01*
Y494800D01*
X140780D01*
Y494760D01*
X140740D01*
Y494720D01*
X140700D01*
Y494680D01*
X140660D01*
Y494640D01*
X140620D01*
Y494600D01*
X140580D01*
Y494560D01*
X140540D01*
Y494520D01*
X140500D01*
Y494480D01*
X140460D01*
Y494440D01*
X140420D01*
Y494400D01*
X140380D01*
Y494360D01*
X140340D01*
Y494320D01*
X140300D01*
Y494280D01*
X140260D01*
Y494240D01*
X140220D01*
Y494200D01*
X140180D01*
Y494160D01*
X140140D01*
Y494120D01*
X140100D01*
Y494080D01*
X140060D01*
Y494040D01*
X140020D01*
Y494000D01*
X139980D01*
Y493960D01*
X139940D01*
Y493920D01*
X139900D01*
Y493880D01*
X139860D01*
Y493840D01*
X139820D01*
Y493800D01*
X139780D01*
Y493720D01*
X139740D01*
Y493680D01*
X139700D01*
Y493640D01*
X139660D01*
Y493600D01*
X139620D01*
Y493560D01*
X139580D01*
Y493520D01*
X139540D01*
Y493480D01*
X139500D01*
Y493440D01*
X139460D01*
Y493400D01*
X139420D01*
Y493320D01*
X139380D01*
Y493280D01*
X139340D01*
Y493240D01*
X139300D01*
Y493200D01*
X139260D01*
Y493160D01*
X139220D01*
Y493120D01*
X139180D01*
Y493040D01*
X139140D01*
Y493000D01*
X139100D01*
Y492960D01*
X139060D01*
Y492920D01*
X139020D01*
Y492840D01*
X138980D01*
Y492800D01*
X138940D01*
Y492760D01*
X138900D01*
Y492720D01*
X138860D01*
Y492640D01*
X138820D01*
Y492600D01*
X138780D01*
Y492560D01*
X138740D01*
Y492520D01*
X138700D01*
Y492440D01*
X138660D01*
Y492400D01*
X138620D01*
Y492360D01*
X138580D01*
Y492320D01*
X138540D01*
Y492240D01*
X138500D01*
Y492200D01*
X138460D01*
Y492160D01*
X138420D01*
Y492080D01*
X138380D01*
Y492040D01*
X138340D01*
Y491960D01*
X138300D01*
Y491920D01*
X138260D01*
Y491880D01*
X138220D01*
Y491800D01*
X138180D01*
Y491760D01*
X138140D01*
Y491720D01*
X138100D01*
Y491640D01*
X138060D01*
Y491600D01*
X138020D01*
Y491520D01*
X137980D01*
Y491480D01*
X137940D01*
Y491400D01*
X137900D01*
Y491360D01*
X137860D01*
Y491280D01*
X137820D01*
Y491240D01*
X137780D01*
Y491160D01*
X137740D01*
Y491120D01*
X137700D01*
Y491040D01*
X137660D01*
Y491000D01*
X137620D01*
Y490920D01*
X137580D01*
Y490880D01*
X137540D01*
Y490800D01*
X137500D01*
Y490720D01*
X137460D01*
Y490680D01*
X137420D01*
Y490600D01*
X137380D01*
Y490560D01*
X137340D01*
Y490480D01*
X137300D01*
Y490400D01*
X137260D01*
Y490360D01*
X137220D01*
Y490280D01*
X137180D01*
Y490200D01*
X137140D01*
Y490120D01*
X137100D01*
Y490080D01*
X137060D01*
Y490000D01*
X137020D01*
Y489920D01*
X136980D01*
Y489880D01*
X136940D01*
Y489720D01*
X136980D01*
Y489520D01*
X137020D01*
Y489320D01*
X137060D01*
Y489120D01*
X137100D01*
Y488960D01*
X137140D01*
Y488760D01*
X137180D01*
Y488560D01*
X137220D01*
Y488360D01*
X137260D01*
Y488160D01*
X137300D01*
Y488000D01*
X137340D01*
Y487800D01*
X137380D01*
Y487600D01*
X137420D01*
Y487400D01*
X137460D01*
Y487200D01*
X137500D01*
Y487000D01*
X137540D01*
Y486800D01*
X137580D01*
Y486600D01*
X137620D01*
Y486400D01*
X137660D01*
Y486240D01*
X137700D01*
Y486040D01*
X137740D01*
Y485840D01*
X137780D01*
Y485640D01*
X137820D01*
Y485440D01*
X137860D01*
Y485280D01*
X137900D01*
Y485080D01*
X137940D01*
Y484880D01*
X137980D01*
Y484680D01*
X138020D01*
Y484480D01*
X138140D01*
Y484520D01*
X138340D01*
Y484560D01*
X138540D01*
Y484600D01*
X138740D01*
Y484640D01*
X138940D01*
Y484680D01*
X139140D01*
Y484720D01*
X139380D01*
Y484760D01*
X139580D01*
Y484800D01*
X139780D01*
Y484840D01*
X139980D01*
Y484880D01*
X140180D01*
Y484920D01*
X140380D01*
Y484960D01*
X140580D01*
Y485000D01*
X140780D01*
Y485040D01*
X141020D01*
Y485080D01*
X141220D01*
Y485120D01*
X141420D01*
Y485160D01*
X141620D01*
Y485200D01*
X141820D01*
Y485240D01*
X142060D01*
Y485280D01*
X142220D01*
Y485320D01*
X142460D01*
Y485360D01*
X142660D01*
Y485400D01*
X142860D01*
Y485440D01*
X143060D01*
Y485480D01*
X143260D01*
Y485520D01*
X143460D01*
Y485560D01*
X143500D01*
Y485640D01*
X143540D01*
Y485720D01*
X143580D01*
Y485760D01*
X143620D01*
Y485840D01*
X143660D01*
Y485920D01*
X143700D01*
Y485960D01*
X143740D01*
Y486040D01*
X143780D01*
Y486120D01*
X143820D01*
Y486160D01*
X143860D01*
Y486240D01*
X143900D01*
Y486320D01*
X143940D01*
Y486400D01*
X143980D01*
Y486440D01*
X144020D01*
Y486520D01*
X144060D01*
Y486560D01*
X144100D01*
Y486640D01*
X144140D01*
Y486720D01*
X144180D01*
Y486760D01*
X144220D01*
Y486840D01*
X144260D01*
Y486920D01*
X144300D01*
Y486960D01*
X144340D01*
Y487040D01*
X144380D01*
Y487080D01*
X144420D01*
Y487160D01*
X144460D01*
Y487200D01*
X144500D01*
Y487280D01*
X144540D01*
Y487360D01*
X144580D01*
Y487400D01*
X144620D01*
Y487480D01*
X144660D01*
Y487520D01*
X144700D01*
Y487600D01*
X144740D01*
Y487640D01*
X144780D01*
Y487720D01*
X144820D01*
Y487760D01*
X144860D01*
Y487840D01*
X144900D01*
Y487880D01*
X144940D01*
Y487960D01*
X144980D01*
Y488000D01*
X145020D01*
Y488080D01*
X145060D01*
Y488120D01*
X145100D01*
Y488200D01*
X145140D01*
Y488240D01*
X145180D01*
Y488320D01*
X145220D01*
Y488360D01*
X145260D01*
Y488440D01*
X145300D01*
Y488480D01*
X145340D01*
Y488560D01*
X145380D01*
Y488600D01*
X145420D01*
Y488680D01*
X145460D01*
Y488720D01*
X145500D01*
Y488760D01*
X145540D01*
Y488840D01*
X145580D01*
Y488920D01*
X145620D01*
Y488960D01*
X145660D01*
Y489000D01*
X145700D01*
Y489080D01*
X145740D01*
Y489120D01*
X145780D01*
Y489200D01*
X145820D01*
Y489240D01*
X145860D01*
Y489280D01*
X145900D01*
Y489360D01*
X145940D01*
Y489400D01*
X145980D01*
Y489480D01*
X146020D01*
Y489520D01*
X146060D01*
Y489560D01*
X146100D01*
Y489640D01*
X146140D01*
Y489680D01*
X146180D01*
Y489720D01*
X146220D01*
Y489800D01*
X146260D01*
Y489840D01*
X146300D01*
Y489920D01*
X146340D01*
Y489960D01*
X146380D01*
Y490000D01*
X146420D01*
Y490040D01*
X146460D01*
Y490120D01*
X146500D01*
Y490160D01*
X146540D01*
Y490240D01*
X146580D01*
Y490280D01*
X146620D01*
Y490320D01*
X146660D01*
Y490360D01*
X146700D01*
Y490440D01*
X146740D01*
Y490480D01*
X146780D01*
Y490520D01*
X146820D01*
Y490600D01*
X146860D01*
Y490640D01*
X146900D01*
Y490680D01*
X146940D01*
Y490760D01*
X146980D01*
Y490800D01*
X147020D01*
Y490840D01*
X147060D01*
Y490880D01*
X147100D01*
Y490960D01*
X147140D01*
Y491000D01*
X147180D01*
Y491080D01*
X147220D01*
Y491120D01*
X147260D01*
Y491160D01*
X147300D01*
Y491200D01*
X147340D01*
Y491280D01*
X147380D01*
Y491320D01*
X147420D01*
Y491360D01*
X147460D01*
Y491400D01*
X147500D01*
Y491480D01*
X147540D01*
Y491520D01*
X147580D01*
Y491560D01*
X147620D01*
Y491600D01*
X147660D01*
Y491680D01*
X147700D01*
Y491720D01*
X147740D01*
Y491760D01*
X147780D01*
Y491800D01*
X147820D01*
Y491880D01*
X147860D01*
Y491920D01*
X147900D01*
Y491960D01*
X147940D01*
Y492000D01*
X147980D01*
Y492040D01*
X148020D01*
Y492120D01*
X148060D01*
Y492160D01*
X148100D01*
Y492200D01*
X148140D01*
Y492240D01*
X148180D01*
Y492320D01*
X148220D01*
Y492360D01*
X148260D01*
Y492400D01*
X148300D01*
Y492440D01*
X148340D01*
Y492480D01*
X148380D01*
Y492520D01*
X148420D01*
Y492600D01*
X148460D01*
Y492640D01*
X148500D01*
Y492680D01*
X148540D01*
Y492720D01*
X148580D01*
Y492760D01*
X148620D01*
Y492800D01*
X148660D01*
Y492880D01*
X148700D01*
Y492920D01*
X148740D01*
Y492960D01*
X148780D01*
Y493000D01*
X148820D01*
Y493040D01*
Y493560D01*
X148780D01*
Y494400D01*
X148740D01*
Y495160D01*
X148700D01*
Y496000D01*
X148660D01*
Y496840D01*
X148620D01*
Y497360D01*
D02*
G37*
G36*
X165300Y492120D02*
X165180D01*
Y492080D01*
X165060D01*
Y492040D01*
X164940D01*
Y492000D01*
X164820D01*
Y491960D01*
X164700D01*
Y491920D01*
X164580D01*
Y491880D01*
X164460D01*
Y491840D01*
X164340D01*
Y491800D01*
X164220D01*
Y491760D01*
X164100D01*
Y491720D01*
X163980D01*
Y491680D01*
X163860D01*
Y491640D01*
X163740D01*
Y491600D01*
X163620D01*
Y491560D01*
X163500D01*
Y491520D01*
X163380D01*
Y491480D01*
X163260D01*
Y491440D01*
X163140D01*
Y491400D01*
X162980D01*
Y491360D01*
X162860D01*
Y491320D01*
X162740D01*
Y491280D01*
X162660D01*
Y491240D01*
X162500D01*
Y491200D01*
X162380D01*
Y491160D01*
X162260D01*
Y491120D01*
X162140D01*
Y491080D01*
X162020D01*
Y491040D01*
X161900D01*
Y491000D01*
X161780D01*
Y490960D01*
X161660D01*
Y490920D01*
X161540D01*
Y490880D01*
X161420D01*
Y490840D01*
X161300D01*
Y490800D01*
X161180D01*
Y490760D01*
X161060D01*
Y490720D01*
X160940D01*
Y490680D01*
X160820D01*
Y490640D01*
X160700D01*
Y490600D01*
X160540D01*
Y490560D01*
X160420D01*
Y490520D01*
X160300D01*
Y490480D01*
X160180D01*
Y490440D01*
X160060D01*
Y490400D01*
X159940D01*
Y490360D01*
X159820D01*
Y490320D01*
X159700D01*
Y490280D01*
X159580D01*
Y490240D01*
X159460D01*
Y490200D01*
X159340D01*
Y490160D01*
X159220D01*
Y490120D01*
X159100D01*
Y490080D01*
X158980D01*
Y490040D01*
X158860D01*
Y490000D01*
X158820D01*
Y489680D01*
X158860D01*
Y489160D01*
X158900D01*
Y488480D01*
X158940D01*
Y487600D01*
X158980D01*
Y483920D01*
X158940D01*
Y482880D01*
X158900D01*
Y481920D01*
X158860D01*
Y481240D01*
X158940D01*
Y481200D01*
X158980D01*
Y481160D01*
X159020D01*
Y481120D01*
X159060D01*
Y481080D01*
X159100D01*
Y481040D01*
X159140D01*
Y481000D01*
X159220D01*
Y480960D01*
X159260D01*
Y480920D01*
X159300D01*
Y480880D01*
X159340D01*
Y480840D01*
X159380D01*
Y480800D01*
X159420D01*
Y480760D01*
X159500D01*
Y480720D01*
X159540D01*
Y480680D01*
X159580D01*
Y480640D01*
X159620D01*
Y480600D01*
X159660D01*
Y480560D01*
X159700D01*
Y480520D01*
X159740D01*
Y480480D01*
X159820D01*
Y480440D01*
X159860D01*
Y480400D01*
X159900D01*
Y480360D01*
X159940D01*
Y480320D01*
X159980D01*
Y480280D01*
X160060D01*
Y480240D01*
X160100D01*
Y480200D01*
X160140D01*
Y480160D01*
X160180D01*
Y480120D01*
X160220D01*
Y480080D01*
X160260D01*
Y480040D01*
X160340D01*
Y480000D01*
X160380D01*
Y479960D01*
X160420D01*
Y479920D01*
X160460D01*
Y479880D01*
X160500D01*
Y479840D01*
X160540D01*
Y479800D01*
X160620D01*
Y479760D01*
X160660D01*
Y479720D01*
X160700D01*
Y479680D01*
X160740D01*
Y479640D01*
X160780D01*
Y479600D01*
X160820D01*
Y479560D01*
X160860D01*
Y479520D01*
X160940D01*
Y479480D01*
X160980D01*
Y479440D01*
X161020D01*
Y479400D01*
X161060D01*
Y479360D01*
X161100D01*
Y479320D01*
X161140D01*
Y479280D01*
X161220D01*
Y479240D01*
X161260D01*
Y479200D01*
X161300D01*
Y479160D01*
X161340D01*
Y479120D01*
X161380D01*
Y479080D01*
X161420D01*
Y479040D01*
X161500D01*
Y479000D01*
X161540D01*
Y478960D01*
X161580D01*
Y478920D01*
X161620D01*
Y478880D01*
X161660D01*
Y478840D01*
X161700D01*
Y478800D01*
X161780D01*
Y478760D01*
X161820D01*
Y478720D01*
X161860D01*
Y478680D01*
X161900D01*
Y478640D01*
X161940D01*
Y478600D01*
X161980D01*
Y478560D01*
X162060D01*
Y478520D01*
X162100D01*
Y478480D01*
X162140D01*
Y478440D01*
X162180D01*
Y478400D01*
X162220D01*
Y478360D01*
X162260D01*
Y478320D01*
X162340D01*
Y478280D01*
X162380D01*
Y478240D01*
X162420D01*
Y478200D01*
X162460D01*
Y478160D01*
X162500D01*
Y478120D01*
X162540D01*
Y478080D01*
X162620D01*
Y478040D01*
X162660D01*
Y478000D01*
X162700D01*
Y477960D01*
X162740D01*
Y477920D01*
X162780D01*
Y477880D01*
X162820D01*
Y477840D01*
X162860D01*
Y477800D01*
X162940D01*
Y477760D01*
X162980D01*
Y477720D01*
X163020D01*
Y477680D01*
X163060D01*
Y477640D01*
X163100D01*
Y477600D01*
X163180D01*
Y477560D01*
X163220D01*
Y477520D01*
X163260D01*
Y477480D01*
X163300D01*
Y477440D01*
X163340D01*
Y477400D01*
X163380D01*
Y477360D01*
X163460D01*
Y477320D01*
X163500D01*
Y477280D01*
X163540D01*
Y477240D01*
X163580D01*
Y477200D01*
X163620D01*
Y477160D01*
X163660D01*
Y477120D01*
X163740D01*
Y477080D01*
X163780D01*
Y477040D01*
X163820D01*
Y477000D01*
X163860D01*
Y476960D01*
X163900D01*
Y476920D01*
X163940D01*
Y476880D01*
X163980D01*
Y476840D01*
X164060D01*
Y476800D01*
X164100D01*
Y476760D01*
X164140D01*
Y476720D01*
X164180D01*
Y476680D01*
X164220D01*
Y476640D01*
X164300D01*
Y476600D01*
X164340D01*
Y476560D01*
X164380D01*
Y476520D01*
X164420D01*
Y476480D01*
X164460D01*
Y476440D01*
X164500D01*
Y476400D01*
X164540D01*
Y476360D01*
X164620D01*
Y476320D01*
X164660D01*
Y476280D01*
X164700D01*
Y476240D01*
X164740D01*
Y476200D01*
X164780D01*
Y476160D01*
X164820D01*
Y476120D01*
X164900D01*
Y476080D01*
X164940D01*
Y476040D01*
X164980D01*
Y476000D01*
X165020D01*
Y475960D01*
X165060D01*
Y475920D01*
X165100D01*
Y475880D01*
X165140D01*
Y475840D01*
X165220D01*
Y475800D01*
X165380D01*
Y475840D01*
X165500D01*
Y475880D01*
X165620D01*
Y475920D01*
X165740D01*
Y475960D01*
X165860D01*
Y476000D01*
X165980D01*
Y476040D01*
X166100D01*
Y476080D01*
X166220D01*
Y476120D01*
X166300D01*
Y476160D01*
X166420D01*
Y476200D01*
X166540D01*
Y476240D01*
X166620D01*
Y476280D01*
X166740D01*
Y476320D01*
X166820D01*
Y476360D01*
X166940D01*
Y476400D01*
X167060D01*
Y476440D01*
X167140D01*
Y476480D01*
X167260D01*
Y476520D01*
X167340D01*
Y476560D01*
X167420D01*
Y476600D01*
X167540D01*
Y476640D01*
X167620D01*
Y476680D01*
X167700D01*
Y476720D01*
X167820D01*
Y476760D01*
X167900D01*
Y476800D01*
X168020D01*
Y476840D01*
X168100D01*
Y476880D01*
X168180D01*
Y476920D01*
X168300D01*
Y476960D01*
X168380D01*
Y477000D01*
X168460D01*
Y477040D01*
X168540D01*
Y477080D01*
X168620D01*
Y477120D01*
X168700D01*
Y477160D01*
X168780D01*
Y477200D01*
X168900D01*
Y477240D01*
X168940D01*
Y477280D01*
X169060D01*
Y477320D01*
X169140D01*
Y477360D01*
X169220D01*
Y477400D01*
X169300D01*
Y477440D01*
X169380D01*
Y477480D01*
X169460D01*
Y477520D01*
X169540D01*
Y477560D01*
X169620D01*
Y477600D01*
X169700D01*
Y477640D01*
X169780D01*
Y477680D01*
X169900D01*
Y477720D01*
X169940D01*
Y477760D01*
X170020D01*
Y477800D01*
X170100D01*
Y477840D01*
X170180D01*
Y477880D01*
X170260D01*
Y477920D01*
X170340D01*
Y477960D01*
X170380D01*
Y478000D01*
X170460D01*
Y478040D01*
X170580D01*
Y478080D01*
X170620D01*
Y478120D01*
X170700D01*
Y478160D01*
X170780D01*
Y478200D01*
X170860D01*
Y478240D01*
X170940D01*
Y478280D01*
X171020D01*
Y478320D01*
X171060D01*
Y478360D01*
X171140D01*
Y478400D01*
X171220D01*
Y478440D01*
X171300D01*
Y478480D01*
X171340D01*
Y478520D01*
X171420D01*
Y478560D01*
X171500D01*
Y478600D01*
X171580D01*
Y478640D01*
X171620D01*
Y478680D01*
X171700D01*
Y478720D01*
X171780D01*
Y478760D01*
X171820D01*
Y478800D01*
X171900D01*
Y478840D01*
X171940D01*
Y479600D01*
X171980D01*
Y480600D01*
X172020D01*
Y481560D01*
X172060D01*
Y482560D01*
X172100D01*
Y483520D01*
X172140D01*
Y484480D01*
X172180D01*
Y485440D01*
X172220D01*
Y486400D01*
X172260D01*
Y486600D01*
X172220D01*
Y486640D01*
X172180D01*
Y486680D01*
X172140D01*
Y486720D01*
X172100D01*
Y486760D01*
X172020D01*
Y486800D01*
X171980D01*
Y486840D01*
X171940D01*
Y486880D01*
X171900D01*
Y486920D01*
X171820D01*
Y486960D01*
X171780D01*
Y487000D01*
X171740D01*
Y487040D01*
X171700D01*
Y487080D01*
X171620D01*
Y487120D01*
X171580D01*
Y487160D01*
X171540D01*
Y487200D01*
X171460D01*
Y487240D01*
X171420D01*
Y487280D01*
X171380D01*
Y487320D01*
X171340D01*
Y487360D01*
X171300D01*
Y487400D01*
X171220D01*
Y487440D01*
X171180D01*
Y487480D01*
X171140D01*
Y487520D01*
X171060D01*
Y487560D01*
X171020D01*
Y487600D01*
X170980D01*
Y487640D01*
X170940D01*
Y487680D01*
X170860D01*
Y487720D01*
X170820D01*
Y487760D01*
X170780D01*
Y487800D01*
X170740D01*
Y487840D01*
X170660D01*
Y487880D01*
X170620D01*
Y487920D01*
X170580D01*
Y487960D01*
X170500D01*
Y488000D01*
X170460D01*
Y488040D01*
X170420D01*
Y488080D01*
X170380D01*
Y488120D01*
X170300D01*
Y488160D01*
X170260D01*
Y488200D01*
X170220D01*
Y488240D01*
X170180D01*
Y488280D01*
X170100D01*
Y488320D01*
X170060D01*
Y488360D01*
X170020D01*
Y488400D01*
X169980D01*
Y488440D01*
X169900D01*
Y488480D01*
X169860D01*
Y488520D01*
X169820D01*
Y488560D01*
X169780D01*
Y488600D01*
X169700D01*
Y488640D01*
X169660D01*
Y488680D01*
X169620D01*
Y488720D01*
X169540D01*
Y488760D01*
X169500D01*
Y488800D01*
X169460D01*
Y488840D01*
X169420D01*
Y488880D01*
X169340D01*
Y488920D01*
X169300D01*
Y488960D01*
X169260D01*
Y489000D01*
X169220D01*
Y489040D01*
X169140D01*
Y489080D01*
X169100D01*
Y489120D01*
X169060D01*
Y489160D01*
X168980D01*
Y489200D01*
X168940D01*
Y489240D01*
X168900D01*
Y489280D01*
X168860D01*
Y489320D01*
X168780D01*
Y489360D01*
X168740D01*
Y489400D01*
X168700D01*
Y489440D01*
X168660D01*
Y489480D01*
X168580D01*
Y489520D01*
X168540D01*
Y489560D01*
X168500D01*
Y489600D01*
X168460D01*
Y489640D01*
X168380D01*
Y489680D01*
X168340D01*
Y489720D01*
X168300D01*
Y489760D01*
X168220D01*
Y489800D01*
X168180D01*
Y489840D01*
X168140D01*
Y489880D01*
X168100D01*
Y489920D01*
X168020D01*
Y489960D01*
X167980D01*
Y490000D01*
X167940D01*
Y490040D01*
X167900D01*
Y490080D01*
X167820D01*
Y490120D01*
X167780D01*
Y490160D01*
X167740D01*
Y490200D01*
X167700D01*
Y490240D01*
X167620D01*
Y490280D01*
X167580D01*
Y490320D01*
X167540D01*
Y490360D01*
X167500D01*
Y490400D01*
X167420D01*
Y490440D01*
X167380D01*
Y490480D01*
X167340D01*
Y490520D01*
X167300D01*
Y490560D01*
X167220D01*
Y490600D01*
X167180D01*
Y490640D01*
X167140D01*
Y490680D01*
X167060D01*
Y490720D01*
X167020D01*
Y490760D01*
X166980D01*
Y490800D01*
X166940D01*
Y490840D01*
X166900D01*
Y490880D01*
X166820D01*
Y490920D01*
X166780D01*
Y490960D01*
X166740D01*
Y491000D01*
X166700D01*
Y491040D01*
X166620D01*
Y491080D01*
X166580D01*
Y491120D01*
X166540D01*
Y491160D01*
X166460D01*
Y491200D01*
X166420D01*
Y491240D01*
X166380D01*
Y491280D01*
X166340D01*
Y491320D01*
X166260D01*
Y491360D01*
X166220D01*
Y491400D01*
X166180D01*
Y491440D01*
X166140D01*
Y491480D01*
X166060D01*
Y491520D01*
X166020D01*
Y491560D01*
X165940D01*
Y491600D01*
X165900D01*
Y491640D01*
X165860D01*
Y491680D01*
X165820D01*
Y491720D01*
X165740D01*
Y491760D01*
X165700D01*
Y491800D01*
X165660D01*
Y491840D01*
X165620D01*
Y491880D01*
X165540D01*
Y491920D01*
X165500D01*
Y491960D01*
X165460D01*
Y492000D01*
X165420D01*
Y492040D01*
X165340D01*
Y492080D01*
X165300D01*
Y492120D01*
D02*
G37*
G36*
X174380Y488040D02*
X174340D01*
Y488000D01*
X174300D01*
Y487960D01*
X174260D01*
Y487920D01*
X174220D01*
Y487880D01*
X174180D01*
Y487840D01*
X174140D01*
Y487800D01*
X174100D01*
Y487760D01*
X174060D01*
Y487720D01*
X174020D01*
Y487680D01*
X173980D01*
Y487640D01*
X173940D01*
Y487600D01*
X173900D01*
Y487560D01*
X173860D01*
Y487480D01*
X173820D01*
Y487440D01*
X173740D01*
Y487360D01*
X173700D01*
Y487320D01*
X173660D01*
Y487280D01*
X173620D01*
Y487240D01*
X173580D01*
Y487200D01*
X173540D01*
Y487160D01*
X173500D01*
Y487120D01*
X173460D01*
Y487080D01*
X173420D01*
Y487040D01*
X173380D01*
Y487000D01*
X173340D01*
Y486960D01*
X173300D01*
Y486920D01*
X173260D01*
Y486840D01*
X173220D01*
Y486800D01*
X173180D01*
Y486760D01*
X173140D01*
Y486720D01*
X173100D01*
Y486680D01*
X173060D01*
Y486640D01*
X173020D01*
Y486040D01*
X172980D01*
Y485040D01*
X172940D01*
Y484040D01*
X172900D01*
Y483040D01*
X172860D01*
Y482080D01*
X172820D01*
Y481080D01*
X172780D01*
Y480120D01*
X172740D01*
Y479080D01*
X172700D01*
Y478680D01*
X172740D01*
Y478560D01*
X172780D01*
Y478480D01*
X172820D01*
Y478400D01*
X172860D01*
Y478280D01*
X172900D01*
Y478200D01*
X172940D01*
Y478080D01*
X172980D01*
Y478000D01*
X173020D01*
Y477880D01*
X173060D01*
Y477760D01*
X173100D01*
Y477680D01*
X173140D01*
Y477560D01*
X173180D01*
Y477440D01*
X173220D01*
Y477360D01*
X173260D01*
Y477200D01*
X173300D01*
Y477120D01*
X173340D01*
Y477000D01*
X173380D01*
Y476880D01*
X173420D01*
Y476760D01*
X173460D01*
Y476600D01*
X173500D01*
Y476480D01*
X173540D01*
Y476360D01*
X173580D01*
Y476200D01*
X173620D01*
Y476080D01*
X173660D01*
Y475920D01*
X173700D01*
Y475760D01*
X173740D01*
Y475600D01*
X173780D01*
Y475440D01*
X173820D01*
Y475240D01*
X173860D01*
Y475080D01*
X173900D01*
Y474880D01*
X173940D01*
Y474680D01*
X173980D01*
Y474480D01*
X174020D01*
Y474280D01*
X174060D01*
Y474040D01*
X174100D01*
Y473760D01*
X174140D01*
Y473680D01*
X174260D01*
Y473720D01*
X174300D01*
Y473680D01*
X174380D01*
Y473720D01*
X174540D01*
Y473680D01*
X175260D01*
Y473800D01*
X175300D01*
Y473960D01*
X175340D01*
Y474080D01*
X175380D01*
Y474240D01*
X175420D01*
Y474400D01*
X175460D01*
Y474560D01*
X175500D01*
Y474680D01*
X175540D01*
Y474880D01*
X175580D01*
Y475040D01*
X175620D01*
Y475200D01*
X175660D01*
Y475400D01*
X175700D01*
Y475560D01*
X175740D01*
Y475800D01*
X175780D01*
Y476000D01*
X175820D01*
Y476240D01*
X175860D01*
Y476480D01*
X175900D01*
Y476760D01*
X175940D01*
Y477080D01*
X175980D01*
Y477440D01*
X176020D01*
Y477840D01*
X176060D01*
Y478400D01*
X176100D01*
Y479320D01*
X176140D01*
Y479360D01*
X176100D01*
Y480280D01*
Y480320D01*
Y480920D01*
X176060D01*
Y481480D01*
X176020D01*
Y481880D01*
X175980D01*
Y482200D01*
X175940D01*
Y482520D01*
X175900D01*
Y482800D01*
X175860D01*
Y483040D01*
X175820D01*
Y483280D01*
X175780D01*
Y483520D01*
X175740D01*
Y483720D01*
X175700D01*
Y483920D01*
X175660D01*
Y484080D01*
X175620D01*
Y484280D01*
X175580D01*
Y484440D01*
X175540D01*
Y484600D01*
X175500D01*
Y484760D01*
X175460D01*
Y484920D01*
X175420D01*
Y485080D01*
X175380D01*
Y485240D01*
X175340D01*
Y485360D01*
X175300D01*
Y485520D01*
X175260D01*
Y485640D01*
X175220D01*
Y485760D01*
X175180D01*
Y485880D01*
X175140D01*
Y486040D01*
X175100D01*
Y486160D01*
X175060D01*
Y486280D01*
X175020D01*
Y486400D01*
X174980D01*
Y486520D01*
X174940D01*
Y486640D01*
X174900D01*
Y486720D01*
X174860D01*
Y486840D01*
X174820D01*
Y486960D01*
X174780D01*
Y487040D01*
X174740D01*
Y487160D01*
X174700D01*
Y487280D01*
X174660D01*
Y487360D01*
X174620D01*
Y487480D01*
X174580D01*
Y487560D01*
X174540D01*
Y487680D01*
X174500D01*
Y487760D01*
X174460D01*
Y487840D01*
X174420D01*
Y487960D01*
X174380D01*
Y488040D01*
D02*
G37*
G36*
X143540Y484760D02*
X143420D01*
Y484720D01*
X143220D01*
Y484680D01*
X143020D01*
Y484640D01*
X142820D01*
Y484600D01*
X142620D01*
Y484560D01*
X142380D01*
Y484520D01*
X142180D01*
Y484480D01*
X141980D01*
Y484440D01*
X141780D01*
Y484400D01*
X141580D01*
Y484360D01*
X141380D01*
Y484320D01*
X141180D01*
Y484280D01*
X140940D01*
Y484240D01*
X140740D01*
Y484200D01*
X140540D01*
Y484160D01*
X140340D01*
Y484120D01*
X140140D01*
Y484080D01*
X139900D01*
Y484040D01*
X139700D01*
Y484000D01*
X139500D01*
Y483960D01*
X139300D01*
Y483920D01*
X139100D01*
Y483880D01*
X138860D01*
Y483840D01*
X138660D01*
Y483800D01*
X138460D01*
Y483760D01*
X138260D01*
Y483720D01*
X138020D01*
Y483680D01*
X137980D01*
Y483600D01*
X137940D01*
Y483480D01*
X137900D01*
Y483360D01*
X137860D01*
Y483240D01*
X137820D01*
Y483120D01*
X137780D01*
Y483000D01*
X137740D01*
Y482880D01*
X137700D01*
Y482760D01*
X137660D01*
Y482640D01*
X137620D01*
Y482480D01*
X137580D01*
Y482360D01*
X137540D01*
Y482240D01*
X137500D01*
Y482080D01*
X137460D01*
Y481960D01*
X137420D01*
Y481800D01*
X137380D01*
Y481680D01*
X137340D01*
Y481520D01*
X137300D01*
Y481360D01*
X137260D01*
Y481240D01*
X137220D01*
Y481080D01*
X137180D01*
Y480920D01*
X137140D01*
Y480760D01*
X137100D01*
Y480600D01*
X137060D01*
Y480440D01*
X137020D01*
Y480240D01*
X136980D01*
Y480080D01*
X136940D01*
Y479920D01*
X136900D01*
Y479720D01*
X136860D01*
Y479560D01*
X136820D01*
Y479360D01*
X136780D01*
Y479160D01*
X136740D01*
Y478960D01*
X136700D01*
Y478760D01*
X136660D01*
Y478560D01*
X136620D01*
Y478360D01*
X136580D01*
Y478120D01*
X136540D01*
Y477920D01*
X136500D01*
Y477680D01*
X136460D01*
Y477440D01*
X136420D01*
Y477160D01*
X136380D01*
Y476920D01*
X136340D01*
Y476640D01*
X136300D01*
Y476360D01*
X136260D01*
Y476040D01*
X136300D01*
Y475960D01*
X136340D01*
Y475920D01*
X136380D01*
Y475840D01*
X136420D01*
Y475800D01*
X136460D01*
Y475720D01*
X136500D01*
Y475680D01*
X136540D01*
Y475600D01*
X136580D01*
Y475520D01*
X136620D01*
Y475480D01*
X136660D01*
Y475400D01*
X136700D01*
Y475360D01*
X136740D01*
Y475280D01*
X136780D01*
Y475240D01*
X136820D01*
Y475160D01*
X136860D01*
Y475120D01*
X136900D01*
Y475040D01*
X136940D01*
Y474960D01*
X136980D01*
Y474920D01*
X137020D01*
Y474840D01*
X137060D01*
Y474800D01*
X137100D01*
Y474720D01*
X137140D01*
Y474680D01*
X137180D01*
Y474600D01*
X137220D01*
Y474520D01*
X137260D01*
Y474480D01*
X137300D01*
Y474400D01*
X137340D01*
Y474360D01*
X137380D01*
Y474280D01*
X137420D01*
Y474240D01*
X137460D01*
Y474160D01*
X137500D01*
Y474080D01*
X137540D01*
Y474040D01*
X137580D01*
Y473960D01*
X137620D01*
Y473920D01*
X137660D01*
Y473840D01*
X137700D01*
Y473800D01*
X137740D01*
Y473720D01*
X137780D01*
Y473680D01*
X137820D01*
Y473600D01*
X137860D01*
Y473520D01*
X137900D01*
Y473480D01*
X137940D01*
Y473400D01*
X137980D01*
Y473360D01*
X138020D01*
Y473280D01*
X138060D01*
Y473200D01*
X138100D01*
Y473160D01*
X138140D01*
Y473080D01*
X138180D01*
Y473040D01*
X138220D01*
Y472960D01*
X138260D01*
Y472880D01*
X138300D01*
Y472840D01*
X138340D01*
Y472800D01*
X138380D01*
Y472720D01*
X138420D01*
Y472640D01*
X138460D01*
Y472600D01*
X138500D01*
Y472520D01*
X138540D01*
Y472480D01*
X138580D01*
Y472400D01*
X138620D01*
Y472360D01*
X138660D01*
Y472280D01*
X138700D01*
Y472200D01*
X138740D01*
Y472160D01*
X138780D01*
Y472080D01*
X138820D01*
Y472040D01*
X138860D01*
Y471960D01*
X138900D01*
Y471880D01*
X138940D01*
Y471840D01*
X138980D01*
Y471760D01*
X139020D01*
Y471720D01*
X139060D01*
Y471640D01*
X139100D01*
Y471600D01*
X139140D01*
Y471520D01*
X139180D01*
Y471480D01*
X139220D01*
Y471400D01*
X139260D01*
Y471320D01*
X139300D01*
Y471280D01*
X139340D01*
Y471200D01*
X139380D01*
Y471160D01*
X139420D01*
Y471080D01*
X139460D01*
Y471040D01*
X139500D01*
Y470960D01*
X139540D01*
Y470920D01*
X139580D01*
Y470840D01*
X139620D01*
Y470760D01*
X139660D01*
Y470720D01*
X139700D01*
Y470640D01*
X139740D01*
Y470600D01*
X139780D01*
Y470520D01*
X139820D01*
Y470480D01*
X139860D01*
Y470400D01*
X139900D01*
Y470320D01*
X139940D01*
Y470280D01*
X139980D01*
Y470200D01*
X140020D01*
Y470160D01*
X140060D01*
Y470080D01*
X140100D01*
Y470040D01*
X140140D01*
Y469960D01*
X140180D01*
Y469880D01*
X140220D01*
Y469840D01*
X140260D01*
Y469760D01*
X140300D01*
Y469720D01*
X140340D01*
Y469640D01*
X140380D01*
Y469600D01*
X140420D01*
Y469520D01*
X140460D01*
Y469440D01*
X140500D01*
Y469400D01*
X140540D01*
Y469320D01*
X140580D01*
Y469280D01*
X140620D01*
Y469200D01*
X140660D01*
Y469160D01*
X140700D01*
Y469080D01*
X140740D01*
Y469000D01*
X140780D01*
Y468960D01*
X140820D01*
Y468880D01*
X140860D01*
Y468840D01*
X140900D01*
Y468760D01*
X140940D01*
Y468720D01*
X140980D01*
Y468680D01*
X141220D01*
Y468640D01*
X141540D01*
Y468600D01*
X141900D01*
Y468560D01*
X142260D01*
Y468520D01*
X142820D01*
Y468480D01*
X143660D01*
Y468440D01*
X144460D01*
Y468480D01*
X145220D01*
Y468520D01*
X145660D01*
Y468560D01*
X145980D01*
Y468600D01*
X146220D01*
Y468640D01*
X146460D01*
Y468680D01*
X146620D01*
Y468760D01*
X146660D01*
Y468960D01*
X146700D01*
Y469160D01*
X146740D01*
Y469400D01*
X146780D01*
Y469600D01*
X146820D01*
Y469800D01*
X146860D01*
Y470000D01*
X146900D01*
Y470240D01*
X146940D01*
Y470440D01*
X146980D01*
Y470680D01*
X147020D01*
Y470840D01*
X147060D01*
Y471040D01*
X147100D01*
Y471280D01*
X147140D01*
Y471520D01*
X147180D01*
Y471720D01*
X147220D01*
Y471920D01*
X147260D01*
Y472120D01*
X147300D01*
Y472360D01*
X147340D01*
Y472560D01*
X147380D01*
Y472800D01*
X147420D01*
Y473000D01*
X147460D01*
Y473200D01*
X147500D01*
Y473440D01*
X147540D01*
Y473640D01*
X147580D01*
Y473840D01*
X147620D01*
Y474040D01*
X147660D01*
Y474280D01*
X147700D01*
Y474480D01*
X147740D01*
Y474680D01*
X147780D01*
Y474920D01*
X147820D01*
Y475120D01*
X147860D01*
Y475320D01*
X147900D01*
Y475520D01*
X147940D01*
Y475760D01*
X147980D01*
Y475960D01*
X148020D01*
Y476160D01*
X148060D01*
Y476400D01*
X148100D01*
Y476600D01*
X148140D01*
Y476840D01*
X148180D01*
Y477040D01*
X148220D01*
Y477240D01*
X148260D01*
Y477440D01*
X148300D01*
Y477680D01*
X148340D01*
Y477880D01*
X148380D01*
Y478000D01*
X148340D01*
Y478080D01*
X148300D01*
Y478120D01*
X148260D01*
Y478200D01*
X148220D01*
Y478280D01*
X148180D01*
Y478360D01*
X148140D01*
Y478400D01*
X148100D01*
Y478480D01*
X148060D01*
Y478560D01*
X148020D01*
Y478640D01*
X147980D01*
Y478680D01*
X147940D01*
Y478760D01*
X147900D01*
Y478840D01*
X147860D01*
Y478880D01*
X147820D01*
Y478960D01*
X147780D01*
Y479040D01*
X147740D01*
Y479080D01*
X147700D01*
Y479160D01*
X147660D01*
Y479240D01*
X147620D01*
Y479280D01*
X147580D01*
Y479360D01*
X147540D01*
Y479400D01*
X147500D01*
Y479480D01*
X147460D01*
Y479560D01*
X147420D01*
Y479600D01*
X147380D01*
Y479680D01*
X147340D01*
Y479720D01*
X147300D01*
Y479800D01*
X147260D01*
Y479840D01*
X147220D01*
Y479920D01*
X147180D01*
Y479960D01*
X147140D01*
Y480040D01*
X147100D01*
Y480120D01*
X147060D01*
Y480160D01*
X147020D01*
Y480240D01*
X146980D01*
Y480280D01*
X146940D01*
Y480320D01*
X146900D01*
Y480400D01*
X146860D01*
Y480480D01*
X146820D01*
Y480520D01*
X146780D01*
Y480600D01*
X146740D01*
Y480640D01*
X146700D01*
Y480720D01*
X146660D01*
Y480760D01*
X146620D01*
Y480800D01*
X146580D01*
Y480880D01*
X146540D01*
Y480920D01*
X146500D01*
Y481000D01*
X146460D01*
Y481040D01*
X146420D01*
Y481120D01*
X146380D01*
Y481160D01*
X146340D01*
Y481240D01*
X146300D01*
Y481280D01*
X146260D01*
Y481320D01*
X146220D01*
Y481400D01*
X146180D01*
Y481440D01*
X146140D01*
Y481520D01*
X146100D01*
Y481560D01*
X146060D01*
Y481600D01*
X146020D01*
Y481680D01*
X145980D01*
Y481720D01*
X145940D01*
Y481800D01*
X145900D01*
Y481840D01*
X145860D01*
Y481880D01*
X145820D01*
Y481960D01*
X145780D01*
Y482000D01*
X145740D01*
Y482040D01*
X145700D01*
Y482120D01*
X145660D01*
Y482160D01*
X145620D01*
Y482200D01*
X145580D01*
Y482280D01*
X145540D01*
Y482320D01*
X145500D01*
Y482360D01*
X145460D01*
Y482440D01*
X145420D01*
Y482480D01*
X145380D01*
Y482520D01*
X145340D01*
Y482600D01*
X145300D01*
Y482640D01*
X145260D01*
Y482680D01*
X145220D01*
Y482760D01*
X145180D01*
Y482800D01*
X145140D01*
Y482840D01*
X145100D01*
Y482880D01*
X145060D01*
Y482960D01*
X145020D01*
Y483000D01*
X144980D01*
Y483040D01*
X144940D01*
Y483080D01*
X144900D01*
Y483160D01*
X144860D01*
Y483200D01*
X144820D01*
Y483240D01*
X144780D01*
Y483280D01*
X144740D01*
Y483360D01*
X144700D01*
Y483400D01*
X144660D01*
Y483440D01*
X144620D01*
Y483480D01*
X144580D01*
Y483560D01*
X144540D01*
Y483600D01*
X144500D01*
Y483640D01*
X144460D01*
Y483680D01*
X144420D01*
Y483760D01*
X144380D01*
Y483800D01*
X144340D01*
Y483840D01*
X144300D01*
Y483880D01*
X144260D01*
Y483920D01*
X144220D01*
Y483960D01*
X144180D01*
Y484040D01*
X144140D01*
Y484080D01*
X144100D01*
Y484120D01*
X144060D01*
Y484160D01*
X144020D01*
Y484200D01*
X143980D01*
Y484280D01*
X143940D01*
Y484320D01*
X143900D01*
Y484360D01*
X143860D01*
Y484400D01*
X143820D01*
Y484440D01*
X143780D01*
Y484480D01*
X143740D01*
Y484520D01*
X143700D01*
Y484600D01*
X143660D01*
Y484640D01*
X143620D01*
Y484680D01*
X143580D01*
Y484720D01*
X143540D01*
Y484760D01*
D02*
G37*
G36*
X175020Y472920D02*
X173980D01*
Y472840D01*
X173940D01*
Y472760D01*
X173900D01*
Y472680D01*
X173860D01*
Y472600D01*
X173820D01*
Y472520D01*
X173780D01*
Y472440D01*
X173740D01*
Y472360D01*
X173700D01*
Y472280D01*
X173660D01*
Y472200D01*
X173620D01*
Y472120D01*
X173580D01*
Y472040D01*
X173540D01*
Y471960D01*
X173500D01*
Y471880D01*
X173460D01*
Y471800D01*
X173420D01*
Y471720D01*
X173380D01*
Y471680D01*
X173340D01*
Y471600D01*
X173300D01*
Y471520D01*
X173260D01*
Y471440D01*
X173220D01*
Y471360D01*
X173180D01*
Y471320D01*
X173140D01*
Y471240D01*
X173100D01*
Y471160D01*
X173060D01*
Y471080D01*
X173020D01*
Y471040D01*
X172980D01*
Y470960D01*
X172940D01*
Y470880D01*
X172900D01*
Y470840D01*
X172860D01*
Y470760D01*
X172820D01*
Y470680D01*
X172780D01*
Y470640D01*
X172740D01*
Y470560D01*
X172700D01*
Y470480D01*
X172660D01*
Y470440D01*
X172620D01*
Y470360D01*
X172580D01*
Y470320D01*
X172540D01*
Y470240D01*
X172500D01*
Y470160D01*
X172460D01*
Y470120D01*
X172420D01*
Y470040D01*
X172380D01*
Y470000D01*
X172340D01*
Y469920D01*
X172300D01*
Y469880D01*
X172260D01*
Y469800D01*
X172220D01*
Y469720D01*
X172180D01*
Y469680D01*
X172140D01*
Y469600D01*
X172100D01*
Y469560D01*
X172060D01*
Y469480D01*
X172020D01*
Y469440D01*
X171980D01*
Y469360D01*
X171940D01*
Y469320D01*
X171900D01*
Y469280D01*
X171860D01*
Y469200D01*
X171820D01*
Y469120D01*
X171780D01*
Y469080D01*
X171740D01*
Y469040D01*
X171700D01*
Y468960D01*
X171660D01*
Y468920D01*
X171620D01*
Y468840D01*
X171580D01*
Y468800D01*
X171540D01*
Y468760D01*
X171500D01*
Y468680D01*
X171460D01*
Y468640D01*
X171420D01*
Y468560D01*
X171380D01*
Y468520D01*
X171340D01*
Y468480D01*
X171300D01*
Y468400D01*
X171260D01*
Y468360D01*
X171220D01*
Y468280D01*
X171180D01*
Y468240D01*
X171140D01*
Y468160D01*
X171100D01*
Y468120D01*
X171060D01*
Y468080D01*
X171020D01*
Y468000D01*
X170980D01*
Y467960D01*
X170940D01*
Y467920D01*
X170900D01*
Y467840D01*
X170860D01*
Y467800D01*
X170820D01*
Y467760D01*
X170780D01*
Y467720D01*
X170740D01*
Y467640D01*
X170700D01*
Y467600D01*
X170660D01*
Y467560D01*
X170620D01*
Y467480D01*
X170580D01*
Y467440D01*
X170540D01*
Y467400D01*
X170500D01*
Y467320D01*
X170460D01*
Y467280D01*
X170420D01*
Y467240D01*
X170380D01*
Y467200D01*
X170340D01*
Y467120D01*
X170300D01*
Y467080D01*
X170260D01*
Y467040D01*
X170220D01*
Y466960D01*
X170180D01*
Y466920D01*
X170140D01*
Y466880D01*
X170100D01*
Y466840D01*
X170060D01*
Y466760D01*
X170020D01*
Y466720D01*
X169980D01*
Y466680D01*
X169940D01*
Y466640D01*
X169900D01*
Y466560D01*
X169860D01*
Y466520D01*
X169820D01*
Y466480D01*
X169780D01*
Y466440D01*
X169740D01*
Y466400D01*
X169700D01*
Y466320D01*
X169660D01*
Y466280D01*
X169620D01*
Y466240D01*
X169580D01*
Y466200D01*
X169540D01*
Y466120D01*
X169500D01*
Y466080D01*
X169460D01*
Y466040D01*
X169420D01*
Y466000D01*
X169380D01*
Y465960D01*
X169340D01*
Y465920D01*
X169300D01*
Y465840D01*
X169260D01*
Y465800D01*
X169220D01*
Y465760D01*
X169180D01*
Y465720D01*
X169140D01*
Y465640D01*
X169100D01*
Y465600D01*
X169060D01*
Y465560D01*
X169020D01*
Y465520D01*
X168980D01*
Y465480D01*
X168940D01*
Y465440D01*
X168900D01*
Y465400D01*
X168860D01*
Y465320D01*
X168820D01*
Y465280D01*
X168780D01*
Y465240D01*
X168740D01*
Y465200D01*
X168700D01*
Y465160D01*
X168660D01*
Y464960D01*
X168700D01*
Y464800D01*
X168740D01*
Y464640D01*
X168780D01*
Y464520D01*
X168820D01*
Y464360D01*
X168860D01*
Y464200D01*
X168900D01*
Y464040D01*
X168940D01*
Y463920D01*
X169020D01*
Y463960D01*
X169060D01*
Y464000D01*
X169100D01*
Y464040D01*
X169140D01*
Y464080D01*
X169180D01*
Y464120D01*
X169220D01*
Y464160D01*
X169260D01*
Y464200D01*
X169300D01*
Y464240D01*
X169340D01*
Y464280D01*
X169380D01*
Y464320D01*
X169460D01*
Y464360D01*
X169500D01*
Y464400D01*
X169540D01*
Y464440D01*
X169580D01*
Y464480D01*
X169620D01*
Y464520D01*
X169660D01*
Y464560D01*
X169700D01*
Y464600D01*
X169740D01*
Y464640D01*
X169780D01*
Y464680D01*
X169820D01*
Y464720D01*
X169860D01*
Y464760D01*
X169900D01*
Y464800D01*
X169940D01*
Y464840D01*
X169980D01*
Y464880D01*
X170020D01*
Y464920D01*
X170060D01*
Y464960D01*
X170100D01*
Y465000D01*
X170140D01*
Y465040D01*
X170180D01*
Y465080D01*
X170220D01*
Y465120D01*
X170260D01*
Y465160D01*
X170300D01*
Y465200D01*
X170340D01*
Y465240D01*
X170380D01*
Y465280D01*
X170420D01*
Y465320D01*
X170460D01*
Y465360D01*
X170500D01*
Y465440D01*
X170540D01*
Y465480D01*
X170580D01*
Y465520D01*
X170620D01*
Y465560D01*
X170660D01*
Y465600D01*
X170700D01*
Y465640D01*
X170740D01*
Y465680D01*
X170780D01*
Y465720D01*
X170820D01*
Y465760D01*
X170860D01*
Y465840D01*
X170900D01*
Y465880D01*
X170940D01*
Y465920D01*
X170980D01*
Y465960D01*
X171020D01*
Y466000D01*
X171060D01*
Y466040D01*
X171100D01*
Y466080D01*
X171140D01*
Y466160D01*
X171180D01*
Y466200D01*
X171220D01*
Y466240D01*
X171260D01*
Y466280D01*
X171300D01*
Y466320D01*
X171340D01*
Y466400D01*
X171380D01*
Y466440D01*
X171420D01*
Y466480D01*
X171460D01*
Y466520D01*
X171500D01*
Y466600D01*
X171540D01*
Y466640D01*
X171580D01*
Y466680D01*
X171620D01*
Y466720D01*
X171660D01*
Y466800D01*
X171700D01*
Y466840D01*
X171740D01*
Y466880D01*
X171780D01*
Y466920D01*
X171820D01*
Y467000D01*
X171860D01*
Y467040D01*
X171900D01*
Y467120D01*
X171940D01*
Y467160D01*
X171980D01*
Y467200D01*
X172020D01*
Y467240D01*
X172060D01*
Y467320D01*
X172100D01*
Y467360D01*
X172140D01*
Y467440D01*
X172180D01*
Y467480D01*
X172220D01*
Y467520D01*
X172260D01*
Y467600D01*
X172300D01*
Y467640D01*
X172340D01*
Y467720D01*
X172380D01*
Y467760D01*
X172420D01*
Y467840D01*
X172460D01*
Y467880D01*
X172500D01*
Y467960D01*
X172540D01*
Y468000D01*
X172580D01*
Y468040D01*
X172620D01*
Y468120D01*
X172660D01*
Y468160D01*
X172700D01*
Y468240D01*
X172740D01*
Y468320D01*
X172780D01*
Y468360D01*
X172820D01*
Y468440D01*
X172860D01*
Y468480D01*
X172900D01*
Y468560D01*
X172940D01*
Y468600D01*
X172980D01*
Y468680D01*
X173020D01*
Y468760D01*
X173060D01*
Y468800D01*
X173100D01*
Y468880D01*
X173140D01*
Y468920D01*
X173180D01*
Y469000D01*
X173220D01*
Y469080D01*
X173260D01*
Y469160D01*
X173300D01*
Y469200D01*
X173340D01*
Y469280D01*
X173380D01*
Y469360D01*
X173420D01*
Y469440D01*
X173460D01*
Y469480D01*
X173500D01*
Y469560D01*
X173540D01*
Y469640D01*
X173580D01*
Y469720D01*
X173620D01*
Y469800D01*
X173660D01*
Y469880D01*
X173700D01*
Y469920D01*
X173740D01*
Y470000D01*
X173780D01*
Y470080D01*
X173820D01*
Y470160D01*
X173860D01*
Y470240D01*
X173900D01*
Y470320D01*
X173940D01*
Y470400D01*
X173980D01*
Y470480D01*
X174020D01*
Y470560D01*
X174060D01*
Y470640D01*
X174100D01*
Y470720D01*
X174140D01*
Y470840D01*
X174180D01*
Y470920D01*
X174220D01*
Y471000D01*
X174260D01*
Y471080D01*
X174300D01*
Y471160D01*
X174340D01*
Y471280D01*
X174380D01*
Y471360D01*
X174420D01*
Y471440D01*
X174460D01*
Y471520D01*
X174500D01*
Y471640D01*
X174540D01*
Y471720D01*
X174580D01*
Y471840D01*
X174620D01*
Y471920D01*
X174660D01*
Y472040D01*
X174700D01*
Y472120D01*
X174740D01*
Y472240D01*
X174780D01*
Y472320D01*
X174820D01*
Y472440D01*
X174860D01*
Y472560D01*
X174900D01*
Y472640D01*
X174940D01*
Y472760D01*
X174980D01*
Y472880D01*
X175020D01*
Y472920D01*
D02*
G37*
G36*
X158380Y480680D02*
X158340D01*
Y480640D01*
X158220D01*
Y480600D01*
X158100D01*
Y480560D01*
X157940D01*
Y480520D01*
X157820D01*
Y480480D01*
X157700D01*
Y480440D01*
X157580D01*
Y480400D01*
X157460D01*
Y480360D01*
X157340D01*
Y480320D01*
X157220D01*
Y480280D01*
X157100D01*
Y480240D01*
X156940D01*
Y480200D01*
X156860D01*
Y480160D01*
X156700D01*
Y480120D01*
X156580D01*
Y480080D01*
X156460D01*
Y480040D01*
X156340D01*
Y480000D01*
X156220D01*
Y479960D01*
X156060D01*
Y479920D01*
X155940D01*
Y479880D01*
X155820D01*
Y479840D01*
X155700D01*
Y479800D01*
X155580D01*
Y479760D01*
X155420D01*
Y479720D01*
X155300D01*
Y479680D01*
X155180D01*
Y479640D01*
X155060D01*
Y479600D01*
X154940D01*
Y479560D01*
X154820D01*
Y479520D01*
X154700D01*
Y479480D01*
X154540D01*
Y479440D01*
X154460D01*
Y479400D01*
X154300D01*
Y479360D01*
X154220D01*
Y479320D01*
X154060D01*
Y479280D01*
X153940D01*
Y479240D01*
X153820D01*
Y479200D01*
X153700D01*
Y479160D01*
X153580D01*
Y479120D01*
X153460D01*
Y479080D01*
X153340D01*
Y479040D01*
X153180D01*
Y479000D01*
X153060D01*
Y478960D01*
X152940D01*
Y478920D01*
X152780D01*
Y478880D01*
X152700D01*
Y478840D01*
X152540D01*
Y478800D01*
X152420D01*
Y478760D01*
X152300D01*
Y478720D01*
X152180D01*
Y478680D01*
X152060D01*
Y478640D01*
X151900D01*
Y478600D01*
X151780D01*
Y478560D01*
X151660D01*
Y478520D01*
X151540D01*
Y478480D01*
X151420D01*
Y478440D01*
X151300D01*
Y478400D01*
X151180D01*
Y478360D01*
X151020D01*
Y478320D01*
X150940D01*
Y478280D01*
X150820D01*
Y478240D01*
X150660D01*
Y478200D01*
X150540D01*
Y478160D01*
X150420D01*
Y478120D01*
X150300D01*
Y478080D01*
X150180D01*
Y478040D01*
X150060D01*
Y478000D01*
X149900D01*
Y477960D01*
X149780D01*
Y477920D01*
X149660D01*
Y477880D01*
X149540D01*
Y477840D01*
X149420D01*
Y477800D01*
X149300D01*
Y477760D01*
X149140D01*
Y477720D01*
X149100D01*
Y477520D01*
X149060D01*
Y477320D01*
X149020D01*
Y477120D01*
X148980D01*
Y476880D01*
X148940D01*
Y476680D01*
X148900D01*
Y476480D01*
X148860D01*
Y476240D01*
X148820D01*
Y476040D01*
X148780D01*
Y475840D01*
X148740D01*
Y475600D01*
X148700D01*
Y475400D01*
X148660D01*
Y475200D01*
X148620D01*
Y474960D01*
X148580D01*
Y474760D01*
X148540D01*
Y474560D01*
X148500D01*
Y474320D01*
X148460D01*
Y474120D01*
X148420D01*
Y473920D01*
X148380D01*
Y473720D01*
X148340D01*
Y473480D01*
X148300D01*
Y473280D01*
X148260D01*
Y473080D01*
X148220D01*
Y472840D01*
X148180D01*
Y472640D01*
X148140D01*
Y472440D01*
X148100D01*
Y472240D01*
X148060D01*
Y472000D01*
X148020D01*
Y471760D01*
X147980D01*
Y471560D01*
X147940D01*
Y471360D01*
X147900D01*
Y471120D01*
X147860D01*
Y470920D01*
X147820D01*
Y470720D01*
X147780D01*
Y470520D01*
X147740D01*
Y470280D01*
X147700D01*
Y470080D01*
X147660D01*
Y469880D01*
X147620D01*
Y469640D01*
X147580D01*
Y469440D01*
X147540D01*
Y469240D01*
X147500D01*
Y469000D01*
X147460D01*
Y468800D01*
X147420D01*
Y468600D01*
X147380D01*
Y468520D01*
X147420D01*
Y468480D01*
X147460D01*
Y468440D01*
X147500D01*
Y468400D01*
X147540D01*
Y468360D01*
X147620D01*
Y468320D01*
X147660D01*
Y468280D01*
X147700D01*
Y468240D01*
X147740D01*
Y468200D01*
X147780D01*
Y468160D01*
X147820D01*
Y468120D01*
X147860D01*
Y468080D01*
X147900D01*
Y468040D01*
X147940D01*
Y468000D01*
X147980D01*
Y467960D01*
X148060D01*
Y467920D01*
X148100D01*
Y467880D01*
X148140D01*
Y467840D01*
X148180D01*
Y467800D01*
X148220D01*
Y467760D01*
X148260D01*
Y467720D01*
X148300D01*
Y467680D01*
X148340D01*
Y467640D01*
X148420D01*
Y467560D01*
X148460D01*
Y467520D01*
X148540D01*
Y467480D01*
X148580D01*
Y467440D01*
X148620D01*
Y467400D01*
X148660D01*
Y467360D01*
X148700D01*
Y467320D01*
X148740D01*
Y467280D01*
X148780D01*
Y467240D01*
X148820D01*
Y467200D01*
X148860D01*
Y467160D01*
X148940D01*
Y467120D01*
X148980D01*
Y467080D01*
X149020D01*
Y467040D01*
X149060D01*
Y467000D01*
X149100D01*
Y466960D01*
X149140D01*
Y466920D01*
X149180D01*
Y466880D01*
X149220D01*
Y466840D01*
X149300D01*
Y466760D01*
X149380D01*
Y466720D01*
X149420D01*
Y466680D01*
X149460D01*
Y466640D01*
X149500D01*
Y466600D01*
X149540D01*
Y466560D01*
X149580D01*
Y466520D01*
X149620D01*
Y466480D01*
X149660D01*
Y466440D01*
X149700D01*
Y466400D01*
X149740D01*
Y466360D01*
X149780D01*
Y466320D01*
X149860D01*
Y466280D01*
X149900D01*
Y466240D01*
X149940D01*
Y466200D01*
X149980D01*
Y466160D01*
X150020D01*
Y466120D01*
X150060D01*
Y466080D01*
X150100D01*
Y466040D01*
X150140D01*
Y466000D01*
X150180D01*
Y465960D01*
X150220D01*
Y465920D01*
X150300D01*
Y465880D01*
X150340D01*
Y465840D01*
X150380D01*
Y465800D01*
X150420D01*
Y465760D01*
X150460D01*
Y465720D01*
X150500D01*
Y465680D01*
X150540D01*
Y465640D01*
X150580D01*
Y465600D01*
X150620D01*
Y465560D01*
X150660D01*
Y465520D01*
X150700D01*
Y465480D01*
X150780D01*
Y465440D01*
X150820D01*
Y465400D01*
X150860D01*
Y465360D01*
X150900D01*
Y465320D01*
X150940D01*
Y465280D01*
X150980D01*
Y465240D01*
X151020D01*
Y465200D01*
X151060D01*
Y465160D01*
X151100D01*
Y465120D01*
X151180D01*
Y465080D01*
X151220D01*
Y465040D01*
X151260D01*
Y465000D01*
X151300D01*
Y464960D01*
X151340D01*
Y464920D01*
X151380D01*
Y464880D01*
X151420D01*
Y464840D01*
X151460D01*
Y464800D01*
X151500D01*
Y464760D01*
X151540D01*
Y464720D01*
X151580D01*
Y464680D01*
X151660D01*
Y464640D01*
X151700D01*
Y464600D01*
X151740D01*
Y464560D01*
X151780D01*
Y464520D01*
X151820D01*
Y464480D01*
X151860D01*
Y464440D01*
X151900D01*
Y464400D01*
X151940D01*
Y464360D01*
X151980D01*
Y464320D01*
X152020D01*
Y464280D01*
X152100D01*
Y464240D01*
X152140D01*
Y464200D01*
X152180D01*
Y464160D01*
X152220D01*
Y464120D01*
X152260D01*
Y464080D01*
X152300D01*
Y464040D01*
X152340D01*
Y464000D01*
X152380D01*
Y463960D01*
X152420D01*
Y463920D01*
X152500D01*
Y463840D01*
X152580D01*
Y463800D01*
X152700D01*
Y463840D01*
X152820D01*
Y463880D01*
X152940D01*
Y463920D01*
X153020D01*
Y463960D01*
X153140D01*
Y464000D01*
X153260D01*
Y464040D01*
X153380D01*
Y464080D01*
X153500D01*
Y464120D01*
X153620D01*
Y464160D01*
X153740D01*
Y464200D01*
X153820D01*
Y464240D01*
X153980D01*
Y464280D01*
X154060D01*
Y464320D01*
X154180D01*
Y464360D01*
X154300D01*
Y464400D01*
X154420D01*
Y464440D01*
X154540D01*
Y464480D01*
X154660D01*
Y464520D01*
X154780D01*
Y464560D01*
X154900D01*
Y464600D01*
X155020D01*
Y464640D01*
X155140D01*
Y464680D01*
X155220D01*
Y464720D01*
X155340D01*
Y464760D01*
X155460D01*
Y464800D01*
X155580D01*
Y464840D01*
X155700D01*
Y464880D01*
X155820D01*
Y464920D01*
X155940D01*
Y464960D01*
X156060D01*
Y465000D01*
X156140D01*
Y465040D01*
X156300D01*
Y465080D01*
X156380D01*
Y465120D01*
X156500D01*
Y465160D01*
X156620D01*
Y465200D01*
X156740D01*
Y465240D01*
X156860D01*
Y465280D01*
X156980D01*
Y465320D01*
X157100D01*
Y465360D01*
X157220D01*
Y465400D01*
X157340D01*
Y465440D01*
X157420D01*
Y465480D01*
X157540D01*
Y465520D01*
X157660D01*
Y465560D01*
X157780D01*
Y465600D01*
X157900D01*
Y465640D01*
X158020D01*
Y465680D01*
X158140D01*
Y465720D01*
X158260D01*
Y465760D01*
X158380D01*
Y465800D01*
X158500D01*
Y465840D01*
X158620D01*
Y465880D01*
X158700D01*
Y465920D01*
X158820D01*
Y465960D01*
X158940D01*
Y466000D01*
X159060D01*
Y466040D01*
X159180D01*
Y466080D01*
X159300D01*
Y466120D01*
X159420D01*
Y466160D01*
X159500D01*
Y466200D01*
X159660D01*
Y466240D01*
X159740D01*
Y466280D01*
X159860D01*
Y466320D01*
X159980D01*
Y466360D01*
X160100D01*
Y466400D01*
X160220D01*
Y466440D01*
X160340D01*
Y466480D01*
X160460D01*
Y466520D01*
X160580D01*
Y466560D01*
X160700D01*
Y466600D01*
X160820D01*
Y466640D01*
X160900D01*
Y466680D01*
X161020D01*
Y466720D01*
X161140D01*
Y466760D01*
X161260D01*
Y466800D01*
X161380D01*
Y466840D01*
X161500D01*
Y466880D01*
X161620D01*
Y466920D01*
X161740D01*
Y466960D01*
X161860D01*
Y467000D01*
X161980D01*
Y467040D01*
X162060D01*
Y467080D01*
X162180D01*
Y467120D01*
X162220D01*
Y467160D01*
X162260D01*
Y467280D01*
X162300D01*
Y467360D01*
X162340D01*
Y467440D01*
X162380D01*
Y467520D01*
X162420D01*
Y467600D01*
X162460D01*
Y467720D01*
X162500D01*
Y467800D01*
X162540D01*
Y467880D01*
X162580D01*
Y468000D01*
X162620D01*
Y468080D01*
X162660D01*
Y468160D01*
X162700D01*
Y468280D01*
X162740D01*
Y468360D01*
X162780D01*
Y468480D01*
X162820D01*
Y468560D01*
X162860D01*
Y468640D01*
X162900D01*
Y468760D01*
X162940D01*
Y468840D01*
X162980D01*
Y468960D01*
X163020D01*
Y469040D01*
X163060D01*
Y469160D01*
X163100D01*
Y469280D01*
X163140D01*
Y469360D01*
X163180D01*
Y469480D01*
X163220D01*
Y469600D01*
X163260D01*
Y469680D01*
X163300D01*
Y469800D01*
X163340D01*
Y469920D01*
X163380D01*
Y470040D01*
X163420D01*
Y470120D01*
X163460D01*
Y470240D01*
X163500D01*
Y470360D01*
X163540D01*
Y470480D01*
X163580D01*
Y470600D01*
X163620D01*
Y470720D01*
X163660D01*
Y470840D01*
X163700D01*
Y470960D01*
X163740D01*
Y471120D01*
X163780D01*
Y471240D01*
X163820D01*
Y471360D01*
X163860D01*
Y471480D01*
X163900D01*
Y471640D01*
X163940D01*
Y471760D01*
X163980D01*
Y471920D01*
X164020D01*
Y472040D01*
X164060D01*
Y472200D01*
X164100D01*
Y472320D01*
X164140D01*
Y472480D01*
X164180D01*
Y472640D01*
X164220D01*
Y472800D01*
X164260D01*
Y472960D01*
X164300D01*
Y473120D01*
X164340D01*
Y473280D01*
X164380D01*
Y473440D01*
X164420D01*
Y473600D01*
X164460D01*
Y473800D01*
X164500D01*
Y474000D01*
X164540D01*
Y474160D01*
X164580D01*
Y474360D01*
X164620D01*
Y474560D01*
X164660D01*
Y474760D01*
X164700D01*
Y474960D01*
X164740D01*
Y475200D01*
X164700D01*
Y475240D01*
X164660D01*
Y475280D01*
X164620D01*
Y475320D01*
X164580D01*
Y475360D01*
X164500D01*
Y475400D01*
X164460D01*
Y475440D01*
X164420D01*
Y475480D01*
X164380D01*
Y475520D01*
X164340D01*
Y475560D01*
X164300D01*
Y475600D01*
X164260D01*
Y475640D01*
X164180D01*
Y475680D01*
X164140D01*
Y475720D01*
X164100D01*
Y475760D01*
X164060D01*
Y475800D01*
X164020D01*
Y475840D01*
X163940D01*
Y475880D01*
X163900D01*
Y475920D01*
X163860D01*
Y475960D01*
X163820D01*
Y476000D01*
X163780D01*
Y476040D01*
X163740D01*
Y476080D01*
X163700D01*
Y476120D01*
X163620D01*
Y476160D01*
X163580D01*
Y476200D01*
X163540D01*
Y476240D01*
X163500D01*
Y476280D01*
X163460D01*
Y476320D01*
X163420D01*
Y476360D01*
X163380D01*
Y476400D01*
X163300D01*
Y476440D01*
X163260D01*
Y476480D01*
X163220D01*
Y476520D01*
X163180D01*
Y476560D01*
X163140D01*
Y476600D01*
X163060D01*
Y476640D01*
X163020D01*
Y476680D01*
X162980D01*
Y476720D01*
X162940D01*
Y476760D01*
X162900D01*
Y476800D01*
X162860D01*
Y476840D01*
X162820D01*
Y476880D01*
X162740D01*
Y476920D01*
X162700D01*
Y476960D01*
X162660D01*
Y477000D01*
X162620D01*
Y477040D01*
X162580D01*
Y477080D01*
X162540D01*
Y477120D01*
X162460D01*
Y477160D01*
X162420D01*
Y477200D01*
X162380D01*
Y477240D01*
X162340D01*
Y477280D01*
X162300D01*
Y477320D01*
X162260D01*
Y477360D01*
X162180D01*
Y477400D01*
X162140D01*
Y477440D01*
X162100D01*
Y477480D01*
X162060D01*
Y477520D01*
X162020D01*
Y477560D01*
X161980D01*
Y477600D01*
X161900D01*
Y477640D01*
X161860D01*
Y477680D01*
X161820D01*
Y477720D01*
X161780D01*
Y477760D01*
X161740D01*
Y477800D01*
X161700D01*
Y477840D01*
X161660D01*
Y477880D01*
X161580D01*
Y477920D01*
X161540D01*
Y477960D01*
X161500D01*
Y478000D01*
X161460D01*
Y478040D01*
X161420D01*
Y478080D01*
X161340D01*
Y478120D01*
X161300D01*
Y478160D01*
X161260D01*
Y478200D01*
X161220D01*
Y478240D01*
X161180D01*
Y478280D01*
X161140D01*
Y478320D01*
X161100D01*
Y478360D01*
X161020D01*
Y478400D01*
X160980D01*
Y478440D01*
X160940D01*
Y478480D01*
X160900D01*
Y478520D01*
X160860D01*
Y478560D01*
X160820D01*
Y478600D01*
X160740D01*
Y478640D01*
X160700D01*
Y478680D01*
X160660D01*
Y478720D01*
X160620D01*
Y478760D01*
X160580D01*
Y478800D01*
X160540D01*
Y478840D01*
X160460D01*
Y478880D01*
X160420D01*
Y478920D01*
X160380D01*
Y478960D01*
X160340D01*
Y479000D01*
X160300D01*
Y479040D01*
X160260D01*
Y479080D01*
X160180D01*
Y479120D01*
X160140D01*
Y479160D01*
X160100D01*
Y479200D01*
X160060D01*
Y479240D01*
X160020D01*
Y479280D01*
X159980D01*
Y479320D01*
X159900D01*
Y479360D01*
X159860D01*
Y479400D01*
X159820D01*
Y479440D01*
X159780D01*
Y479480D01*
X159740D01*
Y479520D01*
X159700D01*
Y479560D01*
X159620D01*
Y479600D01*
X159580D01*
Y479640D01*
X159540D01*
Y479680D01*
X159500D01*
Y479720D01*
X159460D01*
Y479760D01*
X159420D01*
Y479800D01*
X159340D01*
Y479840D01*
X159300D01*
Y479880D01*
X159260D01*
Y479920D01*
X159220D01*
Y479960D01*
X159180D01*
Y480000D01*
X159140D01*
Y480040D01*
X159100D01*
Y480080D01*
X159020D01*
Y480120D01*
X158980D01*
Y480160D01*
X158940D01*
Y480200D01*
X158900D01*
Y480240D01*
X158860D01*
Y480280D01*
X158820D01*
Y480320D01*
X158740D01*
Y480360D01*
X158700D01*
Y480400D01*
X158660D01*
Y480440D01*
X158620D01*
Y480480D01*
X158580D01*
Y480520D01*
X158540D01*
Y480560D01*
X158460D01*
Y480600D01*
X158420D01*
Y480640D01*
X158380D01*
Y480680D01*
D02*
G37*
G36*
X134700Y476080D02*
X134620D01*
Y475880D01*
X134660D01*
Y475680D01*
X134700D01*
Y475480D01*
X134740D01*
Y475280D01*
X134780D01*
Y475120D01*
X134820D01*
Y474920D01*
X134860D01*
Y474760D01*
X134900D01*
Y474600D01*
X134940D01*
Y474440D01*
X134980D01*
Y474280D01*
X135020D01*
Y474120D01*
X135060D01*
Y474000D01*
X135100D01*
Y473840D01*
X135140D01*
Y473720D01*
X135180D01*
Y473600D01*
X135220D01*
Y473440D01*
X135260D01*
Y473320D01*
X135300D01*
Y473200D01*
X135340D01*
Y473080D01*
X135380D01*
Y472960D01*
X135420D01*
Y472840D01*
X135460D01*
Y472720D01*
X135500D01*
Y472600D01*
X135540D01*
Y472480D01*
X135580D01*
Y472400D01*
X135620D01*
Y472280D01*
X135660D01*
Y472160D01*
X135700D01*
Y472080D01*
X135740D01*
Y471960D01*
X135780D01*
Y471880D01*
X135820D01*
Y471760D01*
X135860D01*
Y471680D01*
X135900D01*
Y471560D01*
X135940D01*
Y471480D01*
X135980D01*
Y471400D01*
X136020D01*
Y471280D01*
X136060D01*
Y471200D01*
X136100D01*
Y471120D01*
X136140D01*
Y471040D01*
X136180D01*
Y470920D01*
X136220D01*
Y470840D01*
X136260D01*
Y470760D01*
X136300D01*
Y470680D01*
X136340D01*
Y470600D01*
X136380D01*
Y470520D01*
X136420D01*
Y470440D01*
X136460D01*
Y470360D01*
X136500D01*
Y470280D01*
X136540D01*
Y470200D01*
X136580D01*
Y470120D01*
X136620D01*
Y470040D01*
X136660D01*
Y469960D01*
X136700D01*
Y469880D01*
X136740D01*
Y469800D01*
X136780D01*
Y469760D01*
X136820D01*
Y469680D01*
X136860D01*
Y469600D01*
X136900D01*
Y469520D01*
X136940D01*
Y469440D01*
X136980D01*
Y469360D01*
X137020D01*
Y469280D01*
X137060D01*
Y469240D01*
X137100D01*
Y469160D01*
X137140D01*
Y469080D01*
X137180D01*
Y469040D01*
X137220D01*
Y468960D01*
X137260D01*
Y468880D01*
X137300D01*
Y468840D01*
X137340D01*
Y468760D01*
X137380D01*
Y468680D01*
X137420D01*
Y468640D01*
X137460D01*
Y468560D01*
X137500D01*
Y468520D01*
X137540D01*
Y468440D01*
X137580D01*
Y468360D01*
X137620D01*
Y468320D01*
X137660D01*
Y468240D01*
X137700D01*
Y468200D01*
X137740D01*
Y468120D01*
X137780D01*
Y468080D01*
X137820D01*
Y468000D01*
X137860D01*
Y467960D01*
X137900D01*
Y467880D01*
X137940D01*
Y467840D01*
X137980D01*
Y467760D01*
X138020D01*
Y467720D01*
X138060D01*
Y467680D01*
X138100D01*
Y467600D01*
X138140D01*
Y467560D01*
X138180D01*
Y467480D01*
X138220D01*
Y467440D01*
X138260D01*
Y467400D01*
X138300D01*
Y467320D01*
X138340D01*
Y467280D01*
X138380D01*
Y467240D01*
X138420D01*
Y467160D01*
X138460D01*
Y467120D01*
X138500D01*
Y467080D01*
X138540D01*
Y467000D01*
X138580D01*
Y466960D01*
X138620D01*
Y466880D01*
X138660D01*
Y466840D01*
X138700D01*
Y466800D01*
X138740D01*
Y466760D01*
X138780D01*
Y466680D01*
X138820D01*
Y466640D01*
X138860D01*
Y466600D01*
X138900D01*
Y466560D01*
X138940D01*
Y466520D01*
X138980D01*
Y466440D01*
X139020D01*
Y466400D01*
X139060D01*
Y466360D01*
X139100D01*
Y466280D01*
X139140D01*
Y466240D01*
X139180D01*
Y466200D01*
X139220D01*
Y466160D01*
X139260D01*
Y466120D01*
X139300D01*
Y466080D01*
X139340D01*
Y466000D01*
X139380D01*
Y465960D01*
X139420D01*
Y465920D01*
X139460D01*
Y465880D01*
X139500D01*
Y465840D01*
X139540D01*
Y465800D01*
X139580D01*
Y465760D01*
X139620D01*
Y465680D01*
X139660D01*
Y465640D01*
X139700D01*
Y465600D01*
X139740D01*
Y465560D01*
X139780D01*
Y465520D01*
X139820D01*
Y465480D01*
X139860D01*
Y465440D01*
X139900D01*
Y465400D01*
X139940D01*
Y465360D01*
X139980D01*
Y465320D01*
X140020D01*
Y465280D01*
X140060D01*
Y465240D01*
X140100D01*
Y465160D01*
X140140D01*
Y465120D01*
X140180D01*
Y465080D01*
X140220D01*
Y465040D01*
X140260D01*
Y465000D01*
X140300D01*
Y464960D01*
X140340D01*
Y464920D01*
X140380D01*
Y464880D01*
X140420D01*
Y464840D01*
X140460D01*
Y464800D01*
X140500D01*
Y464760D01*
X140540D01*
Y464720D01*
X140580D01*
Y464680D01*
X140620D01*
Y464640D01*
X140660D01*
Y464600D01*
X140700D01*
Y464560D01*
X140780D01*
Y464520D01*
X140820D01*
Y464480D01*
X140860D01*
Y464440D01*
X140900D01*
Y464400D01*
X140940D01*
Y464360D01*
X140980D01*
Y464320D01*
X141020D01*
Y464280D01*
X141060D01*
Y464240D01*
X141100D01*
Y464200D01*
X141140D01*
Y464160D01*
X141180D01*
Y464120D01*
X141220D01*
Y464080D01*
X141260D01*
Y464040D01*
X141340D01*
Y464000D01*
X141380D01*
Y463960D01*
X141420D01*
Y463920D01*
X141460D01*
Y463880D01*
X141500D01*
Y463840D01*
X141540D01*
Y463800D01*
X141580D01*
Y463760D01*
X141660D01*
Y463720D01*
X141700D01*
Y463680D01*
X141740D01*
Y463640D01*
X141780D01*
Y463600D01*
X141820D01*
Y463560D01*
X141900D01*
Y463520D01*
X141940D01*
Y463480D01*
X141980D01*
Y463440D01*
X142020D01*
Y463400D01*
X142060D01*
Y463360D01*
X142140D01*
Y463320D01*
X142180D01*
Y463280D01*
X142220D01*
Y463240D01*
X142260D01*
Y463200D01*
X142340D01*
Y463160D01*
X142380D01*
Y463120D01*
X142420D01*
Y463080D01*
X142500D01*
Y463040D01*
X142540D01*
Y463000D01*
X142580D01*
Y462960D01*
X142620D01*
Y462920D01*
X142700D01*
Y462880D01*
X142740D01*
Y462840D01*
X142780D01*
Y462800D01*
X142860D01*
Y462840D01*
X142820D01*
Y462920D01*
X142780D01*
Y463000D01*
X142740D01*
Y463040D01*
X142700D01*
Y463120D01*
X142660D01*
Y463200D01*
X142620D01*
Y463280D01*
X142580D01*
Y463360D01*
X142540D01*
Y463400D01*
X142500D01*
Y463480D01*
X142460D01*
Y463560D01*
X142420D01*
Y463640D01*
X142380D01*
Y463720D01*
X142340D01*
Y463800D01*
X142300D01*
Y463880D01*
X142260D01*
Y463960D01*
X142220D01*
Y464000D01*
X142180D01*
Y464080D01*
X142140D01*
Y464160D01*
X142100D01*
Y464240D01*
X142060D01*
Y464320D01*
X142020D01*
Y464400D01*
X141980D01*
Y464480D01*
X141940D01*
Y464560D01*
X141900D01*
Y464640D01*
X141860D01*
Y464720D01*
X141820D01*
Y464800D01*
X141780D01*
Y464920D01*
X141740D01*
Y464960D01*
X141700D01*
Y465080D01*
X141660D01*
Y465160D01*
X141620D01*
Y465240D01*
X141580D01*
Y465320D01*
X141540D01*
Y465400D01*
X141500D01*
Y465520D01*
X141460D01*
Y465600D01*
X141420D01*
Y465680D01*
X141380D01*
Y465760D01*
X141340D01*
Y465880D01*
X141300D01*
Y465960D01*
X141260D01*
Y466040D01*
X141220D01*
Y466160D01*
X141180D01*
Y466240D01*
X141140D01*
Y466360D01*
X141100D01*
Y466440D01*
X141060D01*
Y466560D01*
X141020D01*
Y466640D01*
X140980D01*
Y466760D01*
X140940D01*
Y466840D01*
X140900D01*
Y466960D01*
X140860D01*
Y467040D01*
X140820D01*
Y467160D01*
X140780D01*
Y467280D01*
X140740D01*
Y467400D01*
X140700D01*
Y467520D01*
X140660D01*
Y467600D01*
X140620D01*
Y467720D01*
X140580D01*
Y467840D01*
X140540D01*
Y467920D01*
X140500D01*
Y468000D01*
X140460D01*
Y468040D01*
X140420D01*
Y468120D01*
X140380D01*
Y468200D01*
X140340D01*
Y468240D01*
X140300D01*
Y468320D01*
X140260D01*
Y468360D01*
X140220D01*
Y468440D01*
X140180D01*
Y468480D01*
X140140D01*
Y468560D01*
X140100D01*
Y468640D01*
X140060D01*
Y468680D01*
X140020D01*
Y468760D01*
X139980D01*
Y468800D01*
X139940D01*
Y468880D01*
X139900D01*
Y468920D01*
X139860D01*
Y469000D01*
X139820D01*
Y469080D01*
X139780D01*
Y469120D01*
X139740D01*
Y469200D01*
X139700D01*
Y469240D01*
X139660D01*
Y469320D01*
X139620D01*
Y469360D01*
X139580D01*
Y469440D01*
X139540D01*
Y469520D01*
X139500D01*
Y469560D01*
X139460D01*
Y469640D01*
X139420D01*
Y469680D01*
X139380D01*
Y469760D01*
X139340D01*
Y469840D01*
X139300D01*
Y469880D01*
X139260D01*
Y469960D01*
X139220D01*
Y470000D01*
X139180D01*
Y470080D01*
X139140D01*
Y470120D01*
X139100D01*
Y470200D01*
X139060D01*
Y470240D01*
X139020D01*
Y470320D01*
X138980D01*
Y470400D01*
X138940D01*
Y470440D01*
X138900D01*
Y470520D01*
X138860D01*
Y470560D01*
X138820D01*
Y470640D01*
X138780D01*
Y470720D01*
X138740D01*
Y470760D01*
X138700D01*
Y470840D01*
X138660D01*
Y470880D01*
X138620D01*
Y470960D01*
X138580D01*
Y471000D01*
X138540D01*
Y471080D01*
X138500D01*
Y471160D01*
X138460D01*
Y471200D01*
X138420D01*
Y471280D01*
X138380D01*
Y471320D01*
X138340D01*
Y471400D01*
X138300D01*
Y471440D01*
X138260D01*
Y471520D01*
X138220D01*
Y471600D01*
X138180D01*
Y471640D01*
X138140D01*
Y471720D01*
X138100D01*
Y471760D01*
X138060D01*
Y471840D01*
X138020D01*
Y471880D01*
X137980D01*
Y471960D01*
X137940D01*
Y472040D01*
X137900D01*
Y472080D01*
X137860D01*
Y472160D01*
X137820D01*
Y472200D01*
X137780D01*
Y472280D01*
X137740D01*
Y472320D01*
X137700D01*
Y472400D01*
X137660D01*
Y472440D01*
X137620D01*
Y472520D01*
X137580D01*
Y472600D01*
X137540D01*
Y472640D01*
X137500D01*
Y472720D01*
X137460D01*
Y472760D01*
X137420D01*
Y472840D01*
X137380D01*
Y472920D01*
X137340D01*
Y472960D01*
X137300D01*
Y473040D01*
X137260D01*
Y473080D01*
X137220D01*
Y473160D01*
X137180D01*
Y473200D01*
X137140D01*
Y473280D01*
X137100D01*
Y473360D01*
X137060D01*
Y473400D01*
X137020D01*
Y473480D01*
X136980D01*
Y473520D01*
X136940D01*
Y473600D01*
X136900D01*
Y473640D01*
X136860D01*
Y473720D01*
X136820D01*
Y473800D01*
X136780D01*
Y473840D01*
X136740D01*
Y473920D01*
X136700D01*
Y473960D01*
X136660D01*
Y474040D01*
X136620D01*
Y474120D01*
X136580D01*
Y474160D01*
X136540D01*
Y474240D01*
X136500D01*
Y474280D01*
X136460D01*
Y474360D01*
X136420D01*
Y474400D01*
X136380D01*
Y474480D01*
X136340D01*
Y474560D01*
X136300D01*
Y474600D01*
X136260D01*
Y474680D01*
X136220D01*
Y474720D01*
X136180D01*
Y474800D01*
X136140D01*
Y474840D01*
X136100D01*
Y474920D01*
X136060D01*
Y475000D01*
X136020D01*
Y475040D01*
X135980D01*
Y475120D01*
X135940D01*
Y475160D01*
X135900D01*
Y475240D01*
X135860D01*
Y475320D01*
X135820D01*
Y475360D01*
X135780D01*
Y475440D01*
X135740D01*
Y475480D01*
X135700D01*
Y475560D01*
X135660D01*
Y475600D01*
X135620D01*
Y475680D01*
X135580D01*
Y475720D01*
X135500D01*
Y475760D01*
X135380D01*
Y475800D01*
X135300D01*
Y475840D01*
X135180D01*
Y475880D01*
X135100D01*
Y475920D01*
X135020D01*
Y475960D01*
X134900D01*
Y476000D01*
X134820D01*
Y476040D01*
X134700D01*
Y476080D01*
D02*
G37*
G36*
X162700Y466400D02*
X162500D01*
Y466360D01*
X162380D01*
Y466320D01*
X162260D01*
Y466280D01*
X162140D01*
Y466240D01*
X162020D01*
Y466200D01*
X161900D01*
Y466160D01*
X161780D01*
Y466120D01*
X161660D01*
Y466080D01*
X161540D01*
Y466040D01*
X161420D01*
Y466000D01*
X161340D01*
Y465960D01*
X161220D01*
Y465920D01*
X161100D01*
Y465880D01*
X160980D01*
Y465840D01*
X160860D01*
Y465800D01*
X160740D01*
Y465760D01*
X160620D01*
Y465720D01*
X160500D01*
Y465680D01*
X160380D01*
Y465640D01*
X160260D01*
Y465600D01*
X160180D01*
Y465560D01*
X160020D01*
Y465520D01*
X159940D01*
Y465480D01*
X159820D01*
Y465440D01*
X159700D01*
Y465400D01*
X159580D01*
Y465360D01*
X159460D01*
Y465320D01*
X159340D01*
Y465280D01*
X159220D01*
Y465240D01*
X159100D01*
Y465200D01*
X159020D01*
Y465160D01*
X158860D01*
Y465120D01*
X158780D01*
Y465080D01*
X158660D01*
Y465040D01*
X158540D01*
Y465000D01*
X158420D01*
Y464960D01*
X158300D01*
Y464920D01*
X158180D01*
Y464880D01*
X158060D01*
Y464840D01*
X157940D01*
Y464800D01*
X157820D01*
Y464760D01*
X157740D01*
Y464720D01*
X157620D01*
Y464680D01*
X157500D01*
Y464640D01*
X157380D01*
Y464600D01*
X157260D01*
Y464560D01*
X157140D01*
Y464520D01*
X157020D01*
Y464480D01*
X156900D01*
Y464440D01*
X156780D01*
Y464400D01*
X156700D01*
Y464360D01*
X156580D01*
Y464320D01*
X156460D01*
Y464280D01*
X156340D01*
Y464240D01*
X156220D01*
Y464200D01*
X156100D01*
Y464160D01*
X155980D01*
Y464120D01*
X155860D01*
Y464080D01*
X155740D01*
Y464040D01*
X155620D01*
Y464000D01*
X155540D01*
Y463960D01*
X155420D01*
Y463920D01*
X155260D01*
Y463880D01*
X155180D01*
Y463840D01*
X155060D01*
Y463800D01*
X154940D01*
Y463760D01*
X154820D01*
Y463720D01*
X154700D01*
Y463680D01*
X154580D01*
Y463640D01*
X154460D01*
Y463600D01*
X154340D01*
Y463560D01*
X154220D01*
Y463520D01*
X154140D01*
Y463480D01*
X154020D01*
Y463440D01*
X153900D01*
Y463400D01*
X153780D01*
Y463360D01*
X153660D01*
Y463320D01*
X153540D01*
Y463280D01*
X153420D01*
Y463240D01*
X153300D01*
Y463200D01*
X153180D01*
Y463160D01*
X153100D01*
Y463120D01*
X152940D01*
Y463080D01*
X152860D01*
Y463040D01*
X152740D01*
Y463000D01*
X152620D01*
Y462920D01*
X152580D01*
Y462840D01*
X152540D01*
Y462800D01*
X152500D01*
Y462720D01*
X152460D01*
Y462680D01*
X152420D01*
Y462600D01*
X152380D01*
Y462560D01*
X152340D01*
Y462480D01*
X152300D01*
Y462440D01*
X152260D01*
Y462360D01*
X152220D01*
Y462320D01*
X152180D01*
Y462240D01*
X152140D01*
Y462160D01*
X152100D01*
Y462120D01*
X152060D01*
Y462040D01*
X152020D01*
Y462000D01*
X151980D01*
Y461920D01*
X151940D01*
Y461880D01*
X151900D01*
Y461800D01*
X151860D01*
Y461760D01*
X151820D01*
Y461680D01*
X151780D01*
Y461600D01*
X151740D01*
Y461560D01*
X151700D01*
Y461520D01*
X151660D01*
Y461440D01*
X151620D01*
Y461360D01*
X151580D01*
Y461320D01*
X151540D01*
Y461280D01*
X151500D01*
Y461200D01*
X151460D01*
Y461120D01*
X151420D01*
Y461080D01*
X151380D01*
Y461000D01*
X151340D01*
Y460960D01*
X151300D01*
Y460880D01*
X151260D01*
Y460800D01*
X151220D01*
Y460760D01*
X151180D01*
Y460720D01*
X151140D01*
Y460640D01*
X151100D01*
Y460560D01*
X151060D01*
Y460520D01*
X151020D01*
Y460480D01*
X150980D01*
Y460400D01*
X150940D01*
Y460320D01*
X150900D01*
Y460280D01*
X150860D01*
Y460200D01*
X150820D01*
Y460160D01*
X150780D01*
Y460080D01*
X150740D01*
Y460040D01*
X150700D01*
Y459960D01*
X150660D01*
Y459920D01*
X150620D01*
Y459840D01*
X150580D01*
Y459800D01*
X150540D01*
Y459720D01*
X150500D01*
Y459680D01*
X150460D01*
Y459600D01*
X150420D01*
Y459520D01*
X150380D01*
Y459480D01*
X150340D01*
Y459400D01*
X150300D01*
Y459360D01*
X150260D01*
Y459320D01*
X150380D01*
Y459280D01*
X150580D01*
Y459240D01*
X150740D01*
Y459200D01*
X150940D01*
Y459160D01*
X151140D01*
Y459120D01*
X151340D01*
Y459080D01*
X151580D01*
Y459040D01*
X151820D01*
Y459000D01*
X152060D01*
Y458960D01*
X152340D01*
Y458920D01*
X152660D01*
Y458880D01*
X153020D01*
Y458840D01*
X153420D01*
Y458800D01*
X153940D01*
Y458760D01*
X155500D01*
Y458720D01*
X155540D01*
Y458760D01*
X156460D01*
Y458800D01*
X157020D01*
Y458840D01*
X157420D01*
Y458880D01*
X157820D01*
Y458920D01*
X158100D01*
Y458960D01*
X158380D01*
Y459000D01*
X158620D01*
Y459040D01*
X158860D01*
Y459080D01*
X159100D01*
Y459120D01*
X159300D01*
Y459160D01*
X159500D01*
Y459200D01*
X159660D01*
Y459240D01*
X159860D01*
Y459280D01*
X160020D01*
Y459320D01*
X160180D01*
Y459360D01*
X160340D01*
Y459400D01*
X160500D01*
Y459440D01*
X160660D01*
Y459480D01*
X160780D01*
Y459520D01*
X160940D01*
Y459560D01*
X161100D01*
Y459600D01*
X161220D01*
Y459640D01*
X161340D01*
Y459680D01*
X161500D01*
Y459720D01*
X161580D01*
Y459760D01*
X161700D01*
Y459800D01*
X161860D01*
Y459840D01*
X161980D01*
Y459880D01*
X162100D01*
Y459920D01*
X162220D01*
Y459960D01*
X162300D01*
Y460000D01*
X162420D01*
Y460040D01*
X162540D01*
Y460080D01*
X162620D01*
Y460120D01*
X162740D01*
Y460160D01*
X162820D01*
Y460200D01*
X162940D01*
Y460240D01*
X163020D01*
Y460280D01*
X163140D01*
Y460320D01*
X163220D01*
Y460360D01*
X163340D01*
Y460400D01*
X163420D01*
Y460440D01*
X163500D01*
Y460480D01*
X163620D01*
Y460520D01*
X163700D01*
Y460560D01*
X163780D01*
Y460600D01*
X163860D01*
Y460640D01*
X163980D01*
Y460680D01*
X164060D01*
Y460720D01*
X164140D01*
Y460760D01*
X164220D01*
Y460800D01*
X164300D01*
Y460840D01*
X164380D01*
Y460880D01*
X164460D01*
Y460920D01*
X164540D01*
Y460960D01*
X164620D01*
Y461000D01*
X164700D01*
Y461040D01*
X164780D01*
Y461080D01*
X164860D01*
Y461120D01*
X164940D01*
Y461160D01*
X165020D01*
Y461200D01*
X165100D01*
Y461240D01*
X165140D01*
Y461280D01*
X165220D01*
Y461320D01*
X165300D01*
Y461360D01*
X165380D01*
Y461400D01*
X165460D01*
Y461440D01*
X165500D01*
Y461480D01*
X165580D01*
Y461520D01*
X165660D01*
Y461560D01*
X165740D01*
Y461600D01*
X165780D01*
Y461640D01*
X165860D01*
Y461680D01*
X165940D01*
Y461720D01*
X165980D01*
Y461760D01*
X166060D01*
Y461800D01*
X166140D01*
Y461840D01*
X166180D01*
Y461880D01*
X166260D01*
Y461920D01*
X166300D01*
Y461960D01*
X166380D01*
Y462000D01*
X166460D01*
Y462040D01*
X166500D01*
Y462080D01*
X166580D01*
Y462120D01*
X166620D01*
Y462160D01*
X166700D01*
Y462200D01*
X166740D01*
Y462240D01*
X166820D01*
Y462280D01*
X166860D01*
Y462320D01*
X166940D01*
Y462360D01*
X166980D01*
Y462400D01*
X167060D01*
Y462440D01*
X167100D01*
Y462480D01*
X167180D01*
Y462520D01*
X167220D01*
Y462560D01*
X167300D01*
Y462600D01*
X167340D01*
Y462640D01*
X167380D01*
Y462680D01*
X167460D01*
Y462720D01*
X167500D01*
Y462760D01*
X167540D01*
Y462800D01*
X167620D01*
Y462840D01*
X167660D01*
Y462880D01*
X167700D01*
Y462920D01*
X167780D01*
Y462960D01*
X167820D01*
Y463000D01*
X167860D01*
Y463040D01*
X167940D01*
Y463080D01*
X167980D01*
Y463120D01*
X168020D01*
Y463160D01*
X168100D01*
Y463200D01*
X168140D01*
Y463240D01*
X168180D01*
Y463280D01*
X168220D01*
Y463320D01*
X168300D01*
Y463440D01*
X168260D01*
Y463600D01*
X168220D01*
Y463720D01*
X168180D01*
Y463880D01*
X168140D01*
Y464040D01*
X168100D01*
Y464160D01*
X168060D01*
Y464320D01*
X168020D01*
Y464440D01*
X167980D01*
Y464600D01*
X167940D01*
Y464760D01*
X167900D01*
Y464880D01*
X167820D01*
Y464920D01*
X167660D01*
Y464960D01*
X167540D01*
Y465000D01*
X167420D01*
Y465040D01*
X167260D01*
Y465080D01*
X167140D01*
Y465120D01*
X166980D01*
Y465160D01*
X166860D01*
Y465200D01*
X166700D01*
Y465240D01*
X166580D01*
Y465280D01*
X166460D01*
Y465320D01*
X166300D01*
Y465360D01*
X166180D01*
Y465400D01*
X166020D01*
Y465440D01*
X165900D01*
Y465480D01*
X165740D01*
Y465520D01*
X165620D01*
Y465560D01*
X165460D01*
Y465600D01*
X165340D01*
Y465640D01*
X165180D01*
Y465680D01*
X165060D01*
Y465720D01*
X164900D01*
Y465760D01*
X164780D01*
Y465800D01*
X164660D01*
Y465840D01*
X164500D01*
Y465880D01*
X164380D01*
Y465920D01*
X164220D01*
Y465960D01*
X164100D01*
Y466000D01*
X163940D01*
Y466040D01*
X163820D01*
Y466080D01*
X163660D01*
Y466120D01*
X163540D01*
Y466160D01*
X163380D01*
Y466200D01*
X163260D01*
Y466240D01*
X163140D01*
Y466280D01*
X162980D01*
Y466320D01*
X162860D01*
Y466360D01*
X162700D01*
Y466400D01*
D02*
G37*
G36*
X77822Y64570D02*
X77115D01*
Y64217D01*
X77822D01*
Y64570D01*
D02*
G37*
G36*
X77115Y64217D02*
X76761D01*
Y63863D01*
X77115D01*
Y64217D01*
D02*
G37*
G36*
X46713D02*
X46360D01*
Y63863D01*
X46713D01*
Y64217D01*
D02*
G37*
G36*
X84185Y53611D02*
X83831D01*
Y53258D01*
X84185D01*
Y53611D01*
D02*
G37*
%LPD*%
D11*
X188986Y247250D02*
G03*
X188986Y247250I-2236J0D01*
G01*
X286486Y302500D02*
G03*
X286486Y302500I-2236J0D01*
G01*
X72750Y180750D02*
G03*
X66500Y191750I-8625J2375D01*
G01*
X293500Y324500D02*
G03*
X293500Y324500I-1000J0D01*
G01*
X173750Y225500D02*
G03*
X173750Y225500I-1000J0D01*
G01*
X186750Y312250D02*
X192750Y318250D01*
X186750Y308250D02*
Y312250D01*
X192750Y231250D02*
X203750D01*
X186750Y237250D02*
X192750Y231250D01*
X186750Y237250D02*
Y240250D01*
X192750Y318250D02*
X233750D01*
X203750Y231250D02*
X233750D01*
Y254250D01*
Y295250D02*
Y318250D01*
X186750Y298250D02*
Y308250D01*
Y240250D02*
Y254250D01*
X278250Y231500D02*
X284250Y237500D01*
Y241500D01*
X267250Y318500D02*
X278250D01*
X284250Y312500D01*
Y309500D02*
Y312500D01*
X237250Y231500D02*
X278250D01*
X237250Y318500D02*
X267250D01*
X237250Y295500D02*
Y318500D01*
Y231500D02*
Y254500D01*
X284250Y241500D02*
Y251500D01*
Y295500D02*
Y309500D01*
X70500Y182000D02*
X71750Y180750D01*
X72750D01*
X72750D02*
X75250D01*
X57250Y145250D02*
X69500Y157500D01*
Y177250D01*
X58750Y224500D02*
X69500Y213750D01*
Y195000D02*
Y213750D01*
X66250Y184250D02*
X74250Y192250D01*
X65000Y184250D02*
X66250D01*
X58750D02*
X65000D01*
X6250Y308500D02*
Y312250D01*
X10000Y305750D02*
Y315000D01*
X14500Y302750D02*
Y318250D01*
X14750Y310250D02*
X21750D01*
X286500Y318500D02*
Y331500D01*
Y215500D02*
Y229500D01*
X337500Y336500D02*
Y374500D01*
X332500Y331500D02*
X337500Y336500D01*
X286500Y331500D02*
X332500D01*
X291500Y215500D02*
X332500D01*
X337500Y210500D01*
Y175500D02*
Y210500D01*
X332500Y379500D02*
X337500Y374500D01*
X332500Y170500D02*
X337500Y175500D01*
X281500Y170500D02*
X332500D01*
X281500Y336500D02*
X286500Y331500D01*
X281500Y210500D02*
X286500Y215500D01*
X281500Y170500D02*
Y210500D01*
X286500Y215500D02*
X291500D01*
X281500Y336500D02*
Y373500D01*
X287500Y379500D01*
X332500D01*
X132750Y170500D02*
X177750D01*
X183750Y176500D01*
Y213500D01*
X173750Y334500D02*
X178750D01*
X183750Y339500D02*
Y379500D01*
X178750Y334500D02*
X183750Y339500D01*
X178750Y218500D02*
X183750Y213500D01*
X132750Y379500D02*
X183750D01*
X127750Y374500D02*
X132750Y379500D01*
X127750Y175500D02*
X132750Y170500D01*
X127750Y339500D02*
Y374500D01*
Y339500D02*
X132750Y334500D01*
X173750D01*
X132750Y218500D02*
X178750D01*
X127750Y213500D02*
X132750Y218500D01*
X127750Y175500D02*
Y213500D01*
X178750Y320500D02*
Y334500D01*
Y218500D02*
Y231500D01*
X22525Y174290D02*
X7290D01*
Y181908D01*
X9829Y184447D01*
X12368D01*
X14907Y181908D01*
Y174290D01*
Y181908D01*
X17447Y184447D01*
X19986D01*
X22525Y181908D01*
Y174290D01*
X14907Y189525D02*
Y199682D01*
X19986Y194603D02*
X9829D01*
X22775Y119790D02*
X12618D01*
X7540Y124868D01*
X12618Y129947D01*
X22775D01*
X20236Y145182D02*
X22775Y142643D01*
Y137564D01*
X20236Y135025D01*
X10079D01*
X7540Y137564D01*
Y142643D01*
X10079Y145182D01*
X20236Y160417D02*
X22775Y157878D01*
Y152799D01*
X20236Y150260D01*
X10079D01*
X7540Y152799D01*
Y157878D01*
X10079Y160417D01*
X7040Y214040D02*
X22275D01*
X7040Y224197D01*
X22275D01*
X19736Y239432D02*
X22275Y236893D01*
Y231814D01*
X19736Y229275D01*
X9579D01*
X7040Y231814D01*
Y236893D01*
X9579Y239432D01*
X19960Y270368D02*
X9803D01*
X14882Y275447D02*
Y265290D01*
X439210Y510206D02*
Y518203D01*
X435211D01*
X433878Y516870D01*
Y514204D01*
X435211Y512872D01*
X439210D01*
X431213Y510206D02*
X428547D01*
X429880D01*
Y518203D01*
X431213D01*
X423215Y515537D02*
X420549D01*
X419216Y514204D01*
Y510206D01*
X423215D01*
X424548Y511539D01*
X423215Y512872D01*
X419216D01*
X411219Y515537D02*
X415218D01*
X416551Y514204D01*
Y511539D01*
X415218Y510206D01*
X411219D01*
X407220Y515537D02*
X404554D01*
X403222Y514204D01*
Y510206D01*
X407220D01*
X408553Y511539D01*
X407220Y512872D01*
X403222D01*
X387227Y518203D02*
Y510206D01*
X391226D01*
X392558Y511539D01*
Y514204D01*
X391226Y515537D01*
X387227D01*
X380562Y510206D02*
X383228D01*
X384561Y511539D01*
Y514204D01*
X383228Y515537D01*
X380562D01*
X379229Y514204D01*
Y512872D01*
X384561D01*
X363234Y516870D02*
X364567Y518203D01*
X367233D01*
X368566Y516870D01*
Y511539D01*
X367233Y510206D01*
X364567D01*
X363234Y511539D01*
X359236Y510206D02*
X356570D01*
X355237Y511539D01*
Y514204D01*
X356570Y515537D01*
X359236D01*
X360569Y514204D01*
Y511539D01*
X359236Y510206D01*
X352571D02*
Y515537D01*
X348573D01*
X347240Y514204D01*
Y510206D01*
X343241Y516870D02*
Y515537D01*
X344574D01*
X341908D01*
X343241D01*
Y511539D01*
X341908Y510206D01*
X337909Y515537D02*
Y510206D01*
Y512872D01*
X336576Y514204D01*
X335243Y515537D01*
X333911D01*
X328579Y510206D02*
X325913D01*
X324580Y511539D01*
Y514204D01*
X325913Y515537D01*
X328579D01*
X329912Y514204D01*
Y511539D01*
X328579Y510206D01*
X321914D02*
X319249D01*
X320582D01*
Y518203D01*
X321914D01*
X311251Y510206D02*
X313917D01*
X315250Y511539D01*
Y514204D01*
X313917Y515537D01*
X311251D01*
X309918Y514204D01*
Y512872D01*
X315250D01*
X299255Y514204D02*
X293923D01*
X283260Y518203D02*
Y512872D01*
X280595Y510206D01*
X277929Y512872D01*
Y518203D01*
X271264Y510206D02*
X273930D01*
X275263Y511539D01*
Y514204D01*
X273930Y515537D01*
X271264D01*
X269931Y514204D01*
Y512872D01*
X275263D01*
X267265Y515537D02*
Y510206D01*
Y512872D01*
X265933Y514204D01*
X264600Y515537D01*
X263267D01*
X259268D02*
Y511539D01*
X257935Y510206D01*
X253936D01*
Y508873D01*
X255269Y507540D01*
X256602D01*
X253936Y510206D02*
Y515537D01*
X237942Y516870D02*
X239275Y518203D01*
X241940D01*
X243273Y516870D01*
Y515537D01*
X241940Y514204D01*
X239275D01*
X237942Y512872D01*
Y511539D01*
X239275Y510206D01*
X241940D01*
X243273Y511539D01*
X235276Y510206D02*
Y515537D01*
X233943D01*
X232610Y514204D01*
Y510206D01*
Y514204D01*
X231277Y515537D01*
X229944Y514204D01*
Y510206D01*
X225945Y515537D02*
X223280D01*
X221947Y514204D01*
Y510206D01*
X225945D01*
X227278Y511539D01*
X225945Y512872D01*
X221947D01*
X219281Y510206D02*
X216615D01*
X217948D01*
Y518203D01*
X219281D01*
X212616Y510206D02*
X209951D01*
X211283D01*
Y518203D01*
X212616D01*
X192623Y516870D02*
X193956Y518203D01*
X196622D01*
X197955Y516870D01*
Y515537D01*
X196622Y514204D01*
X193956D01*
X192623Y512872D01*
Y511539D01*
X193956Y510206D01*
X196622D01*
X197955Y511539D01*
X189957Y510206D02*
X187291D01*
X188624D01*
Y515537D01*
X189957D01*
X183293D02*
X177961D01*
X183293Y510206D01*
X177961D01*
X171296D02*
X173962D01*
X175295Y511539D01*
Y514204D01*
X173962Y515537D01*
X171296D01*
X169963Y514204D01*
Y512872D01*
X175295D01*
X153969Y516870D02*
X155302Y518203D01*
X157967D01*
X159300Y516870D01*
Y515537D01*
X157967Y514204D01*
X155302D01*
X153969Y512872D01*
Y511539D01*
X155302Y510206D01*
X157967D01*
X159300Y511539D01*
X149970Y510206D02*
X147304D01*
X145971Y511539D01*
Y514204D01*
X147304Y515537D01*
X149970D01*
X151303Y514204D01*
Y511539D01*
X149970Y510206D01*
X137974Y515537D02*
X141973D01*
X143305Y514204D01*
Y511539D01*
X141973Y510206D01*
X137974D01*
X129976Y515537D02*
X133975D01*
X135308Y514204D01*
Y511539D01*
X133975Y510206D01*
X129976D01*
X123312D02*
X125978D01*
X127311Y511539D01*
Y514204D01*
X125978Y515537D01*
X123312D01*
X121979Y514204D01*
Y512872D01*
X127311D01*
X119313Y515537D02*
Y510206D01*
Y512872D01*
X117980Y514204D01*
X116647Y515537D01*
X115315D01*
X162710Y15037D02*
Y8372D01*
X159378Y5040D01*
X156046Y8372D01*
Y15037D01*
X152713Y5040D02*
X149381D01*
X151047D01*
Y15037D01*
X152713Y13371D01*
X144383Y5040D02*
Y6706D01*
X142716D01*
Y5040D01*
X144383D01*
X136052Y13371D02*
X134386Y15037D01*
X131053D01*
X129387Y13371D01*
Y11704D01*
X131053Y10038D01*
X132720D01*
X131053D01*
X129387Y8372D01*
Y6706D01*
X131053Y5040D01*
X134386D01*
X136052Y6706D01*
X126055Y5040D02*
Y6706D01*
X124389D01*
Y5040D01*
X126055D01*
X112726D02*
Y15037D01*
X117725Y10038D01*
X111060D01*
X213819Y222868D02*
Y207632D01*
X218897Y212711D01*
X223976Y207632D01*
Y222868D01*
X229054Y207632D02*
X239211D01*
X234132D01*
Y222868D01*
X244289D02*
Y207632D01*
X251907D01*
X254446Y210172D01*
Y215250D01*
X251907Y217789D01*
X244289D01*
X249368D02*
X254446Y222868D01*
X269681D02*
X259524D01*
X269681Y212711D01*
Y210172D01*
X267142Y207632D01*
X262063D01*
X259524Y210172D01*
X247392Y329882D02*
Y345117D01*
X242313Y340039D01*
X237235Y345117D01*
Y329882D01*
X232157Y345117D02*
X222000D01*
X227078D01*
Y329882D01*
X216922D02*
Y345117D01*
X209304D01*
X206765Y342578D01*
Y337500D01*
X209304Y334961D01*
X216922D01*
X211843D02*
X206765Y329882D01*
X201686D02*
X196608D01*
X199147D01*
Y345117D01*
X201686Y342578D01*
X313039Y402868D02*
X323196D01*
Y387632D01*
X313039D01*
X323196Y395250D02*
X318118D01*
X297804Y387632D02*
X307961D01*
X297804Y397789D01*
Y400328D01*
X300343Y402868D01*
X305422D01*
X307961Y400328D01*
X161250Y403867D02*
X171407D01*
Y388633D01*
X161250D01*
X171407Y396250D02*
X166328D01*
X156172Y388633D02*
X151093D01*
X153632D01*
Y403867D01*
X156172Y401328D01*
D47*
X131235Y25250D02*
Y35407D01*
Y30328D01*
X116000D01*
Y48103D02*
Y43024D01*
X118539Y40485D01*
X123618D01*
X126157Y43024D01*
Y48103D01*
X123618Y50642D01*
X121078D01*
Y40485D01*
X126157Y58259D02*
Y63338D01*
X123618Y65877D01*
X116000D01*
Y58259D01*
X118539Y55720D01*
X121078Y58259D01*
Y65877D01*
X116000Y70955D02*
X126157D01*
Y73494D01*
X123618Y76034D01*
X116000D01*
X123618D01*
X126157Y78573D01*
X123618Y81112D01*
X116000D01*
X153235Y25250D02*
Y35407D01*
Y30328D01*
X138000D01*
Y40485D02*
Y45563D01*
Y43024D01*
X148157D01*
Y40485D01*
X150696Y55720D02*
X148157D01*
Y53181D01*
Y58259D01*
Y55720D01*
X140539D01*
X138000Y58259D01*
X148157Y68416D02*
Y73494D01*
X145618Y76034D01*
X138000D01*
Y68416D01*
X140539Y65877D01*
X143078Y68416D01*
Y76034D01*
X138000Y81112D02*
X148157D01*
Y88729D01*
X145618Y91269D01*
X138000D01*
Y96347D02*
Y103965D01*
X140539Y106504D01*
X143078Y103965D01*
Y98886D01*
X145618Y96347D01*
X148157Y98886D01*
Y106504D01*
D48*
X429303Y545853D02*
X439460D01*
Y530618D01*
X429303D01*
X439460Y538236D02*
X434382D01*
X414068Y525540D02*
Y540775D01*
X421686D01*
X424225Y538236D01*
Y533158D01*
X421686Y530618D01*
X414068D01*
X408990Y540775D02*
Y533158D01*
X406451Y530618D01*
X398833D01*
Y540775D01*
X393755Y530618D02*
X388676D01*
X391216D01*
Y540775D01*
X393755D01*
X381059Y525540D02*
Y540775D01*
X373441D01*
X370902Y538236D01*
Y533158D01*
X373441Y530618D01*
X381059D01*
X358206D02*
X363285D01*
X365824Y533158D01*
Y538236D01*
X363285Y540775D01*
X358206D01*
X355667Y538236D01*
Y535697D01*
X365824D01*
X325197Y545853D02*
Y530618D01*
X332814D01*
X335354Y533158D01*
Y538236D01*
X332814Y540775D01*
X325197D01*
X312501Y530618D02*
X317579D01*
X320119Y533158D01*
Y538236D01*
X317579Y540775D01*
X312501D01*
X309962Y538236D01*
Y535697D01*
X320119D01*
X289648Y530618D02*
Y545853D01*
X282031D01*
X279492Y543314D01*
Y538236D01*
X282031Y535697D01*
X289648D01*
X284570D02*
X279492Y530618D01*
X271874D02*
X266796D01*
X264257Y533158D01*
Y538236D01*
X266796Y540775D01*
X271874D01*
X274413Y538236D01*
Y533158D01*
X271874Y530618D01*
X259178Y545853D02*
Y530618D01*
X251561D01*
X249022Y533158D01*
Y535697D01*
Y538236D01*
X251561Y540775D01*
X259178D01*
X241404Y530618D02*
X236326D01*
X233787Y533158D01*
Y538236D01*
X236326Y540775D01*
X241404D01*
X243943Y538236D01*
Y533158D01*
X241404Y530618D01*
X226169Y543314D02*
Y540775D01*
X228708D01*
X223630D01*
X226169D01*
Y533158D01*
X223630Y530618D01*
X216012D02*
X210934D01*
X213473D01*
Y540775D01*
X216012D01*
X193160D02*
X200777D01*
X203316Y538236D01*
Y533158D01*
X200777Y530618D01*
X193160D01*
X185542Y540775D02*
X180464D01*
X177925Y538236D01*
Y530618D01*
X185542D01*
X188081Y533158D01*
X185542Y535697D01*
X177925D01*
X157611Y545853D02*
X147454D01*
X152533D01*
Y530618D01*
X142376D02*
X137298D01*
X139837D01*
Y540775D01*
X142376D01*
X127141Y543314D02*
Y540775D01*
X129680D01*
X124602D01*
X127141D01*
Y533158D01*
X124602Y530618D01*
X114445Y540775D02*
X109367D01*
X106828Y538236D01*
Y530618D01*
X114445D01*
X116984Y533158D01*
X114445Y535697D01*
X106828D01*
X101749Y530618D02*
Y540775D01*
X94132D01*
X91593Y538236D01*
Y530618D01*
X86514D02*
X78897D01*
X76357Y533158D01*
X78897Y535697D01*
X83975D01*
X86514Y538236D01*
X83975Y540775D01*
X76357D01*
M02*
