G04*
G04 #@! TF.GenerationSoftware,Altium Limited,Altium Designer,25.4.2 (15)*
G04*
G04 Layer_Color=16711935*
%FSLAX44Y44*%
%MOMM*%
G71*
G04*
G04 #@! TF.SameCoordinates,0EA34F5E-7CD8-41F1-BF26-68A60DD3863B*
G04*
G04*
G04 #@! TF.FilePolarity,Negative*
G04*
G01*
G75*
%ADD18C,1.5532*%
%ADD19R,1.5532X1.5532*%
%ADD20R,2.7032X2.2032*%
%ADD21O,2.7032X2.2032*%
%ADD22R,2.2032X2.7032*%
%ADD23O,2.2032X2.7032*%
%ADD24C,1.7032*%
%ADD25R,1.7032X1.7032*%
%ADD26C,2.3532*%
%ADD27R,2.3532X2.3532*%
%ADD28C,1.6032*%
%ADD29R,1.6032X1.6032*%
%ADD30R,1.5532X1.5532*%
%ADD31C,1.4732*%
D18*
X247750Y30500D02*
D03*
Y79750D02*
D03*
X46250Y374750D02*
D03*
D19*
X197750Y30500D02*
D03*
Y79750D02*
D03*
D20*
X106500Y136700D02*
D03*
X360500D02*
D03*
D21*
X106500Y162100D02*
D03*
Y187500D02*
D03*
Y238300D02*
D03*
Y263700D02*
D03*
Y289100D02*
D03*
Y314500D02*
D03*
Y339900D02*
D03*
Y365300D02*
D03*
Y390700D02*
D03*
Y416100D02*
D03*
Y441500D02*
D03*
Y466900D02*
D03*
Y492300D02*
D03*
Y212900D02*
D03*
X360500Y162100D02*
D03*
Y187500D02*
D03*
Y212900D02*
D03*
Y238300D02*
D03*
Y263700D02*
D03*
Y289100D02*
D03*
Y314500D02*
D03*
Y339900D02*
D03*
Y365300D02*
D03*
Y390700D02*
D03*
Y416100D02*
D03*
Y441500D02*
D03*
Y466900D02*
D03*
Y492300D02*
D03*
D22*
X221250Y416100D02*
D03*
D23*
X195850D02*
D03*
X170450D02*
D03*
X145050D02*
D03*
X221250Y274600D02*
D03*
X195850D02*
D03*
X170450D02*
D03*
X145050D02*
D03*
X310850Y443400D02*
D03*
X285450D02*
D03*
D24*
X221250Y302000D02*
D03*
Y245000D02*
D03*
X407500Y339900D02*
D03*
Y365300D02*
D03*
Y390700D02*
D03*
Y416100D02*
D03*
Y441500D02*
D03*
Y466900D02*
D03*
Y492300D02*
D03*
X141750Y357060D02*
D03*
X167150D02*
D03*
X244000Y245000D02*
D03*
Y302000D02*
D03*
X323500Y192940D02*
D03*
X298100D02*
D03*
Y355500D02*
D03*
X323500D02*
D03*
X167150Y194500D02*
D03*
X141750D02*
D03*
D25*
X407500Y314500D02*
D03*
D26*
X40750Y223850D02*
D03*
Y184250D02*
D03*
X39250Y310500D02*
D03*
D27*
X40750Y144650D02*
D03*
X39250Y270900D02*
D03*
D28*
X43750Y529701D02*
D03*
D29*
Y504300D02*
D03*
D30*
X46250Y464750D02*
D03*
D31*
X67750Y346000D02*
D03*
X322500Y272500D02*
D03*
X401500Y53000D02*
D03*
X297500Y313500D02*
D03*
X305750Y17750D02*
D03*
X400626Y246080D02*
D03*
M02*
