G04*
G04 #@! TF.GenerationSoftware,Altium Limited,Altium Designer,25.4.2 (15)*
G04*
G04 Layer_Color=32768*
%FSLAX44Y44*%
%MOMM*%
G71*
G04*
G04 #@! TF.SameCoordinates,3DD580B5-EB9C-4BB7-A259-C10CE48ABDDF*
G04*
G04*
G04 #@! TF.FilePolarity,Positive*
G04*
G01*
G75*
%ADD49C,0.1000*%
%ADD50C,0.0500*%
D49*
X48250Y184250D02*
X58250D01*
X53250Y179250D02*
Y189250D01*
X48250Y290700D02*
X58250D01*
X53250Y285700D02*
Y295700D01*
X38750Y517000D02*
X48750D01*
X43750Y512000D02*
Y522000D01*
X46250Y414750D02*
Y424750D01*
X41250Y419750D02*
X51250D01*
X93000Y51250D02*
Y61250D01*
X88000Y56250D02*
X98000D01*
D50*
X750Y244350D02*
X87750D01*
Y124150D02*
Y244350D01*
X750Y124150D02*
X87750D01*
X750D02*
Y244350D01*
X18250Y331000D02*
X88250D01*
X18250Y318500D02*
Y331000D01*
X1250Y318500D02*
X18250D01*
X88250Y250400D02*
Y331000D01*
X18250Y250400D02*
X88250D01*
X18250D02*
Y262900D01*
X1250D02*
X18250D01*
X1250D02*
Y318500D01*
X23760Y537700D02*
X63740D01*
Y496300D02*
Y537700D01*
X23760Y496300D02*
Y537700D01*
Y496300D02*
X63740D01*
X33250Y472500D02*
X59250D01*
X33250Y367000D02*
Y472500D01*
X59250Y367000D02*
Y472500D01*
X33250Y367000D02*
X59250D01*
X12000Y109250D02*
X174000D01*
X12000Y3250D02*
X174000D01*
X12000D02*
Y109250D01*
X174000Y3250D02*
Y109250D01*
M02*
