G04*
G04 #@! TF.GenerationSoftware,Altium Limited,Altium Designer,25.4.2 (15)*
G04*
G04 Layer_Color=12632256*
%FSLAX44Y44*%
%MOMM*%
G71*
G04*
G04 #@! TF.SameCoordinates,D781D73C-FE54-440B-B5B4-6B714C508266*
G04*
G04*
G04 #@! TF.FilePolarity,Positive*
G04*
G01*
G75*
%ADD13C,1.5000*%
%ADD14C,1.3500*%
%ADD15R,1.3500X1.3500*%
%ADD16O,2.0000X2.5000*%
%ADD17R,2.0000X2.5000*%
%ADD18R,1.5000X1.5000*%
%ADD19O,2.5000X2.0000*%
%ADD20R,2.5000X2.0000*%
%ADD21C,2.1500*%
%ADD22R,2.1500X2.1500*%
%ADD23C,1.4000*%
%ADD24R,1.4000X1.4000*%
%ADD25R,1.3500X1.3500*%
D13*
X1743218Y529226D02*
D03*
Y590780D02*
D03*
X1765968D02*
D03*
Y529226D02*
D03*
X1929468Y624126D02*
D03*
Y649526D02*
D03*
Y674926D02*
D03*
Y700326D02*
D03*
Y725726D02*
D03*
Y751126D02*
D03*
Y776526D02*
D03*
X1663718Y641286D02*
D03*
X1689118D02*
D03*
X1845468Y478726D02*
D03*
X1820068D02*
D03*
Y641286D02*
D03*
X1845468D02*
D03*
X1689118Y478726D02*
D03*
X1663718D02*
D03*
X2203278Y529226D02*
D03*
Y590780D02*
D03*
X2226028D02*
D03*
Y529226D02*
D03*
X2389528Y624126D02*
D03*
Y649526D02*
D03*
Y674926D02*
D03*
Y700326D02*
D03*
Y725726D02*
D03*
Y751126D02*
D03*
Y776526D02*
D03*
X2123778Y641286D02*
D03*
X2149178D02*
D03*
X2305528Y478726D02*
D03*
X2280128D02*
D03*
Y641286D02*
D03*
X2305528D02*
D03*
X2149178Y478726D02*
D03*
X2123778D02*
D03*
D14*
X1769718Y314726D02*
D03*
Y363976D02*
D03*
X1568218Y658976D02*
D03*
X2229778Y314726D02*
D03*
Y363976D02*
D03*
X2028278Y658976D02*
D03*
D15*
X1719718Y314726D02*
D03*
Y363976D02*
D03*
X2179778Y314726D02*
D03*
Y363976D02*
D03*
D16*
X1807418Y753026D02*
D03*
X1832818D02*
D03*
X1667018Y558826D02*
D03*
X1692418D02*
D03*
X1717818D02*
D03*
X1743218D02*
D03*
X1667018Y712226D02*
D03*
X1692418D02*
D03*
X1717818D02*
D03*
X2267478Y753026D02*
D03*
X2292878D02*
D03*
X2127078Y558826D02*
D03*
X2152478D02*
D03*
X2177878D02*
D03*
X2203278D02*
D03*
X2127078Y712226D02*
D03*
X2152478D02*
D03*
X2177878D02*
D03*
D17*
X1743218D02*
D03*
X2203278D02*
D03*
D18*
X1929468Y598726D02*
D03*
X2389528D02*
D03*
D19*
X1882468Y776526D02*
D03*
Y751126D02*
D03*
Y725726D02*
D03*
Y700326D02*
D03*
Y674926D02*
D03*
Y649526D02*
D03*
Y624126D02*
D03*
Y598726D02*
D03*
Y573326D02*
D03*
Y547926D02*
D03*
Y522526D02*
D03*
Y497126D02*
D03*
Y471726D02*
D03*
Y446326D02*
D03*
X1628468Y497126D02*
D03*
Y776526D02*
D03*
Y751126D02*
D03*
Y725726D02*
D03*
Y700326D02*
D03*
Y674926D02*
D03*
Y649526D02*
D03*
Y624126D02*
D03*
Y598726D02*
D03*
Y573326D02*
D03*
Y547926D02*
D03*
Y522526D02*
D03*
Y471726D02*
D03*
Y446326D02*
D03*
X2342528Y776526D02*
D03*
Y751126D02*
D03*
Y725726D02*
D03*
Y700326D02*
D03*
Y674926D02*
D03*
Y649526D02*
D03*
Y624126D02*
D03*
Y598726D02*
D03*
Y573326D02*
D03*
Y547926D02*
D03*
Y522526D02*
D03*
Y497126D02*
D03*
Y471726D02*
D03*
Y446326D02*
D03*
X2088528Y497126D02*
D03*
Y776526D02*
D03*
Y751126D02*
D03*
Y725726D02*
D03*
Y700326D02*
D03*
Y674926D02*
D03*
Y649526D02*
D03*
Y624126D02*
D03*
Y598726D02*
D03*
Y573326D02*
D03*
Y547926D02*
D03*
Y522526D02*
D03*
Y471726D02*
D03*
Y446326D02*
D03*
D20*
X1882468Y420926D02*
D03*
X1628468D02*
D03*
X2342528D02*
D03*
X2088528D02*
D03*
D21*
X1562718Y508076D02*
D03*
Y468476D02*
D03*
X1561218Y594726D02*
D03*
X2022778Y508076D02*
D03*
Y468476D02*
D03*
X2021278Y594726D02*
D03*
D22*
X1562718Y428876D02*
D03*
X1561218Y555126D02*
D03*
X2022778Y428876D02*
D03*
X2021278Y555126D02*
D03*
D23*
X1565718Y813927D02*
D03*
X2025778D02*
D03*
D24*
X1565718Y788526D02*
D03*
X2025778D02*
D03*
D25*
X1568218Y748976D02*
D03*
X2028278D02*
D03*
M02*
