M48
;Layer_Color=9474304
;FILE_FORMAT=4:4
METRIC,LZ
;TYPE=PLATED
T01F00S00C0.7112
T02F00S00C0.8000
T03F00S00C0.8500
T04F00S00C0.9000
T05F00S00C1.1600
T06F00S00C1.6500
%
T01
X01827718Y00301976
X01923468Y00337226
X02287778Y00301976
X02383528Y00337226
X02382654Y00530306
X02304528Y00556726
X02279528Y00597726
X02055278Y00642976
X01922594Y00530306
X01844468Y00556726
X01819468Y00597726
X01595218Y00642976
T02
X01719718Y00314726
Y00363976
X01769718
Y00314726
X02179778
Y00363976
X02229778
Y00314726
T03
X02028278Y00658976
Y00748976
X01568218
Y00658976
T04
X02389528Y00598726
Y00624126
Y00649526
Y00674926
Y00700326
Y00725726
Y00751126
Y00776526
X02305528Y00641286
X02280128
X02226028Y0059078
X02203278
Y00529226
X02226028
X02280128Y00478726
X02305528
X02149178
X02123778
Y00641286
X02149178
X02025778Y00788526
X01929468Y00776526
Y00751126
Y00725726
Y00700326
Y00674926
Y00649526
Y00624126
Y00598726
X01845468Y00641286
X01820068
X01765968Y0059078
X01743218
Y00529226
X01765968
X01820068Y00478726
X01845468
X01689118
X01663718
Y00641286
X01689118
X01565718Y00788526
Y00813927
X02025778
T05
X02088528Y00420926
Y00446326
Y00471726
Y00497126
Y00522526
Y00547926
Y00573326
Y00598726
Y00624126
Y00649526
Y00674926
Y00700326
Y00725726
Y00751126
Y00776526
X02127078Y00712226
X02152478
X02177878
X02203278
X02267478Y00753026
X02292878
X02342528Y00751126
Y00776526
Y00725726
Y00700326
Y00674926
Y00649526
Y00624126
Y00598726
Y00573326
Y00547926
Y00522526
Y00497126
Y00471726
Y00446326
Y00420926
X02203278Y00558826
X02177878
X02152478
X02127078
X01882468Y00547926
Y00573326
Y00598726
Y00624126
Y00649526
Y00674926
Y00700326
Y00725726
Y00751126
Y00776526
X01832818Y00753026
X01807418
X01743218Y00712226
X01717818
X01692418
X01667018
X01628468Y00700326
Y00725726
Y00751126
Y00776526
Y00674926
Y00649526
Y00624126
Y00598726
Y00573326
Y00547926
Y00522526
Y00497126
Y00471726
Y00446326
Y00420926
X01667018Y00558826
X01692418
X01717818
X01743218
X01882468Y00522526
Y00497126
Y00471726
Y00446326
Y00420926
T06
X02022778Y00428876
Y00468476
Y00508076
X02021278Y00555126
Y00594726
X01561218
Y00555126
X01562718Y00508076
Y00468476
Y00428876
M30
