G04*
G04 #@! TF.GenerationSoftware,Altium Limited,Altium Designer,25.4.2 (15)*
G04*
G04 Layer_Color=16711935*
%FSLAX44Y44*%
%MOMM*%
G71*
G04*
G04 #@! TF.SameCoordinates,D781D73C-FE54-440B-B5B4-6B714C508266*
G04*
G04*
G04 #@! TF.FilePolarity,Positive*
G04*
G01*
G75*
%ADD28C,0.2540*%
%ADD49C,0.0254*%
G36*
X2196773Y844396D02*
X2196119D01*
Y845050D01*
X2196773D01*
Y844396D01*
D02*
G37*
G36*
X1736713D02*
X1736059D01*
Y845050D01*
X1736713D01*
Y844396D01*
D02*
G37*
G36*
X2126582Y382099D02*
X2126396D01*
Y382284D01*
X2126582D01*
Y382099D01*
D02*
G37*
G36*
X1666522D02*
X1666336D01*
Y382284D01*
X1666522D01*
Y382099D01*
D02*
G37*
G36*
X2084948Y336777D02*
X2084595D01*
Y337131D01*
X2084948D01*
Y336777D01*
D02*
G37*
G36*
X1624888D02*
X1624535D01*
Y337131D01*
X1624888D01*
Y336777D01*
D02*
G37*
G36*
X2110477Y332228D02*
X2110046D01*
Y332660D01*
X2110477D01*
Y332228D01*
D02*
G37*
G36*
X1650417D02*
X1649986D01*
Y332660D01*
X1650417D01*
Y332228D01*
D02*
G37*
G36*
X2027327Y299659D02*
X2026974D01*
Y300013D01*
X2027327D01*
Y299659D01*
D02*
G37*
G36*
X1567267D02*
X1566914D01*
Y300013D01*
X1567267D01*
Y299659D01*
D02*
G37*
G36*
X2040102Y286895D02*
X2039671D01*
Y287327D01*
X2040102D01*
Y286895D01*
D02*
G37*
G36*
X1580042D02*
X1579611D01*
Y287327D01*
X1580042D01*
Y286895D01*
D02*
G37*
D28*
X1980758Y242316D02*
X1980758Y869442D01*
X218795Y1400706D02*
X219502Y1400000D01*
X1960125Y49530D02*
X1970281D01*
X1975360Y54608D01*
X1970281Y59687D01*
X1960125D01*
X1967742Y64765D02*
Y74922D01*
X1962664Y90157D02*
X1960125Y87618D01*
Y82539D01*
X1962664Y80000D01*
X1965203D01*
X1967742Y82539D01*
Y87618D01*
X1970281Y90157D01*
X1972820D01*
X1975360Y87618D01*
Y82539D01*
X1972820Y80000D01*
X1965203Y105392D02*
Y97774D01*
X1967742Y95235D01*
X1972820D01*
X1975360Y97774D01*
Y105392D01*
Y113010D02*
Y118088D01*
X1972820Y120627D01*
X1967742D01*
X1965203Y118088D01*
Y113010D01*
X1967742Y110470D01*
X1972820D01*
X1975360Y113010D01*
X1965203Y125705D02*
X1975360D01*
X1970281D01*
X1967742Y128244D01*
X1965203Y130784D01*
Y133323D01*
X1975360Y140940D02*
Y146019D01*
Y143480D01*
X1965203D01*
Y140940D01*
X1975360Y153636D02*
X1965203D01*
Y161254D01*
X1967742Y163793D01*
X1975360D01*
X1980438Y173950D02*
Y176489D01*
X1977899Y179028D01*
X1965203D01*
Y171411D01*
X1967742Y168871D01*
X1972820D01*
X1975360Y171411D01*
Y179028D01*
X1977899Y184107D02*
Y194263D01*
X1960125Y199342D02*
X1975360D01*
Y209498D01*
Y214577D02*
Y219655D01*
Y217116D01*
X1965203D01*
Y214577D01*
X1975360Y227272D02*
X1965203D01*
Y234890D01*
X1967742Y237429D01*
X1975360D01*
Y250125D02*
Y245047D01*
X1972820Y242508D01*
X1967742D01*
X1965203Y245047D01*
Y250125D01*
X1967742Y252664D01*
X1970281D01*
Y242508D01*
X1962157Y859536D02*
X1972313D01*
X1977392Y864614D01*
X1972313Y869693D01*
X1962157D01*
X1969774Y874771D02*
Y884928D01*
X1964696Y900163D02*
X1962157Y897624D01*
Y892545D01*
X1964696Y890006D01*
X1967235D01*
X1969774Y892545D01*
Y897624D01*
X1972313Y900163D01*
X1974852D01*
X1977392Y897624D01*
Y892545D01*
X1974852Y890006D01*
X1967235Y915398D02*
Y907780D01*
X1969774Y905241D01*
X1974852D01*
X1977392Y907780D01*
Y915398D01*
Y923016D02*
Y928094D01*
X1974852Y930633D01*
X1969774D01*
X1967235Y928094D01*
Y923016D01*
X1969774Y920476D01*
X1974852D01*
X1977392Y923016D01*
X1967235Y935711D02*
X1977392D01*
X1972313D01*
X1969774Y938251D01*
X1967235Y940790D01*
Y943329D01*
X1977392Y950946D02*
Y956025D01*
Y953486D01*
X1967235D01*
Y950946D01*
X1977392Y963642D02*
X1967235D01*
Y971260D01*
X1969774Y973799D01*
X1977392D01*
X1982470Y983956D02*
Y986495D01*
X1979931Y989034D01*
X1967235D01*
Y981417D01*
X1969774Y978877D01*
X1974852D01*
X1977392Y981417D01*
Y989034D01*
X1979931Y994112D02*
Y1004269D01*
X1962157Y1009348D02*
X1977392D01*
Y1019504D01*
Y1024583D02*
Y1029661D01*
Y1027122D01*
X1967235D01*
Y1024583D01*
X1977392Y1037279D02*
X1967235D01*
Y1044896D01*
X1969774Y1047435D01*
X1977392D01*
Y1060131D02*
Y1055053D01*
X1974852Y1052514D01*
X1969774D01*
X1967235Y1055053D01*
Y1060131D01*
X1969774Y1062670D01*
X1972313D01*
Y1052514D01*
D49*
X1521968Y284226D02*
X2439548D01*
X1521968Y834226D02*
X2439548D01*
Y284226D02*
Y834226D01*
X1521968Y284226D02*
Y834226D01*
M02*
