G04*
G04 #@! TF.GenerationSoftware,Altium Limited,Altium Designer,25.4.2 (15)*
G04*
G04 Layer_Physical_Order=1*
G04 Layer_Color=255*
%FSLAX44Y44*%
%MOMM*%
G71*
G04*
G04 #@! TF.SameCoordinates,E50F2220-639C-4698-B7CA-9BFD618F9179*
G04*
G04*
G04 #@! TF.FilePolarity,Positive*
G04*
G01*
G75*
%ADD10R,9.0000X10.3500*%
%ADD11R,3.5000X0.9500*%
%ADD12C,0.8000*%
%ADD13C,1.3500*%
%ADD14R,1.3500X1.3500*%
%ADD15O,2.0000X2.5000*%
%ADD16R,2.0000X2.5000*%
%ADD17C,1.5000*%
%ADD18R,1.5000X1.5000*%
%ADD19O,2.5000X2.0000*%
%ADD20R,2.5000X2.0000*%
%ADD21C,2.1500*%
%ADD22R,2.1500X2.1500*%
%ADD23C,1.4000*%
%ADD24R,1.4000X1.4000*%
%ADD25R,1.3500X1.3500*%
%ADD26C,1.2700*%
G36*
X1126286Y1253656D02*
X1128297Y1251036D01*
X1130644Y1249235D01*
Y1225280D01*
X1130869Y1223572D01*
X1131527Y1221982D01*
X1132576Y1220615D01*
X1146194Y1206998D01*
Y1187712D01*
X1138558Y1180076D01*
X1122790D01*
X1121083Y1179852D01*
X1119492Y1179193D01*
X1118126Y1178144D01*
X1095558Y1155576D01*
X1086535D01*
X1084734Y1157924D01*
X1082114Y1159934D01*
X1079557Y1160993D01*
Y1162367D01*
X1082114Y1163426D01*
X1084734Y1165436D01*
X1086744Y1168056D01*
X1088007Y1171106D01*
X1088438Y1174380D01*
X1088430Y1174444D01*
X1098204Y1184218D01*
X1099062Y1185336D01*
X1100441Y1185487D01*
X1100506Y1185375D01*
X1102375Y1183506D01*
X1104665Y1182184D01*
X1107218Y1181500D01*
X1109862D01*
X1112415Y1182184D01*
X1114705Y1183506D01*
X1116574Y1185375D01*
X1117896Y1187665D01*
X1118580Y1190218D01*
Y1192862D01*
X1117896Y1195415D01*
X1116574Y1197705D01*
X1114705Y1199574D01*
X1112415Y1200896D01*
X1109862Y1201580D01*
X1107218D01*
X1104665Y1200896D01*
X1102375Y1199574D01*
X1101406Y1198605D01*
X1100136Y1199131D01*
Y1238947D01*
X1108907Y1247718D01*
X1111840Y1247332D01*
X1115114Y1247763D01*
X1118164Y1249026D01*
X1120784Y1251036D01*
X1122794Y1253656D01*
X1123853Y1256212D01*
X1125228D01*
X1126286Y1253656D01*
D02*
G37*
G36*
X667496D02*
X669507Y1251036D01*
X671854Y1249235D01*
Y1225280D01*
X672078Y1223572D01*
X672738Y1221982D01*
X673786Y1220615D01*
X687404Y1206998D01*
Y1187712D01*
X679768Y1180076D01*
X664000D01*
X662293Y1179852D01*
X660702Y1179193D01*
X659336Y1178144D01*
X636768Y1155576D01*
X627745D01*
X625944Y1157924D01*
X623324Y1159934D01*
X620768Y1160993D01*
Y1162367D01*
X623324Y1163426D01*
X625944Y1165436D01*
X627954Y1168056D01*
X629217Y1171106D01*
X629648Y1174380D01*
X629640Y1174444D01*
X639414Y1184218D01*
X640272Y1185336D01*
X641651Y1185487D01*
X641716Y1185375D01*
X643585Y1183506D01*
X645875Y1182184D01*
X648428Y1181500D01*
X651072D01*
X653625Y1182184D01*
X655915Y1183506D01*
X657784Y1185375D01*
X659106Y1187665D01*
X659790Y1190218D01*
Y1192862D01*
X659106Y1195415D01*
X657784Y1197705D01*
X655915Y1199574D01*
X653625Y1200896D01*
X651072Y1201580D01*
X648428D01*
X645875Y1200896D01*
X643585Y1199574D01*
X642616Y1198605D01*
X641346Y1199131D01*
Y1238947D01*
X650117Y1247718D01*
X653050Y1247332D01*
X656324Y1247763D01*
X659374Y1249026D01*
X661994Y1251036D01*
X664004Y1253656D01*
X665063Y1256212D01*
X666438D01*
X667496Y1253656D01*
D02*
G37*
G36*
X1021944Y1349673D02*
Y1325962D01*
X1011126Y1315145D01*
X1010078Y1313778D01*
X1009418Y1312188D01*
X1009194Y1310480D01*
Y1308520D01*
X1003750D01*
Y1289940D01*
X1022330D01*
Y1300840D01*
X1022387Y1301269D01*
Y1307748D01*
X1033204Y1318566D01*
X1034253Y1319932D01*
X1034912Y1321523D01*
X1035136Y1323230D01*
Y1348749D01*
X1036035Y1349646D01*
X1381540Y1348980D01*
X1424290Y1306230D01*
Y834480D01*
X1224790D01*
Y885980D01*
X1196210D01*
X1195533Y887250D01*
X1195988Y888349D01*
X1196212Y890056D01*
Y1004824D01*
X1252204Y1060816D01*
X1253253Y1062182D01*
X1253912Y1063773D01*
X1254136Y1065480D01*
Y1146794D01*
X1255400Y1146810D01*
X1256006Y1144549D01*
X1257176Y1142521D01*
X1257693Y1142004D01*
Y1060962D01*
X1231876Y1035144D01*
X1230827Y1033778D01*
X1230168Y1032187D01*
X1229944Y1030480D01*
Y913630D01*
X1230168Y911923D01*
X1230827Y910332D01*
X1231876Y908966D01*
X1267876Y872966D01*
X1269242Y871918D01*
X1270833Y871259D01*
X1272540Y871034D01*
X1318528D01*
X1320235Y871259D01*
X1321826Y871918D01*
X1323192Y872966D01*
X1350998Y900772D01*
X1352047Y902138D01*
X1352706Y903729D01*
X1352930Y905436D01*
Y964369D01*
X1353660Y964690D01*
X1354200Y964723D01*
X1355132Y963510D01*
X1362144Y956498D01*
Y893906D01*
X1361176Y892939D01*
X1360006Y890911D01*
X1359400Y888650D01*
Y886310D01*
X1360006Y884049D01*
X1361176Y882021D01*
X1362831Y880366D01*
X1364859Y879196D01*
X1367120Y878590D01*
X1369460D01*
X1371721Y879196D01*
X1373749Y880366D01*
X1375404Y882021D01*
X1376574Y884049D01*
X1377180Y886310D01*
Y888650D01*
X1376574Y890911D01*
X1375404Y892939D01*
X1375337Y893006D01*
Y959230D01*
X1375112Y960937D01*
X1374453Y962528D01*
X1373405Y963894D01*
X1366392Y970907D01*
Y1070208D01*
X1367855Y1071670D01*
X1368586D01*
X1370847Y1072276D01*
X1372875Y1073446D01*
X1374530Y1075101D01*
X1375700Y1077129D01*
X1376306Y1079390D01*
Y1081730D01*
X1375700Y1083991D01*
X1374530Y1086019D01*
X1372875Y1087674D01*
X1370847Y1088844D01*
X1368586Y1089450D01*
X1366246D01*
X1363985Y1088844D01*
X1361957Y1087674D01*
X1360302Y1086019D01*
X1359132Y1083991D01*
X1358526Y1081730D01*
Y1080999D01*
X1355132Y1077604D01*
X1354200Y1076391D01*
X1353660Y1076424D01*
X1352930Y1076745D01*
Y1121405D01*
X1354200Y1121836D01*
X1354370Y1121616D01*
X1381902Y1094084D01*
Y869321D01*
X1371407Y858827D01*
X1278516D01*
X1277999Y859344D01*
X1275971Y860514D01*
X1273710Y861120D01*
X1271369D01*
X1269109Y860514D01*
X1267081Y859344D01*
X1265426Y857689D01*
X1264256Y855662D01*
X1263650Y853401D01*
Y851060D01*
X1264256Y848799D01*
X1265426Y846772D01*
X1267081Y845117D01*
X1269109Y843946D01*
X1271369Y843340D01*
X1273710D01*
X1275971Y843946D01*
X1277999Y845117D01*
X1278516Y845634D01*
X1374140D01*
X1375847Y845859D01*
X1377438Y846518D01*
X1378804Y847566D01*
X1393162Y861924D01*
X1394211Y863290D01*
X1394870Y864881D01*
X1395094Y866588D01*
Y1096816D01*
X1394870Y1098523D01*
X1394211Y1100114D01*
X1393162Y1101480D01*
X1365630Y1129012D01*
Y1138940D01*
X1384330D01*
Y1159020D01*
X1365630D01*
Y1167045D01*
X1366900Y1167571D01*
X1368125Y1166346D01*
X1370415Y1165024D01*
X1372968Y1164340D01*
X1375612D01*
X1378165Y1165024D01*
X1380455Y1166346D01*
X1382324Y1168215D01*
X1383646Y1170505D01*
X1384330Y1173058D01*
Y1175702D01*
X1383646Y1178255D01*
X1382324Y1180545D01*
X1380455Y1182414D01*
X1378165Y1183736D01*
X1375612Y1184420D01*
X1372968D01*
X1370415Y1183736D01*
X1368125Y1182414D01*
X1366900Y1181189D01*
X1365630Y1181715D01*
Y1190636D01*
X1365406Y1192343D01*
X1365105Y1193068D01*
X1366247Y1193631D01*
X1366256Y1193615D01*
X1368125Y1191746D01*
X1370415Y1190424D01*
X1372968Y1189740D01*
X1375612D01*
X1378165Y1190424D01*
X1380455Y1191746D01*
X1382324Y1193615D01*
X1383646Y1195905D01*
X1384330Y1198458D01*
Y1201102D01*
X1383646Y1203655D01*
X1382324Y1205945D01*
X1380455Y1207814D01*
X1378165Y1209136D01*
X1375612Y1209820D01*
X1372968D01*
X1370415Y1209136D01*
X1368125Y1207814D01*
X1366256Y1205945D01*
X1364934Y1203655D01*
X1364250Y1201102D01*
Y1198458D01*
X1364934Y1195905D01*
X1365234Y1195385D01*
X1364176Y1194678D01*
X1363698Y1195300D01*
X1354554Y1204444D01*
X1353188Y1205493D01*
X1351597Y1206152D01*
X1349890Y1206376D01*
X1340535D01*
X1338734Y1208724D01*
X1336114Y1210734D01*
X1333557Y1211793D01*
Y1213167D01*
X1336114Y1214226D01*
X1338734Y1216236D01*
X1340669Y1218758D01*
X1366513D01*
X1368125Y1217146D01*
X1370415Y1215824D01*
X1372968Y1215140D01*
X1375612D01*
X1378165Y1215824D01*
X1380455Y1217146D01*
X1382324Y1219015D01*
X1383646Y1221305D01*
X1384330Y1223858D01*
Y1226502D01*
X1383646Y1229055D01*
X1382324Y1231345D01*
X1380455Y1233214D01*
X1378165Y1234536D01*
X1375612Y1235220D01*
X1372968D01*
X1370415Y1234536D01*
X1368125Y1233214D01*
X1366863Y1231951D01*
X1340401D01*
X1338734Y1234124D01*
X1336114Y1236134D01*
X1333557Y1237193D01*
Y1238567D01*
X1336114Y1239626D01*
X1338734Y1241636D01*
X1340744Y1244256D01*
X1342007Y1247306D01*
X1342438Y1250580D01*
X1342007Y1253854D01*
X1340744Y1256904D01*
X1338734Y1259524D01*
X1336114Y1261534D01*
X1333557Y1262593D01*
Y1263967D01*
X1336114Y1265026D01*
X1338734Y1267036D01*
X1340744Y1269656D01*
X1342007Y1272706D01*
X1342438Y1275980D01*
X1342007Y1279254D01*
X1340744Y1282304D01*
X1338734Y1284924D01*
X1336114Y1286934D01*
X1333557Y1287993D01*
Y1289367D01*
X1336114Y1290426D01*
X1338734Y1292436D01*
X1340744Y1295056D01*
X1342007Y1298106D01*
X1342438Y1301380D01*
X1342007Y1304654D01*
X1340744Y1307704D01*
X1338734Y1310324D01*
X1336114Y1312334D01*
X1333557Y1313393D01*
Y1314767D01*
X1336114Y1315826D01*
X1338734Y1317836D01*
X1340744Y1320456D01*
X1342007Y1323506D01*
X1342438Y1326780D01*
X1342007Y1330054D01*
X1340744Y1333104D01*
X1338734Y1335724D01*
X1336114Y1337734D01*
X1333064Y1338997D01*
X1329790Y1339428D01*
X1324790D01*
X1321517Y1338997D01*
X1318466Y1337734D01*
X1315846Y1335724D01*
X1313836Y1333104D01*
X1312573Y1330054D01*
X1312142Y1326780D01*
X1312573Y1323506D01*
X1313836Y1320456D01*
X1315846Y1317836D01*
X1318466Y1315826D01*
X1321023Y1314767D01*
Y1313393D01*
X1318466Y1312334D01*
X1315846Y1310324D01*
X1313836Y1307704D01*
X1312573Y1304654D01*
X1312142Y1301380D01*
X1312573Y1298106D01*
X1313836Y1295056D01*
X1315846Y1292436D01*
X1318466Y1290426D01*
X1321023Y1289367D01*
Y1287993D01*
X1318466Y1286934D01*
X1315846Y1284924D01*
X1313836Y1282304D01*
X1312573Y1279254D01*
X1312142Y1275980D01*
X1312573Y1272706D01*
X1313836Y1269656D01*
X1315846Y1267036D01*
X1318466Y1265026D01*
X1321023Y1263967D01*
Y1262593D01*
X1318466Y1261534D01*
X1315846Y1259524D01*
X1313836Y1256904D01*
X1312573Y1253854D01*
X1312142Y1250580D01*
X1312573Y1247306D01*
X1313836Y1244256D01*
X1315846Y1241636D01*
X1318466Y1239626D01*
X1321023Y1238567D01*
Y1237193D01*
X1318466Y1236134D01*
X1315846Y1234124D01*
X1313836Y1231504D01*
X1312573Y1228454D01*
X1312142Y1225180D01*
X1312573Y1221906D01*
X1313836Y1218856D01*
X1315846Y1216236D01*
X1318466Y1214226D01*
X1321023Y1213167D01*
Y1211793D01*
X1318466Y1210734D01*
X1315846Y1208724D01*
X1313836Y1206104D01*
X1312573Y1203054D01*
X1312142Y1199780D01*
X1312573Y1196506D01*
X1313836Y1193456D01*
X1315846Y1190836D01*
X1318466Y1188826D01*
X1321023Y1187767D01*
Y1186393D01*
X1318466Y1185334D01*
X1315846Y1183324D01*
X1313836Y1180704D01*
X1312573Y1177654D01*
X1312142Y1174380D01*
X1312573Y1171106D01*
X1313836Y1168056D01*
X1315846Y1165436D01*
X1318466Y1163426D01*
X1321023Y1162367D01*
Y1160993D01*
X1318466Y1159934D01*
X1315846Y1157924D01*
X1313836Y1155304D01*
X1312573Y1152254D01*
X1312142Y1148980D01*
X1312573Y1145706D01*
X1313836Y1142656D01*
X1315846Y1140036D01*
X1318466Y1138026D01*
X1321023Y1136967D01*
Y1135593D01*
X1318466Y1134534D01*
X1315846Y1132524D01*
X1313836Y1129904D01*
X1312573Y1126854D01*
X1312142Y1123580D01*
X1312573Y1120306D01*
X1313836Y1117256D01*
X1315846Y1114636D01*
X1318466Y1112626D01*
X1321023Y1111567D01*
Y1110193D01*
X1318466Y1109134D01*
X1315846Y1107124D01*
X1313836Y1104504D01*
X1312573Y1101454D01*
X1312142Y1098180D01*
X1312573Y1094906D01*
X1313836Y1091856D01*
X1315846Y1089236D01*
X1318466Y1087226D01*
X1321023Y1086167D01*
Y1084793D01*
X1318466Y1083734D01*
X1315846Y1081724D01*
X1314656Y1080173D01*
X1313386Y1080604D01*
Y1085174D01*
X1313162Y1086881D01*
X1312503Y1088472D01*
X1311454Y1089838D01*
X1297610Y1103683D01*
X1298180Y1105810D01*
Y1108150D01*
X1297574Y1110411D01*
X1296404Y1112439D01*
X1294749Y1114094D01*
X1292721Y1115264D01*
X1290460Y1115870D01*
X1288120D01*
X1285859Y1115264D01*
X1283831Y1114094D01*
X1282176Y1112439D01*
X1281006Y1110411D01*
X1280400Y1108150D01*
Y1105810D01*
X1281006Y1103549D01*
X1282176Y1101521D01*
X1283051Y1100647D01*
X1283577Y1099376D01*
X1284626Y1098010D01*
X1300194Y1082442D01*
Y1032887D01*
X1298924Y1032546D01*
X1298324Y1033585D01*
X1296455Y1035454D01*
X1294165Y1036776D01*
X1291612Y1037460D01*
X1288968D01*
X1286415Y1036776D01*
X1284125Y1035454D01*
X1282256Y1033585D01*
X1280934Y1031295D01*
X1280250Y1028742D01*
Y1026098D01*
X1280934Y1023545D01*
X1282256Y1021255D01*
X1284125Y1019386D01*
X1286415Y1018064D01*
X1288968Y1017380D01*
X1291612D01*
X1294165Y1018064D01*
X1296455Y1019386D01*
X1298324Y1021255D01*
X1298924Y1022294D01*
X1300194Y1021954D01*
Y976230D01*
X1300418Y974523D01*
X1301077Y972932D01*
X1302126Y971566D01*
X1306876Y966816D01*
X1308242Y965767D01*
X1309833Y965108D01*
X1311540Y964884D01*
X1312250D01*
Y958640D01*
X1339738D01*
Y908168D01*
X1315796Y884227D01*
X1275272D01*
X1243136Y916363D01*
Y1027748D01*
X1268954Y1053566D01*
X1270003Y1054932D01*
X1270662Y1056523D01*
X1270886Y1058230D01*
Y1142004D01*
X1271404Y1142521D01*
X1272574Y1144549D01*
X1273180Y1146810D01*
Y1149150D01*
X1272574Y1151411D01*
X1271404Y1153439D01*
X1269749Y1155094D01*
X1267721Y1156264D01*
X1265460Y1156870D01*
X1263120D01*
X1260859Y1156264D01*
X1258831Y1155094D01*
X1257176Y1153439D01*
X1256006Y1151411D01*
X1255400Y1149150D01*
X1254136Y1149166D01*
Y1186414D01*
X1255406Y1186581D01*
X1255534Y1186105D01*
X1256856Y1183815D01*
X1258725Y1181946D01*
X1261015Y1180624D01*
X1263568Y1179940D01*
X1266212D01*
X1268765Y1180624D01*
X1271055Y1181946D01*
X1272924Y1183815D01*
X1274246Y1186105D01*
X1274930Y1188658D01*
Y1191302D01*
X1274246Y1193855D01*
X1272924Y1196145D01*
X1271055Y1198014D01*
X1268765Y1199336D01*
X1266212Y1200020D01*
X1263568D01*
X1261015Y1199336D01*
X1258725Y1198014D01*
X1256856Y1196145D01*
X1255534Y1193855D01*
X1255406Y1193379D01*
X1254136Y1193546D01*
Y1207498D01*
X1289304Y1242665D01*
X1290353Y1244032D01*
X1291012Y1245623D01*
X1291236Y1247330D01*
Y1274094D01*
X1291012Y1275801D01*
X1290353Y1277392D01*
X1289304Y1278758D01*
X1283236Y1284826D01*
Y1289525D01*
X1283964Y1289826D01*
X1286584Y1291836D01*
X1288594Y1294456D01*
X1289857Y1297506D01*
X1290288Y1300780D01*
Y1305780D01*
X1289857Y1309054D01*
X1288594Y1312104D01*
X1286584Y1314724D01*
X1283964Y1316734D01*
X1280914Y1317997D01*
X1277640Y1318428D01*
X1274366Y1317997D01*
X1271316Y1316734D01*
X1268696Y1314724D01*
X1266686Y1312104D01*
X1265627Y1309547D01*
X1264253D01*
X1263194Y1312104D01*
X1261184Y1314724D01*
X1258564Y1316734D01*
X1255514Y1317997D01*
X1252240Y1318428D01*
X1248966Y1317997D01*
X1245916Y1316734D01*
X1243296Y1314724D01*
X1241286Y1312104D01*
X1240023Y1309054D01*
X1239592Y1305780D01*
Y1300780D01*
X1240023Y1297506D01*
X1241286Y1294456D01*
X1243296Y1291836D01*
X1245916Y1289826D01*
X1248966Y1288563D01*
X1252240Y1288132D01*
X1255514Y1288563D01*
X1258564Y1289826D01*
X1261184Y1291836D01*
X1263194Y1294456D01*
X1264253Y1297013D01*
X1265627D01*
X1266686Y1294456D01*
X1268696Y1291836D01*
X1270044Y1290803D01*
Y1282094D01*
X1270268Y1280386D01*
X1270927Y1278795D01*
X1271976Y1277429D01*
X1278044Y1271361D01*
Y1250062D01*
X1242876Y1214894D01*
X1241827Y1213528D01*
X1241168Y1211937D01*
X1240944Y1210230D01*
Y1068212D01*
X1237602Y1064871D01*
X1236525Y1065590D01*
X1236912Y1066523D01*
X1237136Y1068230D01*
Y1204480D01*
X1236912Y1206187D01*
X1236253Y1207778D01*
X1235204Y1209144D01*
X1198622Y1245727D01*
Y1247440D01*
X1200580D01*
Y1277520D01*
X1175500D01*
Y1270020D01*
X1174230Y1269768D01*
X1173594Y1271304D01*
X1171584Y1273923D01*
X1168964Y1275934D01*
X1165914Y1277197D01*
X1162640Y1277628D01*
X1159367Y1277197D01*
X1156316Y1275934D01*
X1153697Y1273923D01*
X1151686Y1271304D01*
X1150628Y1268747D01*
X1149253D01*
X1148194Y1271304D01*
X1146184Y1273923D01*
X1143564Y1275934D01*
X1140514Y1277197D01*
X1137240Y1277628D01*
X1133967Y1277197D01*
X1130916Y1275934D01*
X1128297Y1273923D01*
X1126286Y1271304D01*
X1125228Y1268747D01*
X1123853D01*
X1122794Y1271304D01*
X1120784Y1273923D01*
X1118164Y1275934D01*
X1115114Y1277197D01*
X1111840Y1277628D01*
X1108567Y1277197D01*
X1105516Y1275934D01*
X1102896Y1273923D01*
X1100887Y1271304D01*
X1099623Y1268253D01*
X1099192Y1264980D01*
Y1259980D01*
X1099578Y1257047D01*
X1089060Y1246528D01*
X1087983Y1247247D01*
X1088007Y1247306D01*
X1088438Y1250580D01*
X1088007Y1253854D01*
X1086744Y1256904D01*
X1084734Y1259524D01*
X1082114Y1261534D01*
X1079557Y1262593D01*
Y1263967D01*
X1082114Y1265026D01*
X1084734Y1267036D01*
X1086744Y1269656D01*
X1088007Y1272706D01*
X1088438Y1275980D01*
X1088007Y1279254D01*
X1086744Y1282304D01*
X1084734Y1284924D01*
X1082114Y1286934D01*
X1079557Y1287993D01*
Y1289367D01*
X1082114Y1290426D01*
X1084734Y1292436D01*
X1086744Y1295056D01*
X1088007Y1298106D01*
X1088438Y1301380D01*
X1088007Y1304654D01*
X1086744Y1307704D01*
X1084734Y1310324D01*
X1082114Y1312334D01*
X1079557Y1313393D01*
Y1314767D01*
X1082114Y1315826D01*
X1084734Y1317836D01*
X1086744Y1320456D01*
X1088007Y1323506D01*
X1088438Y1326780D01*
X1088007Y1330054D01*
X1086744Y1333104D01*
X1084734Y1335724D01*
X1082114Y1337734D01*
X1079064Y1338997D01*
X1075790Y1339428D01*
X1070790D01*
X1067516Y1338997D01*
X1064466Y1337734D01*
X1061846Y1335724D01*
X1059836Y1333104D01*
X1058573Y1330054D01*
X1058142Y1326780D01*
X1058573Y1323506D01*
X1059836Y1320456D01*
X1061846Y1317836D01*
X1064466Y1315826D01*
X1067023Y1314767D01*
Y1313393D01*
X1064466Y1312334D01*
X1061846Y1310324D01*
X1059836Y1307704D01*
X1058573Y1304654D01*
X1058142Y1301380D01*
X1058573Y1298106D01*
X1059836Y1295056D01*
X1061846Y1292436D01*
X1064466Y1290426D01*
X1067023Y1289367D01*
Y1287993D01*
X1064466Y1286934D01*
X1061846Y1284924D01*
X1059836Y1282304D01*
X1058573Y1279254D01*
X1058142Y1275980D01*
X1058573Y1272706D01*
X1059836Y1269656D01*
X1061846Y1267036D01*
X1064466Y1265026D01*
X1067023Y1263967D01*
Y1262593D01*
X1064466Y1261534D01*
X1061846Y1259524D01*
X1059836Y1256904D01*
X1058573Y1253854D01*
X1058142Y1250580D01*
X1058573Y1247306D01*
X1059836Y1244256D01*
X1061846Y1241636D01*
X1064466Y1239626D01*
X1067023Y1238567D01*
Y1237193D01*
X1064466Y1236134D01*
X1061846Y1234124D01*
X1059836Y1231504D01*
X1058573Y1228454D01*
X1058142Y1225180D01*
X1058573Y1221906D01*
X1059836Y1218856D01*
X1061846Y1216236D01*
X1064466Y1214226D01*
X1067023Y1213167D01*
Y1211793D01*
X1064466Y1210734D01*
X1061846Y1208724D01*
X1059836Y1206104D01*
X1058573Y1203054D01*
X1058142Y1199780D01*
X1058573Y1196506D01*
X1059836Y1193456D01*
X1061846Y1190836D01*
X1064466Y1188826D01*
X1067023Y1187767D01*
Y1186393D01*
X1064466Y1185334D01*
X1061846Y1183324D01*
X1059836Y1180704D01*
X1058573Y1177654D01*
X1058142Y1174380D01*
X1058573Y1171106D01*
X1059836Y1168056D01*
X1061846Y1165436D01*
X1064466Y1163426D01*
X1067023Y1162367D01*
Y1160993D01*
X1064466Y1159934D01*
X1061846Y1157924D01*
X1059836Y1155304D01*
X1058573Y1152254D01*
X1058142Y1148980D01*
X1058573Y1145706D01*
X1059836Y1142656D01*
X1061846Y1140036D01*
X1064466Y1138026D01*
X1067023Y1136967D01*
Y1135593D01*
X1064466Y1134534D01*
X1061846Y1132524D01*
X1059836Y1129904D01*
X1058573Y1126854D01*
X1058142Y1123580D01*
X1058573Y1120306D01*
X1059836Y1117256D01*
X1061846Y1114636D01*
X1064466Y1112626D01*
X1067023Y1111567D01*
Y1110193D01*
X1064466Y1109134D01*
X1061846Y1107124D01*
X1059836Y1104504D01*
X1058573Y1101454D01*
X1058142Y1098180D01*
X1058573Y1094906D01*
X1059836Y1091856D01*
X1061846Y1089236D01*
X1064466Y1087226D01*
X1067023Y1086167D01*
Y1084793D01*
X1064466Y1083734D01*
X1061846Y1081724D01*
X1059836Y1079104D01*
X1058573Y1076054D01*
X1058142Y1072780D01*
X1058573Y1069506D01*
X1059836Y1066456D01*
X1061846Y1063836D01*
X1064466Y1061826D01*
X1067023Y1060767D01*
Y1059393D01*
X1064466Y1058334D01*
X1061846Y1056324D01*
X1059836Y1053704D01*
X1058573Y1050654D01*
X1058142Y1047380D01*
X1058573Y1044106D01*
X1059836Y1041056D01*
X1061846Y1038436D01*
X1064466Y1036426D01*
X1067023Y1035367D01*
Y1033993D01*
X1064466Y1032934D01*
X1061846Y1030924D01*
X1059836Y1028304D01*
X1058573Y1025254D01*
X1058142Y1021980D01*
X1058573Y1018706D01*
X1059836Y1015656D01*
X1061846Y1013036D01*
X1064466Y1011026D01*
X1067023Y1009967D01*
Y1008593D01*
X1064466Y1007534D01*
X1061846Y1005524D01*
X1060045Y1003176D01*
X1051390D01*
X1049683Y1002952D01*
X1048092Y1002293D01*
X1046726Y1001244D01*
X1034876Y989394D01*
X1033827Y988028D01*
X1033168Y986437D01*
X1032944Y984730D01*
Y953980D01*
X975040D01*
X968217Y947157D01*
X967043Y947642D01*
X966790Y1323980D01*
X992540Y1349730D01*
X1021944Y1349673D01*
D02*
G37*
G36*
X563154D02*
Y1325962D01*
X552336Y1315145D01*
X551287Y1313778D01*
X550629Y1312188D01*
X550404Y1310480D01*
Y1308520D01*
X544960D01*
Y1289940D01*
X563540D01*
Y1300840D01*
X563597Y1301269D01*
Y1307748D01*
X574414Y1318566D01*
X575463Y1319932D01*
X576122Y1321523D01*
X576346Y1323230D01*
Y1348749D01*
X577245Y1349646D01*
X922750Y1348980D01*
X965500Y1306230D01*
Y834480D01*
X766000D01*
Y885980D01*
X737420D01*
X736743Y887250D01*
X737198Y888349D01*
X737422Y890056D01*
Y1004824D01*
X793414Y1060816D01*
X794463Y1062182D01*
X795122Y1063773D01*
X795346Y1065480D01*
Y1146794D01*
X796610Y1146810D01*
X797216Y1144549D01*
X798386Y1142521D01*
X798904Y1142004D01*
Y1060962D01*
X773086Y1035144D01*
X772037Y1033778D01*
X771378Y1032187D01*
X771154Y1030480D01*
Y913630D01*
X771378Y911923D01*
X772037Y910332D01*
X773086Y908966D01*
X809085Y872966D01*
X810452Y871918D01*
X812043Y871259D01*
X813750Y871034D01*
X859738D01*
X861445Y871259D01*
X863036Y871918D01*
X864402Y872966D01*
X892208Y900772D01*
X893257Y902138D01*
X893916Y903729D01*
X894140Y905436D01*
Y964369D01*
X894870Y964690D01*
X895410Y964723D01*
X896342Y963510D01*
X903354Y956498D01*
Y893906D01*
X902386Y892939D01*
X901216Y890911D01*
X900610Y888650D01*
Y886310D01*
X901216Y884049D01*
X902386Y882021D01*
X904041Y880366D01*
X906069Y879196D01*
X908330Y878590D01*
X910670D01*
X912931Y879196D01*
X914959Y880366D01*
X916614Y882021D01*
X917784Y884049D01*
X918390Y886310D01*
Y888650D01*
X917784Y890911D01*
X916614Y892939D01*
X916547Y893006D01*
Y959230D01*
X916322Y960937D01*
X915663Y962528D01*
X914614Y963894D01*
X907602Y970907D01*
Y1070208D01*
X909065Y1071670D01*
X909796D01*
X912057Y1072276D01*
X914085Y1073446D01*
X915740Y1075101D01*
X916910Y1077129D01*
X917516Y1079390D01*
Y1081730D01*
X916910Y1083991D01*
X915740Y1086019D01*
X914085Y1087674D01*
X912057Y1088844D01*
X909796Y1089450D01*
X907456D01*
X905195Y1088844D01*
X903167Y1087674D01*
X901512Y1086019D01*
X900342Y1083991D01*
X899736Y1081730D01*
Y1080999D01*
X896342Y1077604D01*
X895410Y1076391D01*
X894870Y1076424D01*
X894140Y1076745D01*
Y1121405D01*
X895410Y1121836D01*
X895580Y1121616D01*
X923112Y1094084D01*
Y869321D01*
X912618Y858827D01*
X819726D01*
X819209Y859344D01*
X817181Y860514D01*
X814920Y861120D01*
X812579D01*
X810319Y860514D01*
X808291Y859344D01*
X806636Y857689D01*
X805466Y855662D01*
X804860Y853401D01*
Y851060D01*
X805466Y848799D01*
X806636Y846772D01*
X808291Y845117D01*
X810319Y843946D01*
X812579Y843340D01*
X814920D01*
X817181Y843946D01*
X819209Y845117D01*
X819726Y845634D01*
X915350D01*
X917057Y845859D01*
X918648Y846518D01*
X920014Y847566D01*
X934372Y861924D01*
X935421Y863290D01*
X936080Y864881D01*
X936304Y866588D01*
Y1096816D01*
X936080Y1098523D01*
X935421Y1100114D01*
X934372Y1101480D01*
X906840Y1129012D01*
Y1138940D01*
X925540D01*
Y1159020D01*
X906840D01*
Y1167045D01*
X908110Y1167571D01*
X909335Y1166346D01*
X911625Y1165024D01*
X914178Y1164340D01*
X916822D01*
X919375Y1165024D01*
X921665Y1166346D01*
X923534Y1168215D01*
X924856Y1170505D01*
X925540Y1173058D01*
Y1175702D01*
X924856Y1178255D01*
X923534Y1180545D01*
X921665Y1182414D01*
X919375Y1183736D01*
X916822Y1184420D01*
X914178D01*
X911625Y1183736D01*
X909335Y1182414D01*
X908110Y1181189D01*
X906840Y1181715D01*
Y1190636D01*
X906616Y1192343D01*
X906315Y1193068D01*
X907457Y1193631D01*
X907466Y1193615D01*
X909335Y1191746D01*
X911625Y1190424D01*
X914178Y1189740D01*
X916822D01*
X919375Y1190424D01*
X921665Y1191746D01*
X923534Y1193615D01*
X924856Y1195905D01*
X925540Y1198458D01*
Y1201102D01*
X924856Y1203655D01*
X923534Y1205945D01*
X921665Y1207814D01*
X919375Y1209136D01*
X916822Y1209820D01*
X914178D01*
X911625Y1209136D01*
X909335Y1207814D01*
X907466Y1205945D01*
X906144Y1203655D01*
X905460Y1201102D01*
Y1198458D01*
X906144Y1195905D01*
X906444Y1195385D01*
X905386Y1194678D01*
X904908Y1195300D01*
X895764Y1204444D01*
X894398Y1205493D01*
X892807Y1206152D01*
X891100Y1206376D01*
X881745D01*
X879944Y1208724D01*
X877324Y1210734D01*
X874768Y1211793D01*
Y1213167D01*
X877324Y1214226D01*
X879944Y1216236D01*
X881879Y1218758D01*
X907723D01*
X909335Y1217146D01*
X911625Y1215824D01*
X914178Y1215140D01*
X916822D01*
X919375Y1215824D01*
X921665Y1217146D01*
X923534Y1219015D01*
X924856Y1221305D01*
X925540Y1223858D01*
Y1226502D01*
X924856Y1229055D01*
X923534Y1231345D01*
X921665Y1233214D01*
X919375Y1234536D01*
X916822Y1235220D01*
X914178D01*
X911625Y1234536D01*
X909335Y1233214D01*
X908073Y1231951D01*
X881610D01*
X879944Y1234124D01*
X877324Y1236134D01*
X874768Y1237193D01*
Y1238567D01*
X877324Y1239626D01*
X879944Y1241636D01*
X881954Y1244256D01*
X883217Y1247306D01*
X883648Y1250580D01*
X883217Y1253854D01*
X881954Y1256904D01*
X879944Y1259524D01*
X877324Y1261534D01*
X874768Y1262593D01*
Y1263967D01*
X877324Y1265026D01*
X879944Y1267036D01*
X881954Y1269656D01*
X883217Y1272706D01*
X883648Y1275980D01*
X883217Y1279254D01*
X881954Y1282304D01*
X879944Y1284924D01*
X877324Y1286934D01*
X874768Y1287993D01*
Y1289367D01*
X877324Y1290426D01*
X879944Y1292436D01*
X881954Y1295056D01*
X883217Y1298106D01*
X883648Y1301380D01*
X883217Y1304654D01*
X881954Y1307704D01*
X879944Y1310324D01*
X877324Y1312334D01*
X874768Y1313393D01*
Y1314767D01*
X877324Y1315826D01*
X879944Y1317836D01*
X881954Y1320456D01*
X883217Y1323506D01*
X883648Y1326780D01*
X883217Y1330054D01*
X881954Y1333104D01*
X879944Y1335724D01*
X877324Y1337734D01*
X874274Y1338997D01*
X871000Y1339428D01*
X866000D01*
X862727Y1338997D01*
X859676Y1337734D01*
X857057Y1335724D01*
X855046Y1333104D01*
X853783Y1330054D01*
X853352Y1326780D01*
X853783Y1323506D01*
X855046Y1320456D01*
X857057Y1317836D01*
X859676Y1315826D01*
X862233Y1314767D01*
Y1313393D01*
X859676Y1312334D01*
X857057Y1310324D01*
X855046Y1307704D01*
X853783Y1304654D01*
X853352Y1301380D01*
X853783Y1298106D01*
X855046Y1295056D01*
X857057Y1292436D01*
X859676Y1290426D01*
X862233Y1289367D01*
Y1287993D01*
X859676Y1286934D01*
X857057Y1284924D01*
X855046Y1282304D01*
X853783Y1279254D01*
X853352Y1275980D01*
X853783Y1272706D01*
X855046Y1269656D01*
X857057Y1267036D01*
X859676Y1265026D01*
X862233Y1263967D01*
Y1262593D01*
X859676Y1261534D01*
X857057Y1259524D01*
X855046Y1256904D01*
X853783Y1253854D01*
X853352Y1250580D01*
X853783Y1247306D01*
X855046Y1244256D01*
X857057Y1241636D01*
X859676Y1239626D01*
X862233Y1238567D01*
Y1237193D01*
X859676Y1236134D01*
X857057Y1234124D01*
X855046Y1231504D01*
X853783Y1228454D01*
X853352Y1225180D01*
X853783Y1221906D01*
X855046Y1218856D01*
X857057Y1216236D01*
X859676Y1214226D01*
X862233Y1213167D01*
Y1211793D01*
X859676Y1210734D01*
X857057Y1208724D01*
X855046Y1206104D01*
X853783Y1203054D01*
X853352Y1199780D01*
X853783Y1196506D01*
X855046Y1193456D01*
X857057Y1190836D01*
X859676Y1188826D01*
X862233Y1187767D01*
Y1186393D01*
X859676Y1185334D01*
X857057Y1183324D01*
X855046Y1180704D01*
X853783Y1177654D01*
X853352Y1174380D01*
X853783Y1171106D01*
X855046Y1168056D01*
X857057Y1165436D01*
X859676Y1163426D01*
X862233Y1162367D01*
Y1160993D01*
X859676Y1159934D01*
X857057Y1157924D01*
X855046Y1155304D01*
X853783Y1152254D01*
X853352Y1148980D01*
X853783Y1145706D01*
X855046Y1142656D01*
X857057Y1140036D01*
X859676Y1138026D01*
X862233Y1136967D01*
Y1135593D01*
X859676Y1134534D01*
X857057Y1132524D01*
X855046Y1129904D01*
X853783Y1126854D01*
X853352Y1123580D01*
X853783Y1120306D01*
X855046Y1117256D01*
X857057Y1114636D01*
X859676Y1112626D01*
X862233Y1111567D01*
Y1110193D01*
X859676Y1109134D01*
X857057Y1107124D01*
X855046Y1104504D01*
X853783Y1101454D01*
X853352Y1098180D01*
X853783Y1094906D01*
X855046Y1091856D01*
X857057Y1089236D01*
X859676Y1087226D01*
X862233Y1086167D01*
Y1084793D01*
X859676Y1083734D01*
X857057Y1081724D01*
X855866Y1080173D01*
X854596Y1080604D01*
Y1085174D01*
X854372Y1086881D01*
X853713Y1088472D01*
X852664Y1089838D01*
X838820Y1103683D01*
X839390Y1105810D01*
Y1108150D01*
X838784Y1110411D01*
X837614Y1112439D01*
X835959Y1114094D01*
X833931Y1115264D01*
X831670Y1115870D01*
X829330D01*
X827069Y1115264D01*
X825041Y1114094D01*
X823386Y1112439D01*
X822216Y1110411D01*
X821610Y1108150D01*
Y1105810D01*
X822216Y1103549D01*
X823386Y1101521D01*
X824261Y1100647D01*
X824787Y1099376D01*
X825836Y1098010D01*
X841404Y1082442D01*
Y1032887D01*
X840134Y1032546D01*
X839534Y1033585D01*
X837665Y1035454D01*
X835375Y1036776D01*
X832822Y1037460D01*
X830178D01*
X827625Y1036776D01*
X825335Y1035454D01*
X823466Y1033585D01*
X822144Y1031295D01*
X821460Y1028742D01*
Y1026098D01*
X822144Y1023545D01*
X823466Y1021255D01*
X825335Y1019386D01*
X827625Y1018064D01*
X830178Y1017380D01*
X832822D01*
X835375Y1018064D01*
X837665Y1019386D01*
X839534Y1021255D01*
X840134Y1022294D01*
X841404Y1021954D01*
Y976230D01*
X841628Y974523D01*
X842287Y972932D01*
X843336Y971566D01*
X848086Y966816D01*
X849452Y965767D01*
X851043Y965108D01*
X852750Y964884D01*
X853460D01*
Y958640D01*
X880948D01*
Y908168D01*
X857006Y884227D01*
X816482D01*
X784346Y916363D01*
Y1027748D01*
X810164Y1053566D01*
X811213Y1054932D01*
X811872Y1056523D01*
X812096Y1058230D01*
Y1142004D01*
X812614Y1142521D01*
X813784Y1144549D01*
X814390Y1146810D01*
Y1149150D01*
X813784Y1151411D01*
X812614Y1153439D01*
X810959Y1155094D01*
X808931Y1156264D01*
X806670Y1156870D01*
X804330D01*
X802069Y1156264D01*
X800041Y1155094D01*
X798386Y1153439D01*
X797216Y1151411D01*
X796610Y1149150D01*
X795346Y1149166D01*
Y1186414D01*
X796616Y1186581D01*
X796744Y1186105D01*
X798066Y1183815D01*
X799935Y1181946D01*
X802225Y1180624D01*
X804778Y1179940D01*
X807422D01*
X809975Y1180624D01*
X812265Y1181946D01*
X814134Y1183815D01*
X815456Y1186105D01*
X816140Y1188658D01*
Y1191302D01*
X815456Y1193855D01*
X814134Y1196145D01*
X812265Y1198014D01*
X809975Y1199336D01*
X807422Y1200020D01*
X804778D01*
X802225Y1199336D01*
X799935Y1198014D01*
X798066Y1196145D01*
X796744Y1193855D01*
X796616Y1193379D01*
X795346Y1193546D01*
Y1207498D01*
X830514Y1242665D01*
X831563Y1244032D01*
X832222Y1245623D01*
X832446Y1247330D01*
Y1274094D01*
X832222Y1275801D01*
X831563Y1277392D01*
X830514Y1278758D01*
X824446Y1284826D01*
Y1289525D01*
X825174Y1289826D01*
X827794Y1291836D01*
X829804Y1294456D01*
X831067Y1297506D01*
X831498Y1300780D01*
Y1305780D01*
X831067Y1309054D01*
X829804Y1312104D01*
X827794Y1314724D01*
X825174Y1316734D01*
X822124Y1317997D01*
X818850Y1318428D01*
X815576Y1317997D01*
X812526Y1316734D01*
X809906Y1314724D01*
X807896Y1312104D01*
X806837Y1309547D01*
X805463D01*
X804404Y1312104D01*
X802394Y1314724D01*
X799774Y1316734D01*
X796724Y1317997D01*
X793450Y1318428D01*
X790176Y1317997D01*
X787126Y1316734D01*
X784506Y1314724D01*
X782496Y1312104D01*
X781233Y1309054D01*
X780802Y1305780D01*
Y1300780D01*
X781233Y1297506D01*
X782496Y1294456D01*
X784506Y1291836D01*
X787126Y1289826D01*
X790176Y1288563D01*
X793450Y1288132D01*
X796724Y1288563D01*
X799774Y1289826D01*
X802394Y1291836D01*
X804404Y1294456D01*
X805463Y1297013D01*
X806837D01*
X807896Y1294456D01*
X809906Y1291836D01*
X811254Y1290803D01*
Y1282094D01*
X811478Y1280386D01*
X812137Y1278795D01*
X813186Y1277429D01*
X819253Y1271361D01*
Y1250062D01*
X784086Y1214894D01*
X783037Y1213528D01*
X782378Y1211937D01*
X782154Y1210230D01*
Y1068212D01*
X778812Y1064871D01*
X777735Y1065590D01*
X778122Y1066523D01*
X778346Y1068230D01*
Y1204480D01*
X778122Y1206187D01*
X777463Y1207778D01*
X776414Y1209144D01*
X739832Y1245727D01*
Y1247440D01*
X741790D01*
Y1277520D01*
X716710D01*
Y1270020D01*
X715440Y1269768D01*
X714804Y1271304D01*
X712794Y1273923D01*
X710174Y1275934D01*
X707124Y1277197D01*
X703850Y1277628D01*
X700577Y1277197D01*
X697526Y1275934D01*
X694906Y1273923D01*
X692896Y1271304D01*
X691837Y1268747D01*
X690463D01*
X689404Y1271304D01*
X687394Y1273923D01*
X684774Y1275934D01*
X681724Y1277197D01*
X678450Y1277628D01*
X675177Y1277197D01*
X672126Y1275934D01*
X669507Y1273923D01*
X667496Y1271304D01*
X666438Y1268747D01*
X665063D01*
X664004Y1271304D01*
X661994Y1273923D01*
X659374Y1275934D01*
X656324Y1277197D01*
X653050Y1277628D01*
X649777Y1277197D01*
X646726Y1275934D01*
X644107Y1273923D01*
X642096Y1271304D01*
X640833Y1268253D01*
X640402Y1264980D01*
Y1259980D01*
X640788Y1257047D01*
X630270Y1246528D01*
X629193Y1247247D01*
X629217Y1247306D01*
X629648Y1250580D01*
X629217Y1253854D01*
X627954Y1256904D01*
X625944Y1259524D01*
X623324Y1261534D01*
X620768Y1262593D01*
Y1263967D01*
X623324Y1265026D01*
X625944Y1267036D01*
X627954Y1269656D01*
X629217Y1272706D01*
X629648Y1275980D01*
X629217Y1279254D01*
X627954Y1282304D01*
X625944Y1284924D01*
X623324Y1286934D01*
X620768Y1287993D01*
Y1289367D01*
X623324Y1290426D01*
X625944Y1292436D01*
X627954Y1295056D01*
X629217Y1298106D01*
X629648Y1301380D01*
X629217Y1304654D01*
X627954Y1307704D01*
X625944Y1310324D01*
X623324Y1312334D01*
X620768Y1313393D01*
Y1314767D01*
X623324Y1315826D01*
X625944Y1317836D01*
X627954Y1320456D01*
X629217Y1323506D01*
X629648Y1326780D01*
X629217Y1330054D01*
X627954Y1333104D01*
X625944Y1335724D01*
X623324Y1337734D01*
X620274Y1338997D01*
X617000Y1339428D01*
X612000D01*
X608727Y1338997D01*
X605676Y1337734D01*
X603056Y1335724D01*
X601046Y1333104D01*
X599783Y1330054D01*
X599352Y1326780D01*
X599783Y1323506D01*
X601046Y1320456D01*
X603056Y1317836D01*
X605676Y1315826D01*
X608233Y1314767D01*
Y1313393D01*
X605676Y1312334D01*
X603056Y1310324D01*
X601046Y1307704D01*
X599783Y1304654D01*
X599352Y1301380D01*
X599783Y1298106D01*
X601046Y1295056D01*
X603056Y1292436D01*
X605676Y1290426D01*
X608233Y1289367D01*
Y1287993D01*
X605676Y1286934D01*
X603056Y1284924D01*
X601046Y1282304D01*
X599783Y1279254D01*
X599352Y1275980D01*
X599783Y1272706D01*
X601046Y1269656D01*
X603056Y1267036D01*
X605676Y1265026D01*
X608233Y1263967D01*
Y1262593D01*
X605676Y1261534D01*
X603056Y1259524D01*
X601046Y1256904D01*
X599783Y1253854D01*
X599352Y1250580D01*
X599783Y1247306D01*
X601046Y1244256D01*
X603056Y1241636D01*
X605676Y1239626D01*
X608233Y1238567D01*
Y1237193D01*
X605676Y1236134D01*
X603056Y1234124D01*
X601046Y1231504D01*
X599783Y1228454D01*
X599352Y1225180D01*
X599783Y1221906D01*
X601046Y1218856D01*
X603056Y1216236D01*
X605676Y1214226D01*
X608233Y1213167D01*
Y1211793D01*
X605676Y1210734D01*
X603056Y1208724D01*
X601046Y1206104D01*
X599783Y1203054D01*
X599352Y1199780D01*
X599783Y1196506D01*
X601046Y1193456D01*
X603056Y1190836D01*
X605676Y1188826D01*
X608233Y1187767D01*
Y1186393D01*
X605676Y1185334D01*
X603056Y1183324D01*
X601046Y1180704D01*
X599783Y1177654D01*
X599352Y1174380D01*
X599783Y1171106D01*
X601046Y1168056D01*
X603056Y1165436D01*
X605676Y1163426D01*
X608233Y1162367D01*
Y1160993D01*
X605676Y1159934D01*
X603056Y1157924D01*
X601046Y1155304D01*
X599783Y1152254D01*
X599352Y1148980D01*
X599783Y1145706D01*
X601046Y1142656D01*
X603056Y1140036D01*
X605676Y1138026D01*
X608233Y1136967D01*
Y1135593D01*
X605676Y1134534D01*
X603056Y1132524D01*
X601046Y1129904D01*
X599783Y1126854D01*
X599352Y1123580D01*
X599783Y1120306D01*
X601046Y1117256D01*
X603056Y1114636D01*
X605676Y1112626D01*
X608233Y1111567D01*
Y1110193D01*
X605676Y1109134D01*
X603056Y1107124D01*
X601046Y1104504D01*
X599783Y1101454D01*
X599352Y1098180D01*
X599783Y1094906D01*
X601046Y1091856D01*
X603056Y1089236D01*
X605676Y1087226D01*
X608233Y1086167D01*
Y1084793D01*
X605676Y1083734D01*
X603056Y1081724D01*
X601046Y1079104D01*
X599783Y1076054D01*
X599352Y1072780D01*
X599783Y1069506D01*
X601046Y1066456D01*
X603056Y1063836D01*
X605676Y1061826D01*
X608233Y1060767D01*
Y1059393D01*
X605676Y1058334D01*
X603056Y1056324D01*
X601046Y1053704D01*
X599783Y1050654D01*
X599352Y1047380D01*
X599783Y1044106D01*
X601046Y1041056D01*
X603056Y1038436D01*
X605676Y1036426D01*
X608233Y1035367D01*
Y1033993D01*
X605676Y1032934D01*
X603056Y1030924D01*
X601046Y1028304D01*
X599783Y1025254D01*
X599352Y1021980D01*
X599783Y1018706D01*
X601046Y1015656D01*
X603056Y1013036D01*
X605676Y1011026D01*
X608233Y1009967D01*
Y1008593D01*
X605676Y1007534D01*
X603056Y1005524D01*
X601255Y1003176D01*
X592600D01*
X590893Y1002952D01*
X589302Y1002293D01*
X587936Y1001244D01*
X576086Y989394D01*
X575037Y988028D01*
X574378Y986437D01*
X574154Y984730D01*
Y953980D01*
X516250D01*
X509427Y947157D01*
X508253Y947642D01*
X508000Y1323980D01*
X533750Y1349730D01*
X563154Y1349673D01*
D02*
G37*
G36*
X1352438Y1187904D02*
Y1164105D01*
X1351168Y1163674D01*
X1350998Y1163894D01*
X1342214Y1172679D01*
X1342438Y1174380D01*
X1342007Y1177654D01*
X1340744Y1180704D01*
X1338734Y1183324D01*
X1336114Y1185334D01*
X1333557Y1186393D01*
Y1187767D01*
X1336114Y1188826D01*
X1338734Y1190836D01*
X1340535Y1193184D01*
X1347158D01*
X1352438Y1187904D01*
D02*
G37*
G36*
X893648D02*
Y1164105D01*
X892378Y1163674D01*
X892208Y1163894D01*
X883424Y1172679D01*
X883648Y1174380D01*
X883217Y1177654D01*
X881954Y1180704D01*
X879944Y1183324D01*
X877324Y1185334D01*
X874768Y1186393D01*
Y1187767D01*
X877324Y1188826D01*
X879944Y1190836D01*
X881745Y1193184D01*
X888368D01*
X893648Y1187904D01*
D02*
G37*
G36*
X1151686Y1253656D02*
X1153697Y1251036D01*
X1156044Y1249235D01*
Y1230130D01*
X1156268Y1228422D01*
X1156927Y1226832D01*
X1157976Y1225465D01*
X1169193Y1214248D01*
Y1180262D01*
X1131714Y1142782D01*
X1105542D01*
X1103835Y1142558D01*
X1102244Y1141899D01*
X1100878Y1140850D01*
X1090204Y1130176D01*
X1086535D01*
X1084734Y1132524D01*
X1082114Y1134534D01*
X1079557Y1135593D01*
Y1136967D01*
X1082114Y1138026D01*
X1084734Y1140036D01*
X1086535Y1142383D01*
X1098290D01*
X1099997Y1142608D01*
X1101588Y1143267D01*
X1102954Y1144316D01*
X1125522Y1166884D01*
X1141290D01*
X1142997Y1167108D01*
X1144588Y1167767D01*
X1145954Y1168816D01*
X1157454Y1180316D01*
X1158503Y1181682D01*
X1159162Y1183273D01*
X1159386Y1184980D01*
Y1209730D01*
X1159162Y1211437D01*
X1158503Y1213028D01*
X1157454Y1214394D01*
X1143837Y1228012D01*
Y1249235D01*
X1146184Y1251036D01*
X1148194Y1253656D01*
X1149253Y1256212D01*
X1150628D01*
X1151686Y1253656D01*
D02*
G37*
G36*
X692896D02*
X694906Y1251036D01*
X697254Y1249235D01*
Y1230130D01*
X697478Y1228422D01*
X698138Y1226832D01*
X699186Y1225465D01*
X710404Y1214248D01*
Y1180262D01*
X672924Y1142782D01*
X646752D01*
X645045Y1142558D01*
X643454Y1141899D01*
X642088Y1140850D01*
X631414Y1130176D01*
X627745D01*
X625944Y1132524D01*
X623324Y1134534D01*
X620768Y1135593D01*
Y1136967D01*
X623324Y1138026D01*
X625944Y1140036D01*
X627745Y1142383D01*
X639500D01*
X641207Y1142608D01*
X642798Y1143267D01*
X644164Y1144316D01*
X666732Y1166884D01*
X682500D01*
X684207Y1167108D01*
X685798Y1167767D01*
X687164Y1168816D01*
X698664Y1180316D01*
X699713Y1181682D01*
X700372Y1183273D01*
X700596Y1184980D01*
Y1209730D01*
X700372Y1211437D01*
X699713Y1213028D01*
X698664Y1214394D01*
X685047Y1228012D01*
Y1249235D01*
X687394Y1251036D01*
X689404Y1253656D01*
X690463Y1256212D01*
X691837D01*
X692896Y1253656D01*
D02*
G37*
G36*
X1175500Y1254939D02*
Y1247440D01*
X1185429D01*
Y1242995D01*
X1185654Y1241287D01*
X1186313Y1239696D01*
X1187361Y1238330D01*
X1223944Y1201748D01*
Y1070962D01*
X1217308Y1064326D01*
X1131772D01*
X1094411Y1101688D01*
X1093045Y1102736D01*
X1091454Y1103395D01*
X1089746Y1103620D01*
X1087110D01*
X1086744Y1104504D01*
X1084734Y1107124D01*
X1082114Y1109134D01*
X1079557Y1110193D01*
Y1111567D01*
X1082114Y1112626D01*
X1084734Y1114636D01*
X1086535Y1116983D01*
X1092936D01*
X1094643Y1117208D01*
X1096234Y1117867D01*
X1097600Y1118916D01*
X1108274Y1129590D01*
X1134446D01*
X1136153Y1129814D01*
X1137744Y1130473D01*
X1139110Y1131522D01*
X1180454Y1172865D01*
X1181503Y1174232D01*
X1182162Y1175823D01*
X1182386Y1177530D01*
Y1216980D01*
X1182162Y1218687D01*
X1181503Y1220278D01*
X1180454Y1221644D01*
X1169237Y1232862D01*
Y1249235D01*
X1171584Y1251036D01*
X1173594Y1253656D01*
X1174230Y1255192D01*
X1175500Y1254939D01*
D02*
G37*
G36*
X716710D02*
Y1247440D01*
X726639D01*
Y1242995D01*
X726864Y1241287D01*
X727523Y1239696D01*
X728571Y1238330D01*
X765154Y1201748D01*
Y1070962D01*
X758518Y1064326D01*
X672982D01*
X635621Y1101688D01*
X634255Y1102736D01*
X632664Y1103395D01*
X630956Y1103620D01*
X628320D01*
X627954Y1104504D01*
X625944Y1107124D01*
X623324Y1109134D01*
X620768Y1110193D01*
Y1111567D01*
X623324Y1112626D01*
X625944Y1114636D01*
X627745Y1116983D01*
X634146D01*
X635853Y1117208D01*
X637444Y1117867D01*
X638810Y1118916D01*
X649484Y1129590D01*
X675656D01*
X677364Y1129814D01*
X678954Y1130473D01*
X680321Y1131522D01*
X721664Y1172865D01*
X722713Y1174232D01*
X723372Y1175823D01*
X723596Y1177530D01*
Y1216980D01*
X723372Y1218687D01*
X722713Y1220278D01*
X721664Y1221644D01*
X710447Y1232862D01*
Y1249235D01*
X712794Y1251036D01*
X714804Y1253656D01*
X715440Y1255192D01*
X716710Y1254939D01*
D02*
G37*
G36*
X1124376Y1053066D02*
X1125742Y1052017D01*
X1127333Y1051358D01*
X1129040Y1051134D01*
X1220040D01*
X1221747Y1051358D01*
X1222680Y1051745D01*
X1223399Y1050668D01*
X1184952Y1012220D01*
X1183903Y1010854D01*
X1183244Y1009263D01*
X1183020Y1007556D01*
Y892788D01*
X1176211Y885980D01*
X1114040D01*
X1076040Y923980D01*
Y953980D01*
X1046136D01*
Y981998D01*
X1054122Y989984D01*
X1060045D01*
X1061846Y987636D01*
X1064466Y985626D01*
X1066002Y984990D01*
X1065750Y983720D01*
X1058250D01*
Y973680D01*
X1088330D01*
Y983720D01*
X1080831D01*
X1080578Y984990D01*
X1082114Y985626D01*
X1084734Y987636D01*
X1086744Y990256D01*
X1088007Y993306D01*
X1088438Y996580D01*
X1088007Y999854D01*
X1086744Y1002904D01*
X1084734Y1005524D01*
X1082114Y1007534D01*
X1079557Y1008593D01*
Y1009967D01*
X1082114Y1011026D01*
X1084734Y1013036D01*
X1086744Y1015656D01*
X1088007Y1018706D01*
X1088438Y1021980D01*
X1088007Y1025254D01*
X1086744Y1028304D01*
X1084734Y1030924D01*
X1082114Y1032934D01*
X1079557Y1033993D01*
Y1035367D01*
X1082114Y1036426D01*
X1084734Y1038436D01*
X1086744Y1041056D01*
X1088007Y1044106D01*
X1088438Y1047380D01*
X1088007Y1050654D01*
X1086744Y1053704D01*
X1084734Y1056324D01*
X1082114Y1058334D01*
X1079557Y1059393D01*
Y1060767D01*
X1082114Y1061826D01*
X1084734Y1063836D01*
X1086744Y1066456D01*
X1088007Y1069506D01*
X1088438Y1072780D01*
X1088007Y1076054D01*
X1086744Y1079104D01*
X1084734Y1081724D01*
X1082114Y1083734D01*
X1079557Y1084793D01*
Y1086167D01*
X1082114Y1087226D01*
X1084734Y1089236D01*
X1085648Y1090427D01*
X1087014D01*
X1124376Y1053066D01*
D02*
G37*
G36*
X665586D02*
X666952Y1052017D01*
X668543Y1051358D01*
X670250Y1051134D01*
X761250D01*
X762957Y1051358D01*
X763890Y1051745D01*
X764609Y1050668D01*
X726162Y1012220D01*
X725113Y1010854D01*
X724454Y1009263D01*
X724230Y1007556D01*
Y892788D01*
X717421Y885980D01*
X655250D01*
X617250Y923980D01*
Y953980D01*
X587346D01*
Y981998D01*
X595332Y989984D01*
X601255D01*
X603056Y987636D01*
X605676Y985626D01*
X607212Y984990D01*
X606960Y983720D01*
X599460D01*
Y973680D01*
X629540D01*
Y983720D01*
X622041D01*
X621788Y984990D01*
X623324Y985626D01*
X625944Y987636D01*
X627954Y990256D01*
X629217Y993306D01*
X629648Y996580D01*
X629217Y999854D01*
X627954Y1002904D01*
X625944Y1005524D01*
X623324Y1007534D01*
X620768Y1008593D01*
Y1009967D01*
X623324Y1011026D01*
X625944Y1013036D01*
X627954Y1015656D01*
X629217Y1018706D01*
X629648Y1021980D01*
X629217Y1025254D01*
X627954Y1028304D01*
X625944Y1030924D01*
X623324Y1032934D01*
X620768Y1033993D01*
Y1035367D01*
X623324Y1036426D01*
X625944Y1038436D01*
X627954Y1041056D01*
X629217Y1044106D01*
X629648Y1047380D01*
X629217Y1050654D01*
X627954Y1053704D01*
X625944Y1056324D01*
X623324Y1058334D01*
X620768Y1059393D01*
Y1060767D01*
X623324Y1061826D01*
X625944Y1063836D01*
X627954Y1066456D01*
X629217Y1069506D01*
X629648Y1072780D01*
X629217Y1076054D01*
X627954Y1079104D01*
X625944Y1081724D01*
X623324Y1083734D01*
X620768Y1084793D01*
Y1086167D01*
X623324Y1087226D01*
X625944Y1089236D01*
X626857Y1090427D01*
X628224D01*
X665586Y1053066D01*
D02*
G37*
G36*
X1126286Y702386D02*
X1128297Y699766D01*
X1130644Y697965D01*
Y674010D01*
X1130869Y672302D01*
X1131527Y670712D01*
X1132576Y669345D01*
X1146194Y655728D01*
Y636442D01*
X1138558Y628806D01*
X1122790D01*
X1121083Y628582D01*
X1119492Y627923D01*
X1118126Y626874D01*
X1095558Y604306D01*
X1086535D01*
X1084734Y606654D01*
X1082114Y608664D01*
X1079557Y609723D01*
Y611097D01*
X1082114Y612156D01*
X1084734Y614166D01*
X1086744Y616786D01*
X1088007Y619836D01*
X1088438Y623110D01*
X1088430Y623174D01*
X1098204Y632948D01*
X1099062Y634066D01*
X1100441Y634217D01*
X1100506Y634105D01*
X1102375Y632236D01*
X1104665Y630914D01*
X1107218Y630230D01*
X1109862D01*
X1112415Y630914D01*
X1114705Y632236D01*
X1116574Y634105D01*
X1117896Y636395D01*
X1118580Y638948D01*
Y641592D01*
X1117896Y644145D01*
X1116574Y646435D01*
X1114705Y648304D01*
X1112415Y649626D01*
X1109862Y650310D01*
X1107218D01*
X1104665Y649626D01*
X1102375Y648304D01*
X1101406Y647335D01*
X1100136Y647861D01*
Y687677D01*
X1108907Y696448D01*
X1111840Y696062D01*
X1115114Y696493D01*
X1118164Y697756D01*
X1120784Y699766D01*
X1122794Y702386D01*
X1123853Y704942D01*
X1125228D01*
X1126286Y702386D01*
D02*
G37*
G36*
X667496D02*
X669507Y699766D01*
X671854Y697965D01*
Y674010D01*
X672078Y672302D01*
X672738Y670712D01*
X673786Y669345D01*
X687404Y655728D01*
Y636442D01*
X679768Y628806D01*
X664000D01*
X662293Y628582D01*
X660702Y627923D01*
X659336Y626874D01*
X636768Y604306D01*
X627745D01*
X625944Y606654D01*
X623324Y608664D01*
X620768Y609723D01*
Y611097D01*
X623324Y612156D01*
X625944Y614166D01*
X627954Y616786D01*
X629217Y619836D01*
X629648Y623110D01*
X629640Y623174D01*
X639414Y632948D01*
X640272Y634066D01*
X641651Y634217D01*
X641716Y634105D01*
X643585Y632236D01*
X645875Y630914D01*
X648428Y630230D01*
X651072D01*
X653625Y630914D01*
X655915Y632236D01*
X657784Y634105D01*
X659106Y636395D01*
X659790Y638948D01*
Y641592D01*
X659106Y644145D01*
X657784Y646435D01*
X655915Y648304D01*
X653625Y649626D01*
X651072Y650310D01*
X648428D01*
X645875Y649626D01*
X643585Y648304D01*
X642616Y647335D01*
X641346Y647861D01*
Y687677D01*
X650117Y696448D01*
X653050Y696062D01*
X656324Y696493D01*
X659374Y697756D01*
X661994Y699766D01*
X664004Y702386D01*
X665063Y704942D01*
X666438D01*
X667496Y702386D01*
D02*
G37*
G36*
X1021944Y798403D02*
Y774692D01*
X1011126Y763875D01*
X1010078Y762508D01*
X1009418Y760918D01*
X1009194Y759210D01*
Y757250D01*
X1003750D01*
Y738670D01*
X1022330D01*
Y749570D01*
X1022387Y749999D01*
Y756478D01*
X1033204Y767296D01*
X1034253Y768662D01*
X1034912Y770253D01*
X1035136Y771960D01*
Y797479D01*
X1036035Y798376D01*
X1381540Y797710D01*
X1424290Y754960D01*
Y283210D01*
X1224790D01*
Y334710D01*
X1196210D01*
X1195533Y335980D01*
X1195988Y337079D01*
X1196212Y338786D01*
Y453554D01*
X1252204Y509546D01*
X1253253Y510912D01*
X1253912Y512503D01*
X1254136Y514210D01*
Y595524D01*
X1255400Y595540D01*
X1256006Y593279D01*
X1257176Y591251D01*
X1257693Y590734D01*
Y509692D01*
X1231876Y483874D01*
X1230827Y482508D01*
X1230168Y480917D01*
X1229944Y479210D01*
Y362360D01*
X1230168Y360653D01*
X1230827Y359062D01*
X1231876Y357696D01*
X1267876Y321696D01*
X1269242Y320648D01*
X1270833Y319989D01*
X1272540Y319764D01*
X1318528D01*
X1320235Y319989D01*
X1321826Y320648D01*
X1323192Y321696D01*
X1350998Y349502D01*
X1352047Y350868D01*
X1352706Y352459D01*
X1352930Y354166D01*
Y413100D01*
X1353660Y413420D01*
X1354200Y413453D01*
X1355132Y412240D01*
X1362144Y405228D01*
Y342636D01*
X1361176Y341669D01*
X1360006Y339641D01*
X1359400Y337380D01*
Y335040D01*
X1360006Y332779D01*
X1361176Y330751D01*
X1362831Y329096D01*
X1364859Y327926D01*
X1367120Y327320D01*
X1369460D01*
X1371721Y327926D01*
X1373749Y329096D01*
X1375404Y330751D01*
X1376574Y332779D01*
X1377180Y335040D01*
Y337380D01*
X1376574Y339641D01*
X1375404Y341669D01*
X1375337Y341736D01*
Y407960D01*
X1375112Y409667D01*
X1374453Y411258D01*
X1373405Y412624D01*
X1366392Y419636D01*
Y518938D01*
X1367855Y520400D01*
X1368586D01*
X1370847Y521006D01*
X1372875Y522176D01*
X1374530Y523831D01*
X1375700Y525859D01*
X1376306Y528120D01*
Y530460D01*
X1375700Y532721D01*
X1374530Y534749D01*
X1372875Y536404D01*
X1370847Y537574D01*
X1368586Y538180D01*
X1366246D01*
X1363985Y537574D01*
X1361957Y536404D01*
X1360302Y534749D01*
X1359132Y532721D01*
X1358526Y530460D01*
Y529729D01*
X1355132Y526334D01*
X1354200Y525121D01*
X1353660Y525154D01*
X1352930Y525475D01*
Y570135D01*
X1354200Y570566D01*
X1354370Y570346D01*
X1381902Y542814D01*
Y318051D01*
X1371407Y307557D01*
X1278516D01*
X1277999Y308074D01*
X1275971Y309244D01*
X1273710Y309850D01*
X1271369D01*
X1269109Y309244D01*
X1267081Y308074D01*
X1265426Y306419D01*
X1264256Y304392D01*
X1263650Y302131D01*
Y299790D01*
X1264256Y297529D01*
X1265426Y295502D01*
X1267081Y293846D01*
X1269109Y292676D01*
X1271369Y292070D01*
X1273710D01*
X1275971Y292676D01*
X1277999Y293846D01*
X1278516Y294364D01*
X1374140D01*
X1375847Y294589D01*
X1377438Y295248D01*
X1378804Y296296D01*
X1393162Y310654D01*
X1394211Y312020D01*
X1394870Y313611D01*
X1395094Y315318D01*
Y545546D01*
X1394870Y547253D01*
X1394211Y548844D01*
X1393162Y550210D01*
X1365630Y577742D01*
Y587670D01*
X1384330D01*
Y607750D01*
X1365630D01*
Y615775D01*
X1366900Y616301D01*
X1368125Y615076D01*
X1370415Y613754D01*
X1372968Y613070D01*
X1375612D01*
X1378165Y613754D01*
X1380455Y615076D01*
X1382324Y616945D01*
X1383646Y619235D01*
X1384330Y621788D01*
Y624432D01*
X1383646Y626985D01*
X1382324Y629275D01*
X1380455Y631144D01*
X1378165Y632466D01*
X1375612Y633150D01*
X1372968D01*
X1370415Y632466D01*
X1368125Y631144D01*
X1366900Y629919D01*
X1365630Y630445D01*
Y639366D01*
X1365406Y641073D01*
X1365105Y641798D01*
X1366247Y642361D01*
X1366256Y642345D01*
X1368125Y640476D01*
X1370415Y639154D01*
X1372968Y638470D01*
X1375612D01*
X1378165Y639154D01*
X1380455Y640476D01*
X1382324Y642345D01*
X1383646Y644635D01*
X1384330Y647188D01*
Y649832D01*
X1383646Y652385D01*
X1382324Y654675D01*
X1380455Y656544D01*
X1378165Y657866D01*
X1375612Y658550D01*
X1372968D01*
X1370415Y657866D01*
X1368125Y656544D01*
X1366256Y654675D01*
X1364934Y652385D01*
X1364250Y649832D01*
Y647188D01*
X1364934Y644635D01*
X1365234Y644115D01*
X1364176Y643408D01*
X1363698Y644030D01*
X1354554Y653174D01*
X1353188Y654223D01*
X1351597Y654882D01*
X1349890Y655106D01*
X1340535D01*
X1338734Y657454D01*
X1336114Y659464D01*
X1333557Y660523D01*
Y661897D01*
X1336114Y662956D01*
X1338734Y664966D01*
X1340669Y667489D01*
X1366513D01*
X1368125Y665876D01*
X1370415Y664554D01*
X1372968Y663870D01*
X1375612D01*
X1378165Y664554D01*
X1380455Y665876D01*
X1382324Y667745D01*
X1383646Y670035D01*
X1384330Y672588D01*
Y675232D01*
X1383646Y677785D01*
X1382324Y680075D01*
X1380455Y681944D01*
X1378165Y683266D01*
X1375612Y683950D01*
X1372968D01*
X1370415Y683266D01*
X1368125Y681944D01*
X1366863Y680681D01*
X1340401D01*
X1338734Y682854D01*
X1336114Y684864D01*
X1333557Y685923D01*
Y687297D01*
X1336114Y688356D01*
X1338734Y690366D01*
X1340744Y692986D01*
X1342007Y696036D01*
X1342438Y699310D01*
X1342007Y702584D01*
X1340744Y705634D01*
X1338734Y708254D01*
X1336114Y710264D01*
X1333557Y711323D01*
Y712697D01*
X1336114Y713756D01*
X1338734Y715766D01*
X1340744Y718386D01*
X1342007Y721436D01*
X1342438Y724710D01*
X1342007Y727984D01*
X1340744Y731034D01*
X1338734Y733654D01*
X1336114Y735664D01*
X1333557Y736723D01*
Y738097D01*
X1336114Y739156D01*
X1338734Y741166D01*
X1340744Y743786D01*
X1342007Y746836D01*
X1342438Y750110D01*
X1342007Y753384D01*
X1340744Y756434D01*
X1338734Y759054D01*
X1336114Y761064D01*
X1333557Y762123D01*
Y763497D01*
X1336114Y764556D01*
X1338734Y766566D01*
X1340744Y769186D01*
X1342007Y772236D01*
X1342438Y775510D01*
X1342007Y778784D01*
X1340744Y781834D01*
X1338734Y784454D01*
X1336114Y786464D01*
X1333064Y787727D01*
X1329790Y788158D01*
X1324790D01*
X1321517Y787727D01*
X1318466Y786464D01*
X1315846Y784454D01*
X1313836Y781834D01*
X1312573Y778784D01*
X1312142Y775510D01*
X1312573Y772236D01*
X1313836Y769186D01*
X1315846Y766566D01*
X1318466Y764556D01*
X1321023Y763497D01*
Y762123D01*
X1318466Y761064D01*
X1315846Y759054D01*
X1313836Y756434D01*
X1312573Y753384D01*
X1312142Y750110D01*
X1312573Y746836D01*
X1313836Y743786D01*
X1315846Y741166D01*
X1318466Y739156D01*
X1321023Y738097D01*
Y736723D01*
X1318466Y735664D01*
X1315846Y733654D01*
X1313836Y731034D01*
X1312573Y727984D01*
X1312142Y724710D01*
X1312573Y721436D01*
X1313836Y718386D01*
X1315846Y715766D01*
X1318466Y713756D01*
X1321023Y712697D01*
Y711323D01*
X1318466Y710264D01*
X1315846Y708254D01*
X1313836Y705634D01*
X1312573Y702584D01*
X1312142Y699310D01*
X1312573Y696036D01*
X1313836Y692986D01*
X1315846Y690366D01*
X1318466Y688356D01*
X1321023Y687297D01*
Y685923D01*
X1318466Y684864D01*
X1315846Y682854D01*
X1313836Y680234D01*
X1312573Y677184D01*
X1312142Y673910D01*
X1312573Y670636D01*
X1313836Y667586D01*
X1315846Y664966D01*
X1318466Y662956D01*
X1321023Y661897D01*
Y660523D01*
X1318466Y659464D01*
X1315846Y657454D01*
X1313836Y654834D01*
X1312573Y651784D01*
X1312142Y648510D01*
X1312573Y645236D01*
X1313836Y642186D01*
X1315846Y639566D01*
X1318466Y637556D01*
X1321023Y636497D01*
Y635123D01*
X1318466Y634064D01*
X1315846Y632054D01*
X1313836Y629434D01*
X1312573Y626384D01*
X1312142Y623110D01*
X1312573Y619836D01*
X1313836Y616786D01*
X1315846Y614166D01*
X1318466Y612156D01*
X1321023Y611097D01*
Y609723D01*
X1318466Y608664D01*
X1315846Y606654D01*
X1313836Y604034D01*
X1312573Y600984D01*
X1312142Y597710D01*
X1312573Y594436D01*
X1313836Y591386D01*
X1315846Y588766D01*
X1318466Y586756D01*
X1321023Y585697D01*
Y584323D01*
X1318466Y583264D01*
X1315846Y581254D01*
X1313836Y578634D01*
X1312573Y575584D01*
X1312142Y572310D01*
X1312573Y569036D01*
X1313836Y565986D01*
X1315846Y563366D01*
X1318466Y561356D01*
X1321023Y560297D01*
Y558923D01*
X1318466Y557864D01*
X1315846Y555854D01*
X1313836Y553234D01*
X1312573Y550184D01*
X1312142Y546910D01*
X1312573Y543636D01*
X1313836Y540586D01*
X1315846Y537966D01*
X1318466Y535956D01*
X1321023Y534897D01*
Y533523D01*
X1318466Y532464D01*
X1315846Y530454D01*
X1314656Y528903D01*
X1313386Y529334D01*
Y533904D01*
X1313162Y535611D01*
X1312503Y537202D01*
X1311454Y538568D01*
X1297610Y552413D01*
X1298180Y554540D01*
Y556880D01*
X1297574Y559141D01*
X1296404Y561169D01*
X1294749Y562824D01*
X1292721Y563994D01*
X1290460Y564600D01*
X1288120D01*
X1285859Y563994D01*
X1283831Y562824D01*
X1282176Y561169D01*
X1281006Y559141D01*
X1280400Y556880D01*
Y554540D01*
X1281006Y552279D01*
X1282176Y550251D01*
X1283051Y549377D01*
X1283577Y548106D01*
X1284626Y546740D01*
X1300194Y531172D01*
Y481617D01*
X1298924Y481276D01*
X1298324Y482315D01*
X1296455Y484184D01*
X1294165Y485506D01*
X1291612Y486190D01*
X1288968D01*
X1286415Y485506D01*
X1284125Y484184D01*
X1282256Y482315D01*
X1280934Y480025D01*
X1280250Y477472D01*
Y474828D01*
X1280934Y472275D01*
X1282256Y469985D01*
X1284125Y468116D01*
X1286415Y466794D01*
X1288968Y466110D01*
X1291612D01*
X1294165Y466794D01*
X1296455Y468116D01*
X1298324Y469985D01*
X1298924Y471024D01*
X1300194Y470684D01*
Y424960D01*
X1300418Y423253D01*
X1301077Y421662D01*
X1302126Y420296D01*
X1306876Y415546D01*
X1308242Y414497D01*
X1309833Y413838D01*
X1311540Y413614D01*
X1312250D01*
Y407370D01*
X1339738D01*
Y356898D01*
X1315796Y332957D01*
X1275272D01*
X1243136Y365093D01*
Y476478D01*
X1268954Y502296D01*
X1270003Y503662D01*
X1270662Y505253D01*
X1270886Y506960D01*
Y590734D01*
X1271404Y591251D01*
X1272574Y593279D01*
X1273180Y595540D01*
Y597880D01*
X1272574Y600141D01*
X1271404Y602169D01*
X1269749Y603824D01*
X1267721Y604994D01*
X1265460Y605600D01*
X1263120D01*
X1260859Y604994D01*
X1258831Y603824D01*
X1257176Y602169D01*
X1256006Y600141D01*
X1255400Y597880D01*
X1254136Y597896D01*
Y635144D01*
X1255406Y635312D01*
X1255534Y634835D01*
X1256856Y632545D01*
X1258725Y630676D01*
X1261015Y629354D01*
X1263568Y628670D01*
X1266212D01*
X1268765Y629354D01*
X1271055Y630676D01*
X1272924Y632545D01*
X1274246Y634835D01*
X1274930Y637388D01*
Y640032D01*
X1274246Y642585D01*
X1272924Y644875D01*
X1271055Y646744D01*
X1268765Y648066D01*
X1266212Y648750D01*
X1263568D01*
X1261015Y648066D01*
X1258725Y646744D01*
X1256856Y644875D01*
X1255534Y642585D01*
X1255406Y642109D01*
X1254136Y642276D01*
Y656228D01*
X1289304Y691395D01*
X1290353Y692762D01*
X1291012Y694353D01*
X1291236Y696060D01*
Y722824D01*
X1291012Y724531D01*
X1290353Y726122D01*
X1289304Y727488D01*
X1283236Y733556D01*
Y738255D01*
X1283964Y738556D01*
X1286584Y740566D01*
X1288594Y743186D01*
X1289857Y746236D01*
X1290288Y749510D01*
Y754510D01*
X1289857Y757784D01*
X1288594Y760834D01*
X1286584Y763454D01*
X1283964Y765464D01*
X1280914Y766727D01*
X1277640Y767158D01*
X1274366Y766727D01*
X1271316Y765464D01*
X1268696Y763454D01*
X1266686Y760834D01*
X1265627Y758277D01*
X1264253D01*
X1263194Y760834D01*
X1261184Y763454D01*
X1258564Y765464D01*
X1255514Y766727D01*
X1252240Y767158D01*
X1248966Y766727D01*
X1245916Y765464D01*
X1243296Y763454D01*
X1241286Y760834D01*
X1240023Y757784D01*
X1239592Y754510D01*
Y749510D01*
X1240023Y746236D01*
X1241286Y743186D01*
X1243296Y740566D01*
X1245916Y738556D01*
X1248966Y737293D01*
X1252240Y736862D01*
X1255514Y737293D01*
X1258564Y738556D01*
X1261184Y740566D01*
X1263194Y743186D01*
X1264253Y745743D01*
X1265627D01*
X1266686Y743186D01*
X1268696Y740566D01*
X1270044Y739533D01*
Y730824D01*
X1270268Y729116D01*
X1270927Y727525D01*
X1271976Y726159D01*
X1278044Y720091D01*
Y698792D01*
X1242876Y663624D01*
X1241827Y662258D01*
X1241168Y660667D01*
X1240944Y658960D01*
Y516942D01*
X1237602Y513601D01*
X1236525Y514320D01*
X1236912Y515253D01*
X1237136Y516960D01*
Y653210D01*
X1236912Y654917D01*
X1236253Y656508D01*
X1235204Y657874D01*
X1198622Y694457D01*
Y696170D01*
X1200580D01*
Y726250D01*
X1175500D01*
Y718750D01*
X1174230Y718498D01*
X1173594Y720034D01*
X1171584Y722654D01*
X1168964Y724663D01*
X1165914Y725927D01*
X1162640Y726358D01*
X1159367Y725927D01*
X1156316Y724663D01*
X1153697Y722654D01*
X1151686Y720034D01*
X1150628Y717477D01*
X1149253D01*
X1148194Y720034D01*
X1146184Y722654D01*
X1143564Y724663D01*
X1140514Y725927D01*
X1137240Y726358D01*
X1133967Y725927D01*
X1130916Y724663D01*
X1128297Y722654D01*
X1126286Y720034D01*
X1125228Y717477D01*
X1123853D01*
X1122794Y720034D01*
X1120784Y722654D01*
X1118164Y724663D01*
X1115114Y725927D01*
X1111840Y726358D01*
X1108567Y725927D01*
X1105516Y724663D01*
X1102896Y722654D01*
X1100887Y720034D01*
X1099623Y716983D01*
X1099192Y713710D01*
Y708710D01*
X1099578Y705777D01*
X1089060Y695258D01*
X1087983Y695977D01*
X1088007Y696036D01*
X1088438Y699310D01*
X1088007Y702584D01*
X1086744Y705634D01*
X1084734Y708254D01*
X1082114Y710264D01*
X1079557Y711323D01*
Y712697D01*
X1082114Y713756D01*
X1084734Y715766D01*
X1086744Y718386D01*
X1088007Y721436D01*
X1088438Y724710D01*
X1088007Y727984D01*
X1086744Y731034D01*
X1084734Y733654D01*
X1082114Y735664D01*
X1079557Y736723D01*
Y738097D01*
X1082114Y739156D01*
X1084734Y741166D01*
X1086744Y743786D01*
X1088007Y746836D01*
X1088438Y750110D01*
X1088007Y753384D01*
X1086744Y756434D01*
X1084734Y759054D01*
X1082114Y761064D01*
X1079557Y762123D01*
Y763497D01*
X1082114Y764556D01*
X1084734Y766566D01*
X1086744Y769186D01*
X1088007Y772236D01*
X1088438Y775510D01*
X1088007Y778784D01*
X1086744Y781834D01*
X1084734Y784454D01*
X1082114Y786464D01*
X1079064Y787727D01*
X1075790Y788158D01*
X1070790D01*
X1067516Y787727D01*
X1064466Y786464D01*
X1061846Y784454D01*
X1059836Y781834D01*
X1058573Y778784D01*
X1058142Y775510D01*
X1058573Y772236D01*
X1059836Y769186D01*
X1061846Y766566D01*
X1064466Y764556D01*
X1067023Y763497D01*
Y762123D01*
X1064466Y761064D01*
X1061846Y759054D01*
X1059836Y756434D01*
X1058573Y753384D01*
X1058142Y750110D01*
X1058573Y746836D01*
X1059836Y743786D01*
X1061846Y741166D01*
X1064466Y739156D01*
X1067023Y738097D01*
Y736723D01*
X1064466Y735664D01*
X1061846Y733654D01*
X1059836Y731034D01*
X1058573Y727984D01*
X1058142Y724710D01*
X1058573Y721436D01*
X1059836Y718386D01*
X1061846Y715766D01*
X1064466Y713756D01*
X1067023Y712697D01*
Y711323D01*
X1064466Y710264D01*
X1061846Y708254D01*
X1059836Y705634D01*
X1058573Y702584D01*
X1058142Y699310D01*
X1058573Y696036D01*
X1059836Y692986D01*
X1061846Y690366D01*
X1064466Y688356D01*
X1067023Y687297D01*
Y685923D01*
X1064466Y684864D01*
X1061846Y682854D01*
X1059836Y680234D01*
X1058573Y677184D01*
X1058142Y673910D01*
X1058573Y670636D01*
X1059836Y667586D01*
X1061846Y664966D01*
X1064466Y662956D01*
X1067023Y661897D01*
Y660523D01*
X1064466Y659464D01*
X1061846Y657454D01*
X1059836Y654834D01*
X1058573Y651784D01*
X1058142Y648510D01*
X1058573Y645236D01*
X1059836Y642186D01*
X1061846Y639566D01*
X1064466Y637556D01*
X1067023Y636497D01*
Y635123D01*
X1064466Y634064D01*
X1061846Y632054D01*
X1059836Y629434D01*
X1058573Y626384D01*
X1058142Y623110D01*
X1058573Y619836D01*
X1059836Y616786D01*
X1061846Y614166D01*
X1064466Y612156D01*
X1067023Y611097D01*
Y609723D01*
X1064466Y608664D01*
X1061846Y606654D01*
X1059836Y604034D01*
X1058573Y600984D01*
X1058142Y597710D01*
X1058573Y594436D01*
X1059836Y591386D01*
X1061846Y588766D01*
X1064466Y586756D01*
X1067023Y585697D01*
Y584323D01*
X1064466Y583264D01*
X1061846Y581254D01*
X1059836Y578634D01*
X1058573Y575584D01*
X1058142Y572310D01*
X1058573Y569036D01*
X1059836Y565986D01*
X1061846Y563366D01*
X1064466Y561356D01*
X1067023Y560297D01*
Y558923D01*
X1064466Y557864D01*
X1061846Y555854D01*
X1059836Y553234D01*
X1058573Y550184D01*
X1058142Y546910D01*
X1058573Y543636D01*
X1059836Y540586D01*
X1061846Y537966D01*
X1064466Y535956D01*
X1067023Y534897D01*
Y533523D01*
X1064466Y532464D01*
X1061846Y530454D01*
X1059836Y527834D01*
X1058573Y524784D01*
X1058142Y521510D01*
X1058573Y518236D01*
X1059836Y515186D01*
X1061846Y512566D01*
X1064466Y510556D01*
X1067023Y509497D01*
Y508123D01*
X1064466Y507064D01*
X1061846Y505054D01*
X1059836Y502434D01*
X1058573Y499384D01*
X1058142Y496110D01*
X1058573Y492836D01*
X1059836Y489786D01*
X1061846Y487166D01*
X1064466Y485156D01*
X1067023Y484097D01*
Y482723D01*
X1064466Y481664D01*
X1061846Y479654D01*
X1059836Y477034D01*
X1058573Y473984D01*
X1058142Y470710D01*
X1058573Y467436D01*
X1059836Y464386D01*
X1061846Y461766D01*
X1064466Y459756D01*
X1067023Y458697D01*
Y457323D01*
X1064466Y456264D01*
X1061846Y454254D01*
X1060045Y451906D01*
X1051390D01*
X1049683Y451682D01*
X1048092Y451023D01*
X1046726Y449974D01*
X1034876Y438124D01*
X1033827Y436758D01*
X1033168Y435167D01*
X1032944Y433460D01*
Y402710D01*
X975040D01*
X968217Y395887D01*
X967043Y396372D01*
X966790Y772710D01*
X992540Y798460D01*
X1021944Y798403D01*
D02*
G37*
G36*
X563154D02*
Y774692D01*
X552336Y763875D01*
X551287Y762508D01*
X550629Y760918D01*
X550404Y759210D01*
Y757250D01*
X544960D01*
Y738670D01*
X563540D01*
Y749570D01*
X563597Y749999D01*
Y756478D01*
X574414Y767296D01*
X575463Y768662D01*
X576122Y770253D01*
X576346Y771960D01*
Y797479D01*
X577245Y798376D01*
X922750Y797710D01*
X965500Y754960D01*
Y283210D01*
X766000D01*
Y334710D01*
X737420D01*
X736743Y335980D01*
X737198Y337079D01*
X737422Y338786D01*
Y453554D01*
X793414Y509546D01*
X794463Y510912D01*
X795122Y512503D01*
X795346Y514210D01*
Y595524D01*
X796610Y595540D01*
X797216Y593279D01*
X798386Y591251D01*
X798904Y590734D01*
Y509692D01*
X773086Y483874D01*
X772037Y482508D01*
X771378Y480917D01*
X771154Y479210D01*
Y362360D01*
X771378Y360653D01*
X772037Y359062D01*
X773086Y357696D01*
X809085Y321696D01*
X810452Y320648D01*
X812043Y319989D01*
X813750Y319764D01*
X859738D01*
X861445Y319989D01*
X863036Y320648D01*
X864402Y321696D01*
X892208Y349502D01*
X893257Y350868D01*
X893916Y352459D01*
X894140Y354166D01*
Y413100D01*
X894870Y413420D01*
X895410Y413453D01*
X896342Y412240D01*
X903354Y405228D01*
Y342636D01*
X902386Y341669D01*
X901216Y339641D01*
X900610Y337380D01*
Y335040D01*
X901216Y332779D01*
X902386Y330751D01*
X904041Y329096D01*
X906069Y327926D01*
X908330Y327320D01*
X910670D01*
X912931Y327926D01*
X914959Y329096D01*
X916614Y330751D01*
X917784Y332779D01*
X918390Y335040D01*
Y337380D01*
X917784Y339641D01*
X916614Y341669D01*
X916547Y341736D01*
Y407960D01*
X916322Y409667D01*
X915663Y411258D01*
X914614Y412624D01*
X907602Y419636D01*
Y518938D01*
X909065Y520400D01*
X909796D01*
X912057Y521006D01*
X914085Y522176D01*
X915740Y523831D01*
X916910Y525859D01*
X917516Y528120D01*
Y530460D01*
X916910Y532721D01*
X915740Y534749D01*
X914085Y536404D01*
X912057Y537574D01*
X909796Y538180D01*
X907456D01*
X905195Y537574D01*
X903167Y536404D01*
X901512Y534749D01*
X900342Y532721D01*
X899736Y530460D01*
Y529729D01*
X896342Y526334D01*
X895410Y525121D01*
X894870Y525154D01*
X894140Y525475D01*
Y570135D01*
X895410Y570566D01*
X895580Y570346D01*
X923112Y542814D01*
Y318051D01*
X912618Y307557D01*
X819726D01*
X819209Y308074D01*
X817181Y309244D01*
X814920Y309850D01*
X812579D01*
X810319Y309244D01*
X808291Y308074D01*
X806636Y306419D01*
X805466Y304392D01*
X804860Y302131D01*
Y299790D01*
X805466Y297529D01*
X806636Y295502D01*
X808291Y293846D01*
X810319Y292676D01*
X812579Y292070D01*
X814920D01*
X817181Y292676D01*
X819209Y293846D01*
X819726Y294364D01*
X915350D01*
X917057Y294589D01*
X918648Y295248D01*
X920014Y296296D01*
X934372Y310654D01*
X935421Y312020D01*
X936080Y313611D01*
X936304Y315318D01*
Y545546D01*
X936080Y547253D01*
X935421Y548844D01*
X934372Y550210D01*
X906840Y577742D01*
Y587670D01*
X925540D01*
Y607750D01*
X906840D01*
Y615775D01*
X908110Y616301D01*
X909335Y615076D01*
X911625Y613754D01*
X914178Y613070D01*
X916822D01*
X919375Y613754D01*
X921665Y615076D01*
X923534Y616945D01*
X924856Y619235D01*
X925540Y621788D01*
Y624432D01*
X924856Y626985D01*
X923534Y629275D01*
X921665Y631144D01*
X919375Y632466D01*
X916822Y633150D01*
X914178D01*
X911625Y632466D01*
X909335Y631144D01*
X908110Y629919D01*
X906840Y630445D01*
Y639366D01*
X906616Y641073D01*
X906315Y641798D01*
X907457Y642361D01*
X907466Y642345D01*
X909335Y640476D01*
X911625Y639154D01*
X914178Y638470D01*
X916822D01*
X919375Y639154D01*
X921665Y640476D01*
X923534Y642345D01*
X924856Y644635D01*
X925540Y647188D01*
Y649832D01*
X924856Y652385D01*
X923534Y654675D01*
X921665Y656544D01*
X919375Y657866D01*
X916822Y658550D01*
X914178D01*
X911625Y657866D01*
X909335Y656544D01*
X907466Y654675D01*
X906144Y652385D01*
X905460Y649832D01*
Y647188D01*
X906144Y644635D01*
X906444Y644115D01*
X905386Y643408D01*
X904908Y644030D01*
X895764Y653174D01*
X894398Y654223D01*
X892807Y654882D01*
X891100Y655106D01*
X881745D01*
X879944Y657454D01*
X877324Y659464D01*
X874768Y660523D01*
Y661897D01*
X877324Y662956D01*
X879944Y664966D01*
X881879Y667489D01*
X907723D01*
X909335Y665876D01*
X911625Y664554D01*
X914178Y663870D01*
X916822D01*
X919375Y664554D01*
X921665Y665876D01*
X923534Y667745D01*
X924856Y670035D01*
X925540Y672588D01*
Y675232D01*
X924856Y677785D01*
X923534Y680075D01*
X921665Y681944D01*
X919375Y683266D01*
X916822Y683950D01*
X914178D01*
X911625Y683266D01*
X909335Y681944D01*
X908073Y680681D01*
X881610D01*
X879944Y682854D01*
X877324Y684864D01*
X874768Y685923D01*
Y687297D01*
X877324Y688356D01*
X879944Y690366D01*
X881954Y692986D01*
X883217Y696036D01*
X883648Y699310D01*
X883217Y702584D01*
X881954Y705634D01*
X879944Y708254D01*
X877324Y710264D01*
X874768Y711323D01*
Y712697D01*
X877324Y713756D01*
X879944Y715766D01*
X881954Y718386D01*
X883217Y721436D01*
X883648Y724710D01*
X883217Y727984D01*
X881954Y731034D01*
X879944Y733654D01*
X877324Y735664D01*
X874768Y736723D01*
Y738097D01*
X877324Y739156D01*
X879944Y741166D01*
X881954Y743786D01*
X883217Y746836D01*
X883648Y750110D01*
X883217Y753384D01*
X881954Y756434D01*
X879944Y759054D01*
X877324Y761064D01*
X874768Y762123D01*
Y763497D01*
X877324Y764556D01*
X879944Y766566D01*
X881954Y769186D01*
X883217Y772236D01*
X883648Y775510D01*
X883217Y778784D01*
X881954Y781834D01*
X879944Y784454D01*
X877324Y786464D01*
X874274Y787727D01*
X871000Y788158D01*
X866000D01*
X862727Y787727D01*
X859676Y786464D01*
X857057Y784454D01*
X855046Y781834D01*
X853783Y778784D01*
X853352Y775510D01*
X853783Y772236D01*
X855046Y769186D01*
X857057Y766566D01*
X859676Y764556D01*
X862233Y763497D01*
Y762123D01*
X859676Y761064D01*
X857057Y759054D01*
X855046Y756434D01*
X853783Y753384D01*
X853352Y750110D01*
X853783Y746836D01*
X855046Y743786D01*
X857057Y741166D01*
X859676Y739156D01*
X862233Y738097D01*
Y736723D01*
X859676Y735664D01*
X857057Y733654D01*
X855046Y731034D01*
X853783Y727984D01*
X853352Y724710D01*
X853783Y721436D01*
X855046Y718386D01*
X857057Y715766D01*
X859676Y713756D01*
X862233Y712697D01*
Y711323D01*
X859676Y710264D01*
X857057Y708254D01*
X855046Y705634D01*
X853783Y702584D01*
X853352Y699310D01*
X853783Y696036D01*
X855046Y692986D01*
X857057Y690366D01*
X859676Y688356D01*
X862233Y687297D01*
Y685923D01*
X859676Y684864D01*
X857057Y682854D01*
X855046Y680234D01*
X853783Y677184D01*
X853352Y673910D01*
X853783Y670636D01*
X855046Y667586D01*
X857057Y664966D01*
X859676Y662956D01*
X862233Y661897D01*
Y660523D01*
X859676Y659464D01*
X857057Y657454D01*
X855046Y654834D01*
X853783Y651784D01*
X853352Y648510D01*
X853783Y645236D01*
X855046Y642186D01*
X857057Y639566D01*
X859676Y637556D01*
X862233Y636497D01*
Y635123D01*
X859676Y634064D01*
X857057Y632054D01*
X855046Y629434D01*
X853783Y626384D01*
X853352Y623110D01*
X853783Y619836D01*
X855046Y616786D01*
X857057Y614166D01*
X859676Y612156D01*
X862233Y611097D01*
Y609723D01*
X859676Y608664D01*
X857057Y606654D01*
X855046Y604034D01*
X853783Y600984D01*
X853352Y597710D01*
X853783Y594436D01*
X855046Y591386D01*
X857057Y588766D01*
X859676Y586756D01*
X862233Y585697D01*
Y584323D01*
X859676Y583264D01*
X857057Y581254D01*
X855046Y578634D01*
X853783Y575584D01*
X853352Y572310D01*
X853783Y569036D01*
X855046Y565986D01*
X857057Y563366D01*
X859676Y561356D01*
X862233Y560297D01*
Y558923D01*
X859676Y557864D01*
X857057Y555854D01*
X855046Y553234D01*
X853783Y550184D01*
X853352Y546910D01*
X853783Y543636D01*
X855046Y540586D01*
X857057Y537966D01*
X859676Y535956D01*
X862233Y534897D01*
Y533523D01*
X859676Y532464D01*
X857057Y530454D01*
X855866Y528903D01*
X854596Y529334D01*
Y533904D01*
X854372Y535611D01*
X853713Y537202D01*
X852664Y538568D01*
X838820Y552413D01*
X839390Y554540D01*
Y556880D01*
X838784Y559141D01*
X837614Y561169D01*
X835959Y562824D01*
X833931Y563994D01*
X831670Y564600D01*
X829330D01*
X827069Y563994D01*
X825041Y562824D01*
X823386Y561169D01*
X822216Y559141D01*
X821610Y556880D01*
Y554540D01*
X822216Y552279D01*
X823386Y550251D01*
X824261Y549377D01*
X824787Y548106D01*
X825836Y546740D01*
X841404Y531172D01*
Y481617D01*
X840134Y481276D01*
X839534Y482315D01*
X837665Y484184D01*
X835375Y485506D01*
X832822Y486190D01*
X830178D01*
X827625Y485506D01*
X825335Y484184D01*
X823466Y482315D01*
X822144Y480025D01*
X821460Y477472D01*
Y474828D01*
X822144Y472275D01*
X823466Y469985D01*
X825335Y468116D01*
X827625Y466794D01*
X830178Y466110D01*
X832822D01*
X835375Y466794D01*
X837665Y468116D01*
X839534Y469985D01*
X840134Y471024D01*
X841404Y470684D01*
Y424960D01*
X841628Y423253D01*
X842287Y421662D01*
X843336Y420296D01*
X848086Y415546D01*
X849452Y414497D01*
X851043Y413838D01*
X852750Y413614D01*
X853460D01*
Y407370D01*
X880948D01*
Y356898D01*
X857006Y332957D01*
X816482D01*
X784346Y365093D01*
Y476478D01*
X810164Y502296D01*
X811213Y503662D01*
X811872Y505253D01*
X812096Y506960D01*
Y590734D01*
X812614Y591251D01*
X813784Y593279D01*
X814390Y595540D01*
Y597880D01*
X813784Y600141D01*
X812614Y602169D01*
X810959Y603824D01*
X808931Y604994D01*
X806670Y605600D01*
X804330D01*
X802069Y604994D01*
X800041Y603824D01*
X798386Y602169D01*
X797216Y600141D01*
X796610Y597880D01*
X795346Y597896D01*
Y635144D01*
X796616Y635312D01*
X796744Y634835D01*
X798066Y632545D01*
X799935Y630676D01*
X802225Y629354D01*
X804778Y628670D01*
X807422D01*
X809975Y629354D01*
X812265Y630676D01*
X814134Y632545D01*
X815456Y634835D01*
X816140Y637388D01*
Y640032D01*
X815456Y642585D01*
X814134Y644875D01*
X812265Y646744D01*
X809975Y648066D01*
X807422Y648750D01*
X804778D01*
X802225Y648066D01*
X799935Y646744D01*
X798066Y644875D01*
X796744Y642585D01*
X796616Y642109D01*
X795346Y642276D01*
Y656228D01*
X830514Y691395D01*
X831563Y692762D01*
X832222Y694353D01*
X832446Y696060D01*
Y722824D01*
X832222Y724531D01*
X831563Y726122D01*
X830514Y727488D01*
X824446Y733556D01*
Y738255D01*
X825174Y738556D01*
X827794Y740566D01*
X829804Y743186D01*
X831067Y746236D01*
X831498Y749510D01*
Y754510D01*
X831067Y757784D01*
X829804Y760834D01*
X827794Y763454D01*
X825174Y765464D01*
X822124Y766727D01*
X818850Y767158D01*
X815576Y766727D01*
X812526Y765464D01*
X809906Y763454D01*
X807896Y760834D01*
X806837Y758277D01*
X805463D01*
X804404Y760834D01*
X802394Y763454D01*
X799774Y765464D01*
X796724Y766727D01*
X793450Y767158D01*
X790176Y766727D01*
X787126Y765464D01*
X784506Y763454D01*
X782496Y760834D01*
X781233Y757784D01*
X780802Y754510D01*
Y749510D01*
X781233Y746236D01*
X782496Y743186D01*
X784506Y740566D01*
X787126Y738556D01*
X790176Y737293D01*
X793450Y736862D01*
X796724Y737293D01*
X799774Y738556D01*
X802394Y740566D01*
X804404Y743186D01*
X805463Y745743D01*
X806837D01*
X807896Y743186D01*
X809906Y740566D01*
X811254Y739533D01*
Y730824D01*
X811478Y729116D01*
X812137Y727525D01*
X813186Y726159D01*
X819253Y720091D01*
Y698792D01*
X784086Y663624D01*
X783037Y662258D01*
X782378Y660667D01*
X782154Y658960D01*
Y516942D01*
X778812Y513601D01*
X777735Y514320D01*
X778122Y515253D01*
X778346Y516960D01*
Y653210D01*
X778122Y654917D01*
X777463Y656508D01*
X776414Y657874D01*
X739832Y694457D01*
Y696170D01*
X741790D01*
Y726250D01*
X716710D01*
Y718750D01*
X715440Y718498D01*
X714804Y720034D01*
X712794Y722654D01*
X710174Y724663D01*
X707124Y725927D01*
X703850Y726358D01*
X700577Y725927D01*
X697526Y724663D01*
X694906Y722654D01*
X692896Y720034D01*
X691837Y717477D01*
X690463D01*
X689404Y720034D01*
X687394Y722654D01*
X684774Y724663D01*
X681724Y725927D01*
X678450Y726358D01*
X675177Y725927D01*
X672126Y724663D01*
X669507Y722654D01*
X667496Y720034D01*
X666438Y717477D01*
X665063D01*
X664004Y720034D01*
X661994Y722654D01*
X659374Y724663D01*
X656324Y725927D01*
X653050Y726358D01*
X649777Y725927D01*
X646726Y724663D01*
X644107Y722654D01*
X642096Y720034D01*
X640833Y716983D01*
X640402Y713710D01*
Y708710D01*
X640788Y705777D01*
X630270Y695258D01*
X629193Y695977D01*
X629217Y696036D01*
X629648Y699310D01*
X629217Y702584D01*
X627954Y705634D01*
X625944Y708254D01*
X623324Y710264D01*
X620768Y711323D01*
Y712697D01*
X623324Y713756D01*
X625944Y715766D01*
X627954Y718386D01*
X629217Y721436D01*
X629648Y724710D01*
X629217Y727984D01*
X627954Y731034D01*
X625944Y733654D01*
X623324Y735664D01*
X620768Y736723D01*
Y738097D01*
X623324Y739156D01*
X625944Y741166D01*
X627954Y743786D01*
X629217Y746836D01*
X629648Y750110D01*
X629217Y753384D01*
X627954Y756434D01*
X625944Y759054D01*
X623324Y761064D01*
X620768Y762123D01*
Y763497D01*
X623324Y764556D01*
X625944Y766566D01*
X627954Y769186D01*
X629217Y772236D01*
X629648Y775510D01*
X629217Y778784D01*
X627954Y781834D01*
X625944Y784454D01*
X623324Y786464D01*
X620274Y787727D01*
X617000Y788158D01*
X612000D01*
X608727Y787727D01*
X605676Y786464D01*
X603056Y784454D01*
X601046Y781834D01*
X599783Y778784D01*
X599352Y775510D01*
X599783Y772236D01*
X601046Y769186D01*
X603056Y766566D01*
X605676Y764556D01*
X608233Y763497D01*
Y762123D01*
X605676Y761064D01*
X603056Y759054D01*
X601046Y756434D01*
X599783Y753384D01*
X599352Y750110D01*
X599783Y746836D01*
X601046Y743786D01*
X603056Y741166D01*
X605676Y739156D01*
X608233Y738097D01*
Y736723D01*
X605676Y735664D01*
X603056Y733654D01*
X601046Y731034D01*
X599783Y727984D01*
X599352Y724710D01*
X599783Y721436D01*
X601046Y718386D01*
X603056Y715766D01*
X605676Y713756D01*
X608233Y712697D01*
Y711323D01*
X605676Y710264D01*
X603056Y708254D01*
X601046Y705634D01*
X599783Y702584D01*
X599352Y699310D01*
X599783Y696036D01*
X601046Y692986D01*
X603056Y690366D01*
X605676Y688356D01*
X608233Y687297D01*
Y685923D01*
X605676Y684864D01*
X603056Y682854D01*
X601046Y680234D01*
X599783Y677184D01*
X599352Y673910D01*
X599783Y670636D01*
X601046Y667586D01*
X603056Y664966D01*
X605676Y662956D01*
X608233Y661897D01*
Y660523D01*
X605676Y659464D01*
X603056Y657454D01*
X601046Y654834D01*
X599783Y651784D01*
X599352Y648510D01*
X599783Y645236D01*
X601046Y642186D01*
X603056Y639566D01*
X605676Y637556D01*
X608233Y636497D01*
Y635123D01*
X605676Y634064D01*
X603056Y632054D01*
X601046Y629434D01*
X599783Y626384D01*
X599352Y623110D01*
X599783Y619836D01*
X601046Y616786D01*
X603056Y614166D01*
X605676Y612156D01*
X608233Y611097D01*
Y609723D01*
X605676Y608664D01*
X603056Y606654D01*
X601046Y604034D01*
X599783Y600984D01*
X599352Y597710D01*
X599783Y594436D01*
X601046Y591386D01*
X603056Y588766D01*
X605676Y586756D01*
X608233Y585697D01*
Y584323D01*
X605676Y583264D01*
X603056Y581254D01*
X601046Y578634D01*
X599783Y575584D01*
X599352Y572310D01*
X599783Y569036D01*
X601046Y565986D01*
X603056Y563366D01*
X605676Y561356D01*
X608233Y560297D01*
Y558923D01*
X605676Y557864D01*
X603056Y555854D01*
X601046Y553234D01*
X599783Y550184D01*
X599352Y546910D01*
X599783Y543636D01*
X601046Y540586D01*
X603056Y537966D01*
X605676Y535956D01*
X608233Y534897D01*
Y533523D01*
X605676Y532464D01*
X603056Y530454D01*
X601046Y527834D01*
X599783Y524784D01*
X599352Y521510D01*
X599783Y518236D01*
X601046Y515186D01*
X603056Y512566D01*
X605676Y510556D01*
X608233Y509497D01*
Y508123D01*
X605676Y507064D01*
X603056Y505054D01*
X601046Y502434D01*
X599783Y499384D01*
X599352Y496110D01*
X599783Y492836D01*
X601046Y489786D01*
X603056Y487166D01*
X605676Y485156D01*
X608233Y484097D01*
Y482723D01*
X605676Y481664D01*
X603056Y479654D01*
X601046Y477034D01*
X599783Y473984D01*
X599352Y470710D01*
X599783Y467436D01*
X601046Y464386D01*
X603056Y461766D01*
X605676Y459756D01*
X608233Y458697D01*
Y457323D01*
X605676Y456264D01*
X603056Y454254D01*
X601255Y451906D01*
X592600D01*
X590893Y451682D01*
X589302Y451023D01*
X587936Y449974D01*
X576086Y438124D01*
X575037Y436758D01*
X574378Y435167D01*
X574154Y433460D01*
Y402710D01*
X516250D01*
X509427Y395887D01*
X508253Y396372D01*
X508000Y772710D01*
X533750Y798460D01*
X563154Y798403D01*
D02*
G37*
G36*
X1352438Y636634D02*
Y612835D01*
X1351168Y612404D01*
X1350998Y612624D01*
X1342214Y621409D01*
X1342438Y623110D01*
X1342007Y626384D01*
X1340744Y629434D01*
X1338734Y632054D01*
X1336114Y634064D01*
X1333557Y635123D01*
Y636497D01*
X1336114Y637556D01*
X1338734Y639566D01*
X1340535Y641914D01*
X1347158D01*
X1352438Y636634D01*
D02*
G37*
G36*
X893648D02*
Y612835D01*
X892378Y612404D01*
X892208Y612624D01*
X883424Y621409D01*
X883648Y623110D01*
X883217Y626384D01*
X881954Y629434D01*
X879944Y632054D01*
X877324Y634064D01*
X874768Y635123D01*
Y636497D01*
X877324Y637556D01*
X879944Y639566D01*
X881745Y641914D01*
X888368D01*
X893648Y636634D01*
D02*
G37*
G36*
X1151686Y702386D02*
X1153697Y699766D01*
X1156044Y697965D01*
Y678860D01*
X1156268Y677152D01*
X1156927Y675562D01*
X1157976Y674195D01*
X1169193Y662978D01*
Y628992D01*
X1131714Y591512D01*
X1105542D01*
X1103835Y591288D01*
X1102244Y590629D01*
X1100878Y589580D01*
X1090204Y578906D01*
X1086535D01*
X1084734Y581254D01*
X1082114Y583264D01*
X1079557Y584323D01*
Y585697D01*
X1082114Y586756D01*
X1084734Y588766D01*
X1086535Y591114D01*
X1098290D01*
X1099997Y591338D01*
X1101588Y591997D01*
X1102954Y593046D01*
X1125522Y615614D01*
X1141290D01*
X1142997Y615838D01*
X1144588Y616497D01*
X1145954Y617546D01*
X1157454Y629046D01*
X1158503Y630412D01*
X1159162Y632003D01*
X1159386Y633710D01*
Y658460D01*
X1159162Y660167D01*
X1158503Y661758D01*
X1157454Y663124D01*
X1143837Y676742D01*
Y697965D01*
X1146184Y699766D01*
X1148194Y702386D01*
X1149253Y704942D01*
X1150628D01*
X1151686Y702386D01*
D02*
G37*
G36*
X692896D02*
X694906Y699766D01*
X697254Y697965D01*
Y678860D01*
X697478Y677152D01*
X698138Y675562D01*
X699186Y674195D01*
X710404Y662978D01*
Y628992D01*
X672924Y591512D01*
X646752D01*
X645045Y591288D01*
X643454Y590629D01*
X642088Y589580D01*
X631414Y578906D01*
X627745D01*
X625944Y581254D01*
X623324Y583264D01*
X620768Y584323D01*
Y585697D01*
X623324Y586756D01*
X625944Y588766D01*
X627745Y591114D01*
X639500D01*
X641207Y591338D01*
X642798Y591997D01*
X644164Y593046D01*
X666732Y615614D01*
X682500D01*
X684207Y615838D01*
X685798Y616497D01*
X687164Y617546D01*
X698664Y629046D01*
X699713Y630412D01*
X700372Y632003D01*
X700596Y633710D01*
Y658460D01*
X700372Y660167D01*
X699713Y661758D01*
X698664Y663124D01*
X685047Y676742D01*
Y697965D01*
X687394Y699766D01*
X689404Y702386D01*
X690463Y704942D01*
X691837D01*
X692896Y702386D01*
D02*
G37*
G36*
X1175500Y703669D02*
Y696170D01*
X1185429D01*
Y691725D01*
X1185654Y690017D01*
X1186313Y688426D01*
X1187361Y687060D01*
X1223944Y650478D01*
Y519692D01*
X1217308Y513056D01*
X1131772D01*
X1094411Y550418D01*
X1093045Y551466D01*
X1091454Y552125D01*
X1089746Y552350D01*
X1087110D01*
X1086744Y553234D01*
X1084734Y555854D01*
X1082114Y557864D01*
X1079557Y558923D01*
Y560297D01*
X1082114Y561356D01*
X1084734Y563366D01*
X1086535Y565714D01*
X1092936D01*
X1094643Y565938D01*
X1096234Y566597D01*
X1097600Y567646D01*
X1108274Y578320D01*
X1134446D01*
X1136153Y578544D01*
X1137744Y579203D01*
X1139110Y580252D01*
X1180454Y621595D01*
X1181503Y622962D01*
X1182162Y624552D01*
X1182386Y626260D01*
Y665710D01*
X1182162Y667417D01*
X1181503Y669008D01*
X1180454Y670374D01*
X1169237Y681592D01*
Y697965D01*
X1171584Y699766D01*
X1173594Y702386D01*
X1174230Y703922D01*
X1175500Y703669D01*
D02*
G37*
G36*
X716710D02*
Y696170D01*
X726639D01*
Y691725D01*
X726864Y690017D01*
X727523Y688426D01*
X728571Y687060D01*
X765154Y650478D01*
Y519692D01*
X758518Y513056D01*
X672982D01*
X635621Y550418D01*
X634255Y551466D01*
X632664Y552125D01*
X630956Y552350D01*
X628320D01*
X627954Y553234D01*
X625944Y555854D01*
X623324Y557864D01*
X620768Y558923D01*
Y560297D01*
X623324Y561356D01*
X625944Y563366D01*
X627745Y565714D01*
X634146D01*
X635853Y565938D01*
X637444Y566597D01*
X638810Y567646D01*
X649484Y578320D01*
X675656D01*
X677364Y578544D01*
X678954Y579203D01*
X680321Y580252D01*
X721664Y621595D01*
X722713Y622962D01*
X723372Y624552D01*
X723596Y626260D01*
Y665710D01*
X723372Y667417D01*
X722713Y669008D01*
X721664Y670374D01*
X710447Y681592D01*
Y697965D01*
X712794Y699766D01*
X714804Y702386D01*
X715440Y703922D01*
X716710Y703669D01*
D02*
G37*
G36*
X1124376Y501796D02*
X1125742Y500747D01*
X1127333Y500088D01*
X1129040Y499864D01*
X1220040D01*
X1221747Y500088D01*
X1222680Y500475D01*
X1223399Y499398D01*
X1184952Y460950D01*
X1183903Y459584D01*
X1183244Y457993D01*
X1183020Y456286D01*
Y341518D01*
X1176211Y334710D01*
X1114040D01*
X1076040Y372710D01*
Y402710D01*
X1046136D01*
Y430728D01*
X1054122Y438713D01*
X1060045D01*
X1061846Y436366D01*
X1064466Y434356D01*
X1066002Y433720D01*
X1065750Y432450D01*
X1058250D01*
Y422410D01*
X1088330D01*
Y432450D01*
X1080831D01*
X1080578Y433720D01*
X1082114Y434356D01*
X1084734Y436366D01*
X1086744Y438986D01*
X1088007Y442036D01*
X1088438Y445310D01*
X1088007Y448584D01*
X1086744Y451634D01*
X1084734Y454254D01*
X1082114Y456264D01*
X1079557Y457323D01*
Y458697D01*
X1082114Y459756D01*
X1084734Y461766D01*
X1086744Y464386D01*
X1088007Y467436D01*
X1088438Y470710D01*
X1088007Y473984D01*
X1086744Y477034D01*
X1084734Y479654D01*
X1082114Y481664D01*
X1079557Y482723D01*
Y484097D01*
X1082114Y485156D01*
X1084734Y487166D01*
X1086744Y489786D01*
X1088007Y492836D01*
X1088438Y496110D01*
X1088007Y499384D01*
X1086744Y502434D01*
X1084734Y505054D01*
X1082114Y507064D01*
X1079557Y508123D01*
Y509497D01*
X1082114Y510556D01*
X1084734Y512566D01*
X1086744Y515186D01*
X1088007Y518236D01*
X1088438Y521510D01*
X1088007Y524784D01*
X1086744Y527834D01*
X1084734Y530454D01*
X1082114Y532464D01*
X1079557Y533523D01*
Y534897D01*
X1082114Y535956D01*
X1084734Y537966D01*
X1085648Y539157D01*
X1087014D01*
X1124376Y501796D01*
D02*
G37*
G36*
X665586D02*
X666952Y500747D01*
X668543Y500088D01*
X670250Y499864D01*
X761250D01*
X762957Y500088D01*
X763890Y500475D01*
X764609Y499398D01*
X726162Y460950D01*
X725113Y459584D01*
X724454Y457993D01*
X724230Y456286D01*
Y341518D01*
X717421Y334710D01*
X655250D01*
X617250Y372710D01*
Y402710D01*
X587346D01*
Y430728D01*
X595332Y438713D01*
X601255D01*
X603056Y436366D01*
X605676Y434356D01*
X607212Y433720D01*
X606960Y432450D01*
X599460D01*
Y422410D01*
X629540D01*
Y432450D01*
X622041D01*
X621788Y433720D01*
X623324Y434356D01*
X625944Y436366D01*
X627954Y438986D01*
X629217Y442036D01*
X629648Y445310D01*
X629217Y448584D01*
X627954Y451634D01*
X625944Y454254D01*
X623324Y456264D01*
X620768Y457323D01*
Y458697D01*
X623324Y459756D01*
X625944Y461766D01*
X627954Y464386D01*
X629217Y467436D01*
X629648Y470710D01*
X629217Y473984D01*
X627954Y477034D01*
X625944Y479654D01*
X623324Y481664D01*
X620768Y482723D01*
Y484097D01*
X623324Y485156D01*
X625944Y487166D01*
X627954Y489786D01*
X629217Y492836D01*
X629648Y496110D01*
X629217Y499384D01*
X627954Y502434D01*
X625944Y505054D01*
X623324Y507064D01*
X620768Y508123D01*
Y509497D01*
X623324Y510556D01*
X625944Y512566D01*
X627954Y515186D01*
X629217Y518236D01*
X629648Y521510D01*
X629217Y524784D01*
X627954Y527834D01*
X625944Y530454D01*
X623324Y532464D01*
X620768Y533523D01*
Y534897D01*
X623324Y535956D01*
X625944Y537966D01*
X626857Y539157D01*
X628224D01*
X665586Y501796D01*
D02*
G37*
%LPC*%
G36*
X1135262Y1201580D02*
X1132618D01*
X1130065Y1200896D01*
X1127775Y1199574D01*
X1125906Y1197705D01*
X1124584Y1195415D01*
X1123900Y1192862D01*
Y1190218D01*
X1124584Y1187665D01*
X1125906Y1185375D01*
X1127775Y1183506D01*
X1130065Y1182184D01*
X1132618Y1181500D01*
X1135262D01*
X1137815Y1182184D01*
X1140105Y1183506D01*
X1141974Y1185375D01*
X1143296Y1187665D01*
X1143980Y1190218D01*
Y1192862D01*
X1143296Y1195415D01*
X1141974Y1197705D01*
X1140105Y1199574D01*
X1137815Y1200896D01*
X1135262Y1201580D01*
D02*
G37*
G36*
X676472D02*
X673828D01*
X671275Y1200896D01*
X668985Y1199574D01*
X667116Y1197705D01*
X665794Y1195415D01*
X665110Y1192862D01*
Y1190218D01*
X665794Y1187665D01*
X667116Y1185375D01*
X668985Y1183506D01*
X671275Y1182184D01*
X673828Y1181500D01*
X676472D01*
X679025Y1182184D01*
X681315Y1183506D01*
X683184Y1185375D01*
X684506Y1187665D01*
X685190Y1190218D01*
Y1192862D01*
X684506Y1195415D01*
X683184Y1197705D01*
X681315Y1199574D01*
X679025Y1200896D01*
X676472Y1201580D01*
D02*
G37*
G36*
X1020080Y1348320D02*
X1013040D01*
Y1341280D01*
X1020080D01*
Y1348320D01*
D02*
G37*
G36*
X1008040D02*
X1001000D01*
Y1341280D01*
X1008040D01*
Y1348320D01*
D02*
G37*
G36*
X1020080Y1336280D02*
X1013040D01*
Y1329240D01*
X1020080D01*
Y1336280D01*
D02*
G37*
G36*
X1008040D02*
X1001000D01*
Y1329240D01*
X1008040D01*
Y1336280D01*
D02*
G37*
G36*
X1375612Y1336820D02*
X1372968D01*
X1370415Y1336136D01*
X1368125Y1334814D01*
X1366256Y1332945D01*
X1364934Y1330655D01*
X1364250Y1328102D01*
Y1325458D01*
X1364934Y1322905D01*
X1366256Y1320615D01*
X1368125Y1318746D01*
X1370415Y1317424D01*
X1372968Y1316740D01*
X1375612D01*
X1378165Y1317424D01*
X1380455Y1318746D01*
X1382324Y1320615D01*
X1383646Y1322905D01*
X1384330Y1325458D01*
Y1328102D01*
X1383646Y1330655D01*
X1382324Y1332945D01*
X1380455Y1334814D01*
X1378165Y1336136D01*
X1375612Y1336820D01*
D02*
G37*
G36*
Y1311420D02*
X1372968D01*
X1370415Y1310736D01*
X1368125Y1309414D01*
X1366256Y1307545D01*
X1364934Y1305255D01*
X1364250Y1302702D01*
Y1300058D01*
X1364934Y1297505D01*
X1366256Y1295215D01*
X1368125Y1293346D01*
X1370415Y1292024D01*
X1372968Y1291340D01*
X1375612D01*
X1378165Y1292024D01*
X1380455Y1293346D01*
X1382324Y1295215D01*
X1383646Y1297505D01*
X1384330Y1300058D01*
Y1302702D01*
X1383646Y1305255D01*
X1382324Y1307545D01*
X1380455Y1309414D01*
X1378165Y1310736D01*
X1375612Y1311420D01*
D02*
G37*
G36*
Y1286020D02*
X1372968D01*
X1370415Y1285336D01*
X1368125Y1284014D01*
X1366256Y1282145D01*
X1364934Y1279855D01*
X1364250Y1277302D01*
Y1274658D01*
X1364934Y1272105D01*
X1366256Y1269815D01*
X1368125Y1267946D01*
X1370415Y1266624D01*
X1372968Y1265940D01*
X1375612D01*
X1378165Y1266624D01*
X1380455Y1267946D01*
X1382324Y1269815D01*
X1383646Y1272105D01*
X1384330Y1274658D01*
Y1277302D01*
X1383646Y1279855D01*
X1382324Y1282145D01*
X1380455Y1284014D01*
X1378165Y1285336D01*
X1375612Y1286020D01*
D02*
G37*
G36*
Y1260620D02*
X1372968D01*
X1370415Y1259936D01*
X1368125Y1258614D01*
X1366256Y1256745D01*
X1364934Y1254455D01*
X1364250Y1251902D01*
Y1249258D01*
X1364934Y1246705D01*
X1366256Y1244415D01*
X1368125Y1242546D01*
X1370415Y1241224D01*
X1372968Y1240540D01*
X1375612D01*
X1378165Y1241224D01*
X1380455Y1242546D01*
X1382324Y1244415D01*
X1383646Y1246705D01*
X1384330Y1249258D01*
Y1251902D01*
X1383646Y1254455D01*
X1382324Y1256745D01*
X1380455Y1258614D01*
X1378165Y1259936D01*
X1375612Y1260620D01*
D02*
G37*
G36*
X1014263Y1218520D02*
X1011817D01*
X1009454Y1217887D01*
X1007336Y1216664D01*
X1005606Y1214934D01*
X1004383Y1212816D01*
X1003750Y1210453D01*
Y1208007D01*
X1004383Y1205644D01*
X1005606Y1203526D01*
X1007336Y1201796D01*
X1009454Y1200573D01*
X1011817Y1199940D01*
X1014263D01*
X1016626Y1200573D01*
X1018744Y1201796D01*
X1020474Y1203526D01*
X1021697Y1205644D01*
X1022330Y1208007D01*
Y1210453D01*
X1021697Y1212816D01*
X1020474Y1214934D01*
X1018744Y1216664D01*
X1016626Y1217887D01*
X1014263Y1218520D01*
D02*
G37*
G36*
X1037040Y1189014D02*
Y1182980D01*
X1043074D01*
X1042824Y1183911D01*
X1041654Y1185939D01*
X1039999Y1187594D01*
X1037971Y1188764D01*
X1037040Y1189014D01*
D02*
G37*
G36*
X1032040D02*
X1031109Y1188764D01*
X1029081Y1187594D01*
X1027426Y1185939D01*
X1026256Y1183911D01*
X1026006Y1182980D01*
X1032040D01*
Y1189014D01*
D02*
G37*
G36*
X1291612Y1200020D02*
X1288968D01*
X1286415Y1199336D01*
X1284125Y1198014D01*
X1282256Y1196145D01*
X1280934Y1193855D01*
X1280250Y1191302D01*
Y1188658D01*
X1280934Y1186105D01*
X1282256Y1183815D01*
X1284125Y1181946D01*
X1286415Y1180624D01*
X1288968Y1179940D01*
X1291612D01*
X1294165Y1180624D01*
X1296455Y1181946D01*
X1298324Y1183815D01*
X1299646Y1186105D01*
X1300330Y1188658D01*
Y1191302D01*
X1299646Y1193855D01*
X1298324Y1196145D01*
X1296455Y1198014D01*
X1294165Y1199336D01*
X1291612Y1200020D01*
D02*
G37*
G36*
X1043074Y1177980D02*
X1037040D01*
Y1171946D01*
X1037971Y1172196D01*
X1039999Y1173366D01*
X1041654Y1175021D01*
X1042824Y1177049D01*
X1043074Y1177980D01*
D02*
G37*
G36*
X1032040D02*
X1026006D01*
X1026256Y1177049D01*
X1027426Y1175021D01*
X1029081Y1173366D01*
X1031109Y1172196D01*
X1032040Y1171946D01*
Y1177980D01*
D02*
G37*
G36*
X1007790Y1158270D02*
X1004290D01*
X1000910Y1157364D01*
X997880Y1155615D01*
X995405Y1153140D01*
X993656Y1150110D01*
X992750Y1146730D01*
Y1143230D01*
X993656Y1139850D01*
X995405Y1136820D01*
X997880Y1134345D01*
X1000910Y1132596D01*
X1004290Y1131690D01*
X1007790D01*
X1011170Y1132596D01*
X1014200Y1134345D01*
X1016675Y1136820D01*
X1018424Y1139850D01*
X1019330Y1143230D01*
Y1146730D01*
X1018424Y1150110D01*
X1016675Y1153140D01*
X1014200Y1155615D01*
X1011170Y1157364D01*
X1007790Y1158270D01*
D02*
G37*
G36*
X1019330Y1118670D02*
X992750D01*
Y1092090D01*
X1010001D01*
X1019444Y1082648D01*
Y1066746D01*
X1018495Y1066492D01*
X1018174Y1066491D01*
X1015700Y1068965D01*
X1012670Y1070714D01*
X1009290Y1071620D01*
X1005790D01*
X1002410Y1070714D01*
X999380Y1068965D01*
X996906Y1066490D01*
X995156Y1063460D01*
X994250Y1060080D01*
Y1056580D01*
X995156Y1053200D01*
X996906Y1050170D01*
X999380Y1047695D01*
X1002410Y1045946D01*
X1005790Y1045040D01*
X1009290D01*
X1012670Y1045946D01*
X1015700Y1047695D01*
X1018174Y1050168D01*
X1018495Y1050168D01*
X1019444Y1049914D01*
Y1039962D01*
X1011034Y1031552D01*
X1009290Y1032020D01*
X1005790D01*
X1002410Y1031114D01*
X999380Y1029364D01*
X996906Y1026890D01*
X995156Y1023859D01*
X994250Y1020479D01*
Y1016980D01*
X995156Y1013600D01*
X996906Y1010570D01*
X999380Y1008095D01*
X1002410Y1006346D01*
X1005790Y1005440D01*
X1009290D01*
X1012670Y1006346D01*
X1015700Y1008095D01*
X1018175Y1010570D01*
X1019924Y1013600D01*
X1020830Y1016980D01*
Y1020479D01*
X1020363Y1022224D01*
X1030704Y1032565D01*
X1031753Y1033931D01*
X1032412Y1035522D01*
X1032636Y1037230D01*
Y1085380D01*
X1032412Y1087087D01*
X1031753Y1088678D01*
X1030704Y1090044D01*
X1019330Y1101419D01*
Y1118670D01*
D02*
G37*
G36*
X1266212Y1037460D02*
X1263568D01*
X1261015Y1036776D01*
X1258725Y1035454D01*
X1256856Y1033585D01*
X1255534Y1031295D01*
X1254850Y1028742D01*
Y1026098D01*
X1255534Y1023545D01*
X1256856Y1021255D01*
X1258725Y1019386D01*
X1261015Y1018064D01*
X1263568Y1017380D01*
X1266212D01*
X1268765Y1018064D01*
X1271055Y1019386D01*
X1272924Y1021255D01*
X1274246Y1023545D01*
X1274930Y1026098D01*
Y1028742D01*
X1274246Y1031295D01*
X1272924Y1033585D01*
X1271055Y1035454D01*
X1268765Y1036776D01*
X1266212Y1037460D01*
D02*
G37*
G36*
X1020830Y992420D02*
X994250D01*
Y965840D01*
X1020830D01*
Y992420D01*
D02*
G37*
G36*
X1215763Y923520D02*
X1213317D01*
X1210954Y922887D01*
X1208836Y921664D01*
X1207106Y919934D01*
X1205883Y917816D01*
X1205250Y915453D01*
Y913007D01*
X1205883Y910644D01*
X1207106Y908526D01*
X1208836Y906796D01*
X1210954Y905573D01*
X1213317Y904940D01*
X1215763D01*
X1218126Y905573D01*
X1220244Y906796D01*
X1221974Y908526D01*
X1223197Y910644D01*
X1223830Y913007D01*
Y915453D01*
X1223197Y917816D01*
X1221974Y919934D01*
X1220244Y921664D01*
X1218126Y922887D01*
X1215763Y923520D01*
D02*
G37*
G36*
X561290Y1348320D02*
X554250D01*
Y1341280D01*
X561290D01*
Y1348320D01*
D02*
G37*
G36*
X549250D02*
X542210D01*
Y1341280D01*
X549250D01*
Y1348320D01*
D02*
G37*
G36*
X561290Y1336280D02*
X554250D01*
Y1329240D01*
X561290D01*
Y1336280D01*
D02*
G37*
G36*
X549250D02*
X542210D01*
Y1329240D01*
X549250D01*
Y1336280D01*
D02*
G37*
G36*
X916822Y1336820D02*
X914178D01*
X911625Y1336136D01*
X909335Y1334814D01*
X907466Y1332945D01*
X906144Y1330655D01*
X905460Y1328102D01*
Y1325458D01*
X906144Y1322905D01*
X907466Y1320615D01*
X909335Y1318746D01*
X911625Y1317424D01*
X914178Y1316740D01*
X916822D01*
X919375Y1317424D01*
X921665Y1318746D01*
X923534Y1320615D01*
X924856Y1322905D01*
X925540Y1325458D01*
Y1328102D01*
X924856Y1330655D01*
X923534Y1332945D01*
X921665Y1334814D01*
X919375Y1336136D01*
X916822Y1336820D01*
D02*
G37*
G36*
Y1311420D02*
X914178D01*
X911625Y1310736D01*
X909335Y1309414D01*
X907466Y1307545D01*
X906144Y1305255D01*
X905460Y1302702D01*
Y1300058D01*
X906144Y1297505D01*
X907466Y1295215D01*
X909335Y1293346D01*
X911625Y1292024D01*
X914178Y1291340D01*
X916822D01*
X919375Y1292024D01*
X921665Y1293346D01*
X923534Y1295215D01*
X924856Y1297505D01*
X925540Y1300058D01*
Y1302702D01*
X924856Y1305255D01*
X923534Y1307545D01*
X921665Y1309414D01*
X919375Y1310736D01*
X916822Y1311420D01*
D02*
G37*
G36*
Y1286020D02*
X914178D01*
X911625Y1285336D01*
X909335Y1284014D01*
X907466Y1282145D01*
X906144Y1279855D01*
X905460Y1277302D01*
Y1274658D01*
X906144Y1272105D01*
X907466Y1269815D01*
X909335Y1267946D01*
X911625Y1266624D01*
X914178Y1265940D01*
X916822D01*
X919375Y1266624D01*
X921665Y1267946D01*
X923534Y1269815D01*
X924856Y1272105D01*
X925540Y1274658D01*
Y1277302D01*
X924856Y1279855D01*
X923534Y1282145D01*
X921665Y1284014D01*
X919375Y1285336D01*
X916822Y1286020D01*
D02*
G37*
G36*
Y1260620D02*
X914178D01*
X911625Y1259936D01*
X909335Y1258614D01*
X907466Y1256745D01*
X906144Y1254455D01*
X905460Y1251902D01*
Y1249258D01*
X906144Y1246705D01*
X907466Y1244415D01*
X909335Y1242546D01*
X911625Y1241224D01*
X914178Y1240540D01*
X916822D01*
X919375Y1241224D01*
X921665Y1242546D01*
X923534Y1244415D01*
X924856Y1246705D01*
X925540Y1249258D01*
Y1251902D01*
X924856Y1254455D01*
X923534Y1256745D01*
X921665Y1258614D01*
X919375Y1259936D01*
X916822Y1260620D01*
D02*
G37*
G36*
X555473Y1218520D02*
X553027D01*
X550664Y1217887D01*
X548546Y1216664D01*
X546816Y1214934D01*
X545593Y1212816D01*
X544960Y1210453D01*
Y1208007D01*
X545593Y1205644D01*
X546816Y1203526D01*
X548546Y1201796D01*
X550664Y1200573D01*
X553027Y1199940D01*
X555473D01*
X557836Y1200573D01*
X559954Y1201796D01*
X561684Y1203526D01*
X562907Y1205644D01*
X563540Y1208007D01*
Y1210453D01*
X562907Y1212816D01*
X561684Y1214934D01*
X559954Y1216664D01*
X557836Y1217887D01*
X555473Y1218520D01*
D02*
G37*
G36*
X578250Y1189014D02*
Y1182980D01*
X584284D01*
X584034Y1183911D01*
X582864Y1185939D01*
X581209Y1187594D01*
X579181Y1188764D01*
X578250Y1189014D01*
D02*
G37*
G36*
X573250D02*
X572319Y1188764D01*
X570291Y1187594D01*
X568636Y1185939D01*
X567466Y1183911D01*
X567216Y1182980D01*
X573250D01*
Y1189014D01*
D02*
G37*
G36*
X832822Y1200020D02*
X830178D01*
X827625Y1199336D01*
X825335Y1198014D01*
X823466Y1196145D01*
X822144Y1193855D01*
X821460Y1191302D01*
Y1188658D01*
X822144Y1186105D01*
X823466Y1183815D01*
X825335Y1181946D01*
X827625Y1180624D01*
X830178Y1179940D01*
X832822D01*
X835375Y1180624D01*
X837665Y1181946D01*
X839534Y1183815D01*
X840856Y1186105D01*
X841540Y1188658D01*
Y1191302D01*
X840856Y1193855D01*
X839534Y1196145D01*
X837665Y1198014D01*
X835375Y1199336D01*
X832822Y1200020D01*
D02*
G37*
G36*
X584284Y1177980D02*
X578250D01*
Y1171946D01*
X579181Y1172196D01*
X581209Y1173366D01*
X582864Y1175021D01*
X584034Y1177049D01*
X584284Y1177980D01*
D02*
G37*
G36*
X573250D02*
X567216D01*
X567466Y1177049D01*
X568636Y1175021D01*
X570291Y1173366D01*
X572319Y1172196D01*
X573250Y1171946D01*
Y1177980D01*
D02*
G37*
G36*
X549000Y1158270D02*
X545500D01*
X542120Y1157364D01*
X539090Y1155615D01*
X536615Y1153140D01*
X534866Y1150110D01*
X533960Y1146730D01*
Y1143230D01*
X534866Y1139850D01*
X536615Y1136820D01*
X539090Y1134345D01*
X542120Y1132596D01*
X545500Y1131690D01*
X549000D01*
X552380Y1132596D01*
X555410Y1134345D01*
X557885Y1136820D01*
X559634Y1139850D01*
X560540Y1143230D01*
Y1146730D01*
X559634Y1150110D01*
X557885Y1153140D01*
X555410Y1155615D01*
X552380Y1157364D01*
X549000Y1158270D01*
D02*
G37*
G36*
X560540Y1118670D02*
X533960D01*
Y1092090D01*
X551211D01*
X560654Y1082648D01*
Y1066746D01*
X559705Y1066492D01*
X559384Y1066491D01*
X556910Y1068965D01*
X553880Y1070714D01*
X550500Y1071620D01*
X547001D01*
X543620Y1070714D01*
X540590Y1068965D01*
X538116Y1066490D01*
X536366Y1063460D01*
X535460Y1060080D01*
Y1056580D01*
X536366Y1053200D01*
X538116Y1050170D01*
X540590Y1047695D01*
X543620Y1045946D01*
X547001Y1045040D01*
X550500D01*
X553880Y1045946D01*
X556910Y1047695D01*
X559384Y1050168D01*
X559705Y1050168D01*
X560654Y1049914D01*
Y1039962D01*
X552244Y1031552D01*
X550500Y1032020D01*
X547001D01*
X543620Y1031114D01*
X540590Y1029364D01*
X538116Y1026890D01*
X536366Y1023859D01*
X535460Y1020479D01*
Y1016980D01*
X536366Y1013600D01*
X538116Y1010570D01*
X540590Y1008095D01*
X543620Y1006346D01*
X547001Y1005440D01*
X550500D01*
X553880Y1006346D01*
X556910Y1008095D01*
X559385Y1010570D01*
X561134Y1013600D01*
X562040Y1016980D01*
Y1020479D01*
X561573Y1022224D01*
X571914Y1032565D01*
X572963Y1033931D01*
X573622Y1035522D01*
X573846Y1037230D01*
Y1085380D01*
X573622Y1087087D01*
X572963Y1088678D01*
X571914Y1090044D01*
X560540Y1101419D01*
Y1118670D01*
D02*
G37*
G36*
X807422Y1037460D02*
X804778D01*
X802225Y1036776D01*
X799935Y1035454D01*
X798066Y1033585D01*
X796744Y1031295D01*
X796060Y1028742D01*
Y1026098D01*
X796744Y1023545D01*
X798066Y1021255D01*
X799935Y1019386D01*
X802225Y1018064D01*
X804778Y1017380D01*
X807422D01*
X809975Y1018064D01*
X812265Y1019386D01*
X814134Y1021255D01*
X815456Y1023545D01*
X816140Y1026098D01*
Y1028742D01*
X815456Y1031295D01*
X814134Y1033585D01*
X812265Y1035454D01*
X809975Y1036776D01*
X807422Y1037460D01*
D02*
G37*
G36*
X562040Y992420D02*
X535460D01*
Y965840D01*
X562040D01*
Y992420D01*
D02*
G37*
G36*
X756973Y923520D02*
X754527D01*
X752164Y922887D01*
X750046Y921664D01*
X748316Y919934D01*
X747093Y917816D01*
X746460Y915453D01*
Y913007D01*
X747093Y910644D01*
X748316Y908526D01*
X750046Y906796D01*
X752164Y905573D01*
X754527Y904940D01*
X756973D01*
X759336Y905573D01*
X761454Y906796D01*
X763184Y908526D01*
X764407Y910644D01*
X765040Y913007D01*
Y915453D01*
X764407Y917816D01*
X763184Y919934D01*
X761454Y921664D01*
X759336Y922887D01*
X756973Y923520D01*
D02*
G37*
G36*
X1212112Y1146520D02*
X1209468D01*
X1206915Y1145836D01*
X1204625Y1144514D01*
X1202756Y1142645D01*
X1201434Y1140355D01*
X1200750Y1137802D01*
Y1135158D01*
X1201434Y1132605D01*
X1202756Y1130315D01*
X1204625Y1128446D01*
X1206915Y1127124D01*
X1209468Y1126440D01*
X1212112D01*
X1214665Y1127124D01*
X1216955Y1128446D01*
X1218824Y1130315D01*
X1220146Y1132605D01*
X1220830Y1135158D01*
Y1137802D01*
X1220146Y1140355D01*
X1218824Y1142645D01*
X1216955Y1144514D01*
X1214665Y1145836D01*
X1212112Y1146520D01*
D02*
G37*
G36*
X1189362D02*
X1186718D01*
X1184165Y1145836D01*
X1181875Y1144514D01*
X1180006Y1142645D01*
X1178684Y1140355D01*
X1178000Y1137802D01*
Y1135158D01*
X1178684Y1132605D01*
X1180006Y1130315D01*
X1181875Y1128446D01*
X1184165Y1127124D01*
X1186718Y1126440D01*
X1189362D01*
X1191915Y1127124D01*
X1194205Y1128446D01*
X1196074Y1130315D01*
X1197396Y1132605D01*
X1198080Y1135158D01*
Y1137802D01*
X1197396Y1140355D01*
X1196074Y1142645D01*
X1194205Y1144514D01*
X1191915Y1145836D01*
X1189362Y1146520D01*
D02*
G37*
G36*
X1188040Y1124228D02*
X1184767Y1123797D01*
X1181716Y1122534D01*
X1179097Y1120524D01*
X1177086Y1117904D01*
X1176028Y1115348D01*
X1174653D01*
X1173594Y1117904D01*
X1171584Y1120524D01*
X1168964Y1122534D01*
X1165914Y1123797D01*
X1162640Y1124228D01*
X1159367Y1123797D01*
X1156316Y1122534D01*
X1153697Y1120524D01*
X1151686Y1117904D01*
X1150628Y1115348D01*
X1149253D01*
X1148194Y1117904D01*
X1146184Y1120524D01*
X1143564Y1122534D01*
X1140514Y1123797D01*
X1137240Y1124228D01*
X1133967Y1123797D01*
X1130916Y1122534D01*
X1128297Y1120524D01*
X1126286Y1117904D01*
X1125228Y1115348D01*
X1123853D01*
X1122794Y1117904D01*
X1120784Y1120524D01*
X1118164Y1122534D01*
X1115114Y1123797D01*
X1111840Y1124228D01*
X1108567Y1123797D01*
X1105516Y1122534D01*
X1102896Y1120524D01*
X1100887Y1117904D01*
X1099623Y1114854D01*
X1099192Y1111580D01*
Y1106580D01*
X1099623Y1103307D01*
X1100887Y1100256D01*
X1102896Y1097636D01*
X1105516Y1095627D01*
X1108567Y1094363D01*
X1111840Y1093932D01*
X1115114Y1094363D01*
X1118164Y1095627D01*
X1120784Y1097636D01*
X1122794Y1100256D01*
X1123853Y1102813D01*
X1125228D01*
X1126286Y1100256D01*
X1128297Y1097636D01*
X1130916Y1095627D01*
X1133967Y1094363D01*
X1137240Y1093932D01*
X1140514Y1094363D01*
X1143564Y1095627D01*
X1146184Y1097636D01*
X1148194Y1100256D01*
X1149253Y1102813D01*
X1150628D01*
X1151686Y1100256D01*
X1153697Y1097636D01*
X1156316Y1095627D01*
X1159367Y1094363D01*
X1162640Y1093932D01*
X1165914Y1094363D01*
X1168964Y1095627D01*
X1171584Y1097636D01*
X1173594Y1100256D01*
X1174653Y1102813D01*
X1176028D01*
X1177086Y1100256D01*
X1179097Y1097636D01*
X1181716Y1095627D01*
X1184767Y1094363D01*
X1188040Y1093932D01*
X1191314Y1094363D01*
X1194364Y1095627D01*
X1196984Y1097636D01*
X1198994Y1100256D01*
X1200257Y1103307D01*
X1200688Y1106580D01*
Y1111580D01*
X1200257Y1114854D01*
X1198994Y1117904D01*
X1196984Y1120524D01*
X1194364Y1122534D01*
X1191314Y1123797D01*
X1188040Y1124228D01*
D02*
G37*
G36*
X1212112Y1089520D02*
X1209468D01*
X1206915Y1088836D01*
X1204625Y1087514D01*
X1202756Y1085645D01*
X1201434Y1083355D01*
X1200750Y1080802D01*
Y1078158D01*
X1201434Y1075605D01*
X1202756Y1073315D01*
X1204625Y1071446D01*
X1206915Y1070124D01*
X1209468Y1069440D01*
X1212112D01*
X1214665Y1070124D01*
X1216955Y1071446D01*
X1218824Y1073315D01*
X1220146Y1075605D01*
X1220830Y1078158D01*
Y1080802D01*
X1220146Y1083355D01*
X1218824Y1085645D01*
X1216955Y1087514D01*
X1214665Y1088836D01*
X1212112Y1089520D01*
D02*
G37*
G36*
X1189362D02*
X1186718D01*
X1184165Y1088836D01*
X1181875Y1087514D01*
X1180006Y1085645D01*
X1178684Y1083355D01*
X1178000Y1080802D01*
Y1078158D01*
X1178684Y1075605D01*
X1180006Y1073315D01*
X1181875Y1071446D01*
X1184165Y1070124D01*
X1186718Y1069440D01*
X1189362D01*
X1191915Y1070124D01*
X1194205Y1071446D01*
X1196074Y1073315D01*
X1197396Y1075605D01*
X1198080Y1078158D01*
Y1080802D01*
X1197396Y1083355D01*
X1196074Y1085645D01*
X1194205Y1087514D01*
X1191915Y1088836D01*
X1189362Y1089520D01*
D02*
G37*
G36*
X753322Y1146520D02*
X750678D01*
X748125Y1145836D01*
X745835Y1144514D01*
X743966Y1142645D01*
X742644Y1140355D01*
X741960Y1137802D01*
Y1135158D01*
X742644Y1132605D01*
X743966Y1130315D01*
X745835Y1128446D01*
X748125Y1127124D01*
X750678Y1126440D01*
X753322D01*
X755875Y1127124D01*
X758165Y1128446D01*
X760034Y1130315D01*
X761356Y1132605D01*
X762040Y1135158D01*
Y1137802D01*
X761356Y1140355D01*
X760034Y1142645D01*
X758165Y1144514D01*
X755875Y1145836D01*
X753322Y1146520D01*
D02*
G37*
G36*
X730572D02*
X727928D01*
X725375Y1145836D01*
X723085Y1144514D01*
X721216Y1142645D01*
X719894Y1140355D01*
X719210Y1137802D01*
Y1135158D01*
X719894Y1132605D01*
X721216Y1130315D01*
X723085Y1128446D01*
X725375Y1127124D01*
X727928Y1126440D01*
X730572D01*
X733125Y1127124D01*
X735415Y1128446D01*
X737284Y1130315D01*
X738606Y1132605D01*
X739290Y1135158D01*
Y1137802D01*
X738606Y1140355D01*
X737284Y1142645D01*
X735415Y1144514D01*
X733125Y1145836D01*
X730572Y1146520D01*
D02*
G37*
G36*
X729250Y1124228D02*
X725977Y1123797D01*
X722926Y1122534D01*
X720306Y1120524D01*
X718297Y1117904D01*
X717237Y1115348D01*
X715863D01*
X714804Y1117904D01*
X712794Y1120524D01*
X710174Y1122534D01*
X707124Y1123797D01*
X703850Y1124228D01*
X700577Y1123797D01*
X697526Y1122534D01*
X694906Y1120524D01*
X692896Y1117904D01*
X691837Y1115348D01*
X690463D01*
X689404Y1117904D01*
X687394Y1120524D01*
X684774Y1122534D01*
X681724Y1123797D01*
X678450Y1124228D01*
X675177Y1123797D01*
X672126Y1122534D01*
X669507Y1120524D01*
X667496Y1117904D01*
X666438Y1115348D01*
X665063D01*
X664004Y1117904D01*
X661994Y1120524D01*
X659374Y1122534D01*
X656324Y1123797D01*
X653050Y1124228D01*
X649777Y1123797D01*
X646726Y1122534D01*
X644107Y1120524D01*
X642096Y1117904D01*
X640833Y1114854D01*
X640402Y1111580D01*
Y1106580D01*
X640833Y1103307D01*
X642096Y1100256D01*
X644107Y1097636D01*
X646726Y1095627D01*
X649777Y1094363D01*
X653050Y1093932D01*
X656324Y1094363D01*
X659374Y1095627D01*
X661994Y1097636D01*
X664004Y1100256D01*
X665063Y1102813D01*
X666438D01*
X667496Y1100256D01*
X669507Y1097636D01*
X672126Y1095627D01*
X675177Y1094363D01*
X678450Y1093932D01*
X681724Y1094363D01*
X684774Y1095627D01*
X687394Y1097636D01*
X689404Y1100256D01*
X690463Y1102813D01*
X691837D01*
X692896Y1100256D01*
X694906Y1097636D01*
X697526Y1095627D01*
X700577Y1094363D01*
X703850Y1093932D01*
X707124Y1094363D01*
X710174Y1095627D01*
X712794Y1097636D01*
X714804Y1100256D01*
X715863Y1102813D01*
X717237D01*
X718297Y1100256D01*
X720306Y1097636D01*
X722926Y1095627D01*
X725977Y1094363D01*
X729250Y1093932D01*
X732524Y1094363D01*
X735574Y1095627D01*
X738194Y1097636D01*
X740204Y1100256D01*
X741467Y1103307D01*
X741898Y1106580D01*
Y1111580D01*
X741467Y1114854D01*
X740204Y1117904D01*
X738194Y1120524D01*
X735574Y1122534D01*
X732524Y1123797D01*
X729250Y1124228D01*
D02*
G37*
G36*
X753322Y1089520D02*
X750678D01*
X748125Y1088836D01*
X745835Y1087514D01*
X743966Y1085645D01*
X742644Y1083355D01*
X741960Y1080802D01*
Y1078158D01*
X742644Y1075605D01*
X743966Y1073315D01*
X745835Y1071446D01*
X748125Y1070124D01*
X750678Y1069440D01*
X753322D01*
X755875Y1070124D01*
X758165Y1071446D01*
X760034Y1073315D01*
X761356Y1075605D01*
X762040Y1078158D01*
Y1080802D01*
X761356Y1083355D01*
X760034Y1085645D01*
X758165Y1087514D01*
X755875Y1088836D01*
X753322Y1089520D01*
D02*
G37*
G36*
X730572D02*
X727928D01*
X725375Y1088836D01*
X723085Y1087514D01*
X721216Y1085645D01*
X719894Y1083355D01*
X719210Y1080802D01*
Y1078158D01*
X719894Y1075605D01*
X721216Y1073315D01*
X723085Y1071446D01*
X725375Y1070124D01*
X727928Y1069440D01*
X730572D01*
X733125Y1070124D01*
X735415Y1071446D01*
X737284Y1073315D01*
X738606Y1075605D01*
X739290Y1078158D01*
Y1080802D01*
X738606Y1083355D01*
X737284Y1085645D01*
X735415Y1087514D01*
X733125Y1088836D01*
X730572Y1089520D01*
D02*
G37*
G36*
X1135262Y1039020D02*
X1132618D01*
X1130065Y1038336D01*
X1127775Y1037014D01*
X1125906Y1035145D01*
X1124584Y1032855D01*
X1123900Y1030302D01*
Y1027658D01*
X1124584Y1025105D01*
X1125906Y1022815D01*
X1127775Y1020946D01*
X1130065Y1019624D01*
X1132618Y1018940D01*
X1135262D01*
X1137815Y1019624D01*
X1140105Y1020946D01*
X1141974Y1022815D01*
X1143296Y1025105D01*
X1143980Y1027658D01*
Y1030302D01*
X1143296Y1032855D01*
X1141974Y1035145D01*
X1140105Y1037014D01*
X1137815Y1038336D01*
X1135262Y1039020D01*
D02*
G37*
G36*
X1109862D02*
X1107218D01*
X1104665Y1038336D01*
X1102375Y1037014D01*
X1100506Y1035145D01*
X1099184Y1032855D01*
X1098500Y1030302D01*
Y1027658D01*
X1099184Y1025105D01*
X1100506Y1022815D01*
X1102375Y1020946D01*
X1104665Y1019624D01*
X1107218Y1018940D01*
X1109862D01*
X1112415Y1019624D01*
X1114705Y1020946D01*
X1116574Y1022815D01*
X1117896Y1025105D01*
X1118580Y1027658D01*
Y1030302D01*
X1117896Y1032855D01*
X1116574Y1035145D01*
X1114705Y1037014D01*
X1112415Y1038336D01*
X1109862Y1039020D01*
D02*
G37*
G36*
X1088330Y968680D02*
X1075790D01*
Y958640D01*
X1088330D01*
Y968680D01*
D02*
G37*
G36*
X1070790D02*
X1058250D01*
Y958640D01*
X1070790D01*
Y968680D01*
D02*
G37*
G36*
X1122016Y923475D02*
X1121518Y923420D01*
X1102250D01*
Y918630D01*
X1122290D01*
X1142330D01*
Y923420D01*
X1122375D01*
X1122016Y923475D01*
D02*
G37*
G36*
X1173830Y923520D02*
X1167040D01*
Y916730D01*
X1173830D01*
Y923520D01*
D02*
G37*
G36*
X1162040D02*
X1155250D01*
Y916730D01*
X1162040D01*
Y923520D01*
D02*
G37*
G36*
X1142330Y913630D02*
X1124790D01*
Y908840D01*
X1142330D01*
Y913630D01*
D02*
G37*
G36*
X1119790D02*
X1102250D01*
Y908840D01*
X1119790D01*
Y913630D01*
D02*
G37*
G36*
X1173830Y911730D02*
X1167040D01*
Y904940D01*
X1173830D01*
Y911730D01*
D02*
G37*
G36*
X1162040D02*
X1155250D01*
Y904940D01*
X1162040D01*
Y911730D01*
D02*
G37*
G36*
X676472Y1039020D02*
X673828D01*
X671275Y1038336D01*
X668985Y1037014D01*
X667116Y1035145D01*
X665794Y1032855D01*
X665110Y1030302D01*
Y1027658D01*
X665794Y1025105D01*
X667116Y1022815D01*
X668985Y1020946D01*
X671275Y1019624D01*
X673828Y1018940D01*
X676472D01*
X679025Y1019624D01*
X681315Y1020946D01*
X683184Y1022815D01*
X684506Y1025105D01*
X685190Y1027658D01*
Y1030302D01*
X684506Y1032855D01*
X683184Y1035145D01*
X681315Y1037014D01*
X679025Y1038336D01*
X676472Y1039020D01*
D02*
G37*
G36*
X651072D02*
X648428D01*
X645875Y1038336D01*
X643585Y1037014D01*
X641716Y1035145D01*
X640394Y1032855D01*
X639710Y1030302D01*
Y1027658D01*
X640394Y1025105D01*
X641716Y1022815D01*
X643585Y1020946D01*
X645875Y1019624D01*
X648428Y1018940D01*
X651072D01*
X653625Y1019624D01*
X655915Y1020946D01*
X657784Y1022815D01*
X659106Y1025105D01*
X659790Y1027658D01*
Y1030302D01*
X659106Y1032855D01*
X657784Y1035145D01*
X655915Y1037014D01*
X653625Y1038336D01*
X651072Y1039020D01*
D02*
G37*
G36*
X629540Y968680D02*
X617000D01*
Y958640D01*
X629540D01*
Y968680D01*
D02*
G37*
G36*
X612000D02*
X599460D01*
Y958640D01*
X612000D01*
Y968680D01*
D02*
G37*
G36*
X663226Y923475D02*
X662728Y923420D01*
X643460D01*
Y918630D01*
X663500D01*
X683540D01*
Y923420D01*
X663586D01*
X663226Y923475D01*
D02*
G37*
G36*
X715040Y923520D02*
X708250D01*
Y916730D01*
X715040D01*
Y923520D01*
D02*
G37*
G36*
X703250D02*
X696460D01*
Y916730D01*
X703250D01*
Y923520D01*
D02*
G37*
G36*
X683540Y913630D02*
X666000D01*
Y908840D01*
X683540D01*
Y913630D01*
D02*
G37*
G36*
X661000D02*
X643460D01*
Y908840D01*
X661000D01*
Y913630D01*
D02*
G37*
G36*
X715040Y911730D02*
X708250D01*
Y904940D01*
X715040D01*
Y911730D01*
D02*
G37*
G36*
X703250D02*
X696460D01*
Y904940D01*
X703250D01*
Y911730D01*
D02*
G37*
G36*
X1135262Y650310D02*
X1132618D01*
X1130065Y649626D01*
X1127775Y648304D01*
X1125906Y646435D01*
X1124584Y644145D01*
X1123900Y641592D01*
Y638948D01*
X1124584Y636395D01*
X1125906Y634105D01*
X1127775Y632236D01*
X1130065Y630914D01*
X1132618Y630230D01*
X1135262D01*
X1137815Y630914D01*
X1140105Y632236D01*
X1141974Y634105D01*
X1143296Y636395D01*
X1143980Y638948D01*
Y641592D01*
X1143296Y644145D01*
X1141974Y646435D01*
X1140105Y648304D01*
X1137815Y649626D01*
X1135262Y650310D01*
D02*
G37*
G36*
X676472D02*
X673828D01*
X671275Y649626D01*
X668985Y648304D01*
X667116Y646435D01*
X665794Y644145D01*
X665110Y641592D01*
Y638948D01*
X665794Y636395D01*
X667116Y634105D01*
X668985Y632236D01*
X671275Y630914D01*
X673828Y630230D01*
X676472D01*
X679025Y630914D01*
X681315Y632236D01*
X683184Y634105D01*
X684506Y636395D01*
X685190Y638948D01*
Y641592D01*
X684506Y644145D01*
X683184Y646435D01*
X681315Y648304D01*
X679025Y649626D01*
X676472Y650310D01*
D02*
G37*
G36*
X1020080Y797050D02*
X1013040D01*
Y790010D01*
X1020080D01*
Y797050D01*
D02*
G37*
G36*
X1008040D02*
X1001000D01*
Y790010D01*
X1008040D01*
Y797050D01*
D02*
G37*
G36*
X1020080Y785010D02*
X1013040D01*
Y777970D01*
X1020080D01*
Y785010D01*
D02*
G37*
G36*
X1008040D02*
X1001000D01*
Y777970D01*
X1008040D01*
Y785010D01*
D02*
G37*
G36*
X1375612Y785550D02*
X1372968D01*
X1370415Y784866D01*
X1368125Y783544D01*
X1366256Y781675D01*
X1364934Y779385D01*
X1364250Y776832D01*
Y774188D01*
X1364934Y771635D01*
X1366256Y769345D01*
X1368125Y767476D01*
X1370415Y766154D01*
X1372968Y765470D01*
X1375612D01*
X1378165Y766154D01*
X1380455Y767476D01*
X1382324Y769345D01*
X1383646Y771635D01*
X1384330Y774188D01*
Y776832D01*
X1383646Y779385D01*
X1382324Y781675D01*
X1380455Y783544D01*
X1378165Y784866D01*
X1375612Y785550D01*
D02*
G37*
G36*
Y760150D02*
X1372968D01*
X1370415Y759466D01*
X1368125Y758144D01*
X1366256Y756275D01*
X1364934Y753985D01*
X1364250Y751432D01*
Y748788D01*
X1364934Y746235D01*
X1366256Y743945D01*
X1368125Y742076D01*
X1370415Y740754D01*
X1372968Y740070D01*
X1375612D01*
X1378165Y740754D01*
X1380455Y742076D01*
X1382324Y743945D01*
X1383646Y746235D01*
X1384330Y748788D01*
Y751432D01*
X1383646Y753985D01*
X1382324Y756275D01*
X1380455Y758144D01*
X1378165Y759466D01*
X1375612Y760150D01*
D02*
G37*
G36*
Y734750D02*
X1372968D01*
X1370415Y734066D01*
X1368125Y732744D01*
X1366256Y730875D01*
X1364934Y728585D01*
X1364250Y726032D01*
Y723388D01*
X1364934Y720835D01*
X1366256Y718545D01*
X1368125Y716676D01*
X1370415Y715354D01*
X1372968Y714670D01*
X1375612D01*
X1378165Y715354D01*
X1380455Y716676D01*
X1382324Y718545D01*
X1383646Y720835D01*
X1384330Y723388D01*
Y726032D01*
X1383646Y728585D01*
X1382324Y730875D01*
X1380455Y732744D01*
X1378165Y734066D01*
X1375612Y734750D01*
D02*
G37*
G36*
Y709350D02*
X1372968D01*
X1370415Y708666D01*
X1368125Y707344D01*
X1366256Y705475D01*
X1364934Y703185D01*
X1364250Y700632D01*
Y697988D01*
X1364934Y695435D01*
X1366256Y693145D01*
X1368125Y691276D01*
X1370415Y689954D01*
X1372968Y689270D01*
X1375612D01*
X1378165Y689954D01*
X1380455Y691276D01*
X1382324Y693145D01*
X1383646Y695435D01*
X1384330Y697988D01*
Y700632D01*
X1383646Y703185D01*
X1382324Y705475D01*
X1380455Y707344D01*
X1378165Y708666D01*
X1375612Y709350D01*
D02*
G37*
G36*
X1014263Y667250D02*
X1011817D01*
X1009454Y666617D01*
X1007336Y665394D01*
X1005606Y663664D01*
X1004383Y661546D01*
X1003750Y659183D01*
Y656737D01*
X1004383Y654374D01*
X1005606Y652256D01*
X1007336Y650526D01*
X1009454Y649303D01*
X1011817Y648670D01*
X1014263D01*
X1016626Y649303D01*
X1018744Y650526D01*
X1020474Y652256D01*
X1021697Y654374D01*
X1022330Y656737D01*
Y659183D01*
X1021697Y661546D01*
X1020474Y663664D01*
X1018744Y665394D01*
X1016626Y666617D01*
X1014263Y667250D01*
D02*
G37*
G36*
X1037040Y637744D02*
Y631710D01*
X1043074D01*
X1042824Y632641D01*
X1041654Y634669D01*
X1039999Y636324D01*
X1037971Y637494D01*
X1037040Y637744D01*
D02*
G37*
G36*
X1032040D02*
X1031109Y637494D01*
X1029081Y636324D01*
X1027426Y634669D01*
X1026256Y632641D01*
X1026006Y631710D01*
X1032040D01*
Y637744D01*
D02*
G37*
G36*
X1291612Y648750D02*
X1288968D01*
X1286415Y648066D01*
X1284125Y646744D01*
X1282256Y644875D01*
X1280934Y642585D01*
X1280250Y640032D01*
Y637388D01*
X1280934Y634835D01*
X1282256Y632545D01*
X1284125Y630676D01*
X1286415Y629354D01*
X1288968Y628670D01*
X1291612D01*
X1294165Y629354D01*
X1296455Y630676D01*
X1298324Y632545D01*
X1299646Y634835D01*
X1300330Y637388D01*
Y640032D01*
X1299646Y642585D01*
X1298324Y644875D01*
X1296455Y646744D01*
X1294165Y648066D01*
X1291612Y648750D01*
D02*
G37*
G36*
X1043074Y626710D02*
X1037040D01*
Y620676D01*
X1037971Y620926D01*
X1039999Y622096D01*
X1041654Y623751D01*
X1042824Y625779D01*
X1043074Y626710D01*
D02*
G37*
G36*
X1032040D02*
X1026006D01*
X1026256Y625779D01*
X1027426Y623751D01*
X1029081Y622096D01*
X1031109Y620926D01*
X1032040Y620676D01*
Y626710D01*
D02*
G37*
G36*
X1007790Y607000D02*
X1004290D01*
X1000910Y606094D01*
X997880Y604345D01*
X995405Y601870D01*
X993656Y598840D01*
X992750Y595460D01*
Y591960D01*
X993656Y588580D01*
X995405Y585550D01*
X997880Y583075D01*
X1000910Y581326D01*
X1004290Y580420D01*
X1007790D01*
X1011170Y581326D01*
X1014200Y583075D01*
X1016675Y585550D01*
X1018424Y588580D01*
X1019330Y591960D01*
Y595460D01*
X1018424Y598840D01*
X1016675Y601870D01*
X1014200Y604345D01*
X1011170Y606094D01*
X1007790Y607000D01*
D02*
G37*
G36*
X1019330Y567400D02*
X992750D01*
Y540820D01*
X1010001D01*
X1019444Y531378D01*
Y515476D01*
X1018495Y515222D01*
X1018174Y515221D01*
X1015700Y517695D01*
X1012670Y519444D01*
X1009290Y520350D01*
X1005790D01*
X1002410Y519444D01*
X999380Y517695D01*
X996906Y515220D01*
X995156Y512190D01*
X994250Y508810D01*
Y505310D01*
X995156Y501930D01*
X996906Y498900D01*
X999380Y496425D01*
X1002410Y494676D01*
X1005790Y493770D01*
X1009290D01*
X1012670Y494676D01*
X1015700Y496425D01*
X1018174Y498898D01*
X1018495Y498898D01*
X1019444Y498644D01*
Y488692D01*
X1011034Y480282D01*
X1009290Y480750D01*
X1005790D01*
X1002410Y479844D01*
X999380Y478094D01*
X996906Y475620D01*
X995156Y472590D01*
X994250Y469210D01*
Y465710D01*
X995156Y462330D01*
X996906Y459300D01*
X999380Y456825D01*
X1002410Y455075D01*
X1005790Y454170D01*
X1009290D01*
X1012670Y455075D01*
X1015700Y456825D01*
X1018175Y459300D01*
X1019924Y462330D01*
X1020830Y465710D01*
Y469210D01*
X1020363Y470954D01*
X1030704Y481295D01*
X1031753Y482661D01*
X1032412Y484252D01*
X1032636Y485960D01*
Y534110D01*
X1032412Y535817D01*
X1031753Y537408D01*
X1030704Y538774D01*
X1019330Y550149D01*
Y567400D01*
D02*
G37*
G36*
X1266212Y486190D02*
X1263568D01*
X1261015Y485506D01*
X1258725Y484184D01*
X1256856Y482315D01*
X1255534Y480025D01*
X1254850Y477472D01*
Y474828D01*
X1255534Y472275D01*
X1256856Y469985D01*
X1258725Y468116D01*
X1261015Y466794D01*
X1263568Y466110D01*
X1266212D01*
X1268765Y466794D01*
X1271055Y468116D01*
X1272924Y469985D01*
X1274246Y472275D01*
X1274930Y474828D01*
Y477472D01*
X1274246Y480025D01*
X1272924Y482315D01*
X1271055Y484184D01*
X1268765Y485506D01*
X1266212Y486190D01*
D02*
G37*
G36*
X1020830Y441150D02*
X994250D01*
Y414570D01*
X1020830D01*
Y441150D01*
D02*
G37*
G36*
X1215763Y372250D02*
X1213317D01*
X1210954Y371617D01*
X1208836Y370394D01*
X1207106Y368664D01*
X1205883Y366546D01*
X1205250Y364183D01*
Y361737D01*
X1205883Y359374D01*
X1207106Y357256D01*
X1208836Y355526D01*
X1210954Y354303D01*
X1213317Y353670D01*
X1215763D01*
X1218126Y354303D01*
X1220244Y355526D01*
X1221974Y357256D01*
X1223197Y359374D01*
X1223830Y361737D01*
Y364183D01*
X1223197Y366546D01*
X1221974Y368664D01*
X1220244Y370394D01*
X1218126Y371617D01*
X1215763Y372250D01*
D02*
G37*
G36*
X561290Y797050D02*
X554250D01*
Y790010D01*
X561290D01*
Y797050D01*
D02*
G37*
G36*
X549250D02*
X542210D01*
Y790010D01*
X549250D01*
Y797050D01*
D02*
G37*
G36*
X561290Y785010D02*
X554250D01*
Y777970D01*
X561290D01*
Y785010D01*
D02*
G37*
G36*
X549250D02*
X542210D01*
Y777970D01*
X549250D01*
Y785010D01*
D02*
G37*
G36*
X916822Y785550D02*
X914178D01*
X911625Y784866D01*
X909335Y783544D01*
X907466Y781675D01*
X906144Y779385D01*
X905460Y776832D01*
Y774188D01*
X906144Y771635D01*
X907466Y769345D01*
X909335Y767476D01*
X911625Y766154D01*
X914178Y765470D01*
X916822D01*
X919375Y766154D01*
X921665Y767476D01*
X923534Y769345D01*
X924856Y771635D01*
X925540Y774188D01*
Y776832D01*
X924856Y779385D01*
X923534Y781675D01*
X921665Y783544D01*
X919375Y784866D01*
X916822Y785550D01*
D02*
G37*
G36*
Y760150D02*
X914178D01*
X911625Y759466D01*
X909335Y758144D01*
X907466Y756275D01*
X906144Y753985D01*
X905460Y751432D01*
Y748788D01*
X906144Y746235D01*
X907466Y743945D01*
X909335Y742076D01*
X911625Y740754D01*
X914178Y740070D01*
X916822D01*
X919375Y740754D01*
X921665Y742076D01*
X923534Y743945D01*
X924856Y746235D01*
X925540Y748788D01*
Y751432D01*
X924856Y753985D01*
X923534Y756275D01*
X921665Y758144D01*
X919375Y759466D01*
X916822Y760150D01*
D02*
G37*
G36*
Y734750D02*
X914178D01*
X911625Y734066D01*
X909335Y732744D01*
X907466Y730875D01*
X906144Y728585D01*
X905460Y726032D01*
Y723388D01*
X906144Y720835D01*
X907466Y718545D01*
X909335Y716676D01*
X911625Y715354D01*
X914178Y714670D01*
X916822D01*
X919375Y715354D01*
X921665Y716676D01*
X923534Y718545D01*
X924856Y720835D01*
X925540Y723388D01*
Y726032D01*
X924856Y728585D01*
X923534Y730875D01*
X921665Y732744D01*
X919375Y734066D01*
X916822Y734750D01*
D02*
G37*
G36*
Y709350D02*
X914178D01*
X911625Y708666D01*
X909335Y707344D01*
X907466Y705475D01*
X906144Y703185D01*
X905460Y700632D01*
Y697988D01*
X906144Y695435D01*
X907466Y693145D01*
X909335Y691276D01*
X911625Y689954D01*
X914178Y689270D01*
X916822D01*
X919375Y689954D01*
X921665Y691276D01*
X923534Y693145D01*
X924856Y695435D01*
X925540Y697988D01*
Y700632D01*
X924856Y703185D01*
X923534Y705475D01*
X921665Y707344D01*
X919375Y708666D01*
X916822Y709350D01*
D02*
G37*
G36*
X555473Y667250D02*
X553027D01*
X550664Y666617D01*
X548546Y665394D01*
X546816Y663664D01*
X545593Y661546D01*
X544960Y659183D01*
Y656737D01*
X545593Y654374D01*
X546816Y652256D01*
X548546Y650526D01*
X550664Y649303D01*
X553027Y648670D01*
X555473D01*
X557836Y649303D01*
X559954Y650526D01*
X561684Y652256D01*
X562907Y654374D01*
X563540Y656737D01*
Y659183D01*
X562907Y661546D01*
X561684Y663664D01*
X559954Y665394D01*
X557836Y666617D01*
X555473Y667250D01*
D02*
G37*
G36*
X578250Y637744D02*
Y631710D01*
X584284D01*
X584034Y632641D01*
X582864Y634669D01*
X581209Y636324D01*
X579181Y637494D01*
X578250Y637744D01*
D02*
G37*
G36*
X573250D02*
X572319Y637494D01*
X570291Y636324D01*
X568636Y634669D01*
X567466Y632641D01*
X567216Y631710D01*
X573250D01*
Y637744D01*
D02*
G37*
G36*
X832822Y648750D02*
X830178D01*
X827625Y648066D01*
X825335Y646744D01*
X823466Y644875D01*
X822144Y642585D01*
X821460Y640032D01*
Y637388D01*
X822144Y634835D01*
X823466Y632545D01*
X825335Y630676D01*
X827625Y629354D01*
X830178Y628670D01*
X832822D01*
X835375Y629354D01*
X837665Y630676D01*
X839534Y632545D01*
X840856Y634835D01*
X841540Y637388D01*
Y640032D01*
X840856Y642585D01*
X839534Y644875D01*
X837665Y646744D01*
X835375Y648066D01*
X832822Y648750D01*
D02*
G37*
G36*
X584284Y626710D02*
X578250D01*
Y620676D01*
X579181Y620926D01*
X581209Y622096D01*
X582864Y623751D01*
X584034Y625779D01*
X584284Y626710D01*
D02*
G37*
G36*
X573250D02*
X567216D01*
X567466Y625779D01*
X568636Y623751D01*
X570291Y622096D01*
X572319Y620926D01*
X573250Y620676D01*
Y626710D01*
D02*
G37*
G36*
X549000Y607000D02*
X545500D01*
X542120Y606094D01*
X539090Y604345D01*
X536615Y601870D01*
X534866Y598840D01*
X533960Y595460D01*
Y591960D01*
X534866Y588580D01*
X536615Y585550D01*
X539090Y583075D01*
X542120Y581326D01*
X545500Y580420D01*
X549000D01*
X552380Y581326D01*
X555410Y583075D01*
X557885Y585550D01*
X559634Y588580D01*
X560540Y591960D01*
Y595460D01*
X559634Y598840D01*
X557885Y601870D01*
X555410Y604345D01*
X552380Y606094D01*
X549000Y607000D01*
D02*
G37*
G36*
X560540Y567400D02*
X533960D01*
Y540820D01*
X551211D01*
X560654Y531378D01*
Y515476D01*
X559705Y515222D01*
X559384Y515221D01*
X556910Y517695D01*
X553880Y519444D01*
X550500Y520350D01*
X547001D01*
X543620Y519444D01*
X540590Y517695D01*
X538116Y515220D01*
X536366Y512190D01*
X535460Y508810D01*
Y505310D01*
X536366Y501930D01*
X538116Y498900D01*
X540590Y496425D01*
X543620Y494676D01*
X547001Y493770D01*
X550500D01*
X553880Y494676D01*
X556910Y496425D01*
X559384Y498898D01*
X559705Y498898D01*
X560654Y498644D01*
Y488692D01*
X552244Y480282D01*
X550500Y480750D01*
X547001D01*
X543620Y479844D01*
X540590Y478094D01*
X538116Y475620D01*
X536366Y472590D01*
X535460Y469210D01*
Y465710D01*
X536366Y462330D01*
X538116Y459300D01*
X540590Y456825D01*
X543620Y455075D01*
X547001Y454170D01*
X550500D01*
X553880Y455075D01*
X556910Y456825D01*
X559385Y459300D01*
X561134Y462330D01*
X562040Y465710D01*
Y469210D01*
X561573Y470954D01*
X571914Y481295D01*
X572963Y482661D01*
X573622Y484252D01*
X573846Y485960D01*
Y534110D01*
X573622Y535817D01*
X572963Y537408D01*
X571914Y538774D01*
X560540Y550149D01*
Y567400D01*
D02*
G37*
G36*
X807422Y486190D02*
X804778D01*
X802225Y485506D01*
X799935Y484184D01*
X798066Y482315D01*
X796744Y480025D01*
X796060Y477472D01*
Y474828D01*
X796744Y472275D01*
X798066Y469985D01*
X799935Y468116D01*
X802225Y466794D01*
X804778Y466110D01*
X807422D01*
X809975Y466794D01*
X812265Y468116D01*
X814134Y469985D01*
X815456Y472275D01*
X816140Y474828D01*
Y477472D01*
X815456Y480025D01*
X814134Y482315D01*
X812265Y484184D01*
X809975Y485506D01*
X807422Y486190D01*
D02*
G37*
G36*
X562040Y441150D02*
X535460D01*
Y414570D01*
X562040D01*
Y441150D01*
D02*
G37*
G36*
X756973Y372250D02*
X754527D01*
X752164Y371617D01*
X750046Y370394D01*
X748316Y368664D01*
X747093Y366546D01*
X746460Y364183D01*
Y361737D01*
X747093Y359374D01*
X748316Y357256D01*
X750046Y355526D01*
X752164Y354303D01*
X754527Y353670D01*
X756973D01*
X759336Y354303D01*
X761454Y355526D01*
X763184Y357256D01*
X764407Y359374D01*
X765040Y361737D01*
Y364183D01*
X764407Y366546D01*
X763184Y368664D01*
X761454Y370394D01*
X759336Y371617D01*
X756973Y372250D01*
D02*
G37*
G36*
X1212112Y595250D02*
X1209468D01*
X1206915Y594566D01*
X1204625Y593244D01*
X1202756Y591375D01*
X1201434Y589085D01*
X1200750Y586532D01*
Y583888D01*
X1201434Y581335D01*
X1202756Y579045D01*
X1204625Y577176D01*
X1206915Y575854D01*
X1209468Y575170D01*
X1212112D01*
X1214665Y575854D01*
X1216955Y577176D01*
X1218824Y579045D01*
X1220146Y581335D01*
X1220830Y583888D01*
Y586532D01*
X1220146Y589085D01*
X1218824Y591375D01*
X1216955Y593244D01*
X1214665Y594566D01*
X1212112Y595250D01*
D02*
G37*
G36*
X1189362D02*
X1186718D01*
X1184165Y594566D01*
X1181875Y593244D01*
X1180006Y591375D01*
X1178684Y589085D01*
X1178000Y586532D01*
Y583888D01*
X1178684Y581335D01*
X1180006Y579045D01*
X1181875Y577176D01*
X1184165Y575854D01*
X1186718Y575170D01*
X1189362D01*
X1191915Y575854D01*
X1194205Y577176D01*
X1196074Y579045D01*
X1197396Y581335D01*
X1198080Y583888D01*
Y586532D01*
X1197396Y589085D01*
X1196074Y591375D01*
X1194205Y593244D01*
X1191915Y594566D01*
X1189362Y595250D01*
D02*
G37*
G36*
X1188040Y572958D02*
X1184767Y572527D01*
X1181716Y571264D01*
X1179097Y569254D01*
X1177086Y566634D01*
X1176028Y564078D01*
X1174653D01*
X1173594Y566634D01*
X1171584Y569254D01*
X1168964Y571264D01*
X1165914Y572527D01*
X1162640Y572958D01*
X1159367Y572527D01*
X1156316Y571264D01*
X1153697Y569254D01*
X1151686Y566634D01*
X1150628Y564078D01*
X1149253D01*
X1148194Y566634D01*
X1146184Y569254D01*
X1143564Y571264D01*
X1140514Y572527D01*
X1137240Y572958D01*
X1133967Y572527D01*
X1130916Y571264D01*
X1128297Y569254D01*
X1126286Y566634D01*
X1125228Y564078D01*
X1123853D01*
X1122794Y566634D01*
X1120784Y569254D01*
X1118164Y571264D01*
X1115114Y572527D01*
X1111840Y572958D01*
X1108567Y572527D01*
X1105516Y571264D01*
X1102896Y569254D01*
X1100887Y566634D01*
X1099623Y563584D01*
X1099192Y560310D01*
Y555310D01*
X1099623Y552037D01*
X1100887Y548986D01*
X1102896Y546367D01*
X1105516Y544356D01*
X1108567Y543093D01*
X1111840Y542662D01*
X1115114Y543093D01*
X1118164Y544356D01*
X1120784Y546367D01*
X1122794Y548986D01*
X1123853Y551543D01*
X1125228D01*
X1126286Y548986D01*
X1128297Y546367D01*
X1130916Y544356D01*
X1133967Y543093D01*
X1137240Y542662D01*
X1140514Y543093D01*
X1143564Y544356D01*
X1146184Y546367D01*
X1148194Y548986D01*
X1149253Y551543D01*
X1150628D01*
X1151686Y548986D01*
X1153697Y546367D01*
X1156316Y544356D01*
X1159367Y543093D01*
X1162640Y542662D01*
X1165914Y543093D01*
X1168964Y544356D01*
X1171584Y546367D01*
X1173594Y548986D01*
X1174653Y551543D01*
X1176028D01*
X1177086Y548986D01*
X1179097Y546367D01*
X1181716Y544356D01*
X1184767Y543093D01*
X1188040Y542662D01*
X1191314Y543093D01*
X1194364Y544356D01*
X1196984Y546367D01*
X1198994Y548986D01*
X1200257Y552037D01*
X1200688Y555310D01*
Y560310D01*
X1200257Y563584D01*
X1198994Y566634D01*
X1196984Y569254D01*
X1194364Y571264D01*
X1191314Y572527D01*
X1188040Y572958D01*
D02*
G37*
G36*
X1212112Y538250D02*
X1209468D01*
X1206915Y537566D01*
X1204625Y536244D01*
X1202756Y534375D01*
X1201434Y532085D01*
X1200750Y529532D01*
Y526888D01*
X1201434Y524335D01*
X1202756Y522045D01*
X1204625Y520176D01*
X1206915Y518854D01*
X1209468Y518170D01*
X1212112D01*
X1214665Y518854D01*
X1216955Y520176D01*
X1218824Y522045D01*
X1220146Y524335D01*
X1220830Y526888D01*
Y529532D01*
X1220146Y532085D01*
X1218824Y534375D01*
X1216955Y536244D01*
X1214665Y537566D01*
X1212112Y538250D01*
D02*
G37*
G36*
X1189362D02*
X1186718D01*
X1184165Y537566D01*
X1181875Y536244D01*
X1180006Y534375D01*
X1178684Y532085D01*
X1178000Y529532D01*
Y526888D01*
X1178684Y524335D01*
X1180006Y522045D01*
X1181875Y520176D01*
X1184165Y518854D01*
X1186718Y518170D01*
X1189362D01*
X1191915Y518854D01*
X1194205Y520176D01*
X1196074Y522045D01*
X1197396Y524335D01*
X1198080Y526888D01*
Y529532D01*
X1197396Y532085D01*
X1196074Y534375D01*
X1194205Y536244D01*
X1191915Y537566D01*
X1189362Y538250D01*
D02*
G37*
G36*
X753322Y595250D02*
X750678D01*
X748125Y594566D01*
X745835Y593244D01*
X743966Y591375D01*
X742644Y589085D01*
X741960Y586532D01*
Y583888D01*
X742644Y581335D01*
X743966Y579045D01*
X745835Y577176D01*
X748125Y575854D01*
X750678Y575170D01*
X753322D01*
X755875Y575854D01*
X758165Y577176D01*
X760034Y579045D01*
X761356Y581335D01*
X762040Y583888D01*
Y586532D01*
X761356Y589085D01*
X760034Y591375D01*
X758165Y593244D01*
X755875Y594566D01*
X753322Y595250D01*
D02*
G37*
G36*
X730572D02*
X727928D01*
X725375Y594566D01*
X723085Y593244D01*
X721216Y591375D01*
X719894Y589085D01*
X719210Y586532D01*
Y583888D01*
X719894Y581335D01*
X721216Y579045D01*
X723085Y577176D01*
X725375Y575854D01*
X727928Y575170D01*
X730572D01*
X733125Y575854D01*
X735415Y577176D01*
X737284Y579045D01*
X738606Y581335D01*
X739290Y583888D01*
Y586532D01*
X738606Y589085D01*
X737284Y591375D01*
X735415Y593244D01*
X733125Y594566D01*
X730572Y595250D01*
D02*
G37*
G36*
X729250Y572958D02*
X725977Y572527D01*
X722926Y571264D01*
X720306Y569254D01*
X718297Y566634D01*
X717237Y564078D01*
X715863D01*
X714804Y566634D01*
X712794Y569254D01*
X710174Y571264D01*
X707124Y572527D01*
X703850Y572958D01*
X700577Y572527D01*
X697526Y571264D01*
X694906Y569254D01*
X692896Y566634D01*
X691837Y564078D01*
X690463D01*
X689404Y566634D01*
X687394Y569254D01*
X684774Y571264D01*
X681724Y572527D01*
X678450Y572958D01*
X675177Y572527D01*
X672126Y571264D01*
X669507Y569254D01*
X667496Y566634D01*
X666438Y564078D01*
X665063D01*
X664004Y566634D01*
X661994Y569254D01*
X659374Y571264D01*
X656324Y572527D01*
X653050Y572958D01*
X649777Y572527D01*
X646726Y571264D01*
X644107Y569254D01*
X642096Y566634D01*
X640833Y563584D01*
X640402Y560310D01*
Y555310D01*
X640833Y552037D01*
X642096Y548986D01*
X644107Y546367D01*
X646726Y544356D01*
X649777Y543093D01*
X653050Y542662D01*
X656324Y543093D01*
X659374Y544356D01*
X661994Y546367D01*
X664004Y548986D01*
X665063Y551543D01*
X666438D01*
X667496Y548986D01*
X669507Y546367D01*
X672126Y544356D01*
X675177Y543093D01*
X678450Y542662D01*
X681724Y543093D01*
X684774Y544356D01*
X687394Y546367D01*
X689404Y548986D01*
X690463Y551543D01*
X691837D01*
X692896Y548986D01*
X694906Y546367D01*
X697526Y544356D01*
X700577Y543093D01*
X703850Y542662D01*
X707124Y543093D01*
X710174Y544356D01*
X712794Y546367D01*
X714804Y548986D01*
X715863Y551543D01*
X717237D01*
X718297Y548986D01*
X720306Y546367D01*
X722926Y544356D01*
X725977Y543093D01*
X729250Y542662D01*
X732524Y543093D01*
X735574Y544356D01*
X738194Y546367D01*
X740204Y548986D01*
X741467Y552037D01*
X741898Y555310D01*
Y560310D01*
X741467Y563584D01*
X740204Y566634D01*
X738194Y569254D01*
X735574Y571264D01*
X732524Y572527D01*
X729250Y572958D01*
D02*
G37*
G36*
X753322Y538250D02*
X750678D01*
X748125Y537566D01*
X745835Y536244D01*
X743966Y534375D01*
X742644Y532085D01*
X741960Y529532D01*
Y526888D01*
X742644Y524335D01*
X743966Y522045D01*
X745835Y520176D01*
X748125Y518854D01*
X750678Y518170D01*
X753322D01*
X755875Y518854D01*
X758165Y520176D01*
X760034Y522045D01*
X761356Y524335D01*
X762040Y526888D01*
Y529532D01*
X761356Y532085D01*
X760034Y534375D01*
X758165Y536244D01*
X755875Y537566D01*
X753322Y538250D01*
D02*
G37*
G36*
X730572D02*
X727928D01*
X725375Y537566D01*
X723085Y536244D01*
X721216Y534375D01*
X719894Y532085D01*
X719210Y529532D01*
Y526888D01*
X719894Y524335D01*
X721216Y522045D01*
X723085Y520176D01*
X725375Y518854D01*
X727928Y518170D01*
X730572D01*
X733125Y518854D01*
X735415Y520176D01*
X737284Y522045D01*
X738606Y524335D01*
X739290Y526888D01*
Y529532D01*
X738606Y532085D01*
X737284Y534375D01*
X735415Y536244D01*
X733125Y537566D01*
X730572Y538250D01*
D02*
G37*
G36*
X1135262Y487750D02*
X1132618D01*
X1130065Y487066D01*
X1127775Y485744D01*
X1125906Y483875D01*
X1124584Y481585D01*
X1123900Y479032D01*
Y476388D01*
X1124584Y473835D01*
X1125906Y471545D01*
X1127775Y469676D01*
X1130065Y468354D01*
X1132618Y467670D01*
X1135262D01*
X1137815Y468354D01*
X1140105Y469676D01*
X1141974Y471545D01*
X1143296Y473835D01*
X1143980Y476388D01*
Y479032D01*
X1143296Y481585D01*
X1141974Y483875D01*
X1140105Y485744D01*
X1137815Y487066D01*
X1135262Y487750D01*
D02*
G37*
G36*
X1109862D02*
X1107218D01*
X1104665Y487066D01*
X1102375Y485744D01*
X1100506Y483875D01*
X1099184Y481585D01*
X1098500Y479032D01*
Y476388D01*
X1099184Y473835D01*
X1100506Y471545D01*
X1102375Y469676D01*
X1104665Y468354D01*
X1107218Y467670D01*
X1109862D01*
X1112415Y468354D01*
X1114705Y469676D01*
X1116574Y471545D01*
X1117896Y473835D01*
X1118580Y476388D01*
Y479032D01*
X1117896Y481585D01*
X1116574Y483875D01*
X1114705Y485744D01*
X1112415Y487066D01*
X1109862Y487750D01*
D02*
G37*
G36*
X1088330Y417410D02*
X1075790D01*
Y407370D01*
X1088330D01*
Y417410D01*
D02*
G37*
G36*
X1070790D02*
X1058250D01*
Y407370D01*
X1070790D01*
Y417410D01*
D02*
G37*
G36*
X1122016Y372205D02*
X1121518Y372150D01*
X1102250D01*
Y367360D01*
X1122290D01*
X1142330D01*
Y372150D01*
X1122375D01*
X1122016Y372205D01*
D02*
G37*
G36*
X1173830Y372250D02*
X1167040D01*
Y365460D01*
X1173830D01*
Y372250D01*
D02*
G37*
G36*
X1162040D02*
X1155250D01*
Y365460D01*
X1162040D01*
Y372250D01*
D02*
G37*
G36*
X1142330Y362360D02*
X1124790D01*
Y357570D01*
X1142330D01*
Y362360D01*
D02*
G37*
G36*
X1119790D02*
X1102250D01*
Y357570D01*
X1119790D01*
Y362360D01*
D02*
G37*
G36*
X1173830Y360460D02*
X1167040D01*
Y353670D01*
X1173830D01*
Y360460D01*
D02*
G37*
G36*
X1162040D02*
X1155250D01*
Y353670D01*
X1162040D01*
Y360460D01*
D02*
G37*
G36*
X676472Y487750D02*
X673828D01*
X671275Y487066D01*
X668985Y485744D01*
X667116Y483875D01*
X665794Y481585D01*
X665110Y479032D01*
Y476388D01*
X665794Y473835D01*
X667116Y471545D01*
X668985Y469676D01*
X671275Y468354D01*
X673828Y467670D01*
X676472D01*
X679025Y468354D01*
X681315Y469676D01*
X683184Y471545D01*
X684506Y473835D01*
X685190Y476388D01*
Y479032D01*
X684506Y481585D01*
X683184Y483875D01*
X681315Y485744D01*
X679025Y487066D01*
X676472Y487750D01*
D02*
G37*
G36*
X651072D02*
X648428D01*
X645875Y487066D01*
X643585Y485744D01*
X641716Y483875D01*
X640394Y481585D01*
X639710Y479032D01*
Y476388D01*
X640394Y473835D01*
X641716Y471545D01*
X643585Y469676D01*
X645875Y468354D01*
X648428Y467670D01*
X651072D01*
X653625Y468354D01*
X655915Y469676D01*
X657784Y471545D01*
X659106Y473835D01*
X659790Y476388D01*
Y479032D01*
X659106Y481585D01*
X657784Y483875D01*
X655915Y485744D01*
X653625Y487066D01*
X651072Y487750D01*
D02*
G37*
G36*
X629540Y417410D02*
X617000D01*
Y407370D01*
X629540D01*
Y417410D01*
D02*
G37*
G36*
X612000D02*
X599460D01*
Y407370D01*
X612000D01*
Y417410D01*
D02*
G37*
G36*
X663226Y372205D02*
X662728Y372150D01*
X643460D01*
Y367360D01*
X663500D01*
X683540D01*
Y372150D01*
X663586D01*
X663226Y372205D01*
D02*
G37*
G36*
X715040Y372250D02*
X708250D01*
Y365460D01*
X715040D01*
Y372250D01*
D02*
G37*
G36*
X703250D02*
X696460D01*
Y365460D01*
X703250D01*
Y372250D01*
D02*
G37*
G36*
X683540Y362360D02*
X666000D01*
Y357570D01*
X683540D01*
Y362360D01*
D02*
G37*
G36*
X661000D02*
X643460D01*
Y357570D01*
X661000D01*
Y362360D01*
D02*
G37*
G36*
X715040Y360460D02*
X708250D01*
Y353670D01*
X715040D01*
Y360460D01*
D02*
G37*
G36*
X703250D02*
X696460D01*
Y353670D01*
X703250D01*
Y360460D01*
D02*
G37*
%LPD*%
D10*
X566000Y339460D02*
D03*
X1024790D02*
D03*
X566000Y890730D02*
D03*
X1024790D02*
D03*
D11*
X663500Y364860D02*
D03*
Y314060D02*
D03*
X1122290Y364860D02*
D03*
Y314060D02*
D03*
X663500Y916130D02*
D03*
Y865330D02*
D03*
X1122290Y916130D02*
D03*
Y865330D02*
D03*
D12*
X872394Y623110D02*
X887544Y607960D01*
Y354166D02*
Y607960D01*
X868500Y623110D02*
X872394D01*
X868200Y420210D02*
X868500Y419910D01*
X852750Y420210D02*
X868200D01*
X848000Y424960D02*
Y533904D01*
Y424960D02*
X852750Y420210D01*
X862500Y425910D02*
X868500Y419910D01*
X830500Y551404D02*
X848000Y533904D01*
X733235Y691725D02*
X771750Y653210D01*
X729250Y711210D02*
X733235Y707225D01*
Y691725D02*
Y707225D01*
X703850Y678860D02*
Y711210D01*
Y678860D02*
X717000Y665710D01*
X817850Y730824D02*
Y756010D01*
X788750Y658960D02*
X825850Y696060D01*
Y722824D01*
X817850Y730824D02*
X825850Y722824D01*
X868500Y673910D02*
X868675Y674085D01*
X915325D01*
X915500Y674260D01*
X670250Y506460D02*
X761250D01*
X771750Y516960D02*
Y653210D01*
X761250Y506460D02*
X771750Y516960D01*
X730826Y338786D02*
Y456286D01*
X788750Y514210D02*
Y658960D01*
X730826Y456286D02*
X788750Y514210D01*
X634750Y690410D02*
X653050Y708710D01*
X634750Y637613D02*
Y690410D01*
X620247Y623110D02*
X634750Y637613D01*
X653050Y708710D02*
Y711210D01*
X614500Y623110D02*
X620247D01*
X678450Y674010D02*
Y711210D01*
Y674010D02*
X694000Y658460D01*
Y633710D02*
Y658460D01*
X682500Y622210D02*
X694000Y633710D01*
X664000Y622210D02*
X682500D01*
X639500Y597710D02*
X664000Y622210D01*
X614500Y597710D02*
X639500D01*
X777750Y362360D02*
Y479210D01*
X805500Y506960D01*
Y596710D01*
X717000Y626260D02*
Y665710D01*
X675656Y584916D02*
X717000Y626260D01*
X592600Y445310D02*
X614500D01*
X580750Y354210D02*
Y433460D01*
X592600Y445310D01*
X566000Y339460D02*
X580750Y354210D01*
X614500Y546910D02*
X615657Y545754D01*
X630956D02*
X670250Y506460D01*
X615657Y545754D02*
X630956D01*
X566000Y336960D02*
Y339460D01*
X551750Y812911D02*
X552898Y811763D01*
X559735D02*
X569750Y801748D01*
X557000Y749999D02*
Y759210D01*
X569750Y771960D02*
Y801748D01*
X554250Y747249D02*
X557000Y749999D01*
Y759210D02*
X569750Y771960D01*
X552898Y811763D02*
X559735D01*
X612000Y597710D02*
X614500D01*
Y623110D02*
X616380Y621230D01*
X777750Y362360D02*
X813750Y326360D01*
X830500Y551404D02*
Y555710D01*
X909500Y336210D02*
X909950Y336660D01*
Y407960D01*
X901006Y416904D02*
X909950Y407960D01*
X813750Y326360D02*
X859738D01*
X887544Y354166D01*
X813750Y300960D02*
X915350D01*
X705750Y313710D02*
X730826Y338786D01*
X738000Y295960D02*
X755750Y313710D01*
X607000Y295960D02*
X738000D01*
X663500Y314060D02*
X684344D01*
X684694Y313710D01*
X705750D01*
X663088Y365610D02*
X663500Y364860D01*
X566000Y336960D02*
X607000Y295960D01*
X547250Y554110D02*
X567250Y534110D01*
Y485960D02*
Y534110D01*
X548750Y467460D02*
X567250Y485960D01*
X646752Y584916D02*
X675656D01*
X634146Y572310D02*
X646752Y584916D01*
X614500Y572310D02*
X634146D01*
X901006Y521670D02*
X908626Y529290D01*
X901006Y416904D02*
Y521670D01*
X868500Y648510D02*
X891100D01*
X900244Y639366D01*
Y575010D02*
Y639366D01*
Y575010D02*
X929708Y545546D01*
Y315318D02*
Y545546D01*
X915350Y300960D02*
X929708Y315318D01*
X1331184Y623110D02*
X1346334Y607960D01*
Y354166D02*
Y607960D01*
X1327290Y623110D02*
X1331184D01*
X1326990Y420210D02*
X1327290Y419910D01*
X1311540Y420210D02*
X1326990D01*
X1306790Y424960D02*
Y533904D01*
Y424960D02*
X1311540Y420210D01*
X1321290Y425910D02*
X1327290Y419910D01*
X1289290Y551404D02*
X1306790Y533904D01*
X1192025Y691725D02*
X1230540Y653210D01*
X1188040Y711210D02*
X1192025Y707225D01*
Y691725D02*
Y707225D01*
X1162640Y678860D02*
Y711210D01*
Y678860D02*
X1175790Y665710D01*
X1276640Y730824D02*
Y756010D01*
X1247540Y658960D02*
X1284640Y696060D01*
Y722824D01*
X1276640Y730824D02*
X1284640Y722824D01*
X1327290Y673910D02*
X1327465Y674085D01*
X1374115D01*
X1374290Y674260D01*
X1129040Y506460D02*
X1220040D01*
X1230540Y516960D02*
Y653210D01*
X1220040Y506460D02*
X1230540Y516960D01*
X1189616Y338786D02*
Y456286D01*
X1247540Y514210D02*
Y658960D01*
X1189616Y456286D02*
X1247540Y514210D01*
X1093540Y690410D02*
X1111840Y708710D01*
X1093540Y637613D02*
Y690410D01*
X1079037Y623110D02*
X1093540Y637613D01*
X1111840Y708710D02*
Y711210D01*
X1073290Y623110D02*
X1079037D01*
X1137240Y674010D02*
Y711210D01*
Y674010D02*
X1152790Y658460D01*
Y633710D02*
Y658460D01*
X1141290Y622210D02*
X1152790Y633710D01*
X1122790Y622210D02*
X1141290D01*
X1098290Y597710D02*
X1122790Y622210D01*
X1073290Y597710D02*
X1098290D01*
X1236540Y362360D02*
Y479210D01*
X1264290Y506960D01*
Y596710D01*
X1175790Y626260D02*
Y665710D01*
X1134446Y584916D02*
X1175790Y626260D01*
X1051390Y445310D02*
X1073290D01*
X1039540Y354210D02*
Y433460D01*
X1051390Y445310D01*
X1024790Y339460D02*
X1039540Y354210D01*
X1073290Y546910D02*
X1074446Y545754D01*
X1089746D02*
X1129040Y506460D01*
X1074446Y545754D02*
X1089746D01*
X1024790Y336960D02*
Y339460D01*
X1010540Y812911D02*
X1011688Y811763D01*
X1018525D02*
X1028540Y801748D01*
X1015790Y749999D02*
Y759210D01*
X1028540Y771960D02*
Y801748D01*
X1013040Y747249D02*
X1015790Y749999D01*
Y759210D02*
X1028540Y771960D01*
X1011688Y811763D02*
X1018525D01*
X1070790Y597710D02*
X1073290D01*
Y623110D02*
X1075170Y621230D01*
X1236540Y362360D02*
X1272540Y326360D01*
X1289290Y551404D02*
Y555710D01*
X1368290Y336210D02*
X1368740Y336660D01*
Y407960D01*
X1359796Y416904D02*
X1368740Y407960D01*
X1272540Y326360D02*
X1318528D01*
X1346334Y354166D01*
X1272540Y300960D02*
X1374140D01*
X1164540Y313710D02*
X1189616Y338786D01*
X1196790Y295960D02*
X1214540Y313710D01*
X1065790Y295960D02*
X1196790D01*
X1122290Y314060D02*
X1143134D01*
X1143484Y313710D01*
X1164540D01*
X1121878Y365610D02*
X1122290Y364860D01*
X1024790Y336960D02*
X1065790Y295960D01*
X1006040Y554110D02*
X1026040Y534110D01*
Y485960D02*
Y534110D01*
X1007540Y467460D02*
X1026040Y485960D01*
X1105542Y584916D02*
X1134446D01*
X1092936Y572310D02*
X1105542Y584916D01*
X1073290Y572310D02*
X1092936D01*
X1359796Y521670D02*
X1367416Y529290D01*
X1359796Y416904D02*
Y521670D01*
X1327290Y648510D02*
X1349890D01*
X1359034Y639366D01*
Y575010D02*
Y639366D01*
Y575010D02*
X1388498Y545546D01*
Y315318D02*
Y545546D01*
X1374140Y300960D02*
X1388498Y315318D01*
X872394Y1174380D02*
X887544Y1159230D01*
Y905436D02*
Y1159230D01*
X868500Y1174380D02*
X872394D01*
X868200Y971480D02*
X868500Y971180D01*
X852750Y971480D02*
X868200D01*
X848000Y976230D02*
Y1085174D01*
Y976230D02*
X852750Y971480D01*
X862500Y977180D02*
X868500Y971180D01*
X830500Y1102674D02*
X848000Y1085174D01*
X733235Y1242995D02*
X771750Y1204480D01*
X729250Y1262480D02*
X733235Y1258495D01*
Y1242995D02*
Y1258495D01*
X703850Y1230130D02*
Y1262480D01*
Y1230130D02*
X717000Y1216980D01*
X817850Y1282094D02*
Y1307280D01*
X788750Y1210230D02*
X825850Y1247330D01*
Y1274094D01*
X817850Y1282094D02*
X825850Y1274094D01*
X868500Y1225180D02*
X868675Y1225355D01*
X915325D01*
X915500Y1225530D01*
X670250Y1057730D02*
X761250D01*
X771750Y1068230D02*
Y1204480D01*
X761250Y1057730D02*
X771750Y1068230D01*
X730826Y890056D02*
Y1007556D01*
X788750Y1065480D02*
Y1210230D01*
X730826Y1007556D02*
X788750Y1065480D01*
X634750Y1241680D02*
X653050Y1259980D01*
X634750Y1188883D02*
Y1241680D01*
X620247Y1174380D02*
X634750Y1188883D01*
X653050Y1259980D02*
Y1262480D01*
X614500Y1174380D02*
X620247D01*
X678450Y1225280D02*
Y1262480D01*
Y1225280D02*
X694000Y1209730D01*
Y1184980D02*
Y1209730D01*
X682500Y1173480D02*
X694000Y1184980D01*
X664000Y1173480D02*
X682500D01*
X639500Y1148980D02*
X664000Y1173480D01*
X614500Y1148980D02*
X639500D01*
X777750Y913630D02*
Y1030480D01*
X805500Y1058230D01*
Y1147980D01*
X717000Y1177530D02*
Y1216980D01*
X675656Y1136186D02*
X717000Y1177530D01*
X592600Y996580D02*
X614500D01*
X580750Y905480D02*
Y984730D01*
X592600Y996580D01*
X566000Y890730D02*
X580750Y905480D01*
X614500Y1098180D02*
X615657Y1097024D01*
X630956D02*
X670250Y1057730D01*
X615657Y1097024D02*
X630956D01*
X566000Y888230D02*
Y890730D01*
X551750Y1364181D02*
X552898Y1363033D01*
X559735D02*
X569750Y1353018D01*
X557000Y1301269D02*
Y1310480D01*
X569750Y1323230D02*
Y1353018D01*
X554250Y1298519D02*
X557000Y1301269D01*
Y1310480D02*
X569750Y1323230D01*
X552898Y1363033D02*
X559735D01*
X612000Y1148980D02*
X614500D01*
Y1174380D02*
X616380Y1172500D01*
X777750Y913630D02*
X813750Y877630D01*
X830500Y1102674D02*
Y1106980D01*
X909500Y887480D02*
X909950Y887930D01*
Y959230D01*
X901006Y968174D02*
X909950Y959230D01*
X813750Y877630D02*
X859738D01*
X887544Y905436D01*
X813750Y852230D02*
X915350D01*
X705750Y864980D02*
X730826Y890056D01*
X738000Y847230D02*
X755750Y864980D01*
X607000Y847230D02*
X738000D01*
X663500Y865330D02*
X684344D01*
X684694Y864980D01*
X705750D01*
X663088Y916880D02*
X663500Y916130D01*
X566000Y888230D02*
X607000Y847230D01*
X547250Y1105380D02*
X567250Y1085380D01*
Y1037230D02*
Y1085380D01*
X548750Y1018730D02*
X567250Y1037230D01*
X646752Y1136186D02*
X675656D01*
X634146Y1123580D02*
X646752Y1136186D01*
X614500Y1123580D02*
X634146D01*
X901006Y1072940D02*
X908626Y1080560D01*
X901006Y968174D02*
Y1072940D01*
X868500Y1199780D02*
X891100D01*
X900244Y1190636D01*
Y1126280D02*
Y1190636D01*
Y1126280D02*
X929708Y1096816D01*
Y866588D02*
Y1096816D01*
X915350Y852230D02*
X929708Y866588D01*
X1331184Y1174380D02*
X1346334Y1159230D01*
Y905436D02*
Y1159230D01*
X1327290Y1174380D02*
X1331184D01*
X1326990Y971480D02*
X1327290Y971180D01*
X1311540Y971480D02*
X1326990D01*
X1306790Y976230D02*
Y1085174D01*
Y976230D02*
X1311540Y971480D01*
X1321290Y977180D02*
X1327290Y971180D01*
X1289290Y1102674D02*
X1306790Y1085174D01*
X1192025Y1242995D02*
X1230540Y1204480D01*
X1188040Y1262480D02*
X1192025Y1258495D01*
Y1242995D02*
Y1258495D01*
X1162640Y1230130D02*
Y1262480D01*
Y1230130D02*
X1175790Y1216980D01*
X1276640Y1282094D02*
Y1307280D01*
X1247540Y1210230D02*
X1284640Y1247330D01*
Y1274094D01*
X1276640Y1282094D02*
X1284640Y1274094D01*
X1327290Y1225180D02*
X1327465Y1225355D01*
X1374115D01*
X1374290Y1225530D01*
X1129040Y1057730D02*
X1220040D01*
X1230540Y1068230D02*
Y1204480D01*
X1220040Y1057730D02*
X1230540Y1068230D01*
X1189616Y890056D02*
Y1007556D01*
X1247540Y1065480D02*
Y1210230D01*
X1189616Y1007556D02*
X1247540Y1065480D01*
X1093540Y1241680D02*
X1111840Y1259980D01*
X1093540Y1188883D02*
Y1241680D01*
X1079037Y1174380D02*
X1093540Y1188883D01*
X1111840Y1259980D02*
Y1262480D01*
X1073290Y1174380D02*
X1079037D01*
X1137240Y1225280D02*
Y1262480D01*
Y1225280D02*
X1152790Y1209730D01*
Y1184980D02*
Y1209730D01*
X1141290Y1173480D02*
X1152790Y1184980D01*
X1122790Y1173480D02*
X1141290D01*
X1098290Y1148980D02*
X1122790Y1173480D01*
X1073290Y1148980D02*
X1098290D01*
X1236540Y913630D02*
Y1030480D01*
X1264290Y1058230D01*
Y1147980D01*
X1175790Y1177530D02*
Y1216980D01*
X1134446Y1136186D02*
X1175790Y1177530D01*
X1051390Y996580D02*
X1073290D01*
X1039540Y905480D02*
Y984730D01*
X1051390Y996580D01*
X1024790Y890730D02*
X1039540Y905480D01*
X1073290Y1098180D02*
X1074446Y1097024D01*
X1089746D02*
X1129040Y1057730D01*
X1074446Y1097024D02*
X1089746D01*
X1024790Y888230D02*
Y890730D01*
X1010540Y1364181D02*
X1011688Y1363033D01*
X1018525D02*
X1028540Y1353018D01*
X1015790Y1301269D02*
Y1310480D01*
X1028540Y1323230D02*
Y1353018D01*
X1013040Y1298519D02*
X1015790Y1301269D01*
Y1310480D02*
X1028540Y1323230D01*
X1011688Y1363033D02*
X1018525D01*
X1070790Y1148980D02*
X1073290D01*
Y1174380D02*
X1075170Y1172500D01*
X1236540Y913630D02*
X1272540Y877630D01*
X1289290Y1102674D02*
Y1106980D01*
X1368290Y887480D02*
X1368740Y887930D01*
Y959230D01*
X1359796Y968174D02*
X1368740Y959230D01*
X1272540Y877630D02*
X1318528D01*
X1346334Y905436D01*
X1272540Y852230D02*
X1374140D01*
X1164540Y864980D02*
X1189616Y890056D01*
X1196790Y847230D02*
X1214540Y864980D01*
X1065790Y847230D02*
X1196790D01*
X1122290Y865330D02*
X1143134D01*
X1143484Y864980D01*
X1164540D01*
X1121878Y916880D02*
X1122290Y916130D01*
X1024790Y888230D02*
X1065790Y847230D01*
X1006040Y1105380D02*
X1026040Y1085380D01*
Y1037230D02*
Y1085380D01*
X1007540Y1018730D02*
X1026040Y1037230D01*
X1105542Y1136186D02*
X1134446D01*
X1092936Y1123580D02*
X1105542Y1136186D01*
X1073290Y1123580D02*
X1092936D01*
X1359796Y1072940D02*
X1367416Y1080560D01*
X1359796Y968174D02*
Y1072940D01*
X1327290Y1199780D02*
X1349890D01*
X1359034Y1190636D01*
Y1126280D02*
Y1190636D01*
Y1126280D02*
X1388498Y1096816D01*
Y866588D02*
Y1096816D01*
X1374140Y852230D02*
X1388498Y866588D01*
D13*
X755750Y313710D02*
D03*
Y362960D02*
D03*
X554250Y657960D02*
D03*
X1214540Y313710D02*
D03*
Y362960D02*
D03*
X1013040Y657960D02*
D03*
X755750Y864980D02*
D03*
Y914230D02*
D03*
X554250Y1209230D02*
D03*
X1214540Y864980D02*
D03*
Y914230D02*
D03*
X1013040Y1209230D02*
D03*
D14*
X705750Y313710D02*
D03*
Y362960D02*
D03*
X1164540Y313710D02*
D03*
Y362960D02*
D03*
X705750Y864980D02*
D03*
Y914230D02*
D03*
X1164540Y864980D02*
D03*
Y914230D02*
D03*
D15*
X793450Y752010D02*
D03*
X818850D02*
D03*
X653050Y557810D02*
D03*
X678450D02*
D03*
X703850D02*
D03*
X729250D02*
D03*
X653050Y711210D02*
D03*
X678450D02*
D03*
X703850D02*
D03*
X1252240Y752010D02*
D03*
X1277640D02*
D03*
X1111840Y557810D02*
D03*
X1137240D02*
D03*
X1162640D02*
D03*
X1188040D02*
D03*
X1111840Y711210D02*
D03*
X1137240D02*
D03*
X1162640D02*
D03*
X793450Y1303280D02*
D03*
X818850D02*
D03*
X653050Y1109080D02*
D03*
X678450D02*
D03*
X703850D02*
D03*
X729250D02*
D03*
X653050Y1262480D02*
D03*
X678450D02*
D03*
X703850D02*
D03*
X1252240Y1303280D02*
D03*
X1277640D02*
D03*
X1111840Y1109080D02*
D03*
X1137240D02*
D03*
X1162640D02*
D03*
X1188040D02*
D03*
X1111840Y1262480D02*
D03*
X1137240D02*
D03*
X1162640D02*
D03*
D16*
X729250Y711210D02*
D03*
X1188040D02*
D03*
X729250Y1262480D02*
D03*
X1188040D02*
D03*
D17*
X729250Y585210D02*
D03*
Y528210D02*
D03*
X915500Y623110D02*
D03*
Y648510D02*
D03*
Y673910D02*
D03*
Y699310D02*
D03*
Y724710D02*
D03*
Y750110D02*
D03*
Y775510D02*
D03*
X649750Y640270D02*
D03*
X675150D02*
D03*
X752000Y528210D02*
D03*
Y585210D02*
D03*
X831500Y476150D02*
D03*
X806100D02*
D03*
Y638710D02*
D03*
X831500D02*
D03*
X675150Y477710D02*
D03*
X649750D02*
D03*
X1188040Y585210D02*
D03*
Y528210D02*
D03*
X1374290Y623110D02*
D03*
Y648510D02*
D03*
Y673910D02*
D03*
Y699310D02*
D03*
Y724710D02*
D03*
Y750110D02*
D03*
Y775510D02*
D03*
X1108540Y640270D02*
D03*
X1133940D02*
D03*
X1210790Y528210D02*
D03*
Y585210D02*
D03*
X1290290Y476150D02*
D03*
X1264890D02*
D03*
Y638710D02*
D03*
X1290290D02*
D03*
X1133940Y477710D02*
D03*
X1108540D02*
D03*
X729250Y1136480D02*
D03*
Y1079480D02*
D03*
X915500Y1174380D02*
D03*
Y1199780D02*
D03*
Y1225180D02*
D03*
Y1250580D02*
D03*
Y1275980D02*
D03*
Y1301380D02*
D03*
Y1326780D02*
D03*
X649750Y1191540D02*
D03*
X675150D02*
D03*
X752000Y1079480D02*
D03*
Y1136480D02*
D03*
X831500Y1027420D02*
D03*
X806100D02*
D03*
Y1189980D02*
D03*
X831500D02*
D03*
X675150Y1028980D02*
D03*
X649750D02*
D03*
X1188040Y1136480D02*
D03*
Y1079480D02*
D03*
X1374290Y1174380D02*
D03*
Y1199780D02*
D03*
Y1225180D02*
D03*
Y1250580D02*
D03*
Y1275980D02*
D03*
Y1301380D02*
D03*
Y1326780D02*
D03*
X1108540Y1191540D02*
D03*
X1133940D02*
D03*
X1210790Y1079480D02*
D03*
Y1136480D02*
D03*
X1290290Y1027420D02*
D03*
X1264890D02*
D03*
Y1189980D02*
D03*
X1290290D02*
D03*
X1133940Y1028980D02*
D03*
X1108540D02*
D03*
D18*
X915500Y597710D02*
D03*
X1374290D02*
D03*
X915500Y1148980D02*
D03*
X1374290D02*
D03*
D19*
X868500Y775510D02*
D03*
Y750110D02*
D03*
Y724710D02*
D03*
Y699310D02*
D03*
Y673910D02*
D03*
Y648510D02*
D03*
Y623110D02*
D03*
Y597710D02*
D03*
Y572310D02*
D03*
Y546910D02*
D03*
Y521510D02*
D03*
Y496110D02*
D03*
Y470710D02*
D03*
Y445310D02*
D03*
X614500Y496110D02*
D03*
Y775510D02*
D03*
Y750110D02*
D03*
Y724710D02*
D03*
Y699310D02*
D03*
Y673910D02*
D03*
Y648510D02*
D03*
Y623110D02*
D03*
Y597710D02*
D03*
Y572310D02*
D03*
Y546910D02*
D03*
Y521510D02*
D03*
Y470710D02*
D03*
Y445310D02*
D03*
X1327290Y775510D02*
D03*
Y750110D02*
D03*
Y724710D02*
D03*
Y699310D02*
D03*
Y673910D02*
D03*
Y648510D02*
D03*
Y623110D02*
D03*
Y597710D02*
D03*
Y572310D02*
D03*
Y546910D02*
D03*
Y521510D02*
D03*
Y496110D02*
D03*
Y470710D02*
D03*
Y445310D02*
D03*
X1073290Y496110D02*
D03*
Y775510D02*
D03*
Y750110D02*
D03*
Y724710D02*
D03*
Y699310D02*
D03*
Y673910D02*
D03*
Y648510D02*
D03*
Y623110D02*
D03*
Y597710D02*
D03*
Y572310D02*
D03*
Y546910D02*
D03*
Y521510D02*
D03*
Y470710D02*
D03*
Y445310D02*
D03*
X868500Y1326780D02*
D03*
Y1301380D02*
D03*
Y1275980D02*
D03*
Y1250580D02*
D03*
Y1225180D02*
D03*
Y1199780D02*
D03*
Y1174380D02*
D03*
Y1148980D02*
D03*
Y1123580D02*
D03*
Y1098180D02*
D03*
Y1072780D02*
D03*
Y1047380D02*
D03*
Y1021980D02*
D03*
Y996580D02*
D03*
X614500Y1047380D02*
D03*
Y1326780D02*
D03*
Y1301380D02*
D03*
Y1275980D02*
D03*
Y1250580D02*
D03*
Y1225180D02*
D03*
Y1199780D02*
D03*
Y1174380D02*
D03*
Y1148980D02*
D03*
Y1123580D02*
D03*
Y1098180D02*
D03*
Y1072780D02*
D03*
Y1021980D02*
D03*
Y996580D02*
D03*
X1327290Y1326780D02*
D03*
Y1301380D02*
D03*
Y1275980D02*
D03*
Y1250580D02*
D03*
Y1225180D02*
D03*
Y1199780D02*
D03*
Y1174380D02*
D03*
Y1148980D02*
D03*
Y1123580D02*
D03*
Y1098180D02*
D03*
Y1072780D02*
D03*
Y1047380D02*
D03*
Y1021980D02*
D03*
Y996580D02*
D03*
X1073290Y1047380D02*
D03*
Y1326780D02*
D03*
Y1301380D02*
D03*
Y1275980D02*
D03*
Y1250580D02*
D03*
Y1225180D02*
D03*
Y1199780D02*
D03*
Y1174380D02*
D03*
Y1148980D02*
D03*
Y1123580D02*
D03*
Y1098180D02*
D03*
Y1072780D02*
D03*
Y1021980D02*
D03*
Y996580D02*
D03*
D20*
X868500Y419910D02*
D03*
X614500D02*
D03*
X1327290D02*
D03*
X1073290D02*
D03*
X868500Y971180D02*
D03*
X614500D02*
D03*
X1327290D02*
D03*
X1073290D02*
D03*
D21*
X548750Y507060D02*
D03*
Y467460D02*
D03*
X547250Y593710D02*
D03*
X1007540Y507060D02*
D03*
Y467460D02*
D03*
X1006040Y593710D02*
D03*
X548750Y1058330D02*
D03*
Y1018730D02*
D03*
X547250Y1144980D02*
D03*
X1007540Y1058330D02*
D03*
Y1018730D02*
D03*
X1006040Y1144980D02*
D03*
D22*
X548750Y427860D02*
D03*
X547250Y554110D02*
D03*
X1007540Y427860D02*
D03*
X1006040Y554110D02*
D03*
X548750Y979130D02*
D03*
X547250Y1105380D02*
D03*
X1007540Y979130D02*
D03*
X1006040Y1105380D02*
D03*
D23*
X551750Y812911D02*
D03*
X1010540D02*
D03*
X551750Y1364181D02*
D03*
X1010540D02*
D03*
D24*
X551750Y787510D02*
D03*
X1010540D02*
D03*
X551750Y1338780D02*
D03*
X1010540D02*
D03*
D25*
X554250Y747960D02*
D03*
X1013040D02*
D03*
X554250Y1299230D02*
D03*
X1013040D02*
D03*
D26*
X575750Y629210D02*
D03*
X830500Y555710D02*
D03*
X909500Y336210D02*
D03*
X805500Y596710D02*
D03*
X813750Y300960D02*
D03*
X908626Y529290D02*
D03*
X1034540Y629210D02*
D03*
X1289290Y555710D02*
D03*
X1368290Y336210D02*
D03*
X1264290Y596710D02*
D03*
X1272540Y300960D02*
D03*
X1367416Y529290D02*
D03*
X575750Y1180480D02*
D03*
X830500Y1106980D02*
D03*
X909500Y887480D02*
D03*
X805500Y1147980D02*
D03*
X813750Y852230D02*
D03*
X908626Y1080560D02*
D03*
X1034540Y1180480D02*
D03*
X1289290Y1106980D02*
D03*
X1368290Y887480D02*
D03*
X1264290Y1147980D02*
D03*
X1272540Y852230D02*
D03*
X1367416Y1080560D02*
D03*
M02*
