G04*
G04 #@! TF.GenerationSoftware,Altium Limited,Altium Designer,25.4.2 (15)*
G04*
G04 Layer_Color=16711935*
%FSLAX44Y44*%
%MOMM*%
G71*
G04*
G04 #@! TF.SameCoordinates,D781D73C-FE54-440B-B5B4-6B714C508266*
G04*
G04*
G04 #@! TF.FilePolarity,Negative*
G04*
G01*
G75*
%ADD33C,1.7032*%
%ADD34C,1.5532*%
%ADD35R,1.5532X1.5532*%
%ADD36O,2.2032X2.7032*%
%ADD37R,2.2032X2.7032*%
%ADD38R,1.7032X1.7032*%
%ADD39O,2.7032X2.2032*%
%ADD40R,2.7032X2.2032*%
%ADD41C,2.3532*%
%ADD42R,2.3532X2.3532*%
%ADD43C,1.6032*%
%ADD44R,1.6032X1.6032*%
%ADD45R,1.5532X1.5532*%
%ADD46C,1.4732*%
D33*
X1743218Y529226D02*
D03*
Y590780D02*
D03*
X1765968D02*
D03*
Y529226D02*
D03*
X1929468Y624126D02*
D03*
Y649526D02*
D03*
Y674926D02*
D03*
Y700326D02*
D03*
Y725726D02*
D03*
Y751126D02*
D03*
Y776526D02*
D03*
X1663718Y641286D02*
D03*
X1689118D02*
D03*
X1845468Y478726D02*
D03*
X1820068D02*
D03*
Y641286D02*
D03*
X1845468D02*
D03*
X1689118Y478726D02*
D03*
X1663718D02*
D03*
X2203278Y529226D02*
D03*
Y590780D02*
D03*
X2226028D02*
D03*
Y529226D02*
D03*
X2389528Y624126D02*
D03*
Y649526D02*
D03*
Y674926D02*
D03*
Y700326D02*
D03*
Y725726D02*
D03*
Y751126D02*
D03*
Y776526D02*
D03*
X2123778Y641286D02*
D03*
X2149178D02*
D03*
X2305528Y478726D02*
D03*
X2280128D02*
D03*
Y641286D02*
D03*
X2305528D02*
D03*
X2149178Y478726D02*
D03*
X2123778D02*
D03*
D34*
X1769718Y314726D02*
D03*
Y363976D02*
D03*
X1568218Y658976D02*
D03*
X2229778Y314726D02*
D03*
Y363976D02*
D03*
X2028278Y658976D02*
D03*
D35*
X1719718Y314726D02*
D03*
Y363976D02*
D03*
X2179778Y314726D02*
D03*
Y363976D02*
D03*
D36*
X1807418Y753026D02*
D03*
X1832818D02*
D03*
X1667018Y558826D02*
D03*
X1692418D02*
D03*
X1717818D02*
D03*
X1743218D02*
D03*
X1667018Y712226D02*
D03*
X1692418D02*
D03*
X1717818D02*
D03*
X2267478Y753026D02*
D03*
X2292878D02*
D03*
X2127078Y558826D02*
D03*
X2152478D02*
D03*
X2177878D02*
D03*
X2203278D02*
D03*
X2127078Y712226D02*
D03*
X2152478D02*
D03*
X2177878D02*
D03*
D37*
X1743218D02*
D03*
X2203278D02*
D03*
D38*
X1929468Y598726D02*
D03*
X2389528D02*
D03*
D39*
X1882468Y776526D02*
D03*
Y751126D02*
D03*
Y725726D02*
D03*
Y700326D02*
D03*
Y674926D02*
D03*
Y649526D02*
D03*
Y624126D02*
D03*
Y598726D02*
D03*
Y573326D02*
D03*
Y547926D02*
D03*
Y522526D02*
D03*
Y497126D02*
D03*
Y471726D02*
D03*
Y446326D02*
D03*
X1628468Y497126D02*
D03*
Y776526D02*
D03*
Y751126D02*
D03*
Y725726D02*
D03*
Y700326D02*
D03*
Y674926D02*
D03*
Y649526D02*
D03*
Y624126D02*
D03*
Y598726D02*
D03*
Y573326D02*
D03*
Y547926D02*
D03*
Y522526D02*
D03*
Y471726D02*
D03*
Y446326D02*
D03*
X2342528Y776526D02*
D03*
Y751126D02*
D03*
Y725726D02*
D03*
Y700326D02*
D03*
Y674926D02*
D03*
Y649526D02*
D03*
Y624126D02*
D03*
Y598726D02*
D03*
Y573326D02*
D03*
Y547926D02*
D03*
Y522526D02*
D03*
Y497126D02*
D03*
Y471726D02*
D03*
Y446326D02*
D03*
X2088528Y497126D02*
D03*
Y776526D02*
D03*
Y751126D02*
D03*
Y725726D02*
D03*
Y700326D02*
D03*
Y674926D02*
D03*
Y649526D02*
D03*
Y624126D02*
D03*
Y598726D02*
D03*
Y573326D02*
D03*
Y547926D02*
D03*
Y522526D02*
D03*
Y471726D02*
D03*
Y446326D02*
D03*
D40*
X1882468Y420926D02*
D03*
X1628468D02*
D03*
X2342528D02*
D03*
X2088528D02*
D03*
D41*
X1562718Y508076D02*
D03*
Y468476D02*
D03*
X1561218Y594726D02*
D03*
X2022778Y508076D02*
D03*
Y468476D02*
D03*
X2021278Y594726D02*
D03*
D42*
X1562718Y428876D02*
D03*
X1561218Y555126D02*
D03*
X2022778Y428876D02*
D03*
X2021278Y555126D02*
D03*
D43*
X1565718Y813927D02*
D03*
X2025778D02*
D03*
D44*
X1565718Y788526D02*
D03*
X2025778D02*
D03*
D45*
X1568218Y748976D02*
D03*
X2028278D02*
D03*
D46*
X1595218Y642976D02*
D03*
X1844468Y556726D02*
D03*
X1923468Y337226D02*
D03*
X1819468Y597726D02*
D03*
X1827718Y301976D02*
D03*
X1922594Y530306D02*
D03*
X2055278Y642976D02*
D03*
X2304528Y556726D02*
D03*
X2383528Y337226D02*
D03*
X2279528Y597726D02*
D03*
X2287778Y301976D02*
D03*
X2382654Y530306D02*
D03*
M02*
