G04*
G04 #@! TF.GenerationSoftware,Altium Limited,Altium Designer,25.4.2 (15)*
G04*
G04 Layer_Color=2752767*
%FSLAX44Y44*%
%MOMM*%
G71*
G04*
G04 #@! TF.SameCoordinates,E50F2220-639C-4698-B7CA-9BFD618F9179*
G04*
G04*
G04 #@! TF.FilePolarity,Positive*
G04*
G01*
G75*
%ADD52C,0.1270*%
%ADD53C,0.1693*%
D52*
X750670Y308630D02*
Y318790D01*
X760830D01*
Y308630D01*
X750670D01*
X700670D02*
Y318790D01*
X710830D01*
Y308630D01*
X700670D01*
X750670Y357880D02*
Y368040D01*
X760830D01*
Y357880D01*
X750670D01*
X700670D02*
Y368040D01*
X710830D01*
Y357880D01*
X700670D01*
X729250Y580130D02*
X724170Y590290D01*
X734330D01*
X729250Y580130D01*
Y523130D02*
X724170Y533290D01*
X734330D01*
X729250Y523130D01*
X915500Y592630D02*
X910420Y602790D01*
X920580D01*
X915500Y592630D01*
Y618030D02*
X910420Y628190D01*
X920580D01*
X915500Y618030D01*
Y643430D02*
X910420Y653590D01*
X920580D01*
X915500Y643430D01*
Y668830D02*
X910420Y678990D01*
X920580D01*
X915500Y668830D01*
Y694230D02*
X910420Y704390D01*
X920580D01*
X915500Y694230D01*
Y719630D02*
X910420Y729790D01*
X920580D01*
X915500Y719630D01*
Y745030D02*
X910420Y755190D01*
X920580D01*
X915500Y745030D01*
Y770430D02*
X910420Y780590D01*
X920580D01*
X915500Y770430D01*
X649750Y635190D02*
X644670Y645350D01*
X654830D01*
X649750Y635190D01*
X675150D02*
X670070Y645350D01*
X680230D01*
X675150Y635190D01*
X752000Y523130D02*
X746920Y533290D01*
X757080D01*
X752000Y523130D01*
Y580130D02*
X746920Y590290D01*
X757080D01*
X752000Y580130D01*
X831500Y471070D02*
X826420Y481230D01*
X836580D01*
X831500Y471070D01*
X806100D02*
X801020Y481230D01*
X811180D01*
X806100Y471070D01*
Y633630D02*
X801020Y643790D01*
X811180D01*
X806100Y633630D01*
X831500D02*
X826420Y643790D01*
X836580D01*
X831500Y633630D01*
X675150Y472630D02*
X670070Y482790D01*
X680230D01*
X675150Y472630D01*
X649750D02*
X644670Y482790D01*
X654830D01*
X649750Y472630D01*
X548750Y501980D02*
X551290Y504520D01*
X553830D01*
X551290Y507060D01*
X553830Y509600D01*
X551290D01*
X548750Y512140D01*
X546210Y509600D01*
X543670D01*
X546210Y507060D01*
X543670Y504520D01*
X546210D01*
X548750Y501980D01*
Y462380D02*
X551290Y464920D01*
X553830D01*
X551290Y467460D01*
X553830Y470000D01*
X551290D01*
X548750Y472540D01*
X546210Y470000D01*
X543670D01*
X546210Y467460D01*
X543670Y464920D01*
X546210D01*
X548750Y462380D01*
Y422780D02*
X551290Y425320D01*
X553830D01*
X551290Y427860D01*
X553830Y430400D01*
X551290D01*
X548750Y432940D01*
X546210Y430400D01*
X543670D01*
X546210Y427860D01*
X543670Y425320D01*
X546210D01*
X548750Y422780D01*
X547250Y588630D02*
X549790Y591170D01*
X552330D01*
X549790Y593710D01*
X552330Y596250D01*
X549790D01*
X547250Y598790D01*
X544710Y596250D01*
X542170D01*
X544710Y593710D01*
X542170Y591170D01*
X544710D01*
X547250Y588630D01*
Y549030D02*
X549790Y551570D01*
X552330D01*
X549790Y554110D01*
X552330Y556650D01*
X549790D01*
X547250Y559190D01*
X544710Y556650D01*
X542170D01*
X544710Y554110D01*
X542170Y551570D01*
X544710D01*
X547250Y549030D01*
X551750Y807831D02*
X546670Y817991D01*
X556830D01*
X551750Y807831D01*
Y782430D02*
X546670Y792590D01*
X556830D01*
X551750Y782430D01*
X549170Y652880D02*
X551710Y657960D01*
X549170Y663040D01*
X554250Y660500D01*
X559330Y663040D01*
X556790Y657960D01*
X559330Y652880D01*
X554250Y655420D01*
X549170Y652880D01*
Y742880D02*
X551710Y747960D01*
X549170Y753040D01*
X554250Y750500D01*
X559330Y753040D01*
X556790Y747960D01*
X559330Y742880D01*
X554250Y745420D01*
X549170Y742880D01*
X573210Y626670D02*
Y624130D01*
X578290D01*
Y626670D01*
X580830D01*
Y631750D01*
X578290D01*
Y634290D01*
X573210D01*
Y631750D01*
X570670D01*
Y626670D01*
X573210D01*
X827960Y553170D02*
Y550630D01*
X833040D01*
Y553170D01*
X835580D01*
Y558250D01*
X833040D01*
Y560790D01*
X827960D01*
Y558250D01*
X825420D01*
Y553170D01*
X827960D01*
X906960Y333670D02*
Y331130D01*
X912040D01*
Y333670D01*
X914580D01*
Y338750D01*
X912040D01*
Y341290D01*
X906960D01*
Y338750D01*
X904420D01*
Y333670D01*
X906960D01*
X802960Y594170D02*
Y591630D01*
X808040D01*
Y594170D01*
X810580D01*
Y599250D01*
X808040D01*
Y601790D01*
X802960D01*
Y599250D01*
X800420D01*
Y594170D01*
X802960D01*
X811210Y298420D02*
Y295880D01*
X816290D01*
Y298420D01*
X818830D01*
Y303500D01*
X816290D01*
Y306040D01*
X811210D01*
Y303500D01*
X808670D01*
Y298420D01*
X811210D01*
X906086Y526750D02*
Y524210D01*
X911166D01*
Y526750D01*
X913706D01*
Y531830D01*
X911166D01*
Y534370D01*
X906086D01*
Y531830D01*
X903546D01*
Y526750D01*
X906086D01*
X1209460Y308630D02*
Y318790D01*
X1219620D01*
Y308630D01*
X1209460D01*
X1159460D02*
Y318790D01*
X1169620D01*
Y308630D01*
X1159460D01*
X1209460Y357880D02*
Y368040D01*
X1219620D01*
Y357880D01*
X1209460D01*
X1159460D02*
Y368040D01*
X1169620D01*
Y357880D01*
X1159460D01*
X1188040Y580130D02*
X1182960Y590290D01*
X1193120D01*
X1188040Y580130D01*
Y523130D02*
X1182960Y533290D01*
X1193120D01*
X1188040Y523130D01*
X1374290Y592630D02*
X1369210Y602790D01*
X1379370D01*
X1374290Y592630D01*
Y618030D02*
X1369210Y628190D01*
X1379370D01*
X1374290Y618030D01*
Y643430D02*
X1369210Y653590D01*
X1379370D01*
X1374290Y643430D01*
Y668830D02*
X1369210Y678990D01*
X1379370D01*
X1374290Y668830D01*
Y694230D02*
X1369210Y704390D01*
X1379370D01*
X1374290Y694230D01*
Y719630D02*
X1369210Y729790D01*
X1379370D01*
X1374290Y719630D01*
Y745030D02*
X1369210Y755190D01*
X1379370D01*
X1374290Y745030D01*
Y770430D02*
X1369210Y780590D01*
X1379370D01*
X1374290Y770430D01*
X1108540Y635190D02*
X1103460Y645350D01*
X1113620D01*
X1108540Y635190D01*
X1133940D02*
X1128860Y645350D01*
X1139020D01*
X1133940Y635190D01*
X1210790Y523130D02*
X1205710Y533290D01*
X1215870D01*
X1210790Y523130D01*
Y580130D02*
X1205710Y590290D01*
X1215870D01*
X1210790Y580130D01*
X1290290Y471070D02*
X1285210Y481230D01*
X1295370D01*
X1290290Y471070D01*
X1264890D02*
X1259810Y481230D01*
X1269970D01*
X1264890Y471070D01*
Y633630D02*
X1259810Y643790D01*
X1269970D01*
X1264890Y633630D01*
X1290290D02*
X1285210Y643790D01*
X1295370D01*
X1290290Y633630D01*
X1133940Y472630D02*
X1128860Y482790D01*
X1139020D01*
X1133940Y472630D01*
X1108540D02*
X1103460Y482790D01*
X1113620D01*
X1108540Y472630D01*
X1007540Y501980D02*
X1010080Y504520D01*
X1012620D01*
X1010080Y507060D01*
X1012620Y509600D01*
X1010080D01*
X1007540Y512140D01*
X1005000Y509600D01*
X1002460D01*
X1005000Y507060D01*
X1002460Y504520D01*
X1005000D01*
X1007540Y501980D01*
Y462380D02*
X1010080Y464920D01*
X1012620D01*
X1010080Y467460D01*
X1012620Y470000D01*
X1010080D01*
X1007540Y472540D01*
X1005000Y470000D01*
X1002460D01*
X1005000Y467460D01*
X1002460Y464920D01*
X1005000D01*
X1007540Y462380D01*
Y422780D02*
X1010080Y425320D01*
X1012620D01*
X1010080Y427860D01*
X1012620Y430400D01*
X1010080D01*
X1007540Y432940D01*
X1005000Y430400D01*
X1002460D01*
X1005000Y427860D01*
X1002460Y425320D01*
X1005000D01*
X1007540Y422780D01*
X1006040Y588630D02*
X1008580Y591170D01*
X1011120D01*
X1008580Y593710D01*
X1011120Y596250D01*
X1008580D01*
X1006040Y598790D01*
X1003500Y596250D01*
X1000960D01*
X1003500Y593710D01*
X1000960Y591170D01*
X1003500D01*
X1006040Y588630D01*
Y549030D02*
X1008580Y551570D01*
X1011120D01*
X1008580Y554110D01*
X1011120Y556650D01*
X1008580D01*
X1006040Y559190D01*
X1003500Y556650D01*
X1000960D01*
X1003500Y554110D01*
X1000960Y551570D01*
X1003500D01*
X1006040Y549030D01*
X1010540Y807831D02*
X1005460Y817991D01*
X1015620D01*
X1010540Y807831D01*
Y782430D02*
X1005460Y792590D01*
X1015620D01*
X1010540Y782430D01*
X1007960Y652880D02*
X1010500Y657960D01*
X1007960Y663040D01*
X1013040Y660500D01*
X1018120Y663040D01*
X1015580Y657960D01*
X1018120Y652880D01*
X1013040Y655420D01*
X1007960Y652880D01*
Y742880D02*
X1010500Y747960D01*
X1007960Y753040D01*
X1013040Y750500D01*
X1018120Y753040D01*
X1015580Y747960D01*
X1018120Y742880D01*
X1013040Y745420D01*
X1007960Y742880D01*
X1032000Y626670D02*
Y624130D01*
X1037080D01*
Y626670D01*
X1039620D01*
Y631750D01*
X1037080D01*
Y634290D01*
X1032000D01*
Y631750D01*
X1029460D01*
Y626670D01*
X1032000D01*
X1286750Y553170D02*
Y550630D01*
X1291830D01*
Y553170D01*
X1294370D01*
Y558250D01*
X1291830D01*
Y560790D01*
X1286750D01*
Y558250D01*
X1284210D01*
Y553170D01*
X1286750D01*
X1365750Y333670D02*
Y331130D01*
X1370830D01*
Y333670D01*
X1373370D01*
Y338750D01*
X1370830D01*
Y341290D01*
X1365750D01*
Y338750D01*
X1363210D01*
Y333670D01*
X1365750D01*
X1261750Y594170D02*
Y591630D01*
X1266830D01*
Y594170D01*
X1269370D01*
Y599250D01*
X1266830D01*
Y601790D01*
X1261750D01*
Y599250D01*
X1259210D01*
Y594170D01*
X1261750D01*
X1270000Y298420D02*
Y295880D01*
X1275080D01*
Y298420D01*
X1277620D01*
Y303500D01*
X1275080D01*
Y306040D01*
X1270000D01*
Y303500D01*
X1267460D01*
Y298420D01*
X1270000D01*
X1364876Y526750D02*
Y524210D01*
X1369956D01*
Y526750D01*
X1372496D01*
Y531830D01*
X1369956D01*
Y534370D01*
X1364876D01*
Y531830D01*
X1362336D01*
Y526750D01*
X1364876D01*
X750670Y859900D02*
Y870060D01*
X760830D01*
Y859900D01*
X750670D01*
X700670D02*
Y870060D01*
X710830D01*
Y859900D01*
X700670D01*
X750670Y909150D02*
Y919310D01*
X760830D01*
Y909150D01*
X750670D01*
X700670D02*
Y919310D01*
X710830D01*
Y909150D01*
X700670D01*
X729250Y1131400D02*
X724170Y1141560D01*
X734330D01*
X729250Y1131400D01*
Y1074400D02*
X724170Y1084560D01*
X734330D01*
X729250Y1074400D01*
X915500Y1143900D02*
X910420Y1154060D01*
X920580D01*
X915500Y1143900D01*
Y1169300D02*
X910420Y1179460D01*
X920580D01*
X915500Y1169300D01*
Y1194700D02*
X910420Y1204860D01*
X920580D01*
X915500Y1194700D01*
Y1220100D02*
X910420Y1230260D01*
X920580D01*
X915500Y1220100D01*
Y1245500D02*
X910420Y1255660D01*
X920580D01*
X915500Y1245500D01*
Y1270900D02*
X910420Y1281060D01*
X920580D01*
X915500Y1270900D01*
Y1296300D02*
X910420Y1306460D01*
X920580D01*
X915500Y1296300D01*
Y1321700D02*
X910420Y1331860D01*
X920580D01*
X915500Y1321700D01*
X649750Y1186460D02*
X644670Y1196620D01*
X654830D01*
X649750Y1186460D01*
X675150D02*
X670070Y1196620D01*
X680230D01*
X675150Y1186460D01*
X752000Y1074400D02*
X746920Y1084560D01*
X757080D01*
X752000Y1074400D01*
Y1131400D02*
X746920Y1141560D01*
X757080D01*
X752000Y1131400D01*
X831500Y1022340D02*
X826420Y1032500D01*
X836580D01*
X831500Y1022340D01*
X806100D02*
X801020Y1032500D01*
X811180D01*
X806100Y1022340D01*
Y1184900D02*
X801020Y1195060D01*
X811180D01*
X806100Y1184900D01*
X831500D02*
X826420Y1195060D01*
X836580D01*
X831500Y1184900D01*
X675150Y1023900D02*
X670070Y1034060D01*
X680230D01*
X675150Y1023900D01*
X649750D02*
X644670Y1034060D01*
X654830D01*
X649750Y1023900D01*
X548750Y1053250D02*
X551290Y1055790D01*
X553830D01*
X551290Y1058330D01*
X553830Y1060870D01*
X551290D01*
X548750Y1063410D01*
X546210Y1060870D01*
X543670D01*
X546210Y1058330D01*
X543670Y1055790D01*
X546210D01*
X548750Y1053250D01*
Y1013650D02*
X551290Y1016190D01*
X553830D01*
X551290Y1018730D01*
X553830Y1021270D01*
X551290D01*
X548750Y1023810D01*
X546210Y1021270D01*
X543670D01*
X546210Y1018730D01*
X543670Y1016190D01*
X546210D01*
X548750Y1013650D01*
Y974050D02*
X551290Y976590D01*
X553830D01*
X551290Y979130D01*
X553830Y981670D01*
X551290D01*
X548750Y984210D01*
X546210Y981670D01*
X543670D01*
X546210Y979130D01*
X543670Y976590D01*
X546210D01*
X548750Y974050D01*
X547250Y1139900D02*
X549790Y1142440D01*
X552330D01*
X549790Y1144980D01*
X552330Y1147520D01*
X549790D01*
X547250Y1150060D01*
X544710Y1147520D01*
X542170D01*
X544710Y1144980D01*
X542170Y1142440D01*
X544710D01*
X547250Y1139900D01*
Y1100300D02*
X549790Y1102840D01*
X552330D01*
X549790Y1105380D01*
X552330Y1107920D01*
X549790D01*
X547250Y1110460D01*
X544710Y1107920D01*
X542170D01*
X544710Y1105380D01*
X542170Y1102840D01*
X544710D01*
X547250Y1100300D01*
X551750Y1359101D02*
X546670Y1369261D01*
X556830D01*
X551750Y1359101D01*
Y1333700D02*
X546670Y1343860D01*
X556830D01*
X551750Y1333700D01*
X549170Y1204150D02*
X551710Y1209230D01*
X549170Y1214310D01*
X554250Y1211770D01*
X559330Y1214310D01*
X556790Y1209230D01*
X559330Y1204150D01*
X554250Y1206690D01*
X549170Y1204150D01*
Y1294150D02*
X551710Y1299230D01*
X549170Y1304310D01*
X554250Y1301770D01*
X559330Y1304310D01*
X556790Y1299230D01*
X559330Y1294150D01*
X554250Y1296690D01*
X549170Y1294150D01*
X573210Y1177940D02*
Y1175400D01*
X578290D01*
Y1177940D01*
X580830D01*
Y1183020D01*
X578290D01*
Y1185560D01*
X573210D01*
Y1183020D01*
X570670D01*
Y1177940D01*
X573210D01*
X827960Y1104440D02*
Y1101900D01*
X833040D01*
Y1104440D01*
X835580D01*
Y1109520D01*
X833040D01*
Y1112060D01*
X827960D01*
Y1109520D01*
X825420D01*
Y1104440D01*
X827960D01*
X906960Y884940D02*
Y882400D01*
X912040D01*
Y884940D01*
X914580D01*
Y890020D01*
X912040D01*
Y892560D01*
X906960D01*
Y890020D01*
X904420D01*
Y884940D01*
X906960D01*
X802960Y1145440D02*
Y1142900D01*
X808040D01*
Y1145440D01*
X810580D01*
Y1150520D01*
X808040D01*
Y1153060D01*
X802960D01*
Y1150520D01*
X800420D01*
Y1145440D01*
X802960D01*
X811210Y849690D02*
Y847150D01*
X816290D01*
Y849690D01*
X818830D01*
Y854770D01*
X816290D01*
Y857310D01*
X811210D01*
Y854770D01*
X808670D01*
Y849690D01*
X811210D01*
X906086Y1078020D02*
Y1075480D01*
X911166D01*
Y1078020D01*
X913706D01*
Y1083100D01*
X911166D01*
Y1085640D01*
X906086D01*
Y1083100D01*
X903546D01*
Y1078020D01*
X906086D01*
X1209460Y859900D02*
Y870060D01*
X1219620D01*
Y859900D01*
X1209460D01*
X1159460D02*
Y870060D01*
X1169620D01*
Y859900D01*
X1159460D01*
X1209460Y909150D02*
Y919310D01*
X1219620D01*
Y909150D01*
X1209460D01*
X1159460D02*
Y919310D01*
X1169620D01*
Y909150D01*
X1159460D01*
X1188040Y1131400D02*
X1182960Y1141560D01*
X1193120D01*
X1188040Y1131400D01*
Y1074400D02*
X1182960Y1084560D01*
X1193120D01*
X1188040Y1074400D01*
X1374290Y1143900D02*
X1369210Y1154060D01*
X1379370D01*
X1374290Y1143900D01*
Y1169300D02*
X1369210Y1179460D01*
X1379370D01*
X1374290Y1169300D01*
Y1194700D02*
X1369210Y1204860D01*
X1379370D01*
X1374290Y1194700D01*
Y1220100D02*
X1369210Y1230260D01*
X1379370D01*
X1374290Y1220100D01*
Y1245500D02*
X1369210Y1255660D01*
X1379370D01*
X1374290Y1245500D01*
Y1270900D02*
X1369210Y1281060D01*
X1379370D01*
X1374290Y1270900D01*
Y1296300D02*
X1369210Y1306460D01*
X1379370D01*
X1374290Y1296300D01*
Y1321700D02*
X1369210Y1331860D01*
X1379370D01*
X1374290Y1321700D01*
X1108540Y1186460D02*
X1103460Y1196620D01*
X1113620D01*
X1108540Y1186460D01*
X1133940D02*
X1128860Y1196620D01*
X1139020D01*
X1133940Y1186460D01*
X1210790Y1074400D02*
X1205710Y1084560D01*
X1215870D01*
X1210790Y1074400D01*
Y1131400D02*
X1205710Y1141560D01*
X1215870D01*
X1210790Y1131400D01*
X1290290Y1022340D02*
X1285210Y1032500D01*
X1295370D01*
X1290290Y1022340D01*
X1264890D02*
X1259810Y1032500D01*
X1269970D01*
X1264890Y1022340D01*
Y1184900D02*
X1259810Y1195060D01*
X1269970D01*
X1264890Y1184900D01*
X1290290D02*
X1285210Y1195060D01*
X1295370D01*
X1290290Y1184900D01*
X1133940Y1023900D02*
X1128860Y1034060D01*
X1139020D01*
X1133940Y1023900D01*
X1108540D02*
X1103460Y1034060D01*
X1113620D01*
X1108540Y1023900D01*
X1007540Y1053250D02*
X1010080Y1055790D01*
X1012620D01*
X1010080Y1058330D01*
X1012620Y1060870D01*
X1010080D01*
X1007540Y1063410D01*
X1005000Y1060870D01*
X1002460D01*
X1005000Y1058330D01*
X1002460Y1055790D01*
X1005000D01*
X1007540Y1053250D01*
Y1013650D02*
X1010080Y1016190D01*
X1012620D01*
X1010080Y1018730D01*
X1012620Y1021270D01*
X1010080D01*
X1007540Y1023810D01*
X1005000Y1021270D01*
X1002460D01*
X1005000Y1018730D01*
X1002460Y1016190D01*
X1005000D01*
X1007540Y1013650D01*
Y974050D02*
X1010080Y976590D01*
X1012620D01*
X1010080Y979130D01*
X1012620Y981670D01*
X1010080D01*
X1007540Y984210D01*
X1005000Y981670D01*
X1002460D01*
X1005000Y979130D01*
X1002460Y976590D01*
X1005000D01*
X1007540Y974050D01*
X1006040Y1139900D02*
X1008580Y1142440D01*
X1011120D01*
X1008580Y1144980D01*
X1011120Y1147520D01*
X1008580D01*
X1006040Y1150060D01*
X1003500Y1147520D01*
X1000960D01*
X1003500Y1144980D01*
X1000960Y1142440D01*
X1003500D01*
X1006040Y1139900D01*
Y1100300D02*
X1008580Y1102840D01*
X1011120D01*
X1008580Y1105380D01*
X1011120Y1107920D01*
X1008580D01*
X1006040Y1110460D01*
X1003500Y1107920D01*
X1000960D01*
X1003500Y1105380D01*
X1000960Y1102840D01*
X1003500D01*
X1006040Y1100300D01*
X1010540Y1359101D02*
X1005460Y1369261D01*
X1015620D01*
X1010540Y1359101D01*
Y1333700D02*
X1005460Y1343860D01*
X1015620D01*
X1010540Y1333700D01*
X1007960Y1204150D02*
X1010500Y1209230D01*
X1007960Y1214310D01*
X1013040Y1211770D01*
X1018120Y1214310D01*
X1015580Y1209230D01*
X1018120Y1204150D01*
X1013040Y1206690D01*
X1007960Y1204150D01*
Y1294150D02*
X1010500Y1299230D01*
X1007960Y1304310D01*
X1013040Y1301770D01*
X1018120Y1304310D01*
X1015580Y1299230D01*
X1018120Y1294150D01*
X1013040Y1296690D01*
X1007960Y1294150D01*
X1032000Y1177940D02*
Y1175400D01*
X1037080D01*
Y1177940D01*
X1039620D01*
Y1183020D01*
X1037080D01*
Y1185560D01*
X1032000D01*
Y1183020D01*
X1029460D01*
Y1177940D01*
X1032000D01*
X1286750Y1104440D02*
Y1101900D01*
X1291830D01*
Y1104440D01*
X1294370D01*
Y1109520D01*
X1291830D01*
Y1112060D01*
X1286750D01*
Y1109520D01*
X1284210D01*
Y1104440D01*
X1286750D01*
X1365750Y884940D02*
Y882400D01*
X1370830D01*
Y884940D01*
X1373370D01*
Y890020D01*
X1370830D01*
Y892560D01*
X1365750D01*
Y890020D01*
X1363210D01*
Y884940D01*
X1365750D01*
X1261750Y1145440D02*
Y1142900D01*
X1266830D01*
Y1145440D01*
X1269370D01*
Y1150520D01*
X1266830D01*
Y1153060D01*
X1261750D01*
Y1150520D01*
X1259210D01*
Y1145440D01*
X1261750D01*
X1270000Y849690D02*
Y847150D01*
X1275080D01*
Y849690D01*
X1277620D01*
Y854770D01*
X1275080D01*
Y857310D01*
X1270000D01*
Y854770D01*
X1267460D01*
Y849690D01*
X1270000D01*
X1364876Y1078020D02*
Y1075480D01*
X1369956D01*
Y1078020D01*
X1372496D01*
Y1083100D01*
X1369956D01*
Y1085640D01*
X1364876D01*
Y1083100D01*
X1362336D01*
Y1078020D01*
X1364876D01*
D53*
X798530Y752010D02*
G03*
X798530Y752010I-5080J0D01*
G01*
X823930D02*
G03*
X823930Y752010I-5080J0D01*
G01*
X658130Y557810D02*
G03*
X658130Y557810I-5080J0D01*
G01*
X683530D02*
G03*
X683530Y557810I-5080J0D01*
G01*
X708930D02*
G03*
X708930Y557810I-5080J0D01*
G01*
X734330D02*
G03*
X734330Y557810I-5080J0D01*
G01*
X658130Y711210D02*
G03*
X658130Y711210I-5080J0D01*
G01*
X683530D02*
G03*
X683530Y711210I-5080J0D01*
G01*
X708930D02*
G03*
X708930Y711210I-5080J0D01*
G01*
X734330D02*
G03*
X734330Y711210I-5080J0D01*
G01*
X873580Y775510D02*
G03*
X873580Y775510I-5080J0D01*
G01*
Y750110D02*
G03*
X873580Y750110I-5080J0D01*
G01*
Y724710D02*
G03*
X873580Y724710I-5080J0D01*
G01*
Y699310D02*
G03*
X873580Y699310I-5080J0D01*
G01*
Y673910D02*
G03*
X873580Y673910I-5080J0D01*
G01*
Y648510D02*
G03*
X873580Y648510I-5080J0D01*
G01*
Y623110D02*
G03*
X873580Y623110I-5080J0D01*
G01*
Y597710D02*
G03*
X873580Y597710I-5080J0D01*
G01*
Y572310D02*
G03*
X873580Y572310I-5080J0D01*
G01*
Y546910D02*
G03*
X873580Y546910I-5080J0D01*
G01*
Y521510D02*
G03*
X873580Y521510I-5080J0D01*
G01*
Y496110D02*
G03*
X873580Y496110I-5080J0D01*
G01*
Y470710D02*
G03*
X873580Y470710I-5080J0D01*
G01*
Y419910D02*
G03*
X873580Y419910I-5080J0D01*
G01*
Y445310D02*
G03*
X873580Y445310I-5080J0D01*
G01*
X619580Y496110D02*
G03*
X619580Y496110I-5080J0D01*
G01*
Y775510D02*
G03*
X619580Y775510I-5080J0D01*
G01*
Y750110D02*
G03*
X619580Y750110I-5080J0D01*
G01*
Y724710D02*
G03*
X619580Y724710I-5080J0D01*
G01*
Y699310D02*
G03*
X619580Y699310I-5080J0D01*
G01*
Y673910D02*
G03*
X619580Y673910I-5080J0D01*
G01*
Y648510D02*
G03*
X619580Y648510I-5080J0D01*
G01*
Y623110D02*
G03*
X619580Y623110I-5080J0D01*
G01*
Y597710D02*
G03*
X619580Y597710I-5080J0D01*
G01*
Y572310D02*
G03*
X619580Y572310I-5080J0D01*
G01*
Y546910D02*
G03*
X619580Y546910I-5080J0D01*
G01*
Y521510D02*
G03*
X619580Y521510I-5080J0D01*
G01*
Y470710D02*
G03*
X619580Y470710I-5080J0D01*
G01*
Y445310D02*
G03*
X619580Y445310I-5080J0D01*
G01*
Y419910D02*
G03*
X619580Y419910I-5080J0D01*
G01*
X1257320Y752010D02*
G03*
X1257320Y752010I-5080J0D01*
G01*
X1282720D02*
G03*
X1282720Y752010I-5080J0D01*
G01*
X1116920Y557810D02*
G03*
X1116920Y557810I-5080J0D01*
G01*
X1142320D02*
G03*
X1142320Y557810I-5080J0D01*
G01*
X1167720D02*
G03*
X1167720Y557810I-5080J0D01*
G01*
X1193120D02*
G03*
X1193120Y557810I-5080J0D01*
G01*
X1116920Y711210D02*
G03*
X1116920Y711210I-5080J0D01*
G01*
X1142320D02*
G03*
X1142320Y711210I-5080J0D01*
G01*
X1167720D02*
G03*
X1167720Y711210I-5080J0D01*
G01*
X1193120D02*
G03*
X1193120Y711210I-5080J0D01*
G01*
X1332370Y775510D02*
G03*
X1332370Y775510I-5080J0D01*
G01*
Y750110D02*
G03*
X1332370Y750110I-5080J0D01*
G01*
Y724710D02*
G03*
X1332370Y724710I-5080J0D01*
G01*
Y699310D02*
G03*
X1332370Y699310I-5080J0D01*
G01*
Y673910D02*
G03*
X1332370Y673910I-5080J0D01*
G01*
Y648510D02*
G03*
X1332370Y648510I-5080J0D01*
G01*
Y623110D02*
G03*
X1332370Y623110I-5080J0D01*
G01*
Y597710D02*
G03*
X1332370Y597710I-5080J0D01*
G01*
Y572310D02*
G03*
X1332370Y572310I-5080J0D01*
G01*
Y546910D02*
G03*
X1332370Y546910I-5080J0D01*
G01*
Y521510D02*
G03*
X1332370Y521510I-5080J0D01*
G01*
Y496110D02*
G03*
X1332370Y496110I-5080J0D01*
G01*
Y470710D02*
G03*
X1332370Y470710I-5080J0D01*
G01*
Y419910D02*
G03*
X1332370Y419910I-5080J0D01*
G01*
Y445310D02*
G03*
X1332370Y445310I-5080J0D01*
G01*
X1078370Y496110D02*
G03*
X1078370Y496110I-5080J0D01*
G01*
Y775510D02*
G03*
X1078370Y775510I-5080J0D01*
G01*
Y750110D02*
G03*
X1078370Y750110I-5080J0D01*
G01*
Y724710D02*
G03*
X1078370Y724710I-5080J0D01*
G01*
Y699310D02*
G03*
X1078370Y699310I-5080J0D01*
G01*
Y673910D02*
G03*
X1078370Y673910I-5080J0D01*
G01*
Y648510D02*
G03*
X1078370Y648510I-5080J0D01*
G01*
Y623110D02*
G03*
X1078370Y623110I-5080J0D01*
G01*
Y597710D02*
G03*
X1078370Y597710I-5080J0D01*
G01*
Y572310D02*
G03*
X1078370Y572310I-5080J0D01*
G01*
Y546910D02*
G03*
X1078370Y546910I-5080J0D01*
G01*
Y521510D02*
G03*
X1078370Y521510I-5080J0D01*
G01*
Y470710D02*
G03*
X1078370Y470710I-5080J0D01*
G01*
Y445310D02*
G03*
X1078370Y445310I-5080J0D01*
G01*
Y419910D02*
G03*
X1078370Y419910I-5080J0D01*
G01*
X798530Y1303280D02*
G03*
X798530Y1303280I-5080J0D01*
G01*
X823930D02*
G03*
X823930Y1303280I-5080J0D01*
G01*
X658130Y1109080D02*
G03*
X658130Y1109080I-5080J0D01*
G01*
X683530D02*
G03*
X683530Y1109080I-5080J0D01*
G01*
X708930D02*
G03*
X708930Y1109080I-5080J0D01*
G01*
X734330D02*
G03*
X734330Y1109080I-5080J0D01*
G01*
X658130Y1262480D02*
G03*
X658130Y1262480I-5080J0D01*
G01*
X683530D02*
G03*
X683530Y1262480I-5080J0D01*
G01*
X708930D02*
G03*
X708930Y1262480I-5080J0D01*
G01*
X734330D02*
G03*
X734330Y1262480I-5080J0D01*
G01*
X873580Y1326780D02*
G03*
X873580Y1326780I-5080J0D01*
G01*
Y1301380D02*
G03*
X873580Y1301380I-5080J0D01*
G01*
Y1275980D02*
G03*
X873580Y1275980I-5080J0D01*
G01*
Y1250580D02*
G03*
X873580Y1250580I-5080J0D01*
G01*
Y1225180D02*
G03*
X873580Y1225180I-5080J0D01*
G01*
Y1199780D02*
G03*
X873580Y1199780I-5080J0D01*
G01*
Y1174380D02*
G03*
X873580Y1174380I-5080J0D01*
G01*
Y1148980D02*
G03*
X873580Y1148980I-5080J0D01*
G01*
Y1123580D02*
G03*
X873580Y1123580I-5080J0D01*
G01*
Y1098180D02*
G03*
X873580Y1098180I-5080J0D01*
G01*
Y1072780D02*
G03*
X873580Y1072780I-5080J0D01*
G01*
Y1047380D02*
G03*
X873580Y1047380I-5080J0D01*
G01*
Y1021980D02*
G03*
X873580Y1021980I-5080J0D01*
G01*
Y971180D02*
G03*
X873580Y971180I-5080J0D01*
G01*
Y996580D02*
G03*
X873580Y996580I-5080J0D01*
G01*
X619580Y1047380D02*
G03*
X619580Y1047380I-5080J0D01*
G01*
Y1326780D02*
G03*
X619580Y1326780I-5080J0D01*
G01*
Y1301380D02*
G03*
X619580Y1301380I-5080J0D01*
G01*
Y1275980D02*
G03*
X619580Y1275980I-5080J0D01*
G01*
Y1250580D02*
G03*
X619580Y1250580I-5080J0D01*
G01*
Y1225180D02*
G03*
X619580Y1225180I-5080J0D01*
G01*
Y1199780D02*
G03*
X619580Y1199780I-5080J0D01*
G01*
Y1174380D02*
G03*
X619580Y1174380I-5080J0D01*
G01*
Y1148980D02*
G03*
X619580Y1148980I-5080J0D01*
G01*
Y1123580D02*
G03*
X619580Y1123580I-5080J0D01*
G01*
Y1098180D02*
G03*
X619580Y1098180I-5080J0D01*
G01*
Y1072780D02*
G03*
X619580Y1072780I-5080J0D01*
G01*
Y1021980D02*
G03*
X619580Y1021980I-5080J0D01*
G01*
Y996580D02*
G03*
X619580Y996580I-5080J0D01*
G01*
Y971180D02*
G03*
X619580Y971180I-5080J0D01*
G01*
X1257320Y1303280D02*
G03*
X1257320Y1303280I-5080J0D01*
G01*
X1282720D02*
G03*
X1282720Y1303280I-5080J0D01*
G01*
X1116920Y1109080D02*
G03*
X1116920Y1109080I-5080J0D01*
G01*
X1142320D02*
G03*
X1142320Y1109080I-5080J0D01*
G01*
X1167720D02*
G03*
X1167720Y1109080I-5080J0D01*
G01*
X1193120D02*
G03*
X1193120Y1109080I-5080J0D01*
G01*
X1116920Y1262480D02*
G03*
X1116920Y1262480I-5080J0D01*
G01*
X1142320D02*
G03*
X1142320Y1262480I-5080J0D01*
G01*
X1167720D02*
G03*
X1167720Y1262480I-5080J0D01*
G01*
X1193120D02*
G03*
X1193120Y1262480I-5080J0D01*
G01*
X1332370Y1326780D02*
G03*
X1332370Y1326780I-5080J0D01*
G01*
Y1301380D02*
G03*
X1332370Y1301380I-5080J0D01*
G01*
Y1275980D02*
G03*
X1332370Y1275980I-5080J0D01*
G01*
Y1250580D02*
G03*
X1332370Y1250580I-5080J0D01*
G01*
Y1225180D02*
G03*
X1332370Y1225180I-5080J0D01*
G01*
Y1199780D02*
G03*
X1332370Y1199780I-5080J0D01*
G01*
Y1174380D02*
G03*
X1332370Y1174380I-5080J0D01*
G01*
Y1148980D02*
G03*
X1332370Y1148980I-5080J0D01*
G01*
Y1123580D02*
G03*
X1332370Y1123580I-5080J0D01*
G01*
Y1098180D02*
G03*
X1332370Y1098180I-5080J0D01*
G01*
Y1072780D02*
G03*
X1332370Y1072780I-5080J0D01*
G01*
Y1047380D02*
G03*
X1332370Y1047380I-5080J0D01*
G01*
Y1021980D02*
G03*
X1332370Y1021980I-5080J0D01*
G01*
Y971180D02*
G03*
X1332370Y971180I-5080J0D01*
G01*
Y996580D02*
G03*
X1332370Y996580I-5080J0D01*
G01*
X1078370Y1047380D02*
G03*
X1078370Y1047380I-5080J0D01*
G01*
Y1326780D02*
G03*
X1078370Y1326780I-5080J0D01*
G01*
Y1301380D02*
G03*
X1078370Y1301380I-5080J0D01*
G01*
Y1275980D02*
G03*
X1078370Y1275980I-5080J0D01*
G01*
Y1250580D02*
G03*
X1078370Y1250580I-5080J0D01*
G01*
Y1225180D02*
G03*
X1078370Y1225180I-5080J0D01*
G01*
Y1199780D02*
G03*
X1078370Y1199780I-5080J0D01*
G01*
Y1174380D02*
G03*
X1078370Y1174380I-5080J0D01*
G01*
Y1148980D02*
G03*
X1078370Y1148980I-5080J0D01*
G01*
Y1123580D02*
G03*
X1078370Y1123580I-5080J0D01*
G01*
Y1098180D02*
G03*
X1078370Y1098180I-5080J0D01*
G01*
Y1072780D02*
G03*
X1078370Y1072780I-5080J0D01*
G01*
Y1021980D02*
G03*
X1078370Y1021980I-5080J0D01*
G01*
Y996580D02*
G03*
X1078370Y996580I-5080J0D01*
G01*
Y971180D02*
G03*
X1078370Y971180I-5080J0D01*
G01*
M02*
