M48
;Layer_Color=9474304
;FILE_FORMAT=4:4
METRIC,LZ
;TYPE=PLATED
T01F00S00C0.7112
T02F00S00C0.8000
T03F00S00C0.8500
T04F00S00C0.9000
T05F00S00C1.1600
T06F00S00C1.6500
%
T01
X0081375Y0030096
X009095Y0033621
X0127254Y0030096
X0136829Y0033621
X01367416Y0052929
X0128929Y0055571
X0126429Y0059671
X0103454Y0062921
X00908626Y0052929
X008305Y0055571
X008055Y0059671
X0057575Y0062921
Y0118048
X008055Y0114798
X008305Y0110698
X00908626Y0108056
X009095Y0088748
X0081375Y0085223
X0103454Y0118048
X0126429Y0114798
X0128929Y0110698
X01367416Y0108056
X0136829Y0088748
X0127254Y0085223
T02
X0070575Y0031371
Y0036296
X0075575
Y0031371
X0116454
Y0036296
X0121454
Y0031371
X0075575Y0086498
Y0091423
X0070575
Y0086498
X0116454
Y0091423
X0121454
Y0086498
T03
X0101304Y0065796
Y0074796
X0055425
Y0065796
X0101304Y0120923
Y0129923
X0055425
Y0120923
T04
X0121079Y0052821
Y0058521
X0126489Y0063871
X0129029
X0137429Y0064851
Y0062311
Y0059771
Y0067391
Y0069931
Y0072471
Y0075011
Y0077551
X0129029Y0047615
X0126489
X0118804Y0052821
Y0058521
X0113394Y0064027
X0110854
Y0047771
X0113394
X008315Y0047615
X008061
Y0063871
X008315
X009155Y0064851
Y0062311
Y0059771
Y0067391
Y0069931
Y0072471
Y0075011
Y0077551
X0101054Y0078751
X0055175
X0064975Y0064027
X0067515
X0072925Y0058521
X00752
Y0052821
X0072925
X0067515Y0047771
X0064975
X0055175Y00812911
X0064975Y0102898
X0067515
X0072925Y0107948
X00752
Y0113648
X0072925
X008061Y0118998
X008315
X009155Y0117438
Y0114898
X008315Y0102742
X008061
X0110854Y0102898
X0113394
X0118804Y0107948
Y0113648
X0101054Y00812911
X0121079Y0107948
Y0113648
X0126489Y0118998
X0129029
X0137429Y0117438
Y0114898
X0129029Y0102742
X0126489
X0137429Y0119978
Y0122518
Y0125058
Y0127598
Y0130138
Y0132678
X0113394Y0119154
X0110854
X009155Y0119978
Y0122518
Y0125058
Y0127598
Y0130138
Y0132678
X0101054Y0133878
Y01364181
X0055175
Y0133878
X0064975Y0119154
X0067515
T05
X0132729Y0041991
Y0044531
Y0047071
Y0049611
Y0052151
Y0054691
Y0057231
Y0059771
Y0062311
Y0064851
Y0067391
Y0069931
Y0072471
Y0075011
Y0077551
X0127764Y0075201
X0125224
X0118804Y0071121
X0116264
X0113724
X0111184
X0107329Y0069931
Y0072471
Y0075011
Y0077551
Y0067391
Y0064851
Y0062311
Y0059771
Y0057231
Y0054691
Y0052151
Y0049611
Y0047071
Y0044531
Y0041991
X0111184Y0055781
X0113724
X0116264
X0118804
X008685Y0054691
Y0057231
Y0059771
Y0062311
Y0064851
Y0067391
Y0069931
Y0072471
Y0075011
Y0077551
X0081885Y0075201
X008685Y0052151
Y0049611
Y0047071
Y0044531
Y0041991
X006145
Y0044531
Y0047071
Y0049611
Y0052151
Y0054691
Y0057231
Y0059771
Y0062311
Y0064851
Y0067391
Y0069931
Y0072471
Y0075011
Y0077551
X0065305Y0071121
X0067845
X0070385
X0072925
X0079345Y0075201
X0072925Y0055781
X0070385
X0067845
X0065305
X006145Y0097118
Y0099658
Y0102198
Y0104738
Y0107278
Y0109818
Y0112358
Y0114898
Y0117438
X0065305Y0110908
X0067845
X0070385
X0072925
X008685Y0109818
Y0112358
Y0114898
Y0117438
Y0107278
Y0104738
Y0102198
Y0099658
Y0097118
X0107329
Y0099658
Y0102198
Y0104738
Y0107278
Y0109818
Y0112358
Y0114898
Y0117438
X0111184Y0110908
X0113724
X0116264
X0118804
X0132729Y0109818
Y0112358
Y0114898
Y0117438
Y0107278
Y0104738
Y0102198
Y0099658
Y0097118
Y0119978
Y0122518
Y0125058
Y0127598
Y0130138
Y0132678
X0127764Y0130328
X0125224
X0118804Y0126248
X0116264
X0113724
X0111184
X0107329Y0125058
Y0127598
Y0130138
Y0132678
Y0122518
Y0119978
X008685
Y0122518
Y0125058
Y0127598
Y0130138
Y0132678
X0081885Y0130328
X0079345
X0072925Y0126248
X0070385
X0067845
X0065305
X006145Y0125058
Y0127598
Y0130138
Y0132678
Y0122518
Y0119978
T06
X0100754Y0042786
Y0046746
Y0050706
X0100604Y0055411
Y0059371
X0054725
Y0055411
X0054875Y0050706
Y0046746
Y0042786
Y0097913
Y0101873
Y0105833
X0054725Y0110538
Y0114498
X0100604
Y0110538
X0100754Y0105833
Y0101873
Y0097913
M30
