G04*
G04 #@! TF.GenerationSoftware,Altium Limited,Altium Designer,25.0.2 (28)*
G04*
G04 Layer_Color=2752767*
%FSLAX44Y44*%
%MOMM*%
G71*
G04*
G04 #@! TF.SameCoordinates,4711C13A-52D9-45D7-B3A0-D515BE669C82*
G04*
G04*
G04 #@! TF.FilePolarity,Positive*
G04*
G01*
G75*
%ADD67C,0.1270*%
D67*
X1158500Y1325720D02*
X1153420Y1335880D01*
X1163580D01*
X1158500Y1325720D01*
Y1300320D02*
X1153420Y1310480D01*
X1163580D01*
X1158500Y1300320D01*
Y1274920D02*
X1153420Y1285080D01*
X1163580D01*
X1158500Y1274920D01*
Y1249520D02*
X1153420Y1259680D01*
X1163580D01*
X1158500Y1249520D01*
Y1224120D02*
X1153420Y1234280D01*
X1163580D01*
X1158500Y1224120D01*
Y1198720D02*
X1153420Y1208880D01*
X1163580D01*
X1158500Y1198720D01*
Y1173320D02*
X1153420Y1183480D01*
X1163580D01*
X1158500Y1173320D01*
Y1147920D02*
X1153420Y1158080D01*
X1163580D01*
X1158500Y1147920D01*
Y1122520D02*
X1153420Y1132680D01*
X1163580D01*
X1158500Y1122520D01*
Y1097120D02*
X1153420Y1107280D01*
X1163580D01*
X1158500Y1097120D01*
Y1071720D02*
X1153420Y1081880D01*
X1163580D01*
X1158500Y1071720D01*
Y1046320D02*
X1153420Y1056480D01*
X1163580D01*
X1158500Y1046320D01*
Y1020920D02*
X1153420Y1031080D01*
X1163580D01*
X1158500Y1020920D01*
Y970120D02*
X1153420Y980280D01*
X1163580D01*
X1158500Y970120D01*
Y995520D02*
X1153420Y1005680D01*
X1163580D01*
X1158500Y995520D01*
X904500Y1046320D02*
X899420Y1056480D01*
X909580D01*
X904500Y1046320D01*
Y1325720D02*
X899420Y1335880D01*
X909580D01*
X904500Y1325720D01*
Y1300320D02*
X899420Y1310480D01*
X909580D01*
X904500Y1300320D01*
Y1274920D02*
X899420Y1285080D01*
X909580D01*
X904500Y1274920D01*
Y1249520D02*
X899420Y1259680D01*
X909580D01*
X904500Y1249520D01*
Y1224120D02*
X899420Y1234280D01*
X909580D01*
X904500Y1224120D01*
Y1198720D02*
X899420Y1208880D01*
X909580D01*
X904500Y1198720D01*
Y1173320D02*
X899420Y1183480D01*
X909580D01*
X904500Y1173320D01*
Y1147920D02*
X899420Y1158080D01*
X909580D01*
X904500Y1147920D01*
Y1122520D02*
X899420Y1132680D01*
X909580D01*
X904500Y1122520D01*
Y1097120D02*
X899420Y1107280D01*
X909580D01*
X904500Y1097120D01*
Y1071720D02*
X899420Y1081880D01*
X909580D01*
X904500Y1071720D01*
Y1020920D02*
X899420Y1031080D01*
X909580D01*
X904500Y1020920D01*
Y995520D02*
X899420Y1005680D01*
X909580D01*
X904500Y995520D01*
Y970120D02*
X899420Y980280D01*
X909580D01*
X904500Y970120D01*
X833670Y1057270D02*
X836210Y1062350D01*
X833670Y1067430D01*
X838750Y1064890D01*
X843830Y1067430D01*
X841290Y1062350D01*
X843830Y1057270D01*
X838750Y1059810D01*
X833670Y1057270D01*
Y1017670D02*
X836210Y1022750D01*
X833670Y1027830D01*
X838750Y1025290D01*
X843830Y1027830D01*
X841290Y1022750D01*
X843830Y1017670D01*
X838750Y1020210D01*
X833670Y1017670D01*
Y978070D02*
X836210Y983150D01*
X833670Y988230D01*
X838750Y985690D01*
X843830Y988230D01*
X841290Y983150D01*
X843830Y978070D01*
X838750Y980610D01*
X833670Y978070D01*
X1200270Y983250D02*
X1205350Y988330D01*
X1210430Y983250D01*
X1205350Y978170D01*
X1200270Y983250D01*
Y957850D02*
X1205350Y962930D01*
X1210430Y957850D01*
X1205350Y952770D01*
X1200270Y957850D01*
Y932450D02*
X1205350Y937530D01*
X1210430Y932450D01*
X1205350Y927370D01*
X1200270Y932450D01*
Y907050D02*
X1205350Y912130D01*
X1210430Y907050D01*
X1205350Y901970D01*
X1200270Y907050D01*
Y881650D02*
X1205350Y886730D01*
X1210430Y881650D01*
X1205350Y876570D01*
X1200270Y881650D01*
Y856250D02*
X1205350Y861330D01*
X1210430Y856250D01*
X1205350Y851170D01*
X1200270Y856250D01*
X1098670Y957850D02*
X1103750Y962930D01*
X1108830Y957850D01*
X1103750Y952770D01*
X1098670Y957850D01*
Y881650D02*
X1103750Y886730D01*
X1108830Y881650D01*
X1103750Y876570D01*
X1098670Y881650D01*
Y983250D02*
X1103750Y988330D01*
X1108830Y983250D01*
X1103750Y978170D01*
X1098670Y983250D01*
Y932450D02*
X1103750Y937530D01*
X1108830Y932450D01*
X1103750Y927370D01*
X1098670Y932450D01*
Y907050D02*
X1103750Y912130D01*
X1108830Y907050D01*
X1103750Y901970D01*
X1098670Y907050D01*
Y856250D02*
X1103750Y861330D01*
X1108830Y856250D01*
X1103750Y851170D01*
X1098670Y856250D01*
X943050Y1108020D02*
X937970Y1118180D01*
X948130D01*
X943050Y1108020D01*
X968450D02*
X963370Y1118180D01*
X973530D01*
X968450Y1108020D01*
X993850D02*
X988770Y1118180D01*
X998930D01*
X993850Y1108020D01*
X1019250D02*
X1014170Y1118180D01*
X1024330D01*
X1019250Y1108020D01*
X943050Y1261420D02*
X937970Y1271580D01*
X948130D01*
X943050Y1261420D01*
X968450D02*
X963370Y1271580D01*
X973530D01*
X968450Y1261420D01*
X993850D02*
X988770Y1271580D01*
X998930D01*
X993850Y1261420D01*
X1019250D02*
X1014170Y1271580D01*
X1024330D01*
X1019250Y1261420D01*
X990670Y913170D02*
X993210D01*
X995750Y915710D01*
X998290Y913170D01*
X1000830D01*
Y915710D01*
X998290Y918250D01*
X1000830Y920790D01*
Y923330D01*
X998290D01*
X995750Y920790D01*
X993210Y923330D01*
X990670D01*
Y920790D01*
X993210Y918250D01*
X990670Y915710D01*
Y913170D01*
X1040670D02*
X1043210D01*
X1045750Y915710D01*
X1048290Y913170D01*
X1050830D01*
Y915710D01*
X1048290Y918250D01*
X1050830Y920790D01*
Y923330D01*
X1048290D01*
X1045750Y920790D01*
X1043210Y923330D01*
X1040670D01*
Y920790D01*
X1043210Y918250D01*
X1040670Y915710D01*
Y913170D01*
X990670Y863920D02*
X993210D01*
X995750Y866460D01*
X998290Y863920D01*
X1000830D01*
Y866460D01*
X998290Y869000D01*
X1000830Y871540D01*
Y874080D01*
X998290D01*
X995750Y871540D01*
X993210Y874080D01*
X990670D01*
Y871540D01*
X993210Y869000D01*
X990670Y866460D01*
Y863920D01*
X1040670D02*
X1043210D01*
X1045750Y866460D01*
X1048290Y863920D01*
X1050830D01*
Y866460D01*
X1048290Y869000D01*
X1050830Y871540D01*
Y874080D01*
X1048290D01*
X1045750Y871540D01*
X1043210Y874080D01*
X1040670D01*
Y871540D01*
X1043210Y869000D01*
X1040670Y866460D01*
Y863920D01*
X1206000Y1147970D02*
X1208540Y1150510D01*
X1211080D01*
X1208540Y1153050D01*
X1211080Y1155590D01*
X1208540D01*
X1206000Y1158130D01*
X1203460Y1155590D01*
X1200920D01*
X1203460Y1153050D01*
X1200920Y1150510D01*
X1203460D01*
X1206000Y1147970D01*
Y1173370D02*
X1208540Y1175910D01*
X1211080D01*
X1208540Y1178450D01*
X1211080Y1180990D01*
X1208540D01*
X1206000Y1183530D01*
X1203460Y1180990D01*
X1200920D01*
X1203460Y1178450D01*
X1200920Y1175910D01*
X1203460D01*
X1206000Y1173370D01*
Y1198770D02*
X1208540Y1201310D01*
X1211080D01*
X1208540Y1203850D01*
X1211080Y1206390D01*
X1208540D01*
X1206000Y1208930D01*
X1203460Y1206390D01*
X1200920D01*
X1203460Y1203850D01*
X1200920Y1201310D01*
X1203460D01*
X1206000Y1198770D01*
Y1224170D02*
X1208540Y1226710D01*
X1211080D01*
X1208540Y1229250D01*
X1211080Y1231790D01*
X1208540D01*
X1206000Y1234330D01*
X1203460Y1231790D01*
X1200920D01*
X1203460Y1229250D01*
X1200920Y1226710D01*
X1203460D01*
X1206000Y1224170D01*
Y1249570D02*
X1208540Y1252110D01*
X1211080D01*
X1208540Y1254650D01*
X1211080Y1257190D01*
X1208540D01*
X1206000Y1259730D01*
X1203460Y1257190D01*
X1200920D01*
X1203460Y1254650D01*
X1200920Y1252110D01*
X1203460D01*
X1206000Y1249570D01*
Y1274970D02*
X1208540Y1277510D01*
X1211080D01*
X1208540Y1280050D01*
X1211080Y1282590D01*
X1208540D01*
X1206000Y1285130D01*
X1203460Y1282590D01*
X1200920D01*
X1203460Y1280050D01*
X1200920Y1277510D01*
X1203460D01*
X1206000Y1274970D01*
Y1300370D02*
X1208540Y1302910D01*
X1211080D01*
X1208540Y1305450D01*
X1211080Y1307990D01*
X1208540D01*
X1206000Y1310530D01*
X1203460Y1307990D01*
X1200920D01*
X1203460Y1305450D01*
X1200920Y1302910D01*
X1203460D01*
X1206000Y1300370D01*
Y1325770D02*
X1208540Y1328310D01*
X1211080D01*
X1208540Y1330850D01*
X1211080Y1333390D01*
X1208540D01*
X1206000Y1335930D01*
X1203460Y1333390D01*
X1200920D01*
X1203460Y1330850D01*
X1200920Y1328310D01*
X1203460D01*
X1206000Y1325770D01*
X832170Y1143920D02*
X834710Y1149000D01*
X832170Y1154080D01*
X837250Y1151540D01*
X842330Y1154080D01*
X839790Y1149000D01*
X842330Y1143920D01*
X837250Y1146460D01*
X832170Y1143920D01*
Y1104320D02*
X834710Y1109400D01*
X832170Y1114480D01*
X837250Y1111940D01*
X842330Y1114480D01*
X839790Y1109400D01*
X842330Y1104320D01*
X837250Y1106860D01*
X832170Y1104320D01*
X841750Y1363121D02*
X844290Y1365661D01*
X846830D01*
X844290Y1368201D01*
X846830Y1370741D01*
X844290D01*
X841750Y1373281D01*
X839210Y1370741D01*
X836670D01*
X839210Y1368201D01*
X836670Y1365661D01*
X839210D01*
X841750Y1363121D01*
Y1337720D02*
X844290Y1340260D01*
X846830D01*
X844290Y1342800D01*
X846830Y1345340D01*
X844290D01*
X841750Y1347880D01*
X839210Y1345340D01*
X836670D01*
X839210Y1342800D01*
X836670Y1340260D01*
X839210D01*
X841750Y1337720D01*
X841710Y1210710D02*
Y1208170D01*
X846790D01*
Y1210710D01*
X849330D01*
Y1215790D01*
X846790D01*
Y1218330D01*
X841710D01*
Y1215790D01*
X839170D01*
Y1210710D01*
X841710D01*
Y1300710D02*
Y1298170D01*
X846790D01*
Y1300710D01*
X849330D01*
Y1305790D01*
X846790D01*
Y1308330D01*
X841710D01*
Y1305790D01*
X839170D01*
Y1300710D01*
X841710D01*
X1082920Y1268670D02*
Y1278830D01*
X1093080D01*
Y1268670D01*
X1082920D01*
X1090420Y1146920D02*
Y1157080D01*
X1100580D01*
Y1146920D01*
X1090420D01*
X1200270Y1029342D02*
Y1039502D01*
X1210430D01*
Y1029342D01*
X1200270D01*
X1193546Y1079500D02*
Y1089660D01*
X1203706D01*
Y1079500D01*
X1193546D01*
M02*
