G04*
G04 #@! TF.GenerationSoftware,Altium Limited,Altium Designer,25.0.2 (28)*
G04*
G04 Layer_Color=32768*
%FSLAX44Y44*%
%MOMM*%
G71*
G04*
G04 #@! TF.SameCoordinates,4711C13A-52D9-45D7-B3A0-D515BE669C82*
G04*
G04*
G04 #@! TF.FilePolarity,Positive*
G04*
G01*
G75*
%ADD65C,0.1000*%
%ADD66C,0.0500*%
D65*
X846250Y1022750D02*
X856250D01*
X851250Y1017750D02*
Y1027750D01*
X846250Y1129200D02*
X856250D01*
X851250Y1124200D02*
Y1134200D01*
X836750Y1355500D02*
X846750D01*
X841750Y1350500D02*
Y1360500D01*
X844250Y1253250D02*
Y1263250D01*
X839250Y1258250D02*
X849250D01*
X891000Y889750D02*
Y899750D01*
X886000Y894750D02*
X896000D01*
D66*
X798750Y1082850D02*
X885750D01*
Y962650D02*
Y1082850D01*
X798750Y962650D02*
X885750D01*
X798750D02*
Y1082850D01*
X816250Y1169500D02*
X886250D01*
X816250Y1157000D02*
Y1169500D01*
X799250Y1157000D02*
X816250D01*
X886250Y1088900D02*
Y1169500D01*
X816250Y1088900D02*
X886250D01*
X816250D02*
Y1101400D01*
X799250D02*
X816250D01*
X799250D02*
Y1157000D01*
X821760Y1376200D02*
X861740D01*
Y1334800D02*
Y1376200D01*
X821760Y1334800D02*
Y1376200D01*
Y1334800D02*
X861740D01*
X831250Y1311000D02*
X857250D01*
X831250Y1205500D02*
Y1311000D01*
X857250Y1205500D02*
Y1311000D01*
X831250Y1205500D02*
X857250D01*
X810000Y947750D02*
X972000D01*
X810000Y841750D02*
X972000D01*
X810000D02*
Y947750D01*
X972000Y841750D02*
Y947750D01*
M02*
