G04*
G04 #@! TF.GenerationSoftware,Altium Limited,Altium Designer,24.0.1 (36)*
G04*
G04 Layer_Color=128*
%FSLAX44Y44*%
%MOMM*%
G71*
G04*
G04 #@! TF.SameCoordinates,EC9DE058-D042-415E-AAD2-1871FE4B3311*
G04*
G04*
G04 #@! TF.FilePolarity,Positive*
G04*
G01*
G75*
%ADD11C,0.1270*%
D11*
X405950Y700500D02*
X417550D01*
X411750Y694700D02*
Y706300D01*
X405950Y674600D02*
X417550D01*
X411750Y668800D02*
Y680400D01*
X405950Y648700D02*
X417550D01*
X411750Y642900D02*
Y654500D01*
X405950Y622800D02*
X417550D01*
X411750Y617000D02*
Y628600D01*
X405950Y596900D02*
X417550D01*
X411750Y591100D02*
Y602700D01*
X405950Y571000D02*
X417550D01*
X411750Y565200D02*
Y576800D01*
X405950Y545100D02*
X417550D01*
X411750Y539300D02*
Y550900D01*
X405950Y519200D02*
X417550D01*
X411750Y513400D02*
Y525000D01*
X405950Y493300D02*
X417550D01*
X411750Y487500D02*
Y499100D01*
X405950Y467400D02*
X417550D01*
X411750Y461600D02*
Y473200D01*
X405950Y441500D02*
X417550D01*
X411750Y435700D02*
Y447300D01*
X405950Y415600D02*
X417550D01*
X411750Y409800D02*
Y421400D01*
X405950Y389700D02*
X417550D01*
X411750Y383900D02*
Y395500D01*
X405950Y337900D02*
X417550D01*
X411750Y332100D02*
Y343700D01*
X405950Y363800D02*
X417550D01*
X411750Y358000D02*
Y369600D01*
X670950Y363800D02*
X682550D01*
X676750Y358000D02*
Y369600D01*
X670950Y337900D02*
X682550D01*
X676750Y332100D02*
Y343700D01*
X670950Y389700D02*
X682550D01*
X676750Y383900D02*
Y395500D01*
X670950Y415600D02*
X682550D01*
X676750Y409800D02*
Y421400D01*
X670950Y441500D02*
X682550D01*
X676750Y435700D02*
Y447300D01*
X670950Y467400D02*
X682550D01*
X676750Y461600D02*
Y473200D01*
X670950Y493300D02*
X682550D01*
X676750Y487500D02*
Y499100D01*
X670950Y519200D02*
X682550D01*
X676750Y513400D02*
Y525000D01*
X670950Y545100D02*
X682550D01*
X676750Y539300D02*
Y550900D01*
X670950Y571000D02*
X682550D01*
X676750Y565200D02*
Y576800D01*
X670950Y596900D02*
X682550D01*
X676750Y591100D02*
Y602700D01*
X670950Y622800D02*
X682550D01*
X676750Y617000D02*
Y628600D01*
X670950Y648700D02*
X682550D01*
X676750Y642900D02*
Y654500D01*
X670950Y674600D02*
X682550D01*
X676750Y668800D02*
Y680400D01*
X670950Y700500D02*
X682550D01*
X676750Y694700D02*
Y706300D01*
X626150Y604900D02*
X637750D01*
X631950Y599100D02*
Y610700D01*
X600750Y604900D02*
X612350D01*
X606550Y599100D02*
Y610700D01*
X575350Y604900D02*
X586950D01*
X581150Y599100D02*
Y610700D01*
X549950Y604900D02*
X561550D01*
X555750Y599100D02*
Y610700D01*
X626150Y451500D02*
X637750D01*
X631950Y445700D02*
Y457300D01*
X600750Y451500D02*
X612350D01*
X606550Y445700D02*
Y457300D01*
X575350Y451500D02*
X586950D01*
X581150Y445700D02*
Y457300D01*
X549950Y451500D02*
X561550D01*
X555750Y445700D02*
Y457300D01*
X525250Y293000D02*
X532250D01*
X528750Y289500D02*
Y296500D01*
X525250Y262000D02*
X532250D01*
X528750Y258500D02*
Y265500D01*
X526750Y210132D02*
X533750D01*
X530250Y206632D02*
Y213632D01*
X526750Y241132D02*
X533750D01*
X530250Y237632D02*
Y244632D01*
X339200Y467800D02*
X350800D01*
X345000Y462000D02*
Y473600D01*
X339200Y493200D02*
X350800D01*
X345000Y487400D02*
Y499000D01*
X372150Y697000D02*
X382150D01*
X377150Y692000D02*
Y702000D01*
X346750Y697000D02*
X356750D01*
X351750Y692000D02*
Y702000D01*
X343750Y568750D02*
X352250D01*
X348000Y564500D02*
Y573000D01*
X343750Y658750D02*
X352250D01*
X348000Y654500D02*
Y663000D01*
X726500Y527800D02*
X735500D01*
X731000Y523300D02*
Y532300D01*
X726500Y553200D02*
X735500D01*
X731000Y548700D02*
Y557700D01*
X726500Y578600D02*
X735500D01*
X731000Y574100D02*
Y583100D01*
X726500Y604000D02*
X735500D01*
X731000Y599500D02*
Y608500D01*
X726500Y629400D02*
X735500D01*
X731000Y624900D02*
Y633900D01*
X726500Y654800D02*
X735500D01*
X731000Y650300D02*
Y659300D01*
X726500Y680200D02*
X735500D01*
X731000Y675700D02*
Y684700D01*
X726500Y705600D02*
X735500D01*
X731000Y701100D02*
Y710100D01*
X608340Y301250D02*
X615960D01*
X612150Y297440D02*
Y305060D01*
X633740Y301250D02*
X641360D01*
X637550Y297440D02*
Y305060D01*
X659140Y301250D02*
X666760D01*
X662950Y297440D02*
Y305060D01*
X684540Y301250D02*
X692160D01*
X688350Y297440D02*
Y305060D01*
X709940Y301250D02*
X717560D01*
X713750Y297440D02*
Y305060D01*
X735340Y301250D02*
X742960D01*
X739150Y297440D02*
Y305060D01*
X608590Y199250D02*
X616210D01*
X612400Y195440D02*
Y203060D01*
X633990Y199250D02*
X641610D01*
X637800Y195440D02*
Y203060D01*
X659390Y199250D02*
X667010D01*
X663200Y195440D02*
Y203060D01*
X684790Y199250D02*
X692410D01*
X688600Y195440D02*
Y203060D01*
X710190Y199250D02*
X717810D01*
X714000Y195440D02*
Y203060D01*
X735590Y199250D02*
X743210D01*
X739400Y195440D02*
Y203060D01*
X579806Y349000D02*
X586918D01*
X583362Y345444D02*
Y352556D01*
X514604Y523748D02*
X521716D01*
X518160Y520192D02*
Y527304D01*
X603504Y413750D02*
X610616D01*
X607060Y410194D02*
Y417306D01*
X491490Y513842D02*
X498602D01*
X495046Y510286D02*
Y517398D01*
X478790Y451358D02*
X485902D01*
X482346Y447802D02*
Y454914D01*
X616458Y257556D02*
X623570D01*
X620014Y254000D02*
Y261112D01*
X651510Y257556D02*
X658622D01*
X655066Y254000D02*
Y261112D01*
X741426Y465836D02*
X748538D01*
X744982Y462280D02*
Y469392D01*
X663448Y274574D02*
X670560D01*
X667004Y271018D02*
Y278130D01*
X597662Y251460D02*
X604774D01*
X601218Y247904D02*
Y255016D01*
X341376Y416052D02*
X348488D01*
X344932Y412496D02*
Y419608D01*
X645922Y527558D02*
X653034D01*
X649478Y524002D02*
Y531114D01*
M02*
