G04*
G04 #@! TF.GenerationSoftware,Altium Limited,Altium Designer,24.0.1 (36)*
G04*
G04 Layer_Color=2752767*
%FSLAX44Y44*%
%MOMM*%
G71*
G04*
G04 #@! TF.SameCoordinates,EC9DE058-D042-415E-AAD2-1871FE4B3311*
G04*
G04*
G04 #@! TF.FilePolarity,Positive*
G04*
G01*
G75*
%ADD10C,0.1693*%
%ADD11C,0.1270*%
D10*
X416830Y700500D02*
G03*
X416830Y700500I-5080J0D01*
G01*
Y674600D02*
G03*
X416830Y674600I-5080J0D01*
G01*
Y648700D02*
G03*
X416830Y648700I-5080J0D01*
G01*
Y622800D02*
G03*
X416830Y622800I-5080J0D01*
G01*
Y596900D02*
G03*
X416830Y596900I-5080J0D01*
G01*
Y571000D02*
G03*
X416830Y571000I-5080J0D01*
G01*
Y545100D02*
G03*
X416830Y545100I-5080J0D01*
G01*
Y519200D02*
G03*
X416830Y519200I-5080J0D01*
G01*
Y493300D02*
G03*
X416830Y493300I-5080J0D01*
G01*
Y467400D02*
G03*
X416830Y467400I-5080J0D01*
G01*
Y441500D02*
G03*
X416830Y441500I-5080J0D01*
G01*
Y415600D02*
G03*
X416830Y415600I-5080J0D01*
G01*
Y389700D02*
G03*
X416830Y389700I-5080J0D01*
G01*
Y337900D02*
G03*
X416830Y337900I-5080J0D01*
G01*
Y363800D02*
G03*
X416830Y363800I-5080J0D01*
G01*
X681830D02*
G03*
X681830Y363800I-5080J0D01*
G01*
Y337900D02*
G03*
X681830Y337900I-5080J0D01*
G01*
Y389700D02*
G03*
X681830Y389700I-5080J0D01*
G01*
Y415600D02*
G03*
X681830Y415600I-5080J0D01*
G01*
Y441500D02*
G03*
X681830Y441500I-5080J0D01*
G01*
Y467400D02*
G03*
X681830Y467400I-5080J0D01*
G01*
Y493300D02*
G03*
X681830Y493300I-5080J0D01*
G01*
Y519200D02*
G03*
X681830Y519200I-5080J0D01*
G01*
Y545100D02*
G03*
X681830Y545100I-5080J0D01*
G01*
Y571000D02*
G03*
X681830Y571000I-5080J0D01*
G01*
Y596900D02*
G03*
X681830Y596900I-5080J0D01*
G01*
Y622800D02*
G03*
X681830Y622800I-5080J0D01*
G01*
Y648700D02*
G03*
X681830Y648700I-5080J0D01*
G01*
Y674600D02*
G03*
X681830Y674600I-5080J0D01*
G01*
Y700500D02*
G03*
X681830Y700500I-5080J0D01*
G01*
X637030Y604900D02*
G03*
X637030Y604900I-5080J0D01*
G01*
X611630D02*
G03*
X611630Y604900I-5080J0D01*
G01*
X586230D02*
G03*
X586230Y604900I-5080J0D01*
G01*
X560830D02*
G03*
X560830Y604900I-5080J0D01*
G01*
X637030Y451500D02*
G03*
X637030Y451500I-5080J0D01*
G01*
X611630D02*
G03*
X611630Y451500I-5080J0D01*
G01*
X586230D02*
G03*
X586230Y451500I-5080J0D01*
G01*
X560830D02*
G03*
X560830Y451500I-5080J0D01*
G01*
X350080Y467800D02*
G03*
X350080Y467800I-5080J0D01*
G01*
Y493200D02*
G03*
X350080Y493200I-5080J0D01*
G01*
D11*
X523670Y293000D02*
X528750Y298080D01*
X533830Y293000D01*
X528750Y287920D01*
X523670Y293000D01*
Y262000D02*
X528750Y267080D01*
X533830Y262000D01*
X528750Y256920D01*
X523670Y262000D01*
X525170Y210132D02*
X530250Y215212D01*
X535330Y210132D01*
X530250Y205052D01*
X525170Y210132D01*
Y241132D02*
X530250Y246212D01*
X535330Y241132D01*
X530250Y236052D01*
X525170Y241132D01*
X372070Y691920D02*
Y702080D01*
X382230D01*
Y691920D01*
X372070D01*
X346670D02*
Y702080D01*
X356830D01*
Y691920D01*
X346670D01*
X348000Y563670D02*
X342920Y573830D01*
X353080D01*
X348000Y563670D01*
Y653670D02*
X342920Y663830D01*
X353080D01*
X348000Y653670D01*
X731000Y522720D02*
X733540Y525260D01*
X736080D01*
X733540Y527800D01*
X736080Y530340D01*
X733540D01*
X731000Y532880D01*
X728460Y530340D01*
X725920D01*
X728460Y527800D01*
X725920Y525260D01*
X728460D01*
X731000Y522720D01*
Y548120D02*
X733540Y550660D01*
X736080D01*
X733540Y553200D01*
X736080Y555740D01*
X733540D01*
X731000Y558280D01*
X728460Y555740D01*
X725920D01*
X728460Y553200D01*
X725920Y550660D01*
X728460D01*
X731000Y548120D01*
Y573520D02*
X733540Y576060D01*
X736080D01*
X733540Y578600D01*
X736080Y581140D01*
X733540D01*
X731000Y583680D01*
X728460Y581140D01*
X725920D01*
X728460Y578600D01*
X725920Y576060D01*
X728460D01*
X731000Y573520D01*
Y598920D02*
X733540Y601460D01*
X736080D01*
X733540Y604000D01*
X736080Y606540D01*
X733540D01*
X731000Y609080D01*
X728460Y606540D01*
X725920D01*
X728460Y604000D01*
X725920Y601460D01*
X728460D01*
X731000Y598920D01*
Y624320D02*
X733540Y626860D01*
X736080D01*
X733540Y629400D01*
X736080Y631940D01*
X733540D01*
X731000Y634480D01*
X728460Y631940D01*
X725920D01*
X728460Y629400D01*
X725920Y626860D01*
X728460D01*
X731000Y624320D01*
Y649720D02*
X733540Y652260D01*
X736080D01*
X733540Y654800D01*
X736080Y657340D01*
X733540D01*
X731000Y659880D01*
X728460Y657340D01*
X725920D01*
X728460Y654800D01*
X725920Y652260D01*
X728460D01*
X731000Y649720D01*
Y675120D02*
X733540Y677660D01*
X736080D01*
X733540Y680200D01*
X736080Y682740D01*
X733540D01*
X731000Y685280D01*
X728460Y682740D01*
X725920D01*
X728460Y680200D01*
X725920Y677660D01*
X728460D01*
X731000Y675120D01*
Y700520D02*
X733540Y703060D01*
X736080D01*
X733540Y705600D01*
X736080Y708140D01*
X733540D01*
X731000Y710680D01*
X728460Y708140D01*
X725920D01*
X728460Y705600D01*
X725920Y703060D01*
X728460D01*
X731000Y700520D01*
X609610Y298710D02*
Y296170D01*
X614690D01*
Y298710D01*
X617230D01*
Y303790D01*
X614690D01*
Y306330D01*
X609610D01*
Y303790D01*
X607070D01*
Y298710D01*
X609610D01*
X635010D02*
Y296170D01*
X640090D01*
Y298710D01*
X642630D01*
Y303790D01*
X640090D01*
Y306330D01*
X635010D01*
Y303790D01*
X632470D01*
Y298710D01*
X635010D01*
X660410D02*
Y296170D01*
X665490D01*
Y298710D01*
X668030D01*
Y303790D01*
X665490D01*
Y306330D01*
X660410D01*
Y303790D01*
X657870D01*
Y298710D01*
X660410D01*
X685810D02*
Y296170D01*
X690890D01*
Y298710D01*
X693430D01*
Y303790D01*
X690890D01*
Y306330D01*
X685810D01*
Y303790D01*
X683270D01*
Y298710D01*
X685810D01*
X711210D02*
Y296170D01*
X716290D01*
Y298710D01*
X718830D01*
Y303790D01*
X716290D01*
Y306330D01*
X711210D01*
Y303790D01*
X708670D01*
Y298710D01*
X711210D01*
X736610D02*
Y296170D01*
X741690D01*
Y298710D01*
X744230D01*
Y303790D01*
X741690D01*
Y306330D01*
X736610D01*
Y303790D01*
X734070D01*
Y298710D01*
X736610D01*
X609860Y196710D02*
Y194170D01*
X614940D01*
Y196710D01*
X617480D01*
Y201790D01*
X614940D01*
Y204330D01*
X609860D01*
Y201790D01*
X607320D01*
Y196710D01*
X609860D01*
X635260D02*
Y194170D01*
X640340D01*
Y196710D01*
X642880D01*
Y201790D01*
X640340D01*
Y204330D01*
X635260D01*
Y201790D01*
X632720D01*
Y196710D01*
X635260D01*
X660660D02*
Y194170D01*
X665740D01*
Y196710D01*
X668280D01*
Y201790D01*
X665740D01*
Y204330D01*
X660660D01*
Y201790D01*
X658120D01*
Y196710D01*
X660660D01*
X686060D02*
Y194170D01*
X691140D01*
Y196710D01*
X693680D01*
Y201790D01*
X691140D01*
Y204330D01*
X686060D01*
Y201790D01*
X683520D01*
Y196710D01*
X686060D01*
X711460D02*
Y194170D01*
X716540D01*
Y196710D01*
X719080D01*
Y201790D01*
X716540D01*
Y204330D01*
X711460D01*
Y201790D01*
X708920D01*
Y196710D01*
X711460D01*
X736860D02*
Y194170D01*
X741940D01*
Y196710D01*
X744480D01*
Y201790D01*
X741940D01*
Y204330D01*
X736860D01*
Y201790D01*
X734320D01*
Y196710D01*
X736860D01*
X578282Y343920D02*
X580822Y349000D01*
X578282Y354080D01*
X583362Y351540D01*
X588442Y354080D01*
X585902Y349000D01*
X588442Y343920D01*
X583362Y346460D01*
X578282Y343920D01*
X513080Y518668D02*
X515620Y523748D01*
X513080Y528828D01*
X518160Y526288D01*
X523240Y528828D01*
X520700Y523748D01*
X523240Y518668D01*
X518160Y521208D01*
X513080Y518668D01*
X601980Y408670D02*
X604520Y413750D01*
X601980Y418830D01*
X607060Y416290D01*
X612140Y418830D01*
X609600Y413750D01*
X612140Y408670D01*
X607060Y411210D01*
X601980Y408670D01*
X489966Y508762D02*
X492506Y513842D01*
X489966Y518922D01*
X495046Y516382D01*
X500126Y518922D01*
X497586Y513842D01*
X500126Y508762D01*
X495046Y511302D01*
X489966Y508762D01*
X477266Y446278D02*
X479806Y451358D01*
X477266Y456438D01*
X482346Y453898D01*
X487426Y456438D01*
X484886Y451358D01*
X487426Y446278D01*
X482346Y448818D01*
X477266Y446278D01*
X614934Y252476D02*
X617474Y257556D01*
X614934Y262636D01*
X620014Y260096D01*
X625094Y262636D01*
X622554Y257556D01*
X625094Y252476D01*
X620014Y255016D01*
X614934Y252476D01*
X649986D02*
X652526Y257556D01*
X649986Y262636D01*
X655066Y260096D01*
X660146Y262636D01*
X657606Y257556D01*
X660146Y252476D01*
X655066Y255016D01*
X649986Y252476D01*
X739902Y460756D02*
X742442Y465836D01*
X739902Y470916D01*
X744982Y468376D01*
X750062Y470916D01*
X747522Y465836D01*
X750062Y460756D01*
X744982Y463296D01*
X739902Y460756D01*
X661924Y269494D02*
X664464Y274574D01*
X661924Y279654D01*
X667004Y277114D01*
X672084Y279654D01*
X669544Y274574D01*
X672084Y269494D01*
X667004Y272034D01*
X661924Y269494D01*
X596138Y246380D02*
X598678Y251460D01*
X596138Y256540D01*
X601218Y254000D01*
X606298Y256540D01*
X603758Y251460D01*
X606298Y246380D01*
X601218Y248920D01*
X596138Y246380D01*
X339852Y410972D02*
X342392Y416052D01*
X339852Y421132D01*
X344932Y418592D01*
X350012Y421132D01*
X347472Y416052D01*
X350012Y410972D01*
X344932Y413512D01*
X339852Y410972D01*
X644398Y522478D02*
X646938Y527558D01*
X644398Y532638D01*
X649478Y530098D01*
X654558Y532638D01*
X652018Y527558D01*
X654558Y522478D01*
X649478Y525018D01*
X644398Y522478D01*
M02*
