M48
;Layer_Color=9474304
;FILE_FORMAT=4:4
METRIC,LZ
;TYPE=PLATED
T01F00S00C0.7000
T02F00S00C0.7112
T03F00S00C0.7620
T04F00S00C0.8500
T05F00S00C0.9000
T06F00S00C1.0000
T07F00S00C1.1600
%
T01
X0053025Y00210132
Y00241132
X0052875Y00262
Y00293
T02
X00601218Y0025146
X00620014Y00257556
X00655066
X00667004Y00274574
X00583362Y00349
X0060706Y0041375
X00649478Y00527558
X0051816Y00523748
X00495046Y00513842
X00482346Y00451358
X00744982Y00465836
X00344932Y00416052
T03
X006124Y0019925
X006378
X006632
X006886
X00714
X007394
X0073915Y0030125
X0071375
X0068835
X0066295
X0063755
X0061215
T04
X00348Y0056875
Y0065875
T05
X00731Y005278
Y005532
Y005786
Y00604
Y006294
Y006548
Y006802
Y007056
T06
X0035175Y00697
X0037715
T07
X0041175Y003379
Y003638
Y003897
X0067675
Y003638
Y003379
Y004156
Y004415
Y004674
Y004933
Y005192
Y005451
Y00571
Y005969
Y006228
Y006487
Y006746
Y007005
X0063195Y006049
X0060655
X0058115
X0055575
X0041175Y005969
Y006228
Y006487
Y006746
Y007005
Y00571
Y005451
Y005192
Y004933
Y004674
Y004415
Y004156
X0055575Y004515
X0058115
X0060655
X0063195
X00345Y004678
Y004932
M30
