G04*
G04 #@! TF.GenerationSoftware,Altium Limited,Altium Designer,25.0.2 (28)*
G04*
G04 Layer_Color=32768*
%FSLAX44Y44*%
%MOMM*%
G71*
G04*
G04 #@! TF.SameCoordinates,8B6BD92A-2743-4FC7-A306-186CE1EE4446*
G04*
G04*
G04 #@! TF.FilePolarity,Positive*
G04*
G01*
G75*
%ADD65C,0.1000*%
%ADD66C,0.0500*%
D65*
X63490Y198220D02*
X73490D01*
X68490Y193220D02*
Y203220D01*
X63490Y304670D02*
X73490D01*
X68490Y299670D02*
Y309670D01*
X53990Y530970D02*
X63990D01*
X58990Y525970D02*
Y535970D01*
X61490Y428720D02*
Y438720D01*
X56490Y433720D02*
X66490D01*
X108240Y65220D02*
Y75220D01*
X103240Y70220D02*
X113240D01*
X571010Y198220D02*
X581010D01*
X576010Y193220D02*
Y203220D01*
X571010Y304670D02*
X581010D01*
X576010Y299670D02*
Y309670D01*
X561510Y530970D02*
X571510D01*
X566510Y525970D02*
Y535970D01*
X569010Y428720D02*
Y438720D01*
X564010Y433720D02*
X574010D01*
X615760Y65220D02*
Y75220D01*
X610760Y70220D02*
X620760D01*
D66*
X15990Y258320D02*
X102990D01*
Y138120D02*
Y258320D01*
X15990Y138120D02*
X102990D01*
X15990D02*
Y258320D01*
X33490Y344970D02*
X103490D01*
X33490Y332470D02*
Y344970D01*
X16490Y332470D02*
X33490D01*
X103490Y264370D02*
Y344970D01*
X33490Y264370D02*
X103490D01*
X33490D02*
Y276870D01*
X16490D02*
X33490D01*
X16490D02*
Y332470D01*
X39000Y551670D02*
X78980D01*
Y510270D02*
Y551670D01*
X39000Y510270D02*
Y551670D01*
Y510270D02*
X78980D01*
X48490Y486470D02*
X74490D01*
X48490Y380970D02*
Y486470D01*
X74490Y380970D02*
Y486470D01*
X48490Y380970D02*
X74490D01*
X27240Y123220D02*
X189240D01*
X27240Y17220D02*
X189240D01*
X27240D02*
Y123220D01*
X189240Y17220D02*
Y123220D01*
X523510Y258320D02*
X610510D01*
Y138120D02*
Y258320D01*
X523510Y138120D02*
X610510D01*
X523510D02*
Y258320D01*
X541010Y344970D02*
X611010D01*
X541010Y332470D02*
Y344970D01*
X524010Y332470D02*
X541010D01*
X611010Y264370D02*
Y344970D01*
X541010Y264370D02*
X611010D01*
X541010D02*
Y276870D01*
X524010D02*
X541010D01*
X524010D02*
Y332470D01*
X546520Y551670D02*
X586500D01*
Y510270D02*
Y551670D01*
X546520Y510270D02*
Y551670D01*
Y510270D02*
X586500D01*
X556010Y486470D02*
X582010D01*
X556010Y380970D02*
Y486470D01*
X582010Y380970D02*
Y486470D01*
X556010Y380970D02*
X582010D01*
X534760Y123220D02*
X696760D01*
X534760Y17220D02*
X696760D01*
X534760D02*
Y123220D01*
X696760Y17220D02*
Y123220D01*
M02*
