G04*
G04 #@! TF.GenerationSoftware,Altium Limited,Altium Designer,25.0.2 (28)*
G04*
G04 Layer_Color=16711935*
%FSLAX44Y44*%
%MOMM*%
G71*
G04*
G04 #@! TF.SameCoordinates,8B6BD92A-2743-4FC7-A306-186CE1EE4446*
G04*
G04*
G04 #@! TF.FilePolarity,Positive*
G04*
G01*
G75*
%ADD65C,0.1000*%
D65*
X74489Y530971D02*
G03*
X74489Y530971I-15500J0D01*
G01*
X77989D02*
G03*
X77989Y530971I-19000J0D01*
G01*
X35993Y139120D02*
Y152117D01*
Y139120D02*
X101990D01*
X35993Y244318D02*
Y257320D01*
X101990D01*
X16993Y244318D02*
X35993D01*
X16993Y152117D02*
X35993D01*
X16993D02*
Y244318D01*
X101990Y139120D02*
Y257320D01*
X17490Y277870D02*
Y331470D01*
X34490D02*
Y343970D01*
Y265370D02*
Y277870D01*
X17490D02*
X34490D01*
X17490Y331470D02*
X34490D01*
Y265370D02*
X102490D01*
Y343970D01*
X34490D02*
X102490D01*
X49490Y402220D02*
X73490D01*
X49490D02*
Y465220D01*
X73490Y402220D02*
Y465220D01*
X49490D02*
X73490D01*
X44740Y122220D02*
X138240D01*
X44740Y18220D02*
X138240D01*
X44740D02*
Y122220D01*
X138240Y18220D02*
Y122220D01*
X582009Y530971D02*
G03*
X582009Y530971I-15500J0D01*
G01*
X585509D02*
G03*
X585509Y530971I-19000J0D01*
G01*
X543513Y139120D02*
Y152117D01*
Y139120D02*
X609510D01*
X543513Y244318D02*
Y257320D01*
X609510D01*
X524513Y244318D02*
X543513D01*
X524513Y152117D02*
X543513D01*
X524513D02*
Y244318D01*
X609510Y139120D02*
Y257320D01*
X525010Y277870D02*
Y331470D01*
X542010D02*
Y343970D01*
Y265370D02*
Y277870D01*
X525010D02*
X542010D01*
X525010Y331470D02*
X542010D01*
Y265370D02*
X610010D01*
Y343970D01*
X542010D02*
X610010D01*
X557010Y402220D02*
X581010D01*
X557010D02*
Y465220D01*
X581010Y402220D02*
Y465220D01*
X557010D02*
X581010D01*
X552260Y122220D02*
X645760D01*
X552260Y18220D02*
X645760D01*
X552260D02*
Y122220D01*
X645760Y18220D02*
Y122220D01*
M02*
