G04*
G04 #@! TF.GenerationSoftware,Altium Limited,Altium Designer,25.0.2 (28)*
G04*
G04 Layer_Color=65535*
%FSLAX44Y44*%
%MOMM*%
G71*
G04*
G04 #@! TF.SameCoordinates,8B6BD92A-2743-4FC7-A306-186CE1EE4446*
G04*
G04*
G04 #@! TF.FilePolarity,Positive*
G04*
G01*
G75*
%ADD35C,0.2540*%
%ADD36C,0.2500*%
%ADD37C,0.2000*%
%ADD38C,0.1540*%
G36*
X744047Y551245D02*
X744701D01*
Y547974D01*
X738814D01*
Y548628D01*
X737505D01*
Y547974D01*
X734889D01*
Y547320D01*
X735543D01*
Y544049D01*
Y543395D01*
Y525733D01*
X736197D01*
Y523116D01*
X735543D01*
Y520500D01*
X736197D01*
Y517883D01*
X732926D01*
Y518537D01*
X730310D01*
Y517883D01*
X729001D01*
Y518537D01*
X728347D01*
Y523116D01*
X729001D01*
Y539470D01*
X729656D01*
Y540124D01*
X730310D01*
Y541432D01*
X729656D01*
Y542086D01*
X729001D01*
Y546665D01*
X728347D01*
Y547974D01*
X726385D01*
Y547320D01*
X721806D01*
Y547974D01*
X720498D01*
Y547320D01*
X719844D01*
Y549936D01*
X719189D01*
Y553207D01*
X718535D01*
Y553861D01*
X719189D01*
Y554515D01*
X723114D01*
Y553861D01*
X727693D01*
Y554515D01*
X729656D01*
Y553861D01*
X732272D01*
Y554515D01*
X734889D01*
Y555169D01*
X740776D01*
Y554515D01*
X741430D01*
Y555169D01*
X742084D01*
Y555824D01*
X744047D01*
Y551245D01*
D02*
G37*
G36*
X683866Y547974D02*
X678633D01*
Y548628D01*
X677324D01*
Y547974D01*
X674708D01*
Y547320D01*
X675362D01*
Y527041D01*
X674708D01*
Y526387D01*
X675362D01*
Y519846D01*
X676016D01*
Y517883D01*
X672745D01*
Y518537D01*
X670129D01*
Y517883D01*
X668166D01*
Y525079D01*
X668821D01*
Y527041D01*
X668166D01*
Y530966D01*
X668821D01*
Y539470D01*
X669475D01*
Y542086D01*
X668821D01*
Y542741D01*
X668166D01*
Y547974D01*
X665550D01*
Y547320D01*
X661625D01*
Y547974D01*
X660317D01*
Y547320D01*
X659663D01*
Y548628D01*
X659008D01*
Y551899D01*
X658354D01*
Y554515D01*
X662933D01*
Y553861D01*
X667512D01*
Y554515D01*
X669475D01*
Y553861D01*
X672091D01*
Y554515D01*
X674708D01*
Y555169D01*
X680595D01*
Y554515D01*
X681249D01*
Y555169D01*
X681903D01*
Y555824D01*
X683866D01*
Y547974D01*
D02*
G37*
G36*
X236527Y551245D02*
X237181D01*
Y547974D01*
X231294D01*
Y548628D01*
X229985D01*
Y547974D01*
X227369D01*
Y547320D01*
X228023D01*
Y544049D01*
Y543395D01*
Y525733D01*
X228677D01*
Y523116D01*
X228023D01*
Y520500D01*
X228677D01*
Y517883D01*
X225406D01*
Y518537D01*
X222790D01*
Y517883D01*
X221481D01*
Y518537D01*
X220827D01*
Y523116D01*
X221481D01*
Y539470D01*
X222136D01*
Y540124D01*
X222790D01*
Y541432D01*
X222136D01*
Y542086D01*
X221481D01*
Y546665D01*
X220827D01*
Y547974D01*
X218865D01*
Y547320D01*
X214286D01*
Y547974D01*
X212978D01*
Y547320D01*
X212324D01*
Y549936D01*
X211670D01*
Y553207D01*
X211015D01*
Y553861D01*
X211670D01*
Y554515D01*
X215594D01*
Y553861D01*
X220173D01*
Y554515D01*
X222136D01*
Y553861D01*
X224752D01*
Y554515D01*
X227369D01*
Y555169D01*
X233256D01*
Y554515D01*
X233910D01*
Y555169D01*
X234564D01*
Y555824D01*
X236527D01*
Y551245D01*
D02*
G37*
G36*
X176346Y547974D02*
X171113D01*
Y548628D01*
X169804D01*
Y547974D01*
X167188D01*
Y547320D01*
X167842D01*
Y527041D01*
X167188D01*
Y526387D01*
X167842D01*
Y519846D01*
X168496D01*
Y517883D01*
X165225D01*
Y518537D01*
X162609D01*
Y517883D01*
X160646D01*
Y525079D01*
X161301D01*
Y527041D01*
X160646D01*
Y530966D01*
X161301D01*
Y539470D01*
X161955D01*
Y542086D01*
X161301D01*
Y542741D01*
X160646D01*
Y547974D01*
X158030D01*
Y547320D01*
X154105D01*
Y547974D01*
X152797D01*
Y547320D01*
X152143D01*
Y548628D01*
X151489D01*
Y551899D01*
X150834D01*
Y554515D01*
X155413D01*
Y553861D01*
X159992D01*
Y554515D01*
X161955D01*
Y553861D01*
X164571D01*
Y554515D01*
X167188D01*
Y555169D01*
X173075D01*
Y554515D01*
X173729D01*
Y555169D01*
X174383D01*
Y555824D01*
X176346D01*
Y547974D01*
D02*
G37*
G36*
X840206Y557786D02*
X840860D01*
Y555824D01*
X841514D01*
Y554515D01*
X842168D01*
Y552553D01*
X842822D01*
Y550590D01*
X840860D01*
Y549936D01*
X838897D01*
Y549282D01*
X836281D01*
Y548628D01*
X834972D01*
Y547974D01*
X833010D01*
Y547320D01*
X831048D01*
Y546665D01*
X829739D01*
Y546011D01*
X828431D01*
Y544703D01*
X829085D01*
Y544049D01*
X829739D01*
Y543395D01*
X830393D01*
Y542741D01*
X831048D01*
Y542086D01*
X831702D01*
Y541432D01*
X832356D01*
Y540778D01*
X833010D01*
Y538162D01*
X835627D01*
Y537508D01*
X836281D01*
Y536853D01*
X836935D01*
Y536199D01*
X837589D01*
Y535545D01*
X838897D01*
Y534891D01*
X839551D01*
Y534237D01*
X840206D01*
Y533583D01*
X840860D01*
Y532274D01*
X841514D01*
Y530966D01*
X843476D01*
Y531620D01*
X844784D01*
Y530312D01*
X845439D01*
Y528350D01*
X846093D01*
Y527041D01*
X846747D01*
Y525079D01*
X847401D01*
Y524425D01*
X846093D01*
Y523771D01*
X844130D01*
Y523116D01*
X840860D01*
Y522462D01*
X840206D01*
Y521808D01*
X838897D01*
Y521154D01*
X836281D01*
Y520500D01*
X834972D01*
Y519846D01*
X833010D01*
Y519192D01*
X831702D01*
Y518537D01*
X829739D01*
Y517883D01*
X828431D01*
Y517229D01*
X826469D01*
Y516575D01*
X823852D01*
Y517229D01*
X823198D01*
Y518537D01*
X822544D01*
Y519846D01*
X821890D01*
Y521154D01*
X821235D01*
Y522462D01*
X823198D01*
Y523116D01*
X824506D01*
Y523771D01*
X827777D01*
Y524425D01*
X829085D01*
Y525079D01*
X830393D01*
Y525733D01*
X831702D01*
Y525079D01*
X833010D01*
Y525733D01*
X833664D01*
Y527041D01*
X834972D01*
Y529004D01*
X834318D01*
Y529658D01*
X833664D01*
Y530312D01*
X833010D01*
Y530966D01*
X832356D01*
Y531620D01*
X831702D01*
Y532274D01*
X831048D01*
Y532929D01*
X830393D01*
Y533583D01*
X829739D01*
Y534237D01*
X829085D01*
Y534891D01*
X828431D01*
Y535545D01*
X827777D01*
Y536199D01*
X827123D01*
Y536853D01*
X826469D01*
Y537508D01*
X825814D01*
Y538162D01*
X825160D01*
Y538816D01*
X824506D01*
Y539470D01*
X823852D01*
Y540124D01*
X823198D01*
Y540778D01*
X822544D01*
Y541432D01*
X821890D01*
Y542741D01*
X819927D01*
Y543395D01*
X819273D01*
Y544703D01*
X818619D01*
Y546011D01*
X817965D01*
Y546665D01*
X817311D01*
Y547974D01*
X816656D01*
Y548628D01*
X817965D01*
Y549282D01*
X819273D01*
Y549936D01*
X822544D01*
Y550590D01*
X824506D01*
Y551245D01*
X825160D01*
Y551899D01*
X826469D01*
Y552553D01*
X827123D01*
Y551899D01*
X829085D01*
Y552553D01*
X829739D01*
Y553861D01*
X831702D01*
Y554515D01*
X833010D01*
Y555169D01*
X834318D01*
Y555824D01*
X837589D01*
Y556478D01*
X838243D01*
Y557132D01*
X838897D01*
Y557786D01*
X839551D01*
Y558440D01*
X840206D01*
Y557786D01*
D02*
G37*
G36*
X332686D02*
X333340D01*
Y555824D01*
X333994D01*
Y554515D01*
X334648D01*
Y552553D01*
X335302D01*
Y550590D01*
X333340D01*
Y549936D01*
X331377D01*
Y549282D01*
X328761D01*
Y548628D01*
X327452D01*
Y547974D01*
X325490D01*
Y547320D01*
X323528D01*
Y546665D01*
X322219D01*
Y546011D01*
X320911D01*
Y544703D01*
X321565D01*
Y544049D01*
X322219D01*
Y543395D01*
X322873D01*
Y542741D01*
X323528D01*
Y542086D01*
X324182D01*
Y541432D01*
X324836D01*
Y540778D01*
X325490D01*
Y538162D01*
X328107D01*
Y537508D01*
X328761D01*
Y536853D01*
X329415D01*
Y536199D01*
X330069D01*
Y535545D01*
X331377D01*
Y534891D01*
X332031D01*
Y534237D01*
X332686D01*
Y533583D01*
X333340D01*
Y532274D01*
X333994D01*
Y530966D01*
X335956D01*
Y531620D01*
X337265D01*
Y530312D01*
X337919D01*
Y528350D01*
X338573D01*
Y527041D01*
X339227D01*
Y525079D01*
X339881D01*
Y524425D01*
X338573D01*
Y523771D01*
X336610D01*
Y523116D01*
X333340D01*
Y522462D01*
X332686D01*
Y521808D01*
X331377D01*
Y521154D01*
X328761D01*
Y520500D01*
X327452D01*
Y519846D01*
X325490D01*
Y519192D01*
X324182D01*
Y518537D01*
X322219D01*
Y517883D01*
X320911D01*
Y517229D01*
X318949D01*
Y516575D01*
X316332D01*
Y517229D01*
X315678D01*
Y518537D01*
X315024D01*
Y519846D01*
X314370D01*
Y521154D01*
X313715D01*
Y522462D01*
X315678D01*
Y523116D01*
X316986D01*
Y523771D01*
X320257D01*
Y524425D01*
X321565D01*
Y525079D01*
X322873D01*
Y525733D01*
X324182D01*
Y525079D01*
X325490D01*
Y525733D01*
X326144D01*
Y527041D01*
X327452D01*
Y529004D01*
X326798D01*
Y529658D01*
X326144D01*
Y530312D01*
X325490D01*
Y530966D01*
X324836D01*
Y531620D01*
X324182D01*
Y532274D01*
X323528D01*
Y532929D01*
X322873D01*
Y533583D01*
X322219D01*
Y534237D01*
X321565D01*
Y534891D01*
X320911D01*
Y535545D01*
X320257D01*
Y536199D01*
X319603D01*
Y536853D01*
X318949D01*
Y537508D01*
X318294D01*
Y538162D01*
X317640D01*
Y538816D01*
X316986D01*
Y539470D01*
X316332D01*
Y540124D01*
X315678D01*
Y540778D01*
X315024D01*
Y541432D01*
X314370D01*
Y542741D01*
X312407D01*
Y543395D01*
X311753D01*
Y544703D01*
X311099D01*
Y546011D01*
X310445D01*
Y546665D01*
X309791D01*
Y547974D01*
X309137D01*
Y548628D01*
X310445D01*
Y549282D01*
X311753D01*
Y549936D01*
X315024D01*
Y550590D01*
X316986D01*
Y551245D01*
X317640D01*
Y551899D01*
X318949D01*
Y552553D01*
X319603D01*
Y551899D01*
X321565D01*
Y552553D01*
X322219D01*
Y553861D01*
X324182D01*
Y554515D01*
X325490D01*
Y555169D01*
X326798D01*
Y555824D01*
X330069D01*
Y556478D01*
X330723D01*
Y557132D01*
X331377D01*
Y557786D01*
X332031D01*
Y558440D01*
X332686D01*
Y557786D01*
D02*
G37*
G36*
X810769Y547974D02*
X810115D01*
Y546011D01*
X810769D01*
Y544049D01*
X810115D01*
Y532929D01*
X808807D01*
Y531620D01*
X809461D01*
Y530966D01*
X810115D01*
Y522462D01*
X809461D01*
Y521808D01*
X810115D01*
Y521154D01*
X810769D01*
Y518537D01*
X803574D01*
Y519192D01*
X802919D01*
Y523771D01*
X803574D01*
Y533583D01*
X802265D01*
Y534237D01*
X800957D01*
Y534891D01*
X800303D01*
Y535545D01*
X799649D01*
Y536199D01*
X798995D01*
Y536853D01*
X798341D01*
Y537508D01*
X797686D01*
Y538162D01*
X796378D01*
Y538816D01*
X795724D01*
Y539470D01*
X795070D01*
Y540124D01*
X794416D01*
Y540778D01*
X793762D01*
Y541432D01*
X793107D01*
Y542086D01*
X792453D01*
Y542741D01*
X791799D01*
Y527695D01*
X791145D01*
Y527041D01*
X791799D01*
Y525079D01*
X792453D01*
Y524425D01*
X791799D01*
Y520500D01*
X792453D01*
Y518537D01*
X789183D01*
Y519192D01*
X786566D01*
Y518537D01*
X785258D01*
Y519192D01*
X784604D01*
Y525079D01*
X785258D01*
Y540778D01*
X785912D01*
Y541432D01*
X786566D01*
Y542086D01*
X785912D01*
Y542741D01*
X785258D01*
Y543395D01*
X784604D01*
Y549936D01*
X785258D01*
Y551899D01*
X784604D01*
Y553207D01*
X783949D01*
Y554515D01*
X791799D01*
Y551245D01*
X793107D01*
Y550590D01*
X793762D01*
Y549936D01*
X794416D01*
Y549282D01*
X795070D01*
Y548628D01*
X795724D01*
Y547974D01*
X796378D01*
Y547320D01*
X797032D01*
Y546665D01*
X797686D01*
Y544703D01*
X798341D01*
Y544049D01*
X798995D01*
Y544703D01*
X800303D01*
Y544049D01*
X800957D01*
Y542741D01*
X801611D01*
Y542086D01*
X802265D01*
Y541432D01*
X803574D01*
Y553207D01*
X802919D01*
Y554515D01*
X810769D01*
Y547974D01*
D02*
G37*
G36*
X303249D02*
X302595D01*
Y546011D01*
X303249D01*
Y544049D01*
X302595D01*
Y532929D01*
X301287D01*
Y531620D01*
X301941D01*
Y530966D01*
X302595D01*
Y522462D01*
X301941D01*
Y521808D01*
X302595D01*
Y521154D01*
X303249D01*
Y518537D01*
X296054D01*
Y519192D01*
X295399D01*
Y523771D01*
X296054D01*
Y533583D01*
X294745D01*
Y534237D01*
X293437D01*
Y534891D01*
X292783D01*
Y535545D01*
X292129D01*
Y536199D01*
X291475D01*
Y536853D01*
X290821D01*
Y537508D01*
X290166D01*
Y538162D01*
X288858D01*
Y538816D01*
X288204D01*
Y539470D01*
X287550D01*
Y540124D01*
X286896D01*
Y540778D01*
X286241D01*
Y541432D01*
X285587D01*
Y542086D01*
X284933D01*
Y542741D01*
X284279D01*
Y527695D01*
X283625D01*
Y527041D01*
X284279D01*
Y525079D01*
X284933D01*
Y524425D01*
X284279D01*
Y520500D01*
X284933D01*
Y518537D01*
X281663D01*
Y519192D01*
X279046D01*
Y518537D01*
X277738D01*
Y519192D01*
X277083D01*
Y525079D01*
X277738D01*
Y540778D01*
X278392D01*
Y541432D01*
X279046D01*
Y542086D01*
X278392D01*
Y542741D01*
X277738D01*
Y543395D01*
X277083D01*
Y549936D01*
X277738D01*
Y551899D01*
X277083D01*
Y553207D01*
X276429D01*
Y554515D01*
X284279D01*
Y551245D01*
X285587D01*
Y550590D01*
X286241D01*
Y549936D01*
X286896D01*
Y549282D01*
X287550D01*
Y548628D01*
X288204D01*
Y547974D01*
X288858D01*
Y547320D01*
X289512D01*
Y546665D01*
X290166D01*
Y544703D01*
X290821D01*
Y544049D01*
X291475D01*
Y544703D01*
X292783D01*
Y544049D01*
X293437D01*
Y542741D01*
X294091D01*
Y542086D01*
X294745D01*
Y541432D01*
X296054D01*
Y553207D01*
X295399D01*
Y554515D01*
X303249D01*
Y547974D01*
D02*
G37*
G36*
X693678Y555169D02*
X711340D01*
Y554515D01*
X711994D01*
Y549936D01*
X704144D01*
Y533583D01*
X704798D01*
Y532929D01*
X711994D01*
Y528350D01*
X711340D01*
Y527695D01*
X710031D01*
Y528350D01*
X706761D01*
Y527695D01*
X702182D01*
Y528350D01*
X701528D01*
Y527695D01*
X694332D01*
Y528350D01*
X692370D01*
Y527695D01*
X689753D01*
Y533583D01*
X695640D01*
Y532929D01*
X696949D01*
Y533583D01*
X697603D01*
Y538816D01*
X698257D01*
Y540778D01*
X697603D01*
Y543395D01*
X698911D01*
Y544703D01*
X697603D01*
Y548628D01*
X696949D01*
Y549936D01*
X691715D01*
Y549282D01*
X690407D01*
Y549936D01*
X689753D01*
Y550590D01*
Y555169D01*
X690407D01*
Y555824D01*
X693678D01*
Y555169D01*
D02*
G37*
G36*
X186158D02*
X203820D01*
Y554515D01*
X204474D01*
Y549936D01*
X196624D01*
Y533583D01*
X197278D01*
Y532929D01*
X204474D01*
Y528350D01*
X203820D01*
Y527695D01*
X202512D01*
Y528350D01*
X199241D01*
Y527695D01*
X194662D01*
Y528350D01*
X194008D01*
Y527695D01*
X186812D01*
Y528350D01*
X184850D01*
Y527695D01*
X182233D01*
Y533583D01*
X188120D01*
Y532929D01*
X189429D01*
Y533583D01*
X190083D01*
Y538816D01*
X190737D01*
Y540778D01*
X190083D01*
Y543395D01*
X191391D01*
Y544703D01*
X190083D01*
Y548628D01*
X189429D01*
Y549936D01*
X184195D01*
Y549282D01*
X182887D01*
Y549936D01*
X182233D01*
Y550590D01*
Y555169D01*
X182887D01*
Y555824D01*
X186158D01*
Y555169D01*
D02*
G37*
G36*
X764979Y557132D02*
X766942D01*
Y556478D01*
X768904D01*
Y555824D01*
X770212D01*
Y555169D01*
X770867D01*
Y554515D01*
X770212D01*
Y553207D01*
X769558D01*
Y552553D01*
X768904D01*
Y551245D01*
X768250D01*
Y550590D01*
X767596D01*
Y549936D01*
X768250D01*
Y548628D01*
X768904D01*
Y546665D01*
X769558D01*
Y544049D01*
X770212D01*
Y542741D01*
X770867D01*
Y541432D01*
X771521D01*
Y540778D01*
X772175D01*
Y540124D01*
X771521D01*
Y538162D01*
X772829D01*
Y537508D01*
X773483D01*
Y536853D01*
X774137D01*
Y535545D01*
X774791D01*
Y534237D01*
X775446D01*
Y532929D01*
X776100D01*
Y530966D01*
X776754D01*
Y530312D01*
X777408D01*
Y529658D01*
X778062D01*
Y529004D01*
X777408D01*
Y528350D01*
X775446D01*
Y527695D01*
X773483D01*
Y527041D01*
X771521D01*
Y526387D01*
X770867D01*
Y527041D01*
X770212D01*
Y528350D01*
X769558D01*
Y530312D01*
X768904D01*
Y531620D01*
X762363D01*
Y530966D01*
X759746D01*
Y531620D01*
X759092D01*
Y530966D01*
X758438D01*
Y530312D01*
X757784D01*
Y527695D01*
X757130D01*
Y527041D01*
X755821D01*
Y527695D01*
X754513D01*
Y528350D01*
X753205D01*
Y529004D01*
X750588D01*
Y529658D01*
X749934D01*
Y530312D01*
X750588D01*
Y531620D01*
X751242D01*
Y532929D01*
X751897D01*
Y533583D01*
X752551D01*
Y534891D01*
X753205D01*
Y535545D01*
X753859D01*
Y537508D01*
X754513D01*
Y538816D01*
X755167D01*
Y540124D01*
X755821D01*
Y540778D01*
X756476D01*
Y541432D01*
X757130D01*
Y542741D01*
X757784D01*
Y544049D01*
X758438D01*
Y546011D01*
X759746D01*
Y546665D01*
X760400D01*
Y547974D01*
X759746D01*
Y549282D01*
X760400D01*
Y550590D01*
X761055D01*
Y551899D01*
X761709D01*
Y553861D01*
X762363D01*
Y554515D01*
X763017D01*
Y555169D01*
X763671D01*
Y555824D01*
X763017D01*
Y557132D01*
X763671D01*
Y557786D01*
X764979D01*
Y557132D01*
D02*
G37*
G36*
X257459D02*
X259422D01*
Y556478D01*
X261384D01*
Y555824D01*
X262692D01*
Y555169D01*
X263347D01*
Y554515D01*
X262692D01*
Y553207D01*
X262038D01*
Y552553D01*
X261384D01*
Y551245D01*
X260730D01*
Y550590D01*
X260076D01*
Y549936D01*
X260730D01*
Y548628D01*
X261384D01*
Y546665D01*
X262038D01*
Y544049D01*
X262692D01*
Y542741D01*
X263347D01*
Y541432D01*
X264001D01*
Y540778D01*
X264655D01*
Y540124D01*
X264001D01*
Y538162D01*
X265309D01*
Y537508D01*
X265963D01*
Y536853D01*
X266617D01*
Y535545D01*
X267271D01*
Y534237D01*
X267926D01*
Y532929D01*
X268580D01*
Y530966D01*
X269234D01*
Y530312D01*
X269888D01*
Y529658D01*
X270542D01*
Y529004D01*
X269888D01*
Y528350D01*
X267926D01*
Y527695D01*
X265963D01*
Y527041D01*
X264001D01*
Y526387D01*
X263347D01*
Y527041D01*
X262692D01*
Y528350D01*
X262038D01*
Y530312D01*
X261384D01*
Y531620D01*
X254843D01*
Y530966D01*
X252226D01*
Y531620D01*
X251572D01*
Y530966D01*
X250918D01*
Y530312D01*
X250264D01*
Y527695D01*
X249610D01*
Y527041D01*
X248301D01*
Y527695D01*
X246993D01*
Y528350D01*
X245685D01*
Y529004D01*
X243068D01*
Y529658D01*
X242414D01*
Y530312D01*
X243068D01*
Y531620D01*
X243722D01*
Y532929D01*
X244377D01*
Y533583D01*
X245031D01*
Y534891D01*
X245685D01*
Y535545D01*
X246339D01*
Y537508D01*
X246993D01*
Y538816D01*
X247647D01*
Y540124D01*
X248301D01*
Y540778D01*
X248955D01*
Y541432D01*
X249610D01*
Y542741D01*
X250264D01*
Y544049D01*
X250918D01*
Y546011D01*
X252226D01*
Y546665D01*
X252880D01*
Y547974D01*
X252226D01*
Y549282D01*
X252880D01*
Y550590D01*
X253535D01*
Y551899D01*
X254189D01*
Y553861D01*
X254843D01*
Y554515D01*
X255497D01*
Y555169D01*
X256151D01*
Y555824D01*
X255497D01*
Y557132D01*
X256151D01*
Y557786D01*
X257459D01*
Y557132D01*
D02*
G37*
G36*
X763017Y523771D02*
X774791D01*
Y518537D01*
X773483D01*
Y519192D01*
X768904D01*
Y518537D01*
X767596D01*
Y519192D01*
X766942D01*
Y519846D01*
X765633D01*
Y519192D01*
X764325D01*
Y518537D01*
X757130D01*
Y519192D01*
X755167D01*
Y518537D01*
X753205D01*
Y519846D01*
Y520500D01*
Y524425D01*
X758438D01*
Y523771D01*
X759746D01*
Y524425D01*
X763017D01*
Y523771D01*
D02*
G37*
G36*
X698911D02*
X711994D01*
Y518537D01*
X709377D01*
Y519192D01*
X707415D01*
Y518537D01*
X704144D01*
Y519192D01*
X703490D01*
Y519846D01*
X702836D01*
Y519192D01*
X701528D01*
Y518537D01*
X693678D01*
Y519192D01*
X692370D01*
Y518537D01*
X689753D01*
Y520500D01*
Y521154D01*
Y523771D01*
X690407D01*
Y524425D01*
X694986D01*
Y523771D01*
X697603D01*
Y524425D01*
X698911D01*
Y523771D01*
D02*
G37*
G36*
X255497D02*
X267271D01*
Y518537D01*
X265963D01*
Y519192D01*
X261384D01*
Y518537D01*
X260076D01*
Y519192D01*
X259422D01*
Y519846D01*
X258113D01*
Y519192D01*
X256805D01*
Y518537D01*
X249610D01*
Y519192D01*
X247647D01*
Y518537D01*
X245685D01*
Y519846D01*
Y520500D01*
Y524425D01*
X250918D01*
Y523771D01*
X252226D01*
Y524425D01*
X255497D01*
Y523771D01*
D02*
G37*
G36*
X191391D02*
X204474D01*
Y518537D01*
X201857D01*
Y519192D01*
X199895D01*
Y518537D01*
X196624D01*
Y519192D01*
X195970D01*
Y519846D01*
X195316D01*
Y519192D01*
X194008D01*
Y518537D01*
X186158D01*
Y519192D01*
X184850D01*
Y518537D01*
X182233D01*
Y520500D01*
Y521154D01*
Y523771D01*
X182887D01*
Y524425D01*
X187466D01*
Y523771D01*
X190083D01*
Y524425D01*
X191391D01*
Y523771D01*
D02*
G37*
G36*
X729352Y203655D02*
X729076D01*
Y203517D01*
X728938D01*
Y203379D01*
X728800D01*
Y203241D01*
X728523D01*
Y203103D01*
X728385D01*
Y202965D01*
X728109D01*
Y202826D01*
X727971D01*
Y202688D01*
X727832D01*
Y202550D01*
X727556D01*
Y202412D01*
X727418D01*
Y202274D01*
X727280D01*
Y202136D01*
X727003D01*
Y201997D01*
X726865D01*
Y201859D01*
X726589D01*
Y201721D01*
X726450D01*
Y201583D01*
X726312D01*
Y201445D01*
X726036D01*
Y201306D01*
X725898D01*
Y201168D01*
X725621D01*
Y201030D01*
X725483D01*
Y200892D01*
X725345D01*
Y200754D01*
X725069D01*
Y200616D01*
X724930D01*
Y200477D01*
X724792D01*
Y200339D01*
X724516D01*
Y200201D01*
X724378D01*
Y200063D01*
X724101D01*
Y199925D01*
X723963D01*
Y199786D01*
X723825D01*
Y199648D01*
X723549D01*
Y199510D01*
X723410D01*
Y199372D01*
X723272D01*
Y199234D01*
X722996D01*
Y199095D01*
X722858D01*
Y198957D01*
X722581D01*
Y198819D01*
X722443D01*
Y198681D01*
X722305D01*
Y198543D01*
X722029D01*
Y198405D01*
X721890D01*
Y198266D01*
X721752D01*
Y198128D01*
X721476D01*
Y197990D01*
X721338D01*
Y197852D01*
X721199D01*
Y197714D01*
X720923D01*
Y197575D01*
X720785D01*
Y197437D01*
X720508D01*
Y197299D01*
X720370D01*
Y197161D01*
X720232D01*
Y197023D01*
X719956D01*
Y196884D01*
X719818D01*
Y196746D01*
X719541D01*
Y196608D01*
X719403D01*
Y196470D01*
X719265D01*
Y196332D01*
X718988D01*
Y196194D01*
X718850D01*
Y196055D01*
X718574D01*
Y195917D01*
X718436D01*
Y195779D01*
X718298D01*
Y195641D01*
X718021D01*
Y195503D01*
X717883D01*
Y195364D01*
X717607D01*
Y195226D01*
X717468D01*
Y195088D01*
X717330D01*
Y194950D01*
X717054D01*
Y194812D01*
X716916D01*
Y194674D01*
X716639D01*
Y194535D01*
X716501D01*
Y194397D01*
X716363D01*
Y194259D01*
X716087D01*
Y194121D01*
X715948D01*
Y193983D01*
X715672D01*
Y193845D01*
X715534D01*
Y193706D01*
X715258D01*
Y193568D01*
X715119D01*
Y193430D01*
X714843D01*
Y193292D01*
X714705D01*
Y193154D01*
X714428D01*
Y193015D01*
X714152D01*
Y192877D01*
X714014D01*
Y192739D01*
X713737D01*
Y192601D01*
X713599D01*
Y192463D01*
X713323D01*
Y192325D01*
X713047D01*
Y192186D01*
X712908D01*
Y192048D01*
X712632D01*
Y191910D01*
X712356D01*
Y191772D01*
X712217D01*
Y191634D01*
X711941D01*
Y191495D01*
X711665D01*
Y191357D01*
X711388D01*
Y191219D01*
X711250D01*
Y191081D01*
X710974D01*
Y190943D01*
X710697D01*
Y190805D01*
X710421D01*
Y190666D01*
X710145D01*
Y190528D01*
X709868D01*
Y190390D01*
X709592D01*
Y190252D01*
X709316D01*
Y190114D01*
X709039D01*
Y189975D01*
X708763D01*
Y189837D01*
X708487D01*
Y189699D01*
X708210D01*
Y189561D01*
X707934D01*
Y189423D01*
X707657D01*
Y189284D01*
X707381D01*
Y189146D01*
X707105D01*
Y189008D01*
X706828D01*
Y188870D01*
X706414D01*
Y188732D01*
X706137D01*
Y188594D01*
X705861D01*
Y188455D01*
X705446D01*
Y188317D01*
X705170D01*
Y188179D01*
X704756D01*
Y188041D01*
X704341D01*
Y187903D01*
X703926D01*
Y187764D01*
X703512D01*
Y187626D01*
X703097D01*
Y187488D01*
X702545D01*
Y187350D01*
X701992D01*
Y187212D01*
X701301D01*
Y187073D01*
X700334D01*
Y186935D01*
X699366D01*
Y186797D01*
X697570D01*
Y186659D01*
X694945D01*
Y206281D01*
X729352D01*
Y203655D01*
D02*
G37*
G36*
X693010Y186659D02*
X690246D01*
Y186797D01*
X688588D01*
Y186935D01*
X687483D01*
Y187073D01*
X686654D01*
Y187212D01*
X685963D01*
Y187350D01*
X685410D01*
Y187488D01*
X684857D01*
Y187626D01*
X684443D01*
Y187764D01*
X683890D01*
Y187903D01*
X683475D01*
Y188041D01*
X683061D01*
Y188179D01*
X682784D01*
Y188317D01*
X682370D01*
Y188455D01*
X682094D01*
Y188594D01*
X681817D01*
Y188732D01*
X681403D01*
Y188870D01*
X681126D01*
Y189008D01*
X680850D01*
Y189146D01*
X680574D01*
Y189284D01*
X680297D01*
Y189423D01*
X679883D01*
Y189561D01*
X679606D01*
Y189699D01*
X679330D01*
Y189837D01*
X679053D01*
Y189975D01*
X678777D01*
Y190114D01*
X678501D01*
Y190252D01*
X678224D01*
Y190390D01*
X677948D01*
Y190528D01*
X677810D01*
Y190666D01*
X677533D01*
Y190805D01*
X677257D01*
Y190943D01*
X676981D01*
Y191081D01*
X676704D01*
Y191219D01*
X676566D01*
Y191357D01*
X676290D01*
Y191495D01*
X676013D01*
Y191634D01*
X675737D01*
Y191772D01*
X675461D01*
Y191910D01*
X675322D01*
Y192048D01*
X675046D01*
Y192186D01*
X674770D01*
Y192325D01*
X674632D01*
Y192463D01*
X674355D01*
Y192601D01*
X674079D01*
Y192739D01*
X673941D01*
Y192877D01*
X673664D01*
Y193015D01*
X673526D01*
Y193154D01*
X673250D01*
Y193292D01*
X673112D01*
Y193430D01*
X672835D01*
Y193568D01*
X672697D01*
Y193706D01*
X672421D01*
Y193845D01*
X672282D01*
Y193983D01*
X672006D01*
Y194121D01*
X671868D01*
Y194259D01*
X671591D01*
Y194397D01*
X671453D01*
Y194535D01*
X671177D01*
Y194674D01*
X671039D01*
Y194812D01*
X670762D01*
Y194950D01*
X670624D01*
Y195088D01*
X670486D01*
Y195226D01*
X670210D01*
Y195364D01*
X670071D01*
Y195503D01*
X669795D01*
Y195641D01*
X669657D01*
Y195779D01*
X669519D01*
Y195917D01*
X669242D01*
Y196055D01*
X669104D01*
Y196194D01*
X668966D01*
Y196332D01*
X668690D01*
Y196470D01*
X668551D01*
Y196608D01*
X668275D01*
Y196746D01*
X668137D01*
Y196884D01*
X667999D01*
Y197023D01*
X667722D01*
Y197161D01*
X667584D01*
Y197299D01*
X667446D01*
Y197437D01*
X667170D01*
Y197575D01*
X667031D01*
Y197714D01*
X666755D01*
Y197852D01*
X666617D01*
Y197990D01*
X666341D01*
Y198128D01*
X666202D01*
Y198266D01*
X666064D01*
Y198405D01*
X665788D01*
Y198543D01*
X665650D01*
Y198681D01*
X665511D01*
Y198819D01*
X665235D01*
Y198957D01*
X665097D01*
Y199095D01*
X664959D01*
Y199234D01*
X664682D01*
Y199372D01*
X664544D01*
Y199510D01*
X664268D01*
Y199648D01*
X664130D01*
Y199786D01*
X663991D01*
Y199925D01*
X663715D01*
Y200063D01*
X663577D01*
Y200201D01*
X663300D01*
Y200339D01*
X663162D01*
Y200477D01*
X663024D01*
Y200616D01*
X662748D01*
Y200754D01*
X662610D01*
Y200892D01*
X662471D01*
Y201030D01*
X662195D01*
Y201168D01*
X662057D01*
Y201306D01*
X661919D01*
Y201445D01*
X661642D01*
Y201583D01*
X661504D01*
Y201721D01*
X661228D01*
Y201859D01*
X661090D01*
Y201997D01*
X660951D01*
Y202136D01*
X660675D01*
Y202274D01*
X660537D01*
Y202412D01*
X660399D01*
Y202550D01*
X660122D01*
Y202688D01*
X659984D01*
Y202826D01*
X659708D01*
Y202965D01*
X659570D01*
Y203103D01*
X659293D01*
Y203241D01*
X659155D01*
Y203379D01*
X659017D01*
Y203517D01*
X658740D01*
Y203655D01*
X658602D01*
Y206281D01*
X693010D01*
Y186659D01*
D02*
G37*
G36*
X221832Y203655D02*
X221556D01*
Y203517D01*
X221418D01*
Y203379D01*
X221280D01*
Y203241D01*
X221003D01*
Y203103D01*
X220865D01*
Y202965D01*
X220589D01*
Y202826D01*
X220450D01*
Y202688D01*
X220312D01*
Y202550D01*
X220036D01*
Y202412D01*
X219898D01*
Y202274D01*
X219760D01*
Y202136D01*
X219483D01*
Y201997D01*
X219345D01*
Y201859D01*
X219069D01*
Y201721D01*
X218930D01*
Y201583D01*
X218792D01*
Y201445D01*
X218516D01*
Y201306D01*
X218378D01*
Y201168D01*
X218101D01*
Y201030D01*
X217963D01*
Y200892D01*
X217825D01*
Y200754D01*
X217549D01*
Y200616D01*
X217410D01*
Y200477D01*
X217272D01*
Y200339D01*
X216996D01*
Y200201D01*
X216858D01*
Y200063D01*
X216581D01*
Y199925D01*
X216443D01*
Y199786D01*
X216305D01*
Y199648D01*
X216029D01*
Y199510D01*
X215890D01*
Y199372D01*
X215752D01*
Y199234D01*
X215476D01*
Y199095D01*
X215338D01*
Y198957D01*
X215061D01*
Y198819D01*
X214923D01*
Y198681D01*
X214785D01*
Y198543D01*
X214509D01*
Y198405D01*
X214370D01*
Y198266D01*
X214232D01*
Y198128D01*
X213956D01*
Y197990D01*
X213818D01*
Y197852D01*
X213680D01*
Y197714D01*
X213403D01*
Y197575D01*
X213265D01*
Y197437D01*
X212989D01*
Y197299D01*
X212850D01*
Y197161D01*
X212712D01*
Y197023D01*
X212436D01*
Y196884D01*
X212298D01*
Y196746D01*
X212021D01*
Y196608D01*
X211883D01*
Y196470D01*
X211745D01*
Y196332D01*
X211469D01*
Y196194D01*
X211330D01*
Y196055D01*
X211054D01*
Y195917D01*
X210916D01*
Y195779D01*
X210778D01*
Y195641D01*
X210501D01*
Y195503D01*
X210363D01*
Y195364D01*
X210087D01*
Y195226D01*
X209949D01*
Y195088D01*
X209810D01*
Y194950D01*
X209534D01*
Y194812D01*
X209396D01*
Y194674D01*
X209119D01*
Y194535D01*
X208981D01*
Y194397D01*
X208843D01*
Y194259D01*
X208567D01*
Y194121D01*
X208428D01*
Y193983D01*
X208152D01*
Y193845D01*
X208014D01*
Y193706D01*
X207738D01*
Y193568D01*
X207599D01*
Y193430D01*
X207323D01*
Y193292D01*
X207185D01*
Y193154D01*
X206908D01*
Y193015D01*
X206632D01*
Y192877D01*
X206494D01*
Y192739D01*
X206217D01*
Y192601D01*
X206079D01*
Y192463D01*
X205803D01*
Y192325D01*
X205527D01*
Y192186D01*
X205388D01*
Y192048D01*
X205112D01*
Y191910D01*
X204836D01*
Y191772D01*
X204697D01*
Y191634D01*
X204421D01*
Y191495D01*
X204145D01*
Y191357D01*
X203868D01*
Y191219D01*
X203730D01*
Y191081D01*
X203454D01*
Y190943D01*
X203178D01*
Y190805D01*
X202901D01*
Y190666D01*
X202625D01*
Y190528D01*
X202348D01*
Y190390D01*
X202072D01*
Y190252D01*
X201796D01*
Y190114D01*
X201519D01*
Y189975D01*
X201243D01*
Y189837D01*
X200967D01*
Y189699D01*
X200690D01*
Y189561D01*
X200414D01*
Y189423D01*
X200138D01*
Y189284D01*
X199861D01*
Y189146D01*
X199585D01*
Y189008D01*
X199308D01*
Y188870D01*
X198894D01*
Y188732D01*
X198617D01*
Y188594D01*
X198341D01*
Y188455D01*
X197927D01*
Y188317D01*
X197650D01*
Y188179D01*
X197236D01*
Y188041D01*
X196821D01*
Y187903D01*
X196406D01*
Y187764D01*
X195992D01*
Y187626D01*
X195577D01*
Y187488D01*
X195025D01*
Y187350D01*
X194472D01*
Y187212D01*
X193781D01*
Y187073D01*
X192814D01*
Y186935D01*
X191847D01*
Y186797D01*
X190050D01*
Y186659D01*
X187425D01*
Y206281D01*
X221832D01*
Y203655D01*
D02*
G37*
G36*
X185490Y186659D02*
X182726D01*
Y186797D01*
X181068D01*
Y186935D01*
X179963D01*
Y187073D01*
X179134D01*
Y187212D01*
X178443D01*
Y187350D01*
X177890D01*
Y187488D01*
X177337D01*
Y187626D01*
X176923D01*
Y187764D01*
X176370D01*
Y187903D01*
X175955D01*
Y188041D01*
X175541D01*
Y188179D01*
X175264D01*
Y188317D01*
X174850D01*
Y188455D01*
X174573D01*
Y188594D01*
X174297D01*
Y188732D01*
X173883D01*
Y188870D01*
X173606D01*
Y189008D01*
X173330D01*
Y189146D01*
X173053D01*
Y189284D01*
X172777D01*
Y189423D01*
X172363D01*
Y189561D01*
X172086D01*
Y189699D01*
X171810D01*
Y189837D01*
X171534D01*
Y189975D01*
X171257D01*
Y190114D01*
X170981D01*
Y190252D01*
X170704D01*
Y190390D01*
X170428D01*
Y190528D01*
X170290D01*
Y190666D01*
X170014D01*
Y190805D01*
X169737D01*
Y190943D01*
X169461D01*
Y191081D01*
X169184D01*
Y191219D01*
X169046D01*
Y191357D01*
X168770D01*
Y191495D01*
X168493D01*
Y191634D01*
X168217D01*
Y191772D01*
X167941D01*
Y191910D01*
X167803D01*
Y192048D01*
X167526D01*
Y192186D01*
X167250D01*
Y192325D01*
X167112D01*
Y192463D01*
X166835D01*
Y192601D01*
X166559D01*
Y192739D01*
X166421D01*
Y192877D01*
X166144D01*
Y193015D01*
X166006D01*
Y193154D01*
X165730D01*
Y193292D01*
X165592D01*
Y193430D01*
X165315D01*
Y193568D01*
X165177D01*
Y193706D01*
X164901D01*
Y193845D01*
X164762D01*
Y193983D01*
X164486D01*
Y194121D01*
X164348D01*
Y194259D01*
X164072D01*
Y194397D01*
X163933D01*
Y194535D01*
X163657D01*
Y194674D01*
X163519D01*
Y194812D01*
X163242D01*
Y194950D01*
X163104D01*
Y195088D01*
X162966D01*
Y195226D01*
X162690D01*
Y195364D01*
X162551D01*
Y195503D01*
X162275D01*
Y195641D01*
X162137D01*
Y195779D01*
X161999D01*
Y195917D01*
X161722D01*
Y196055D01*
X161584D01*
Y196194D01*
X161446D01*
Y196332D01*
X161170D01*
Y196470D01*
X161031D01*
Y196608D01*
X160755D01*
Y196746D01*
X160617D01*
Y196884D01*
X160479D01*
Y197023D01*
X160202D01*
Y197161D01*
X160064D01*
Y197299D01*
X159926D01*
Y197437D01*
X159650D01*
Y197575D01*
X159511D01*
Y197714D01*
X159235D01*
Y197852D01*
X159097D01*
Y197990D01*
X158821D01*
Y198128D01*
X158682D01*
Y198266D01*
X158544D01*
Y198405D01*
X158268D01*
Y198543D01*
X158130D01*
Y198681D01*
X157992D01*
Y198819D01*
X157715D01*
Y198957D01*
X157577D01*
Y199095D01*
X157439D01*
Y199234D01*
X157162D01*
Y199372D01*
X157024D01*
Y199510D01*
X156748D01*
Y199648D01*
X156610D01*
Y199786D01*
X156472D01*
Y199925D01*
X156195D01*
Y200063D01*
X156057D01*
Y200201D01*
X155780D01*
Y200339D01*
X155642D01*
Y200477D01*
X155504D01*
Y200616D01*
X155228D01*
Y200754D01*
X155090D01*
Y200892D01*
X154951D01*
Y201030D01*
X154675D01*
Y201168D01*
X154537D01*
Y201306D01*
X154399D01*
Y201445D01*
X154122D01*
Y201583D01*
X153984D01*
Y201721D01*
X153708D01*
Y201859D01*
X153570D01*
Y201997D01*
X153431D01*
Y202136D01*
X153155D01*
Y202274D01*
X153017D01*
Y202412D01*
X152879D01*
Y202550D01*
X152602D01*
Y202688D01*
X152464D01*
Y202826D01*
X152188D01*
Y202965D01*
X152050D01*
Y203103D01*
X151773D01*
Y203241D01*
X151635D01*
Y203379D01*
X151497D01*
Y203517D01*
X151221D01*
Y203655D01*
X151082D01*
Y206281D01*
X185490D01*
Y186659D01*
D02*
G37*
G36*
X729352Y170906D02*
X694945D01*
Y184586D01*
X696465D01*
Y184724D01*
X698814D01*
Y184863D01*
X700057D01*
Y185001D01*
X701025D01*
Y185139D01*
X701716D01*
Y185277D01*
X702406D01*
Y185415D01*
X702959D01*
Y185553D01*
X703512D01*
Y185692D01*
X704065D01*
Y185830D01*
X704479D01*
Y185968D01*
X704894D01*
Y186106D01*
X705308D01*
Y186244D01*
X705585D01*
Y186383D01*
X705999D01*
Y186521D01*
X706414D01*
Y186659D01*
X706690D01*
Y186797D01*
X706967D01*
Y186935D01*
X707243D01*
Y187073D01*
X707657D01*
Y187212D01*
X707934D01*
Y187350D01*
X708210D01*
Y187488D01*
X708487D01*
Y187626D01*
X708763D01*
Y187764D01*
X709039D01*
Y187903D01*
X709454D01*
Y188041D01*
X709592D01*
Y188179D01*
X709868D01*
Y188317D01*
X710283D01*
Y188455D01*
X710421D01*
Y188594D01*
X710697D01*
Y188732D01*
X710974D01*
Y188870D01*
X711250D01*
Y189008D01*
X711527D01*
Y189146D01*
X711803D01*
Y189284D01*
X711941D01*
Y189423D01*
X712217D01*
Y189561D01*
X712494D01*
Y189699D01*
X712770D01*
Y189837D01*
X713047D01*
Y189975D01*
X713185D01*
Y190114D01*
X713461D01*
Y190252D01*
X713737D01*
Y190390D01*
X713876D01*
Y190528D01*
X714152D01*
Y190666D01*
X714428D01*
Y190805D01*
X714567D01*
Y190943D01*
X714843D01*
Y191081D01*
X715119D01*
Y191219D01*
X715258D01*
Y191357D01*
X715534D01*
Y191495D01*
X715672D01*
Y191634D01*
X715948D01*
Y191772D01*
X716225D01*
Y191910D01*
X716363D01*
Y192048D01*
X716501D01*
Y192186D01*
X716778D01*
Y192325D01*
X717054D01*
Y192463D01*
X717192D01*
Y192601D01*
X717468D01*
Y192739D01*
X717607D01*
Y192877D01*
X717745D01*
Y193015D01*
X718021D01*
Y193154D01*
X718159D01*
Y193292D01*
X718436D01*
Y193430D01*
X718574D01*
Y193568D01*
X718712D01*
Y193706D01*
X718988D01*
Y193845D01*
X719127D01*
Y193983D01*
X719403D01*
Y194121D01*
X719541D01*
Y194259D01*
X719679D01*
Y194397D01*
X719956D01*
Y194535D01*
X720094D01*
Y194674D01*
X720232D01*
Y194812D01*
X720508D01*
Y194950D01*
X720647D01*
Y195088D01*
X720923D01*
Y195226D01*
X721061D01*
Y195364D01*
X721199D01*
Y195503D01*
X721476D01*
Y195641D01*
X721614D01*
Y195779D01*
X721752D01*
Y195917D01*
X722029D01*
Y196055D01*
X722167D01*
Y196194D01*
X722443D01*
Y196332D01*
X722581D01*
Y196470D01*
X722719D01*
Y196608D01*
X722996D01*
Y196746D01*
X723134D01*
Y196884D01*
X723272D01*
Y197023D01*
X723549D01*
Y197161D01*
X723687D01*
Y197299D01*
X723963D01*
Y197437D01*
X724101D01*
Y197575D01*
X724240D01*
Y197714D01*
X724516D01*
Y197852D01*
X724654D01*
Y197990D01*
X724930D01*
Y198128D01*
X725069D01*
Y198266D01*
X725207D01*
Y198405D01*
X725483D01*
Y198543D01*
X725621D01*
Y198681D01*
X725760D01*
Y198819D01*
X726036D01*
Y198957D01*
X726174D01*
Y199095D01*
X726450D01*
Y199234D01*
X726589D01*
Y199372D01*
X726727D01*
Y199510D01*
X727003D01*
Y199648D01*
X727141D01*
Y199786D01*
X727418D01*
Y199925D01*
X727556D01*
Y200063D01*
X727694D01*
Y200201D01*
X727971D01*
Y200339D01*
X728109D01*
Y200477D01*
X728247D01*
Y200616D01*
X728523D01*
Y200754D01*
X728661D01*
Y200892D01*
X728938D01*
Y201030D01*
X729076D01*
Y201168D01*
X729352D01*
Y170906D01*
D02*
G37*
G36*
X658879Y201030D02*
X659017D01*
Y200892D01*
X659155D01*
Y200754D01*
X659431D01*
Y200616D01*
X659570D01*
Y200477D01*
X659846D01*
Y200339D01*
X659984D01*
Y200201D01*
X660260D01*
Y200063D01*
X660399D01*
Y199925D01*
X660537D01*
Y199786D01*
X660813D01*
Y199648D01*
X660951D01*
Y199510D01*
X661090D01*
Y199372D01*
X661366D01*
Y199234D01*
X661504D01*
Y199095D01*
X661780D01*
Y198957D01*
X661919D01*
Y198819D01*
X662057D01*
Y198681D01*
X662333D01*
Y198543D01*
X662471D01*
Y198405D01*
X662610D01*
Y198266D01*
X662886D01*
Y198128D01*
X663024D01*
Y197990D01*
X663300D01*
Y197852D01*
X663439D01*
Y197714D01*
X663577D01*
Y197575D01*
X663853D01*
Y197437D01*
X663991D01*
Y197299D01*
X664268D01*
Y197161D01*
X664406D01*
Y197023D01*
X664544D01*
Y196884D01*
X664820D01*
Y196746D01*
X664959D01*
Y196608D01*
X665097D01*
Y196470D01*
X665373D01*
Y196332D01*
X665511D01*
Y196194D01*
X665788D01*
Y196055D01*
X665926D01*
Y195917D01*
X666064D01*
Y195779D01*
X666341D01*
Y195641D01*
X666479D01*
Y195503D01*
X666617D01*
Y195364D01*
X666893D01*
Y195226D01*
X667031D01*
Y195088D01*
X667308D01*
Y194950D01*
X667446D01*
Y194812D01*
X667584D01*
Y194674D01*
X667861D01*
Y194535D01*
X667999D01*
Y194397D01*
X668137D01*
Y194259D01*
X668413D01*
Y194121D01*
X668551D01*
Y193983D01*
X668828D01*
Y193845D01*
X668966D01*
Y193706D01*
X669104D01*
Y193568D01*
X669381D01*
Y193430D01*
X669519D01*
Y193292D01*
X669795D01*
Y193154D01*
X669933D01*
Y193015D01*
X670071D01*
Y192877D01*
X670348D01*
Y192739D01*
X670486D01*
Y192601D01*
X670762D01*
Y192463D01*
X670901D01*
Y192325D01*
X671177D01*
Y192186D01*
X671315D01*
Y192048D01*
X671591D01*
Y191910D01*
X671730D01*
Y191772D01*
X672006D01*
Y191634D01*
X672144D01*
Y191495D01*
X672421D01*
Y191357D01*
X672697D01*
Y191219D01*
X672835D01*
Y191081D01*
X673112D01*
Y190943D01*
X673250D01*
Y190805D01*
X673526D01*
Y190666D01*
X673802D01*
Y190528D01*
X673941D01*
Y190390D01*
X674217D01*
Y190252D01*
X674493D01*
Y190114D01*
X674770D01*
Y189975D01*
X674908D01*
Y189837D01*
X675184D01*
Y189699D01*
X675461D01*
Y189561D01*
X675737D01*
Y189423D01*
X675875D01*
Y189284D01*
X676152D01*
Y189146D01*
X676428D01*
Y189008D01*
X676704D01*
Y188870D01*
X676981D01*
Y188732D01*
X677119D01*
Y188594D01*
X677533D01*
Y188455D01*
X677672D01*
Y188317D01*
X677948D01*
Y188179D01*
X678224D01*
Y188041D01*
X678501D01*
Y187903D01*
X678915D01*
Y187764D01*
X679053D01*
Y187626D01*
X679330D01*
Y187488D01*
X679744D01*
Y187350D01*
X680021D01*
Y187212D01*
X680297D01*
Y187073D01*
X680574D01*
Y186935D01*
X680850D01*
Y186797D01*
X681264D01*
Y186659D01*
X681541D01*
Y186521D01*
X681955D01*
Y186383D01*
X682232D01*
Y186244D01*
X682646D01*
Y186106D01*
X683061D01*
Y185968D01*
X683475D01*
Y185830D01*
X683890D01*
Y185692D01*
X684443D01*
Y185553D01*
X684857D01*
Y185415D01*
X685548D01*
Y185277D01*
X686101D01*
Y185139D01*
X686930D01*
Y185001D01*
X687897D01*
Y184863D01*
X689141D01*
Y184724D01*
X690937D01*
Y184586D01*
X691075D01*
Y184724D01*
X691352D01*
Y184586D01*
X692872D01*
Y170906D01*
X658602D01*
Y201168D01*
X658879D01*
Y201030D01*
D02*
G37*
G36*
X221832Y170906D02*
X187425D01*
Y184586D01*
X188945D01*
Y184724D01*
X191294D01*
Y184863D01*
X192537D01*
Y185001D01*
X193505D01*
Y185139D01*
X194196D01*
Y185277D01*
X194886D01*
Y185415D01*
X195439D01*
Y185553D01*
X195992D01*
Y185692D01*
X196545D01*
Y185830D01*
X196959D01*
Y185968D01*
X197374D01*
Y186106D01*
X197788D01*
Y186244D01*
X198065D01*
Y186383D01*
X198479D01*
Y186521D01*
X198894D01*
Y186659D01*
X199170D01*
Y186797D01*
X199447D01*
Y186935D01*
X199723D01*
Y187073D01*
X200138D01*
Y187212D01*
X200414D01*
Y187350D01*
X200690D01*
Y187488D01*
X200967D01*
Y187626D01*
X201243D01*
Y187764D01*
X201519D01*
Y187903D01*
X201934D01*
Y188041D01*
X202072D01*
Y188179D01*
X202348D01*
Y188317D01*
X202763D01*
Y188455D01*
X202901D01*
Y188594D01*
X203178D01*
Y188732D01*
X203454D01*
Y188870D01*
X203730D01*
Y189008D01*
X204007D01*
Y189146D01*
X204283D01*
Y189284D01*
X204421D01*
Y189423D01*
X204697D01*
Y189561D01*
X204974D01*
Y189699D01*
X205250D01*
Y189837D01*
X205527D01*
Y189975D01*
X205665D01*
Y190114D01*
X205941D01*
Y190252D01*
X206217D01*
Y190390D01*
X206356D01*
Y190528D01*
X206632D01*
Y190666D01*
X206908D01*
Y190805D01*
X207047D01*
Y190943D01*
X207323D01*
Y191081D01*
X207599D01*
Y191219D01*
X207738D01*
Y191357D01*
X208014D01*
Y191495D01*
X208152D01*
Y191634D01*
X208428D01*
Y191772D01*
X208705D01*
Y191910D01*
X208843D01*
Y192048D01*
X208981D01*
Y192186D01*
X209258D01*
Y192325D01*
X209534D01*
Y192463D01*
X209672D01*
Y192601D01*
X209949D01*
Y192739D01*
X210087D01*
Y192877D01*
X210225D01*
Y193015D01*
X210501D01*
Y193154D01*
X210639D01*
Y193292D01*
X210916D01*
Y193430D01*
X211054D01*
Y193568D01*
X211192D01*
Y193706D01*
X211469D01*
Y193845D01*
X211607D01*
Y193983D01*
X211883D01*
Y194121D01*
X212021D01*
Y194259D01*
X212159D01*
Y194397D01*
X212436D01*
Y194535D01*
X212574D01*
Y194674D01*
X212712D01*
Y194812D01*
X212989D01*
Y194950D01*
X213127D01*
Y195088D01*
X213403D01*
Y195226D01*
X213541D01*
Y195364D01*
X213680D01*
Y195503D01*
X213956D01*
Y195641D01*
X214094D01*
Y195779D01*
X214232D01*
Y195917D01*
X214509D01*
Y196055D01*
X214647D01*
Y196194D01*
X214923D01*
Y196332D01*
X215061D01*
Y196470D01*
X215200D01*
Y196608D01*
X215476D01*
Y196746D01*
X215614D01*
Y196884D01*
X215752D01*
Y197023D01*
X216029D01*
Y197161D01*
X216167D01*
Y197299D01*
X216443D01*
Y197437D01*
X216581D01*
Y197575D01*
X216719D01*
Y197714D01*
X216996D01*
Y197852D01*
X217134D01*
Y197990D01*
X217410D01*
Y198128D01*
X217549D01*
Y198266D01*
X217687D01*
Y198405D01*
X217963D01*
Y198543D01*
X218101D01*
Y198681D01*
X218239D01*
Y198819D01*
X218516D01*
Y198957D01*
X218654D01*
Y199095D01*
X218930D01*
Y199234D01*
X219069D01*
Y199372D01*
X219207D01*
Y199510D01*
X219483D01*
Y199648D01*
X219621D01*
Y199786D01*
X219898D01*
Y199925D01*
X220036D01*
Y200063D01*
X220174D01*
Y200201D01*
X220450D01*
Y200339D01*
X220589D01*
Y200477D01*
X220727D01*
Y200616D01*
X221003D01*
Y200754D01*
X221141D01*
Y200892D01*
X221418D01*
Y201030D01*
X221556D01*
Y201168D01*
X221832D01*
Y170906D01*
D02*
G37*
G36*
X151359Y201030D02*
X151497D01*
Y200892D01*
X151635D01*
Y200754D01*
X151911D01*
Y200616D01*
X152050D01*
Y200477D01*
X152326D01*
Y200339D01*
X152464D01*
Y200201D01*
X152740D01*
Y200063D01*
X152879D01*
Y199925D01*
X153017D01*
Y199786D01*
X153293D01*
Y199648D01*
X153431D01*
Y199510D01*
X153570D01*
Y199372D01*
X153846D01*
Y199234D01*
X153984D01*
Y199095D01*
X154261D01*
Y198957D01*
X154399D01*
Y198819D01*
X154537D01*
Y198681D01*
X154813D01*
Y198543D01*
X154951D01*
Y198405D01*
X155090D01*
Y198266D01*
X155366D01*
Y198128D01*
X155504D01*
Y197990D01*
X155780D01*
Y197852D01*
X155919D01*
Y197714D01*
X156057D01*
Y197575D01*
X156333D01*
Y197437D01*
X156472D01*
Y197299D01*
X156748D01*
Y197161D01*
X156886D01*
Y197023D01*
X157024D01*
Y196884D01*
X157301D01*
Y196746D01*
X157439D01*
Y196608D01*
X157577D01*
Y196470D01*
X157853D01*
Y196332D01*
X157992D01*
Y196194D01*
X158268D01*
Y196055D01*
X158406D01*
Y195917D01*
X158544D01*
Y195779D01*
X158821D01*
Y195641D01*
X158959D01*
Y195503D01*
X159097D01*
Y195364D01*
X159373D01*
Y195226D01*
X159511D01*
Y195088D01*
X159788D01*
Y194950D01*
X159926D01*
Y194812D01*
X160064D01*
Y194674D01*
X160341D01*
Y194535D01*
X160479D01*
Y194397D01*
X160617D01*
Y194259D01*
X160893D01*
Y194121D01*
X161031D01*
Y193983D01*
X161308D01*
Y193845D01*
X161446D01*
Y193706D01*
X161584D01*
Y193568D01*
X161861D01*
Y193430D01*
X161999D01*
Y193292D01*
X162275D01*
Y193154D01*
X162413D01*
Y193015D01*
X162551D01*
Y192877D01*
X162828D01*
Y192739D01*
X162966D01*
Y192601D01*
X163242D01*
Y192463D01*
X163381D01*
Y192325D01*
X163657D01*
Y192186D01*
X163795D01*
Y192048D01*
X164072D01*
Y191910D01*
X164210D01*
Y191772D01*
X164486D01*
Y191634D01*
X164624D01*
Y191495D01*
X164901D01*
Y191357D01*
X165177D01*
Y191219D01*
X165315D01*
Y191081D01*
X165592D01*
Y190943D01*
X165730D01*
Y190805D01*
X166006D01*
Y190666D01*
X166283D01*
Y190528D01*
X166421D01*
Y190390D01*
X166697D01*
Y190252D01*
X166973D01*
Y190114D01*
X167250D01*
Y189975D01*
X167388D01*
Y189837D01*
X167664D01*
Y189699D01*
X167941D01*
Y189561D01*
X168217D01*
Y189423D01*
X168355D01*
Y189284D01*
X168632D01*
Y189146D01*
X168908D01*
Y189008D01*
X169184D01*
Y188870D01*
X169461D01*
Y188732D01*
X169599D01*
Y188594D01*
X170014D01*
Y188455D01*
X170152D01*
Y188317D01*
X170428D01*
Y188179D01*
X170704D01*
Y188041D01*
X170981D01*
Y187903D01*
X171395D01*
Y187764D01*
X171534D01*
Y187626D01*
X171810D01*
Y187488D01*
X172224D01*
Y187350D01*
X172501D01*
Y187212D01*
X172777D01*
Y187073D01*
X173053D01*
Y186935D01*
X173330D01*
Y186797D01*
X173744D01*
Y186659D01*
X174021D01*
Y186521D01*
X174435D01*
Y186383D01*
X174712D01*
Y186244D01*
X175126D01*
Y186106D01*
X175541D01*
Y185968D01*
X175955D01*
Y185830D01*
X176370D01*
Y185692D01*
X176923D01*
Y185553D01*
X177337D01*
Y185415D01*
X178028D01*
Y185277D01*
X178581D01*
Y185139D01*
X179410D01*
Y185001D01*
X180377D01*
Y184863D01*
X181621D01*
Y184724D01*
X183417D01*
Y184586D01*
X183555D01*
Y184724D01*
X183832D01*
Y184586D01*
X185352D01*
Y170906D01*
X151082D01*
Y201168D01*
X151359D01*
Y201030D01*
D02*
G37*
G36*
X698814Y156673D02*
X699781D01*
Y156535D01*
X700196D01*
Y156397D01*
X700610D01*
Y156259D01*
X700887D01*
Y156120D01*
X701025D01*
Y155982D01*
X701301D01*
Y155844D01*
X701439D01*
Y155706D01*
X701577D01*
Y155568D01*
X701716D01*
Y155429D01*
X701854D01*
Y155291D01*
X701992D01*
Y155153D01*
X702130D01*
Y154877D01*
X702268D01*
Y154739D01*
X702406D01*
Y154462D01*
X702545D01*
Y154186D01*
X702683D01*
Y153771D01*
X702821D01*
Y153218D01*
X702959D01*
Y152389D01*
X703097D01*
Y141473D01*
X702959D01*
Y141335D01*
X698676D01*
Y141473D01*
X698537D01*
Y151699D01*
X698399D01*
Y152113D01*
X698261D01*
Y152389D01*
X698123D01*
Y152666D01*
X697985D01*
Y152804D01*
X697846D01*
Y152942D01*
X697708D01*
Y153080D01*
X697570D01*
Y153218D01*
X697156D01*
Y153357D01*
X695497D01*
Y153218D01*
X695083D01*
Y153080D01*
X694806D01*
Y152942D01*
X694668D01*
Y152804D01*
X694530D01*
Y152666D01*
X694392D01*
Y152528D01*
X694254D01*
Y152389D01*
X694116D01*
Y152113D01*
X693977D01*
Y151837D01*
X693839D01*
Y151422D01*
X693701D01*
Y151008D01*
X693563D01*
Y150178D01*
X693425D01*
Y141335D01*
X689141D01*
Y141473D01*
X689003D01*
Y156535D01*
X693148D01*
Y155982D01*
X693286D01*
Y154324D01*
X693425D01*
Y153771D01*
X693563D01*
Y153909D01*
X693701D01*
Y154186D01*
X693839D01*
Y154462D01*
X693977D01*
Y154739D01*
X694116D01*
Y154877D01*
X694254D01*
Y155153D01*
X694392D01*
Y155291D01*
X694530D01*
Y155429D01*
X694668D01*
Y155568D01*
X694806D01*
Y155706D01*
X694945D01*
Y155844D01*
X695221D01*
Y155982D01*
X695359D01*
Y156120D01*
X695636D01*
Y156259D01*
X695912D01*
Y156397D01*
X696326D01*
Y156535D01*
X696741D01*
Y156673D01*
X697708D01*
Y156811D01*
X698814D01*
Y156673D01*
D02*
G37*
G36*
X191294D02*
X192261D01*
Y156535D01*
X192676D01*
Y156397D01*
X193090D01*
Y156259D01*
X193367D01*
Y156120D01*
X193505D01*
Y155982D01*
X193781D01*
Y155844D01*
X193919D01*
Y155706D01*
X194057D01*
Y155568D01*
X194196D01*
Y155429D01*
X194334D01*
Y155291D01*
X194472D01*
Y155153D01*
X194610D01*
Y154877D01*
X194748D01*
Y154739D01*
X194886D01*
Y154462D01*
X195025D01*
Y154186D01*
X195163D01*
Y153771D01*
X195301D01*
Y153218D01*
X195439D01*
Y152389D01*
X195577D01*
Y141473D01*
X195439D01*
Y141335D01*
X191155D01*
Y141473D01*
X191017D01*
Y151699D01*
X190879D01*
Y152113D01*
X190741D01*
Y152389D01*
X190603D01*
Y152666D01*
X190465D01*
Y152804D01*
X190326D01*
Y152942D01*
X190188D01*
Y153080D01*
X190050D01*
Y153218D01*
X189636D01*
Y153357D01*
X187977D01*
Y153218D01*
X187563D01*
Y153080D01*
X187286D01*
Y152942D01*
X187148D01*
Y152804D01*
X187010D01*
Y152666D01*
X186872D01*
Y152528D01*
X186734D01*
Y152389D01*
X186595D01*
Y152113D01*
X186457D01*
Y151837D01*
X186319D01*
Y151422D01*
X186181D01*
Y151008D01*
X186043D01*
Y150178D01*
X185905D01*
Y141335D01*
X181621D01*
Y141473D01*
X181483D01*
Y156535D01*
X185628D01*
Y155982D01*
X185766D01*
Y154324D01*
X185905D01*
Y153771D01*
X186043D01*
Y153909D01*
X186181D01*
Y154186D01*
X186319D01*
Y154462D01*
X186457D01*
Y154739D01*
X186595D01*
Y154877D01*
X186734D01*
Y155153D01*
X186872D01*
Y155291D01*
X187010D01*
Y155429D01*
X187148D01*
Y155568D01*
X187286D01*
Y155706D01*
X187425D01*
Y155844D01*
X187701D01*
Y155982D01*
X187839D01*
Y156120D01*
X188116D01*
Y156259D01*
X188392D01*
Y156397D01*
X188806D01*
Y156535D01*
X189221D01*
Y156673D01*
X190188D01*
Y156811D01*
X191294D01*
Y156673D01*
D02*
G37*
G36*
X782503Y208508D02*
X785012D01*
Y208090D01*
X786684D01*
Y207672D01*
X787939D01*
Y207254D01*
X789193D01*
Y206835D01*
X790030D01*
Y206417D01*
X791284D01*
Y205999D01*
X791702D01*
Y205581D01*
X792957D01*
Y205163D01*
X793375D01*
Y204745D01*
X794211D01*
Y204327D01*
X795047D01*
Y203908D01*
X795466D01*
Y203490D01*
X795884D01*
Y203072D01*
X796720D01*
Y202654D01*
X797138D01*
Y202236D01*
X797556D01*
Y201818D01*
X798393D01*
Y201399D01*
X798811D01*
Y200981D01*
X799229D01*
Y200563D01*
X799647D01*
Y200145D01*
X800065D01*
Y199727D01*
X800483D01*
Y199309D01*
X800901D01*
Y198891D01*
X801320D01*
Y198472D01*
X801738D01*
Y197636D01*
X802156D01*
Y197218D01*
X802574D01*
Y196800D01*
X802992D01*
Y195964D01*
X803410D01*
Y195546D01*
X803829D01*
Y194709D01*
X804247D01*
Y194291D01*
X804665D01*
Y193455D01*
X805083D01*
Y192619D01*
X805501D01*
Y191782D01*
X805919D01*
Y190946D01*
X806337D01*
Y190110D01*
X806756D01*
Y188855D01*
X807174D01*
Y187601D01*
X807592D01*
Y185928D01*
X808010D01*
Y183837D01*
X808428D01*
Y178820D01*
X808846D01*
Y178401D01*
X808428D01*
Y174220D01*
X808010D01*
Y172129D01*
X807592D01*
Y170457D01*
X807174D01*
Y169202D01*
X806756D01*
Y168366D01*
X806337D01*
Y167111D01*
X805919D01*
Y166275D01*
X805501D01*
Y165439D01*
X805083D01*
Y164603D01*
X804665D01*
Y164184D01*
X804247D01*
Y163348D01*
X803829D01*
Y162512D01*
X803410D01*
Y162094D01*
X802992D01*
Y161676D01*
X802574D01*
Y160839D01*
X802156D01*
Y160421D01*
X801738D01*
Y160003D01*
X801320D01*
Y159585D01*
X800901D01*
Y159167D01*
X800483D01*
Y158330D01*
X800065D01*
Y157912D01*
X799647D01*
Y157494D01*
X798811D01*
Y157076D01*
X798393D01*
Y156658D01*
X797974D01*
Y156240D01*
X797556D01*
Y155822D01*
X797138D01*
Y155403D01*
X796302D01*
Y154985D01*
X795884D01*
Y154567D01*
X795466D01*
Y154149D01*
X794629D01*
Y153731D01*
X793793D01*
Y153313D01*
X793375D01*
Y152894D01*
X792539D01*
Y152476D01*
X791702D01*
Y152058D01*
X790866D01*
Y151640D01*
X790030D01*
Y151222D01*
X788775D01*
Y150804D01*
X787521D01*
Y150386D01*
X786266D01*
Y149967D01*
X784594D01*
Y149549D01*
X781667D01*
Y149131D01*
X774140D01*
Y149549D01*
X771213D01*
Y149967D01*
X769959D01*
Y150386D01*
X768286D01*
Y150804D01*
X767032D01*
Y151222D01*
X766195D01*
Y151640D01*
X764941D01*
Y152058D01*
X764105D01*
Y152476D01*
X763268D01*
Y152894D01*
X762432D01*
Y153313D01*
X762014D01*
Y153731D01*
X761178D01*
Y154149D01*
X760759D01*
Y154567D01*
X759923D01*
Y154985D01*
X759505D01*
Y155403D01*
X758669D01*
Y155822D01*
X758251D01*
Y156240D01*
X757832D01*
Y156658D01*
X757414D01*
Y157076D01*
X756996D01*
Y157494D01*
X756578D01*
Y157912D01*
X756160D01*
Y158330D01*
X755742D01*
Y158749D01*
X755323D01*
Y159167D01*
X754905D01*
Y159585D01*
X754487D01*
Y160003D01*
X754069D01*
Y160421D01*
X753651D01*
Y160839D01*
X753233D01*
Y161676D01*
X752814D01*
Y162094D01*
X752396D01*
Y162930D01*
X751978D01*
Y163348D01*
X751560D01*
Y164184D01*
X751142D01*
Y165021D01*
X750724D01*
Y165857D01*
X750306D01*
Y166275D01*
X749887D01*
Y167111D01*
X749469D01*
Y168366D01*
X749051D01*
Y169620D01*
X748633D01*
Y170875D01*
X748215D01*
Y172547D01*
X747797D01*
Y174638D01*
X747379D01*
Y183419D01*
X747797D01*
Y185928D01*
X748215D01*
Y187183D01*
X748633D01*
Y188437D01*
X749051D01*
Y189691D01*
X749469D01*
Y190946D01*
X749887D01*
Y191782D01*
X750306D01*
Y192619D01*
X750724D01*
Y193455D01*
X751142D01*
Y193873D01*
X751560D01*
Y194709D01*
X751978D01*
Y195546D01*
X752396D01*
Y195964D01*
X752814D01*
Y196382D01*
X753233D01*
Y197218D01*
X753651D01*
Y197636D01*
X754069D01*
Y198054D01*
X754487D01*
Y198472D01*
X754905D01*
Y199309D01*
X755323D01*
Y199727D01*
X755742D01*
Y200145D01*
X756160D01*
Y200563D01*
X756578D01*
Y200981D01*
X757414D01*
Y201399D01*
X757832D01*
Y201818D01*
X758251D01*
Y202236D01*
X758669D01*
Y202654D01*
X759087D01*
Y203072D01*
X759923D01*
Y203490D01*
X760341D01*
Y203908D01*
X761178D01*
Y204327D01*
X761596D01*
Y204745D01*
X762432D01*
Y205163D01*
X763268D01*
Y205581D01*
X764105D01*
Y205999D01*
X764941D01*
Y206417D01*
X765777D01*
Y206835D01*
X767032D01*
Y207254D01*
X767868D01*
Y207672D01*
X769122D01*
Y208090D01*
X770795D01*
Y208508D01*
X773304D01*
Y208926D01*
X782503D01*
Y208508D01*
D02*
G37*
G36*
X274983D02*
X277492D01*
Y208090D01*
X279165D01*
Y207672D01*
X280419D01*
Y207254D01*
X281673D01*
Y206835D01*
X282510D01*
Y206417D01*
X283764D01*
Y205999D01*
X284182D01*
Y205581D01*
X285437D01*
Y205163D01*
X285855D01*
Y204745D01*
X286691D01*
Y204327D01*
X287527D01*
Y203908D01*
X287946D01*
Y203490D01*
X288364D01*
Y203072D01*
X289200D01*
Y202654D01*
X289618D01*
Y202236D01*
X290036D01*
Y201818D01*
X290873D01*
Y201399D01*
X291291D01*
Y200981D01*
X291709D01*
Y200563D01*
X292127D01*
Y200145D01*
X292545D01*
Y199727D01*
X292963D01*
Y199309D01*
X293382D01*
Y198891D01*
X293800D01*
Y198472D01*
X294218D01*
Y197636D01*
X294636D01*
Y197218D01*
X295054D01*
Y196800D01*
X295472D01*
Y195964D01*
X295890D01*
Y195546D01*
X296308D01*
Y194709D01*
X296727D01*
Y194291D01*
X297145D01*
Y193455D01*
X297563D01*
Y192619D01*
X297981D01*
Y191782D01*
X298399D01*
Y190946D01*
X298817D01*
Y190110D01*
X299236D01*
Y188855D01*
X299654D01*
Y187601D01*
X300072D01*
Y185928D01*
X300490D01*
Y183837D01*
X300908D01*
Y178820D01*
X301326D01*
Y178401D01*
X300908D01*
Y174220D01*
X300490D01*
Y172129D01*
X300072D01*
Y170457D01*
X299654D01*
Y169202D01*
X299236D01*
Y168366D01*
X298817D01*
Y167111D01*
X298399D01*
Y166275D01*
X297981D01*
Y165439D01*
X297563D01*
Y164603D01*
X297145D01*
Y164184D01*
X296727D01*
Y163348D01*
X296308D01*
Y162512D01*
X295890D01*
Y162094D01*
X295472D01*
Y161676D01*
X295054D01*
Y160839D01*
X294636D01*
Y160421D01*
X294218D01*
Y160003D01*
X293800D01*
Y159585D01*
X293382D01*
Y159167D01*
X292963D01*
Y158330D01*
X292545D01*
Y157912D01*
X292127D01*
Y157494D01*
X291291D01*
Y157076D01*
X290873D01*
Y156658D01*
X290455D01*
Y156240D01*
X290036D01*
Y155822D01*
X289618D01*
Y155403D01*
X288782D01*
Y154985D01*
X288364D01*
Y154567D01*
X287946D01*
Y154149D01*
X287109D01*
Y153731D01*
X286273D01*
Y153313D01*
X285855D01*
Y152894D01*
X285019D01*
Y152476D01*
X284182D01*
Y152058D01*
X283346D01*
Y151640D01*
X282510D01*
Y151222D01*
X281255D01*
Y150804D01*
X280001D01*
Y150386D01*
X278746D01*
Y149967D01*
X277074D01*
Y149549D01*
X274147D01*
Y149131D01*
X266620D01*
Y149549D01*
X263693D01*
Y149967D01*
X262439D01*
Y150386D01*
X260766D01*
Y150804D01*
X259512D01*
Y151222D01*
X258675D01*
Y151640D01*
X257421D01*
Y152058D01*
X256585D01*
Y152476D01*
X255748D01*
Y152894D01*
X254912D01*
Y153313D01*
X254494D01*
Y153731D01*
X253657D01*
Y154149D01*
X253239D01*
Y154567D01*
X252403D01*
Y154985D01*
X251985D01*
Y155403D01*
X251149D01*
Y155822D01*
X250730D01*
Y156240D01*
X250312D01*
Y156658D01*
X249894D01*
Y157076D01*
X249476D01*
Y157494D01*
X249058D01*
Y157912D01*
X248640D01*
Y158330D01*
X248222D01*
Y158749D01*
X247803D01*
Y159167D01*
X247385D01*
Y159585D01*
X246967D01*
Y160003D01*
X246549D01*
Y160421D01*
X246131D01*
Y160839D01*
X245713D01*
Y161676D01*
X245295D01*
Y162094D01*
X244876D01*
Y162930D01*
X244458D01*
Y163348D01*
X244040D01*
Y164184D01*
X243622D01*
Y165021D01*
X243204D01*
Y165857D01*
X242786D01*
Y166275D01*
X242367D01*
Y167111D01*
X241949D01*
Y168366D01*
X241531D01*
Y169620D01*
X241113D01*
Y170875D01*
X240695D01*
Y172547D01*
X240277D01*
Y174638D01*
X239859D01*
Y183419D01*
X240277D01*
Y185928D01*
X240695D01*
Y187183D01*
X241113D01*
Y188437D01*
X241531D01*
Y189691D01*
X241949D01*
Y190946D01*
X242367D01*
Y191782D01*
X242786D01*
Y192619D01*
X243204D01*
Y193455D01*
X243622D01*
Y193873D01*
X244040D01*
Y194709D01*
X244458D01*
Y195546D01*
X244876D01*
Y195964D01*
X245295D01*
Y196382D01*
X245713D01*
Y197218D01*
X246131D01*
Y197636D01*
X246549D01*
Y198054D01*
X246967D01*
Y198472D01*
X247385D01*
Y199309D01*
X247803D01*
Y199727D01*
X248222D01*
Y200145D01*
X248640D01*
Y200563D01*
X249058D01*
Y200981D01*
X249894D01*
Y201399D01*
X250312D01*
Y201818D01*
X250730D01*
Y202236D01*
X251149D01*
Y202654D01*
X251567D01*
Y203072D01*
X252403D01*
Y203490D01*
X252821D01*
Y203908D01*
X253657D01*
Y204327D01*
X254076D01*
Y204745D01*
X254912D01*
Y205163D01*
X255748D01*
Y205581D01*
X256585D01*
Y205999D01*
X257421D01*
Y206417D01*
X258257D01*
Y206835D01*
X259512D01*
Y207254D01*
X260348D01*
Y207672D01*
X261602D01*
Y208090D01*
X263275D01*
Y208508D01*
X265784D01*
Y208926D01*
X274983D01*
Y208508D01*
D02*
G37*
G36*
X685272Y147691D02*
X685134D01*
Y146724D01*
X684995D01*
Y146171D01*
X684857D01*
Y145757D01*
X684719D01*
Y145342D01*
X684581D01*
Y145066D01*
X684443D01*
Y144789D01*
X684304D01*
Y144513D01*
X684166D01*
Y144237D01*
X684028D01*
Y144098D01*
X683890D01*
Y143822D01*
X683752D01*
Y143684D01*
X683614D01*
Y143546D01*
X683475D01*
Y143407D01*
X683337D01*
Y143269D01*
X683199D01*
Y143131D01*
X683061D01*
Y142993D01*
X682923D01*
Y142855D01*
X682784D01*
Y142717D01*
X682508D01*
Y142578D01*
X682370D01*
Y142440D01*
X682094D01*
Y142302D01*
X681955D01*
Y142164D01*
X681679D01*
Y142026D01*
X681403D01*
Y141888D01*
X680988D01*
Y141749D01*
X680712D01*
Y141611D01*
X680159D01*
Y141473D01*
X679744D01*
Y141335D01*
X678915D01*
Y141196D01*
X677672D01*
Y141058D01*
X676013D01*
Y141196D01*
X674632D01*
Y141335D01*
X673941D01*
Y141473D01*
X673388D01*
Y141611D01*
X672973D01*
Y141749D01*
X672559D01*
Y141888D01*
X672282D01*
Y142026D01*
X672006D01*
Y142164D01*
X671730D01*
Y142302D01*
X671453D01*
Y142440D01*
X671315D01*
Y142578D01*
X671039D01*
Y142717D01*
X670901D01*
Y142855D01*
X670762D01*
Y142993D01*
X670624D01*
Y143131D01*
X670486D01*
Y143269D01*
X670348D01*
Y143407D01*
X670210D01*
Y143546D01*
X670071D01*
Y143684D01*
X669933D01*
Y143822D01*
X669795D01*
Y144098D01*
X669657D01*
Y144237D01*
X669519D01*
Y144513D01*
X669381D01*
Y144651D01*
X669242D01*
Y145066D01*
X669104D01*
Y145342D01*
X668966D01*
Y145618D01*
X668828D01*
Y146171D01*
X668690D01*
Y146724D01*
X668551D01*
Y147691D01*
X668413D01*
Y160957D01*
X668551D01*
Y161095D01*
X672835D01*
Y160957D01*
X672973D01*
Y147691D01*
X673112D01*
Y147138D01*
X673250D01*
Y146724D01*
X673388D01*
Y146447D01*
X673526D01*
Y146171D01*
X673664D01*
Y146033D01*
X673802D01*
Y145895D01*
X673941D01*
Y145618D01*
X674217D01*
Y145480D01*
X674355D01*
Y145342D01*
X674493D01*
Y145204D01*
X674632D01*
Y145066D01*
X674908D01*
Y144928D01*
X675322D01*
Y144789D01*
X675875D01*
Y144651D01*
X677948D01*
Y144789D01*
X678501D01*
Y144928D01*
X678777D01*
Y145066D01*
X679053D01*
Y145204D01*
X679192D01*
Y145342D01*
X679468D01*
Y145480D01*
X679606D01*
Y145618D01*
X679744D01*
Y145757D01*
X679883D01*
Y146033D01*
X680021D01*
Y146171D01*
X680159D01*
Y146447D01*
X680297D01*
Y146862D01*
X680435D01*
Y147277D01*
X680574D01*
Y147829D01*
X680712D01*
Y160957D01*
X680850D01*
Y161095D01*
X685272D01*
Y147691D01*
D02*
G37*
G36*
X177752D02*
X177614D01*
Y146724D01*
X177475D01*
Y146171D01*
X177337D01*
Y145757D01*
X177199D01*
Y145342D01*
X177061D01*
Y145066D01*
X176923D01*
Y144789D01*
X176784D01*
Y144513D01*
X176646D01*
Y144237D01*
X176508D01*
Y144098D01*
X176370D01*
Y143822D01*
X176232D01*
Y143684D01*
X176094D01*
Y143546D01*
X175955D01*
Y143407D01*
X175817D01*
Y143269D01*
X175679D01*
Y143131D01*
X175541D01*
Y142993D01*
X175403D01*
Y142855D01*
X175264D01*
Y142717D01*
X174988D01*
Y142578D01*
X174850D01*
Y142440D01*
X174573D01*
Y142302D01*
X174435D01*
Y142164D01*
X174159D01*
Y142026D01*
X173883D01*
Y141888D01*
X173468D01*
Y141749D01*
X173192D01*
Y141611D01*
X172639D01*
Y141473D01*
X172224D01*
Y141335D01*
X171395D01*
Y141196D01*
X170152D01*
Y141058D01*
X168493D01*
Y141196D01*
X167112D01*
Y141335D01*
X166421D01*
Y141473D01*
X165868D01*
Y141611D01*
X165453D01*
Y141749D01*
X165039D01*
Y141888D01*
X164762D01*
Y142026D01*
X164486D01*
Y142164D01*
X164210D01*
Y142302D01*
X163933D01*
Y142440D01*
X163795D01*
Y142578D01*
X163519D01*
Y142717D01*
X163381D01*
Y142855D01*
X163242D01*
Y142993D01*
X163104D01*
Y143131D01*
X162966D01*
Y143269D01*
X162828D01*
Y143407D01*
X162690D01*
Y143546D01*
X162551D01*
Y143684D01*
X162413D01*
Y143822D01*
X162275D01*
Y144098D01*
X162137D01*
Y144237D01*
X161999D01*
Y144513D01*
X161861D01*
Y144651D01*
X161722D01*
Y145066D01*
X161584D01*
Y145342D01*
X161446D01*
Y145618D01*
X161308D01*
Y146171D01*
X161170D01*
Y146724D01*
X161031D01*
Y147691D01*
X160893D01*
Y160957D01*
X161031D01*
Y161095D01*
X165315D01*
Y160957D01*
X165453D01*
Y147691D01*
X165592D01*
Y147138D01*
X165730D01*
Y146724D01*
X165868D01*
Y146447D01*
X166006D01*
Y146171D01*
X166144D01*
Y146033D01*
X166283D01*
Y145895D01*
X166421D01*
Y145618D01*
X166697D01*
Y145480D01*
X166835D01*
Y145342D01*
X166973D01*
Y145204D01*
X167112D01*
Y145066D01*
X167388D01*
Y144928D01*
X167803D01*
Y144789D01*
X168355D01*
Y144651D01*
X170428D01*
Y144789D01*
X170981D01*
Y144928D01*
X171257D01*
Y145066D01*
X171534D01*
Y145204D01*
X171672D01*
Y145342D01*
X171948D01*
Y145480D01*
X172086D01*
Y145618D01*
X172224D01*
Y145757D01*
X172363D01*
Y146033D01*
X172501D01*
Y146171D01*
X172639D01*
Y146447D01*
X172777D01*
Y146862D01*
X172915D01*
Y147277D01*
X173053D01*
Y147829D01*
X173192D01*
Y160957D01*
X173330D01*
Y161095D01*
X177752D01*
Y147691D01*
D02*
G37*
G36*
X714567Y160957D02*
X715948D01*
Y160819D01*
X716639D01*
Y160680D01*
X717192D01*
Y160542D01*
X717607D01*
Y160404D01*
X718021D01*
Y160266D01*
X718298D01*
Y160128D01*
X718574D01*
Y159990D01*
X718712D01*
Y159851D01*
X718988D01*
Y159713D01*
X719127D01*
Y159575D01*
X719403D01*
Y159437D01*
X719541D01*
Y159299D01*
X719679D01*
Y159160D01*
X719818D01*
Y159022D01*
X719956D01*
Y158746D01*
X720094D01*
Y158608D01*
X720232D01*
Y158331D01*
X720370D01*
Y158055D01*
X720508D01*
Y157640D01*
X720647D01*
Y157226D01*
X720785D01*
Y155015D01*
X720647D01*
Y154462D01*
X720508D01*
Y154186D01*
X720370D01*
Y153909D01*
X720232D01*
Y153633D01*
X720094D01*
Y153495D01*
X719956D01*
Y153218D01*
X719818D01*
Y153080D01*
X719679D01*
Y152942D01*
X719541D01*
Y152804D01*
X719265D01*
Y152666D01*
X719127D01*
Y152528D01*
X718850D01*
Y152389D01*
X718574D01*
Y152251D01*
X718298D01*
Y152113D01*
X718021D01*
Y151975D01*
X717607D01*
Y151837D01*
X717745D01*
Y151699D01*
X718298D01*
Y151560D01*
X718712D01*
Y151422D01*
X719127D01*
Y151284D01*
X719403D01*
Y151146D01*
X719679D01*
Y151008D01*
X719956D01*
Y150869D01*
X720094D01*
Y150731D01*
X720370D01*
Y150593D01*
X720508D01*
Y150455D01*
X720647D01*
Y150317D01*
X720785D01*
Y150178D01*
X720923D01*
Y150040D01*
X721061D01*
Y149764D01*
X721199D01*
Y149626D01*
X721338D01*
Y149349D01*
X721476D01*
Y149073D01*
X721614D01*
Y148659D01*
X721752D01*
Y148244D01*
X721890D01*
Y145757D01*
X721752D01*
Y145204D01*
X721614D01*
Y144789D01*
X721476D01*
Y144513D01*
X721338D01*
Y144237D01*
X721199D01*
Y144098D01*
X721061D01*
Y143822D01*
X720923D01*
Y143684D01*
X720785D01*
Y143546D01*
X720647D01*
Y143407D01*
X720508D01*
Y143269D01*
X720370D01*
Y143131D01*
X720232D01*
Y142993D01*
X720094D01*
Y142855D01*
X719818D01*
Y142717D01*
X719679D01*
Y142578D01*
X719403D01*
Y142440D01*
X719265D01*
Y142302D01*
X718850D01*
Y142164D01*
X718574D01*
Y142026D01*
X718159D01*
Y141888D01*
X717745D01*
Y141749D01*
X717192D01*
Y141611D01*
X716501D01*
Y141473D01*
X715119D01*
Y141335D01*
X706967D01*
Y141473D01*
X706828D01*
Y153909D01*
Y154048D01*
Y161095D01*
X714567D01*
Y160957D01*
D02*
G37*
G36*
X207047D02*
X208428D01*
Y160819D01*
X209119D01*
Y160680D01*
X209672D01*
Y160542D01*
X210087D01*
Y160404D01*
X210501D01*
Y160266D01*
X210778D01*
Y160128D01*
X211054D01*
Y159990D01*
X211192D01*
Y159851D01*
X211469D01*
Y159713D01*
X211607D01*
Y159575D01*
X211883D01*
Y159437D01*
X212021D01*
Y159299D01*
X212159D01*
Y159160D01*
X212298D01*
Y159022D01*
X212436D01*
Y158746D01*
X212574D01*
Y158608D01*
X212712D01*
Y158331D01*
X212850D01*
Y158055D01*
X212989D01*
Y157640D01*
X213127D01*
Y157226D01*
X213265D01*
Y155015D01*
X213127D01*
Y154462D01*
X212989D01*
Y154186D01*
X212850D01*
Y153909D01*
X212712D01*
Y153633D01*
X212574D01*
Y153495D01*
X212436D01*
Y153218D01*
X212298D01*
Y153080D01*
X212159D01*
Y152942D01*
X212021D01*
Y152804D01*
X211745D01*
Y152666D01*
X211607D01*
Y152528D01*
X211330D01*
Y152389D01*
X211054D01*
Y152251D01*
X210778D01*
Y152113D01*
X210501D01*
Y151975D01*
X210087D01*
Y151837D01*
X210225D01*
Y151699D01*
X210778D01*
Y151560D01*
X211192D01*
Y151422D01*
X211607D01*
Y151284D01*
X211883D01*
Y151146D01*
X212159D01*
Y151008D01*
X212436D01*
Y150869D01*
X212574D01*
Y150731D01*
X212850D01*
Y150593D01*
X212989D01*
Y150455D01*
X213127D01*
Y150317D01*
X213265D01*
Y150178D01*
X213403D01*
Y150040D01*
X213541D01*
Y149764D01*
X213680D01*
Y149626D01*
X213818D01*
Y149349D01*
X213956D01*
Y149073D01*
X214094D01*
Y148659D01*
X214232D01*
Y148244D01*
X214370D01*
Y145757D01*
X214232D01*
Y145204D01*
X214094D01*
Y144789D01*
X213956D01*
Y144513D01*
X213818D01*
Y144237D01*
X213680D01*
Y144098D01*
X213541D01*
Y143822D01*
X213403D01*
Y143684D01*
X213265D01*
Y143546D01*
X213127D01*
Y143407D01*
X212989D01*
Y143269D01*
X212850D01*
Y143131D01*
X212712D01*
Y142993D01*
X212574D01*
Y142855D01*
X212298D01*
Y142717D01*
X212159D01*
Y142578D01*
X211883D01*
Y142440D01*
X211745D01*
Y142302D01*
X211330D01*
Y142164D01*
X211054D01*
Y142026D01*
X210639D01*
Y141888D01*
X210225D01*
Y141749D01*
X209672D01*
Y141611D01*
X208981D01*
Y141473D01*
X207599D01*
Y141335D01*
X199447D01*
Y141473D01*
X199308D01*
Y153909D01*
Y154048D01*
Y161095D01*
X207047D01*
Y160957D01*
D02*
G37*
%LPC*%
G36*
X764325Y542086D02*
X763671D01*
Y540778D01*
X763017D01*
Y539470D01*
X762363D01*
Y538162D01*
X761709D01*
Y537508D01*
X761055D01*
Y536199D01*
X760400D01*
Y535545D01*
X766942D01*
Y536853D01*
X766288D01*
Y538162D01*
X765633D01*
Y539470D01*
X764979D01*
Y540778D01*
X764325D01*
Y542086D01*
D02*
G37*
G36*
X256805D02*
X256151D01*
Y540778D01*
X255497D01*
Y539470D01*
X254843D01*
Y538162D01*
X254189D01*
Y537508D01*
X253535D01*
Y536199D01*
X252880D01*
Y535545D01*
X259422D01*
Y536853D01*
X258768D01*
Y538162D01*
X258113D01*
Y539470D01*
X257459D01*
Y540778D01*
X256805D01*
Y542086D01*
D02*
G37*
G36*
X791702Y200145D02*
X791284D01*
Y199727D01*
X786266D01*
Y198891D01*
X785848D01*
Y198054D01*
X785430D01*
Y196800D01*
X785012D01*
Y195964D01*
X784594D01*
Y194709D01*
X784176D01*
Y193455D01*
X783757D01*
Y192200D01*
X783339D01*
Y190946D01*
X782921D01*
Y189691D01*
X782503D01*
Y188437D01*
X782085D01*
Y187183D01*
X781667D01*
Y185928D01*
X781249D01*
Y184674D01*
X780830D01*
Y183001D01*
X780412D01*
Y181747D01*
X779994D01*
Y180492D01*
X779576D01*
Y178820D01*
X779158D01*
Y177565D01*
X778740D01*
Y177147D01*
X778322D01*
Y180492D01*
X777903D01*
Y183001D01*
X777485D01*
Y185510D01*
X777067D01*
Y187601D01*
X776649D01*
Y189691D01*
X776231D01*
Y191364D01*
X775813D01*
Y193037D01*
X775395D01*
Y194709D01*
X774976D01*
Y195546D01*
X774558D01*
Y196800D01*
X774140D01*
Y197636D01*
X773722D01*
Y198054D01*
X773304D01*
Y198891D01*
X772886D01*
Y199309D01*
X772049D01*
Y199727D01*
X771213D01*
Y200145D01*
X767868D01*
Y199727D01*
X767032D01*
Y199309D01*
X766613D01*
Y198891D01*
X766195D01*
Y198472D01*
X765777D01*
Y198054D01*
X765359D01*
Y197218D01*
X764941D01*
Y196382D01*
X764523D01*
Y194709D01*
X764105D01*
Y190110D01*
X765777D01*
Y192619D01*
X766195D01*
Y193455D01*
X766613D01*
Y194291D01*
X767032D01*
Y194709D01*
X767450D01*
Y195127D01*
X770795D01*
Y194709D01*
X771213D01*
Y194291D01*
X771631D01*
Y193873D01*
X772049D01*
Y193455D01*
X772467D01*
Y193037D01*
X772886D01*
Y192200D01*
X773304D01*
Y190946D01*
X773722D01*
Y189691D01*
X774140D01*
Y187601D01*
X774558D01*
Y185510D01*
X774976D01*
Y183419D01*
X775395D01*
Y180910D01*
X775813D01*
Y178401D01*
X776231D01*
Y175893D01*
X776649D01*
Y172966D01*
X777067D01*
Y171293D01*
X776649D01*
Y170457D01*
X776231D01*
Y169620D01*
X775813D01*
Y168784D01*
X775395D01*
Y167948D01*
X774976D01*
Y166693D01*
X774558D01*
Y165439D01*
X774140D01*
Y164184D01*
X773722D01*
Y162930D01*
X773304D01*
Y160839D01*
X772886D01*
Y157912D01*
X773304D01*
Y156658D01*
X773722D01*
Y156240D01*
X774140D01*
Y155822D01*
X774976D01*
Y155403D01*
X776649D01*
Y155822D01*
X777485D01*
Y156240D01*
X777903D01*
Y156658D01*
X778322D01*
Y157912D01*
X778740D01*
Y159167D01*
X779158D01*
Y162512D01*
X779576D01*
Y168366D01*
X779158D01*
Y172966D01*
X779576D01*
Y173802D01*
X779994D01*
Y174638D01*
X780412D01*
Y175474D01*
X780830D01*
Y176729D01*
X781249D01*
Y177565D01*
X781667D01*
Y178401D01*
X782085D01*
Y179238D01*
X782503D01*
Y180074D01*
X782921D01*
Y180910D01*
X783339D01*
Y181747D01*
X783757D01*
Y183001D01*
X784176D01*
Y183837D01*
X784594D01*
Y184674D01*
X785012D01*
Y185510D01*
X785430D01*
Y186346D01*
X785848D01*
Y187183D01*
X786266D01*
Y188437D01*
X786684D01*
Y189273D01*
X787103D01*
Y190110D01*
X787521D01*
Y190946D01*
X787939D01*
Y191782D01*
X788357D01*
Y192619D01*
X788775D01*
Y193455D01*
X789193D01*
Y194291D01*
X789612D01*
Y195127D01*
X790030D01*
Y195964D01*
X790448D01*
Y196800D01*
X790866D01*
Y197636D01*
X791284D01*
Y198472D01*
X791702D01*
Y199309D01*
X792120D01*
Y199727D01*
X791702D01*
Y200145D01*
D02*
G37*
G36*
X284182D02*
X283764D01*
Y199727D01*
X278746D01*
Y198891D01*
X278328D01*
Y198054D01*
X277910D01*
Y196800D01*
X277492D01*
Y195964D01*
X277074D01*
Y194709D01*
X276656D01*
Y193455D01*
X276238D01*
Y192200D01*
X275819D01*
Y190946D01*
X275401D01*
Y189691D01*
X274983D01*
Y188437D01*
X274565D01*
Y187183D01*
X274147D01*
Y185928D01*
X273729D01*
Y184674D01*
X273310D01*
Y183001D01*
X272892D01*
Y181747D01*
X272474D01*
Y180492D01*
X272056D01*
Y178820D01*
X271638D01*
Y177565D01*
X271220D01*
Y177147D01*
X270802D01*
Y180492D01*
X270383D01*
Y183001D01*
X269965D01*
Y185510D01*
X269547D01*
Y187601D01*
X269129D01*
Y189691D01*
X268711D01*
Y191364D01*
X268293D01*
Y193037D01*
X267875D01*
Y194709D01*
X267456D01*
Y195546D01*
X267038D01*
Y196800D01*
X266620D01*
Y197636D01*
X266202D01*
Y198054D01*
X265784D01*
Y198891D01*
X265366D01*
Y199309D01*
X264529D01*
Y199727D01*
X263693D01*
Y200145D01*
X260348D01*
Y199727D01*
X259512D01*
Y199309D01*
X259093D01*
Y198891D01*
X258675D01*
Y198472D01*
X258257D01*
Y198054D01*
X257839D01*
Y197218D01*
X257421D01*
Y196382D01*
X257003D01*
Y194709D01*
X256585D01*
Y190110D01*
X258257D01*
Y192619D01*
X258675D01*
Y193455D01*
X259093D01*
Y194291D01*
X259512D01*
Y194709D01*
X259930D01*
Y195127D01*
X263275D01*
Y194709D01*
X263693D01*
Y194291D01*
X264111D01*
Y193873D01*
X264529D01*
Y193455D01*
X264947D01*
Y193037D01*
X265366D01*
Y192200D01*
X265784D01*
Y190946D01*
X266202D01*
Y189691D01*
X266620D01*
Y187601D01*
X267038D01*
Y185510D01*
X267456D01*
Y183419D01*
X267875D01*
Y180910D01*
X268293D01*
Y178401D01*
X268711D01*
Y175893D01*
X269129D01*
Y172966D01*
X269547D01*
Y171293D01*
X269129D01*
Y170457D01*
X268711D01*
Y169620D01*
X268293D01*
Y168784D01*
X267875D01*
Y167948D01*
X267456D01*
Y166693D01*
X267038D01*
Y165439D01*
X266620D01*
Y164184D01*
X266202D01*
Y162930D01*
X265784D01*
Y160839D01*
X265366D01*
Y157912D01*
X265784D01*
Y156658D01*
X266202D01*
Y156240D01*
X266620D01*
Y155822D01*
X267456D01*
Y155403D01*
X269129D01*
Y155822D01*
X269965D01*
Y156240D01*
X270383D01*
Y156658D01*
X270802D01*
Y157912D01*
X271220D01*
Y159167D01*
X271638D01*
Y162512D01*
X272056D01*
Y168366D01*
X271638D01*
Y172966D01*
X272056D01*
Y173802D01*
X272474D01*
Y174638D01*
X272892D01*
Y175474D01*
X273310D01*
Y176729D01*
X273729D01*
Y177565D01*
X274147D01*
Y178401D01*
X274565D01*
Y179238D01*
X274983D01*
Y180074D01*
X275401D01*
Y180910D01*
X275819D01*
Y181747D01*
X276238D01*
Y183001D01*
X276656D01*
Y183837D01*
X277074D01*
Y184674D01*
X277492D01*
Y185510D01*
X277910D01*
Y186346D01*
X278328D01*
Y187183D01*
X278746D01*
Y188437D01*
X279165D01*
Y189273D01*
X279583D01*
Y190110D01*
X280001D01*
Y190946D01*
X280419D01*
Y191782D01*
X280837D01*
Y192619D01*
X281255D01*
Y193455D01*
X281673D01*
Y194291D01*
X282092D01*
Y195127D01*
X282510D01*
Y195964D01*
X282928D01*
Y196800D01*
X283346D01*
Y197636D01*
X283764D01*
Y198472D01*
X284182D01*
Y199309D01*
X284600D01*
Y199727D01*
X284182D01*
Y200145D01*
D02*
G37*
G36*
X713599Y157917D02*
X713185D01*
Y157779D01*
X713047D01*
Y157917D01*
X711388D01*
Y157779D01*
X711250D01*
Y153218D01*
X714014D01*
Y153357D01*
X714705D01*
Y153495D01*
X715119D01*
Y153633D01*
X715396D01*
Y153771D01*
X715672D01*
Y153909D01*
X715810D01*
Y154048D01*
X715948D01*
Y154324D01*
X716087D01*
Y154600D01*
X716225D01*
Y155015D01*
X716363D01*
Y156120D01*
X716225D01*
Y156535D01*
X716087D01*
Y156811D01*
X715948D01*
Y157088D01*
X715810D01*
Y157226D01*
X715672D01*
Y157364D01*
X715396D01*
Y157502D01*
X715119D01*
Y157640D01*
X714567D01*
Y157779D01*
X713599D01*
Y157917D01*
D02*
G37*
G36*
X714981Y149902D02*
X711250D01*
Y147138D01*
Y147000D01*
Y144651D01*
X714981D01*
Y144789D01*
X715534D01*
Y144928D01*
X715948D01*
Y145066D01*
X716225D01*
Y145204D01*
X716501D01*
Y145342D01*
X716639D01*
Y145480D01*
X716778D01*
Y145618D01*
X716916D01*
Y145757D01*
X717054D01*
Y146033D01*
X717192D01*
Y146309D01*
X717330D01*
Y147000D01*
X717468D01*
Y147553D01*
X717330D01*
Y148244D01*
X717192D01*
Y148520D01*
X717054D01*
Y148797D01*
X716916D01*
Y148935D01*
X716778D01*
Y149073D01*
X716639D01*
Y149211D01*
X716501D01*
Y149349D01*
X716225D01*
Y149488D01*
X715948D01*
Y149626D01*
X715534D01*
Y149764D01*
X714981D01*
Y149902D01*
D02*
G37*
G36*
X206079Y157917D02*
X205665D01*
Y157779D01*
X205527D01*
Y157917D01*
X203868D01*
Y157779D01*
X203730D01*
Y153218D01*
X206494D01*
Y153357D01*
X207185D01*
Y153495D01*
X207599D01*
Y153633D01*
X207876D01*
Y153771D01*
X208152D01*
Y153909D01*
X208290D01*
Y154048D01*
X208428D01*
Y154324D01*
X208567D01*
Y154600D01*
X208705D01*
Y155015D01*
X208843D01*
Y156120D01*
X208705D01*
Y156535D01*
X208567D01*
Y156811D01*
X208428D01*
Y157088D01*
X208290D01*
Y157226D01*
X208152D01*
Y157364D01*
X207876D01*
Y157502D01*
X207599D01*
Y157640D01*
X207047D01*
Y157779D01*
X206079D01*
Y157917D01*
D02*
G37*
G36*
X207461Y149902D02*
X203730D01*
Y147138D01*
Y147000D01*
Y144651D01*
X207461D01*
Y144789D01*
X208014D01*
Y144928D01*
X208428D01*
Y145066D01*
X208705D01*
Y145204D01*
X208981D01*
Y145342D01*
X209119D01*
Y145480D01*
X209258D01*
Y145618D01*
X209396D01*
Y145757D01*
X209534D01*
Y146033D01*
X209672D01*
Y146309D01*
X209810D01*
Y147000D01*
X209949D01*
Y147553D01*
X209810D01*
Y148244D01*
X209672D01*
Y148520D01*
X209534D01*
Y148797D01*
X209396D01*
Y148935D01*
X209258D01*
Y149073D01*
X209119D01*
Y149211D01*
X208981D01*
Y149349D01*
X208705D01*
Y149488D01*
X208428D01*
Y149626D01*
X208014D01*
Y149764D01*
X207461D01*
Y149902D01*
D02*
G37*
%LPD*%
D35*
X392840Y560670D02*
G03*
X392840Y560670I-2000J0D01*
G01*
X107740D02*
G03*
X107740Y560670I-2000J0D01*
G01*
X241740Y53670D02*
X251740D01*
X358740Y134670D02*
X395740D01*
Y163670D01*
X141490Y500970D02*
Y508970D01*
X356490D01*
Y490970D02*
Y508970D01*
Y270970D02*
Y500970D01*
X141490Y239970D02*
Y500970D01*
Y239970D02*
X356490D01*
Y270970D01*
X339372Y197774D02*
X352068D01*
X354608Y200313D01*
Y205392D01*
X352068Y207931D01*
X339372D01*
X354608Y223166D02*
Y213009D01*
X344451Y223166D01*
X341912D01*
X339372Y220627D01*
Y215548D01*
X341912Y213009D01*
X442280Y479680D02*
X451277D01*
Y475181D01*
X449778Y473682D01*
X446779D01*
X445279Y475181D01*
Y479680D01*
X448278Y469183D02*
Y466184D01*
X446779Y464685D01*
X442280D01*
Y469183D01*
X443779Y470683D01*
X445279Y469183D01*
Y464685D01*
X449778Y460186D02*
X448278D01*
Y461686D01*
Y458687D01*
Y460186D01*
X443779D01*
X442280Y458687D01*
X448278Y454188D02*
X442280D01*
X445279D01*
X446779Y452689D01*
X448278Y451189D01*
Y449690D01*
X442280Y443692D02*
Y440693D01*
X443779Y439193D01*
X446779D01*
X448278Y440693D01*
Y443692D01*
X446779Y445191D01*
X443779D01*
X442280Y443692D01*
X448278Y430196D02*
Y434695D01*
X446779Y436194D01*
X443779D01*
X442280Y434695D01*
Y430196D01*
Y427197D02*
Y424198D01*
Y425697D01*
X448278D01*
Y427197D01*
X442280Y419699D02*
X448278D01*
Y415201D01*
X446779Y413701D01*
X442280D01*
Y410702D02*
Y407703D01*
Y409203D01*
X448278D01*
Y410702D01*
X442280Y401705D02*
Y398706D01*
X443779Y397207D01*
X446779D01*
X448278Y398706D01*
Y401705D01*
X446779Y403205D01*
X443779D01*
X442280Y401705D01*
X451277Y379212D02*
X442280D01*
Y383711D01*
X443779Y385211D01*
X446779D01*
X448278Y383711D01*
Y379212D01*
X442280Y371715D02*
Y374714D01*
X443779Y376213D01*
X446779D01*
X448278Y374714D01*
Y371715D01*
X446779Y370215D01*
X445279D01*
Y376213D01*
X442280Y358219D02*
X451277D01*
X448278Y355220D01*
X451277Y352221D01*
X442280D01*
X448278Y347723D02*
Y344724D01*
X446779Y343224D01*
X442280D01*
Y347723D01*
X443779Y349222D01*
X445279Y347723D01*
Y343224D01*
X448278Y340225D02*
X442280D01*
X445279D01*
X446779Y338726D01*
X448278Y337226D01*
Y335727D01*
X442280Y331228D02*
Y328229D01*
Y329729D01*
X448278D01*
Y331228D01*
X442280Y322231D02*
Y319232D01*
X443779Y317732D01*
X446779D01*
X448278Y319232D01*
Y322231D01*
X446779Y323731D01*
X443779D01*
X442280Y322231D01*
Y305736D02*
X451277D01*
Y301238D01*
X449778Y299738D01*
X446779D01*
X445279Y301238D01*
Y305736D01*
X448278Y295240D02*
Y292241D01*
X446779Y290741D01*
X442280D01*
Y295240D01*
X443779Y296739D01*
X445279Y295240D01*
Y290741D01*
X442280Y287742D02*
Y283244D01*
X443779Y281744D01*
X445279Y283244D01*
Y286243D01*
X446779Y287742D01*
X448278Y286243D01*
Y281744D01*
X449778Y277246D02*
X448278D01*
Y278745D01*
Y275746D01*
Y277246D01*
X443779D01*
X442280Y275746D01*
X448278Y271248D02*
X442280D01*
X445279D01*
X446779Y269748D01*
X448278Y268248D01*
Y266749D01*
Y260751D02*
Y257752D01*
X446779Y256252D01*
X442280D01*
Y260751D01*
X443779Y262250D01*
X445279Y260751D01*
Y256252D01*
X442280Y253253D02*
X448278D01*
Y248755D01*
X446779Y247255D01*
X442280D01*
X448278Y242757D02*
Y239758D01*
X446779Y238258D01*
X442280D01*
Y242757D01*
X443779Y244256D01*
X445279Y242757D01*
Y238258D01*
X467276Y479930D02*
X458279D01*
Y475431D01*
X459779Y473932D01*
X465777D01*
X467276Y475431D01*
Y479930D01*
X458279Y466434D02*
Y469433D01*
X459779Y470933D01*
X462777D01*
X464277Y469433D01*
Y466434D01*
X462777Y464935D01*
X461278D01*
Y470933D01*
X458279Y461936D02*
Y457437D01*
X459779Y455938D01*
X461278Y457437D01*
Y460436D01*
X462777Y461936D01*
X464277Y460436D01*
Y455938D01*
X458279Y452939D02*
Y449940D01*
Y451439D01*
X464277D01*
Y452939D01*
X455280Y442442D02*
Y440943D01*
X456780Y439443D01*
X464277D01*
Y443942D01*
X462777Y445441D01*
X459779D01*
X458279Y443942D01*
Y439443D01*
Y436444D02*
X464277D01*
Y431945D01*
X462777Y430446D01*
X458279D01*
X455280Y418450D02*
X464277D01*
Y413951D01*
X462777Y412452D01*
X459779D01*
X458279Y413951D01*
Y418450D01*
Y407953D02*
Y404954D01*
X459779Y403455D01*
X462777D01*
X464277Y404954D01*
Y407953D01*
X462777Y409453D01*
X459779D01*
X458279Y407953D01*
X464277Y400456D02*
X458279D01*
X461278D01*
X462777Y398956D01*
X464277Y397457D01*
Y395957D01*
Y391459D02*
Y389959D01*
X462777D01*
Y391459D01*
X464277D01*
X459779D02*
Y389959D01*
X458279D01*
Y391459D01*
X459779D01*
X458279Y374964D02*
X467276D01*
X464277Y371965D01*
X467276Y368966D01*
X458279D01*
X464277Y364467D02*
Y361468D01*
X462777Y359969D01*
X458279D01*
Y364467D01*
X459779Y365967D01*
X461278Y364467D01*
Y359969D01*
X465777Y355470D02*
X464277D01*
Y356970D01*
Y353971D01*
Y355470D01*
X459779D01*
X458279Y353971D01*
X464277Y343474D02*
Y347973D01*
X462777Y349472D01*
X459779D01*
X458279Y347973D01*
Y343474D01*
X467276Y340475D02*
X458279D01*
X462777D01*
X464277Y338976D01*
Y335977D01*
X462777Y334477D01*
X458279D01*
X464277Y331478D02*
X459779D01*
X458279Y329978D01*
Y325480D01*
X464277D01*
Y320981D02*
Y317982D01*
X462777Y316483D01*
X458279D01*
Y320981D01*
X459779Y322481D01*
X461278Y320981D01*
Y316483D01*
X458279Y313484D02*
X464277D01*
Y308985D01*
X462777Y307486D01*
X458279D01*
Y302987D02*
Y299988D01*
X459779Y298489D01*
X462777D01*
X464277Y299988D01*
Y302987D01*
X462777Y304487D01*
X459779D01*
X458279Y302987D01*
X462777Y286493D02*
X464277D01*
Y284993D01*
X462777D01*
Y286493D01*
X459779D02*
Y284993D01*
X458279D01*
X456780Y286493D01*
X458279Y284993D02*
Y286493D01*
X459779D01*
X458279Y278995D02*
X467276D01*
Y274496D01*
X465777Y272997D01*
X462777D01*
X461278Y274496D01*
Y278995D01*
X466943Y166930D02*
Y160266D01*
Y163598D01*
X456946D01*
X466943Y156933D02*
Y150269D01*
Y153601D01*
X456946D01*
X461945Y146936D02*
Y140272D01*
X466943Y130275D02*
Y136940D01*
X456946D01*
Y130275D01*
X461945Y136940D02*
Y133607D01*
X466943Y126943D02*
Y120278D01*
Y123611D01*
X456946D01*
X455280Y116946D02*
Y110282D01*
X466943Y106949D02*
X460278D01*
X456946Y103617D01*
X460278Y100285D01*
X466943D01*
X465277Y90288D02*
X466943Y91954D01*
Y95286D01*
X465277Y96952D01*
X463611D01*
X461945Y95286D01*
Y91954D01*
X460278Y90288D01*
X458612D01*
X456946Y91954D01*
Y95286D01*
X458612Y96952D01*
X465277Y80291D02*
X466943Y81957D01*
Y85290D01*
X465277Y86956D01*
X463611D01*
X461945Y85290D01*
Y81957D01*
X460278Y80291D01*
X458612D01*
X456946Y81957D01*
Y85290D01*
X458612Y86956D01*
X465277Y70294D02*
X466943Y71961D01*
Y75293D01*
X465277Y76959D01*
X463611D01*
X461945Y75293D01*
Y71961D01*
X460278Y70294D01*
X458612D01*
X456946Y71961D01*
Y75293D01*
X458612Y76959D01*
X461945Y66962D02*
Y60298D01*
X456946Y56965D02*
X466943D01*
X463611Y53633D01*
X466943Y50301D01*
X456946D01*
X463611Y45303D02*
Y41970D01*
X461945Y40304D01*
X456946D01*
Y45303D01*
X458612Y46969D01*
X460278Y45303D01*
Y40304D01*
X456946Y36972D02*
Y33640D01*
Y35306D01*
X463611D01*
Y36972D01*
X456946Y28641D02*
X463611D01*
Y23643D01*
X461945Y21977D01*
X456946D01*
X151044Y234088D02*
Y221392D01*
X153583Y218853D01*
X158662D01*
X161201Y221392D01*
Y234088D01*
X166279Y231548D02*
X168818Y234088D01*
X173897D01*
X176436Y231548D01*
Y229009D01*
X173897Y226470D01*
X171357D01*
X173897D01*
X176436Y223931D01*
Y221392D01*
X173897Y218853D01*
X168818D01*
X166279Y221392D01*
X156833Y76337D02*
Y63642D01*
X159373Y61102D01*
X164451D01*
X166990Y63642D01*
Y76337D01*
X172068Y61102D02*
X177147D01*
X174608D01*
Y76337D01*
X172068Y73798D01*
X81123Y496627D02*
X96357D01*
Y489009D01*
X93818Y486470D01*
X88740D01*
X86201Y489009D01*
Y496627D01*
Y491548D02*
X81123Y486470D01*
Y481392D02*
Y476313D01*
Y478852D01*
X96357D01*
X93818Y481392D01*
X448372Y518916D02*
X463608D01*
Y511298D01*
X461068Y508759D01*
X455990D01*
X453451Y511298D01*
Y518916D01*
X461068Y503681D02*
X463608Y501142D01*
Y496063D01*
X461068Y493524D01*
X458529D01*
X455990Y496063D01*
Y498602D01*
Y496063D01*
X453451Y493524D01*
X450912D01*
X448372Y496063D01*
Y501142D01*
X450912Y503681D01*
X32108Y249024D02*
X16872D01*
Y256642D01*
X19412Y259181D01*
X24490D01*
X27029Y256642D01*
Y249024D01*
X32108Y274416D02*
Y264259D01*
X21951Y274416D01*
X19412D01*
X16872Y271877D01*
Y266798D01*
X19412Y264259D01*
X33358Y127063D02*
X18122D01*
Y134681D01*
X20662Y137220D01*
X25740D01*
X28279Y134681D01*
Y127063D01*
X33358Y142298D02*
Y147377D01*
Y144838D01*
X18122D01*
X20662Y142298D01*
X99358Y546377D02*
X84122D01*
Y538759D01*
X86662Y536220D01*
X96818D01*
X99358Y538759D01*
Y546377D01*
X84122Y531142D02*
Y526063D01*
Y528602D01*
X99358D01*
X96818Y531142D01*
X900360Y560670D02*
G03*
X900360Y560670I-2000J0D01*
G01*
X615260D02*
G03*
X615260Y560670I-2000J0D01*
G01*
X749260Y53670D02*
X759260D01*
X866260Y134670D02*
X903260D01*
Y163670D01*
X649010Y500970D02*
Y508970D01*
X864010D01*
Y490970D02*
Y508970D01*
Y270970D02*
Y500970D01*
X649010Y239970D02*
Y500970D01*
Y239970D02*
X864010D01*
Y270970D01*
X846892Y197774D02*
X859588D01*
X862128Y200313D01*
Y205392D01*
X859588Y207931D01*
X846892D01*
X862128Y223166D02*
Y213009D01*
X851971Y223166D01*
X849432D01*
X846892Y220627D01*
Y215548D01*
X849432Y213009D01*
X949800Y479680D02*
X958797D01*
Y475181D01*
X957298Y473682D01*
X954298D01*
X952799Y475181D01*
Y479680D01*
X955798Y469183D02*
Y466184D01*
X954298Y464685D01*
X949800D01*
Y469183D01*
X951300Y470683D01*
X952799Y469183D01*
Y464685D01*
X957298Y460186D02*
X955798D01*
Y461686D01*
Y458687D01*
Y460186D01*
X951300D01*
X949800Y458687D01*
X955798Y454188D02*
X949800D01*
X952799D01*
X954298Y452689D01*
X955798Y451189D01*
Y449690D01*
X949800Y443692D02*
Y440693D01*
X951300Y439193D01*
X954298D01*
X955798Y440693D01*
Y443692D01*
X954298Y445191D01*
X951300D01*
X949800Y443692D01*
X955798Y430196D02*
Y434695D01*
X954298Y436194D01*
X951300D01*
X949800Y434695D01*
Y430196D01*
Y427197D02*
Y424198D01*
Y425697D01*
X955798D01*
Y427197D01*
X949800Y419699D02*
X955798D01*
Y415201D01*
X954298Y413701D01*
X949800D01*
Y410702D02*
Y407703D01*
Y409203D01*
X955798D01*
Y410702D01*
X949800Y401705D02*
Y398706D01*
X951300Y397207D01*
X954298D01*
X955798Y398706D01*
Y401705D01*
X954298Y403205D01*
X951300D01*
X949800Y401705D01*
X958797Y379212D02*
X949800D01*
Y383711D01*
X951300Y385211D01*
X954298D01*
X955798Y383711D01*
Y379212D01*
X949800Y371715D02*
Y374714D01*
X951300Y376213D01*
X954298D01*
X955798Y374714D01*
Y371715D01*
X954298Y370215D01*
X952799D01*
Y376213D01*
X949800Y358219D02*
X958797D01*
X955798Y355220D01*
X958797Y352221D01*
X949800D01*
X955798Y347723D02*
Y344724D01*
X954298Y343224D01*
X949800D01*
Y347723D01*
X951300Y349222D01*
X952799Y347723D01*
Y343224D01*
X955798Y340225D02*
X949800D01*
X952799D01*
X954298Y338726D01*
X955798Y337226D01*
Y335727D01*
X949800Y331228D02*
Y328229D01*
Y329729D01*
X955798D01*
Y331228D01*
X949800Y322231D02*
Y319232D01*
X951300Y317732D01*
X954298D01*
X955798Y319232D01*
Y322231D01*
X954298Y323731D01*
X951300D01*
X949800Y322231D01*
Y305736D02*
X958797D01*
Y301238D01*
X957298Y299738D01*
X954298D01*
X952799Y301238D01*
Y305736D01*
X955798Y295240D02*
Y292241D01*
X954298Y290741D01*
X949800D01*
Y295240D01*
X951300Y296739D01*
X952799Y295240D01*
Y290741D01*
X949800Y287742D02*
Y283244D01*
X951300Y281744D01*
X952799Y283244D01*
Y286243D01*
X954298Y287742D01*
X955798Y286243D01*
Y281744D01*
X957298Y277246D02*
X955798D01*
Y278745D01*
Y275746D01*
Y277246D01*
X951300D01*
X949800Y275746D01*
X955798Y271248D02*
X949800D01*
X952799D01*
X954298Y269748D01*
X955798Y268248D01*
Y266749D01*
Y260751D02*
Y257752D01*
X954298Y256252D01*
X949800D01*
Y260751D01*
X951300Y262250D01*
X952799Y260751D01*
Y256252D01*
X949800Y253253D02*
X955798D01*
Y248755D01*
X954298Y247255D01*
X949800D01*
X955798Y242757D02*
Y239758D01*
X954298Y238258D01*
X949800D01*
Y242757D01*
X951300Y244256D01*
X952799Y242757D01*
Y238258D01*
X974796Y479930D02*
X965799D01*
Y475431D01*
X967299Y473932D01*
X973297D01*
X974796Y475431D01*
Y479930D01*
X965799Y466434D02*
Y469433D01*
X967299Y470933D01*
X970297D01*
X971797Y469433D01*
Y466434D01*
X970297Y464935D01*
X968798D01*
Y470933D01*
X965799Y461936D02*
Y457437D01*
X967299Y455938D01*
X968798Y457437D01*
Y460436D01*
X970297Y461936D01*
X971797Y460436D01*
Y455938D01*
X965799Y452939D02*
Y449940D01*
Y451439D01*
X971797D01*
Y452939D01*
X962800Y442442D02*
Y440943D01*
X964299Y439443D01*
X971797D01*
Y443942D01*
X970297Y445441D01*
X967299D01*
X965799Y443942D01*
Y439443D01*
Y436444D02*
X971797D01*
Y431945D01*
X970297Y430446D01*
X965799D01*
X962800Y418450D02*
X971797D01*
Y413951D01*
X970297Y412452D01*
X967299D01*
X965799Y413951D01*
Y418450D01*
Y407953D02*
Y404954D01*
X967299Y403455D01*
X970297D01*
X971797Y404954D01*
Y407953D01*
X970297Y409453D01*
X967299D01*
X965799Y407953D01*
X971797Y400456D02*
X965799D01*
X968798D01*
X970297Y398956D01*
X971797Y397457D01*
Y395957D01*
Y391459D02*
Y389959D01*
X970297D01*
Y391459D01*
X971797D01*
X967299D02*
Y389959D01*
X965799D01*
Y391459D01*
X967299D01*
X965799Y374964D02*
X974796D01*
X971797Y371965D01*
X974796Y368966D01*
X965799D01*
X971797Y364467D02*
Y361468D01*
X970297Y359969D01*
X965799D01*
Y364467D01*
X967299Y365967D01*
X968798Y364467D01*
Y359969D01*
X973297Y355470D02*
X971797D01*
Y356970D01*
Y353971D01*
Y355470D01*
X967299D01*
X965799Y353971D01*
X971797Y343474D02*
Y347973D01*
X970297Y349472D01*
X967299D01*
X965799Y347973D01*
Y343474D01*
X974796Y340475D02*
X965799D01*
X970297D01*
X971797Y338976D01*
Y335977D01*
X970297Y334477D01*
X965799D01*
X971797Y331478D02*
X967299D01*
X965799Y329978D01*
Y325480D01*
X971797D01*
Y320981D02*
Y317982D01*
X970297Y316483D01*
X965799D01*
Y320981D01*
X967299Y322481D01*
X968798Y320981D01*
Y316483D01*
X965799Y313484D02*
X971797D01*
Y308985D01*
X970297Y307486D01*
X965799D01*
Y302987D02*
Y299988D01*
X967299Y298489D01*
X970297D01*
X971797Y299988D01*
Y302987D01*
X970297Y304487D01*
X967299D01*
X965799Y302987D01*
X970297Y286493D02*
X971797D01*
Y284993D01*
X970297D01*
Y286493D01*
X967299D02*
Y284993D01*
X965799D01*
X964299Y286493D01*
X965799Y284993D02*
Y286493D01*
X967299D01*
X965799Y278995D02*
X974796D01*
Y274496D01*
X973297Y272997D01*
X970297D01*
X968798Y274496D01*
Y278995D01*
X974463Y166930D02*
Y160266D01*
Y163598D01*
X964466D01*
X974463Y156933D02*
Y150269D01*
Y153601D01*
X964466D01*
X969464Y146936D02*
Y140272D01*
X974463Y130275D02*
Y136940D01*
X964466D01*
Y130275D01*
X969464Y136940D02*
Y133607D01*
X974463Y126943D02*
Y120278D01*
Y123611D01*
X964466D01*
X962800Y116946D02*
Y110282D01*
X974463Y106949D02*
X967798D01*
X964466Y103617D01*
X967798Y100285D01*
X974463D01*
X972797Y90288D02*
X974463Y91954D01*
Y95286D01*
X972797Y96952D01*
X971131D01*
X969464Y95286D01*
Y91954D01*
X967798Y90288D01*
X966132D01*
X964466Y91954D01*
Y95286D01*
X966132Y96952D01*
X972797Y80291D02*
X974463Y81957D01*
Y85290D01*
X972797Y86956D01*
X971131D01*
X969464Y85290D01*
Y81957D01*
X967798Y80291D01*
X966132D01*
X964466Y81957D01*
Y85290D01*
X966132Y86956D01*
X972797Y70294D02*
X974463Y71961D01*
Y75293D01*
X972797Y76959D01*
X971131D01*
X969464Y75293D01*
Y71961D01*
X967798Y70294D01*
X966132D01*
X964466Y71961D01*
Y75293D01*
X966132Y76959D01*
X969464Y66962D02*
Y60298D01*
X964466Y56965D02*
X974463D01*
X971131Y53633D01*
X974463Y50301D01*
X964466D01*
X971131Y45303D02*
Y41970D01*
X969464Y40304D01*
X964466D01*
Y45303D01*
X966132Y46969D01*
X967798Y45303D01*
Y40304D01*
X964466Y36972D02*
Y33640D01*
Y35306D01*
X971131D01*
Y36972D01*
X964466Y28641D02*
X971131D01*
Y23643D01*
X969464Y21977D01*
X964466D01*
X658564Y234088D02*
Y221392D01*
X661103Y218853D01*
X666182D01*
X668721Y221392D01*
Y234088D01*
X673799Y231548D02*
X676338Y234088D01*
X681417D01*
X683956Y231548D01*
Y229009D01*
X681417Y226470D01*
X678877D01*
X681417D01*
X683956Y223931D01*
Y221392D01*
X681417Y218853D01*
X676338D01*
X673799Y221392D01*
X664353Y76337D02*
Y63642D01*
X666892Y61102D01*
X671971D01*
X674510Y63642D01*
Y76337D01*
X679588Y61102D02*
X684667D01*
X682128D01*
Y76337D01*
X679588Y73798D01*
X588643Y496627D02*
X603877D01*
Y489009D01*
X601338Y486470D01*
X596260D01*
X593721Y489009D01*
Y496627D01*
Y491548D02*
X588643Y486470D01*
Y481392D02*
Y476313D01*
Y478852D01*
X603877D01*
X601338Y481392D01*
X955892Y518916D02*
X971127D01*
Y511298D01*
X968588Y508759D01*
X963510D01*
X960971Y511298D01*
Y518916D01*
X968588Y503681D02*
X971127Y501142D01*
Y496063D01*
X968588Y493524D01*
X966049D01*
X963510Y496063D01*
Y498602D01*
Y496063D01*
X960971Y493524D01*
X958432D01*
X955892Y496063D01*
Y501142D01*
X958432Y503681D01*
X539627Y249024D02*
X524392D01*
Y256642D01*
X526932Y259181D01*
X532010D01*
X534549Y256642D01*
Y249024D01*
X539627Y274416D02*
Y264259D01*
X529471Y274416D01*
X526932D01*
X524392Y271877D01*
Y266798D01*
X526932Y264259D01*
X540877Y127063D02*
X525642D01*
Y134681D01*
X528182Y137220D01*
X533260D01*
X535799Y134681D01*
Y127063D01*
X540877Y142298D02*
Y147377D01*
Y144838D01*
X525642D01*
X528182Y142298D01*
X606878Y546377D02*
X591642D01*
Y538759D01*
X594182Y536220D01*
X604338D01*
X606878Y538759D01*
Y546377D01*
X591642Y531142D02*
Y526063D01*
Y528602D01*
X606878D01*
X604338Y531142D01*
D36*
X58240Y132620D02*
G03*
X58240Y132620I-1250J0D01*
G01*
X55740Y258870D02*
G03*
X55740Y258870I-1250J0D01*
G01*
X171990Y34570D02*
G03*
X171990Y34570I-1250J0D01*
G01*
X565760Y132620D02*
G03*
X565760Y132620I-1250J0D01*
G01*
X563260Y258870D02*
G03*
X563260Y258870I-1250J0D01*
G01*
X679510Y34570D02*
G03*
X679510Y34570I-1250J0D01*
G01*
D37*
X16990Y152120D02*
Y244320D01*
X35990D01*
Y257320D01*
X101990D01*
Y139120D02*
Y257320D01*
X35990Y139120D02*
X101990D01*
X35990D02*
Y152120D01*
X16990D02*
X35990D01*
X435940Y315820D02*
Y519020D01*
X410540D02*
X435940D01*
X410540Y315820D02*
Y519020D01*
Y315820D02*
X435940D01*
X34490Y343970D02*
X102490D01*
X34490Y331470D02*
Y343970D01*
X17490Y331470D02*
X34490D01*
Y265370D02*
X102490D01*
X34490D02*
Y277870D01*
X17490D02*
X34490D01*
X17490D02*
Y331470D01*
X102490Y265370D02*
Y343970D01*
X58990Y502270D02*
Y507270D01*
X56490Y504770D02*
X61490D01*
X68230Y402220D02*
X73490D01*
X49490Y465220D02*
X54750D01*
X49490Y402220D02*
X54750D01*
X68230Y465220D02*
X73490D01*
Y402220D02*
Y465220D01*
X49490Y402220D02*
Y465220D01*
X138240Y18220D02*
Y122220D01*
X122240D02*
X138240D01*
X122240Y18220D02*
X138240D01*
X35240Y356967D02*
Y346970D01*
X40238D01*
X41905Y348636D01*
Y350302D01*
X40238Y351968D01*
X35240D01*
X40238D01*
X41905Y353634D01*
Y355301D01*
X40238Y356967D01*
X35240D01*
X46903Y353634D02*
X50235D01*
X51901Y351968D01*
Y346970D01*
X46903D01*
X45237Y348636D01*
X46903Y350302D01*
X51901D01*
X56900Y355301D02*
Y353634D01*
X55233D01*
X58566D01*
X56900D01*
Y348636D01*
X58566Y346970D01*
X70229D02*
X63564D01*
X70229Y353634D01*
Y355301D01*
X68563Y356967D01*
X65230D01*
X63564Y355301D01*
X80225D02*
X78559Y356967D01*
X75227D01*
X73561Y355301D01*
Y353634D01*
X75227Y351968D01*
X78559D01*
X80225Y350302D01*
Y348636D01*
X78559Y346970D01*
X75227D01*
X73561Y348636D01*
X524510Y152120D02*
Y244320D01*
X543510D01*
Y257320D01*
X609510D01*
Y139120D02*
Y257320D01*
X543510Y139120D02*
X609510D01*
X543510D02*
Y152120D01*
X524510D02*
X543510D01*
X943460Y315820D02*
Y519020D01*
X918060D02*
X943460D01*
X918060Y315820D02*
Y519020D01*
Y315820D02*
X943460D01*
X542010Y343970D02*
X610010D01*
X542010Y331470D02*
Y343970D01*
X525010Y331470D02*
X542010D01*
Y265370D02*
X610010D01*
X542010D02*
Y277870D01*
X525010D02*
X542010D01*
X525010D02*
Y331470D01*
X610010Y265370D02*
Y343970D01*
X566510Y502270D02*
Y507270D01*
X564010Y504770D02*
X569010D01*
X575750Y402220D02*
X581010D01*
X557010Y465220D02*
X562270D01*
X557010Y402220D02*
X562270D01*
X575750Y465220D02*
X581010D01*
Y402220D02*
Y465220D01*
X557010Y402220D02*
Y465220D01*
X645760Y18220D02*
Y122220D01*
X629760D02*
X645760D01*
X629760Y18220D02*
X645760D01*
X542760Y356967D02*
Y346970D01*
X547758D01*
X549425Y348636D01*
Y350302D01*
X547758Y351968D01*
X542760D01*
X547758D01*
X549425Y353634D01*
Y355301D01*
X547758Y356967D01*
X542760D01*
X554423Y353634D02*
X557755D01*
X559421Y351968D01*
Y346970D01*
X554423D01*
X552757Y348636D01*
X554423Y350302D01*
X559421D01*
X564420Y355301D02*
Y353634D01*
X562753D01*
X566086D01*
X564420D01*
Y348636D01*
X566086Y346970D01*
X577749D02*
X571084D01*
X577749Y353634D01*
Y355301D01*
X576083Y356967D01*
X572750D01*
X571084Y355301D01*
X587746D02*
X586079Y356967D01*
X582747D01*
X581081Y355301D01*
Y353634D01*
X582747Y351968D01*
X586079D01*
X587746Y350302D01*
Y348636D01*
X586079Y346970D01*
X582747D01*
X581081Y348636D01*
D38*
X452268Y159688D02*
Y163180D01*
X449649D01*
Y161434D01*
Y163180D01*
X447030D01*
Y155323D02*
Y157069D01*
X447903Y157942D01*
X449649D01*
X450522Y157069D01*
Y155323D01*
X449649Y154450D01*
X448776D01*
Y157942D01*
X447030Y152703D02*
Y150957D01*
Y151830D01*
X450522D01*
Y152703D01*
X451395Y147465D02*
X450522D01*
Y148338D01*
Y146592D01*
Y147465D01*
X447903D01*
X447030Y146592D01*
Y143100D02*
Y141354D01*
X447903Y140481D01*
X449649D01*
X450522Y141354D01*
Y143100D01*
X449649Y143973D01*
X447903D01*
X447030Y143100D01*
Y133496D02*
X450522D01*
Y130877D01*
X449649Y130004D01*
X447030D01*
Y127385D02*
Y125639D01*
X447903Y124766D01*
X449649D01*
X450522Y125639D01*
Y127385D01*
X449649Y128258D01*
X447903D01*
X447030Y127385D01*
X451395Y114289D02*
X452268Y115162D01*
Y116908D01*
X451395Y117781D01*
X447903D01*
X447030Y116908D01*
Y115162D01*
X447903Y114289D01*
X447030Y109924D02*
Y111670D01*
X447903Y112543D01*
X449649D01*
X450522Y111670D01*
Y109924D01*
X449649Y109051D01*
X448776D01*
Y112543D01*
X450522Y107305D02*
X447030D01*
X448776D01*
X449649Y106432D01*
X450522Y105559D01*
Y104686D01*
Y102066D02*
X447030D01*
X448776D01*
X449649Y101194D01*
X450522Y100320D01*
Y99447D01*
Y95955D02*
Y94209D01*
X449649Y93336D01*
X447030D01*
Y95955D01*
X447903Y96828D01*
X448776Y95955D01*
Y93336D01*
X452268Y88098D02*
X447030D01*
Y90717D01*
X447903Y91590D01*
X449649D01*
X450522Y90717D01*
Y88098D01*
X447030Y85479D02*
Y83733D01*
X447903Y82859D01*
X449649D01*
X450522Y83733D01*
Y85479D01*
X449649Y86352D01*
X447903D01*
X447030Y85479D01*
X452268Y75875D02*
X447030D01*
Y73256D01*
X447903Y72383D01*
X448776D01*
X449649Y73256D01*
Y75875D01*
Y73256D01*
X450522Y72383D01*
X451395D01*
X452268Y73256D01*
Y75875D01*
X450522Y70637D02*
X447030D01*
X448776D01*
X449649Y69764D01*
X450522Y68891D01*
Y68018D01*
Y64525D02*
Y62779D01*
X449649Y61906D01*
X447030D01*
Y64525D01*
X447903Y65399D01*
X448776Y64525D01*
Y61906D01*
X447030Y60160D02*
Y57541D01*
X447903Y56668D01*
X448776Y57541D01*
Y59287D01*
X449649Y60160D01*
X450522Y59287D01*
Y56668D01*
X447030Y54922D02*
Y53176D01*
Y54049D01*
X450522D01*
Y54922D01*
X447030Y50557D02*
Y48811D01*
Y49684D01*
X452268D01*
Y50557D01*
X447030Y43572D02*
Y45318D01*
X447903Y46191D01*
X449649D01*
X450522Y45318D01*
Y43572D01*
X449649Y42699D01*
X448776D01*
Y46191D01*
X447030Y40953D02*
Y39207D01*
Y40080D01*
X450522D01*
Y40953D01*
Y36588D02*
X447030D01*
X448776D01*
X449649Y35715D01*
X450522Y34842D01*
Y33969D01*
X447030Y30477D02*
Y28730D01*
X447903Y27857D01*
X449649D01*
X450522Y28730D01*
Y30477D01*
X449649Y31350D01*
X447903D01*
X447030Y30477D01*
X959788Y159688D02*
Y163180D01*
X957169D01*
Y161434D01*
Y163180D01*
X954550D01*
Y155323D02*
Y157069D01*
X955423Y157942D01*
X957169D01*
X958042Y157069D01*
Y155323D01*
X957169Y154450D01*
X956296D01*
Y157942D01*
X954550Y152703D02*
Y150957D01*
Y151830D01*
X958042D01*
Y152703D01*
X958915Y147465D02*
X958042D01*
Y148338D01*
Y146592D01*
Y147465D01*
X955423D01*
X954550Y146592D01*
Y143100D02*
Y141354D01*
X955423Y140481D01*
X957169D01*
X958042Y141354D01*
Y143100D01*
X957169Y143973D01*
X955423D01*
X954550Y143100D01*
Y133496D02*
X958042D01*
Y130877D01*
X957169Y130004D01*
X954550D01*
Y127385D02*
Y125639D01*
X955423Y124766D01*
X957169D01*
X958042Y125639D01*
Y127385D01*
X957169Y128258D01*
X955423D01*
X954550Y127385D01*
X958915Y114289D02*
X959788Y115162D01*
Y116908D01*
X958915Y117781D01*
X955423D01*
X954550Y116908D01*
Y115162D01*
X955423Y114289D01*
X954550Y109924D02*
Y111670D01*
X955423Y112543D01*
X957169D01*
X958042Y111670D01*
Y109924D01*
X957169Y109051D01*
X956296D01*
Y112543D01*
X958042Y107305D02*
X954550D01*
X956296D01*
X957169Y106432D01*
X958042Y105559D01*
Y104686D01*
Y102066D02*
X954550D01*
X956296D01*
X957169Y101194D01*
X958042Y100320D01*
Y99447D01*
Y95955D02*
Y94209D01*
X957169Y93336D01*
X954550D01*
Y95955D01*
X955423Y96828D01*
X956296Y95955D01*
Y93336D01*
X959788Y88098D02*
X954550D01*
Y90717D01*
X955423Y91590D01*
X957169D01*
X958042Y90717D01*
Y88098D01*
X954550Y85479D02*
Y83733D01*
X955423Y82859D01*
X957169D01*
X958042Y83733D01*
Y85479D01*
X957169Y86352D01*
X955423D01*
X954550Y85479D01*
X959788Y75875D02*
X954550D01*
Y73256D01*
X955423Y72383D01*
X956296D01*
X957169Y73256D01*
Y75875D01*
Y73256D01*
X958042Y72383D01*
X958915D01*
X959788Y73256D01*
Y75875D01*
X958042Y70637D02*
X954550D01*
X956296D01*
X957169Y69764D01*
X958042Y68891D01*
Y68018D01*
Y64525D02*
Y62779D01*
X957169Y61906D01*
X954550D01*
Y64525D01*
X955423Y65399D01*
X956296Y64525D01*
Y61906D01*
X954550Y60160D02*
Y57541D01*
X955423Y56668D01*
X956296Y57541D01*
Y59287D01*
X957169Y60160D01*
X958042Y59287D01*
Y56668D01*
X954550Y54922D02*
Y53176D01*
Y54049D01*
X958042D01*
Y54922D01*
X954550Y50557D02*
Y48811D01*
Y49684D01*
X959788D01*
Y50557D01*
X954550Y43572D02*
Y45318D01*
X955423Y46191D01*
X957169D01*
X958042Y45318D01*
Y43572D01*
X957169Y42699D01*
X956296D01*
Y46191D01*
X954550Y40953D02*
Y39207D01*
Y40080D01*
X958042D01*
Y40953D01*
Y36588D02*
X954550D01*
X956296D01*
X957169Y35715D01*
X958042Y34842D01*
Y33969D01*
X954550Y30477D02*
Y28730D01*
X955423Y27857D01*
X957169D01*
X958042Y28730D01*
Y30477D01*
X957169Y31350D01*
X955423D01*
X954550Y30477D01*
M02*
