M48
;Layer_Color=9474304
;FILE_FORMAT=4:4
METRIC,LZ
;TYPE=PLATED
T01F00S00C0.7112
T02F00S00C0.7620
T03F00S00C0.8000
T04F00S00C0.8500
T05F00S00C0.9000
T06F00S00C1.1600
T07F00S00C1.6500
%
T01
X0093011Y00209892
X00923386Y0026005
X0082026Y0032747
X0081276Y0044922
X0030524
X0031274Y0032747
X00415866Y0026005
X0042259Y00209892
T02
X0032099Y0003172
Y0005712
Y0008252
Y0010792
Y0013332
X0042259
Y0010792
Y0008252
Y0005712
Y0003172
X0082851
Y0005712
Y0008252
Y0010792
Y0013332
X0093011
Y0010792
Y0008252
Y0005712
Y0003172
Y0015872
X0082851
X0042259
X0032099
T03
X0021299Y0004447
Y0009372
X0026299
Y0004447
X0072051
Y0009372
X0077051
Y0004447
T04
X0056901Y0038872
Y0047872
X0006149
Y0038872
T05
X0056651Y0051827
X0093076Y0050632
Y0048092
Y0045552
Y0043012
Y0040472
Y0037932
Y0035392
Y0032852
X0042324
Y0035392
Y0037932
Y0040472
Y0043012
Y0045552
Y0048092
Y0050632
X0005899Y0051827
Y00543671
X0056651
T06
X0062926Y0015067
Y0017607
Y0020147
Y0022687
Y0025227
Y0027767
Y0030307
Y0032847
Y0035387
Y0037927
Y0040467
Y0043007
Y0045547
Y0048087
Y0050627
X0066781Y0044197
X0069321
X0071861
X0074401
X0088326Y0043007
Y0045547
Y0048087
Y0050627
Y0040467
Y0037927
Y0035387
Y0032847
Y0030307
Y0027767
Y0025227
Y0022687
Y0020147
Y0017607
Y0015067
X0074401Y0028857
X0071861
X0069321
X0066781
X0037574Y0027767
Y0030307
Y0032847
Y0035387
Y0037927
Y0040467
Y0043007
Y0045547
Y0048087
Y0050627
X0023649Y0044197
X0021109
X0018569
X0016029
Y0028857
X0018569
X0021109
X0023649
X0037574Y0025227
Y0022687
Y0020147
Y0017607
Y0015067
X0012174
Y0017607
Y0020147
Y0022687
Y0025227
Y0027767
Y0030307
Y0032847
Y0035387
Y0037927
Y0040467
Y0043007
Y0045547
Y0048087
Y0050627
T07
X0056351Y0015862
Y0019822
Y0023782
X0056201Y0028487
Y0032447
X0005449
Y0028487
X0005599Y0023782
Y0019822
Y0015862
M30
