G04*
G04 #@! TF.GenerationSoftware,Altium Limited,Altium Designer,25.0.2 (28)*
G04*
G04 Layer_Physical_Order=2*
G04 Layer_Color=16711680*
%FSLAX44Y44*%
%MOMM*%
G71*
G04*
G04 #@! TF.SameCoordinates,8B6BD92A-2743-4FC7-A306-186CE1EE4446*
G04*
G04*
G04 #@! TF.FilePolarity,Positive*
G04*
G01*
G75*
%ADD14C,0.8000*%
%ADD15O,2.5000X2.0000*%
%ADD16R,2.5000X2.0000*%
%ADD17C,2.1500*%
%ADD18R,2.1500X2.1500*%
%ADD19C,1.5240*%
%ADD20R,1.5240X1.5240*%
%ADD21O,2.0000X2.5000*%
%ADD22R,2.0000X2.5000*%
%ADD23R,1.3500X1.3500*%
%ADD24C,1.3500*%
%ADD25C,1.5000*%
%ADD26R,1.5000X1.5000*%
%ADD27C,1.4000*%
%ADD28R,1.4000X1.4000*%
%ADD29R,1.3500X1.3500*%
%ADD30C,1.2700*%
%ADD31O,1.5240X3.5400*%
%ADD32R,1.5240X3.5400*%
%ADD33R,3.5400X1.5240*%
%ADD34O,3.5400X1.5240*%
G36*
X980260Y520092D02*
X980260Y13970D01*
X522760D01*
Y520949D01*
X556072Y520952D01*
X556970Y520054D01*
Y508730D01*
X576050D01*
Y520954D01*
X979362Y520990D01*
X980260Y520092D01*
D02*
G37*
G36*
X472740D02*
X472740Y13970D01*
X15240D01*
Y520949D01*
X48552Y520952D01*
X49450Y520054D01*
Y508730D01*
X68530D01*
Y520954D01*
X471842Y520990D01*
X472740Y520092D01*
D02*
G37*
%LPC*%
G36*
X940800Y516360D02*
X920720D01*
Y496280D01*
X940800D01*
Y516360D01*
D02*
G37*
G36*
X933260Y490644D02*
Y483420D01*
X940484D01*
X940116Y484795D01*
X938794Y487085D01*
X936925Y488954D01*
X934635Y490275D01*
X933260Y490644D01*
D02*
G37*
G36*
X928260D02*
X926885Y490275D01*
X924595Y488954D01*
X922726Y487085D01*
X921404Y484795D01*
X921036Y483420D01*
X928260D01*
Y490644D01*
D02*
G37*
G36*
X940484Y478420D02*
X933260D01*
Y471195D01*
X934635Y471564D01*
X936925Y472886D01*
X938794Y474755D01*
X940116Y477044D01*
X940484Y478420D01*
D02*
G37*
G36*
X928260D02*
X921036D01*
X921404Y477044D01*
X922726Y474755D01*
X924595Y472886D01*
X926885Y471564D01*
X928260Y471195D01*
Y478420D01*
D02*
G37*
G36*
X578300Y488010D02*
X559720D01*
Y469430D01*
X578300D01*
Y488010D01*
D02*
G37*
G36*
X815260Y457754D02*
Y451720D01*
X821294D01*
X821044Y452651D01*
X819874Y454679D01*
X818219Y456334D01*
X816191Y457504D01*
X815260Y457754D01*
D02*
G37*
G36*
X810260D02*
X809329Y457504D01*
X807301Y456334D01*
X805646Y454679D01*
X804476Y452651D01*
X804226Y451720D01*
X810260D01*
Y457754D01*
D02*
G37*
G36*
X718610Y457118D02*
X715337Y456687D01*
X712286Y455424D01*
X709667Y453414D01*
X707656Y450794D01*
X706598Y448237D01*
X705223D01*
X704164Y450794D01*
X702154Y453414D01*
X699534Y455424D01*
X696484Y456687D01*
X693210Y457118D01*
X689937Y456687D01*
X686886Y455424D01*
X684267Y453414D01*
X682256Y450794D01*
X681198Y448237D01*
X679823D01*
X678764Y450794D01*
X676754Y453414D01*
X674134Y455424D01*
X671084Y456687D01*
X667810Y457118D01*
X664537Y456687D01*
X661486Y455424D01*
X658867Y453414D01*
X656857Y450794D01*
X655593Y447743D01*
X655162Y444470D01*
Y439470D01*
X655593Y436196D01*
X656857Y433146D01*
X658867Y430526D01*
X661486Y428516D01*
X664537Y427253D01*
X667810Y426822D01*
X671084Y427253D01*
X674134Y428516D01*
X676754Y430526D01*
X678764Y433146D01*
X679823Y435703D01*
X681198D01*
X682256Y433146D01*
X684267Y430526D01*
X686886Y428516D01*
X689937Y427253D01*
X693210Y426822D01*
X696484Y427253D01*
X699534Y428516D01*
X702154Y430526D01*
X704164Y433146D01*
X705223Y435703D01*
X706598D01*
X707656Y433146D01*
X709667Y430526D01*
X712286Y428516D01*
X715337Y427253D01*
X718610Y426822D01*
X721884Y427253D01*
X724934Y428516D01*
X727554Y430526D01*
X729564Y433146D01*
X730200Y434682D01*
X731470Y434429D01*
Y426930D01*
X756550D01*
Y457010D01*
X731470D01*
Y449510D01*
X730200Y449258D01*
X729564Y450794D01*
X727554Y453414D01*
X724934Y455424D01*
X721884Y456687D01*
X718610Y457118D01*
D02*
G37*
G36*
X821294Y446720D02*
X815260D01*
Y440686D01*
X816191Y440936D01*
X818219Y442106D01*
X819874Y443761D01*
X821044Y445789D01*
X821294Y446720D01*
D02*
G37*
G36*
X810260D02*
X804226D01*
X804476Y445789D01*
X805646Y443761D01*
X807301Y442106D01*
X809329Y440936D01*
X810260Y440686D01*
Y446720D01*
D02*
G37*
G36*
X932082Y440160D02*
X929438D01*
X926885Y439476D01*
X924595Y438154D01*
X922726Y436284D01*
X921404Y433995D01*
X920720Y431442D01*
Y428798D01*
X921404Y426245D01*
X922726Y423955D01*
X924595Y422086D01*
X926885Y420764D01*
X929438Y420080D01*
X932082D01*
X934635Y420764D01*
X936925Y422086D01*
X938794Y423955D01*
X940116Y426245D01*
X940800Y428798D01*
Y431442D01*
X940116Y433995D01*
X938794Y436284D01*
X936925Y438154D01*
X934635Y439476D01*
X932082Y440160D01*
D02*
G37*
G36*
Y414760D02*
X929438D01*
X926885Y414076D01*
X924595Y412754D01*
X922726Y410885D01*
X921404Y408595D01*
X920720Y406042D01*
Y403398D01*
X921404Y400844D01*
X922726Y398555D01*
X924595Y396686D01*
X926885Y395364D01*
X929438Y394680D01*
X932082D01*
X934635Y395364D01*
X936925Y396686D01*
X938794Y398555D01*
X940116Y400844D01*
X940800Y403398D01*
Y406042D01*
X940116Y408595D01*
X938794Y410885D01*
X936925Y412754D01*
X934635Y414076D01*
X932082Y414760D01*
D02*
G37*
G36*
X571510Y397668D02*
Y391220D01*
X577958D01*
X577667Y392306D01*
X576444Y394424D01*
X574714Y396154D01*
X572596Y397377D01*
X571510Y397668D01*
D02*
G37*
G36*
X566510D02*
X565424Y397377D01*
X563306Y396154D01*
X561576Y394424D01*
X560353Y392306D01*
X560062Y391220D01*
X566510D01*
Y397668D01*
D02*
G37*
G36*
X577958Y386220D02*
X571510D01*
Y379772D01*
X572596Y380063D01*
X574714Y381286D01*
X576444Y383016D01*
X577667Y385134D01*
X577958Y386220D01*
D02*
G37*
G36*
X566510D02*
X560062D01*
X560353Y385134D01*
X561576Y383016D01*
X563306Y381286D01*
X565424Y380063D01*
X566510Y379772D01*
Y386220D01*
D02*
G37*
G36*
X831020Y389710D02*
X823360D01*
Y371970D01*
X831020D01*
Y389710D01*
D02*
G37*
G36*
X818360D02*
X810700D01*
Y371970D01*
X818360D01*
Y389710D01*
D02*
G37*
G36*
X932082Y389360D02*
X929438D01*
X926885Y388675D01*
X924595Y387354D01*
X922726Y385485D01*
X921404Y383195D01*
X920720Y380642D01*
Y377998D01*
X921404Y375444D01*
X922726Y373155D01*
X924595Y371286D01*
X926885Y369964D01*
X929438Y369280D01*
X932082D01*
X934635Y369964D01*
X936925Y371286D01*
X938794Y373155D01*
X940116Y375444D01*
X940800Y377998D01*
Y380642D01*
X940116Y383195D01*
X938794Y385485D01*
X936925Y387354D01*
X934635Y388675D01*
X932082Y389360D01*
D02*
G37*
G36*
X831020Y366970D02*
X823360D01*
Y349230D01*
X831020D01*
Y366970D01*
D02*
G37*
G36*
X818360D02*
X810700D01*
Y349230D01*
X818360D01*
Y366970D01*
D02*
G37*
G36*
X932082Y363960D02*
X929438D01*
X926885Y363275D01*
X924595Y361954D01*
X922726Y360084D01*
X921404Y357795D01*
X920720Y355242D01*
Y352598D01*
X921404Y350045D01*
X922726Y347755D01*
X924595Y345886D01*
X926885Y344564D01*
X929438Y343880D01*
X932082D01*
X934635Y344564D01*
X936925Y345886D01*
X938794Y347755D01*
X940116Y350045D01*
X940800Y352598D01*
Y355242D01*
X940116Y357795D01*
X938794Y360084D01*
X936925Y361954D01*
X934635Y363275D01*
X932082Y363960D01*
D02*
G37*
G36*
X564510Y337559D02*
Y326970D01*
X575099D01*
X574394Y329600D01*
X572645Y332630D01*
X570170Y335105D01*
X567140Y336854D01*
X564510Y337559D01*
D02*
G37*
G36*
X559510D02*
X556880Y336854D01*
X553850Y335105D01*
X551375Y332630D01*
X549626Y329600D01*
X548921Y326970D01*
X559510D01*
Y337559D01*
D02*
G37*
G36*
X749868Y409902D02*
X677260D01*
X675553Y409678D01*
X673962Y409019D01*
X672596Y407970D01*
X659846Y395221D01*
X658798Y393854D01*
X658139Y392263D01*
X657914Y390556D01*
Y388855D01*
X657264Y388356D01*
X655635Y386234D01*
X654612Y383762D01*
X654262Y381110D01*
Y360950D01*
X654612Y358298D01*
X655635Y355826D01*
X657264Y353704D01*
X659386Y352075D01*
X661858Y351051D01*
X664510Y350702D01*
X667162Y351051D01*
X669634Y352075D01*
X671756Y353704D01*
X673385Y355826D01*
X674408Y358298D01*
X674758Y360950D01*
Y381110D01*
X674408Y383762D01*
X673385Y386234D01*
X671756Y388356D01*
X671749Y388466D01*
X679992Y396710D01*
X747136D01*
X776400Y367445D01*
Y361748D01*
X776625Y360040D01*
X777284Y358450D01*
X778332Y357083D01*
X795021Y340394D01*
X796387Y339346D01*
X797978Y338687D01*
X799686Y338462D01*
X799939D01*
X811370Y327031D01*
Y326300D01*
X811976Y324039D01*
X813146Y322011D01*
X814801Y320356D01*
X816829Y319186D01*
X819090Y318580D01*
X821430D01*
X823691Y319186D01*
X825719Y320356D01*
X827374Y322011D01*
X828544Y324039D01*
X829150Y326300D01*
Y328640D01*
X828544Y330901D01*
X827374Y332929D01*
X825719Y334584D01*
X823691Y335754D01*
X821430Y336360D01*
X820699D01*
X807336Y349723D01*
X805970Y350771D01*
X804379Y351430D01*
X802672Y351655D01*
X802418D01*
X789593Y364480D01*
Y370178D01*
X789368Y371885D01*
X788709Y373476D01*
X787661Y374842D01*
X754532Y407970D01*
X753166Y409019D01*
X751575Y409678D01*
X749868Y409902D01*
D02*
G37*
G36*
X932082Y338560D02*
X929438D01*
X926885Y337876D01*
X924595Y336554D01*
X922726Y334684D01*
X921404Y332395D01*
X920720Y329842D01*
Y327198D01*
X921404Y324645D01*
X922726Y322355D01*
X924595Y320486D01*
X926885Y319164D01*
X929438Y318480D01*
X932082D01*
X934635Y319164D01*
X936925Y320486D01*
X938794Y322355D01*
X940116Y324645D01*
X940800Y327198D01*
Y329842D01*
X940116Y332395D01*
X938794Y334684D01*
X936925Y336554D01*
X934635Y337876D01*
X932082Y338560D01*
D02*
G37*
G36*
X575099Y321970D02*
X564510D01*
Y311381D01*
X567140Y312086D01*
X570170Y313835D01*
X572645Y316310D01*
X574394Y319340D01*
X575099Y321970D01*
D02*
G37*
G36*
X559510D02*
X548921D01*
X549626Y319340D01*
X551375Y316310D01*
X553850Y313835D01*
X556880Y312086D01*
X559510Y311381D01*
Y321970D01*
D02*
G37*
G36*
X575300Y298160D02*
X548720D01*
Y271580D01*
X575300D01*
Y298160D01*
D02*
G37*
G36*
X885760Y518918D02*
X880760D01*
X877486Y518487D01*
X874436Y517224D01*
X871816Y515214D01*
X869806Y512594D01*
X868543Y509544D01*
X868112Y506270D01*
X868543Y502996D01*
X869806Y499946D01*
X871816Y497326D01*
X874436Y495316D01*
X876993Y494257D01*
Y492883D01*
X874436Y491824D01*
X871816Y489814D01*
X869806Y487194D01*
X868543Y484144D01*
X868112Y480870D01*
X868543Y477596D01*
X869806Y474546D01*
X871816Y471926D01*
X874436Y469916D01*
X876993Y468857D01*
Y467483D01*
X874436Y466424D01*
X871816Y464414D01*
X869806Y461794D01*
X868543Y458744D01*
X868112Y455470D01*
X868543Y452196D01*
X869806Y449146D01*
X871816Y446526D01*
X874436Y444516D01*
X876993Y443457D01*
Y442083D01*
X874436Y441024D01*
X871816Y439014D01*
X869806Y436394D01*
X868543Y433344D01*
X868112Y430070D01*
X868543Y426796D01*
X869806Y423746D01*
X871816Y421126D01*
X874436Y419116D01*
X876993Y418057D01*
Y416683D01*
X874436Y415624D01*
X871816Y413614D01*
X869806Y410994D01*
X868543Y407944D01*
X868112Y404670D01*
X868543Y401396D01*
X869806Y398346D01*
X871816Y395726D01*
X874436Y393716D01*
X876993Y392657D01*
Y391283D01*
X874436Y390224D01*
X871816Y388214D01*
X869806Y385594D01*
X868543Y382544D01*
X868112Y379270D01*
X868543Y375996D01*
X869806Y372946D01*
X871816Y370326D01*
X874436Y368316D01*
X876993Y367257D01*
Y365883D01*
X874436Y364824D01*
X871816Y362814D01*
X869806Y360194D01*
X868543Y357144D01*
X868112Y353870D01*
X868543Y350596D01*
X869806Y347546D01*
X871816Y344926D01*
X874436Y342916D01*
X876993Y341857D01*
Y340483D01*
X874436Y339424D01*
X871816Y337414D01*
X869806Y334794D01*
X868543Y331744D01*
X868112Y328470D01*
X868543Y325196D01*
X869806Y322146D01*
X871816Y319526D01*
X874436Y317516D01*
X876993Y316457D01*
Y315083D01*
X874436Y314024D01*
X871816Y312014D01*
X869806Y309394D01*
X868543Y306344D01*
X868112Y303070D01*
X868543Y299796D01*
X869806Y296746D01*
X871816Y294126D01*
X874436Y292116D01*
X876993Y291057D01*
Y289683D01*
X874436Y288624D01*
X871816Y286614D01*
X869806Y283994D01*
X868543Y280944D01*
X868112Y277670D01*
X868543Y274396D01*
X869806Y271346D01*
X871816Y268726D01*
X874436Y266716D01*
X876993Y265657D01*
Y264283D01*
X874436Y263224D01*
X871816Y261214D01*
X869806Y258594D01*
X868543Y255544D01*
X868112Y252270D01*
X868543Y248996D01*
X869806Y245946D01*
X871816Y243326D01*
X874436Y241316D01*
X876993Y240257D01*
Y238883D01*
X874436Y237824D01*
X871816Y235814D01*
X869806Y233194D01*
X868543Y230144D01*
X868286Y228195D01*
X867016Y228279D01*
Y241823D01*
X866792Y243531D01*
X866133Y245122D01*
X865084Y246488D01*
X852856Y258716D01*
Y351645D01*
X853506Y352144D01*
X855135Y354266D01*
X856159Y356738D01*
X856508Y359390D01*
Y379550D01*
X856159Y382202D01*
X855135Y384674D01*
X853506Y386796D01*
X851384Y388425D01*
X848912Y389449D01*
X846260Y389798D01*
X843608Y389449D01*
X841136Y388425D01*
X839014Y386796D01*
X837385Y384674D01*
X836361Y382202D01*
X836012Y379550D01*
Y359390D01*
X836361Y356738D01*
X837385Y354266D01*
X839014Y352144D01*
X839663Y351645D01*
Y262558D01*
X838121Y262355D01*
X836530Y261696D01*
X835163Y260648D01*
X764463Y189947D01*
X763415Y188581D01*
X762756Y186990D01*
X762531Y185283D01*
Y145070D01*
X720510Y103049D01*
X675977Y147582D01*
Y183420D01*
X675752Y185128D01*
X675093Y186718D01*
X674045Y188085D01*
X671709Y190421D01*
X671756Y191144D01*
X673385Y193266D01*
X674408Y195738D01*
X674758Y198390D01*
Y218550D01*
X674408Y221202D01*
X673385Y223674D01*
X671756Y225796D01*
X669634Y227425D01*
X667162Y228449D01*
X664510Y228798D01*
X661858Y228449D01*
X659386Y227425D01*
X658202Y226516D01*
X656932Y227143D01*
Y277672D01*
X658135Y278080D01*
X658867Y277127D01*
X661214Y275325D01*
Y267670D01*
X661439Y265963D01*
X662097Y264372D01*
X663146Y263006D01*
X684736Y241416D01*
X686102Y240367D01*
X687693Y239708D01*
X689400Y239484D01*
X752190D01*
X753897Y239708D01*
X755488Y240367D01*
X756854Y241416D01*
X757903Y242782D01*
X758562Y244373D01*
X758786Y246080D01*
Y250118D01*
X762542Y253874D01*
X765185D01*
X765684Y253224D01*
X767806Y251595D01*
X770278Y250571D01*
X772930Y250222D01*
X793090D01*
X795742Y250571D01*
X798214Y251595D01*
X800336Y253224D01*
X801965Y255346D01*
X802989Y257818D01*
X803338Y260470D01*
X802989Y263122D01*
X801965Y265594D01*
X800336Y267716D01*
X798214Y269345D01*
X795742Y270368D01*
X793090Y270718D01*
X772930D01*
X770278Y270368D01*
X767806Y269345D01*
X765684Y267716D01*
X765185Y267066D01*
X759810D01*
X758103Y266842D01*
X756512Y266183D01*
X755146Y265135D01*
X749173Y259162D01*
X748000Y259648D01*
Y270630D01*
X748000Y270630D01*
X748000D01*
X748387Y271769D01*
X748675Y272056D01*
X749723Y273422D01*
X750382Y275013D01*
X750402Y275169D01*
X752954Y277127D01*
X754964Y279746D01*
X756227Y282796D01*
X756658Y286070D01*
Y291070D01*
X756227Y294344D01*
X754964Y297394D01*
X752954Y300014D01*
X750334Y302024D01*
X747284Y303287D01*
X744010Y303718D01*
X740737Y303287D01*
X737686Y302024D01*
X735067Y300014D01*
X733056Y297394D01*
X731998Y294838D01*
X730623D01*
X729564Y297394D01*
X728420Y298885D01*
X732424Y302889D01*
X733472Y304255D01*
X734131Y305846D01*
X734313Y307222D01*
X737840D01*
X740492Y307572D01*
X742964Y308595D01*
X745086Y310224D01*
X746715Y312346D01*
X747738Y314818D01*
X748069Y317325D01*
X748876Y317859D01*
X749181Y318009D01*
X754384Y312806D01*
X755750Y311758D01*
X757341Y311099D01*
X759048Y310874D01*
X762770D01*
Y307310D01*
X803250D01*
Y327630D01*
X762770D01*
Y324743D01*
X761500Y324347D01*
X745949Y339898D01*
X744583Y340947D01*
X742991Y341606D01*
X741284Y341830D01*
X709974D01*
X708267Y341606D01*
X706676Y340947D01*
X705310Y339898D01*
X688546Y323134D01*
X687497Y321768D01*
X686839Y320177D01*
X686614Y318470D01*
Y301815D01*
X684267Y300014D01*
X682256Y297394D01*
X681198Y294838D01*
X679823D01*
X678764Y297394D01*
X676754Y300014D01*
X674134Y302024D01*
X671084Y303287D01*
X667810Y303718D01*
X664537Y303287D01*
X661486Y302024D01*
X658867Y300014D01*
X658135Y299060D01*
X656932Y299469D01*
Y306340D01*
X694575Y343982D01*
X695623Y345348D01*
X696282Y346939D01*
X696507Y348646D01*
Y353205D01*
X697156Y353704D01*
X698785Y355826D01*
X699809Y358298D01*
X700158Y360950D01*
Y381110D01*
X699809Y383762D01*
X698785Y386234D01*
X697156Y388356D01*
X695034Y389985D01*
X692562Y391008D01*
X689910Y391358D01*
X687258Y391008D01*
X684786Y389985D01*
X682664Y388356D01*
X681035Y386234D01*
X680012Y383762D01*
X679662Y381110D01*
Y360950D01*
X680012Y358298D01*
X681035Y355826D01*
X682664Y353704D01*
X683314Y353205D01*
Y351379D01*
X645672Y313736D01*
X644623Y312370D01*
X643964Y310779D01*
X643851Y309916D01*
X643423Y309720D01*
X642532Y309631D01*
X640704Y312014D01*
X638084Y314024D01*
X635527Y315083D01*
Y316457D01*
X638084Y317516D01*
X640704Y319526D01*
X642714Y322146D01*
X643977Y325196D01*
X644408Y328470D01*
X643977Y331744D01*
X642714Y334794D01*
X640704Y337414D01*
X638084Y339424D01*
X635527Y340483D01*
Y341857D01*
X638084Y342916D01*
X640704Y344926D01*
X642714Y347546D01*
X643977Y350596D01*
X644408Y353870D01*
X643977Y357144D01*
X642714Y360194D01*
X640704Y362814D01*
X638084Y364824D01*
X635527Y365883D01*
Y367257D01*
X638084Y368316D01*
X640704Y370326D01*
X642714Y372946D01*
X643977Y375996D01*
X644408Y379270D01*
X643977Y382544D01*
X642714Y385594D01*
X640704Y388214D01*
X638084Y390224D01*
X635527Y391283D01*
Y392657D01*
X638084Y393716D01*
X640704Y395726D01*
X642714Y398346D01*
X643977Y401396D01*
X644408Y404670D01*
X643977Y407944D01*
X642714Y410994D01*
X640704Y413614D01*
X638084Y415624D01*
X635527Y416683D01*
Y418057D01*
X638084Y419116D01*
X640704Y421126D01*
X642714Y423746D01*
X643977Y426796D01*
X644408Y430070D01*
X643977Y433344D01*
X642714Y436394D01*
X640704Y439014D01*
X638084Y441024D01*
X635527Y442083D01*
Y443457D01*
X638084Y444516D01*
X640704Y446526D01*
X642714Y449146D01*
X643977Y452196D01*
X644408Y455470D01*
X643977Y458744D01*
X642714Y461794D01*
X640704Y464414D01*
X638084Y466424D01*
X635527Y467483D01*
Y468857D01*
X638084Y469916D01*
X640704Y471926D01*
X642714Y474546D01*
X643977Y477596D01*
X644408Y480870D01*
X643977Y484144D01*
X642714Y487194D01*
X640704Y489814D01*
X638084Y491824D01*
X635527Y492883D01*
Y494257D01*
X638084Y495316D01*
X640704Y497326D01*
X642714Y499946D01*
X643977Y502996D01*
X644408Y506270D01*
X643977Y509544D01*
X642714Y512594D01*
X640704Y515214D01*
X638084Y517224D01*
X635034Y518487D01*
X631760Y518918D01*
X626760D01*
X623487Y518487D01*
X620436Y517224D01*
X617816Y515214D01*
X615806Y512594D01*
X614543Y509544D01*
X614112Y506270D01*
X614543Y502996D01*
X615806Y499946D01*
X617816Y497326D01*
X620436Y495316D01*
X622993Y494257D01*
Y492883D01*
X620436Y491824D01*
X617816Y489814D01*
X615806Y487194D01*
X614543Y484144D01*
X614112Y480870D01*
X614543Y477596D01*
X615806Y474546D01*
X617816Y471926D01*
X620436Y469916D01*
X622993Y468857D01*
Y467483D01*
X620436Y466424D01*
X617816Y464414D01*
X615806Y461794D01*
X614543Y458744D01*
X614112Y455470D01*
X614543Y452196D01*
X615806Y449146D01*
X617816Y446526D01*
X620436Y444516D01*
X622993Y443457D01*
Y442083D01*
X620436Y441024D01*
X617816Y439014D01*
X615806Y436394D01*
X614543Y433344D01*
X614112Y430070D01*
X614543Y426796D01*
X615806Y423746D01*
X617816Y421126D01*
X620436Y419116D01*
X622993Y418057D01*
Y416683D01*
X620436Y415624D01*
X617816Y413614D01*
X615806Y410994D01*
X614543Y407944D01*
X614112Y404670D01*
X614543Y401396D01*
X615806Y398346D01*
X617816Y395726D01*
X620436Y393716D01*
X622993Y392657D01*
Y391283D01*
X620436Y390224D01*
X617816Y388214D01*
X615806Y385594D01*
X614543Y382544D01*
X614112Y379270D01*
X614543Y375996D01*
X615806Y372946D01*
X617816Y370326D01*
X620436Y368316D01*
X622993Y367257D01*
Y365883D01*
X620436Y364824D01*
X617816Y362814D01*
X615806Y360194D01*
X614543Y357144D01*
X614112Y353870D01*
X614543Y350596D01*
X615806Y347546D01*
X617816Y344926D01*
X620436Y342916D01*
X622993Y341857D01*
Y340483D01*
X620436Y339424D01*
X617816Y337414D01*
X615806Y334794D01*
X614543Y331744D01*
X614112Y328470D01*
X614543Y325196D01*
X615806Y322146D01*
X617816Y319526D01*
X620436Y317516D01*
X622993Y316457D01*
Y315083D01*
X620436Y314024D01*
X617816Y312014D01*
X615806Y309394D01*
X614543Y306344D01*
X614112Y303070D01*
X614543Y299796D01*
X615806Y296746D01*
X617816Y294126D01*
X620436Y292116D01*
X622993Y291057D01*
Y289683D01*
X620436Y288624D01*
X617816Y286614D01*
X615806Y283994D01*
X614543Y280944D01*
X614112Y277670D01*
X614543Y274396D01*
X615806Y271346D01*
X617816Y268726D01*
X620436Y266716D01*
X622993Y265657D01*
Y264283D01*
X620436Y263224D01*
X617816Y261214D01*
X615806Y258594D01*
X614543Y255544D01*
X614112Y252270D01*
X614543Y248996D01*
X615806Y245946D01*
X617816Y243326D01*
X620436Y241316D01*
X622993Y240257D01*
Y238883D01*
X620436Y237824D01*
X617816Y235814D01*
X615806Y233194D01*
X614543Y230144D01*
X614112Y226870D01*
X614543Y223596D01*
X615806Y220546D01*
X617816Y217926D01*
X620436Y215916D01*
X622993Y214857D01*
Y213483D01*
X620436Y212424D01*
X617816Y210414D01*
X615806Y207794D01*
X614543Y204744D01*
X614112Y201470D01*
X614543Y198196D01*
X615806Y195146D01*
X617816Y192526D01*
X620436Y190516D01*
X622993Y189457D01*
Y188083D01*
X620436Y187024D01*
X617816Y185014D01*
X615806Y182394D01*
X614543Y179344D01*
X614441Y178570D01*
X644079D01*
X643977Y179344D01*
X642714Y182394D01*
X640704Y185014D01*
X638084Y187024D01*
X635527Y188083D01*
Y189457D01*
X638084Y190516D01*
X640704Y192526D01*
X642470Y194828D01*
X643740Y194441D01*
Y186915D01*
X643964Y185208D01*
X644623Y183617D01*
X645672Y182250D01*
X652244Y175678D01*
Y131404D01*
X652469Y129696D01*
X653128Y128105D01*
X654176Y126739D01*
X715776Y65140D01*
X717142Y64091D01*
X718733Y63432D01*
X720440Y63208D01*
X787694D01*
X818350Y32551D01*
Y21560D01*
X838670D01*
Y41880D01*
X827679D01*
X821713Y47846D01*
X822493Y48862D01*
X824588Y47652D01*
X827172Y46960D01*
X829847D01*
X832431Y47652D01*
X834748Y48990D01*
X836640Y50882D01*
X837978Y53198D01*
X838670Y55782D01*
Y58458D01*
X837978Y61042D01*
X836640Y63358D01*
X834748Y65250D01*
X832431Y66588D01*
X829847Y67280D01*
X827172D01*
X824588Y66588D01*
X822271Y65250D01*
X820380Y63358D01*
X819042Y61042D01*
X818350Y58458D01*
Y55782D01*
X819042Y53198D01*
X820252Y51103D01*
X819236Y50323D01*
X795090Y74468D01*
X793724Y75517D01*
X792133Y76176D01*
X790426Y76400D01*
X723172D01*
X716316Y83257D01*
X716802Y84430D01*
X729800D01*
Y93681D01*
X773792Y137673D01*
X774840Y139039D01*
X775499Y140630D01*
X775724Y142337D01*
Y182551D01*
X809342Y216169D01*
X810612Y215643D01*
Y196830D01*
X810962Y194178D01*
X811985Y191706D01*
X813614Y189584D01*
X813667Y188779D01*
X808486Y183598D01*
X807437Y182232D01*
X806778Y180641D01*
X806554Y178934D01*
Y148680D01*
X806778Y146973D01*
X807437Y145382D01*
X808486Y144016D01*
X818350Y134151D01*
Y131982D01*
X819042Y129398D01*
X820380Y127082D01*
X822271Y125190D01*
X824588Y123852D01*
X827172Y123160D01*
X829847D01*
X832431Y123852D01*
X834748Y125190D01*
X836640Y127082D01*
X837978Y129398D01*
X838670Y131982D01*
Y134658D01*
X837978Y137242D01*
X836640Y139558D01*
X834748Y141450D01*
X832431Y142788D01*
X829847Y143480D01*
X827679D01*
X821713Y149446D01*
X822493Y150462D01*
X824588Y149252D01*
X827172Y148560D01*
X829847D01*
X832431Y149252D01*
X834748Y150590D01*
X836640Y152482D01*
X837978Y154798D01*
X838670Y157382D01*
Y160058D01*
X837978Y162642D01*
X836640Y164958D01*
X836326Y165273D01*
Y177567D01*
X845448Y186689D01*
X846260Y186582D01*
X848912Y186931D01*
X851384Y187955D01*
X852553Y188853D01*
X853823Y188226D01*
Y141761D01*
X854048Y140054D01*
X854707Y138463D01*
X855755Y137097D01*
X886583Y106269D01*
X887950Y105221D01*
X889540Y104562D01*
X891248Y104337D01*
X898964D01*
X919950Y83351D01*
Y81182D01*
X920642Y78598D01*
X921980Y76282D01*
X923872Y74390D01*
X926188Y73052D01*
X928772Y72360D01*
X931448D01*
X934032Y73052D01*
X936348Y74390D01*
X938240Y76282D01*
X939577Y78598D01*
X940270Y81182D01*
Y83858D01*
X939577Y86442D01*
X938240Y88758D01*
X936348Y90650D01*
X934032Y91988D01*
X931448Y92680D01*
X929279D01*
X923313Y98646D01*
X924093Y99662D01*
X926188Y98452D01*
X927610Y98071D01*
Y105420D01*
X920261D01*
X920642Y103998D01*
X921852Y101903D01*
X920836Y101123D01*
X906361Y115598D01*
X904995Y116646D01*
X903404Y117305D01*
X901697Y117530D01*
X893980D01*
X874553Y136957D01*
X875039Y138130D01*
X898300D01*
Y163210D01*
X890801D01*
X890548Y164480D01*
X892084Y165116D01*
X894704Y167126D01*
X896714Y169746D01*
X897977Y172796D01*
X898079Y173570D01*
X883260D01*
Y178570D01*
X898079D01*
X897977Y179344D01*
X896714Y182394D01*
X894704Y185014D01*
X892084Y187024D01*
X889528Y188083D01*
Y189457D01*
X892084Y190516D01*
X894704Y192526D01*
X896714Y195146D01*
X897977Y198196D01*
X898408Y201470D01*
X897977Y204744D01*
X896714Y207794D01*
X894704Y210414D01*
X892084Y212424D01*
X889528Y213483D01*
Y214857D01*
X892084Y215916D01*
X894704Y217926D01*
X896714Y220546D01*
X897977Y223596D01*
X898408Y226870D01*
X897977Y230144D01*
X897442Y231435D01*
X898519Y232154D01*
X921220Y209453D01*
Y208722D01*
X921826Y206461D01*
X922996Y204433D01*
X924651Y202778D01*
X926678Y201608D01*
X928940Y201002D01*
X931280D01*
X933541Y201608D01*
X935568Y202778D01*
X937224Y204433D01*
X938394Y206461D01*
X939000Y208722D01*
Y211063D01*
X938394Y213323D01*
X937224Y215351D01*
X935568Y217006D01*
X933541Y218176D01*
X931280Y218782D01*
X930549D01*
X908900Y240430D01*
Y301292D01*
X908676Y302999D01*
X908017Y304590D01*
X906968Y305956D01*
X905190Y307734D01*
X903824Y308783D01*
X902233Y309442D01*
X900526Y309666D01*
X896505D01*
X894704Y312014D01*
X892084Y314024D01*
X889528Y315083D01*
Y316457D01*
X892084Y317516D01*
X894704Y319526D01*
X896505Y321874D01*
X899986D01*
X916790Y305070D01*
Y266026D01*
X916272Y265509D01*
X915102Y263481D01*
X914496Y261220D01*
Y258880D01*
X915102Y256619D01*
X916272Y254591D01*
X917927Y252936D01*
X919955Y251766D01*
X922216Y251160D01*
X924556D01*
X926817Y251766D01*
X928845Y252936D01*
X930500Y254591D01*
X931670Y256619D01*
X932276Y258880D01*
Y261220D01*
X931670Y263481D01*
X930500Y265509D01*
X929982Y266026D01*
Y307802D01*
X929758Y309509D01*
X929099Y311100D01*
X928050Y312466D01*
X907382Y333134D01*
X906016Y334183D01*
X904425Y334842D01*
X902718Y335066D01*
X896505D01*
X894704Y337414D01*
X892084Y339424D01*
X889528Y340483D01*
Y341857D01*
X892084Y342916D01*
X894704Y344926D01*
X896714Y347546D01*
X897977Y350596D01*
X898408Y353870D01*
X897977Y357144D01*
X896714Y360194D01*
X894704Y362814D01*
X892084Y364824D01*
X889528Y365883D01*
Y367257D01*
X892084Y368316D01*
X894704Y370326D01*
X896714Y372946D01*
X897977Y375996D01*
X898408Y379270D01*
X897977Y382544D01*
X896714Y385594D01*
X894704Y388214D01*
X892084Y390224D01*
X889528Y391283D01*
Y392657D01*
X892084Y393716D01*
X894704Y395726D01*
X896714Y398346D01*
X897977Y401396D01*
X898408Y404670D01*
X897977Y407944D01*
X896714Y410994D01*
X894704Y413614D01*
X892084Y415624D01*
X889528Y416683D01*
Y418057D01*
X892084Y419116D01*
X894704Y421126D01*
X896714Y423746D01*
X897977Y426796D01*
X898408Y430070D01*
X897977Y433344D01*
X896714Y436394D01*
X894704Y439014D01*
X892084Y441024D01*
X889528Y442083D01*
Y443457D01*
X892084Y444516D01*
X894704Y446526D01*
X896714Y449146D01*
X897977Y452196D01*
X898408Y455470D01*
X897977Y458744D01*
X896714Y461794D01*
X894704Y464414D01*
X892084Y466424D01*
X889528Y467483D01*
Y468857D01*
X892084Y469916D01*
X894704Y471926D01*
X896505Y474273D01*
X902678D01*
X920720Y456231D01*
Y454198D01*
X921404Y451645D01*
X922726Y449355D01*
X924595Y447486D01*
X926885Y446164D01*
X929438Y445480D01*
X932082D01*
X934635Y446164D01*
X936925Y447486D01*
X938794Y449355D01*
X940116Y451645D01*
X940800Y454198D01*
Y456842D01*
X940116Y459395D01*
X938794Y461684D01*
X936925Y463554D01*
X934635Y464875D01*
X932082Y465560D01*
X930049D01*
X910074Y485534D01*
X908708Y486583D01*
X907117Y487242D01*
X905410Y487466D01*
X896505D01*
X894704Y489814D01*
X892084Y491824D01*
X889528Y492883D01*
Y494257D01*
X892084Y495316D01*
X894704Y497326D01*
X896714Y499946D01*
X897977Y502996D01*
X898408Y506270D01*
X897977Y509544D01*
X896714Y512594D01*
X894704Y515214D01*
X892084Y517224D01*
X889034Y518487D01*
X885760Y518918D01*
D02*
G37*
G36*
X565260Y251110D02*
X561760D01*
X558380Y250204D01*
X555350Y248455D01*
X552876Y245980D01*
X551126Y242950D01*
X550220Y239570D01*
Y236070D01*
X551126Y232690D01*
X552876Y229660D01*
X555350Y227185D01*
X558380Y225436D01*
X561760Y224530D01*
X565260D01*
X568640Y225436D01*
X571670Y227185D01*
X574145Y229660D01*
X575895Y232690D01*
X576800Y236070D01*
Y239570D01*
X575895Y242950D01*
X574145Y245980D01*
X571670Y248455D01*
X568640Y250204D01*
X565260Y251110D01*
D02*
G37*
G36*
X700070Y228710D02*
X692410D01*
Y210970D01*
X700070D01*
Y228710D01*
D02*
G37*
G36*
X687410D02*
X679750D01*
Y210970D01*
X687410D01*
Y228710D01*
D02*
G37*
G36*
X700070Y205970D02*
X692410D01*
Y188230D01*
X700070D01*
Y205970D01*
D02*
G37*
G36*
X687410D02*
X679750D01*
Y188230D01*
X687410D01*
Y205970D01*
D02*
G37*
G36*
X565260Y211510D02*
X561760D01*
X558380Y210604D01*
X555350Y208854D01*
X552876Y206380D01*
X551126Y203350D01*
X550220Y199970D01*
Y196470D01*
X551126Y193090D01*
X552876Y190060D01*
X555350Y187585D01*
X558380Y185835D01*
X561760Y184930D01*
X565260D01*
X568640Y185835D01*
X571670Y187585D01*
X574145Y190060D01*
X575895Y193090D01*
X576800Y196470D01*
Y199970D01*
X575895Y203350D01*
X574145Y206380D01*
X571670Y208854D01*
X568640Y210604D01*
X565260Y211510D01*
D02*
G37*
G36*
X931448Y168880D02*
X928772D01*
X926188Y168188D01*
X923872Y166850D01*
X921980Y164958D01*
X920642Y162642D01*
X919950Y160058D01*
Y157382D01*
X920642Y154798D01*
X921980Y152482D01*
X923872Y150590D01*
X926188Y149252D01*
X928772Y148560D01*
X931448D01*
X934032Y149252D01*
X936348Y150590D01*
X938240Y152482D01*
X939577Y154798D01*
X940270Y157382D01*
Y160058D01*
X939577Y162642D01*
X938240Y164958D01*
X936348Y166850D01*
X934032Y168188D01*
X931448Y168880D01*
D02*
G37*
G36*
X644079Y173570D02*
X614441D01*
X614543Y172796D01*
X615806Y169746D01*
X617816Y167126D01*
X620436Y165116D01*
X621972Y164480D01*
X621720Y163210D01*
X614220D01*
Y138130D01*
X644300D01*
Y163210D01*
X636801D01*
X636548Y164480D01*
X638084Y165116D01*
X640704Y167126D01*
X642714Y169746D01*
X643977Y172796D01*
X644079Y173570D01*
D02*
G37*
G36*
X931448Y143480D02*
X928772D01*
X926188Y142788D01*
X923872Y141450D01*
X921980Y139558D01*
X920642Y137242D01*
X919950Y134658D01*
Y131982D01*
X920642Y129398D01*
X921980Y127082D01*
X923872Y125190D01*
X926188Y123852D01*
X928772Y123160D01*
X931448D01*
X934032Y123852D01*
X936348Y125190D01*
X938240Y127082D01*
X939577Y129398D01*
X940270Y131982D01*
Y134658D01*
X939577Y137242D01*
X938240Y139558D01*
X936348Y141450D01*
X934032Y142788D01*
X931448Y143480D01*
D02*
G37*
G36*
X932610Y117768D02*
Y110420D01*
X939958D01*
X939577Y111842D01*
X938240Y114158D01*
X936348Y116050D01*
X934032Y117388D01*
X932610Y117768D01*
D02*
G37*
G36*
X927610D02*
X926188Y117388D01*
X923872Y116050D01*
X921980Y114158D01*
X920642Y111842D01*
X920261Y110420D01*
X927610D01*
Y117768D01*
D02*
G37*
G36*
X831010D02*
Y110420D01*
X838359D01*
X837978Y111842D01*
X836640Y114158D01*
X834748Y116050D01*
X832431Y117388D01*
X831010Y117768D01*
D02*
G37*
G36*
X826010D02*
X824588Y117388D01*
X822271Y116050D01*
X820380Y114158D01*
X819042Y111842D01*
X818661Y110420D01*
X826010D01*
Y117768D01*
D02*
G37*
G36*
X939958Y105420D02*
X932610D01*
Y98071D01*
X934032Y98452D01*
X936348Y99790D01*
X938240Y101682D01*
X939577Y103998D01*
X939958Y105420D01*
D02*
G37*
G36*
X838359D02*
X831010D01*
Y98071D01*
X832431Y98452D01*
X834748Y99790D01*
X836640Y101682D01*
X837978Y103998D01*
X838359Y105420D01*
D02*
G37*
G36*
X826010D02*
X818661D01*
X819042Y103998D01*
X820380Y101682D01*
X822271Y99790D01*
X824588Y98452D01*
X826010Y98071D01*
Y105420D01*
D02*
G37*
G36*
X773010Y102668D02*
Y96220D01*
X779458D01*
X779167Y97306D01*
X777944Y99424D01*
X776214Y101154D01*
X774096Y102377D01*
X773010Y102668D01*
D02*
G37*
G36*
X768010D02*
X766924Y102377D01*
X764806Y101154D01*
X763076Y99424D01*
X761853Y97306D01*
X761562Y96220D01*
X768010D01*
Y102668D01*
D02*
G37*
G36*
X779458Y91220D02*
X773010D01*
Y84772D01*
X774096Y85063D01*
X776214Y86286D01*
X777944Y88016D01*
X779167Y90134D01*
X779458Y91220D01*
D02*
G37*
G36*
X768010D02*
X761562D01*
X761853Y90134D01*
X763076Y88016D01*
X764806Y86286D01*
X766924Y85063D01*
X768010Y84772D01*
Y91220D01*
D02*
G37*
G36*
X829847Y92680D02*
X827172D01*
X824588Y91988D01*
X822271Y90650D01*
X820380Y88758D01*
X819042Y86442D01*
X818350Y83858D01*
Y81182D01*
X819042Y78598D01*
X820380Y76282D01*
X822271Y74390D01*
X824588Y73052D01*
X827172Y72360D01*
X829847D01*
X832431Y73052D01*
X834748Y74390D01*
X836640Y76282D01*
X837978Y78598D01*
X838670Y81182D01*
Y83858D01*
X837978Y86442D01*
X836640Y88758D01*
X834748Y90650D01*
X832431Y91988D01*
X829847Y92680D01*
D02*
G37*
G36*
X773010Y53418D02*
Y46970D01*
X779458D01*
X779167Y48056D01*
X777944Y50174D01*
X776214Y51904D01*
X774096Y53127D01*
X773010Y53418D01*
D02*
G37*
G36*
X768010D02*
X766924Y53127D01*
X764806Y51904D01*
X763076Y50174D01*
X761853Y48056D01*
X761562Y46970D01*
X768010D01*
Y53418D01*
D02*
G37*
G36*
X931448Y67280D02*
X928772D01*
X926188Y66588D01*
X923872Y65250D01*
X921980Y63358D01*
X920642Y61042D01*
X919950Y58458D01*
Y55782D01*
X920642Y53198D01*
X921980Y50882D01*
X923872Y48990D01*
X926188Y47652D01*
X928772Y46960D01*
X931448D01*
X934032Y47652D01*
X936348Y48990D01*
X938240Y50882D01*
X939577Y53198D01*
X940270Y55782D01*
Y58458D01*
X939577Y61042D01*
X938240Y63358D01*
X936348Y65250D01*
X934032Y66588D01*
X931448Y67280D01*
D02*
G37*
G36*
X779458Y41970D02*
X773010D01*
Y35522D01*
X774096Y35813D01*
X776214Y37036D01*
X777944Y38766D01*
X779167Y40884D01*
X779458Y41970D01*
D02*
G37*
G36*
X768010D02*
X761562D01*
X761853Y40884D01*
X763076Y38766D01*
X764806Y37036D01*
X766924Y35813D01*
X768010Y35522D01*
Y41970D01*
D02*
G37*
G36*
X576800Y171910D02*
X550220D01*
Y145330D01*
X556914D01*
Y131220D01*
X557138Y129513D01*
X557798Y127922D01*
X558846Y126555D01*
X645596Y39806D01*
X646962Y38757D01*
X648553Y38098D01*
X650260Y37874D01*
X711220D01*
Y35180D01*
X729800D01*
Y53760D01*
X711220D01*
Y51066D01*
X652992D01*
X570107Y133952D01*
Y145330D01*
X576800D01*
Y171910D01*
D02*
G37*
G36*
X931448Y41880D02*
X928772D01*
X926188Y41188D01*
X923872Y39850D01*
X921980Y37958D01*
X920642Y35642D01*
X919950Y33058D01*
Y30382D01*
X920642Y27798D01*
X921980Y25482D01*
X923872Y23590D01*
X926188Y22252D01*
X928772Y21560D01*
X931448D01*
X934032Y22252D01*
X936348Y23590D01*
X938240Y25482D01*
X939577Y27798D01*
X940270Y30382D01*
Y33058D01*
X939577Y35642D01*
X938240Y37958D01*
X936348Y39850D01*
X934032Y41188D01*
X931448Y41880D01*
D02*
G37*
%LPD*%
G36*
X709948Y324083D02*
X708805Y322594D01*
X707782Y320122D01*
X707432Y317470D01*
X707782Y314818D01*
X708805Y312346D01*
X710434Y310224D01*
X712556Y308595D01*
X715028Y307572D01*
X716464Y307382D01*
X716919Y306042D01*
X713946Y303068D01*
X713544Y302545D01*
X712286Y302024D01*
X709667Y300014D01*
X707656Y297394D01*
X706598Y294838D01*
X705223D01*
X704164Y297394D01*
X702154Y300014D01*
X699807Y301815D01*
Y315738D01*
X708991Y324922D01*
X709948Y324083D01*
D02*
G37*
G36*
X733056Y279746D02*
X735067Y277127D01*
X735068Y277107D01*
X728591Y270630D01*
X707520D01*
Y252676D01*
X692132D01*
X674407Y270402D01*
Y275325D01*
X676754Y277127D01*
X678764Y279746D01*
X679823Y282303D01*
X681198D01*
X682256Y279746D01*
X684267Y277127D01*
X686886Y275117D01*
X689937Y273853D01*
X693210Y273422D01*
X696484Y273853D01*
X699534Y275117D01*
X702154Y277127D01*
X704164Y279746D01*
X705223Y282303D01*
X706598D01*
X707656Y279746D01*
X709667Y277127D01*
X712286Y275117D01*
X715337Y273853D01*
X718610Y273422D01*
X721884Y273853D01*
X724934Y275117D01*
X727554Y277127D01*
X729564Y279746D01*
X730623Y282303D01*
X731998D01*
X733056Y279746D01*
D02*
G37*
G36*
X853823Y239091D02*
Y225594D01*
X852553Y224967D01*
X851384Y225865D01*
X848912Y226889D01*
X846260Y227238D01*
X843608Y226889D01*
X841136Y225865D01*
X839014Y224236D01*
X837385Y222114D01*
X836361Y219642D01*
X836012Y216990D01*
Y196830D01*
X836119Y196018D01*
X829780Y189679D01*
X828823Y190518D01*
X829735Y191706D01*
X830759Y194178D01*
X831108Y196830D01*
Y216990D01*
X830759Y219642D01*
X829735Y222114D01*
X828106Y224236D01*
X825984Y225865D01*
X823512Y226889D01*
X822050Y227081D01*
X821595Y228422D01*
X842560Y249387D01*
X843528D01*
X853823Y239091D01*
D02*
G37*
G36*
X711220Y93681D02*
Y90012D01*
X710047Y89526D01*
X665437Y134136D01*
Y137805D01*
X666610Y138291D01*
X711220Y93681D01*
D02*
G37*
%LPC*%
G36*
X433280Y516360D02*
X413200D01*
Y496280D01*
X433280D01*
Y516360D01*
D02*
G37*
G36*
X425740Y490644D02*
Y483420D01*
X432964D01*
X432596Y484795D01*
X431274Y487085D01*
X429405Y488954D01*
X427115Y490275D01*
X425740Y490644D01*
D02*
G37*
G36*
X420740D02*
X419365Y490275D01*
X417075Y488954D01*
X415206Y487085D01*
X413884Y484795D01*
X413516Y483420D01*
X420740D01*
Y490644D01*
D02*
G37*
G36*
X432964Y478420D02*
X425740D01*
Y471195D01*
X427115Y471564D01*
X429405Y472886D01*
X431274Y474755D01*
X432596Y477044D01*
X432964Y478420D01*
D02*
G37*
G36*
X420740D02*
X413516D01*
X413884Y477044D01*
X415206Y474755D01*
X417075Y472886D01*
X419365Y471564D01*
X420740Y471195D01*
Y478420D01*
D02*
G37*
G36*
X70780Y488010D02*
X52200D01*
Y469430D01*
X70780D01*
Y488010D01*
D02*
G37*
G36*
X307740Y457754D02*
Y451720D01*
X313774D01*
X313524Y452651D01*
X312354Y454679D01*
X310699Y456334D01*
X308671Y457504D01*
X307740Y457754D01*
D02*
G37*
G36*
X302740D02*
X301809Y457504D01*
X299781Y456334D01*
X298126Y454679D01*
X296956Y452651D01*
X296706Y451720D01*
X302740D01*
Y457754D01*
D02*
G37*
G36*
X211090Y457118D02*
X207817Y456687D01*
X204766Y455424D01*
X202146Y453414D01*
X200137Y450794D01*
X199077Y448237D01*
X197703D01*
X196644Y450794D01*
X194634Y453414D01*
X192014Y455424D01*
X188964Y456687D01*
X185690Y457118D01*
X182417Y456687D01*
X179366Y455424D01*
X176747Y453414D01*
X174736Y450794D01*
X173678Y448237D01*
X172303D01*
X171244Y450794D01*
X169234Y453414D01*
X166614Y455424D01*
X163564Y456687D01*
X160290Y457118D01*
X157017Y456687D01*
X153966Y455424D01*
X151347Y453414D01*
X149337Y450794D01*
X148073Y447743D01*
X147642Y444470D01*
Y439470D01*
X148073Y436196D01*
X149337Y433146D01*
X151347Y430526D01*
X153966Y428516D01*
X157017Y427253D01*
X160290Y426822D01*
X163564Y427253D01*
X166614Y428516D01*
X169234Y430526D01*
X171244Y433146D01*
X172303Y435703D01*
X173678D01*
X174736Y433146D01*
X176747Y430526D01*
X179366Y428516D01*
X182417Y427253D01*
X185690Y426822D01*
X188964Y427253D01*
X192014Y428516D01*
X194634Y430526D01*
X196644Y433146D01*
X197703Y435703D01*
X199077D01*
X200137Y433146D01*
X202146Y430526D01*
X204766Y428516D01*
X207817Y427253D01*
X211090Y426822D01*
X214364Y427253D01*
X217414Y428516D01*
X220034Y430526D01*
X222044Y433146D01*
X222680Y434682D01*
X223950Y434429D01*
Y426930D01*
X249030D01*
Y457010D01*
X223950D01*
Y449510D01*
X222680Y449258D01*
X222044Y450794D01*
X220034Y453414D01*
X217414Y455424D01*
X214364Y456687D01*
X211090Y457118D01*
D02*
G37*
G36*
X313774Y446720D02*
X307740D01*
Y440686D01*
X308671Y440936D01*
X310699Y442106D01*
X312354Y443761D01*
X313524Y445789D01*
X313774Y446720D01*
D02*
G37*
G36*
X302740D02*
X296706D01*
X296956Y445789D01*
X298126Y443761D01*
X299781Y442106D01*
X301809Y440936D01*
X302740Y440686D01*
Y446720D01*
D02*
G37*
G36*
X424562Y440160D02*
X421918D01*
X419365Y439476D01*
X417075Y438154D01*
X415206Y436284D01*
X413884Y433995D01*
X413200Y431442D01*
Y428798D01*
X413884Y426245D01*
X415206Y423955D01*
X417075Y422086D01*
X419365Y420764D01*
X421918Y420080D01*
X424562D01*
X427115Y420764D01*
X429405Y422086D01*
X431274Y423955D01*
X432596Y426245D01*
X433280Y428798D01*
Y431442D01*
X432596Y433995D01*
X431274Y436284D01*
X429405Y438154D01*
X427115Y439476D01*
X424562Y440160D01*
D02*
G37*
G36*
Y414760D02*
X421918D01*
X419365Y414076D01*
X417075Y412754D01*
X415206Y410885D01*
X413884Y408595D01*
X413200Y406042D01*
Y403398D01*
X413884Y400844D01*
X415206Y398555D01*
X417075Y396686D01*
X419365Y395364D01*
X421918Y394680D01*
X424562D01*
X427115Y395364D01*
X429405Y396686D01*
X431274Y398555D01*
X432596Y400844D01*
X433280Y403398D01*
Y406042D01*
X432596Y408595D01*
X431274Y410885D01*
X429405Y412754D01*
X427115Y414076D01*
X424562Y414760D01*
D02*
G37*
G36*
X63990Y397668D02*
Y391220D01*
X70438D01*
X70147Y392306D01*
X68924Y394424D01*
X67194Y396154D01*
X65076Y397377D01*
X63990Y397668D01*
D02*
G37*
G36*
X58990D02*
X57904Y397377D01*
X55786Y396154D01*
X54056Y394424D01*
X52833Y392306D01*
X52542Y391220D01*
X58990D01*
Y397668D01*
D02*
G37*
G36*
X70438Y386220D02*
X63990D01*
Y379772D01*
X65076Y380063D01*
X67194Y381286D01*
X68924Y383016D01*
X70147Y385134D01*
X70438Y386220D01*
D02*
G37*
G36*
X58990D02*
X52542D01*
X52833Y385134D01*
X54056Y383016D01*
X55786Y381286D01*
X57904Y380063D01*
X58990Y379772D01*
Y386220D01*
D02*
G37*
G36*
X323500Y389710D02*
X315840D01*
Y371970D01*
X323500D01*
Y389710D01*
D02*
G37*
G36*
X310840D02*
X303180D01*
Y371970D01*
X310840D01*
Y389710D01*
D02*
G37*
G36*
X424562Y389360D02*
X421918D01*
X419365Y388675D01*
X417075Y387354D01*
X415206Y385485D01*
X413884Y383195D01*
X413200Y380642D01*
Y377998D01*
X413884Y375444D01*
X415206Y373155D01*
X417075Y371286D01*
X419365Y369964D01*
X421918Y369280D01*
X424562D01*
X427115Y369964D01*
X429405Y371286D01*
X431274Y373155D01*
X432596Y375444D01*
X433280Y377998D01*
Y380642D01*
X432596Y383195D01*
X431274Y385485D01*
X429405Y387354D01*
X427115Y388675D01*
X424562Y389360D01*
D02*
G37*
G36*
X323500Y366970D02*
X315840D01*
Y349230D01*
X323500D01*
Y366970D01*
D02*
G37*
G36*
X310840D02*
X303180D01*
Y349230D01*
X310840D01*
Y366970D01*
D02*
G37*
G36*
X424562Y363960D02*
X421918D01*
X419365Y363275D01*
X417075Y361954D01*
X415206Y360084D01*
X413884Y357795D01*
X413200Y355242D01*
Y352598D01*
X413884Y350045D01*
X415206Y347755D01*
X417075Y345886D01*
X419365Y344564D01*
X421918Y343880D01*
X424562D01*
X427115Y344564D01*
X429405Y345886D01*
X431274Y347755D01*
X432596Y350045D01*
X433280Y352598D01*
Y355242D01*
X432596Y357795D01*
X431274Y360084D01*
X429405Y361954D01*
X427115Y363275D01*
X424562Y363960D01*
D02*
G37*
G36*
X56990Y337559D02*
Y326970D01*
X67579D01*
X66874Y329600D01*
X65125Y332630D01*
X62650Y335105D01*
X59620Y336854D01*
X56990Y337559D01*
D02*
G37*
G36*
X51990D02*
X49360Y336854D01*
X46330Y335105D01*
X43855Y332630D01*
X42106Y329600D01*
X41401Y326970D01*
X51990D01*
Y337559D01*
D02*
G37*
G36*
X242348Y409902D02*
X169740D01*
X168033Y409678D01*
X166442Y409019D01*
X165076Y407970D01*
X152326Y395221D01*
X151278Y393854D01*
X150618Y392263D01*
X150394Y390556D01*
Y388855D01*
X149744Y388356D01*
X148115Y386234D01*
X147092Y383762D01*
X146742Y381110D01*
Y360950D01*
X147092Y358298D01*
X148115Y355826D01*
X149744Y353704D01*
X151866Y352075D01*
X154338Y351051D01*
X156990Y350702D01*
X159642Y351051D01*
X162114Y352075D01*
X164236Y353704D01*
X165865Y355826D01*
X166889Y358298D01*
X167238Y360950D01*
Y381110D01*
X166889Y383762D01*
X165865Y386234D01*
X164236Y388356D01*
X164229Y388466D01*
X172472Y396710D01*
X239616D01*
X268880Y367445D01*
Y361748D01*
X269105Y360040D01*
X269764Y358450D01*
X270812Y357083D01*
X287501Y340394D01*
X288867Y339346D01*
X290458Y338687D01*
X292166Y338462D01*
X292419D01*
X303850Y327031D01*
Y326300D01*
X304456Y324039D01*
X305626Y322011D01*
X307281Y320356D01*
X309309Y319186D01*
X311570Y318580D01*
X313910D01*
X316171Y319186D01*
X318199Y320356D01*
X319854Y322011D01*
X321024Y324039D01*
X321630Y326300D01*
Y328640D01*
X321024Y330901D01*
X319854Y332929D01*
X318199Y334584D01*
X316171Y335754D01*
X313910Y336360D01*
X313179D01*
X299816Y349723D01*
X298450Y350771D01*
X296859Y351430D01*
X295152Y351655D01*
X294898D01*
X282073Y364480D01*
Y370178D01*
X281848Y371885D01*
X281189Y373476D01*
X280141Y374842D01*
X247012Y407970D01*
X245646Y409019D01*
X244055Y409678D01*
X242348Y409902D01*
D02*
G37*
G36*
X424562Y338560D02*
X421918D01*
X419365Y337876D01*
X417075Y336554D01*
X415206Y334684D01*
X413884Y332395D01*
X413200Y329842D01*
Y327198D01*
X413884Y324645D01*
X415206Y322355D01*
X417075Y320486D01*
X419365Y319164D01*
X421918Y318480D01*
X424562D01*
X427115Y319164D01*
X429405Y320486D01*
X431274Y322355D01*
X432596Y324645D01*
X433280Y327198D01*
Y329842D01*
X432596Y332395D01*
X431274Y334684D01*
X429405Y336554D01*
X427115Y337876D01*
X424562Y338560D01*
D02*
G37*
G36*
X67579Y321970D02*
X56990D01*
Y311381D01*
X59620Y312086D01*
X62650Y313835D01*
X65125Y316310D01*
X66874Y319340D01*
X67579Y321970D01*
D02*
G37*
G36*
X51990D02*
X41401D01*
X42106Y319340D01*
X43855Y316310D01*
X46330Y313835D01*
X49360Y312086D01*
X51990Y311381D01*
Y321970D01*
D02*
G37*
G36*
X67780Y298160D02*
X41200D01*
Y271580D01*
X67780D01*
Y298160D01*
D02*
G37*
G36*
X378240Y518918D02*
X373240D01*
X369967Y518487D01*
X366916Y517224D01*
X364296Y515214D01*
X362286Y512594D01*
X361023Y509544D01*
X360592Y506270D01*
X361023Y502996D01*
X362286Y499946D01*
X364296Y497326D01*
X366916Y495316D01*
X369473Y494257D01*
Y492883D01*
X366916Y491824D01*
X364296Y489814D01*
X362286Y487194D01*
X361023Y484144D01*
X360592Y480870D01*
X361023Y477596D01*
X362286Y474546D01*
X364296Y471926D01*
X366916Y469916D01*
X369473Y468857D01*
Y467483D01*
X366916Y466424D01*
X364296Y464414D01*
X362286Y461794D01*
X361023Y458744D01*
X360592Y455470D01*
X361023Y452196D01*
X362286Y449146D01*
X364296Y446526D01*
X366916Y444516D01*
X369473Y443457D01*
Y442083D01*
X366916Y441024D01*
X364296Y439014D01*
X362286Y436394D01*
X361023Y433344D01*
X360592Y430070D01*
X361023Y426796D01*
X362286Y423746D01*
X364296Y421126D01*
X366916Y419116D01*
X369473Y418057D01*
Y416683D01*
X366916Y415624D01*
X364296Y413614D01*
X362286Y410994D01*
X361023Y407944D01*
X360592Y404670D01*
X361023Y401396D01*
X362286Y398346D01*
X364296Y395726D01*
X366916Y393716D01*
X369473Y392657D01*
Y391283D01*
X366916Y390224D01*
X364296Y388214D01*
X362286Y385594D01*
X361023Y382544D01*
X360592Y379270D01*
X361023Y375996D01*
X362286Y372946D01*
X364296Y370326D01*
X366916Y368316D01*
X369473Y367257D01*
Y365883D01*
X366916Y364824D01*
X364296Y362814D01*
X362286Y360194D01*
X361023Y357144D01*
X360592Y353870D01*
X361023Y350596D01*
X362286Y347546D01*
X364296Y344926D01*
X366916Y342916D01*
X369473Y341857D01*
Y340483D01*
X366916Y339424D01*
X364296Y337414D01*
X362286Y334794D01*
X361023Y331744D01*
X360592Y328470D01*
X361023Y325196D01*
X362286Y322146D01*
X364296Y319526D01*
X366916Y317516D01*
X369473Y316457D01*
Y315083D01*
X366916Y314024D01*
X364296Y312014D01*
X362286Y309394D01*
X361023Y306344D01*
X360592Y303070D01*
X361023Y299796D01*
X362286Y296746D01*
X364296Y294126D01*
X366916Y292116D01*
X369473Y291057D01*
Y289683D01*
X366916Y288624D01*
X364296Y286614D01*
X362286Y283994D01*
X361023Y280944D01*
X360592Y277670D01*
X361023Y274396D01*
X362286Y271346D01*
X364296Y268726D01*
X366916Y266716D01*
X369473Y265657D01*
Y264283D01*
X366916Y263224D01*
X364296Y261214D01*
X362286Y258594D01*
X361023Y255544D01*
X360592Y252270D01*
X361023Y248996D01*
X362286Y245946D01*
X364296Y243326D01*
X366916Y241316D01*
X369473Y240257D01*
Y238883D01*
X366916Y237824D01*
X364296Y235814D01*
X362286Y233194D01*
X361023Y230144D01*
X360766Y228195D01*
X359496Y228279D01*
Y241823D01*
X359272Y243531D01*
X358613Y245122D01*
X357564Y246488D01*
X345336Y258716D01*
Y351645D01*
X345986Y352144D01*
X347615Y354266D01*
X348638Y356738D01*
X348988Y359390D01*
Y379550D01*
X348638Y382202D01*
X347615Y384674D01*
X345986Y386796D01*
X343864Y388425D01*
X341392Y389449D01*
X338740Y389798D01*
X336088Y389449D01*
X333616Y388425D01*
X331494Y386796D01*
X329865Y384674D01*
X328842Y382202D01*
X328492Y379550D01*
Y359390D01*
X328842Y356738D01*
X329865Y354266D01*
X331494Y352144D01*
X332144Y351645D01*
Y262558D01*
X330601Y262355D01*
X329010Y261696D01*
X327644Y260648D01*
X256943Y189947D01*
X255895Y188581D01*
X255236Y186990D01*
X255011Y185283D01*
Y145070D01*
X212990Y103049D01*
X168457Y147582D01*
Y183420D01*
X168232Y185128D01*
X167573Y186718D01*
X166525Y188085D01*
X164189Y190421D01*
X164236Y191144D01*
X165865Y193266D01*
X166889Y195738D01*
X167238Y198390D01*
Y218550D01*
X166889Y221202D01*
X165865Y223674D01*
X164236Y225796D01*
X162114Y227425D01*
X159642Y228449D01*
X156990Y228798D01*
X154338Y228449D01*
X151866Y227425D01*
X150682Y226516D01*
X149412Y227143D01*
Y277672D01*
X150615Y278080D01*
X151347Y277127D01*
X153694Y275325D01*
Y267670D01*
X153919Y265963D01*
X154578Y264372D01*
X155626Y263006D01*
X177216Y241416D01*
X178582Y240367D01*
X180173Y239708D01*
X181880Y239484D01*
X244670D01*
X246377Y239708D01*
X247968Y240367D01*
X249334Y241416D01*
X250383Y242782D01*
X251042Y244373D01*
X251266Y246080D01*
Y250118D01*
X255022Y253874D01*
X257665D01*
X258164Y253224D01*
X260286Y251595D01*
X262758Y250571D01*
X265410Y250222D01*
X285570D01*
X288222Y250571D01*
X290694Y251595D01*
X292816Y253224D01*
X294445Y255346D01*
X295469Y257818D01*
X295818Y260470D01*
X295469Y263122D01*
X294445Y265594D01*
X292816Y267716D01*
X290694Y269345D01*
X288222Y270368D01*
X285570Y270718D01*
X265410D01*
X262758Y270368D01*
X260286Y269345D01*
X258164Y267716D01*
X257665Y267066D01*
X252290D01*
X250583Y266842D01*
X248992Y266183D01*
X247626Y265135D01*
X241653Y259162D01*
X240480Y259648D01*
Y270630D01*
X240480Y270630D01*
X240480D01*
X240867Y271769D01*
X241155Y272056D01*
X242203Y273422D01*
X242862Y275013D01*
X242882Y275169D01*
X245434Y277127D01*
X247444Y279746D01*
X248707Y282796D01*
X249138Y286070D01*
Y291070D01*
X248707Y294344D01*
X247444Y297394D01*
X245434Y300014D01*
X242814Y302024D01*
X239764Y303287D01*
X236490Y303718D01*
X233217Y303287D01*
X230166Y302024D01*
X227547Y300014D01*
X225536Y297394D01*
X224478Y294838D01*
X223103D01*
X222044Y297394D01*
X220900Y298885D01*
X224904Y302889D01*
X225952Y304255D01*
X226611Y305846D01*
X226793Y307222D01*
X230320D01*
X232972Y307572D01*
X235444Y308595D01*
X237566Y310224D01*
X239195Y312346D01*
X240219Y314818D01*
X240549Y317325D01*
X241356Y317859D01*
X241661Y318009D01*
X246864Y312806D01*
X248230Y311758D01*
X249821Y311099D01*
X251528Y310874D01*
X255250D01*
Y307310D01*
X295730D01*
Y327630D01*
X255250D01*
Y324743D01*
X253980Y324347D01*
X238429Y339898D01*
X237062Y340947D01*
X235471Y341606D01*
X233764Y341830D01*
X202454D01*
X200747Y341606D01*
X199156Y340947D01*
X197790Y339898D01*
X181026Y323134D01*
X179977Y321768D01*
X179319Y320177D01*
X179094Y318470D01*
Y301815D01*
X176747Y300014D01*
X174736Y297394D01*
X173678Y294838D01*
X172303D01*
X171244Y297394D01*
X169234Y300014D01*
X166614Y302024D01*
X163564Y303287D01*
X160290Y303718D01*
X157017Y303287D01*
X153966Y302024D01*
X151347Y300014D01*
X150615Y299060D01*
X149412Y299469D01*
Y306340D01*
X187055Y343982D01*
X188103Y345348D01*
X188762Y346939D01*
X188987Y348646D01*
Y353205D01*
X189636Y353704D01*
X191265Y355826D01*
X192288Y358298D01*
X192638Y360950D01*
Y381110D01*
X192288Y383762D01*
X191265Y386234D01*
X189636Y388356D01*
X187514Y389985D01*
X185042Y391008D01*
X182390Y391358D01*
X179738Y391008D01*
X177266Y389985D01*
X175144Y388356D01*
X173515Y386234D01*
X172491Y383762D01*
X172142Y381110D01*
Y360950D01*
X172491Y358298D01*
X173515Y355826D01*
X175144Y353704D01*
X175794Y353205D01*
Y351379D01*
X138152Y313736D01*
X137103Y312370D01*
X136444Y310779D01*
X136331Y309916D01*
X135903Y309720D01*
X135012Y309631D01*
X133184Y312014D01*
X130564Y314024D01*
X128007Y315083D01*
Y316457D01*
X130564Y317516D01*
X133184Y319526D01*
X135194Y322146D01*
X136457Y325196D01*
X136888Y328470D01*
X136457Y331744D01*
X135194Y334794D01*
X133184Y337414D01*
X130564Y339424D01*
X128007Y340483D01*
Y341857D01*
X130564Y342916D01*
X133184Y344926D01*
X135194Y347546D01*
X136457Y350596D01*
X136888Y353870D01*
X136457Y357144D01*
X135194Y360194D01*
X133184Y362814D01*
X130564Y364824D01*
X128007Y365883D01*
Y367257D01*
X130564Y368316D01*
X133184Y370326D01*
X135194Y372946D01*
X136457Y375996D01*
X136888Y379270D01*
X136457Y382544D01*
X135194Y385594D01*
X133184Y388214D01*
X130564Y390224D01*
X128007Y391283D01*
Y392657D01*
X130564Y393716D01*
X133184Y395726D01*
X135194Y398346D01*
X136457Y401396D01*
X136888Y404670D01*
X136457Y407944D01*
X135194Y410994D01*
X133184Y413614D01*
X130564Y415624D01*
X128007Y416683D01*
Y418057D01*
X130564Y419116D01*
X133184Y421126D01*
X135194Y423746D01*
X136457Y426796D01*
X136888Y430070D01*
X136457Y433344D01*
X135194Y436394D01*
X133184Y439014D01*
X130564Y441024D01*
X128007Y442083D01*
Y443457D01*
X130564Y444516D01*
X133184Y446526D01*
X135194Y449146D01*
X136457Y452196D01*
X136888Y455470D01*
X136457Y458744D01*
X135194Y461794D01*
X133184Y464414D01*
X130564Y466424D01*
X128007Y467483D01*
Y468857D01*
X130564Y469916D01*
X133184Y471926D01*
X135194Y474546D01*
X136457Y477596D01*
X136888Y480870D01*
X136457Y484144D01*
X135194Y487194D01*
X133184Y489814D01*
X130564Y491824D01*
X128007Y492883D01*
Y494257D01*
X130564Y495316D01*
X133184Y497326D01*
X135194Y499946D01*
X136457Y502996D01*
X136888Y506270D01*
X136457Y509544D01*
X135194Y512594D01*
X133184Y515214D01*
X130564Y517224D01*
X127514Y518487D01*
X124240Y518918D01*
X119240D01*
X115967Y518487D01*
X112916Y517224D01*
X110296Y515214D01*
X108286Y512594D01*
X107023Y509544D01*
X106592Y506270D01*
X107023Y502996D01*
X108286Y499946D01*
X110296Y497326D01*
X112916Y495316D01*
X115473Y494257D01*
Y492883D01*
X112916Y491824D01*
X110296Y489814D01*
X108286Y487194D01*
X107023Y484144D01*
X106592Y480870D01*
X107023Y477596D01*
X108286Y474546D01*
X110296Y471926D01*
X112916Y469916D01*
X115473Y468857D01*
Y467483D01*
X112916Y466424D01*
X110296Y464414D01*
X108286Y461794D01*
X107023Y458744D01*
X106592Y455470D01*
X107023Y452196D01*
X108286Y449146D01*
X110296Y446526D01*
X112916Y444516D01*
X115473Y443457D01*
Y442083D01*
X112916Y441024D01*
X110296Y439014D01*
X108286Y436394D01*
X107023Y433344D01*
X106592Y430070D01*
X107023Y426796D01*
X108286Y423746D01*
X110296Y421126D01*
X112916Y419116D01*
X115473Y418057D01*
Y416683D01*
X112916Y415624D01*
X110296Y413614D01*
X108286Y410994D01*
X107023Y407944D01*
X106592Y404670D01*
X107023Y401396D01*
X108286Y398346D01*
X110296Y395726D01*
X112916Y393716D01*
X115473Y392657D01*
Y391283D01*
X112916Y390224D01*
X110296Y388214D01*
X108286Y385594D01*
X107023Y382544D01*
X106592Y379270D01*
X107023Y375996D01*
X108286Y372946D01*
X110296Y370326D01*
X112916Y368316D01*
X115473Y367257D01*
Y365883D01*
X112916Y364824D01*
X110296Y362814D01*
X108286Y360194D01*
X107023Y357144D01*
X106592Y353870D01*
X107023Y350596D01*
X108286Y347546D01*
X110296Y344926D01*
X112916Y342916D01*
X115473Y341857D01*
Y340483D01*
X112916Y339424D01*
X110296Y337414D01*
X108286Y334794D01*
X107023Y331744D01*
X106592Y328470D01*
X107023Y325196D01*
X108286Y322146D01*
X110296Y319526D01*
X112916Y317516D01*
X115473Y316457D01*
Y315083D01*
X112916Y314024D01*
X110296Y312014D01*
X108286Y309394D01*
X107023Y306344D01*
X106592Y303070D01*
X107023Y299796D01*
X108286Y296746D01*
X110296Y294126D01*
X112916Y292116D01*
X115473Y291057D01*
Y289683D01*
X112916Y288624D01*
X110296Y286614D01*
X108286Y283994D01*
X107023Y280944D01*
X106592Y277670D01*
X107023Y274396D01*
X108286Y271346D01*
X110296Y268726D01*
X112916Y266716D01*
X115473Y265657D01*
Y264283D01*
X112916Y263224D01*
X110296Y261214D01*
X108286Y258594D01*
X107023Y255544D01*
X106592Y252270D01*
X107023Y248996D01*
X108286Y245946D01*
X110296Y243326D01*
X112916Y241316D01*
X115473Y240257D01*
Y238883D01*
X112916Y237824D01*
X110296Y235814D01*
X108286Y233194D01*
X107023Y230144D01*
X106592Y226870D01*
X107023Y223596D01*
X108286Y220546D01*
X110296Y217926D01*
X112916Y215916D01*
X115473Y214857D01*
Y213483D01*
X112916Y212424D01*
X110296Y210414D01*
X108286Y207794D01*
X107023Y204744D01*
X106592Y201470D01*
X107023Y198196D01*
X108286Y195146D01*
X110296Y192526D01*
X112916Y190516D01*
X115473Y189457D01*
Y188083D01*
X112916Y187024D01*
X110296Y185014D01*
X108286Y182394D01*
X107023Y179344D01*
X106921Y178570D01*
X136559D01*
X136457Y179344D01*
X135194Y182394D01*
X133184Y185014D01*
X130564Y187024D01*
X128007Y188083D01*
Y189457D01*
X130564Y190516D01*
X133184Y192526D01*
X134950Y194828D01*
X136220Y194441D01*
Y186915D01*
X136444Y185208D01*
X137103Y183617D01*
X138152Y182250D01*
X144724Y175678D01*
Y131404D01*
X144949Y129696D01*
X145608Y128105D01*
X146656Y126739D01*
X208256Y65140D01*
X209622Y64091D01*
X211213Y63432D01*
X212920Y63208D01*
X280174D01*
X310830Y32551D01*
Y21560D01*
X331150D01*
Y41880D01*
X320159D01*
X314193Y47846D01*
X314973Y48862D01*
X317068Y47652D01*
X319652Y46960D01*
X322327D01*
X324911Y47652D01*
X327228Y48990D01*
X329120Y50882D01*
X330458Y53198D01*
X331150Y55782D01*
Y58458D01*
X330458Y61042D01*
X329120Y63358D01*
X327228Y65250D01*
X324911Y66588D01*
X322327Y67280D01*
X319652D01*
X317068Y66588D01*
X314751Y65250D01*
X312860Y63358D01*
X311522Y61042D01*
X310830Y58458D01*
Y55782D01*
X311522Y53198D01*
X312732Y51103D01*
X311716Y50323D01*
X287570Y74468D01*
X286204Y75517D01*
X284613Y76176D01*
X282906Y76400D01*
X215652D01*
X208796Y83257D01*
X209282Y84430D01*
X222280D01*
Y93681D01*
X266272Y137673D01*
X267320Y139039D01*
X267979Y140630D01*
X268204Y142337D01*
Y182551D01*
X301822Y216169D01*
X303092Y215643D01*
Y196830D01*
X303442Y194178D01*
X304465Y191706D01*
X306094Y189584D01*
X306147Y188779D01*
X300966Y183598D01*
X299917Y182232D01*
X299258Y180641D01*
X299034Y178934D01*
Y148680D01*
X299258Y146973D01*
X299917Y145382D01*
X300966Y144016D01*
X310830Y134151D01*
Y131982D01*
X311522Y129398D01*
X312860Y127082D01*
X314751Y125190D01*
X317068Y123852D01*
X319652Y123160D01*
X322327D01*
X324911Y123852D01*
X327228Y125190D01*
X329120Y127082D01*
X330458Y129398D01*
X331150Y131982D01*
Y134658D01*
X330458Y137242D01*
X329120Y139558D01*
X327228Y141450D01*
X324911Y142788D01*
X322327Y143480D01*
X320159D01*
X314193Y149446D01*
X314973Y150462D01*
X317068Y149252D01*
X319652Y148560D01*
X322327D01*
X324911Y149252D01*
X327228Y150590D01*
X329120Y152482D01*
X330458Y154798D01*
X331150Y157382D01*
Y160058D01*
X330458Y162642D01*
X329120Y164958D01*
X328806Y165273D01*
Y177567D01*
X337928Y186689D01*
X338740Y186582D01*
X341392Y186931D01*
X343864Y187955D01*
X345033Y188853D01*
X346303Y188226D01*
Y141761D01*
X346528Y140054D01*
X347187Y138463D01*
X348236Y137097D01*
X379063Y106269D01*
X380430Y105221D01*
X382020Y104562D01*
X383728Y104337D01*
X391445D01*
X412430Y83351D01*
Y81182D01*
X413122Y78598D01*
X414460Y76282D01*
X416352Y74390D01*
X418668Y73052D01*
X421252Y72360D01*
X423927D01*
X426511Y73052D01*
X428828Y74390D01*
X430720Y76282D01*
X432058Y78598D01*
X432750Y81182D01*
Y83858D01*
X432058Y86442D01*
X430720Y88758D01*
X428828Y90650D01*
X426511Y91988D01*
X423927Y92680D01*
X421759D01*
X415793Y98646D01*
X416573Y99662D01*
X418668Y98452D01*
X420090Y98071D01*
Y105420D01*
X412741D01*
X413122Y103998D01*
X414332Y101903D01*
X413316Y101123D01*
X398841Y115598D01*
X397475Y116646D01*
X395884Y117305D01*
X394177Y117530D01*
X386460D01*
X367033Y136957D01*
X367519Y138130D01*
X390780D01*
Y163210D01*
X383281D01*
X383028Y164480D01*
X384564Y165116D01*
X387184Y167126D01*
X389194Y169746D01*
X390457Y172796D01*
X390559Y173570D01*
X375740D01*
Y178570D01*
X390559D01*
X390457Y179344D01*
X389194Y182394D01*
X387184Y185014D01*
X384564Y187024D01*
X382007Y188083D01*
Y189457D01*
X384564Y190516D01*
X387184Y192526D01*
X389194Y195146D01*
X390457Y198196D01*
X390888Y201470D01*
X390457Y204744D01*
X389194Y207794D01*
X387184Y210414D01*
X384564Y212424D01*
X382007Y213483D01*
Y214857D01*
X384564Y215916D01*
X387184Y217926D01*
X389194Y220546D01*
X390457Y223596D01*
X390888Y226870D01*
X390457Y230144D01*
X389922Y231435D01*
X390999Y232154D01*
X413700Y209453D01*
Y208722D01*
X414306Y206461D01*
X415476Y204433D01*
X417131Y202778D01*
X419159Y201608D01*
X421419Y201002D01*
X423760D01*
X426021Y201608D01*
X428049Y202778D01*
X429704Y204433D01*
X430874Y206461D01*
X431480Y208722D01*
Y211063D01*
X430874Y213323D01*
X429704Y215351D01*
X428049Y217006D01*
X426021Y218176D01*
X423760Y218782D01*
X423029D01*
X401380Y240430D01*
Y301292D01*
X401156Y302999D01*
X400497Y304590D01*
X399448Y305956D01*
X397670Y307734D01*
X396304Y308783D01*
X394713Y309442D01*
X393006Y309666D01*
X388985D01*
X387184Y312014D01*
X384564Y314024D01*
X382007Y315083D01*
Y316457D01*
X384564Y317516D01*
X387184Y319526D01*
X388985Y321874D01*
X392466D01*
X409270Y305070D01*
Y266026D01*
X408752Y265509D01*
X407582Y263481D01*
X406976Y261220D01*
Y258880D01*
X407582Y256619D01*
X408752Y254591D01*
X410407Y252936D01*
X412435Y251766D01*
X414696Y251160D01*
X417036D01*
X419297Y251766D01*
X421325Y252936D01*
X422980Y254591D01*
X424150Y256619D01*
X424756Y258880D01*
Y261220D01*
X424150Y263481D01*
X422980Y265509D01*
X422462Y266026D01*
Y307802D01*
X422238Y309509D01*
X421579Y311100D01*
X420530Y312466D01*
X399862Y333134D01*
X398496Y334183D01*
X396905Y334842D01*
X395198Y335066D01*
X388985D01*
X387184Y337414D01*
X384564Y339424D01*
X382007Y340483D01*
Y341857D01*
X384564Y342916D01*
X387184Y344926D01*
X389194Y347546D01*
X390457Y350596D01*
X390888Y353870D01*
X390457Y357144D01*
X389194Y360194D01*
X387184Y362814D01*
X384564Y364824D01*
X382007Y365883D01*
Y367257D01*
X384564Y368316D01*
X387184Y370326D01*
X389194Y372946D01*
X390457Y375996D01*
X390888Y379270D01*
X390457Y382544D01*
X389194Y385594D01*
X387184Y388214D01*
X384564Y390224D01*
X382007Y391283D01*
Y392657D01*
X384564Y393716D01*
X387184Y395726D01*
X389194Y398346D01*
X390457Y401396D01*
X390888Y404670D01*
X390457Y407944D01*
X389194Y410994D01*
X387184Y413614D01*
X384564Y415624D01*
X382007Y416683D01*
Y418057D01*
X384564Y419116D01*
X387184Y421126D01*
X389194Y423746D01*
X390457Y426796D01*
X390888Y430070D01*
X390457Y433344D01*
X389194Y436394D01*
X387184Y439014D01*
X384564Y441024D01*
X382007Y442083D01*
Y443457D01*
X384564Y444516D01*
X387184Y446526D01*
X389194Y449146D01*
X390457Y452196D01*
X390888Y455470D01*
X390457Y458744D01*
X389194Y461794D01*
X387184Y464414D01*
X384564Y466424D01*
X382007Y467483D01*
Y468857D01*
X384564Y469916D01*
X387184Y471926D01*
X388985Y474273D01*
X395158D01*
X413200Y456231D01*
Y454198D01*
X413884Y451645D01*
X415206Y449355D01*
X417075Y447486D01*
X419365Y446164D01*
X421918Y445480D01*
X424562D01*
X427115Y446164D01*
X429405Y447486D01*
X431274Y449355D01*
X432596Y451645D01*
X433280Y454198D01*
Y456842D01*
X432596Y459395D01*
X431274Y461684D01*
X429405Y463554D01*
X427115Y464875D01*
X424562Y465560D01*
X422529D01*
X402554Y485534D01*
X401188Y486583D01*
X399597Y487242D01*
X397890Y487466D01*
X388985D01*
X387184Y489814D01*
X384564Y491824D01*
X382007Y492883D01*
Y494257D01*
X384564Y495316D01*
X387184Y497326D01*
X389194Y499946D01*
X390457Y502996D01*
X390888Y506270D01*
X390457Y509544D01*
X389194Y512594D01*
X387184Y515214D01*
X384564Y517224D01*
X381514Y518487D01*
X378240Y518918D01*
D02*
G37*
G36*
X57740Y251110D02*
X54240D01*
X50860Y250204D01*
X47830Y248455D01*
X45356Y245980D01*
X43606Y242950D01*
X42700Y239570D01*
Y236070D01*
X43606Y232690D01*
X45356Y229660D01*
X47830Y227185D01*
X50860Y225436D01*
X54240Y224530D01*
X57740D01*
X61120Y225436D01*
X64150Y227185D01*
X66625Y229660D01*
X68375Y232690D01*
X69280Y236070D01*
Y239570D01*
X68375Y242950D01*
X66625Y245980D01*
X64150Y248455D01*
X61120Y250204D01*
X57740Y251110D01*
D02*
G37*
G36*
X192550Y228710D02*
X184890D01*
Y210970D01*
X192550D01*
Y228710D01*
D02*
G37*
G36*
X179890D02*
X172230D01*
Y210970D01*
X179890D01*
Y228710D01*
D02*
G37*
G36*
X192550Y205970D02*
X184890D01*
Y188230D01*
X192550D01*
Y205970D01*
D02*
G37*
G36*
X179890D02*
X172230D01*
Y188230D01*
X179890D01*
Y205970D01*
D02*
G37*
G36*
X57740Y211510D02*
X54240D01*
X50860Y210604D01*
X47830Y208854D01*
X45356Y206380D01*
X43606Y203350D01*
X42700Y199970D01*
Y196470D01*
X43606Y193090D01*
X45356Y190060D01*
X47830Y187585D01*
X50860Y185835D01*
X54240Y184930D01*
X57740D01*
X61120Y185835D01*
X64150Y187585D01*
X66625Y190060D01*
X68375Y193090D01*
X69280Y196470D01*
Y199970D01*
X68375Y203350D01*
X66625Y206380D01*
X64150Y208854D01*
X61120Y210604D01*
X57740Y211510D01*
D02*
G37*
G36*
X423927Y168880D02*
X421252D01*
X418668Y168188D01*
X416352Y166850D01*
X414460Y164958D01*
X413122Y162642D01*
X412430Y160058D01*
Y157382D01*
X413122Y154798D01*
X414460Y152482D01*
X416352Y150590D01*
X418668Y149252D01*
X421252Y148560D01*
X423927D01*
X426511Y149252D01*
X428828Y150590D01*
X430720Y152482D01*
X432058Y154798D01*
X432750Y157382D01*
Y160058D01*
X432058Y162642D01*
X430720Y164958D01*
X428828Y166850D01*
X426511Y168188D01*
X423927Y168880D01*
D02*
G37*
G36*
X136559Y173570D02*
X106921D01*
X107023Y172796D01*
X108286Y169746D01*
X110296Y167126D01*
X112916Y165116D01*
X114452Y164480D01*
X114200Y163210D01*
X106700D01*
Y138130D01*
X136780D01*
Y163210D01*
X129281D01*
X129028Y164480D01*
X130564Y165116D01*
X133184Y167126D01*
X135194Y169746D01*
X136457Y172796D01*
X136559Y173570D01*
D02*
G37*
G36*
X423927Y143480D02*
X421252D01*
X418668Y142788D01*
X416352Y141450D01*
X414460Y139558D01*
X413122Y137242D01*
X412430Y134658D01*
Y131982D01*
X413122Y129398D01*
X414460Y127082D01*
X416352Y125190D01*
X418668Y123852D01*
X421252Y123160D01*
X423927D01*
X426511Y123852D01*
X428828Y125190D01*
X430720Y127082D01*
X432058Y129398D01*
X432750Y131982D01*
Y134658D01*
X432058Y137242D01*
X430720Y139558D01*
X428828Y141450D01*
X426511Y142788D01*
X423927Y143480D01*
D02*
G37*
G36*
X425090Y117768D02*
Y110420D01*
X432439D01*
X432058Y111842D01*
X430720Y114158D01*
X428828Y116050D01*
X426511Y117388D01*
X425090Y117768D01*
D02*
G37*
G36*
X420090D02*
X418668Y117388D01*
X416352Y116050D01*
X414460Y114158D01*
X413122Y111842D01*
X412741Y110420D01*
X420090D01*
Y117768D01*
D02*
G37*
G36*
X323490D02*
Y110420D01*
X330839D01*
X330458Y111842D01*
X329120Y114158D01*
X327228Y116050D01*
X324911Y117388D01*
X323490Y117768D01*
D02*
G37*
G36*
X318490D02*
X317068Y117388D01*
X314751Y116050D01*
X312860Y114158D01*
X311522Y111842D01*
X311141Y110420D01*
X318490D01*
Y117768D01*
D02*
G37*
G36*
X432439Y105420D02*
X425090D01*
Y98071D01*
X426511Y98452D01*
X428828Y99790D01*
X430720Y101682D01*
X432058Y103998D01*
X432439Y105420D01*
D02*
G37*
G36*
X330839D02*
X323490D01*
Y98071D01*
X324911Y98452D01*
X327228Y99790D01*
X329120Y101682D01*
X330458Y103998D01*
X330839Y105420D01*
D02*
G37*
G36*
X318490D02*
X311141D01*
X311522Y103998D01*
X312860Y101682D01*
X314751Y99790D01*
X317068Y98452D01*
X318490Y98071D01*
Y105420D01*
D02*
G37*
G36*
X265490Y102668D02*
Y96220D01*
X271938D01*
X271647Y97306D01*
X270424Y99424D01*
X268694Y101154D01*
X266576Y102377D01*
X265490Y102668D01*
D02*
G37*
G36*
X260490D02*
X259404Y102377D01*
X257286Y101154D01*
X255556Y99424D01*
X254333Y97306D01*
X254042Y96220D01*
X260490D01*
Y102668D01*
D02*
G37*
G36*
X271938Y91220D02*
X265490D01*
Y84772D01*
X266576Y85063D01*
X268694Y86286D01*
X270424Y88016D01*
X271647Y90134D01*
X271938Y91220D01*
D02*
G37*
G36*
X260490D02*
X254042D01*
X254333Y90134D01*
X255556Y88016D01*
X257286Y86286D01*
X259404Y85063D01*
X260490Y84772D01*
Y91220D01*
D02*
G37*
G36*
X322327Y92680D02*
X319652D01*
X317068Y91988D01*
X314751Y90650D01*
X312860Y88758D01*
X311522Y86442D01*
X310830Y83858D01*
Y81182D01*
X311522Y78598D01*
X312860Y76282D01*
X314751Y74390D01*
X317068Y73052D01*
X319652Y72360D01*
X322327D01*
X324911Y73052D01*
X327228Y74390D01*
X329120Y76282D01*
X330458Y78598D01*
X331150Y81182D01*
Y83858D01*
X330458Y86442D01*
X329120Y88758D01*
X327228Y90650D01*
X324911Y91988D01*
X322327Y92680D01*
D02*
G37*
G36*
X265490Y53418D02*
Y46970D01*
X271938D01*
X271647Y48056D01*
X270424Y50174D01*
X268694Y51904D01*
X266576Y53127D01*
X265490Y53418D01*
D02*
G37*
G36*
X260490D02*
X259404Y53127D01*
X257286Y51904D01*
X255556Y50174D01*
X254333Y48056D01*
X254042Y46970D01*
X260490D01*
Y53418D01*
D02*
G37*
G36*
X423927Y67280D02*
X421252D01*
X418668Y66588D01*
X416352Y65250D01*
X414460Y63358D01*
X413122Y61042D01*
X412430Y58458D01*
Y55782D01*
X413122Y53198D01*
X414460Y50882D01*
X416352Y48990D01*
X418668Y47652D01*
X421252Y46960D01*
X423927D01*
X426511Y47652D01*
X428828Y48990D01*
X430720Y50882D01*
X432058Y53198D01*
X432750Y55782D01*
Y58458D01*
X432058Y61042D01*
X430720Y63358D01*
X428828Y65250D01*
X426511Y66588D01*
X423927Y67280D01*
D02*
G37*
G36*
X271938Y41970D02*
X265490D01*
Y35522D01*
X266576Y35813D01*
X268694Y37036D01*
X270424Y38766D01*
X271647Y40884D01*
X271938Y41970D01*
D02*
G37*
G36*
X260490D02*
X254042D01*
X254333Y40884D01*
X255556Y38766D01*
X257286Y37036D01*
X259404Y35813D01*
X260490Y35522D01*
Y41970D01*
D02*
G37*
G36*
X69280Y171910D02*
X42700D01*
Y145330D01*
X49394D01*
Y131220D01*
X49619Y129513D01*
X50278Y127922D01*
X51326Y126555D01*
X138076Y39806D01*
X139442Y38757D01*
X141033Y38098D01*
X142740Y37874D01*
X203700D01*
Y35180D01*
X222280D01*
Y53760D01*
X203700D01*
Y51066D01*
X145472D01*
X62587Y133952D01*
Y145330D01*
X69280D01*
Y171910D01*
D02*
G37*
G36*
X423927Y41880D02*
X421252D01*
X418668Y41188D01*
X416352Y39850D01*
X414460Y37958D01*
X413122Y35642D01*
X412430Y33058D01*
Y30382D01*
X413122Y27798D01*
X414460Y25482D01*
X416352Y23590D01*
X418668Y22252D01*
X421252Y21560D01*
X423927D01*
X426511Y22252D01*
X428828Y23590D01*
X430720Y25482D01*
X432058Y27798D01*
X432750Y30382D01*
Y33058D01*
X432058Y35642D01*
X430720Y37958D01*
X428828Y39850D01*
X426511Y41188D01*
X423927Y41880D01*
D02*
G37*
%LPD*%
G36*
X202428Y324083D02*
X201285Y322594D01*
X200261Y320122D01*
X199912Y317470D01*
X200261Y314818D01*
X201285Y312346D01*
X202914Y310224D01*
X205036Y308595D01*
X207508Y307572D01*
X208944Y307382D01*
X209399Y306042D01*
X206426Y303068D01*
X206024Y302545D01*
X204766Y302024D01*
X202146Y300014D01*
X200137Y297394D01*
X199077Y294838D01*
X197703D01*
X196644Y297394D01*
X194634Y300014D01*
X192287Y301815D01*
Y315738D01*
X201471Y324922D01*
X202428Y324083D01*
D02*
G37*
G36*
X225536Y279746D02*
X227547Y277127D01*
X227548Y277107D01*
X221071Y270630D01*
X200000D01*
Y252676D01*
X184613D01*
X166887Y270402D01*
Y275325D01*
X169234Y277127D01*
X171244Y279746D01*
X172303Y282303D01*
X173678D01*
X174736Y279746D01*
X176747Y277127D01*
X179366Y275117D01*
X182417Y273853D01*
X185690Y273422D01*
X188964Y273853D01*
X192014Y275117D01*
X194634Y277127D01*
X196644Y279746D01*
X197703Y282303D01*
X199077D01*
X200137Y279746D01*
X202146Y277127D01*
X204766Y275117D01*
X207817Y273853D01*
X211090Y273422D01*
X214364Y273853D01*
X217414Y275117D01*
X220034Y277127D01*
X222044Y279746D01*
X223103Y282303D01*
X224478D01*
X225536Y279746D01*
D02*
G37*
G36*
X346303Y239091D02*
Y225594D01*
X345033Y224967D01*
X343864Y225865D01*
X341392Y226889D01*
X338740Y227238D01*
X336088Y226889D01*
X333616Y225865D01*
X331494Y224236D01*
X329865Y222114D01*
X328842Y219642D01*
X328492Y216990D01*
Y196830D01*
X328599Y196018D01*
X322260Y189679D01*
X321303Y190518D01*
X322215Y191706D01*
X323238Y194178D01*
X323588Y196830D01*
Y216990D01*
X323238Y219642D01*
X322215Y222114D01*
X320586Y224236D01*
X318464Y225865D01*
X315992Y226889D01*
X314530Y227081D01*
X314075Y228422D01*
X335040Y249387D01*
X336008D01*
X346303Y239091D01*
D02*
G37*
G36*
X203700Y93681D02*
Y90012D01*
X202527Y89526D01*
X157917Y134136D01*
Y137805D01*
X159090Y138291D01*
X203700Y93681D01*
D02*
G37*
D14*
X142740Y44470D02*
X212990D01*
X55990Y131220D02*
X142740Y44470D01*
X55990Y131220D02*
Y158620D01*
X332308Y255984D02*
X338740D01*
X261607Y142337D02*
Y185283D01*
X332308Y255984D01*
X212990Y93720D02*
X261607Y142337D01*
X338740Y196830D02*
Y206910D01*
X322209Y180299D02*
X338740Y196830D01*
Y255984D02*
X352900Y241823D01*
Y141761D02*
X383728Y110933D01*
X352900Y141761D02*
Y241823D01*
X383728Y110933D02*
X394177D01*
X338740Y255984D02*
Y369470D01*
X394177Y110933D02*
X422590Y82520D01*
X322209Y159939D02*
Y180299D01*
X320990Y158720D02*
X322209Y159939D01*
X292166Y345059D02*
X295152D01*
X312740Y327470D01*
X275476Y361748D02*
X292166Y345059D01*
X242348Y403306D02*
X275476Y370178D01*
Y361748D02*
Y370178D01*
X313340Y186644D02*
Y206910D01*
X305630Y178934D02*
X313340Y186644D01*
X305630Y148680D02*
Y178934D01*
Y148680D02*
X320990Y133320D01*
X236490Y276721D02*
Y288570D01*
X220240Y260470D02*
X236490Y276721D01*
X375740Y480870D02*
X397890D01*
X423240Y455520D01*
X185690Y288570D02*
Y318470D01*
X202454Y335234D01*
X233764D01*
X251528Y317470D01*
X275490D01*
X394784Y237698D02*
X422590Y209892D01*
X394784Y237698D02*
Y301292D01*
X393006Y303070D02*
X394784Y301292D01*
X375740Y303070D02*
X393006D01*
X375740Y328470D02*
X395198D01*
X415866Y307802D01*
Y260050D02*
Y307802D01*
X182390Y348646D02*
Y371030D01*
X142816Y309072D02*
X182390Y348646D01*
X142816Y186915D02*
Y309072D01*
Y186915D02*
X151320Y178410D01*
Y131404D02*
Y178410D01*
Y131404D02*
X212920Y69804D01*
X282906D01*
X320990Y31720D01*
X161860Y144850D02*
X212990Y93720D01*
X161860Y144850D02*
Y183420D01*
X156990Y188290D02*
X161860Y183420D01*
X156990Y188290D02*
Y208470D01*
X169740Y403306D02*
X242348D01*
X156990Y390556D02*
X169740Y403306D01*
X156990Y371030D02*
Y390556D01*
X252290Y260470D02*
X275490D01*
X244670Y252850D02*
X252290Y260470D01*
X244670Y246080D02*
Y252850D01*
X181880Y246080D02*
X244670D01*
X160290Y267670D02*
X181880Y246080D01*
X160290Y267670D02*
Y288570D01*
X220240Y307554D02*
Y317470D01*
X211090Y298404D02*
X220240Y307554D01*
X211090Y288570D02*
Y298404D01*
X650260Y44470D02*
X720510D01*
X563510Y131220D02*
X650260Y44470D01*
X563510Y131220D02*
Y158620D01*
X839828Y255984D02*
X846260D01*
X769127Y142337D02*
Y185283D01*
X839828Y255984D01*
X720510Y93720D02*
X769127Y142337D01*
X846260Y196830D02*
Y206910D01*
X829729Y180299D02*
X846260Y196830D01*
Y255984D02*
X860420Y241823D01*
Y141761D02*
X891248Y110933D01*
X860420Y141761D02*
Y241823D01*
X891248Y110933D02*
X901697D01*
X846260Y255984D02*
Y369470D01*
X901697Y110933D02*
X930110Y82520D01*
X829729Y159939D02*
Y180299D01*
X828510Y158720D02*
X829729Y159939D01*
X799686Y345059D02*
X802672D01*
X820260Y327470D01*
X782996Y361748D02*
X799686Y345059D01*
X749868Y403306D02*
X782996Y370178D01*
Y361748D02*
Y370178D01*
X820860Y186644D02*
Y206910D01*
X813150Y178934D02*
X820860Y186644D01*
X813150Y148680D02*
Y178934D01*
Y148680D02*
X828510Y133320D01*
X744010Y276721D02*
Y288570D01*
X727760Y260470D02*
X744010Y276721D01*
X883260Y480870D02*
X905410D01*
X930760Y455520D01*
X693210Y288570D02*
Y318470D01*
X709974Y335234D01*
X741284D01*
X759048Y317470D01*
X783010D01*
X902304Y237698D02*
X930110Y209892D01*
X902304Y237698D02*
Y301292D01*
X900526Y303070D02*
X902304Y301292D01*
X883260Y303070D02*
X900526D01*
X883260Y328470D02*
X902718D01*
X923386Y307802D01*
Y260050D02*
Y307802D01*
X689910Y348646D02*
Y371030D01*
X650336Y309072D02*
X689910Y348646D01*
X650336Y186915D02*
Y309072D01*
Y186915D02*
X658840Y178410D01*
Y131404D02*
Y178410D01*
Y131404D02*
X720440Y69804D01*
X790426D01*
X828510Y31720D01*
X669380Y144850D02*
X720510Y93720D01*
X669380Y144850D02*
Y183420D01*
X664510Y188290D02*
X669380Y183420D01*
X664510Y188290D02*
Y208470D01*
X677260Y403306D02*
X749868D01*
X664510Y390556D02*
X677260Y403306D01*
X664510Y371030D02*
Y390556D01*
X759810Y260470D02*
X783010D01*
X752190Y252850D02*
X759810Y260470D01*
X752190Y246080D02*
Y252850D01*
X689400Y246080D02*
X752190D01*
X667810Y267670D02*
X689400Y246080D01*
X667810Y267670D02*
Y288570D01*
X727760Y307554D02*
Y317470D01*
X718610Y298404D02*
X727760Y307554D01*
X718610Y288570D02*
Y298404D01*
D15*
X375740Y506270D02*
D03*
Y480870D02*
D03*
Y455470D02*
D03*
Y430070D02*
D03*
Y404670D02*
D03*
Y379270D02*
D03*
Y353870D02*
D03*
Y328470D02*
D03*
Y303070D02*
D03*
Y277670D02*
D03*
Y252270D02*
D03*
Y226870D02*
D03*
Y201470D02*
D03*
Y176070D02*
D03*
X121740Y226870D02*
D03*
Y506270D02*
D03*
Y480870D02*
D03*
Y455470D02*
D03*
Y430070D02*
D03*
Y404670D02*
D03*
Y379270D02*
D03*
Y353870D02*
D03*
Y328470D02*
D03*
Y303070D02*
D03*
Y277670D02*
D03*
Y252270D02*
D03*
Y201470D02*
D03*
Y176070D02*
D03*
X883260Y506270D02*
D03*
Y480870D02*
D03*
Y455470D02*
D03*
Y430070D02*
D03*
Y404670D02*
D03*
Y379270D02*
D03*
Y353870D02*
D03*
Y328470D02*
D03*
Y303070D02*
D03*
Y277670D02*
D03*
Y252270D02*
D03*
Y226870D02*
D03*
Y201470D02*
D03*
Y176070D02*
D03*
X629260Y226870D02*
D03*
Y506270D02*
D03*
Y480870D02*
D03*
Y455470D02*
D03*
Y430070D02*
D03*
Y404670D02*
D03*
Y379270D02*
D03*
Y353870D02*
D03*
Y328470D02*
D03*
Y303070D02*
D03*
Y277670D02*
D03*
Y252270D02*
D03*
Y201470D02*
D03*
Y176070D02*
D03*
D16*
X375740Y150670D02*
D03*
X121740D02*
D03*
X883260D02*
D03*
X629260D02*
D03*
D17*
X55990Y237820D02*
D03*
Y198220D02*
D03*
X54490Y324470D02*
D03*
X563510Y237820D02*
D03*
Y198220D02*
D03*
X562010Y324470D02*
D03*
D18*
X55990Y158620D02*
D03*
X54490Y284870D02*
D03*
X563510Y158620D02*
D03*
X562010Y284870D02*
D03*
D19*
X422590Y158720D02*
D03*
Y133320D02*
D03*
Y107920D02*
D03*
Y82520D02*
D03*
Y57120D02*
D03*
Y31720D02*
D03*
X320990Y133320D02*
D03*
Y57120D02*
D03*
Y158720D02*
D03*
Y107920D02*
D03*
Y82520D02*
D03*
X930110Y158720D02*
D03*
Y133320D02*
D03*
Y107920D02*
D03*
Y82520D02*
D03*
Y57120D02*
D03*
Y31720D02*
D03*
X828510Y133320D02*
D03*
Y57120D02*
D03*
Y158720D02*
D03*
Y107920D02*
D03*
Y82520D02*
D03*
D20*
X320990Y31720D02*
D03*
X828510D02*
D03*
D21*
X160290Y288570D02*
D03*
X185690D02*
D03*
X211090D02*
D03*
X236490D02*
D03*
X160290Y441970D02*
D03*
X185690D02*
D03*
X211090D02*
D03*
X667810Y288570D02*
D03*
X693210D02*
D03*
X718610D02*
D03*
X744010D02*
D03*
X667810Y441970D02*
D03*
X693210D02*
D03*
X718610D02*
D03*
D22*
X236490D02*
D03*
X744010D02*
D03*
D23*
X212990Y93720D02*
D03*
Y44470D02*
D03*
X720510Y93720D02*
D03*
Y44470D02*
D03*
D24*
X262990Y93720D02*
D03*
Y44470D02*
D03*
X61490Y388720D02*
D03*
X770510Y93720D02*
D03*
Y44470D02*
D03*
X569010Y388720D02*
D03*
D25*
X423240Y328520D02*
D03*
Y353920D02*
D03*
Y379320D02*
D03*
Y404720D02*
D03*
Y430120D02*
D03*
Y455520D02*
D03*
Y480920D02*
D03*
X930760Y328520D02*
D03*
Y353920D02*
D03*
Y379320D02*
D03*
Y404720D02*
D03*
Y430120D02*
D03*
Y455520D02*
D03*
Y480920D02*
D03*
D26*
X423240Y506320D02*
D03*
X930760D02*
D03*
D27*
X58990Y543671D02*
D03*
X566510D02*
D03*
D28*
X58990Y518270D02*
D03*
X566510D02*
D03*
D29*
X61490Y478720D02*
D03*
X569010D02*
D03*
D30*
X305240Y449220D02*
D03*
X312740Y327470D02*
D03*
X422590Y209892D02*
D03*
X415866Y260050D02*
D03*
X812760Y449220D02*
D03*
X820260Y327470D02*
D03*
X930110Y209892D02*
D03*
X923386Y260050D02*
D03*
D31*
X338740Y206910D02*
D03*
X313340D02*
D03*
X338740Y369470D02*
D03*
X156990Y208470D02*
D03*
X182390Y371030D02*
D03*
X156990D02*
D03*
X846260Y206910D02*
D03*
X820860D02*
D03*
X846260Y369470D02*
D03*
X664510Y208470D02*
D03*
X689910Y371030D02*
D03*
X664510D02*
D03*
D32*
X313340Y369470D02*
D03*
X182390Y208470D02*
D03*
X820860Y369470D02*
D03*
X689910Y208470D02*
D03*
D33*
X220240Y260470D02*
D03*
X275490Y317470D02*
D03*
X727760Y260470D02*
D03*
X783010Y317470D02*
D03*
D34*
X220240D02*
D03*
X275490Y260470D02*
D03*
X727760Y317470D02*
D03*
X783010Y260470D02*
D03*
M02*
