G04*
G04 #@! TF.GenerationSoftware,Altium Limited,Altium Designer,25.0.2 (28)*
G04*
G04 Layer_Color=16711935*
%FSLAX44Y44*%
%MOMM*%
G71*
G04*
G04 #@! TF.SameCoordinates,8B6BD92A-2743-4FC7-A306-186CE1EE4446*
G04*
G04*
G04 #@! TF.FilePolarity,Positive*
G04*
G01*
G75*
G36*
X737505Y574140D02*
X736851D01*
Y574794D01*
X737505D01*
Y574140D01*
D02*
G37*
G36*
X229985D02*
X229331D01*
Y574794D01*
X229985D01*
Y574140D01*
D02*
G37*
G36*
X667314Y111843D02*
X667128D01*
Y112028D01*
X667314D01*
Y111843D01*
D02*
G37*
G36*
X159794D02*
X159608D01*
Y112028D01*
X159794D01*
Y111843D01*
D02*
G37*
G36*
X625680Y66521D02*
X625327D01*
Y66874D01*
X625680D01*
Y66521D01*
D02*
G37*
G36*
X118160D02*
X117807D01*
Y66874D01*
X118160D01*
Y66521D01*
D02*
G37*
G36*
X651209Y61972D02*
X650778D01*
Y62404D01*
X651209D01*
Y61972D01*
D02*
G37*
G36*
X143689D02*
X143258D01*
Y62404D01*
X143689D01*
Y61972D01*
D02*
G37*
G36*
X568059Y29403D02*
X567706D01*
Y29757D01*
X568059D01*
Y29403D01*
D02*
G37*
G36*
X60539D02*
X60186D01*
Y29757D01*
X60539D01*
Y29403D01*
D02*
G37*
G36*
X580834Y16639D02*
X580403D01*
Y17070D01*
X580834D01*
Y16639D01*
D02*
G37*
G36*
X73314D02*
X72883D01*
Y17070D01*
X73314D01*
Y16639D01*
D02*
G37*
M02*
