G04*
G04 #@! TF.GenerationSoftware,Altium Limited,Altium Designer,25.0.2 (28)*
G04*
G04 Layer_Color=2752767*
%FSLAX44Y44*%
%MOMM*%
G71*
G04*
G04 #@! TF.SameCoordinates,8B6BD92A-2743-4FC7-A306-186CE1EE4446*
G04*
G04*
G04 #@! TF.FilePolarity,Positive*
G04*
G01*
G75*
%ADD67C,0.1270*%
%ADD68C,0.1693*%
D67*
X370660Y501190D02*
Y511350D01*
X380820D01*
Y501190D01*
X370660D01*
Y475790D02*
Y485950D01*
X380820D01*
Y475790D01*
X370660D01*
Y450390D02*
Y460550D01*
X380820D01*
Y450390D01*
X370660D01*
Y424990D02*
Y435150D01*
X380820D01*
Y424990D01*
X370660D01*
Y399590D02*
Y409750D01*
X380820D01*
Y399590D01*
X370660D01*
Y374190D02*
Y384350D01*
X380820D01*
Y374190D01*
X370660D01*
Y348790D02*
Y358950D01*
X380820D01*
Y348790D01*
X370660D01*
Y323390D02*
Y333550D01*
X380820D01*
Y323390D01*
X370660D01*
Y297990D02*
Y308150D01*
X380820D01*
Y297990D01*
X370660D01*
Y272590D02*
Y282750D01*
X380820D01*
Y272590D01*
X370660D01*
Y247190D02*
Y257350D01*
X380820D01*
Y247190D01*
X370660D01*
Y221790D02*
Y231950D01*
X380820D01*
Y221790D01*
X370660D01*
Y196390D02*
Y206550D01*
X380820D01*
Y196390D01*
X370660D01*
Y145590D02*
Y155750D01*
X380820D01*
Y145590D01*
X370660D01*
Y170990D02*
Y181150D01*
X380820D01*
Y170990D01*
X370660D01*
X116660Y221790D02*
Y231950D01*
X126820D01*
Y221790D01*
X116660D01*
Y501190D02*
Y511350D01*
X126820D01*
Y501190D01*
X116660D01*
Y475790D02*
Y485950D01*
X126820D01*
Y475790D01*
X116660D01*
Y450390D02*
Y460550D01*
X126820D01*
Y450390D01*
X116660D01*
Y424990D02*
Y435150D01*
X126820D01*
Y424990D01*
X116660D01*
Y399590D02*
Y409750D01*
X126820D01*
Y399590D01*
X116660D01*
Y374190D02*
Y384350D01*
X126820D01*
Y374190D01*
X116660D01*
Y348790D02*
Y358950D01*
X126820D01*
Y348790D01*
X116660D01*
Y323390D02*
Y333550D01*
X126820D01*
Y323390D01*
X116660D01*
Y297990D02*
Y308150D01*
X126820D01*
Y297990D01*
X116660D01*
Y272590D02*
Y282750D01*
X126820D01*
Y272590D01*
X116660D01*
Y247190D02*
Y257350D01*
X126820D01*
Y247190D01*
X116660D01*
Y196390D02*
Y206550D01*
X126820D01*
Y196390D01*
X116660D01*
Y170990D02*
Y181150D01*
X126820D01*
Y170990D01*
X116660D01*
Y145590D02*
Y155750D01*
X126820D01*
Y145590D01*
X116660D01*
X422590Y153640D02*
X417510Y163800D01*
X427670D01*
X422590Y153640D01*
Y128240D02*
X417510Y138400D01*
X427670D01*
X422590Y128240D01*
Y102840D02*
X417510Y113000D01*
X427670D01*
X422590Y102840D01*
Y77440D02*
X417510Y87600D01*
X427670D01*
X422590Y77440D01*
Y52040D02*
X417510Y62200D01*
X427670D01*
X422590Y52040D01*
Y26640D02*
X417510Y36800D01*
X427670D01*
X422590Y26640D01*
X320990Y128240D02*
X315910Y138400D01*
X326070D01*
X320990Y128240D01*
Y52040D02*
X315910Y62200D01*
X326070D01*
X320990Y52040D01*
Y153640D02*
X315910Y163800D01*
X326070D01*
X320990Y153640D01*
Y102840D02*
X315910Y113000D01*
X326070D01*
X320990Y102840D01*
Y77440D02*
X315910Y87600D01*
X326070D01*
X320990Y77440D01*
Y26640D02*
X315910Y36800D01*
X326070D01*
X320990Y26640D01*
X155210Y283490D02*
Y293650D01*
X165370D01*
Y283490D01*
X155210D01*
X180610D02*
Y293650D01*
X190770D01*
Y283490D01*
X180610D01*
X206010D02*
Y293650D01*
X216170D01*
Y283490D01*
X206010D01*
X231410D02*
Y293650D01*
X241570D01*
Y283490D01*
X231410D01*
X155210Y436890D02*
Y447050D01*
X165370D01*
Y436890D01*
X155210D01*
X180610D02*
Y447050D01*
X190770D01*
Y436890D01*
X180610D01*
X206010D02*
Y447050D01*
X216170D01*
Y436890D01*
X206010D01*
X231410D02*
Y447050D01*
X241570D01*
Y436890D01*
X231410D01*
X212990Y88640D02*
X215530Y91180D01*
X218070D01*
X215530Y93720D01*
X218070Y96260D01*
X215530D01*
X212990Y98800D01*
X210450Y96260D01*
X207910D01*
X210450Y93720D01*
X207910Y91180D01*
X210450D01*
X212990Y88640D01*
X262990D02*
X265530Y91180D01*
X268070D01*
X265530Y93720D01*
X268070Y96260D01*
X265530D01*
X262990Y98800D01*
X260450Y96260D01*
X257910D01*
X260450Y93720D01*
X257910Y91180D01*
X260450D01*
X262990Y88640D01*
X212990Y39390D02*
X215530Y41930D01*
X218070D01*
X215530Y44470D01*
X218070Y47010D01*
X215530D01*
X212990Y49550D01*
X210450Y47010D01*
X207910D01*
X210450Y44470D01*
X207910Y41930D01*
X210450D01*
X212990Y39390D01*
X262990D02*
X265530Y41930D01*
X268070D01*
X265530Y44470D01*
X268070Y47010D01*
X265530D01*
X262990Y49550D01*
X260450Y47010D01*
X257910D01*
X260450Y44470D01*
X257910Y41930D01*
X260450D01*
X262990Y39390D01*
X418160Y323440D02*
X420700Y328520D01*
X418160Y333600D01*
X423240Y331060D01*
X428320Y333600D01*
X425780Y328520D01*
X428320Y323440D01*
X423240Y325980D01*
X418160Y323440D01*
Y348840D02*
X420700Y353920D01*
X418160Y359000D01*
X423240Y356460D01*
X428320Y359000D01*
X425780Y353920D01*
X428320Y348840D01*
X423240Y351380D01*
X418160Y348840D01*
Y374240D02*
X420700Y379320D01*
X418160Y384400D01*
X423240Y381860D01*
X428320Y384400D01*
X425780Y379320D01*
X428320Y374240D01*
X423240Y376780D01*
X418160Y374240D01*
Y399640D02*
X420700Y404720D01*
X418160Y409800D01*
X423240Y407260D01*
X428320Y409800D01*
X425780Y404720D01*
X428320Y399640D01*
X423240Y402180D01*
X418160Y399640D01*
Y425040D02*
X420700Y430120D01*
X418160Y435200D01*
X423240Y432660D01*
X428320Y435200D01*
X425780Y430120D01*
X428320Y425040D01*
X423240Y427580D01*
X418160Y425040D01*
Y450440D02*
X420700Y455520D01*
X418160Y460600D01*
X423240Y458060D01*
X428320Y460600D01*
X425780Y455520D01*
X428320Y450440D01*
X423240Y452980D01*
X418160Y450440D01*
Y475840D02*
X420700Y480920D01*
X418160Y486000D01*
X423240Y483460D01*
X428320Y486000D01*
X425780Y480920D01*
X428320Y475840D01*
X423240Y478380D01*
X418160Y475840D01*
Y501240D02*
X420700Y506320D01*
X418160Y511400D01*
X423240Y508860D01*
X428320Y511400D01*
X425780Y506320D01*
X428320Y501240D01*
X423240Y503780D01*
X418160Y501240D01*
X53910Y538591D02*
X56450Y543671D01*
X53910Y548751D01*
X58990Y546211D01*
X64070Y548751D01*
X61530Y543671D01*
X64070Y538591D01*
X58990Y541131D01*
X53910Y538591D01*
Y513190D02*
X56450Y518270D01*
X53910Y523350D01*
X58990Y520810D01*
X64070Y523350D01*
X61530Y518270D01*
X64070Y513190D01*
X58990Y515730D01*
X53910Y513190D01*
X58950Y386180D02*
Y383640D01*
X64030D01*
Y386180D01*
X66570D01*
Y391260D01*
X64030D01*
Y393800D01*
X58950D01*
Y391260D01*
X56410D01*
Y386180D01*
X58950D01*
Y476180D02*
Y473640D01*
X64030D01*
Y476180D01*
X66570D01*
Y481260D01*
X64030D01*
Y483800D01*
X58950D01*
Y481260D01*
X56410D01*
Y476180D01*
X58950D01*
X300160Y444140D02*
X302700D01*
X305240Y446680D01*
X307780Y444140D01*
X310320D01*
Y446680D01*
X307780Y449220D01*
X310320Y451760D01*
Y454300D01*
X307780D01*
X305240Y451760D01*
X302700Y454300D01*
X300160D01*
Y451760D01*
X302700Y449220D01*
X300160Y446680D01*
Y444140D01*
X307660Y322390D02*
X310200D01*
X312740Y324930D01*
X315280Y322390D01*
X317820D01*
Y324930D01*
X315280Y327470D01*
X317820Y330010D01*
Y332550D01*
X315280D01*
X312740Y330010D01*
X310200Y332550D01*
X307660D01*
Y330010D01*
X310200Y327470D01*
X307660Y324930D01*
Y322390D01*
X417510Y204812D02*
X420050D01*
X422590Y207352D01*
X425130Y204812D01*
X427670D01*
Y207352D01*
X425130Y209892D01*
X427670Y212432D01*
Y214972D01*
X425130D01*
X422590Y212432D01*
X420050Y214972D01*
X417510D01*
Y212432D01*
X420050Y209892D01*
X417510Y207352D01*
Y204812D01*
X410786Y254970D02*
X413326D01*
X415866Y257510D01*
X418406Y254970D01*
X420946D01*
Y257510D01*
X418406Y260050D01*
X420946Y262590D01*
Y265130D01*
X418406D01*
X415866Y262590D01*
X413326Y265130D01*
X410786D01*
Y262590D01*
X413326Y260050D01*
X410786Y257510D01*
Y254970D01*
X878180Y501190D02*
Y511350D01*
X888340D01*
Y501190D01*
X878180D01*
Y475790D02*
Y485950D01*
X888340D01*
Y475790D01*
X878180D01*
Y450390D02*
Y460550D01*
X888340D01*
Y450390D01*
X878180D01*
Y424990D02*
Y435150D01*
X888340D01*
Y424990D01*
X878180D01*
Y399590D02*
Y409750D01*
X888340D01*
Y399590D01*
X878180D01*
Y374190D02*
Y384350D01*
X888340D01*
Y374190D01*
X878180D01*
Y348790D02*
Y358950D01*
X888340D01*
Y348790D01*
X878180D01*
Y323390D02*
Y333550D01*
X888340D01*
Y323390D01*
X878180D01*
Y297990D02*
Y308150D01*
X888340D01*
Y297990D01*
X878180D01*
Y272590D02*
Y282750D01*
X888340D01*
Y272590D01*
X878180D01*
Y247190D02*
Y257350D01*
X888340D01*
Y247190D01*
X878180D01*
Y221790D02*
Y231950D01*
X888340D01*
Y221790D01*
X878180D01*
Y196390D02*
Y206550D01*
X888340D01*
Y196390D01*
X878180D01*
Y145590D02*
Y155750D01*
X888340D01*
Y145590D01*
X878180D01*
Y170990D02*
Y181150D01*
X888340D01*
Y170990D01*
X878180D01*
X624180Y221790D02*
Y231950D01*
X634340D01*
Y221790D01*
X624180D01*
Y501190D02*
Y511350D01*
X634340D01*
Y501190D01*
X624180D01*
Y475790D02*
Y485950D01*
X634340D01*
Y475790D01*
X624180D01*
Y450390D02*
Y460550D01*
X634340D01*
Y450390D01*
X624180D01*
Y424990D02*
Y435150D01*
X634340D01*
Y424990D01*
X624180D01*
Y399590D02*
Y409750D01*
X634340D01*
Y399590D01*
X624180D01*
Y374190D02*
Y384350D01*
X634340D01*
Y374190D01*
X624180D01*
Y348790D02*
Y358950D01*
X634340D01*
Y348790D01*
X624180D01*
Y323390D02*
Y333550D01*
X634340D01*
Y323390D01*
X624180D01*
Y297990D02*
Y308150D01*
X634340D01*
Y297990D01*
X624180D01*
Y272590D02*
Y282750D01*
X634340D01*
Y272590D01*
X624180D01*
Y247190D02*
Y257350D01*
X634340D01*
Y247190D01*
X624180D01*
Y196390D02*
Y206550D01*
X634340D01*
Y196390D01*
X624180D01*
Y170990D02*
Y181150D01*
X634340D01*
Y170990D01*
X624180D01*
Y145590D02*
Y155750D01*
X634340D01*
Y145590D01*
X624180D01*
X930110Y153640D02*
X925030Y163800D01*
X935190D01*
X930110Y153640D01*
Y128240D02*
X925030Y138400D01*
X935190D01*
X930110Y128240D01*
Y102840D02*
X925030Y113000D01*
X935190D01*
X930110Y102840D01*
Y77440D02*
X925030Y87600D01*
X935190D01*
X930110Y77440D01*
Y52040D02*
X925030Y62200D01*
X935190D01*
X930110Y52040D01*
Y26640D02*
X925030Y36800D01*
X935190D01*
X930110Y26640D01*
X828510Y128240D02*
X823430Y138400D01*
X833590D01*
X828510Y128240D01*
Y52040D02*
X823430Y62200D01*
X833590D01*
X828510Y52040D01*
Y153640D02*
X823430Y163800D01*
X833590D01*
X828510Y153640D01*
Y102840D02*
X823430Y113000D01*
X833590D01*
X828510Y102840D01*
Y77440D02*
X823430Y87600D01*
X833590D01*
X828510Y77440D01*
Y26640D02*
X823430Y36800D01*
X833590D01*
X828510Y26640D01*
X662730Y283490D02*
Y293650D01*
X672890D01*
Y283490D01*
X662730D01*
X688130D02*
Y293650D01*
X698290D01*
Y283490D01*
X688130D01*
X713530D02*
Y293650D01*
X723690D01*
Y283490D01*
X713530D01*
X738930D02*
Y293650D01*
X749090D01*
Y283490D01*
X738930D01*
X662730Y436890D02*
Y447050D01*
X672890D01*
Y436890D01*
X662730D01*
X688130D02*
Y447050D01*
X698290D01*
Y436890D01*
X688130D01*
X713530D02*
Y447050D01*
X723690D01*
Y436890D01*
X713530D01*
X738930D02*
Y447050D01*
X749090D01*
Y436890D01*
X738930D01*
X720510Y88640D02*
X723050Y91180D01*
X725590D01*
X723050Y93720D01*
X725590Y96260D01*
X723050D01*
X720510Y98800D01*
X717970Y96260D01*
X715430D01*
X717970Y93720D01*
X715430Y91180D01*
X717970D01*
X720510Y88640D01*
X770510D02*
X773050Y91180D01*
X775590D01*
X773050Y93720D01*
X775590Y96260D01*
X773050D01*
X770510Y98800D01*
X767970Y96260D01*
X765430D01*
X767970Y93720D01*
X765430Y91180D01*
X767970D01*
X770510Y88640D01*
X720510Y39390D02*
X723050Y41930D01*
X725590D01*
X723050Y44470D01*
X725590Y47010D01*
X723050D01*
X720510Y49550D01*
X717970Y47010D01*
X715430D01*
X717970Y44470D01*
X715430Y41930D01*
X717970D01*
X720510Y39390D01*
X770510D02*
X773050Y41930D01*
X775590D01*
X773050Y44470D01*
X775590Y47010D01*
X773050D01*
X770510Y49550D01*
X767970Y47010D01*
X765430D01*
X767970Y44470D01*
X765430Y41930D01*
X767970D01*
X770510Y39390D01*
X925680Y323440D02*
X928220Y328520D01*
X925680Y333600D01*
X930760Y331060D01*
X935840Y333600D01*
X933300Y328520D01*
X935840Y323440D01*
X930760Y325980D01*
X925680Y323440D01*
Y348840D02*
X928220Y353920D01*
X925680Y359000D01*
X930760Y356460D01*
X935840Y359000D01*
X933300Y353920D01*
X935840Y348840D01*
X930760Y351380D01*
X925680Y348840D01*
Y374240D02*
X928220Y379320D01*
X925680Y384400D01*
X930760Y381860D01*
X935840Y384400D01*
X933300Y379320D01*
X935840Y374240D01*
X930760Y376780D01*
X925680Y374240D01*
Y399640D02*
X928220Y404720D01*
X925680Y409800D01*
X930760Y407260D01*
X935840Y409800D01*
X933300Y404720D01*
X935840Y399640D01*
X930760Y402180D01*
X925680Y399640D01*
Y425040D02*
X928220Y430120D01*
X925680Y435200D01*
X930760Y432660D01*
X935840Y435200D01*
X933300Y430120D01*
X935840Y425040D01*
X930760Y427580D01*
X925680Y425040D01*
Y450440D02*
X928220Y455520D01*
X925680Y460600D01*
X930760Y458060D01*
X935840Y460600D01*
X933300Y455520D01*
X935840Y450440D01*
X930760Y452980D01*
X925680Y450440D01*
Y475840D02*
X928220Y480920D01*
X925680Y486000D01*
X930760Y483460D01*
X935840Y486000D01*
X933300Y480920D01*
X935840Y475840D01*
X930760Y478380D01*
X925680Y475840D01*
Y501240D02*
X928220Y506320D01*
X925680Y511400D01*
X930760Y508860D01*
X935840Y511400D01*
X933300Y506320D01*
X935840Y501240D01*
X930760Y503780D01*
X925680Y501240D01*
X561430Y538591D02*
X563970Y543671D01*
X561430Y548751D01*
X566510Y546211D01*
X571590Y548751D01*
X569050Y543671D01*
X571590Y538591D01*
X566510Y541131D01*
X561430Y538591D01*
Y513190D02*
X563970Y518270D01*
X561430Y523350D01*
X566510Y520810D01*
X571590Y523350D01*
X569050Y518270D01*
X571590Y513190D01*
X566510Y515730D01*
X561430Y513190D01*
X566470Y386180D02*
Y383640D01*
X571550D01*
Y386180D01*
X574090D01*
Y391260D01*
X571550D01*
Y393800D01*
X566470D01*
Y391260D01*
X563930D01*
Y386180D01*
X566470D01*
Y476180D02*
Y473640D01*
X571550D01*
Y476180D01*
X574090D01*
Y481260D01*
X571550D01*
Y483800D01*
X566470D01*
Y481260D01*
X563930D01*
Y476180D01*
X566470D01*
X807680Y444140D02*
X810220D01*
X812760Y446680D01*
X815300Y444140D01*
X817840D01*
Y446680D01*
X815300Y449220D01*
X817840Y451760D01*
Y454300D01*
X815300D01*
X812760Y451760D01*
X810220Y454300D01*
X807680D01*
Y451760D01*
X810220Y449220D01*
X807680Y446680D01*
Y444140D01*
X815180Y322390D02*
X817720D01*
X820260Y324930D01*
X822800Y322390D01*
X825340D01*
Y324930D01*
X822800Y327470D01*
X825340Y330010D01*
Y332550D01*
X822800D01*
X820260Y330010D01*
X817720Y332550D01*
X815180D01*
Y330010D01*
X817720Y327470D01*
X815180Y324930D01*
Y322390D01*
X925030Y204812D02*
X927570D01*
X930110Y207352D01*
X932650Y204812D01*
X935190D01*
Y207352D01*
X932650Y209892D01*
X935190Y212432D01*
Y214972D01*
X932650D01*
X930110Y212432D01*
X927570Y214972D01*
X925030D01*
Y212432D01*
X927570Y209892D01*
X925030Y207352D01*
Y204812D01*
X918306Y254970D02*
X920846D01*
X923386Y257510D01*
X925926Y254970D01*
X928466D01*
Y257510D01*
X925926Y260050D01*
X928466Y262590D01*
Y265130D01*
X925926D01*
X923386Y262590D01*
X920846Y265130D01*
X918306D01*
Y262590D01*
X920846Y260050D01*
X918306Y257510D01*
Y254970D01*
D68*
X61070Y237820D02*
G03*
X61070Y237820I-5080J0D01*
G01*
Y198220D02*
G03*
X61070Y198220I-5080J0D01*
G01*
Y158620D02*
G03*
X61070Y158620I-5080J0D01*
G01*
X59570Y324470D02*
G03*
X59570Y324470I-5080J0D01*
G01*
Y284870D02*
G03*
X59570Y284870I-5080J0D01*
G01*
X568590Y237820D02*
G03*
X568590Y237820I-5080J0D01*
G01*
Y198220D02*
G03*
X568590Y198220I-5080J0D01*
G01*
Y158620D02*
G03*
X568590Y158620I-5080J0D01*
G01*
X567090Y324470D02*
G03*
X567090Y324470I-5080J0D01*
G01*
Y284870D02*
G03*
X567090Y284870I-5080J0D01*
G01*
M02*
