G04*
G04 #@! TF.GenerationSoftware,Altium Limited,Altium Designer,25.0.2 (28)*
G04*
G04 Layer_Physical_Order=1*
G04 Layer_Color=255*
%FSLAX44Y44*%
%MOMM*%
G71*
G04*
G04 #@! TF.SameCoordinates,4711C13A-52D9-45D7-B3A0-D515BE669C82*
G04*
G04*
G04 #@! TF.FilePolarity,Positive*
G04*
G01*
G75*
%ADD14O,2.0000X3.5400*%
%ADD15R,2.0000X3.5400*%
%ADD16R,9.0000X10.3500*%
%ADD17R,3.5000X0.9500*%
%ADD38C,0.8000*%
%ADD39O,2.5000X2.0000*%
%ADD40R,2.5000X2.0000*%
%ADD41C,2.1500*%
%ADD42R,2.1500X2.1500*%
%ADD43C,1.5240*%
%ADD44R,1.5240X1.5240*%
%ADD45O,2.0000X2.5000*%
%ADD46R,2.0000X2.5000*%
%ADD47R,1.3500X1.3500*%
%ADD48C,1.3500*%
%ADD49C,1.5000*%
%ADD50R,1.5000X1.5000*%
%ADD51C,1.4000*%
%ADD52R,1.4000X1.4000*%
%ADD53R,1.3500X1.3500*%
%ADD54C,1.2700*%
G36*
X1183648Y1191924D02*
Y1183275D01*
X1182378Y1182844D01*
X1182208Y1183064D01*
X1180842Y1184113D01*
X1179251Y1184772D01*
X1177544Y1184996D01*
X1171745D01*
X1169944Y1187344D01*
X1167324Y1189354D01*
X1164768Y1190413D01*
Y1191787D01*
X1167324Y1192846D01*
X1169944Y1194856D01*
X1171745Y1197204D01*
X1178368D01*
X1183648Y1191924D01*
D02*
G37*
G36*
X982896Y1257676D02*
X984906Y1255056D01*
X987254Y1253255D01*
Y1171132D01*
X976317Y1160195D01*
X975047Y1160721D01*
Y1253255D01*
X977394Y1255056D01*
X979404Y1257676D01*
X980463Y1260232D01*
X981837D01*
X982896Y1257676D01*
D02*
G37*
G36*
X957496D02*
X959507Y1255056D01*
X961854Y1253255D01*
Y1162793D01*
X958658Y1159596D01*
X917745D01*
X915944Y1161944D01*
X913324Y1163954D01*
X910768Y1165013D01*
Y1166387D01*
X913324Y1167446D01*
X915944Y1169456D01*
X917745Y1171804D01*
X927100D01*
X928807Y1172028D01*
X930398Y1172687D01*
X931764Y1173736D01*
X947715Y1189686D01*
X948763Y1191052D01*
X949422Y1192643D01*
X949647Y1194350D01*
Y1253255D01*
X951994Y1255056D01*
X954004Y1257676D01*
X955063Y1260232D01*
X956438D01*
X957496Y1257676D01*
D02*
G37*
G36*
X1006710Y1258959D02*
Y1251460D01*
X1012654D01*
Y1227380D01*
X1012878Y1225673D01*
X1013538Y1224082D01*
X1014586Y1222715D01*
X1029216Y1208086D01*
Y1125121D01*
X1027946Y1124734D01*
X1025574Y1126554D01*
X1022524Y1127817D01*
X1019250Y1128248D01*
X1015977Y1127817D01*
X1012926Y1126554D01*
X1010306Y1124544D01*
X1008297Y1121924D01*
X1007237Y1119368D01*
X1005863D01*
X1004804Y1121924D01*
X1002794Y1124544D01*
X1000174Y1126554D01*
X997124Y1127817D01*
X993850Y1128248D01*
X990577Y1127817D01*
X987526Y1126554D01*
X984906Y1124544D01*
X982896Y1121924D01*
X981837Y1119368D01*
X980463D01*
X979404Y1121924D01*
X977394Y1124544D01*
X974774Y1126554D01*
X971724Y1127817D01*
X968450Y1128248D01*
X965177Y1127817D01*
X962126Y1126554D01*
X959507Y1124544D01*
X957496Y1121924D01*
X956438Y1119368D01*
X955063D01*
X954004Y1121924D01*
X951994Y1124544D01*
X949374Y1126554D01*
X946324Y1127817D01*
X943050Y1128248D01*
X939777Y1127817D01*
X936726Y1126554D01*
X934107Y1124544D01*
X932096Y1121924D01*
X930833Y1118874D01*
X930402Y1115600D01*
Y1110600D01*
X930775Y1107769D01*
X930545Y1107533D01*
X929628Y1107067D01*
X928526Y1107913D01*
X926935Y1108572D01*
X925228Y1108796D01*
X917745D01*
X915944Y1111144D01*
X913324Y1113154D01*
X910768Y1114213D01*
Y1115587D01*
X913324Y1116646D01*
X915944Y1118656D01*
X917745Y1121003D01*
X924146D01*
X925853Y1121228D01*
X927444Y1121887D01*
X928810Y1122936D01*
X939484Y1133610D01*
X965656D01*
X967364Y1133834D01*
X968954Y1134493D01*
X970321Y1135542D01*
X998515Y1163736D01*
X999563Y1165102D01*
X1000222Y1166693D01*
X1000447Y1168400D01*
Y1253255D01*
X1002794Y1255056D01*
X1004804Y1257676D01*
X1005440Y1259212D01*
X1006710Y1258959D01*
D02*
G37*
G36*
X957496Y1104276D02*
X959507Y1101656D01*
X962126Y1099647D01*
X965177Y1098383D01*
X968450Y1097952D01*
X971724Y1098383D01*
X974774Y1099647D01*
X977394Y1101656D01*
X979404Y1104276D01*
X980463Y1106833D01*
X981837D01*
X982896Y1104276D01*
X984906Y1101656D01*
X987526Y1099647D01*
X990577Y1098383D01*
X993850Y1097952D01*
X997124Y1098383D01*
X1000174Y1099647D01*
X1002794Y1101656D01*
X1004804Y1104276D01*
X1005863Y1106833D01*
X1007237D01*
X1008297Y1104276D01*
X1010306Y1101656D01*
X1012926Y1099647D01*
X1015977Y1098383D01*
X1019250Y1097952D01*
X1022190Y1098339D01*
X1022882Y1097235D01*
X1013268Y1087620D01*
X949136D01*
X939636Y1097120D01*
X940229Y1098323D01*
X943050Y1097952D01*
X946324Y1098383D01*
X949374Y1099647D01*
X951994Y1101656D01*
X954004Y1104276D01*
X955063Y1106833D01*
X956438D01*
X957496Y1104276D01*
D02*
G37*
G36*
X1185580Y1125636D02*
X1213112Y1098104D01*
Y1041029D01*
X1211842Y1040503D01*
X1210808Y1041536D01*
X1208781Y1042706D01*
X1206520Y1043312D01*
X1204180D01*
X1201918Y1042706D01*
X1199891Y1041536D01*
X1198872Y1040517D01*
X1197602Y1041043D01*
Y1074228D01*
X1199065Y1075690D01*
X1199796D01*
X1202057Y1076296D01*
X1204085Y1077466D01*
X1205740Y1079121D01*
X1206910Y1081149D01*
X1207516Y1083410D01*
Y1085750D01*
X1206910Y1088011D01*
X1205740Y1090039D01*
X1204085Y1091694D01*
X1202057Y1092864D01*
X1199796Y1093470D01*
X1197456D01*
X1195195Y1092864D01*
X1193167Y1091694D01*
X1191512Y1090039D01*
X1190342Y1088011D01*
X1189736Y1085750D01*
Y1085019D01*
X1186342Y1081624D01*
X1185410Y1080411D01*
X1184870Y1080444D01*
X1184140Y1080765D01*
Y1125425D01*
X1185410Y1125856D01*
X1185580Y1125636D01*
D02*
G37*
G36*
X1186342Y967530D02*
X1195190Y958681D01*
Y956512D01*
X1195882Y953928D01*
X1197220Y951612D01*
X1199111Y949720D01*
X1201428Y948382D01*
X1204012Y947690D01*
X1206687D01*
X1209271Y948382D01*
X1211588Y949720D01*
X1211938Y950070D01*
X1213112Y949584D01*
Y940716D01*
X1211938Y940230D01*
X1211588Y940580D01*
X1209271Y941918D01*
X1206687Y942610D01*
X1204012D01*
X1201428Y941918D01*
X1199111Y940580D01*
X1197220Y938688D01*
X1195882Y936372D01*
X1195190Y933788D01*
Y931112D01*
X1195882Y928528D01*
X1197220Y926212D01*
X1199111Y924320D01*
X1201428Y922982D01*
X1204012Y922290D01*
X1206687D01*
X1209271Y922982D01*
X1211588Y924320D01*
X1211938Y924670D01*
X1213112Y924184D01*
Y915316D01*
X1211938Y914830D01*
X1211588Y915180D01*
X1209271Y916518D01*
X1207850Y916898D01*
Y907050D01*
X1205350D01*
Y904550D01*
X1195501D01*
X1195882Y903128D01*
X1197092Y901033D01*
X1196076Y900253D01*
X1184140Y912188D01*
Y968390D01*
X1184870Y968710D01*
X1185410Y968743D01*
X1186342Y967530D01*
D02*
G37*
G36*
X853154Y1353693D02*
Y1329982D01*
X842336Y1319165D01*
X841288Y1317798D01*
X840629Y1316207D01*
X840404Y1314500D01*
Y1312540D01*
X834960D01*
Y1293960D01*
X853540D01*
Y1304860D01*
X853597Y1305289D01*
Y1311768D01*
X864414Y1322586D01*
X865463Y1323952D01*
X866122Y1325543D01*
X866346Y1327250D01*
Y1352769D01*
X867245Y1353666D01*
X1141754Y1353137D01*
X1142131Y1351866D01*
X1134780Y1344514D01*
X1133731Y1343148D01*
X1133072Y1341557D01*
X1132848Y1339850D01*
Y975200D01*
X1133072Y973493D01*
X1133731Y971902D01*
X1134780Y970536D01*
X1136146Y969487D01*
X1137737Y968828D01*
X1139444Y968604D01*
X1143460D01*
Y962660D01*
X1148372D01*
X1148857Y961487D01*
X1113024Y925653D01*
X1112008Y926433D01*
X1113218Y928528D01*
X1113910Y931112D01*
Y933788D01*
X1113218Y936372D01*
X1111880Y938688D01*
X1109988Y940580D01*
X1107672Y941918D01*
X1105088Y942610D01*
X1102412D01*
X1099828Y941918D01*
X1097512Y940580D01*
X1095620Y938688D01*
X1094282Y936372D01*
X1093590Y933788D01*
Y931112D01*
X1094282Y928528D01*
X1095620Y926212D01*
X1097512Y924320D01*
X1099828Y922982D01*
X1102412Y922290D01*
X1105088D01*
X1107672Y922982D01*
X1109767Y924192D01*
X1110547Y923176D01*
X1104581Y917210D01*
X1102412D01*
X1099828Y916518D01*
X1097512Y915180D01*
X1095620Y913288D01*
X1094282Y910972D01*
X1093590Y908388D01*
Y905712D01*
X1094282Y903128D01*
X1095492Y901033D01*
X1094476Y900253D01*
X1092156Y902572D01*
Y1019325D01*
X1100164Y1027333D01*
X1101213Y1028699D01*
X1101872Y1030290D01*
X1102096Y1031997D01*
Y1146024D01*
X1102614Y1146541D01*
X1103784Y1148569D01*
X1104390Y1150830D01*
Y1153170D01*
X1103784Y1155431D01*
X1102614Y1157459D01*
X1100959Y1159114D01*
X1098931Y1160284D01*
X1096670Y1160890D01*
X1094330D01*
X1092069Y1160284D01*
X1090041Y1159114D01*
X1088386Y1157459D01*
X1087216Y1155431D01*
X1086610Y1153170D01*
Y1150830D01*
X1087216Y1148569D01*
X1088386Y1146541D01*
X1088904Y1146024D01*
Y1034730D01*
X1080896Y1026721D01*
X1079847Y1025355D01*
X1079188Y1023764D01*
X1078963Y1022057D01*
Y899840D01*
X1079188Y898133D01*
X1079847Y896542D01*
X1080896Y895176D01*
X1093590Y882481D01*
Y880312D01*
X1094282Y877728D01*
X1095620Y875412D01*
X1097512Y873520D01*
X1099828Y872182D01*
X1102412Y871490D01*
X1105088D01*
X1107672Y872182D01*
X1109988Y873520D01*
X1111880Y875412D01*
X1113218Y877728D01*
X1113910Y880312D01*
Y882988D01*
X1113218Y885572D01*
X1111880Y887888D01*
X1109988Y889780D01*
X1107672Y891118D01*
X1105088Y891810D01*
X1102919D01*
X1096953Y897776D01*
X1097733Y898792D01*
X1099828Y897582D01*
X1102412Y896890D01*
X1105088D01*
X1107672Y897582D01*
X1109988Y898920D01*
X1111880Y900812D01*
X1113218Y903128D01*
X1113910Y905712D01*
Y907881D01*
X1163165Y957136D01*
X1164213Y958502D01*
X1164872Y960093D01*
X1165097Y961801D01*
Y962660D01*
X1170948D01*
Y909456D01*
X1171172Y907749D01*
X1171831Y906158D01*
X1172880Y904792D01*
X1195190Y882481D01*
Y880312D01*
X1195882Y877728D01*
X1197220Y875412D01*
X1199111Y873520D01*
X1201428Y872182D01*
X1204012Y871490D01*
X1206687D01*
X1209271Y872182D01*
X1211367Y873392D01*
X1212147Y872376D01*
X1206181Y866410D01*
X1204012D01*
X1201428Y865718D01*
X1199111Y864380D01*
X1197220Y862488D01*
X1195882Y860172D01*
X1195190Y857588D01*
Y854912D01*
X1195882Y852328D01*
X1197220Y850012D01*
X1199111Y848120D01*
X1201428Y846782D01*
X1204012Y846090D01*
X1206687D01*
X1209271Y846782D01*
X1211588Y848120D01*
X1213480Y850012D01*
X1214818Y852328D01*
X1215510Y854912D01*
Y857082D01*
X1224372Y865944D01*
X1225421Y867310D01*
X1226080Y868901D01*
X1226304Y870608D01*
Y1100836D01*
X1226080Y1102543D01*
X1225421Y1104134D01*
X1224372Y1105500D01*
X1196840Y1133032D01*
Y1146537D01*
X1198110Y1146741D01*
X1199835Y1145016D01*
X1202125Y1143694D01*
X1204678Y1143010D01*
X1207322D01*
X1209875Y1143694D01*
X1212165Y1145016D01*
X1214034Y1146885D01*
X1215356Y1149174D01*
X1216040Y1151728D01*
Y1154372D01*
X1215356Y1156925D01*
X1214034Y1159214D01*
X1212165Y1161084D01*
X1209875Y1162405D01*
X1207322Y1163090D01*
X1204678D01*
X1202125Y1162405D01*
X1199835Y1161084D01*
X1198110Y1159359D01*
X1196840Y1159563D01*
Y1171937D01*
X1198110Y1172141D01*
X1199835Y1170416D01*
X1202125Y1169094D01*
X1204678Y1168410D01*
X1207322D01*
X1209875Y1169094D01*
X1212165Y1170416D01*
X1214034Y1172285D01*
X1215356Y1174575D01*
X1216040Y1177128D01*
Y1179772D01*
X1215356Y1182325D01*
X1214034Y1184614D01*
X1212165Y1186484D01*
X1209875Y1187805D01*
X1207322Y1188490D01*
X1204678D01*
X1202125Y1187805D01*
X1199835Y1186484D01*
X1198110Y1184759D01*
X1196840Y1184963D01*
Y1194656D01*
X1196616Y1196363D01*
X1195957Y1197954D01*
X1194908Y1199320D01*
X1185764Y1208464D01*
X1184398Y1209513D01*
X1182807Y1210172D01*
X1181100Y1210396D01*
X1171745D01*
X1169944Y1212744D01*
X1167324Y1214754D01*
X1164768Y1215813D01*
Y1217187D01*
X1167324Y1218246D01*
X1169944Y1220256D01*
X1171745Y1222604D01*
X1180550D01*
X1182258Y1222828D01*
X1183849Y1223487D01*
X1185215Y1224536D01*
X1205289Y1244610D01*
X1207322D01*
X1209875Y1245294D01*
X1212165Y1246616D01*
X1214034Y1248485D01*
X1215356Y1250775D01*
X1216040Y1253328D01*
Y1255972D01*
X1215356Y1258525D01*
X1214034Y1260815D01*
X1212165Y1262684D01*
X1209875Y1264006D01*
X1207322Y1264690D01*
X1204678D01*
X1202125Y1264006D01*
X1199835Y1262684D01*
X1197966Y1260815D01*
X1196644Y1258525D01*
X1195960Y1255972D01*
Y1253939D01*
X1177818Y1235796D01*
X1171745D01*
X1169944Y1238144D01*
X1167324Y1240154D01*
X1164768Y1241213D01*
Y1242587D01*
X1167324Y1243646D01*
X1169944Y1245656D01*
X1171954Y1248276D01*
X1173217Y1251326D01*
X1173648Y1254600D01*
X1173217Y1257874D01*
X1171954Y1260924D01*
X1169944Y1263544D01*
X1167324Y1265554D01*
X1164768Y1266613D01*
Y1267987D01*
X1167324Y1269046D01*
X1169944Y1271056D01*
X1171954Y1273676D01*
X1173217Y1276726D01*
X1173648Y1280000D01*
X1173217Y1283274D01*
X1171954Y1286324D01*
X1169944Y1288944D01*
X1167324Y1290954D01*
X1164768Y1292013D01*
Y1293387D01*
X1167324Y1294446D01*
X1169944Y1296456D01*
X1171954Y1299076D01*
X1173217Y1302126D01*
X1173648Y1305400D01*
X1173217Y1308674D01*
X1171954Y1311724D01*
X1169944Y1314344D01*
X1167324Y1316354D01*
X1164768Y1317413D01*
Y1318787D01*
X1167324Y1319846D01*
X1169944Y1321856D01*
X1171954Y1324476D01*
X1173217Y1327526D01*
X1173648Y1330800D01*
X1173217Y1334074D01*
X1171954Y1337124D01*
X1170051Y1339604D01*
X1170333Y1340874D01*
X1195960D01*
Y1320810D01*
X1216040D01*
Y1340890D01*
X1212597D01*
Y1346200D01*
X1212372Y1347907D01*
X1211713Y1349498D01*
X1210665Y1350864D01*
X1209793Y1351736D01*
X1210320Y1353005D01*
X1212750Y1353000D01*
X1255500Y1310250D01*
Y838500D01*
X1056000D01*
Y890000D01*
X1052346D01*
Y911709D01*
X1053184Y912546D01*
X1054407Y914664D01*
X1055040Y917027D01*
Y919473D01*
X1054407Y921836D01*
X1053184Y923954D01*
X1051454Y925684D01*
X1049336Y926907D01*
X1046973Y927540D01*
X1044527D01*
X1042164Y926907D01*
X1040046Y925684D01*
X1038316Y923954D01*
X1037093Y921836D01*
X1036460Y919473D01*
Y917027D01*
X1037093Y914664D01*
X1038316Y912546D01*
X1039154Y911709D01*
Y890000D01*
X1027420D01*
X1026743Y891270D01*
X1027198Y892369D01*
X1027422Y894076D01*
Y1025714D01*
X1074068Y1072360D01*
X1075117Y1073726D01*
X1075776Y1075317D01*
X1076000Y1077024D01*
Y1170748D01*
X1120514Y1215262D01*
X1121563Y1216628D01*
X1122222Y1218219D01*
X1122446Y1219926D01*
Y1291060D01*
X1128390D01*
Y1331540D01*
X1103310D01*
Y1324040D01*
X1102040Y1323788D01*
X1101404Y1325324D01*
X1099394Y1327944D01*
X1096774Y1329954D01*
X1093724Y1331217D01*
X1090450Y1331648D01*
X1087176Y1331217D01*
X1084126Y1329954D01*
X1081506Y1327944D01*
X1079496Y1325324D01*
X1078233Y1322274D01*
X1077802Y1319000D01*
Y1303600D01*
X1078233Y1300326D01*
X1079496Y1297276D01*
X1081506Y1294656D01*
X1082303Y1294045D01*
Y1280625D01*
X1080886Y1279209D01*
X1079716Y1277181D01*
X1079110Y1274920D01*
Y1272580D01*
X1079716Y1270319D01*
X1080886Y1268291D01*
X1082541Y1266636D01*
X1084569Y1265466D01*
X1086830Y1264860D01*
X1089170D01*
X1091431Y1265466D01*
X1093459Y1266636D01*
X1095114Y1268291D01*
X1096284Y1270319D01*
X1096890Y1272580D01*
Y1274920D01*
X1096284Y1277181D01*
X1095496Y1278547D01*
Y1292117D01*
X1096774Y1292646D01*
X1099394Y1294656D01*
X1101404Y1297276D01*
X1102040Y1298812D01*
X1103310Y1298559D01*
Y1291060D01*
X1109253D01*
Y1222658D01*
X1064740Y1178144D01*
X1063691Y1176778D01*
X1063032Y1175187D01*
X1062808Y1173480D01*
Y1079756D01*
X1016162Y1033110D01*
X1015113Y1031744D01*
X1014454Y1030153D01*
X1014230Y1028446D01*
Y896808D01*
X1007421Y890000D01*
X945250D01*
X907250Y928000D01*
Y958000D01*
X877346D01*
Y986018D01*
X885332Y994004D01*
X891255D01*
X893056Y991656D01*
X895676Y989646D01*
X897212Y989010D01*
X896960Y987740D01*
X889460D01*
Y977700D01*
X919540D01*
Y987740D01*
X912041D01*
X911788Y989010D01*
X913324Y989646D01*
X915944Y991656D01*
X917954Y994276D01*
X919217Y997326D01*
X919648Y1000600D01*
X919217Y1003874D01*
X917954Y1006924D01*
X915944Y1009544D01*
X913324Y1011554D01*
X910768Y1012613D01*
Y1013987D01*
X913324Y1015046D01*
X915944Y1017056D01*
X917954Y1019676D01*
X919217Y1022726D01*
X919648Y1026000D01*
X919217Y1029274D01*
X917954Y1032324D01*
X915944Y1034944D01*
X913324Y1036954D01*
X910768Y1038013D01*
Y1039387D01*
X913324Y1040446D01*
X915944Y1042456D01*
X917954Y1045076D01*
X919217Y1048126D01*
X919648Y1051400D01*
X919217Y1054674D01*
X917954Y1057724D01*
X915944Y1060344D01*
X913324Y1062354D01*
X910768Y1063413D01*
Y1064787D01*
X913324Y1065846D01*
X915944Y1067856D01*
X917954Y1070476D01*
X919217Y1073526D01*
X919648Y1076800D01*
X919217Y1080074D01*
X917954Y1083124D01*
X915944Y1085744D01*
X913324Y1087754D01*
X910768Y1088813D01*
Y1090187D01*
X913324Y1091246D01*
X915944Y1093256D01*
X917745Y1095603D01*
X922496D01*
X941740Y1076360D01*
X943106Y1075311D01*
X944697Y1074652D01*
X946404Y1074428D01*
X1016000D01*
X1017707Y1074652D01*
X1019298Y1075311D01*
X1020664Y1076360D01*
X1040476Y1096172D01*
X1041525Y1097538D01*
X1042184Y1099129D01*
X1042408Y1100836D01*
Y1210818D01*
X1042184Y1212525D01*
X1041525Y1214116D01*
X1040476Y1215482D01*
X1025847Y1230112D01*
Y1251460D01*
X1031790D01*
Y1281540D01*
X1006710D01*
Y1274040D01*
X1005440Y1273788D01*
X1004804Y1275324D01*
X1002794Y1277943D01*
X1000174Y1279954D01*
X997124Y1281217D01*
X993850Y1281648D01*
X990577Y1281217D01*
X987526Y1279954D01*
X984906Y1277943D01*
X982896Y1275324D01*
X981837Y1272767D01*
X980463D01*
X979404Y1275324D01*
X977394Y1277943D01*
X974774Y1279954D01*
X971724Y1281217D01*
X968450Y1281648D01*
X965177Y1281217D01*
X962126Y1279954D01*
X959507Y1277943D01*
X957496Y1275324D01*
X956438Y1272767D01*
X955063D01*
X954004Y1275324D01*
X951994Y1277943D01*
X949374Y1279954D01*
X946324Y1281217D01*
X943050Y1281648D01*
X939777Y1281217D01*
X936726Y1279954D01*
X934107Y1277943D01*
X932096Y1275324D01*
X930833Y1272273D01*
X930402Y1269000D01*
Y1264000D01*
X930833Y1260726D01*
X932096Y1257676D01*
X934107Y1255056D01*
X936454Y1253255D01*
Y1197083D01*
X924368Y1184996D01*
X917745D01*
X915944Y1187344D01*
X913324Y1189354D01*
X910768Y1190413D01*
Y1191787D01*
X913324Y1192846D01*
X915944Y1194856D01*
X917954Y1197476D01*
X919217Y1200526D01*
X919648Y1203800D01*
X919217Y1207074D01*
X917954Y1210124D01*
X915944Y1212744D01*
X913324Y1214754D01*
X910768Y1215813D01*
Y1217187D01*
X913324Y1218246D01*
X915944Y1220256D01*
X917954Y1222876D01*
X919217Y1225926D01*
X919648Y1229200D01*
X919217Y1232474D01*
X917954Y1235524D01*
X915944Y1238144D01*
X913324Y1240154D01*
X910768Y1241213D01*
Y1242587D01*
X913324Y1243646D01*
X915944Y1245656D01*
X917954Y1248276D01*
X919217Y1251326D01*
X919648Y1254600D01*
X919217Y1257874D01*
X917954Y1260924D01*
X915944Y1263544D01*
X913324Y1265554D01*
X910768Y1266613D01*
Y1267987D01*
X913324Y1269046D01*
X915944Y1271056D01*
X917954Y1273676D01*
X919217Y1276726D01*
X919648Y1280000D01*
X919217Y1283274D01*
X917954Y1286324D01*
X915944Y1288944D01*
X913324Y1290954D01*
X910768Y1292013D01*
Y1293387D01*
X913324Y1294446D01*
X915944Y1296456D01*
X917954Y1299076D01*
X919217Y1302126D01*
X919648Y1305400D01*
X919217Y1308674D01*
X917954Y1311724D01*
X915944Y1314344D01*
X913324Y1316354D01*
X910768Y1317413D01*
Y1318787D01*
X913324Y1319846D01*
X915944Y1321856D01*
X917954Y1324476D01*
X919217Y1327526D01*
X919648Y1330800D01*
X919217Y1334074D01*
X917954Y1337124D01*
X915944Y1339744D01*
X913324Y1341754D01*
X910274Y1343017D01*
X907000Y1343448D01*
X902000D01*
X898727Y1343017D01*
X895676Y1341754D01*
X893056Y1339744D01*
X891046Y1337124D01*
X889783Y1334074D01*
X889352Y1330800D01*
X889783Y1327526D01*
X891046Y1324476D01*
X893056Y1321856D01*
X895676Y1319846D01*
X898233Y1318787D01*
Y1317413D01*
X895676Y1316354D01*
X893056Y1314344D01*
X891046Y1311724D01*
X889783Y1308674D01*
X889352Y1305400D01*
X889783Y1302126D01*
X891046Y1299076D01*
X893056Y1296456D01*
X895676Y1294446D01*
X898233Y1293387D01*
Y1292013D01*
X895676Y1290954D01*
X893056Y1288944D01*
X891046Y1286324D01*
X889783Y1283274D01*
X889352Y1280000D01*
X889783Y1276726D01*
X891046Y1273676D01*
X893056Y1271056D01*
X895676Y1269046D01*
X898233Y1267987D01*
Y1266613D01*
X895676Y1265554D01*
X893056Y1263544D01*
X891046Y1260924D01*
X889783Y1257874D01*
X889352Y1254600D01*
X889783Y1251326D01*
X891046Y1248276D01*
X893056Y1245656D01*
X895676Y1243646D01*
X898233Y1242587D01*
Y1241213D01*
X895676Y1240154D01*
X893056Y1238144D01*
X891046Y1235524D01*
X889783Y1232474D01*
X889352Y1229200D01*
X889783Y1225926D01*
X891046Y1222876D01*
X893056Y1220256D01*
X895676Y1218246D01*
X898233Y1217187D01*
Y1215813D01*
X895676Y1214754D01*
X893056Y1212744D01*
X891046Y1210124D01*
X889783Y1207074D01*
X889352Y1203800D01*
X889783Y1200526D01*
X891046Y1197476D01*
X893056Y1194856D01*
X895676Y1192846D01*
X898233Y1191787D01*
Y1190413D01*
X895676Y1189354D01*
X893056Y1187344D01*
X891046Y1184724D01*
X889783Y1181674D01*
X889352Y1178400D01*
X889783Y1175126D01*
X891046Y1172076D01*
X893056Y1169456D01*
X895676Y1167446D01*
X898233Y1166387D01*
Y1165013D01*
X895676Y1163954D01*
X893056Y1161944D01*
X891046Y1159324D01*
X889783Y1156274D01*
X889352Y1153000D01*
X889783Y1149726D01*
X891046Y1146676D01*
X893056Y1144056D01*
X895676Y1142046D01*
X898233Y1140987D01*
Y1139613D01*
X895676Y1138554D01*
X893056Y1136544D01*
X891046Y1133924D01*
X889783Y1130874D01*
X889352Y1127600D01*
X889783Y1124326D01*
X891046Y1121276D01*
X893056Y1118656D01*
X895676Y1116646D01*
X898233Y1115587D01*
Y1114213D01*
X895676Y1113154D01*
X893056Y1111144D01*
X891046Y1108524D01*
X889783Y1105474D01*
X889352Y1102200D01*
X889783Y1098926D01*
X891046Y1095876D01*
X893056Y1093256D01*
X895676Y1091246D01*
X898233Y1090187D01*
Y1088813D01*
X895676Y1087754D01*
X893056Y1085744D01*
X891046Y1083124D01*
X889783Y1080074D01*
X889352Y1076800D01*
X889783Y1073526D01*
X891046Y1070476D01*
X893056Y1067856D01*
X895676Y1065846D01*
X898233Y1064787D01*
Y1063413D01*
X895676Y1062354D01*
X893056Y1060344D01*
X891046Y1057724D01*
X889783Y1054674D01*
X889352Y1051400D01*
X889783Y1048126D01*
X891046Y1045076D01*
X893056Y1042456D01*
X895676Y1040446D01*
X898233Y1039387D01*
Y1038013D01*
X895676Y1036954D01*
X893056Y1034944D01*
X891046Y1032324D01*
X889783Y1029274D01*
X889352Y1026000D01*
X889783Y1022726D01*
X891046Y1019676D01*
X893056Y1017056D01*
X895676Y1015046D01*
X898233Y1013987D01*
Y1012613D01*
X895676Y1011554D01*
X893056Y1009544D01*
X891255Y1007196D01*
X882600D01*
X880893Y1006972D01*
X879302Y1006313D01*
X877936Y1005264D01*
X866086Y993414D01*
X865037Y992048D01*
X864378Y990457D01*
X864154Y988750D01*
Y958000D01*
X806250D01*
X799427Y951177D01*
X798253Y951662D01*
X798000Y1328000D01*
X823750Y1353750D01*
X853154Y1353693D01*
D02*
G37*
%LPC*%
G36*
X1202850Y916898D02*
X1201428Y916518D01*
X1199111Y915180D01*
X1197220Y913288D01*
X1195882Y910972D01*
X1195501Y909550D01*
X1202850D01*
Y916898D01*
D02*
G37*
G36*
X851290Y1352340D02*
X844250D01*
Y1345300D01*
X851290D01*
Y1352340D01*
D02*
G37*
G36*
X839250D02*
X832210D01*
Y1345300D01*
X839250D01*
Y1352340D01*
D02*
G37*
G36*
X851290Y1340300D02*
X844250D01*
Y1333260D01*
X851290D01*
Y1340300D01*
D02*
G37*
G36*
X839250D02*
X832210D01*
Y1333260D01*
X839250D01*
Y1340300D01*
D02*
G37*
G36*
X1207322Y1315490D02*
X1204678D01*
X1202125Y1314805D01*
X1199835Y1313484D01*
X1197966Y1311615D01*
X1196644Y1309325D01*
X1195960Y1306772D01*
Y1304128D01*
X1196644Y1301575D01*
X1197966Y1299285D01*
X1199835Y1297416D01*
X1202125Y1296094D01*
X1204678Y1295410D01*
X1207322D01*
X1209875Y1296094D01*
X1212165Y1297416D01*
X1214034Y1299285D01*
X1215356Y1301575D01*
X1216040Y1304128D01*
Y1306772D01*
X1215356Y1309325D01*
X1214034Y1311615D01*
X1212165Y1313484D01*
X1209875Y1314805D01*
X1207322Y1315490D01*
D02*
G37*
G36*
Y1290090D02*
X1204678D01*
X1202125Y1289406D01*
X1199835Y1288084D01*
X1197966Y1286214D01*
X1196644Y1283925D01*
X1195960Y1281372D01*
Y1278728D01*
X1196644Y1276174D01*
X1197966Y1273885D01*
X1199835Y1272016D01*
X1202125Y1270694D01*
X1204678Y1270010D01*
X1207322D01*
X1209875Y1270694D01*
X1212165Y1272016D01*
X1214034Y1273885D01*
X1215356Y1276174D01*
X1216040Y1278728D01*
Y1281372D01*
X1215356Y1283925D01*
X1214034Y1286214D01*
X1212165Y1288084D01*
X1209875Y1289406D01*
X1207322Y1290090D01*
D02*
G37*
G36*
Y1239290D02*
X1204678D01*
X1202125Y1238605D01*
X1199835Y1237284D01*
X1197966Y1235415D01*
X1196644Y1233125D01*
X1195960Y1230572D01*
Y1227928D01*
X1196644Y1225375D01*
X1197966Y1223085D01*
X1199835Y1221216D01*
X1202125Y1219894D01*
X1204678Y1219210D01*
X1207322D01*
X1209875Y1219894D01*
X1212165Y1221216D01*
X1214034Y1223085D01*
X1215356Y1225375D01*
X1216040Y1227928D01*
Y1230572D01*
X1215356Y1233125D01*
X1214034Y1235415D01*
X1212165Y1237284D01*
X1209875Y1238605D01*
X1207322Y1239290D01*
D02*
G37*
G36*
X845473Y1222540D02*
X843027D01*
X840664Y1221907D01*
X838546Y1220684D01*
X836816Y1218954D01*
X835593Y1216836D01*
X834960Y1214473D01*
Y1212027D01*
X835593Y1209664D01*
X836816Y1207546D01*
X838546Y1205816D01*
X840664Y1204593D01*
X843027Y1203960D01*
X845473D01*
X847836Y1204593D01*
X849954Y1205816D01*
X851684Y1207546D01*
X852907Y1209664D01*
X853540Y1212027D01*
Y1214473D01*
X852907Y1216836D01*
X851684Y1218954D01*
X849954Y1220684D01*
X847836Y1221907D01*
X845473Y1222540D01*
D02*
G37*
G36*
X1207322Y1213890D02*
X1204678D01*
X1202125Y1213205D01*
X1199835Y1211884D01*
X1197966Y1210014D01*
X1196644Y1207725D01*
X1195960Y1205172D01*
Y1202528D01*
X1196644Y1199975D01*
X1197966Y1197685D01*
X1199835Y1195816D01*
X1202125Y1194494D01*
X1204678Y1193810D01*
X1207322D01*
X1209875Y1194494D01*
X1212165Y1195816D01*
X1214034Y1197685D01*
X1215356Y1199975D01*
X1216040Y1202528D01*
Y1205172D01*
X1215356Y1207725D01*
X1214034Y1210014D01*
X1212165Y1211884D01*
X1209875Y1213205D01*
X1207322Y1213890D01*
D02*
G37*
G36*
X839000Y1162290D02*
X835500D01*
X832120Y1161384D01*
X829090Y1159635D01*
X826615Y1157160D01*
X824866Y1154130D01*
X823960Y1150750D01*
Y1147250D01*
X824866Y1143870D01*
X826615Y1140840D01*
X829090Y1138365D01*
X832120Y1136616D01*
X835500Y1135710D01*
X839000D01*
X842380Y1136616D01*
X845410Y1138365D01*
X847885Y1140840D01*
X849634Y1143870D01*
X850540Y1147250D01*
Y1150750D01*
X849634Y1154130D01*
X847885Y1157160D01*
X845410Y1159635D01*
X842380Y1161384D01*
X839000Y1162290D01*
D02*
G37*
G36*
X850540Y1122690D02*
X823960D01*
Y1096110D01*
X841211D01*
X850654Y1086668D01*
Y1070766D01*
X849705Y1070512D01*
X849384Y1070511D01*
X846910Y1072985D01*
X843880Y1074734D01*
X840500Y1075640D01*
X837001D01*
X833620Y1074734D01*
X830590Y1072985D01*
X828115Y1070510D01*
X826366Y1067480D01*
X825460Y1064100D01*
Y1060600D01*
X826366Y1057220D01*
X828115Y1054190D01*
X830590Y1051715D01*
X833620Y1049966D01*
X837001Y1049060D01*
X840500D01*
X843880Y1049966D01*
X846910Y1051715D01*
X849384Y1054188D01*
X849705Y1054188D01*
X850654Y1053934D01*
Y1043982D01*
X842244Y1035572D01*
X840500Y1036040D01*
X837001D01*
X833620Y1035134D01*
X830590Y1033384D01*
X828115Y1030910D01*
X826366Y1027880D01*
X825460Y1024499D01*
Y1021000D01*
X826366Y1017620D01*
X828115Y1014589D01*
X830590Y1012115D01*
X833620Y1010366D01*
X837001Y1009460D01*
X840500D01*
X843880Y1010366D01*
X846910Y1012115D01*
X849385Y1014589D01*
X851134Y1017620D01*
X852040Y1021000D01*
Y1024499D01*
X851573Y1026244D01*
X861914Y1036585D01*
X862963Y1037951D01*
X863622Y1039542D01*
X863846Y1041250D01*
Y1089400D01*
X863622Y1091107D01*
X862963Y1092698D01*
X861914Y1094064D01*
X850540Y1105439D01*
Y1122690D01*
D02*
G37*
G36*
X1105088Y993410D02*
X1102412D01*
X1099828Y992718D01*
X1097512Y991380D01*
X1095620Y989488D01*
X1094282Y987172D01*
X1093590Y984588D01*
Y981912D01*
X1094282Y979328D01*
X1095620Y977012D01*
X1097512Y975120D01*
X1099828Y973782D01*
X1102412Y973090D01*
X1105088D01*
X1107672Y973782D01*
X1109988Y975120D01*
X1111880Y977012D01*
X1113218Y979328D01*
X1113910Y981912D01*
Y984588D01*
X1113218Y987172D01*
X1111880Y989488D01*
X1109988Y991380D01*
X1107672Y992718D01*
X1105088Y993410D01*
D02*
G37*
G36*
X852040Y996440D02*
X825460D01*
Y969860D01*
X852040D01*
Y996440D01*
D02*
G37*
G36*
X919540Y972700D02*
X907000D01*
Y962660D01*
X919540D01*
Y972700D01*
D02*
G37*
G36*
X902000D02*
X889460D01*
Y962660D01*
X902000D01*
Y972700D01*
D02*
G37*
G36*
X1105088Y968010D02*
X1102412D01*
X1099828Y967318D01*
X1097512Y965980D01*
X1095620Y964088D01*
X1094282Y961772D01*
X1093590Y959188D01*
Y956512D01*
X1094282Y953928D01*
X1095620Y951612D01*
X1097512Y949720D01*
X1099828Y948382D01*
X1102412Y947690D01*
X1105088D01*
X1107672Y948382D01*
X1109988Y949720D01*
X1111880Y951612D01*
X1113218Y953928D01*
X1113910Y956512D01*
Y959188D01*
X1113218Y961772D01*
X1111880Y964088D01*
X1109988Y965980D01*
X1107672Y967318D01*
X1105088Y968010D01*
D02*
G37*
G36*
X953226Y927495D02*
X952728Y927440D01*
X933460D01*
Y922650D01*
X953500D01*
X973540D01*
Y927440D01*
X953586D01*
X953226Y927495D01*
D02*
G37*
G36*
X1005040Y927540D02*
X998250D01*
Y920750D01*
X1005040D01*
Y927540D01*
D02*
G37*
G36*
X993250D02*
X986460D01*
Y920750D01*
X993250D01*
Y927540D01*
D02*
G37*
G36*
X973540Y917650D02*
X956000D01*
Y912860D01*
X973540D01*
Y917650D01*
D02*
G37*
G36*
X951000D02*
X933460D01*
Y912860D01*
X951000D01*
Y917650D01*
D02*
G37*
G36*
X1005040Y915750D02*
X998250D01*
Y908960D01*
X1005040D01*
Y915750D01*
D02*
G37*
G36*
X993250D02*
X986460D01*
Y908960D01*
X993250D01*
Y915750D01*
D02*
G37*
G36*
X1113910Y866410D02*
X1093590D01*
Y846090D01*
X1113910D01*
Y866410D01*
D02*
G37*
%LPD*%
D14*
X1090450Y1311300D02*
D03*
D15*
X1115850D02*
D03*
D16*
X856000Y894750D02*
D03*
D17*
X953500Y920150D02*
D03*
Y869350D02*
D03*
D38*
X961390Y1153000D02*
X968450Y1160060D01*
Y1266500D01*
X904500Y1153000D02*
X961390D01*
X953500Y869350D02*
X974344D01*
X940750D02*
X953500D01*
X974344D02*
X974694Y869000D01*
X995750D01*
X1088899Y1274649D02*
Y1309749D01*
X1090450Y1311300D01*
X1088000Y1273750D02*
X1088899Y1274649D01*
X953088Y920900D02*
X953500Y920150D01*
X897000Y851250D02*
X1028000D01*
X1045750Y869000D01*
X856000Y892250D02*
Y894750D01*
Y892250D02*
X897000Y851250D01*
X1045750Y869000D02*
Y918250D01*
X856000Y894750D02*
X870750Y909500D01*
Y988750D01*
X882600Y1000600D01*
X904500D01*
X1085560Y1022057D02*
X1095500Y1031997D01*
Y1152000D01*
X1085560Y899840D02*
Y1022057D01*
X859750Y1327250D02*
Y1357038D01*
X847000Y1314500D02*
X859750Y1327250D01*
X849735Y1367053D02*
X859750Y1357038D01*
X844250Y1302539D02*
X847000Y1305289D01*
X841750Y1368201D02*
X842898Y1367053D01*
X849735D01*
X847000Y1305289D02*
Y1314500D01*
X837250Y1109400D02*
X857250Y1089400D01*
Y1041250D02*
Y1089400D01*
X838750Y1022750D02*
X857250Y1041250D01*
X904500Y1178400D02*
X927100D01*
X943050Y1194350D01*
Y1266500D01*
X1158500Y1229200D02*
X1180550D01*
X1206000Y1254650D01*
X1019250Y1227380D02*
Y1266500D01*
Y1227380D02*
X1035812Y1210818D01*
Y1100836D02*
Y1210818D01*
X1016000Y1081024D02*
X1035812Y1100836D01*
X946404Y1081024D02*
X1016000D01*
X925228Y1102200D02*
X946404Y1081024D01*
X904500Y1102200D02*
X925228D01*
X993850Y1168400D02*
Y1266500D01*
X965656Y1140206D02*
X993850Y1168400D01*
X936752Y1140206D02*
X965656D01*
X924146Y1127600D02*
X936752Y1140206D01*
X904500Y1127600D02*
X924146D01*
X1206000Y1330850D02*
Y1346200D01*
X1204730Y1347470D02*
X1206000Y1346200D01*
X1147064Y1347470D02*
X1204730D01*
X1139444Y1339850D02*
X1147064Y1347470D01*
X1139444Y975200D02*
Y1339850D01*
Y975200D02*
X1158500D01*
X1205350Y983250D02*
Y1034422D01*
X1191006Y1076960D02*
X1198626Y1084580D01*
X1191006Y972194D02*
Y1076960D01*
Y972194D02*
X1205350Y957850D01*
X1085560Y899840D02*
X1103750Y881650D01*
X995750Y869000D02*
X1020826Y894076D01*
Y1028446D01*
X1069404Y1077024D01*
Y1173480D01*
X1115850Y1219926D01*
Y1311300D01*
X1158500Y1203800D02*
X1181100D01*
X1190244Y1194656D01*
Y1130300D02*
Y1194656D01*
Y1130300D02*
X1219708Y1100836D01*
Y870608D02*
Y1100836D01*
X1205350Y856250D02*
X1219708Y870608D01*
X1103750Y907050D02*
X1158500Y961801D01*
Y975200D01*
Y1178400D02*
X1177544D01*
Y909456D02*
Y1178400D01*
Y909456D02*
X1205350Y881650D01*
D39*
X1158500Y1330800D02*
D03*
Y1305400D02*
D03*
Y1280000D02*
D03*
Y1254600D02*
D03*
Y1229200D02*
D03*
Y1203800D02*
D03*
Y1178400D02*
D03*
Y1153000D02*
D03*
Y1127600D02*
D03*
Y1102200D02*
D03*
Y1076800D02*
D03*
Y1051400D02*
D03*
Y1026000D02*
D03*
Y1000600D02*
D03*
X904500Y1051400D02*
D03*
Y1330800D02*
D03*
Y1305400D02*
D03*
Y1280000D02*
D03*
Y1254600D02*
D03*
Y1229200D02*
D03*
Y1203800D02*
D03*
Y1178400D02*
D03*
Y1153000D02*
D03*
Y1127600D02*
D03*
Y1102200D02*
D03*
Y1076800D02*
D03*
Y1026000D02*
D03*
Y1000600D02*
D03*
D40*
X1158500Y975200D02*
D03*
X904500D02*
D03*
D41*
X838750Y1062350D02*
D03*
Y1022750D02*
D03*
X837250Y1149000D02*
D03*
D42*
X838750Y983150D02*
D03*
X837250Y1109400D02*
D03*
D43*
X1205350Y983250D02*
D03*
Y957850D02*
D03*
Y932450D02*
D03*
Y907050D02*
D03*
Y881650D02*
D03*
Y856250D02*
D03*
X1103750Y957850D02*
D03*
Y881650D02*
D03*
Y983250D02*
D03*
Y932450D02*
D03*
Y907050D02*
D03*
D44*
Y856250D02*
D03*
D45*
X943050Y1113100D02*
D03*
X968450D02*
D03*
X993850D02*
D03*
X1019250D02*
D03*
X943050Y1266500D02*
D03*
X968450D02*
D03*
X993850D02*
D03*
D46*
X1019250D02*
D03*
D47*
X995750Y918250D02*
D03*
Y869000D02*
D03*
D48*
X1045750Y918250D02*
D03*
Y869000D02*
D03*
X844250Y1213250D02*
D03*
D49*
X1206000Y1153050D02*
D03*
Y1178450D02*
D03*
Y1203850D02*
D03*
Y1229250D02*
D03*
Y1254650D02*
D03*
Y1280050D02*
D03*
Y1305450D02*
D03*
D50*
Y1330850D02*
D03*
D51*
X841750Y1368201D02*
D03*
D52*
Y1342800D02*
D03*
D53*
X844250Y1303250D02*
D03*
D54*
X1088000Y1273750D02*
D03*
X1095500Y1152000D02*
D03*
X1205350Y1034422D02*
D03*
X1198626Y1084580D02*
D03*
M02*
