G04*
G04 #@! TF.GenerationSoftware,Altium Limited,Altium Designer,25.0.2 (28)*
G04*
G04 Layer_Physical_Order=2*
G04 Layer_Color=16711680*
%FSLAX44Y44*%
%MOMM*%
G71*
G04*
G04 #@! TF.SameCoordinates,4711C13A-52D9-45D7-B3A0-D515BE669C82*
G04*
G04*
G04 #@! TF.FilePolarity,Positive*
G04*
G01*
G75*
%ADD38C,0.8000*%
%ADD39O,2.5000X2.0000*%
%ADD40R,2.5000X2.0000*%
%ADD41C,2.1500*%
%ADD42R,2.1500X2.1500*%
%ADD43C,1.5240*%
%ADD44R,1.5240X1.5240*%
%ADD45O,2.0000X2.5000*%
%ADD46R,2.0000X2.5000*%
%ADD47R,1.3500X1.3500*%
%ADD48C,1.3500*%
%ADD49C,1.5000*%
%ADD50R,1.5000X1.5000*%
%ADD51C,1.4000*%
%ADD52R,1.4000X1.4000*%
%ADD53R,1.3500X1.3500*%
%ADD54C,1.2700*%
%ADD55O,1.5240X3.5400*%
%ADD56R,1.5240X3.5400*%
%ADD57R,3.5400X1.5240*%
%ADD58O,3.5400X1.5240*%
G36*
X1255500Y1344622D02*
X1255500Y838500D01*
X798000D01*
Y1345479D01*
X831312Y1345482D01*
X832210Y1344584D01*
Y1333260D01*
X851290D01*
Y1345484D01*
X1254602Y1345520D01*
X1255500Y1344622D01*
D02*
G37*
%LPC*%
G36*
X1216040Y1340890D02*
X1195960D01*
Y1320810D01*
X1216040D01*
Y1340890D01*
D02*
G37*
G36*
X1208500Y1315174D02*
Y1307950D01*
X1215724D01*
X1215356Y1309325D01*
X1214034Y1311615D01*
X1212165Y1313484D01*
X1209875Y1314805D01*
X1208500Y1315174D01*
D02*
G37*
G36*
X1203500D02*
X1202125Y1314805D01*
X1199835Y1313484D01*
X1197966Y1311615D01*
X1196644Y1309325D01*
X1196276Y1307950D01*
X1203500D01*
Y1315174D01*
D02*
G37*
G36*
X1215724Y1302950D02*
X1208500D01*
Y1295726D01*
X1209875Y1296094D01*
X1212165Y1297416D01*
X1214034Y1299285D01*
X1215356Y1301575D01*
X1215724Y1302950D01*
D02*
G37*
G36*
X1203500D02*
X1196276D01*
X1196644Y1301575D01*
X1197966Y1299285D01*
X1199835Y1297416D01*
X1202125Y1296094D01*
X1203500Y1295726D01*
Y1302950D01*
D02*
G37*
G36*
X853540Y1312540D02*
X834960D01*
Y1293960D01*
X853540D01*
Y1312540D01*
D02*
G37*
G36*
X1090500Y1282284D02*
Y1276250D01*
X1096534D01*
X1096284Y1277181D01*
X1095114Y1279209D01*
X1093459Y1280864D01*
X1091431Y1282034D01*
X1090500Y1282284D01*
D02*
G37*
G36*
X1085500D02*
X1084569Y1282034D01*
X1082541Y1280864D01*
X1080886Y1279209D01*
X1079716Y1277181D01*
X1079466Y1276250D01*
X1085500D01*
Y1282284D01*
D02*
G37*
G36*
X993850Y1281648D02*
X990577Y1281217D01*
X987526Y1279954D01*
X984906Y1277943D01*
X982896Y1275324D01*
X981837Y1272767D01*
X980463D01*
X979404Y1275324D01*
X977394Y1277943D01*
X974774Y1279954D01*
X971724Y1281217D01*
X968450Y1281648D01*
X965177Y1281217D01*
X962126Y1279954D01*
X959507Y1277943D01*
X957496Y1275324D01*
X956438Y1272767D01*
X955063D01*
X954004Y1275324D01*
X951994Y1277943D01*
X949374Y1279954D01*
X946324Y1281217D01*
X943050Y1281648D01*
X939777Y1281217D01*
X936726Y1279954D01*
X934107Y1277943D01*
X932096Y1275324D01*
X930833Y1272273D01*
X930402Y1269000D01*
Y1264000D01*
X930833Y1260726D01*
X932096Y1257676D01*
X934107Y1255056D01*
X936726Y1253046D01*
X939777Y1251783D01*
X943050Y1251352D01*
X946324Y1251783D01*
X949374Y1253046D01*
X951994Y1255056D01*
X954004Y1257676D01*
X955063Y1260232D01*
X956438D01*
X957496Y1257676D01*
X959507Y1255056D01*
X962126Y1253046D01*
X965177Y1251783D01*
X968450Y1251352D01*
X971724Y1251783D01*
X974774Y1253046D01*
X977394Y1255056D01*
X979404Y1257676D01*
X980463Y1260232D01*
X981837D01*
X982896Y1257676D01*
X984906Y1255056D01*
X987526Y1253046D01*
X990577Y1251783D01*
X993850Y1251352D01*
X997124Y1251783D01*
X1000174Y1253046D01*
X1002794Y1255056D01*
X1004804Y1257676D01*
X1005440Y1259212D01*
X1006710Y1258959D01*
Y1251460D01*
X1031790D01*
Y1281540D01*
X1006710D01*
Y1274040D01*
X1005440Y1273788D01*
X1004804Y1275324D01*
X1002794Y1277943D01*
X1000174Y1279954D01*
X997124Y1281217D01*
X993850Y1281648D01*
D02*
G37*
G36*
X1096534Y1271250D02*
X1090500D01*
Y1265216D01*
X1091431Y1265466D01*
X1093459Y1266636D01*
X1095114Y1268291D01*
X1096284Y1270319D01*
X1096534Y1271250D01*
D02*
G37*
G36*
X1085500D02*
X1079466D01*
X1079716Y1270319D01*
X1080886Y1268291D01*
X1082541Y1266636D01*
X1084569Y1265466D01*
X1085500Y1265216D01*
Y1271250D01*
D02*
G37*
G36*
X1207322Y1264690D02*
X1204678D01*
X1202125Y1264006D01*
X1199835Y1262684D01*
X1197966Y1260815D01*
X1196644Y1258525D01*
X1195960Y1255972D01*
Y1253328D01*
X1196644Y1250775D01*
X1197966Y1248485D01*
X1199835Y1246616D01*
X1202125Y1245294D01*
X1204678Y1244610D01*
X1207322D01*
X1209875Y1245294D01*
X1212165Y1246616D01*
X1214034Y1248485D01*
X1215356Y1250775D01*
X1216040Y1253328D01*
Y1255972D01*
X1215356Y1258525D01*
X1214034Y1260815D01*
X1212165Y1262684D01*
X1209875Y1264006D01*
X1207322Y1264690D01*
D02*
G37*
G36*
Y1239290D02*
X1204678D01*
X1202125Y1238605D01*
X1199835Y1237284D01*
X1197966Y1235415D01*
X1196644Y1233125D01*
X1195960Y1230572D01*
Y1227928D01*
X1196644Y1225375D01*
X1197966Y1223085D01*
X1199835Y1221216D01*
X1202125Y1219894D01*
X1204678Y1219210D01*
X1207322D01*
X1209875Y1219894D01*
X1212165Y1221216D01*
X1214034Y1223085D01*
X1215356Y1225375D01*
X1216040Y1227928D01*
Y1230572D01*
X1215356Y1233125D01*
X1214034Y1235415D01*
X1212165Y1237284D01*
X1209875Y1238605D01*
X1207322Y1239290D01*
D02*
G37*
G36*
X846750Y1222198D02*
Y1215750D01*
X853198D01*
X852907Y1216836D01*
X851684Y1218954D01*
X849954Y1220684D01*
X847836Y1221907D01*
X846750Y1222198D01*
D02*
G37*
G36*
X841750D02*
X840664Y1221907D01*
X838546Y1220684D01*
X836816Y1218954D01*
X835593Y1216836D01*
X835302Y1215750D01*
X841750D01*
Y1222198D01*
D02*
G37*
G36*
X853198Y1210750D02*
X846750D01*
Y1204302D01*
X847836Y1204593D01*
X849954Y1205816D01*
X851684Y1207546D01*
X852907Y1209664D01*
X853198Y1210750D01*
D02*
G37*
G36*
X841750D02*
X835302D01*
X835593Y1209664D01*
X836816Y1207546D01*
X838546Y1205816D01*
X840664Y1204593D01*
X841750Y1204302D01*
Y1210750D01*
D02*
G37*
G36*
X1106260Y1214240D02*
X1098600D01*
Y1196500D01*
X1106260D01*
Y1214240D01*
D02*
G37*
G36*
X1093600D02*
X1085940D01*
Y1196500D01*
X1093600D01*
Y1214240D01*
D02*
G37*
G36*
X1207322Y1213890D02*
X1204678D01*
X1202125Y1213205D01*
X1199835Y1211884D01*
X1197966Y1210014D01*
X1196644Y1207725D01*
X1195960Y1205172D01*
Y1202528D01*
X1196644Y1199975D01*
X1197966Y1197685D01*
X1199835Y1195816D01*
X1202125Y1194494D01*
X1204678Y1193810D01*
X1207322D01*
X1209875Y1194494D01*
X1212165Y1195816D01*
X1214034Y1197685D01*
X1215356Y1199975D01*
X1216040Y1202528D01*
Y1205172D01*
X1215356Y1207725D01*
X1214034Y1210014D01*
X1212165Y1211884D01*
X1209875Y1213205D01*
X1207322Y1213890D01*
D02*
G37*
G36*
X1106260Y1191500D02*
X1098600D01*
Y1173760D01*
X1106260D01*
Y1191500D01*
D02*
G37*
G36*
X1093600D02*
X1085940D01*
Y1173760D01*
X1093600D01*
Y1191500D01*
D02*
G37*
G36*
X1207322Y1188490D02*
X1204678D01*
X1202125Y1187805D01*
X1199835Y1186484D01*
X1197966Y1184614D01*
X1196644Y1182325D01*
X1195960Y1179772D01*
Y1177128D01*
X1196644Y1174575D01*
X1197966Y1172285D01*
X1199835Y1170416D01*
X1202125Y1169094D01*
X1204678Y1168410D01*
X1207322D01*
X1209875Y1169094D01*
X1212165Y1170416D01*
X1214034Y1172285D01*
X1215356Y1174575D01*
X1216040Y1177128D01*
Y1179772D01*
X1215356Y1182325D01*
X1214034Y1184614D01*
X1212165Y1186484D01*
X1209875Y1187805D01*
X1207322Y1188490D01*
D02*
G37*
G36*
X839750Y1162089D02*
Y1151500D01*
X850339D01*
X849634Y1154130D01*
X847885Y1157160D01*
X845410Y1159635D01*
X842380Y1161384D01*
X839750Y1162089D01*
D02*
G37*
G36*
X834750D02*
X832120Y1161384D01*
X829090Y1159635D01*
X826615Y1157160D01*
X824866Y1154130D01*
X824161Y1151500D01*
X834750D01*
Y1162089D01*
D02*
G37*
G36*
X1025108Y1234432D02*
X952500D01*
X950793Y1234208D01*
X949202Y1233549D01*
X947836Y1232500D01*
X935086Y1219751D01*
X934037Y1218384D01*
X933379Y1216794D01*
X933154Y1215086D01*
Y1213385D01*
X932504Y1212886D01*
X930875Y1210764D01*
X929852Y1208292D01*
X929502Y1205640D01*
Y1185480D01*
X929852Y1182828D01*
X930875Y1180356D01*
X932504Y1178234D01*
X934626Y1176605D01*
X937098Y1175582D01*
X939750Y1175232D01*
X942402Y1175582D01*
X944874Y1176605D01*
X946996Y1178234D01*
X948625Y1180356D01*
X949649Y1182828D01*
X949998Y1185480D01*
Y1205640D01*
X949649Y1208292D01*
X948625Y1210764D01*
X946996Y1212886D01*
X946989Y1212996D01*
X955232Y1221240D01*
X1022376D01*
X1051640Y1191975D01*
Y1186278D01*
X1051865Y1184570D01*
X1052524Y1182980D01*
X1053572Y1181613D01*
X1070261Y1164924D01*
X1071627Y1163876D01*
X1073218Y1163217D01*
X1074926Y1162992D01*
X1075179D01*
X1086610Y1151561D01*
Y1150830D01*
X1087216Y1148569D01*
X1088386Y1146541D01*
X1090041Y1144886D01*
X1092069Y1143716D01*
X1094330Y1143110D01*
X1096670D01*
X1098931Y1143716D01*
X1100959Y1144886D01*
X1102614Y1146541D01*
X1103784Y1148569D01*
X1104390Y1150830D01*
Y1153170D01*
X1103784Y1155431D01*
X1102614Y1157459D01*
X1100959Y1159114D01*
X1098931Y1160284D01*
X1096670Y1160890D01*
X1095939D01*
X1082576Y1174253D01*
X1081210Y1175301D01*
X1079619Y1175960D01*
X1077912Y1176185D01*
X1077658D01*
X1064833Y1189010D01*
Y1194708D01*
X1064608Y1196415D01*
X1063949Y1198006D01*
X1062901Y1199372D01*
X1029772Y1232500D01*
X1028406Y1233549D01*
X1026815Y1234208D01*
X1025108Y1234432D01*
D02*
G37*
G36*
X1207322Y1163090D02*
X1204678D01*
X1202125Y1162405D01*
X1199835Y1161084D01*
X1197966Y1159214D01*
X1196644Y1156925D01*
X1195960Y1154372D01*
Y1151728D01*
X1196644Y1149174D01*
X1197966Y1146885D01*
X1199835Y1145016D01*
X1202125Y1143694D01*
X1204678Y1143010D01*
X1207322D01*
X1209875Y1143694D01*
X1212165Y1145016D01*
X1214034Y1146885D01*
X1215356Y1149174D01*
X1216040Y1151728D01*
Y1154372D01*
X1215356Y1156925D01*
X1214034Y1159214D01*
X1212165Y1161084D01*
X1209875Y1162405D01*
X1207322Y1163090D01*
D02*
G37*
G36*
X850339Y1146500D02*
X839750D01*
Y1135911D01*
X842380Y1136616D01*
X845410Y1138365D01*
X847885Y1140840D01*
X849634Y1143870D01*
X850339Y1146500D01*
D02*
G37*
G36*
X834750D02*
X824161D01*
X824866Y1143870D01*
X826615Y1140840D01*
X829090Y1138365D01*
X832120Y1136616D01*
X834750Y1135911D01*
Y1146500D01*
D02*
G37*
G36*
X850540Y1122690D02*
X823960D01*
Y1096110D01*
X850540D01*
Y1122690D01*
D02*
G37*
G36*
X1161000Y1343448D02*
X1156000D01*
X1152727Y1343017D01*
X1149676Y1341754D01*
X1147057Y1339744D01*
X1145046Y1337124D01*
X1143783Y1334074D01*
X1143352Y1330800D01*
X1143783Y1327526D01*
X1145046Y1324476D01*
X1147057Y1321856D01*
X1149676Y1319846D01*
X1152233Y1318787D01*
Y1317413D01*
X1149676Y1316354D01*
X1147057Y1314344D01*
X1145046Y1311724D01*
X1143783Y1308674D01*
X1143352Y1305400D01*
X1143783Y1302126D01*
X1145046Y1299076D01*
X1147057Y1296456D01*
X1149676Y1294446D01*
X1152233Y1293387D01*
Y1292013D01*
X1149676Y1290954D01*
X1147057Y1288944D01*
X1145046Y1286324D01*
X1143783Y1283274D01*
X1143352Y1280000D01*
X1143783Y1276726D01*
X1145046Y1273676D01*
X1147057Y1271056D01*
X1149676Y1269046D01*
X1152233Y1267987D01*
Y1266613D01*
X1149676Y1265554D01*
X1147057Y1263544D01*
X1145046Y1260924D01*
X1143783Y1257874D01*
X1143352Y1254600D01*
X1143783Y1251326D01*
X1145046Y1248276D01*
X1147057Y1245656D01*
X1149676Y1243646D01*
X1152233Y1242587D01*
Y1241213D01*
X1149676Y1240154D01*
X1147057Y1238144D01*
X1145046Y1235524D01*
X1143783Y1232474D01*
X1143352Y1229200D01*
X1143783Y1225926D01*
X1145046Y1222876D01*
X1147057Y1220256D01*
X1149676Y1218246D01*
X1152233Y1217187D01*
Y1215813D01*
X1149676Y1214754D01*
X1147057Y1212744D01*
X1145046Y1210124D01*
X1143783Y1207074D01*
X1143352Y1203800D01*
X1143783Y1200526D01*
X1145046Y1197476D01*
X1147057Y1194856D01*
X1149676Y1192846D01*
X1152233Y1191787D01*
Y1190413D01*
X1149676Y1189354D01*
X1147057Y1187344D01*
X1145046Y1184724D01*
X1143783Y1181674D01*
X1143352Y1178400D01*
X1143783Y1175126D01*
X1145046Y1172076D01*
X1147057Y1169456D01*
X1149676Y1167446D01*
X1152233Y1166387D01*
Y1165013D01*
X1149676Y1163954D01*
X1147057Y1161944D01*
X1145046Y1159324D01*
X1143783Y1156274D01*
X1143352Y1153000D01*
X1143783Y1149726D01*
X1145046Y1146676D01*
X1147057Y1144056D01*
X1149676Y1142046D01*
X1152233Y1140987D01*
Y1139613D01*
X1149676Y1138554D01*
X1147057Y1136544D01*
X1145046Y1133924D01*
X1143783Y1130874D01*
X1143352Y1127600D01*
X1143783Y1124326D01*
X1145046Y1121276D01*
X1147057Y1118656D01*
X1149676Y1116646D01*
X1152233Y1115587D01*
Y1114213D01*
X1149676Y1113154D01*
X1147057Y1111144D01*
X1145046Y1108524D01*
X1143783Y1105474D01*
X1143352Y1102200D01*
X1143783Y1098926D01*
X1145046Y1095876D01*
X1147057Y1093256D01*
X1149676Y1091246D01*
X1152233Y1090187D01*
Y1088813D01*
X1149676Y1087754D01*
X1147057Y1085744D01*
X1145046Y1083124D01*
X1143783Y1080074D01*
X1143352Y1076800D01*
X1143783Y1073526D01*
X1145046Y1070476D01*
X1147057Y1067856D01*
X1149676Y1065846D01*
X1152233Y1064787D01*
Y1063413D01*
X1149676Y1062354D01*
X1147057Y1060344D01*
X1145046Y1057724D01*
X1143783Y1054674D01*
X1143526Y1052725D01*
X1142256Y1052809D01*
Y1066353D01*
X1142032Y1068061D01*
X1141373Y1069652D01*
X1140324Y1071018D01*
X1128096Y1083246D01*
Y1176175D01*
X1128746Y1176674D01*
X1130375Y1178796D01*
X1131398Y1181268D01*
X1131748Y1183920D01*
Y1204080D01*
X1131398Y1206732D01*
X1130375Y1209204D01*
X1128746Y1211326D01*
X1126624Y1212955D01*
X1124152Y1213979D01*
X1121500Y1214328D01*
X1118848Y1213979D01*
X1116376Y1212955D01*
X1114254Y1211326D01*
X1112625Y1209204D01*
X1111601Y1206732D01*
X1111252Y1204080D01*
Y1183920D01*
X1111601Y1181268D01*
X1112625Y1178796D01*
X1114254Y1176674D01*
X1114903Y1176175D01*
Y1087088D01*
X1113361Y1086885D01*
X1111770Y1086226D01*
X1110404Y1085178D01*
X1039703Y1014477D01*
X1038655Y1013111D01*
X1037996Y1011520D01*
X1037771Y1009813D01*
Y969600D01*
X995750Y927579D01*
X951217Y972112D01*
Y1007950D01*
X950992Y1009658D01*
X950333Y1011248D01*
X949285Y1012615D01*
X946949Y1014951D01*
X946996Y1015674D01*
X948625Y1017796D01*
X949649Y1020268D01*
X949998Y1022920D01*
Y1043080D01*
X949649Y1045732D01*
X948625Y1048204D01*
X946996Y1050326D01*
X944874Y1051955D01*
X942402Y1052979D01*
X939750Y1053328D01*
X937098Y1052979D01*
X934626Y1051955D01*
X933442Y1051047D01*
X932172Y1051673D01*
Y1102202D01*
X933375Y1102610D01*
X934107Y1101656D01*
X936454Y1099855D01*
Y1092200D01*
X936678Y1090493D01*
X937337Y1088902D01*
X938386Y1087536D01*
X959976Y1065946D01*
X961342Y1064897D01*
X962933Y1064238D01*
X964640Y1064014D01*
X1027430D01*
X1029137Y1064238D01*
X1030728Y1064897D01*
X1032094Y1065946D01*
X1033143Y1067312D01*
X1033802Y1068903D01*
X1034026Y1070610D01*
Y1074648D01*
X1037782Y1078404D01*
X1040425D01*
X1040924Y1077754D01*
X1043046Y1076125D01*
X1045518Y1075101D01*
X1048170Y1074752D01*
X1068330D01*
X1070982Y1075101D01*
X1073454Y1076125D01*
X1075576Y1077754D01*
X1077205Y1079876D01*
X1078229Y1082348D01*
X1078578Y1085000D01*
X1078229Y1087652D01*
X1077205Y1090124D01*
X1075576Y1092246D01*
X1073454Y1093875D01*
X1070982Y1094899D01*
X1068330Y1095248D01*
X1048170D01*
X1045518Y1094899D01*
X1043046Y1093875D01*
X1040924Y1092246D01*
X1040425Y1091597D01*
X1035050D01*
X1033343Y1091372D01*
X1031752Y1090713D01*
X1030386Y1089665D01*
X1024413Y1083692D01*
X1023240Y1084178D01*
Y1095160D01*
X1023240Y1095160D01*
X1023240D01*
X1023627Y1096299D01*
X1023915Y1096586D01*
X1024963Y1097952D01*
X1025622Y1099543D01*
X1025642Y1099699D01*
X1028194Y1101656D01*
X1030204Y1104276D01*
X1031467Y1107327D01*
X1031898Y1110600D01*
Y1115600D01*
X1031467Y1118874D01*
X1030204Y1121924D01*
X1028194Y1124544D01*
X1025574Y1126554D01*
X1022524Y1127817D01*
X1019250Y1128248D01*
X1015977Y1127817D01*
X1012926Y1126554D01*
X1010306Y1124544D01*
X1008297Y1121924D01*
X1007237Y1119368D01*
X1005863D01*
X1004804Y1121924D01*
X1003660Y1123415D01*
X1007664Y1127419D01*
X1008712Y1128785D01*
X1009371Y1130376D01*
X1009553Y1131752D01*
X1013080D01*
X1015732Y1132102D01*
X1018204Y1133125D01*
X1020326Y1134754D01*
X1021955Y1136876D01*
X1022979Y1139348D01*
X1023309Y1141855D01*
X1024116Y1142389D01*
X1024421Y1142539D01*
X1029624Y1137336D01*
X1030990Y1136288D01*
X1032581Y1135629D01*
X1034288Y1135404D01*
X1038010D01*
Y1131840D01*
X1078490D01*
Y1152160D01*
X1038010D01*
Y1149273D01*
X1036740Y1148877D01*
X1021189Y1164428D01*
X1019822Y1165477D01*
X1018232Y1166136D01*
X1016524Y1166360D01*
X985214D01*
X983507Y1166136D01*
X981916Y1165477D01*
X980550Y1164428D01*
X963786Y1147664D01*
X962738Y1146298D01*
X962078Y1144707D01*
X961854Y1143000D01*
Y1126345D01*
X959507Y1124544D01*
X957496Y1121924D01*
X956438Y1119368D01*
X955063D01*
X954004Y1121924D01*
X951994Y1124544D01*
X949374Y1126554D01*
X946324Y1127817D01*
X943050Y1128248D01*
X939777Y1127817D01*
X936726Y1126554D01*
X934107Y1124544D01*
X933375Y1123590D01*
X932172Y1123999D01*
Y1130870D01*
X969815Y1168512D01*
X970863Y1169878D01*
X971522Y1171469D01*
X971747Y1173176D01*
Y1177735D01*
X972396Y1178234D01*
X974025Y1180356D01*
X975049Y1182828D01*
X975398Y1185480D01*
Y1205640D01*
X975049Y1208292D01*
X974025Y1210764D01*
X972396Y1212886D01*
X970274Y1214515D01*
X967802Y1215538D01*
X965150Y1215888D01*
X962498Y1215538D01*
X960026Y1214515D01*
X957904Y1212886D01*
X956275Y1210764D01*
X955251Y1208292D01*
X954902Y1205640D01*
Y1185480D01*
X955251Y1182828D01*
X956275Y1180356D01*
X957904Y1178234D01*
X958554Y1177735D01*
Y1175909D01*
X920912Y1138266D01*
X919863Y1136900D01*
X919204Y1135309D01*
X919091Y1134446D01*
X918663Y1134250D01*
X917772Y1134161D01*
X915944Y1136544D01*
X913324Y1138554D01*
X910768Y1139613D01*
Y1140987D01*
X913324Y1142046D01*
X915944Y1144056D01*
X917954Y1146676D01*
X919217Y1149726D01*
X919648Y1153000D01*
X919217Y1156274D01*
X917954Y1159324D01*
X915944Y1161944D01*
X913324Y1163954D01*
X910768Y1165013D01*
Y1166387D01*
X913324Y1167446D01*
X915944Y1169456D01*
X917954Y1172076D01*
X919217Y1175126D01*
X919648Y1178400D01*
X919217Y1181674D01*
X917954Y1184724D01*
X915944Y1187344D01*
X913324Y1189354D01*
X910768Y1190413D01*
Y1191787D01*
X913324Y1192846D01*
X915944Y1194856D01*
X917954Y1197476D01*
X919217Y1200526D01*
X919648Y1203800D01*
X919217Y1207074D01*
X917954Y1210124D01*
X915944Y1212744D01*
X913324Y1214754D01*
X910768Y1215813D01*
Y1217187D01*
X913324Y1218246D01*
X915944Y1220256D01*
X917954Y1222876D01*
X919217Y1225926D01*
X919648Y1229200D01*
X919217Y1232474D01*
X917954Y1235524D01*
X915944Y1238144D01*
X913324Y1240154D01*
X910768Y1241213D01*
Y1242587D01*
X913324Y1243646D01*
X915944Y1245656D01*
X917954Y1248276D01*
X919217Y1251326D01*
X919648Y1254600D01*
X919217Y1257874D01*
X917954Y1260924D01*
X915944Y1263544D01*
X913324Y1265554D01*
X910768Y1266613D01*
Y1267987D01*
X913324Y1269046D01*
X915944Y1271056D01*
X917954Y1273676D01*
X919217Y1276726D01*
X919648Y1280000D01*
X919217Y1283274D01*
X917954Y1286324D01*
X915944Y1288944D01*
X913324Y1290954D01*
X910768Y1292013D01*
Y1293387D01*
X913324Y1294446D01*
X915944Y1296456D01*
X917954Y1299076D01*
X919217Y1302126D01*
X919648Y1305400D01*
X919217Y1308674D01*
X917954Y1311724D01*
X915944Y1314344D01*
X913324Y1316354D01*
X910768Y1317413D01*
Y1318787D01*
X913324Y1319846D01*
X915944Y1321856D01*
X917954Y1324476D01*
X919217Y1327526D01*
X919648Y1330800D01*
X919217Y1334074D01*
X917954Y1337124D01*
X915944Y1339744D01*
X913324Y1341754D01*
X910274Y1343017D01*
X907000Y1343448D01*
X902000D01*
X898727Y1343017D01*
X895676Y1341754D01*
X893056Y1339744D01*
X891046Y1337124D01*
X889783Y1334074D01*
X889352Y1330800D01*
X889783Y1327526D01*
X891046Y1324476D01*
X893056Y1321856D01*
X895676Y1319846D01*
X898233Y1318787D01*
Y1317413D01*
X895676Y1316354D01*
X893056Y1314344D01*
X891046Y1311724D01*
X889783Y1308674D01*
X889352Y1305400D01*
X889783Y1302126D01*
X891046Y1299076D01*
X893056Y1296456D01*
X895676Y1294446D01*
X898233Y1293387D01*
Y1292013D01*
X895676Y1290954D01*
X893056Y1288944D01*
X891046Y1286324D01*
X889783Y1283274D01*
X889352Y1280000D01*
X889783Y1276726D01*
X891046Y1273676D01*
X893056Y1271056D01*
X895676Y1269046D01*
X898233Y1267987D01*
Y1266613D01*
X895676Y1265554D01*
X893056Y1263544D01*
X891046Y1260924D01*
X889783Y1257874D01*
X889352Y1254600D01*
X889783Y1251326D01*
X891046Y1248276D01*
X893056Y1245656D01*
X895676Y1243646D01*
X898233Y1242587D01*
Y1241213D01*
X895676Y1240154D01*
X893056Y1238144D01*
X891046Y1235524D01*
X889783Y1232474D01*
X889352Y1229200D01*
X889783Y1225926D01*
X891046Y1222876D01*
X893056Y1220256D01*
X895676Y1218246D01*
X898233Y1217187D01*
Y1215813D01*
X895676Y1214754D01*
X893056Y1212744D01*
X891046Y1210124D01*
X889783Y1207074D01*
X889352Y1203800D01*
X889783Y1200526D01*
X891046Y1197476D01*
X893056Y1194856D01*
X895676Y1192846D01*
X898233Y1191787D01*
Y1190413D01*
X895676Y1189354D01*
X893056Y1187344D01*
X891046Y1184724D01*
X889783Y1181674D01*
X889352Y1178400D01*
X889783Y1175126D01*
X891046Y1172076D01*
X893056Y1169456D01*
X895676Y1167446D01*
X898233Y1166387D01*
Y1165013D01*
X895676Y1163954D01*
X893056Y1161944D01*
X891046Y1159324D01*
X889783Y1156274D01*
X889352Y1153000D01*
X889783Y1149726D01*
X891046Y1146676D01*
X893056Y1144056D01*
X895676Y1142046D01*
X898233Y1140987D01*
Y1139613D01*
X895676Y1138554D01*
X893056Y1136544D01*
X891046Y1133924D01*
X889783Y1130874D01*
X889352Y1127600D01*
X889783Y1124326D01*
X891046Y1121276D01*
X893056Y1118656D01*
X895676Y1116646D01*
X898233Y1115587D01*
Y1114213D01*
X895676Y1113154D01*
X893056Y1111144D01*
X891046Y1108524D01*
X889783Y1105474D01*
X889352Y1102200D01*
X889783Y1098926D01*
X891046Y1095876D01*
X893056Y1093256D01*
X895676Y1091246D01*
X898233Y1090187D01*
Y1088813D01*
X895676Y1087754D01*
X893056Y1085744D01*
X891046Y1083124D01*
X889783Y1080074D01*
X889352Y1076800D01*
X889783Y1073526D01*
X891046Y1070476D01*
X893056Y1067856D01*
X895676Y1065846D01*
X898233Y1064787D01*
Y1063413D01*
X895676Y1062354D01*
X893056Y1060344D01*
X891046Y1057724D01*
X889783Y1054674D01*
X889352Y1051400D01*
X889783Y1048126D01*
X891046Y1045076D01*
X893056Y1042456D01*
X895676Y1040446D01*
X898233Y1039387D01*
Y1038013D01*
X895676Y1036954D01*
X893056Y1034944D01*
X891046Y1032324D01*
X889783Y1029274D01*
X889352Y1026000D01*
X889783Y1022726D01*
X891046Y1019676D01*
X893056Y1017056D01*
X895676Y1015046D01*
X898233Y1013987D01*
Y1012613D01*
X895676Y1011554D01*
X893056Y1009544D01*
X891046Y1006924D01*
X889783Y1003874D01*
X889681Y1003100D01*
X919319D01*
X919217Y1003874D01*
X917954Y1006924D01*
X915944Y1009544D01*
X913324Y1011554D01*
X910768Y1012613D01*
Y1013987D01*
X913324Y1015046D01*
X915944Y1017056D01*
X917710Y1019358D01*
X918980Y1018971D01*
Y1011445D01*
X919204Y1009737D01*
X919863Y1008147D01*
X920912Y1006780D01*
X927484Y1000208D01*
Y955934D01*
X927709Y954226D01*
X928368Y952635D01*
X929416Y951269D01*
X991016Y889670D01*
X992382Y888621D01*
X993973Y887962D01*
X995680Y887738D01*
X1062934D01*
X1093590Y857081D01*
Y846090D01*
X1113910D01*
Y866410D01*
X1102919D01*
X1096953Y872376D01*
X1097733Y873392D01*
X1099828Y872182D01*
X1102412Y871490D01*
X1105088D01*
X1107672Y872182D01*
X1109988Y873520D01*
X1111880Y875412D01*
X1113218Y877728D01*
X1113910Y880312D01*
Y882988D01*
X1113218Y885572D01*
X1111880Y887888D01*
X1109988Y889780D01*
X1107672Y891118D01*
X1105088Y891810D01*
X1102412D01*
X1099828Y891118D01*
X1097512Y889780D01*
X1095620Y887888D01*
X1094282Y885572D01*
X1093590Y882988D01*
Y880312D01*
X1094282Y877728D01*
X1095492Y875633D01*
X1094476Y874853D01*
X1070331Y898998D01*
X1068964Y900047D01*
X1067373Y900706D01*
X1065666Y900930D01*
X998412D01*
X991556Y907787D01*
X992042Y908960D01*
X1005040D01*
Y918211D01*
X1049032Y962203D01*
X1050080Y963569D01*
X1050739Y965160D01*
X1050964Y966867D01*
Y1007081D01*
X1084582Y1040699D01*
X1085852Y1040173D01*
Y1021360D01*
X1086201Y1018708D01*
X1087225Y1016236D01*
X1088854Y1014114D01*
X1088906Y1013309D01*
X1083726Y1008129D01*
X1082677Y1006762D01*
X1082018Y1005171D01*
X1081794Y1003464D01*
Y973210D01*
X1082018Y971503D01*
X1082677Y969912D01*
X1083726Y968546D01*
X1093590Y958681D01*
Y956512D01*
X1094282Y953928D01*
X1095620Y951612D01*
X1097512Y949720D01*
X1099828Y948382D01*
X1102412Y947690D01*
X1105088D01*
X1107672Y948382D01*
X1109988Y949720D01*
X1111880Y951612D01*
X1113218Y953928D01*
X1113910Y956512D01*
Y959188D01*
X1113218Y961772D01*
X1111880Y964088D01*
X1109988Y965980D01*
X1107672Y967318D01*
X1105088Y968010D01*
X1102919D01*
X1096953Y973976D01*
X1097733Y974992D01*
X1099828Y973782D01*
X1102412Y973090D01*
X1105088D01*
X1107672Y973782D01*
X1109988Y975120D01*
X1111880Y977012D01*
X1113218Y979328D01*
X1113910Y981912D01*
Y984588D01*
X1113218Y987172D01*
X1111880Y989488D01*
X1111566Y989803D01*
Y1002097D01*
X1120688Y1011219D01*
X1121500Y1011112D01*
X1124152Y1011461D01*
X1126624Y1012485D01*
X1127794Y1013383D01*
X1129063Y1012756D01*
Y966291D01*
X1129288Y964584D01*
X1129947Y962993D01*
X1130996Y961627D01*
X1161823Y930799D01*
X1163190Y929751D01*
X1164781Y929092D01*
X1166488Y928867D01*
X1174204D01*
X1195190Y907881D01*
Y905712D01*
X1195882Y903128D01*
X1197220Y900812D01*
X1199111Y898920D01*
X1201428Y897582D01*
X1204012Y896890D01*
X1206687D01*
X1209271Y897582D01*
X1211588Y898920D01*
X1213480Y900812D01*
X1214818Y903128D01*
X1215510Y905712D01*
Y908388D01*
X1214818Y910972D01*
X1213480Y913288D01*
X1211588Y915180D01*
X1209271Y916518D01*
X1206687Y917210D01*
X1204519D01*
X1198553Y923176D01*
X1199333Y924192D01*
X1201428Y922982D01*
X1202850Y922601D01*
Y929950D01*
X1195501D01*
X1195882Y928528D01*
X1197092Y926433D01*
X1196076Y925653D01*
X1181601Y940128D01*
X1180235Y941176D01*
X1178644Y941835D01*
X1176937Y942060D01*
X1169220D01*
X1149793Y961487D01*
X1150279Y962660D01*
X1173540D01*
Y987740D01*
X1166041D01*
X1165788Y989010D01*
X1167324Y989646D01*
X1169944Y991656D01*
X1171954Y994276D01*
X1173217Y997326D01*
X1173319Y998100D01*
X1158500D01*
Y1003100D01*
X1173319D01*
X1173217Y1003874D01*
X1171954Y1006924D01*
X1169944Y1009544D01*
X1167324Y1011554D01*
X1164768Y1012613D01*
Y1013987D01*
X1167324Y1015046D01*
X1169944Y1017056D01*
X1171954Y1019676D01*
X1173217Y1022726D01*
X1173648Y1026000D01*
X1173217Y1029274D01*
X1171954Y1032324D01*
X1169944Y1034944D01*
X1167324Y1036954D01*
X1164768Y1038013D01*
Y1039387D01*
X1167324Y1040446D01*
X1169944Y1042456D01*
X1171954Y1045076D01*
X1173217Y1048126D01*
X1173648Y1051400D01*
X1173217Y1054674D01*
X1172682Y1055965D01*
X1173759Y1056684D01*
X1196460Y1033983D01*
Y1033252D01*
X1197066Y1030991D01*
X1198236Y1028963D01*
X1199891Y1027308D01*
X1201918Y1026138D01*
X1204180Y1025532D01*
X1206520D01*
X1208781Y1026138D01*
X1210808Y1027308D01*
X1212464Y1028963D01*
X1213634Y1030991D01*
X1214240Y1033252D01*
Y1035592D01*
X1213634Y1037853D01*
X1212464Y1039881D01*
X1210808Y1041536D01*
X1208781Y1042706D01*
X1206520Y1043312D01*
X1205789D01*
X1184140Y1064960D01*
Y1125822D01*
X1183916Y1127529D01*
X1183257Y1129120D01*
X1182208Y1130486D01*
X1180430Y1132264D01*
X1179064Y1133313D01*
X1177473Y1133972D01*
X1175766Y1134196D01*
X1171745D01*
X1169944Y1136544D01*
X1167324Y1138554D01*
X1164768Y1139613D01*
Y1140987D01*
X1167324Y1142046D01*
X1169944Y1144056D01*
X1171745Y1146404D01*
X1175226D01*
X1192030Y1129600D01*
Y1090556D01*
X1191512Y1090039D01*
X1190342Y1088011D01*
X1189736Y1085750D01*
Y1083410D01*
X1190342Y1081149D01*
X1191512Y1079121D01*
X1193167Y1077466D01*
X1195195Y1076296D01*
X1197456Y1075690D01*
X1199796D01*
X1202057Y1076296D01*
X1204085Y1077466D01*
X1205740Y1079121D01*
X1206910Y1081149D01*
X1207516Y1083410D01*
Y1085750D01*
X1206910Y1088011D01*
X1205740Y1090039D01*
X1205222Y1090556D01*
Y1132332D01*
X1204998Y1134039D01*
X1204339Y1135630D01*
X1203290Y1136996D01*
X1182622Y1157664D01*
X1181256Y1158713D01*
X1179665Y1159372D01*
X1177958Y1159596D01*
X1171745D01*
X1169944Y1161944D01*
X1167324Y1163954D01*
X1164768Y1165013D01*
Y1166387D01*
X1167324Y1167446D01*
X1169944Y1169456D01*
X1171954Y1172076D01*
X1173217Y1175126D01*
X1173648Y1178400D01*
X1173217Y1181674D01*
X1171954Y1184724D01*
X1169944Y1187344D01*
X1167324Y1189354D01*
X1164768Y1190413D01*
Y1191787D01*
X1167324Y1192846D01*
X1169944Y1194856D01*
X1171954Y1197476D01*
X1173217Y1200526D01*
X1173648Y1203800D01*
X1173217Y1207074D01*
X1171954Y1210124D01*
X1169944Y1212744D01*
X1167324Y1214754D01*
X1164768Y1215813D01*
Y1217187D01*
X1167324Y1218246D01*
X1169944Y1220256D01*
X1171954Y1222876D01*
X1173217Y1225926D01*
X1173648Y1229200D01*
X1173217Y1232474D01*
X1171954Y1235524D01*
X1169944Y1238144D01*
X1167324Y1240154D01*
X1164768Y1241213D01*
Y1242587D01*
X1167324Y1243646D01*
X1169944Y1245656D01*
X1171954Y1248276D01*
X1173217Y1251326D01*
X1173648Y1254600D01*
X1173217Y1257874D01*
X1171954Y1260924D01*
X1169944Y1263544D01*
X1167324Y1265554D01*
X1164768Y1266613D01*
Y1267987D01*
X1167324Y1269046D01*
X1169944Y1271056D01*
X1171954Y1273676D01*
X1173217Y1276726D01*
X1173648Y1280000D01*
X1173217Y1283274D01*
X1171954Y1286324D01*
X1169944Y1288944D01*
X1167324Y1290954D01*
X1164768Y1292013D01*
Y1293387D01*
X1167324Y1294446D01*
X1169944Y1296456D01*
X1171745Y1298804D01*
X1177918D01*
X1195960Y1280761D01*
Y1278728D01*
X1196644Y1276174D01*
X1197966Y1273885D01*
X1199835Y1272016D01*
X1202125Y1270694D01*
X1204678Y1270010D01*
X1207322D01*
X1209875Y1270694D01*
X1212165Y1272016D01*
X1214034Y1273885D01*
X1215356Y1276174D01*
X1216040Y1278728D01*
Y1281372D01*
X1215356Y1283925D01*
X1214034Y1286214D01*
X1212165Y1288084D01*
X1209875Y1289406D01*
X1207322Y1290090D01*
X1205289D01*
X1185314Y1310064D01*
X1183948Y1311113D01*
X1182357Y1311772D01*
X1180650Y1311996D01*
X1171745D01*
X1169944Y1314344D01*
X1167324Y1316354D01*
X1164768Y1317413D01*
Y1318787D01*
X1167324Y1319846D01*
X1169944Y1321856D01*
X1171954Y1324476D01*
X1173217Y1327526D01*
X1173648Y1330800D01*
X1173217Y1334074D01*
X1171954Y1337124D01*
X1169944Y1339744D01*
X1167324Y1341754D01*
X1164274Y1343017D01*
X1161000Y1343448D01*
D02*
G37*
G36*
X840500Y1075640D02*
X837001D01*
X833620Y1074734D01*
X830590Y1072985D01*
X828115Y1070510D01*
X826366Y1067480D01*
X825460Y1064100D01*
Y1060600D01*
X826366Y1057220D01*
X828115Y1054190D01*
X830590Y1051715D01*
X833620Y1049966D01*
X837001Y1049060D01*
X840500D01*
X843880Y1049966D01*
X846910Y1051715D01*
X849385Y1054190D01*
X851134Y1057220D01*
X852040Y1060600D01*
Y1064100D01*
X851134Y1067480D01*
X849385Y1070510D01*
X846910Y1072985D01*
X843880Y1074734D01*
X840500Y1075640D01*
D02*
G37*
G36*
X975310Y1053240D02*
X967650D01*
Y1035500D01*
X975310D01*
Y1053240D01*
D02*
G37*
G36*
X962650D02*
X954990D01*
Y1035500D01*
X962650D01*
Y1053240D01*
D02*
G37*
G36*
X975310Y1030500D02*
X967650D01*
Y1012760D01*
X975310D01*
Y1030500D01*
D02*
G37*
G36*
X962650D02*
X954990D01*
Y1012760D01*
X962650D01*
Y1030500D01*
D02*
G37*
G36*
X840500Y1036040D02*
X837001D01*
X833620Y1035134D01*
X830590Y1033384D01*
X828115Y1030910D01*
X826366Y1027880D01*
X825460Y1024499D01*
Y1021000D01*
X826366Y1017620D01*
X828115Y1014589D01*
X830590Y1012115D01*
X833620Y1010366D01*
X837001Y1009460D01*
X840500D01*
X843880Y1010366D01*
X846910Y1012115D01*
X849385Y1014589D01*
X851134Y1017620D01*
X852040Y1021000D01*
Y1024499D01*
X851134Y1027880D01*
X849385Y1030910D01*
X846910Y1033384D01*
X843880Y1035134D01*
X840500Y1036040D01*
D02*
G37*
G36*
X1206687Y993410D02*
X1204012D01*
X1201428Y992718D01*
X1199111Y991380D01*
X1197220Y989488D01*
X1195882Y987172D01*
X1195190Y984588D01*
Y981912D01*
X1195882Y979328D01*
X1197220Y977012D01*
X1199111Y975120D01*
X1201428Y973782D01*
X1204012Y973090D01*
X1206687D01*
X1209271Y973782D01*
X1211588Y975120D01*
X1213480Y977012D01*
X1214818Y979328D01*
X1215510Y981912D01*
Y984588D01*
X1214818Y987172D01*
X1213480Y989488D01*
X1211588Y991380D01*
X1209271Y992718D01*
X1206687Y993410D01*
D02*
G37*
G36*
X919319Y998100D02*
X889681D01*
X889783Y997326D01*
X891046Y994276D01*
X893056Y991656D01*
X895676Y989646D01*
X897212Y989010D01*
X896960Y987740D01*
X889460D01*
Y962660D01*
X919540D01*
Y987740D01*
X912041D01*
X911788Y989010D01*
X913324Y989646D01*
X915944Y991656D01*
X917954Y994276D01*
X919217Y997326D01*
X919319Y998100D01*
D02*
G37*
G36*
X1206687Y968010D02*
X1204012D01*
X1201428Y967318D01*
X1199111Y965980D01*
X1197220Y964088D01*
X1195882Y961772D01*
X1195190Y959188D01*
Y956512D01*
X1195882Y953928D01*
X1197220Y951612D01*
X1199111Y949720D01*
X1201428Y948382D01*
X1204012Y947690D01*
X1206687D01*
X1209271Y948382D01*
X1211588Y949720D01*
X1213480Y951612D01*
X1214818Y953928D01*
X1215510Y956512D01*
Y959188D01*
X1214818Y961772D01*
X1213480Y964088D01*
X1211588Y965980D01*
X1209271Y967318D01*
X1206687Y968010D01*
D02*
G37*
G36*
X1207850Y942299D02*
Y934950D01*
X1215199D01*
X1214818Y936372D01*
X1213480Y938688D01*
X1211588Y940580D01*
X1209271Y941918D01*
X1207850Y942299D01*
D02*
G37*
G36*
X1202850D02*
X1201428Y941918D01*
X1199111Y940580D01*
X1197220Y938688D01*
X1195882Y936372D01*
X1195501Y934950D01*
X1202850D01*
Y942299D01*
D02*
G37*
G36*
X1106250D02*
Y934950D01*
X1113598D01*
X1113218Y936372D01*
X1111880Y938688D01*
X1109988Y940580D01*
X1107672Y941918D01*
X1106250Y942299D01*
D02*
G37*
G36*
X1101250D02*
X1099828Y941918D01*
X1097512Y940580D01*
X1095620Y938688D01*
X1094282Y936372D01*
X1093901Y934950D01*
X1101250D01*
Y942299D01*
D02*
G37*
G36*
X1215199Y929950D02*
X1207850D01*
Y922601D01*
X1209271Y922982D01*
X1211588Y924320D01*
X1213480Y926212D01*
X1214818Y928528D01*
X1215199Y929950D01*
D02*
G37*
G36*
X1113598D02*
X1106250D01*
Y922601D01*
X1107672Y922982D01*
X1109988Y924320D01*
X1111880Y926212D01*
X1113218Y928528D01*
X1113598Y929950D01*
D02*
G37*
G36*
X1101250D02*
X1093901D01*
X1094282Y928528D01*
X1095620Y926212D01*
X1097512Y924320D01*
X1099828Y922982D01*
X1101250Y922601D01*
Y929950D01*
D02*
G37*
G36*
X1048250Y927198D02*
Y920750D01*
X1054698D01*
X1054407Y921836D01*
X1053184Y923954D01*
X1051454Y925684D01*
X1049336Y926907D01*
X1048250Y927198D01*
D02*
G37*
G36*
X1043250D02*
X1042164Y926907D01*
X1040046Y925684D01*
X1038316Y923954D01*
X1037093Y921836D01*
X1036802Y920750D01*
X1043250D01*
Y927198D01*
D02*
G37*
G36*
X1054698Y915750D02*
X1048250D01*
Y909302D01*
X1049336Y909593D01*
X1051454Y910816D01*
X1053184Y912546D01*
X1054407Y914664D01*
X1054698Y915750D01*
D02*
G37*
G36*
X1043250D02*
X1036802D01*
X1037093Y914664D01*
X1038316Y912546D01*
X1040046Y910816D01*
X1042164Y909593D01*
X1043250Y909302D01*
Y915750D01*
D02*
G37*
G36*
X1105088Y917210D02*
X1102412D01*
X1099828Y916518D01*
X1097512Y915180D01*
X1095620Y913288D01*
X1094282Y910972D01*
X1093590Y908388D01*
Y905712D01*
X1094282Y903128D01*
X1095620Y900812D01*
X1097512Y898920D01*
X1099828Y897582D01*
X1102412Y896890D01*
X1105088D01*
X1107672Y897582D01*
X1109988Y898920D01*
X1111880Y900812D01*
X1113218Y903128D01*
X1113910Y905712D01*
Y908388D01*
X1113218Y910972D01*
X1111880Y913288D01*
X1109988Y915180D01*
X1107672Y916518D01*
X1105088Y917210D01*
D02*
G37*
G36*
X1048250Y877948D02*
Y871500D01*
X1054698D01*
X1054407Y872586D01*
X1053184Y874704D01*
X1051454Y876434D01*
X1049336Y877657D01*
X1048250Y877948D01*
D02*
G37*
G36*
X1043250D02*
X1042164Y877657D01*
X1040046Y876434D01*
X1038316Y874704D01*
X1037093Y872586D01*
X1036802Y871500D01*
X1043250D01*
Y877948D01*
D02*
G37*
G36*
X1206687Y891810D02*
X1204012D01*
X1201428Y891118D01*
X1199111Y889780D01*
X1197220Y887888D01*
X1195882Y885572D01*
X1195190Y882988D01*
Y880312D01*
X1195882Y877728D01*
X1197220Y875412D01*
X1199111Y873520D01*
X1201428Y872182D01*
X1204012Y871490D01*
X1206687D01*
X1209271Y872182D01*
X1211588Y873520D01*
X1213480Y875412D01*
X1214818Y877728D01*
X1215510Y880312D01*
Y882988D01*
X1214818Y885572D01*
X1213480Y887888D01*
X1211588Y889780D01*
X1209271Y891118D01*
X1206687Y891810D01*
D02*
G37*
G36*
X1054698Y866500D02*
X1048250D01*
Y860052D01*
X1049336Y860343D01*
X1051454Y861566D01*
X1053184Y863296D01*
X1054407Y865414D01*
X1054698Y866500D01*
D02*
G37*
G36*
X1043250D02*
X1036802D01*
X1037093Y865414D01*
X1038316Y863296D01*
X1040046Y861566D01*
X1042164Y860343D01*
X1043250Y860052D01*
Y866500D01*
D02*
G37*
G36*
X852040Y996440D02*
X825460D01*
Y969860D01*
X832154D01*
Y955750D01*
X832378Y954043D01*
X833037Y952452D01*
X834086Y951085D01*
X920836Y864336D01*
X922202Y863287D01*
X923793Y862628D01*
X925500Y862404D01*
X986460D01*
Y859710D01*
X1005040D01*
Y878290D01*
X986460D01*
Y875596D01*
X928232D01*
X845347Y958482D01*
Y969860D01*
X852040D01*
Y996440D01*
D02*
G37*
G36*
X1206687Y866410D02*
X1204012D01*
X1201428Y865718D01*
X1199111Y864380D01*
X1197220Y862488D01*
X1195882Y860172D01*
X1195190Y857588D01*
Y854912D01*
X1195882Y852328D01*
X1197220Y850012D01*
X1199111Y848120D01*
X1201428Y846782D01*
X1204012Y846090D01*
X1206687D01*
X1209271Y846782D01*
X1211588Y848120D01*
X1213480Y850012D01*
X1214818Y852328D01*
X1215510Y854912D01*
Y857588D01*
X1214818Y860172D01*
X1213480Y862488D01*
X1211588Y864380D01*
X1209271Y865718D01*
X1206687Y866410D01*
D02*
G37*
%LPD*%
G36*
X985188Y1148613D02*
X984045Y1147124D01*
X983021Y1144652D01*
X982672Y1142000D01*
X983021Y1139348D01*
X984045Y1136876D01*
X985674Y1134754D01*
X987796Y1133125D01*
X990268Y1132102D01*
X991704Y1131912D01*
X992159Y1130572D01*
X989186Y1127598D01*
X988784Y1127075D01*
X987526Y1126554D01*
X984906Y1124544D01*
X982896Y1121924D01*
X981837Y1119368D01*
X980463D01*
X979404Y1121924D01*
X977394Y1124544D01*
X975047Y1126345D01*
Y1140268D01*
X984231Y1149452D01*
X985188Y1148613D01*
D02*
G37*
G36*
X1008297Y1104276D02*
X1010306Y1101656D01*
X1010308Y1101637D01*
X1003831Y1095160D01*
X982760D01*
Y1077206D01*
X967373D01*
X949647Y1094932D01*
Y1099855D01*
X951994Y1101656D01*
X954004Y1104276D01*
X955063Y1106833D01*
X956438D01*
X957496Y1104276D01*
X959507Y1101656D01*
X962126Y1099647D01*
X965177Y1098383D01*
X968450Y1097952D01*
X971724Y1098383D01*
X974774Y1099647D01*
X977394Y1101656D01*
X979404Y1104276D01*
X980463Y1106833D01*
X981837D01*
X982896Y1104276D01*
X984906Y1101656D01*
X987526Y1099647D01*
X990577Y1098383D01*
X993850Y1097952D01*
X997124Y1098383D01*
X1000174Y1099647D01*
X1002794Y1101656D01*
X1004804Y1104276D01*
X1005863Y1106833D01*
X1007237D01*
X1008297Y1104276D01*
D02*
G37*
G36*
X1129063Y1063621D02*
Y1050124D01*
X1127794Y1049497D01*
X1126624Y1050395D01*
X1124152Y1051419D01*
X1121500Y1051768D01*
X1118848Y1051419D01*
X1116376Y1050395D01*
X1114254Y1048766D01*
X1112625Y1046644D01*
X1111601Y1044172D01*
X1111252Y1041520D01*
Y1021360D01*
X1111359Y1020548D01*
X1105020Y1014209D01*
X1104063Y1015048D01*
X1104975Y1016236D01*
X1105999Y1018708D01*
X1106348Y1021360D01*
Y1041520D01*
X1105999Y1044172D01*
X1104975Y1046644D01*
X1103346Y1048766D01*
X1101224Y1050395D01*
X1098752Y1051419D01*
X1097290Y1051611D01*
X1096835Y1052952D01*
X1117800Y1073917D01*
X1118768D01*
X1129063Y1063621D01*
D02*
G37*
G36*
X986460Y918211D02*
Y914542D01*
X985287Y914056D01*
X940677Y958666D01*
Y962335D01*
X941850Y962821D01*
X986460Y918211D01*
D02*
G37*
D38*
X925500Y869000D02*
X995750D01*
X838750Y955750D02*
X925500Y869000D01*
X838750Y955750D02*
Y983150D01*
X1115068Y1080514D02*
X1121500D01*
X1044367Y966867D02*
Y1009813D01*
X1115068Y1080514D01*
X995750Y918250D02*
X1044367Y966867D01*
X1121500Y1021360D02*
Y1031440D01*
X1104969Y1004829D02*
X1121500Y1021360D01*
Y1080514D02*
X1135660Y1066353D01*
Y966291D02*
X1166488Y935463D01*
X1135660Y966291D02*
Y1066353D01*
X1166488Y935463D02*
X1176937D01*
X1121500Y1080514D02*
Y1194000D01*
X1176937Y935463D02*
X1205350Y907050D01*
X1104969Y984470D02*
Y1004829D01*
X1103750Y983250D02*
X1104969Y984470D01*
X1074926Y1169588D02*
X1077912D01*
X1095500Y1152000D01*
X1058236Y1186278D02*
X1074926Y1169588D01*
X1025108Y1227836D02*
X1058236Y1194708D01*
Y1186278D02*
Y1194708D01*
X1096100Y1011174D02*
Y1031440D01*
X1088390Y1003464D02*
X1096100Y1011174D01*
X1088390Y973210D02*
Y1003464D01*
Y973210D02*
X1103750Y957850D01*
X1019250Y1101251D02*
Y1113100D01*
X1003000Y1085000D02*
X1019250Y1101251D01*
X1158500Y1305400D02*
X1180650D01*
X1206000Y1280050D01*
X968450Y1113100D02*
Y1143000D01*
X985214Y1159764D01*
X1016524D01*
X1034288Y1142000D01*
X1058250D01*
X1177544Y1062228D02*
X1205350Y1034422D01*
X1177544Y1062228D02*
Y1125822D01*
X1175766Y1127600D02*
X1177544Y1125822D01*
X1158500Y1127600D02*
X1175766D01*
X1158500Y1153000D02*
X1177958D01*
X1198626Y1132332D01*
Y1084580D02*
Y1132332D01*
X965150Y1173176D02*
Y1195560D01*
X925576Y1133602D02*
X965150Y1173176D01*
X925576Y1011445D02*
Y1133602D01*
Y1011445D02*
X934080Y1002940D01*
Y955934D02*
Y1002940D01*
Y955934D02*
X995680Y894334D01*
X1065666D01*
X1103750Y856250D01*
X944620Y969380D02*
X995750Y918250D01*
X944620Y969380D02*
Y1007950D01*
X939750Y1012820D02*
X944620Y1007950D01*
X939750Y1012820D02*
Y1033000D01*
X952500Y1227836D02*
X1025108D01*
X939750Y1215086D02*
X952500Y1227836D01*
X939750Y1195560D02*
Y1215086D01*
X1035050Y1085000D02*
X1058250D01*
X1027430Y1077380D02*
X1035050Y1085000D01*
X1027430Y1070610D02*
Y1077380D01*
X964640Y1070610D02*
X1027430D01*
X943050Y1092200D02*
X964640Y1070610D01*
X943050Y1092200D02*
Y1113100D01*
X1003000Y1132084D02*
Y1142000D01*
X993850Y1122934D02*
X1003000Y1132084D01*
X993850Y1113100D02*
Y1122934D01*
D39*
X1158500Y1330800D02*
D03*
Y1305400D02*
D03*
Y1280000D02*
D03*
Y1254600D02*
D03*
Y1229200D02*
D03*
Y1203800D02*
D03*
Y1178400D02*
D03*
Y1153000D02*
D03*
Y1127600D02*
D03*
Y1102200D02*
D03*
Y1076800D02*
D03*
Y1051400D02*
D03*
Y1026000D02*
D03*
Y1000600D02*
D03*
X904500Y1051400D02*
D03*
Y1330800D02*
D03*
Y1305400D02*
D03*
Y1280000D02*
D03*
Y1254600D02*
D03*
Y1229200D02*
D03*
Y1203800D02*
D03*
Y1178400D02*
D03*
Y1153000D02*
D03*
Y1127600D02*
D03*
Y1102200D02*
D03*
Y1076800D02*
D03*
Y1026000D02*
D03*
Y1000600D02*
D03*
D40*
X1158500Y975200D02*
D03*
X904500D02*
D03*
D41*
X838750Y1062350D02*
D03*
Y1022750D02*
D03*
X837250Y1149000D02*
D03*
D42*
X838750Y983150D02*
D03*
X837250Y1109400D02*
D03*
D43*
X1205350Y983250D02*
D03*
Y957850D02*
D03*
Y932450D02*
D03*
Y907050D02*
D03*
Y881650D02*
D03*
Y856250D02*
D03*
X1103750Y957850D02*
D03*
Y881650D02*
D03*
Y983250D02*
D03*
Y932450D02*
D03*
Y907050D02*
D03*
D44*
Y856250D02*
D03*
D45*
X943050Y1113100D02*
D03*
X968450D02*
D03*
X993850D02*
D03*
X1019250D02*
D03*
X943050Y1266500D02*
D03*
X968450D02*
D03*
X993850D02*
D03*
D46*
X1019250D02*
D03*
D47*
X995750Y918250D02*
D03*
Y869000D02*
D03*
D48*
X1045750Y918250D02*
D03*
Y869000D02*
D03*
X844250Y1213250D02*
D03*
D49*
X1206000Y1153050D02*
D03*
Y1178450D02*
D03*
Y1203850D02*
D03*
Y1229250D02*
D03*
Y1254650D02*
D03*
Y1280050D02*
D03*
Y1305450D02*
D03*
D50*
Y1330850D02*
D03*
D51*
X841750Y1368201D02*
D03*
D52*
Y1342800D02*
D03*
D53*
X844250Y1303250D02*
D03*
D54*
X1088000Y1273750D02*
D03*
X1095500Y1152000D02*
D03*
X1205350Y1034422D02*
D03*
X1198626Y1084580D02*
D03*
D55*
X1121500Y1031440D02*
D03*
X1096100D02*
D03*
X1121500Y1194000D02*
D03*
X939750Y1033000D02*
D03*
X965150Y1195560D02*
D03*
X939750D02*
D03*
D56*
X1096100Y1194000D02*
D03*
X965150Y1033000D02*
D03*
D57*
X1003000Y1085000D02*
D03*
X1058250Y1142000D02*
D03*
D58*
X1003000D02*
D03*
X1058250Y1085000D02*
D03*
M02*
