G04*
G04 #@! TF.GenerationSoftware,Altium Limited,Altium Designer,25.0.2 (28)*
G04*
G04 Layer_Color=8388736*
%FSLAX44Y44*%
%MOMM*%
G71*
G04*
G04 #@! TF.SameCoordinates,4711C13A-52D9-45D7-B3A0-D515BE669C82*
G04*
G04*
G04 #@! TF.FilePolarity,Negative*
G04*
G01*
G75*
%ADD18O,2.2032X3.7432*%
%ADD19R,2.2032X3.7432*%
%ADD20R,9.2032X10.5532*%
%ADD21R,3.7032X1.1532*%
%ADD22O,2.7032X2.2032*%
%ADD23R,2.7032X2.2032*%
%ADD24C,2.3532*%
%ADD25R,2.3532X2.3532*%
%ADD26C,1.7272*%
%ADD27R,1.7272X1.7272*%
%ADD28O,2.2032X2.7032*%
%ADD29R,2.2032X2.7032*%
%ADD30R,1.5532X1.5532*%
%ADD31C,1.5532*%
%ADD32C,1.7032*%
%ADD33R,1.7032X1.7032*%
%ADD34C,1.6032*%
%ADD35R,1.6032X1.6032*%
%ADD36R,1.5532X1.5532*%
%ADD37C,1.4732*%
D18*
X1090450Y1311300D02*
D03*
D19*
X1115850D02*
D03*
D20*
X856000Y894750D02*
D03*
D21*
X953500Y920150D02*
D03*
Y869350D02*
D03*
D22*
X1158500Y1330800D02*
D03*
Y1305400D02*
D03*
Y1280000D02*
D03*
Y1254600D02*
D03*
Y1229200D02*
D03*
Y1203800D02*
D03*
Y1178400D02*
D03*
Y1153000D02*
D03*
Y1127600D02*
D03*
Y1102200D02*
D03*
Y1076800D02*
D03*
Y1051400D02*
D03*
Y1026000D02*
D03*
Y1000600D02*
D03*
X904500Y1051400D02*
D03*
Y1330800D02*
D03*
Y1305400D02*
D03*
Y1280000D02*
D03*
Y1254600D02*
D03*
Y1229200D02*
D03*
Y1203800D02*
D03*
Y1178400D02*
D03*
Y1153000D02*
D03*
Y1127600D02*
D03*
Y1102200D02*
D03*
Y1076800D02*
D03*
Y1026000D02*
D03*
Y1000600D02*
D03*
D23*
X1158500Y975200D02*
D03*
X904500D02*
D03*
D24*
X838750Y1062350D02*
D03*
Y1022750D02*
D03*
X837250Y1149000D02*
D03*
D25*
X838750Y983150D02*
D03*
X837250Y1109400D02*
D03*
D26*
X1205350Y983250D02*
D03*
Y957850D02*
D03*
Y932450D02*
D03*
Y907050D02*
D03*
Y881650D02*
D03*
Y856250D02*
D03*
X1103750Y957850D02*
D03*
Y881650D02*
D03*
Y983250D02*
D03*
Y932450D02*
D03*
Y907050D02*
D03*
D27*
Y856250D02*
D03*
D28*
X943050Y1113100D02*
D03*
X968450D02*
D03*
X993850D02*
D03*
X1019250D02*
D03*
X943050Y1266500D02*
D03*
X968450D02*
D03*
X993850D02*
D03*
D29*
X1019250D02*
D03*
D30*
X995750Y918250D02*
D03*
Y869000D02*
D03*
D31*
X1045750Y918250D02*
D03*
Y869000D02*
D03*
X844250Y1213250D02*
D03*
D32*
X1206000Y1153050D02*
D03*
Y1178450D02*
D03*
Y1203850D02*
D03*
Y1229250D02*
D03*
Y1254650D02*
D03*
Y1280050D02*
D03*
Y1305450D02*
D03*
D33*
Y1330850D02*
D03*
D34*
X841750Y1368201D02*
D03*
D35*
Y1342800D02*
D03*
D36*
X844250Y1303250D02*
D03*
D37*
X1088000Y1273750D02*
D03*
X1095500Y1152000D02*
D03*
X1205350Y1034422D02*
D03*
X1198626Y1084580D02*
D03*
M02*
