G04*
G04 #@! TF.GenerationSoftware,Altium Limited,Altium Designer,25.0.2 (28)*
G04*
G04 Layer_Color=16711935*
%FSLAX44Y44*%
%MOMM*%
G71*
G04*
G04 #@! TF.SameCoordinates,4711C13A-52D9-45D7-B3A0-D515BE669C82*
G04*
G04*
G04 #@! TF.FilePolarity,Positive*
G04*
G01*
G75*
%ADD65C,0.1000*%
D65*
X857249Y1355501D02*
G03*
X857249Y1355501I-15500J0D01*
G01*
X860749D02*
G03*
X860749Y1355501I-19000J0D01*
G01*
X818753Y963650D02*
Y976647D01*
Y963650D02*
X884750D01*
X818753Y1068848D02*
Y1081850D01*
X884750D01*
X799753Y1068848D02*
X818753D01*
X799753Y976647D02*
X818753D01*
X799753D02*
Y1068848D01*
X884750Y963650D02*
Y1081850D01*
X800250Y1102400D02*
Y1156000D01*
X817250D02*
Y1168500D01*
Y1089900D02*
Y1102400D01*
X800250D02*
X817250D01*
X800250Y1156000D02*
X817250D01*
Y1089900D02*
X885250D01*
Y1168500D01*
X817250D02*
X885250D01*
X832250Y1226750D02*
X856250D01*
X832250D02*
Y1289750D01*
X856250Y1226750D02*
Y1289750D01*
X832250D02*
X856250D01*
X827500Y946750D02*
X921000D01*
X827500Y842750D02*
X921000D01*
X827500D02*
Y946750D01*
X921000Y842750D02*
Y946750D01*
M02*
