G04*
G04 #@! TF.GenerationSoftware,Altium Limited,Altium Designer,25.0.2 (28)*
G04*
G04 Layer_Color=128*
%FSLAX44Y44*%
%MOMM*%
G71*
G04*
G04 #@! TF.SameCoordinates,4711C13A-52D9-45D7-B3A0-D515BE669C82*
G04*
G04*
G04 #@! TF.FilePolarity,Positive*
G04*
G01*
G75*
%ADD67C,0.1270*%
D67*
X1152700Y1330800D02*
X1164300D01*
X1158500Y1325000D02*
Y1336600D01*
X1152700Y1305400D02*
X1164300D01*
X1158500Y1299600D02*
Y1311200D01*
X1152700Y1280000D02*
X1164300D01*
X1158500Y1274200D02*
Y1285800D01*
X1152700Y1254600D02*
X1164300D01*
X1158500Y1248800D02*
Y1260400D01*
X1152700Y1229200D02*
X1164300D01*
X1158500Y1223400D02*
Y1235000D01*
X1152700Y1203800D02*
X1164300D01*
X1158500Y1198000D02*
Y1209600D01*
X1152700Y1178400D02*
X1164300D01*
X1158500Y1172600D02*
Y1184200D01*
X1152700Y1153000D02*
X1164300D01*
X1158500Y1147200D02*
Y1158800D01*
X1152700Y1127600D02*
X1164300D01*
X1158500Y1121800D02*
Y1133400D01*
X1152700Y1102200D02*
X1164300D01*
X1158500Y1096400D02*
Y1108000D01*
X1152700Y1076800D02*
X1164300D01*
X1158500Y1071000D02*
Y1082600D01*
X1152700Y1051400D02*
X1164300D01*
X1158500Y1045600D02*
Y1057200D01*
X1152700Y1026000D02*
X1164300D01*
X1158500Y1020200D02*
Y1031800D01*
X1152700Y975200D02*
X1164300D01*
X1158500Y969400D02*
Y981000D01*
X1152700Y1000600D02*
X1164300D01*
X1158500Y994800D02*
Y1006400D01*
X898700Y1051400D02*
X910300D01*
X904500Y1045600D02*
Y1057200D01*
X898700Y1330800D02*
X910300D01*
X904500Y1325000D02*
Y1336600D01*
X898700Y1305400D02*
X910300D01*
X904500Y1299600D02*
Y1311200D01*
X898700Y1280000D02*
X910300D01*
X904500Y1274200D02*
Y1285800D01*
X898700Y1254600D02*
X910300D01*
X904500Y1248800D02*
Y1260400D01*
X898700Y1229200D02*
X910300D01*
X904500Y1223400D02*
Y1235000D01*
X898700Y1203800D02*
X910300D01*
X904500Y1198000D02*
Y1209600D01*
X898700Y1178400D02*
X910300D01*
X904500Y1172600D02*
Y1184200D01*
X898700Y1153000D02*
X910300D01*
X904500Y1147200D02*
Y1158800D01*
X898700Y1127600D02*
X910300D01*
X904500Y1121800D02*
Y1133400D01*
X898700Y1102200D02*
X910300D01*
X904500Y1096400D02*
Y1108000D01*
X898700Y1076800D02*
X910300D01*
X904500Y1071000D02*
Y1082600D01*
X898700Y1026000D02*
X910300D01*
X904500Y1020200D02*
Y1031800D01*
X898700Y1000600D02*
X910300D01*
X904500Y994800D02*
Y1006400D01*
X898700Y975200D02*
X910300D01*
X904500Y969400D02*
Y981000D01*
X830500Y1062350D02*
X847000D01*
X838750Y1054100D02*
Y1070600D01*
X830500Y1022750D02*
X847000D01*
X838750Y1014500D02*
Y1031000D01*
X830500Y983150D02*
X847000D01*
X838750Y974900D02*
Y991400D01*
X1201540Y983250D02*
X1209160D01*
X1205350Y979440D02*
Y987060D01*
X1201540Y957850D02*
X1209160D01*
X1205350Y954040D02*
Y961660D01*
X1201540Y932450D02*
X1209160D01*
X1205350Y928640D02*
Y936260D01*
X1201540Y907050D02*
X1209160D01*
X1205350Y903240D02*
Y910860D01*
X1201540Y881650D02*
X1209160D01*
X1205350Y877840D02*
Y885460D01*
X1201540Y856250D02*
X1209160D01*
X1205350Y852440D02*
Y860060D01*
X1099940Y957850D02*
X1107560D01*
X1103750Y954040D02*
Y961660D01*
X1099940Y881650D02*
X1107560D01*
X1103750Y877840D02*
Y885460D01*
X1099940Y983250D02*
X1107560D01*
X1103750Y979440D02*
Y987060D01*
X1099940Y932450D02*
X1107560D01*
X1103750Y928640D02*
Y936260D01*
X1099940Y907050D02*
X1107560D01*
X1103750Y903240D02*
Y910860D01*
X1099940Y856250D02*
X1107560D01*
X1103750Y852440D02*
Y860060D01*
X937250Y1113100D02*
X948850D01*
X943050Y1107300D02*
Y1118900D01*
X962650Y1113100D02*
X974250D01*
X968450Y1107300D02*
Y1118900D01*
X988050Y1113100D02*
X999650D01*
X993850Y1107300D02*
Y1118900D01*
X1013450Y1113100D02*
X1025050D01*
X1019250Y1107300D02*
Y1118900D01*
X937250Y1266500D02*
X948850D01*
X943050Y1260700D02*
Y1272300D01*
X962650Y1266500D02*
X974250D01*
X968450Y1260700D02*
Y1272300D01*
X988050Y1266500D02*
X999650D01*
X993850Y1260700D02*
Y1272300D01*
X1013450Y1266500D02*
X1025050D01*
X1019250Y1260700D02*
Y1272300D01*
X991750Y918250D02*
X999750D01*
X995750Y914250D02*
Y922250D01*
X1041750Y918250D02*
X1049750D01*
X1045750Y914250D02*
Y922250D01*
X991750Y869000D02*
X999750D01*
X995750Y865000D02*
Y873000D01*
X1041750Y869000D02*
X1049750D01*
X1045750Y865000D02*
Y873000D01*
X1201500Y1153050D02*
X1210500D01*
X1206000Y1148550D02*
Y1157550D01*
X1201500Y1178450D02*
X1210500D01*
X1206000Y1173950D02*
Y1182950D01*
X1201500Y1203850D02*
X1210500D01*
X1206000Y1199350D02*
Y1208350D01*
X1201500Y1229250D02*
X1210500D01*
X1206000Y1224750D02*
Y1233750D01*
X1201500Y1254650D02*
X1210500D01*
X1206000Y1250150D02*
Y1259150D01*
X1201500Y1280050D02*
X1210500D01*
X1206000Y1275550D02*
Y1284550D01*
X1201500Y1305450D02*
X1210500D01*
X1206000Y1300950D02*
Y1309950D01*
X1201500Y1330850D02*
X1210500D01*
X1206000Y1326350D02*
Y1335350D01*
X829000Y1149000D02*
X845500D01*
X837250Y1140750D02*
Y1157250D01*
X829000Y1109400D02*
X845500D01*
X837250Y1101150D02*
Y1117650D01*
X837250Y1368201D02*
X846250D01*
X841750Y1363701D02*
Y1372701D01*
X837250Y1342800D02*
X846250D01*
X841750Y1338300D02*
Y1347300D01*
X840000Y1213250D02*
X848500D01*
X844250Y1209000D02*
Y1217500D01*
X840000Y1303250D02*
X848500D01*
X844250Y1299000D02*
Y1307500D01*
X1084444Y1273750D02*
X1091556D01*
X1088000Y1270194D02*
Y1277306D01*
X1091944Y1152000D02*
X1099056D01*
X1095500Y1148444D02*
Y1155556D01*
X1201794Y1034422D02*
X1208906D01*
X1205350Y1030866D02*
Y1037978D01*
X1195070Y1084580D02*
X1202182D01*
X1198626Y1081024D02*
Y1088136D01*
M02*
