G04*
G04 #@! TF.GenerationSoftware,Altium Limited,Altium Designer,25.4.2 (15)*
G04*
G04 Layer_Color=16711935*
%FSLAX44Y44*%
%MOMM*%
G71*
G04*
G04 #@! TF.SameCoordinates,D2275D6D-F90B-4D7B-AA13-D2FC86024EBF*
G04*
G04*
G04 #@! TF.FilePolarity,Positive*
G04*
G01*
G75*
%ADD50C,0.1000*%
D50*
X567249Y800211D02*
G03*
X567249Y800211I-15500J0D01*
G01*
X570749D02*
G03*
X570749Y800211I-19000J0D01*
G01*
X528753Y408360D02*
Y421357D01*
Y408360D02*
X594750D01*
X528753Y513558D02*
Y526560D01*
X594750D01*
X509753Y513558D02*
X528753D01*
X509753Y421357D02*
X528753D01*
X509753D02*
Y513558D01*
X594750Y408360D02*
Y526560D01*
X510250Y547110D02*
Y600710D01*
X527250D02*
Y613210D01*
Y534610D02*
Y547110D01*
X510250D02*
X527250D01*
X510250Y600710D02*
X527250D01*
Y534610D02*
X595250D01*
Y613210D01*
X527250D02*
X595250D01*
X542250Y671460D02*
X566250D01*
X542250D02*
Y734460D01*
X566250Y671460D02*
Y734460D01*
X542250D02*
X566250D01*
X537500Y391460D02*
X631000D01*
X537500Y287460D02*
X631000D01*
X537500D02*
Y391460D01*
X631000Y287460D02*
Y391460D01*
X1026039Y800211D02*
G03*
X1026039Y800211I-15500J0D01*
G01*
X1029539D02*
G03*
X1029539Y800211I-19000J0D01*
G01*
X987543Y408360D02*
Y421357D01*
Y408360D02*
X1053540D01*
X987543Y513558D02*
Y526560D01*
X1053540D01*
X968543Y513558D02*
X987543D01*
X968543Y421357D02*
X987543D01*
X968543D02*
Y513558D01*
X1053540Y408360D02*
Y526560D01*
X969040Y547110D02*
Y600710D01*
X986040D02*
Y613210D01*
Y534610D02*
Y547110D01*
X969040D02*
X986040D01*
X969040Y600710D02*
X986040D01*
Y534610D02*
X1054040D01*
Y613210D01*
X986040D02*
X1054040D01*
X1001040Y671460D02*
X1025040D01*
X1001040D02*
Y734460D01*
X1025040Y671460D02*
Y734460D01*
X1001040D02*
X1025040D01*
X996290Y391460D02*
X1089790D01*
X996290Y287460D02*
X1089790D01*
X996290D02*
Y391460D01*
X1089790Y287460D02*
Y391460D01*
X567249Y1351481D02*
G03*
X567249Y1351481I-15500J0D01*
G01*
X570749D02*
G03*
X570749Y1351481I-19000J0D01*
G01*
X528753Y959630D02*
Y972627D01*
Y959630D02*
X594750D01*
X528753Y1064828D02*
Y1077830D01*
X594750D01*
X509753Y1064828D02*
X528753D01*
X509753Y972627D02*
X528753D01*
X509753D02*
Y1064828D01*
X594750Y959630D02*
Y1077830D01*
X510250Y1098380D02*
Y1151980D01*
X527250D02*
Y1164480D01*
Y1085880D02*
Y1098380D01*
X510250D02*
X527250D01*
X510250Y1151980D02*
X527250D01*
Y1085880D02*
X595250D01*
Y1164480D01*
X527250D02*
X595250D01*
X542250Y1222730D02*
X566250D01*
X542250D02*
Y1285730D01*
X566250Y1222730D02*
Y1285730D01*
X542250D02*
X566250D01*
X537500Y942730D02*
X631000D01*
X537500Y838730D02*
X631000D01*
X537500D02*
Y942730D01*
X631000Y838730D02*
Y942730D01*
X1026039Y1351481D02*
G03*
X1026039Y1351481I-15500J0D01*
G01*
X1029539D02*
G03*
X1029539Y1351481I-19000J0D01*
G01*
X987543Y959630D02*
Y972627D01*
Y959630D02*
X1053540D01*
X987543Y1064828D02*
Y1077830D01*
X1053540D01*
X968543Y1064828D02*
X987543D01*
X968543Y972627D02*
X987543D01*
X968543D02*
Y1064828D01*
X1053540Y959630D02*
Y1077830D01*
X969040Y1098380D02*
Y1151980D01*
X986040D02*
Y1164480D01*
Y1085880D02*
Y1098380D01*
X969040D02*
X986040D01*
X969040Y1151980D02*
X986040D01*
Y1085880D02*
X1054040D01*
Y1164480D01*
X986040D02*
X1054040D01*
X1001040Y1222730D02*
X1025040D01*
X1001040D02*
Y1285730D01*
X1025040Y1222730D02*
Y1285730D01*
X1001040D02*
X1025040D01*
X996290Y942730D02*
X1089790D01*
X996290Y838730D02*
X1089790D01*
X996290D02*
Y942730D01*
X1089790Y838730D02*
Y942730D01*
M02*
