G04*
G04 #@! TF.GenerationSoftware,Altium Limited,Altium Designer,25.4.2 (15)*
G04*
G04 Layer_Color=32768*
%FSLAX44Y44*%
%MOMM*%
G71*
G04*
G04 #@! TF.SameCoordinates,9E434B86-177F-4C43-98DC-E9B8BA562479*
G04*
G04*
G04 #@! TF.FilePolarity,Positive*
G04*
G01*
G75*
%ADD50C,0.1000*%
%ADD51C,0.0500*%
D50*
X1570218Y468476D02*
X1580218D01*
X1575218Y463476D02*
Y473476D01*
X1570218Y574926D02*
X1580218D01*
X1575218Y569926D02*
Y579926D01*
X1560718Y801226D02*
X1570718D01*
X1565718Y796226D02*
Y806226D01*
X1568218Y698976D02*
Y708976D01*
X1563218Y703976D02*
X1573218D01*
X1614968Y335476D02*
Y345476D01*
X1609968Y340476D02*
X1619968D01*
X2030278Y468476D02*
X2040278D01*
X2035278Y463476D02*
Y473476D01*
X2030278Y574926D02*
X2040278D01*
X2035278Y569926D02*
Y579926D01*
X2020778Y801226D02*
X2030778D01*
X2025778Y796226D02*
Y806226D01*
X2028278Y698976D02*
Y708976D01*
X2023278Y703976D02*
X2033278D01*
X2075028Y335476D02*
Y345476D01*
X2070028Y340476D02*
X2080028D01*
D51*
X1522718Y528576D02*
X1609718D01*
Y408376D02*
Y528576D01*
X1522718Y408376D02*
X1609718D01*
X1522718D02*
Y528576D01*
X1540218Y615226D02*
X1610218D01*
X1540218Y602726D02*
Y615226D01*
X1523218Y602726D02*
X1540218D01*
X1610218Y534626D02*
Y615226D01*
X1540218Y534626D02*
X1610218D01*
X1540218D02*
Y547126D01*
X1523218D02*
X1540218D01*
X1523218D02*
Y602726D01*
X1545728Y821926D02*
X1585708D01*
Y780526D02*
Y821926D01*
X1545728Y780526D02*
Y821926D01*
Y780526D02*
X1585708D01*
X1555218Y756726D02*
X1581218D01*
X1555218Y651226D02*
Y756726D01*
X1581218Y651226D02*
Y756726D01*
X1555218Y651226D02*
X1581218D01*
X1533968Y393476D02*
X1695968D01*
X1533968Y287476D02*
X1695968D01*
X1533968D02*
Y393476D01*
X1695968Y287476D02*
Y393476D01*
X1982778Y528576D02*
X2069778D01*
Y408376D02*
Y528576D01*
X1982778Y408376D02*
X2069778D01*
X1982778D02*
Y528576D01*
X2000278Y615226D02*
X2070278D01*
X2000278Y602726D02*
Y615226D01*
X1983278Y602726D02*
X2000278D01*
X2070278Y534626D02*
Y615226D01*
X2000278Y534626D02*
X2070278D01*
X2000278D02*
Y547126D01*
X1983278D02*
X2000278D01*
X1983278D02*
Y602726D01*
X2005788Y821926D02*
X2045768D01*
Y780526D02*
Y821926D01*
X2005788Y780526D02*
Y821926D01*
Y780526D02*
X2045768D01*
X2015278Y756726D02*
X2041278D01*
X2015278Y651226D02*
Y756726D01*
X2041278Y651226D02*
Y756726D01*
X2015278Y651226D02*
X2041278D01*
X1994028Y393476D02*
X2156028D01*
X1994028Y287476D02*
X2156028D01*
X1994028D02*
Y393476D01*
X2156028Y287476D02*
Y393476D01*
M02*
