G04*
G04 #@! TF.GenerationSoftware,Altium Limited,Altium Designer,25.4.2 (15)*
G04*
G04 Layer_Color=128*
%FSLAX44Y44*%
%MOMM*%
G71*
G04*
G04 #@! TF.SameCoordinates,9E434B86-177F-4C43-98DC-E9B8BA562479*
G04*
G04*
G04 #@! TF.FilePolarity,Positive*
G04*
G01*
G75*
%ADD53C,0.1270*%
D53*
X1744668Y702226D02*
X1756268D01*
X1750468Y696426D02*
Y708026D01*
X1719268Y702226D02*
X1730868D01*
X1725068Y696426D02*
Y708026D01*
X1686618Y702226D02*
X1698218D01*
X1692418Y696426D02*
Y708026D01*
X1661218Y702226D02*
X1672818D01*
X1667018Y696426D02*
Y708026D01*
X1744668Y558826D02*
X1756268D01*
X1750468Y553026D02*
Y564626D01*
X1719268Y558826D02*
X1730868D01*
X1725068Y553026D02*
Y564626D01*
X1686618Y558826D02*
X1698218D01*
X1692418Y553026D02*
Y564626D01*
X1661218Y558826D02*
X1672818D01*
X1667018Y553026D02*
Y564626D01*
X1827018Y736626D02*
X1838618D01*
X1832818Y730826D02*
Y742426D01*
X1801618Y736626D02*
X1813218D01*
X1807418Y730826D02*
Y742426D01*
X1765718Y314726D02*
X1773718D01*
X1769718Y310726D02*
Y318726D01*
X1715718Y314726D02*
X1723718D01*
X1719718Y310726D02*
Y318726D01*
X1765718Y363976D02*
X1773718D01*
X1769718Y359976D02*
Y367976D01*
X1715718Y363976D02*
X1723718D01*
X1719718Y359976D02*
Y367976D01*
X1622668Y420926D02*
X1634268D01*
X1628468Y415126D02*
Y426726D01*
X1622668Y446326D02*
X1634268D01*
X1628468Y440526D02*
Y452126D01*
X1622668Y471726D02*
X1634268D01*
X1628468Y465926D02*
Y477526D01*
X1622668Y522526D02*
X1634268D01*
X1628468Y516726D02*
Y528326D01*
X1622668Y547926D02*
X1634268D01*
X1628468Y542126D02*
Y553726D01*
X1622668Y573326D02*
X1634268D01*
X1628468Y567526D02*
Y579126D01*
X1622668Y598726D02*
X1634268D01*
X1628468Y592926D02*
Y604526D01*
X1622668Y624126D02*
X1634268D01*
X1628468Y618326D02*
Y629926D01*
X1622668Y649526D02*
X1634268D01*
X1628468Y643726D02*
Y655326D01*
X1622668Y674926D02*
X1634268D01*
X1628468Y669126D02*
Y680726D01*
X1622668Y700326D02*
X1634268D01*
X1628468Y694526D02*
Y706126D01*
X1622668Y725726D02*
X1634268D01*
X1628468Y719926D02*
Y731526D01*
X1622668Y751126D02*
X1634268D01*
X1628468Y745326D02*
Y756926D01*
X1622668Y776526D02*
X1634268D01*
X1628468Y770726D02*
Y782326D01*
X1622668Y497126D02*
X1634268D01*
X1628468Y491326D02*
Y502926D01*
X1876668Y446326D02*
X1888268D01*
X1882468Y440526D02*
Y452126D01*
X1876668Y420926D02*
X1888268D01*
X1882468Y415126D02*
Y426726D01*
X1876668Y471726D02*
X1888268D01*
X1882468Y465926D02*
Y477526D01*
X1876668Y497126D02*
X1888268D01*
X1882468Y491326D02*
Y502926D01*
X1876668Y522526D02*
X1888268D01*
X1882468Y516726D02*
Y528326D01*
X1876668Y547926D02*
X1888268D01*
X1882468Y542126D02*
Y553726D01*
X1876668Y573326D02*
X1888268D01*
X1882468Y567526D02*
Y579126D01*
X1876668Y598726D02*
X1888268D01*
X1882468Y592926D02*
Y604526D01*
X1876668Y624126D02*
X1888268D01*
X1882468Y618326D02*
Y629926D01*
X1876668Y649526D02*
X1888268D01*
X1882468Y643726D02*
Y655326D01*
X1876668Y674926D02*
X1888268D01*
X1882468Y669126D02*
Y680726D01*
X1876668Y700326D02*
X1888268D01*
X1882468Y694526D02*
Y706126D01*
X1876668Y725726D02*
X1888268D01*
X1882468Y719926D02*
Y731526D01*
X1876668Y751126D02*
X1888268D01*
X1882468Y745326D02*
Y756926D01*
X1876668Y776526D02*
X1888268D01*
X1882468Y770726D02*
Y782326D01*
X1738718Y590776D02*
X1747718D01*
X1743218Y586276D02*
Y595276D01*
X1738718Y529226D02*
X1747718D01*
X1743218Y524726D02*
Y533726D01*
X1924968Y598726D02*
X1933968D01*
X1929468Y594226D02*
Y603226D01*
X1924968Y624126D02*
X1933968D01*
X1929468Y619626D02*
Y628626D01*
X1924968Y649526D02*
X1933968D01*
X1929468Y645026D02*
Y654026D01*
X1924968Y674926D02*
X1933968D01*
X1929468Y670426D02*
Y679426D01*
X1924968Y700326D02*
X1933968D01*
X1929468Y695826D02*
Y704826D01*
X1924968Y725726D02*
X1933968D01*
X1929468Y721226D02*
Y730226D01*
X1924968Y751126D02*
X1933968D01*
X1929468Y746626D02*
Y755626D01*
X1924968Y776526D02*
X1933968D01*
X1929468Y772026D02*
Y781026D01*
X1659218Y641286D02*
X1668218D01*
X1663718Y636786D02*
Y645786D01*
X1684618Y641286D02*
X1693618D01*
X1689118Y636786D02*
Y645786D01*
X1761468Y529226D02*
X1770468D01*
X1765968Y524726D02*
Y533726D01*
X1761468Y590776D02*
X1770468D01*
X1765968Y586276D02*
Y595276D01*
X1840968Y478726D02*
X1849968D01*
X1845468Y474226D02*
Y483226D01*
X1815568Y478726D02*
X1824568D01*
X1820068Y474226D02*
Y483226D01*
X1815568Y641286D02*
X1824568D01*
X1820068Y636786D02*
Y645786D01*
X1840968Y641286D02*
X1849968D01*
X1845468Y636786D02*
Y645786D01*
X1684618Y478726D02*
X1693618D01*
X1689118Y474226D02*
Y483226D01*
X1659218Y478726D02*
X1668218D01*
X1663718Y474226D02*
Y483226D01*
X1554468Y508076D02*
X1570968D01*
X1562718Y499826D02*
Y516326D01*
X1554468Y468476D02*
X1570968D01*
X1562718Y460226D02*
Y476726D01*
X1554468Y428876D02*
X1570968D01*
X1562718Y420626D02*
Y437126D01*
X1552968Y594726D02*
X1569468D01*
X1561218Y586476D02*
Y602976D01*
X1552968Y555126D02*
X1569468D01*
X1561218Y546876D02*
Y563376D01*
X1561218Y813927D02*
X1570218D01*
X1565718Y809427D02*
Y818427D01*
X1561218Y788526D02*
X1570218D01*
X1565718Y784026D02*
Y793026D01*
X1563968Y658976D02*
X1572468D01*
X1568218Y654726D02*
Y663226D01*
X1563968Y748976D02*
X1572468D01*
X1568218Y744726D02*
Y753226D01*
X1590162Y641726D02*
X1597274D01*
X1593718Y638170D02*
Y645282D01*
X1840912Y556726D02*
X1848024D01*
X1844468Y553170D02*
Y560282D01*
X1919912Y337226D02*
X1927024D01*
X1923468Y333670D02*
Y340782D01*
X1815912Y597726D02*
X1823024D01*
X1819468Y594170D02*
Y601282D01*
X1824162Y301976D02*
X1831274D01*
X1827718Y298420D02*
Y305532D01*
X1919038Y530306D02*
X1926150D01*
X1922594Y526750D02*
Y533862D01*
X2204728Y702226D02*
X2216328D01*
X2210528Y696426D02*
Y708026D01*
X2179328Y702226D02*
X2190928D01*
X2185128Y696426D02*
Y708026D01*
X2146678Y702226D02*
X2158278D01*
X2152478Y696426D02*
Y708026D01*
X2121278Y702226D02*
X2132878D01*
X2127078Y696426D02*
Y708026D01*
X2204728Y558826D02*
X2216328D01*
X2210528Y553026D02*
Y564626D01*
X2179328Y558826D02*
X2190928D01*
X2185128Y553026D02*
Y564626D01*
X2146678Y558826D02*
X2158278D01*
X2152478Y553026D02*
Y564626D01*
X2121278Y558826D02*
X2132878D01*
X2127078Y553026D02*
Y564626D01*
X2287078Y736626D02*
X2298678D01*
X2292878Y730826D02*
Y742426D01*
X2261678Y736626D02*
X2273278D01*
X2267478Y730826D02*
Y742426D01*
X2225778Y314726D02*
X2233778D01*
X2229778Y310726D02*
Y318726D01*
X2175778Y314726D02*
X2183778D01*
X2179778Y310726D02*
Y318726D01*
X2225778Y363976D02*
X2233778D01*
X2229778Y359976D02*
Y367976D01*
X2175778Y363976D02*
X2183778D01*
X2179778Y359976D02*
Y367976D01*
X2082728Y420926D02*
X2094328D01*
X2088528Y415126D02*
Y426726D01*
X2082728Y446326D02*
X2094328D01*
X2088528Y440526D02*
Y452126D01*
X2082728Y471726D02*
X2094328D01*
X2088528Y465926D02*
Y477526D01*
X2082728Y522526D02*
X2094328D01*
X2088528Y516726D02*
Y528326D01*
X2082728Y547926D02*
X2094328D01*
X2088528Y542126D02*
Y553726D01*
X2082728Y573326D02*
X2094328D01*
X2088528Y567526D02*
Y579126D01*
X2082728Y598726D02*
X2094328D01*
X2088528Y592926D02*
Y604526D01*
X2082728Y624126D02*
X2094328D01*
X2088528Y618326D02*
Y629926D01*
X2082728Y649526D02*
X2094328D01*
X2088528Y643726D02*
Y655326D01*
X2082728Y674926D02*
X2094328D01*
X2088528Y669126D02*
Y680726D01*
X2082728Y700326D02*
X2094328D01*
X2088528Y694526D02*
Y706126D01*
X2082728Y725726D02*
X2094328D01*
X2088528Y719926D02*
Y731526D01*
X2082728Y751126D02*
X2094328D01*
X2088528Y745326D02*
Y756926D01*
X2082728Y776526D02*
X2094328D01*
X2088528Y770726D02*
Y782326D01*
X2082728Y497126D02*
X2094328D01*
X2088528Y491326D02*
Y502926D01*
X2336728Y446326D02*
X2348328D01*
X2342528Y440526D02*
Y452126D01*
X2336728Y420926D02*
X2348328D01*
X2342528Y415126D02*
Y426726D01*
X2336728Y471726D02*
X2348328D01*
X2342528Y465926D02*
Y477526D01*
X2336728Y497126D02*
X2348328D01*
X2342528Y491326D02*
Y502926D01*
X2336728Y522526D02*
X2348328D01*
X2342528Y516726D02*
Y528326D01*
X2336728Y547926D02*
X2348328D01*
X2342528Y542126D02*
Y553726D01*
X2336728Y573326D02*
X2348328D01*
X2342528Y567526D02*
Y579126D01*
X2336728Y598726D02*
X2348328D01*
X2342528Y592926D02*
Y604526D01*
X2336728Y624126D02*
X2348328D01*
X2342528Y618326D02*
Y629926D01*
X2336728Y649526D02*
X2348328D01*
X2342528Y643726D02*
Y655326D01*
X2336728Y674926D02*
X2348328D01*
X2342528Y669126D02*
Y680726D01*
X2336728Y700326D02*
X2348328D01*
X2342528Y694526D02*
Y706126D01*
X2336728Y725726D02*
X2348328D01*
X2342528Y719926D02*
Y731526D01*
X2336728Y751126D02*
X2348328D01*
X2342528Y745326D02*
Y756926D01*
X2336728Y776526D02*
X2348328D01*
X2342528Y770726D02*
Y782326D01*
X2198778Y590776D02*
X2207778D01*
X2203278Y586276D02*
Y595276D01*
X2198778Y529226D02*
X2207778D01*
X2203278Y524726D02*
Y533726D01*
X2385028Y598726D02*
X2394028D01*
X2389528Y594226D02*
Y603226D01*
X2385028Y624126D02*
X2394028D01*
X2389528Y619626D02*
Y628626D01*
X2385028Y649526D02*
X2394028D01*
X2389528Y645026D02*
Y654026D01*
X2385028Y674926D02*
X2394028D01*
X2389528Y670426D02*
Y679426D01*
X2385028Y700326D02*
X2394028D01*
X2389528Y695826D02*
Y704826D01*
X2385028Y725726D02*
X2394028D01*
X2389528Y721226D02*
Y730226D01*
X2385028Y751126D02*
X2394028D01*
X2389528Y746626D02*
Y755626D01*
X2385028Y776526D02*
X2394028D01*
X2389528Y772026D02*
Y781026D01*
X2119278Y641286D02*
X2128278D01*
X2123778Y636786D02*
Y645786D01*
X2144678Y641286D02*
X2153678D01*
X2149178Y636786D02*
Y645786D01*
X2221528Y529226D02*
X2230528D01*
X2226028Y524726D02*
Y533726D01*
X2221528Y590776D02*
X2230528D01*
X2226028Y586276D02*
Y595276D01*
X2301028Y478726D02*
X2310028D01*
X2305528Y474226D02*
Y483226D01*
X2275628Y478726D02*
X2284628D01*
X2280128Y474226D02*
Y483226D01*
X2275628Y641286D02*
X2284628D01*
X2280128Y636786D02*
Y645786D01*
X2301028Y641286D02*
X2310028D01*
X2305528Y636786D02*
Y645786D01*
X2144678Y478726D02*
X2153678D01*
X2149178Y474226D02*
Y483226D01*
X2119278Y478726D02*
X2128278D01*
X2123778Y474226D02*
Y483226D01*
X2014528Y508076D02*
X2031028D01*
X2022778Y499826D02*
Y516326D01*
X2014528Y468476D02*
X2031028D01*
X2022778Y460226D02*
Y476726D01*
X2014528Y428876D02*
X2031028D01*
X2022778Y420626D02*
Y437126D01*
X2013028Y594726D02*
X2029528D01*
X2021278Y586476D02*
Y602976D01*
X2013028Y555126D02*
X2029528D01*
X2021278Y546876D02*
Y563376D01*
X2021278Y813927D02*
X2030278D01*
X2025778Y809427D02*
Y818427D01*
X2021278Y788526D02*
X2030278D01*
X2025778Y784026D02*
Y793026D01*
X2024028Y658976D02*
X2032528D01*
X2028278Y654726D02*
Y663226D01*
X2024028Y748976D02*
X2032528D01*
X2028278Y744726D02*
Y753226D01*
X2050222Y641726D02*
X2057334D01*
X2053778Y638170D02*
Y645282D01*
X2300972Y556726D02*
X2308084D01*
X2304528Y553170D02*
Y560282D01*
X2379972Y337226D02*
X2387084D01*
X2383528Y333670D02*
Y340782D01*
X2275972Y597726D02*
X2283084D01*
X2279528Y594170D02*
Y601282D01*
X2284222Y301976D02*
X2291334D01*
X2287778Y298420D02*
Y305532D01*
X2379098Y530306D02*
X2386210D01*
X2382654Y526750D02*
Y533862D01*
M02*
