G04*
G04 #@! TF.GenerationSoftware,Altium Limited,Altium Designer,25.4.2 (15)*
G04*
G04 Layer_Color=16711935*
%FSLAX44Y44*%
%MOMM*%
G71*
G04*
G04 #@! TF.SameCoordinates,D2275D6D-F90B-4D7B-AA13-D2FC86024EBF*
G04*
G04*
G04 #@! TF.FilePolarity,Negative*
G04*
G01*
G75*
%ADD33C,1.5532*%
%ADD34R,1.5532X1.5532*%
%ADD35R,2.7032X2.2032*%
%ADD36O,2.7032X2.2032*%
%ADD37R,2.2032X2.7032*%
%ADD38O,2.2032X2.7032*%
%ADD39C,1.7032*%
%ADD40R,1.7032X1.7032*%
%ADD41C,2.3532*%
%ADD42R,2.3532X2.3532*%
%ADD43C,1.6032*%
%ADD44R,1.6032X1.6032*%
%ADD45R,1.5532X1.5532*%
%ADD46C,1.4732*%
D33*
X755750Y313710D02*
D03*
Y362960D02*
D03*
X554250Y657960D02*
D03*
X1214540Y313710D02*
D03*
Y362960D02*
D03*
X1013040Y657960D02*
D03*
X755750Y864980D02*
D03*
Y914230D02*
D03*
X554250Y1209230D02*
D03*
X1214540Y864980D02*
D03*
Y914230D02*
D03*
X1013040Y1209230D02*
D03*
D34*
X705750Y313710D02*
D03*
Y362960D02*
D03*
X1164540Y313710D02*
D03*
Y362960D02*
D03*
X705750Y864980D02*
D03*
Y914230D02*
D03*
X1164540Y864980D02*
D03*
Y914230D02*
D03*
D35*
X614500Y419910D02*
D03*
X868500D02*
D03*
X1073290D02*
D03*
X1327290D02*
D03*
X614500Y971180D02*
D03*
X868500D02*
D03*
X1073290D02*
D03*
X1327290D02*
D03*
D36*
X614500Y445310D02*
D03*
Y470710D02*
D03*
Y521510D02*
D03*
Y546910D02*
D03*
Y572310D02*
D03*
Y597710D02*
D03*
Y623110D02*
D03*
Y648510D02*
D03*
Y673910D02*
D03*
Y699310D02*
D03*
Y724710D02*
D03*
Y750110D02*
D03*
Y775510D02*
D03*
Y496110D02*
D03*
X868500Y445310D02*
D03*
Y470710D02*
D03*
Y496110D02*
D03*
Y521510D02*
D03*
Y546910D02*
D03*
Y572310D02*
D03*
Y597710D02*
D03*
Y623110D02*
D03*
Y648510D02*
D03*
Y673910D02*
D03*
Y699310D02*
D03*
Y724710D02*
D03*
Y750110D02*
D03*
Y775510D02*
D03*
X1073290Y445310D02*
D03*
Y470710D02*
D03*
Y521510D02*
D03*
Y546910D02*
D03*
Y572310D02*
D03*
Y597710D02*
D03*
Y623110D02*
D03*
Y648510D02*
D03*
Y673910D02*
D03*
Y699310D02*
D03*
Y724710D02*
D03*
Y750110D02*
D03*
Y775510D02*
D03*
Y496110D02*
D03*
X1327290Y445310D02*
D03*
Y470710D02*
D03*
Y496110D02*
D03*
Y521510D02*
D03*
Y546910D02*
D03*
Y572310D02*
D03*
Y597710D02*
D03*
Y623110D02*
D03*
Y648510D02*
D03*
Y673910D02*
D03*
Y699310D02*
D03*
Y724710D02*
D03*
Y750110D02*
D03*
Y775510D02*
D03*
X614500Y996580D02*
D03*
Y1021980D02*
D03*
Y1072780D02*
D03*
Y1098180D02*
D03*
Y1123580D02*
D03*
Y1148980D02*
D03*
Y1174380D02*
D03*
Y1199780D02*
D03*
Y1225180D02*
D03*
Y1250580D02*
D03*
Y1275980D02*
D03*
Y1301380D02*
D03*
Y1326780D02*
D03*
Y1047380D02*
D03*
X868500Y996580D02*
D03*
Y1021980D02*
D03*
Y1047380D02*
D03*
Y1072780D02*
D03*
Y1098180D02*
D03*
Y1123580D02*
D03*
Y1148980D02*
D03*
Y1174380D02*
D03*
Y1199780D02*
D03*
Y1225180D02*
D03*
Y1250580D02*
D03*
Y1275980D02*
D03*
Y1301380D02*
D03*
Y1326780D02*
D03*
X1073290Y996580D02*
D03*
Y1021980D02*
D03*
Y1072780D02*
D03*
Y1098180D02*
D03*
Y1123580D02*
D03*
Y1148980D02*
D03*
Y1174380D02*
D03*
Y1199780D02*
D03*
Y1225180D02*
D03*
Y1250580D02*
D03*
Y1275980D02*
D03*
Y1301380D02*
D03*
Y1326780D02*
D03*
Y1047380D02*
D03*
X1327290Y996580D02*
D03*
Y1021980D02*
D03*
Y1047380D02*
D03*
Y1072780D02*
D03*
Y1098180D02*
D03*
Y1123580D02*
D03*
Y1148980D02*
D03*
Y1174380D02*
D03*
Y1199780D02*
D03*
Y1225180D02*
D03*
Y1250580D02*
D03*
Y1275980D02*
D03*
Y1301380D02*
D03*
Y1326780D02*
D03*
D37*
X729250Y699310D02*
D03*
X1188040D02*
D03*
X729250Y1250580D02*
D03*
X1188040D02*
D03*
D38*
X703850Y699310D02*
D03*
X678450D02*
D03*
X653050D02*
D03*
X729250Y557810D02*
D03*
X703850D02*
D03*
X678450D02*
D03*
X653050D02*
D03*
X818850Y726610D02*
D03*
X793450D02*
D03*
X1162640Y699310D02*
D03*
X1137240D02*
D03*
X1111840D02*
D03*
X1188040Y557810D02*
D03*
X1162640D02*
D03*
X1137240D02*
D03*
X1111840D02*
D03*
X1277640Y726610D02*
D03*
X1252240D02*
D03*
X703850Y1250580D02*
D03*
X678450D02*
D03*
X653050D02*
D03*
X729250Y1109080D02*
D03*
X703850D02*
D03*
X678450D02*
D03*
X653050D02*
D03*
X818850Y1277880D02*
D03*
X793450D02*
D03*
X1162640Y1250580D02*
D03*
X1137240D02*
D03*
X1111840D02*
D03*
X1188040Y1109080D02*
D03*
X1162640D02*
D03*
X1137240D02*
D03*
X1111840D02*
D03*
X1277640Y1277880D02*
D03*
X1252240D02*
D03*
D39*
X729250Y585210D02*
D03*
Y528210D02*
D03*
X915500Y623110D02*
D03*
Y648510D02*
D03*
Y673910D02*
D03*
Y699310D02*
D03*
Y724710D02*
D03*
Y750110D02*
D03*
Y775510D02*
D03*
X649750Y640270D02*
D03*
X675150D02*
D03*
X752000Y528210D02*
D03*
Y585210D02*
D03*
X831500Y476150D02*
D03*
X806100D02*
D03*
Y638710D02*
D03*
X831500D02*
D03*
X675150Y477710D02*
D03*
X649750D02*
D03*
X1188040Y585210D02*
D03*
Y528210D02*
D03*
X1374290Y623110D02*
D03*
Y648510D02*
D03*
Y673910D02*
D03*
Y699310D02*
D03*
Y724710D02*
D03*
Y750110D02*
D03*
Y775510D02*
D03*
X1108540Y640270D02*
D03*
X1133940D02*
D03*
X1210790Y528210D02*
D03*
Y585210D02*
D03*
X1290290Y476150D02*
D03*
X1264890D02*
D03*
Y638710D02*
D03*
X1290290D02*
D03*
X1133940Y477710D02*
D03*
X1108540D02*
D03*
X729250Y1136480D02*
D03*
Y1079480D02*
D03*
X915500Y1174380D02*
D03*
Y1199780D02*
D03*
Y1225180D02*
D03*
Y1250580D02*
D03*
Y1275980D02*
D03*
Y1301380D02*
D03*
Y1326780D02*
D03*
X649750Y1191540D02*
D03*
X675150D02*
D03*
X752000Y1079480D02*
D03*
Y1136480D02*
D03*
X831500Y1027420D02*
D03*
X806100D02*
D03*
Y1189980D02*
D03*
X831500D02*
D03*
X675150Y1028980D02*
D03*
X649750D02*
D03*
X1188040Y1136480D02*
D03*
Y1079480D02*
D03*
X1374290Y1174380D02*
D03*
Y1199780D02*
D03*
Y1225180D02*
D03*
Y1250580D02*
D03*
Y1275980D02*
D03*
Y1301380D02*
D03*
Y1326780D02*
D03*
X1108540Y1191540D02*
D03*
X1133940D02*
D03*
X1210790Y1079480D02*
D03*
Y1136480D02*
D03*
X1290290Y1027420D02*
D03*
X1264890D02*
D03*
Y1189980D02*
D03*
X1290290D02*
D03*
X1133940Y1028980D02*
D03*
X1108540D02*
D03*
D40*
X915500Y597710D02*
D03*
X1374290D02*
D03*
X915500Y1148980D02*
D03*
X1374290D02*
D03*
D41*
X548750Y507060D02*
D03*
Y467460D02*
D03*
X547250Y593710D02*
D03*
X1007540Y507060D02*
D03*
Y467460D02*
D03*
X1006040Y593710D02*
D03*
X548750Y1058330D02*
D03*
Y1018730D02*
D03*
X547250Y1144980D02*
D03*
X1007540Y1058330D02*
D03*
Y1018730D02*
D03*
X1006040Y1144980D02*
D03*
D42*
X548750Y427860D02*
D03*
X547250Y554110D02*
D03*
X1007540Y427860D02*
D03*
X1006040Y554110D02*
D03*
X548750Y979130D02*
D03*
X547250Y1105380D02*
D03*
X1007540Y979130D02*
D03*
X1006040Y1105380D02*
D03*
D43*
X551750Y812911D02*
D03*
X1010540D02*
D03*
X551750Y1364181D02*
D03*
X1010540D02*
D03*
D44*
X551750Y787510D02*
D03*
X1010540D02*
D03*
X551750Y1338780D02*
D03*
X1010540D02*
D03*
D45*
X554250Y747960D02*
D03*
X1013040D02*
D03*
X554250Y1299230D02*
D03*
X1013040D02*
D03*
D46*
X575750Y629210D02*
D03*
X830500Y555710D02*
D03*
X909500Y336210D02*
D03*
X805500Y596710D02*
D03*
X813750Y300960D02*
D03*
X908626Y529290D02*
D03*
X1034540Y629210D02*
D03*
X1289290Y555710D02*
D03*
X1368290Y336210D02*
D03*
X1264290Y596710D02*
D03*
X1272540Y300960D02*
D03*
X1367416Y529290D02*
D03*
X575750Y1180480D02*
D03*
X830500Y1106980D02*
D03*
X909500Y887480D02*
D03*
X805500Y1147980D02*
D03*
X813750Y852230D02*
D03*
X908626Y1080560D02*
D03*
X1034540Y1180480D02*
D03*
X1289290Y1106980D02*
D03*
X1368290Y887480D02*
D03*
X1264290Y1147980D02*
D03*
X1272540Y852230D02*
D03*
X1367416Y1080560D02*
D03*
M02*
