G04*
G04 #@! TF.GenerationSoftware,Altium Limited,Altium Designer,25.4.2 (15)*
G04*
G04 Layer_Physical_Order=1*
G04 Layer_Color=255*
%FSLAX44Y44*%
%MOMM*%
G71*
G04*
G04 #@! TF.SameCoordinates,9E434B86-177F-4C43-98DC-E9B8BA562479*
G04*
G04*
G04 #@! TF.FilePolarity,Positive*
G04*
G01*
G75*
%ADD10R,9.0000X10.3500*%
%ADD11R,3.5000X0.9500*%
%ADD12C,0.8000*%
%ADD13R,2.0000X2.5000*%
%ADD14O,2.0000X2.5000*%
%ADD15C,1.3500*%
%ADD16R,1.3500X1.3500*%
%ADD17R,2.5000X2.0000*%
%ADD18O,2.5000X2.0000*%
%ADD19C,1.5000*%
%ADD20R,1.5000X1.5000*%
%ADD21C,2.1500*%
%ADD22R,2.1500X2.1500*%
%ADD23C,1.4000*%
%ADD24R,1.4000X1.4000*%
%ADD25R,1.3500X1.3500*%
%ADD26C,1.2700*%
G36*
X2037182Y799419D02*
Y775708D01*
X2026364Y764891D01*
X2025316Y763524D01*
X2024657Y761934D01*
X2024432Y760226D01*
Y758266D01*
X2018988D01*
Y739686D01*
X2037568D01*
Y750586D01*
X2037625Y751015D01*
Y757494D01*
X2048442Y768312D01*
X2049491Y769678D01*
X2050150Y771269D01*
X2050374Y772976D01*
Y798495D01*
X2051273Y799392D01*
X2396778Y798726D01*
X2439528Y755976D01*
Y284226D01*
X2240028D01*
Y335726D01*
X2211448D01*
X2210771Y336996D01*
X2211226Y338095D01*
X2211450Y339802D01*
Y454570D01*
X2267442Y510562D01*
X2268491Y511928D01*
X2269150Y513519D01*
X2269374Y515226D01*
Y596540D01*
X2270638Y596556D01*
X2271244Y594295D01*
X2272414Y592267D01*
X2272932Y591750D01*
Y510708D01*
X2247114Y484890D01*
X2246065Y483524D01*
X2245406Y481933D01*
X2245182Y480226D01*
Y363376D01*
X2245406Y361669D01*
X2246065Y360078D01*
X2247114Y358712D01*
X2283114Y322712D01*
X2284480Y321664D01*
X2286071Y321005D01*
X2287778Y320780D01*
X2333766D01*
X2335473Y321005D01*
X2337064Y321664D01*
X2338430Y322712D01*
X2366236Y350518D01*
X2367285Y351884D01*
X2367944Y353475D01*
X2368168Y355182D01*
Y414115D01*
X2368898Y414436D01*
X2369438Y414469D01*
X2370370Y413256D01*
X2377382Y406244D01*
Y343652D01*
X2376414Y342685D01*
X2375244Y340657D01*
X2374638Y338396D01*
Y336056D01*
X2375244Y333795D01*
X2376414Y331767D01*
X2378069Y330112D01*
X2380097Y328942D01*
X2382358Y328336D01*
X2384698D01*
X2386959Y328942D01*
X2388987Y330112D01*
X2390642Y331767D01*
X2391812Y333795D01*
X2392418Y336056D01*
Y338396D01*
X2391812Y340657D01*
X2390642Y342685D01*
X2390575Y342752D01*
Y408976D01*
X2390350Y410683D01*
X2389691Y412274D01*
X2388642Y413640D01*
X2381630Y420653D01*
Y519954D01*
X2383093Y521416D01*
X2383824D01*
X2386085Y522022D01*
X2388113Y523192D01*
X2389768Y524847D01*
X2390938Y526875D01*
X2391544Y529136D01*
Y531476D01*
X2390938Y533737D01*
X2389768Y535765D01*
X2388113Y537420D01*
X2386085Y538590D01*
X2383824Y539196D01*
X2381484D01*
X2379223Y538590D01*
X2377195Y537420D01*
X2375540Y535765D01*
X2374370Y533737D01*
X2373764Y531476D01*
Y530745D01*
X2370370Y527350D01*
X2369438Y526137D01*
X2368898Y526170D01*
X2368168Y526491D01*
Y571151D01*
X2369438Y571582D01*
X2369608Y571362D01*
X2397140Y543830D01*
Y319067D01*
X2386646Y308573D01*
X2293754D01*
X2293237Y309090D01*
X2291209Y310260D01*
X2288948Y310866D01*
X2286608D01*
X2284346Y310260D01*
X2282319Y309090D01*
X2280664Y307435D01*
X2279494Y305408D01*
X2278888Y303147D01*
Y300806D01*
X2279494Y298545D01*
X2280664Y296518D01*
X2282319Y294862D01*
X2284346Y293692D01*
X2286608Y293086D01*
X2288948D01*
X2291209Y293692D01*
X2293237Y294862D01*
X2293754Y295380D01*
X2389378D01*
X2391085Y295605D01*
X2392676Y296264D01*
X2394042Y297312D01*
X2408400Y311670D01*
X2409449Y313036D01*
X2410108Y314627D01*
X2410332Y316334D01*
Y546562D01*
X2410108Y548269D01*
X2409449Y549860D01*
X2408400Y551226D01*
X2380868Y578758D01*
Y588686D01*
X2399568D01*
Y608766D01*
X2380868D01*
Y616791D01*
X2382138Y617317D01*
X2383363Y616092D01*
X2385653Y614770D01*
X2388206Y614086D01*
X2390850D01*
X2393403Y614770D01*
X2395693Y616092D01*
X2397562Y617961D01*
X2398884Y620251D01*
X2399568Y622804D01*
Y625448D01*
X2398884Y628001D01*
X2397562Y630291D01*
X2395693Y632160D01*
X2393403Y633482D01*
X2390850Y634166D01*
X2388206D01*
X2385653Y633482D01*
X2383363Y632160D01*
X2382138Y630935D01*
X2380868Y631461D01*
Y640382D01*
X2380644Y642089D01*
X2380343Y642814D01*
X2381485Y643377D01*
X2381494Y643361D01*
X2383363Y641492D01*
X2385653Y640170D01*
X2388206Y639486D01*
X2390850D01*
X2393403Y640170D01*
X2395693Y641492D01*
X2397562Y643361D01*
X2398884Y645651D01*
X2399568Y648204D01*
Y650848D01*
X2398884Y653401D01*
X2397562Y655691D01*
X2395693Y657560D01*
X2393403Y658882D01*
X2390850Y659566D01*
X2388206D01*
X2385653Y658882D01*
X2383363Y657560D01*
X2381494Y655691D01*
X2380172Y653401D01*
X2379488Y650848D01*
Y648204D01*
X2380172Y645651D01*
X2380472Y645131D01*
X2379414Y644424D01*
X2378936Y645046D01*
X2369792Y654190D01*
X2368426Y655239D01*
X2366835Y655898D01*
X2365128Y656122D01*
X2355773D01*
X2353972Y658470D01*
X2351352Y660480D01*
X2348795Y661539D01*
Y662913D01*
X2351352Y663972D01*
X2353972Y665982D01*
X2355907Y668505D01*
X2381751D01*
X2383363Y666892D01*
X2385653Y665570D01*
X2388206Y664886D01*
X2390850D01*
X2393403Y665570D01*
X2395693Y666892D01*
X2397562Y668761D01*
X2398884Y671051D01*
X2399568Y673604D01*
Y676248D01*
X2398884Y678801D01*
X2397562Y681091D01*
X2395693Y682960D01*
X2393403Y684282D01*
X2390850Y684966D01*
X2388206D01*
X2385653Y684282D01*
X2383363Y682960D01*
X2382101Y681697D01*
X2355638D01*
X2353972Y683870D01*
X2351352Y685880D01*
X2348795Y686939D01*
Y688313D01*
X2351352Y689372D01*
X2353972Y691382D01*
X2355982Y694002D01*
X2357245Y697052D01*
X2357676Y700326D01*
X2357245Y703600D01*
X2355982Y706650D01*
X2353972Y709270D01*
X2351352Y711280D01*
X2348795Y712339D01*
Y713713D01*
X2351352Y714772D01*
X2353972Y716782D01*
X2355982Y719402D01*
X2357245Y722452D01*
X2357676Y725726D01*
X2357245Y729000D01*
X2355982Y732050D01*
X2353972Y734670D01*
X2351352Y736680D01*
X2348795Y737739D01*
Y739113D01*
X2351352Y740172D01*
X2353972Y742182D01*
X2355982Y744802D01*
X2357245Y747852D01*
X2357676Y751126D01*
X2357245Y754400D01*
X2355982Y757450D01*
X2353972Y760070D01*
X2351352Y762080D01*
X2348795Y763139D01*
Y764513D01*
X2351352Y765572D01*
X2353972Y767582D01*
X2355982Y770202D01*
X2357245Y773252D01*
X2357676Y776526D01*
X2357245Y779800D01*
X2355982Y782850D01*
X2353972Y785470D01*
X2351352Y787480D01*
X2348302Y788743D01*
X2345028Y789174D01*
X2340028D01*
X2336754Y788743D01*
X2333704Y787480D01*
X2331084Y785470D01*
X2329074Y782850D01*
X2327811Y779800D01*
X2327380Y776526D01*
X2327811Y773252D01*
X2329074Y770202D01*
X2331084Y767582D01*
X2333704Y765572D01*
X2336261Y764513D01*
Y763139D01*
X2333704Y762080D01*
X2331084Y760070D01*
X2329074Y757450D01*
X2327811Y754400D01*
X2327380Y751126D01*
X2327811Y747852D01*
X2329074Y744802D01*
X2331084Y742182D01*
X2333704Y740172D01*
X2336261Y739113D01*
Y737739D01*
X2333704Y736680D01*
X2331084Y734670D01*
X2329074Y732050D01*
X2327811Y729000D01*
X2327380Y725726D01*
X2327811Y722452D01*
X2329074Y719402D01*
X2331084Y716782D01*
X2333704Y714772D01*
X2336261Y713713D01*
Y712339D01*
X2333704Y711280D01*
X2331084Y709270D01*
X2329074Y706650D01*
X2327811Y703600D01*
X2327380Y700326D01*
X2327811Y697052D01*
X2329074Y694002D01*
X2331084Y691382D01*
X2333704Y689372D01*
X2336261Y688313D01*
Y686939D01*
X2333704Y685880D01*
X2331084Y683870D01*
X2329074Y681250D01*
X2327811Y678200D01*
X2327380Y674926D01*
X2327811Y671652D01*
X2329074Y668602D01*
X2331084Y665982D01*
X2333704Y663972D01*
X2336261Y662913D01*
Y661539D01*
X2333704Y660480D01*
X2331084Y658470D01*
X2329074Y655850D01*
X2327811Y652800D01*
X2327380Y649526D01*
X2327811Y646252D01*
X2329074Y643202D01*
X2331084Y640582D01*
X2333704Y638572D01*
X2336261Y637513D01*
Y636139D01*
X2333704Y635080D01*
X2331084Y633070D01*
X2329074Y630450D01*
X2327811Y627400D01*
X2327380Y624126D01*
X2327811Y620852D01*
X2329074Y617802D01*
X2331084Y615182D01*
X2333704Y613172D01*
X2336261Y612113D01*
Y610739D01*
X2333704Y609680D01*
X2331084Y607670D01*
X2329074Y605050D01*
X2327811Y602000D01*
X2327380Y598726D01*
X2327811Y595452D01*
X2329074Y592402D01*
X2331084Y589782D01*
X2333704Y587772D01*
X2336261Y586713D01*
Y585339D01*
X2333704Y584280D01*
X2331084Y582270D01*
X2329074Y579650D01*
X2327811Y576600D01*
X2327380Y573326D01*
X2327811Y570052D01*
X2329074Y567002D01*
X2331084Y564382D01*
X2333704Y562372D01*
X2336261Y561313D01*
Y559939D01*
X2333704Y558880D01*
X2331084Y556870D01*
X2329074Y554250D01*
X2327811Y551200D01*
X2327380Y547926D01*
X2327811Y544652D01*
X2329074Y541602D01*
X2331084Y538982D01*
X2333704Y536972D01*
X2336261Y535913D01*
Y534539D01*
X2333704Y533480D01*
X2331084Y531470D01*
X2330144Y530245D01*
X2328874Y530676D01*
Y534670D01*
X2328650Y536377D01*
X2327991Y537968D01*
X2326942Y539334D01*
X2312848Y553429D01*
X2313418Y555556D01*
Y557896D01*
X2312812Y560157D01*
X2311642Y562185D01*
X2309987Y563840D01*
X2307959Y565010D01*
X2305698Y565616D01*
X2303358D01*
X2301097Y565010D01*
X2299069Y563840D01*
X2297414Y562185D01*
X2296244Y560157D01*
X2295638Y557896D01*
Y555556D01*
X2296244Y553295D01*
X2297414Y551267D01*
X2298289Y550393D01*
X2298815Y549122D01*
X2299864Y547756D01*
X2315682Y531938D01*
Y483759D01*
X2314412Y483419D01*
X2313562Y484891D01*
X2311693Y486760D01*
X2309403Y488082D01*
X2306850Y488766D01*
X2304206D01*
X2301653Y488082D01*
X2299363Y486760D01*
X2297494Y484891D01*
X2296172Y482601D01*
X2295488Y480048D01*
Y477404D01*
X2296172Y474851D01*
X2297494Y472561D01*
X2299363Y470692D01*
X2301653Y469370D01*
X2304206Y468686D01*
X2306850D01*
X2309403Y469370D01*
X2311693Y470692D01*
X2313562Y472561D01*
X2314412Y474033D01*
X2315682Y473693D01*
Y426476D01*
X2315906Y424769D01*
X2316565Y423178D01*
X2317614Y421812D01*
X2323164Y416262D01*
X2324530Y415213D01*
X2326121Y414554D01*
X2327488Y414374D01*
Y408386D01*
X2354976D01*
Y357915D01*
X2331034Y333973D01*
X2290510D01*
X2258374Y366109D01*
Y477494D01*
X2284192Y503312D01*
X2285241Y504678D01*
X2285900Y506269D01*
X2286124Y507976D01*
Y591750D01*
X2286642Y592267D01*
X2287812Y594295D01*
X2288418Y596556D01*
Y598896D01*
X2287812Y601157D01*
X2286642Y603185D01*
X2284987Y604840D01*
X2282959Y606010D01*
X2280698Y606616D01*
X2278358D01*
X2276097Y606010D01*
X2274069Y604840D01*
X2272414Y603185D01*
X2271244Y601157D01*
X2270638Y598896D01*
X2269374Y598912D01*
Y637720D01*
X2270644Y637887D01*
X2270772Y637411D01*
X2272094Y635121D01*
X2273963Y633252D01*
X2276253Y631930D01*
X2278806Y631246D01*
X2281450D01*
X2284003Y631930D01*
X2286293Y633252D01*
X2288162Y635121D01*
X2289484Y637411D01*
X2290168Y639964D01*
Y642608D01*
X2289484Y645161D01*
X2288162Y647451D01*
X2286293Y649320D01*
X2284003Y650642D01*
X2281450Y651326D01*
X2278806D01*
X2276253Y650642D01*
X2273963Y649320D01*
X2272094Y647451D01*
X2270772Y645161D01*
X2270644Y644685D01*
X2269374Y644852D01*
Y657244D01*
X2296564Y684434D01*
X2297612Y685800D01*
X2298271Y687391D01*
X2298496Y689098D01*
Y695725D01*
X2298474Y695891D01*
Y722871D01*
X2299202Y723172D01*
X2301822Y725182D01*
X2303832Y727802D01*
X2305095Y730852D01*
X2305526Y734126D01*
Y739126D01*
X2305095Y742400D01*
X2303832Y745450D01*
X2301822Y748070D01*
X2299202Y750080D01*
X2296152Y751343D01*
X2292878Y751774D01*
X2289604Y751343D01*
X2286554Y750080D01*
X2283934Y748070D01*
X2281924Y745450D01*
X2280865Y742893D01*
X2279491D01*
X2278432Y745450D01*
X2276422Y748070D01*
X2273802Y750080D01*
X2270752Y751343D01*
X2267478Y751774D01*
X2264204Y751343D01*
X2261154Y750080D01*
X2258534Y748070D01*
X2256524Y745450D01*
X2255261Y742400D01*
X2254830Y739126D01*
Y734126D01*
X2255261Y730852D01*
X2256524Y727802D01*
X2258534Y725182D01*
X2261154Y723172D01*
X2264204Y721909D01*
X2267478Y721478D01*
X2270752Y721909D01*
X2273802Y723172D01*
X2276422Y725182D01*
X2278432Y727802D01*
X2279491Y730359D01*
X2280865D01*
X2281924Y727802D01*
X2283934Y725182D01*
X2285282Y724149D01*
Y695747D01*
X2285303Y695581D01*
Y691830D01*
X2258114Y664640D01*
X2257065Y663274D01*
X2256406Y661683D01*
X2256182Y659976D01*
Y517958D01*
X2252840Y514617D01*
X2251763Y515336D01*
X2252150Y516269D01*
X2252374Y517976D01*
Y646726D01*
X2252150Y648433D01*
X2251491Y650024D01*
X2250442Y651390D01*
X2217124Y684708D01*
Y687186D01*
X2223068D01*
Y717266D01*
X2197988D01*
Y709766D01*
X2196718Y709514D01*
X2196082Y711050D01*
X2194072Y713670D01*
X2191452Y715680D01*
X2188402Y716943D01*
X2185128Y717374D01*
X2181854Y716943D01*
X2178804Y715680D01*
X2176184Y713670D01*
X2174174Y711050D01*
X2172911Y708000D01*
X2172480Y704726D01*
Y699726D01*
X2172911Y696452D01*
X2174174Y693402D01*
X2176184Y690782D01*
X2178804Y688772D01*
X2180828Y687934D01*
Y626404D01*
X2146952Y592528D01*
X2120780D01*
X2119073Y592304D01*
X2117482Y591645D01*
X2116116Y590596D01*
X2105442Y579922D01*
X2101773D01*
X2099972Y582270D01*
X2097352Y584280D01*
X2094796Y585339D01*
Y586713D01*
X2097352Y587772D01*
X2099972Y589782D01*
X2101773Y592130D01*
X2113528D01*
X2115235Y592354D01*
X2116826Y593013D01*
X2118192Y594062D01*
X2140760Y616630D01*
X2156528D01*
X2158235Y616854D01*
X2159826Y617513D01*
X2161192Y618562D01*
X2172692Y630062D01*
X2173741Y631428D01*
X2174400Y633019D01*
X2174624Y634726D01*
Y659476D01*
X2174400Y661183D01*
X2173741Y662774D01*
X2172692Y664140D01*
X2159075Y677758D01*
Y688981D01*
X2161422Y690782D01*
X2163432Y693402D01*
X2164695Y696452D01*
X2165126Y699726D01*
Y704726D01*
X2164695Y708000D01*
X2163432Y711050D01*
X2161422Y713670D01*
X2158802Y715680D01*
X2155752Y716943D01*
X2152478Y717374D01*
X2149205Y716943D01*
X2146154Y715680D01*
X2143535Y713670D01*
X2141525Y711050D01*
X2140466Y708493D01*
X2139091D01*
X2138032Y711050D01*
X2136022Y713670D01*
X2133402Y715680D01*
X2130352Y716943D01*
X2127078Y717374D01*
X2123805Y716943D01*
X2120754Y715680D01*
X2118134Y713670D01*
X2116125Y711050D01*
X2114861Y708000D01*
X2114430Y704726D01*
Y699726D01*
X2114861Y696452D01*
X2116125Y693402D01*
X2118134Y690782D01*
X2120010Y689343D01*
Y685037D01*
X2104114Y669140D01*
X2103065Y667774D01*
X2102406Y666183D01*
X2102182Y664476D01*
Y657676D01*
X2100912Y657245D01*
X2099972Y658470D01*
X2097352Y660480D01*
X2094796Y661539D01*
Y662913D01*
X2097352Y663972D01*
X2099972Y665982D01*
X2101982Y668602D01*
X2103245Y671652D01*
X2103676Y674926D01*
X2103245Y678200D01*
X2101982Y681250D01*
X2099972Y683870D01*
X2097352Y685880D01*
X2094796Y686939D01*
Y688313D01*
X2097352Y689372D01*
X2099972Y691382D01*
X2101982Y694002D01*
X2103245Y697052D01*
X2103676Y700326D01*
X2103245Y703600D01*
X2101982Y706650D01*
X2099972Y709270D01*
X2097352Y711280D01*
X2094796Y712339D01*
Y713713D01*
X2097352Y714772D01*
X2099972Y716782D01*
X2101982Y719402D01*
X2103245Y722452D01*
X2103676Y725726D01*
X2103245Y729000D01*
X2101982Y732050D01*
X2099972Y734670D01*
X2097352Y736680D01*
X2094796Y737739D01*
Y739113D01*
X2097352Y740172D01*
X2099972Y742182D01*
X2101982Y744802D01*
X2103245Y747852D01*
X2103676Y751126D01*
X2103245Y754400D01*
X2101982Y757450D01*
X2099972Y760070D01*
X2097352Y762080D01*
X2094796Y763139D01*
Y764513D01*
X2097352Y765572D01*
X2099972Y767582D01*
X2101982Y770202D01*
X2103245Y773252D01*
X2103676Y776526D01*
X2103245Y779800D01*
X2101982Y782850D01*
X2099972Y785470D01*
X2097352Y787480D01*
X2094302Y788743D01*
X2091028Y789174D01*
X2086028D01*
X2082755Y788743D01*
X2079704Y787480D01*
X2077084Y785470D01*
X2075074Y782850D01*
X2073811Y779800D01*
X2073380Y776526D01*
X2073811Y773252D01*
X2075074Y770202D01*
X2077084Y767582D01*
X2079704Y765572D01*
X2082261Y764513D01*
Y763139D01*
X2079704Y762080D01*
X2077084Y760070D01*
X2075074Y757450D01*
X2073811Y754400D01*
X2073380Y751126D01*
X2073811Y747852D01*
X2075074Y744802D01*
X2077084Y742182D01*
X2079704Y740172D01*
X2082261Y739113D01*
Y737739D01*
X2079704Y736680D01*
X2077084Y734670D01*
X2075074Y732050D01*
X2073811Y729000D01*
X2073380Y725726D01*
X2073811Y722452D01*
X2075074Y719402D01*
X2077084Y716782D01*
X2079704Y714772D01*
X2082261Y713713D01*
Y712339D01*
X2079704Y711280D01*
X2077084Y709270D01*
X2075074Y706650D01*
X2073811Y703600D01*
X2073380Y700326D01*
X2073811Y697052D01*
X2075074Y694002D01*
X2077084Y691382D01*
X2079704Y689372D01*
X2082261Y688313D01*
Y686939D01*
X2079704Y685880D01*
X2077084Y683870D01*
X2075074Y681250D01*
X2073811Y678200D01*
X2073380Y674926D01*
X2073811Y671652D01*
X2075074Y668602D01*
X2077084Y665982D01*
X2079704Y663972D01*
X2082261Y662913D01*
Y661539D01*
X2079704Y660480D01*
X2077084Y658470D01*
X2075074Y655850D01*
X2073811Y652800D01*
X2073380Y649526D01*
X2073811Y646252D01*
X2075074Y643202D01*
X2077084Y640582D01*
X2079704Y638572D01*
X2082261Y637513D01*
Y636139D01*
X2079704Y635080D01*
X2077084Y633070D01*
X2075074Y630450D01*
X2073811Y627400D01*
X2073380Y624126D01*
X2073811Y620852D01*
X2075074Y617802D01*
X2077084Y615182D01*
X2079704Y613172D01*
X2082261Y612113D01*
Y610739D01*
X2079704Y609680D01*
X2077084Y607670D01*
X2075074Y605050D01*
X2073811Y602000D01*
X2073380Y598726D01*
X2073811Y595452D01*
X2075074Y592402D01*
X2077084Y589782D01*
X2079704Y587772D01*
X2082261Y586713D01*
Y585339D01*
X2079704Y584280D01*
X2077084Y582270D01*
X2075074Y579650D01*
X2073811Y576600D01*
X2073380Y573326D01*
X2073811Y570052D01*
X2075074Y567002D01*
X2077084Y564382D01*
X2079704Y562372D01*
X2082261Y561313D01*
Y559939D01*
X2079704Y558880D01*
X2077084Y556870D01*
X2075074Y554250D01*
X2073811Y551200D01*
X2073380Y547926D01*
X2073811Y544652D01*
X2075074Y541602D01*
X2077084Y538982D01*
X2079704Y536972D01*
X2082261Y535913D01*
Y534539D01*
X2079704Y533480D01*
X2077084Y531470D01*
X2075074Y528850D01*
X2073811Y525800D01*
X2073380Y522526D01*
X2073811Y519252D01*
X2075074Y516202D01*
X2077084Y513582D01*
X2079704Y511572D01*
X2082261Y510513D01*
Y509139D01*
X2079704Y508080D01*
X2077084Y506070D01*
X2075074Y503450D01*
X2073811Y500400D01*
X2073380Y497126D01*
X2073811Y493852D01*
X2075074Y490802D01*
X2077084Y488182D01*
X2079704Y486172D01*
X2082261Y485113D01*
Y483739D01*
X2079704Y482680D01*
X2077084Y480670D01*
X2075074Y478050D01*
X2073811Y475000D01*
X2073380Y471726D01*
X2073811Y468452D01*
X2075074Y465402D01*
X2077084Y462782D01*
X2079704Y460772D01*
X2082261Y459713D01*
Y458339D01*
X2079704Y457280D01*
X2077084Y455270D01*
X2075283Y452922D01*
X2066628D01*
X2064921Y452698D01*
X2063330Y452039D01*
X2061964Y450990D01*
X2050114Y439140D01*
X2049065Y437774D01*
X2048406Y436183D01*
X2048182Y434476D01*
Y403726D01*
X1990278D01*
X1983455Y396903D01*
X1982281Y397388D01*
X1982028Y773726D01*
X2007778Y799476D01*
X2037182Y799419D01*
D02*
G37*
G36*
X1577122D02*
Y775708D01*
X1566304Y764891D01*
X1565255Y763524D01*
X1564597Y761934D01*
X1564372Y760226D01*
Y758266D01*
X1558928D01*
Y739686D01*
X1577508D01*
Y750586D01*
X1577565Y751015D01*
Y757494D01*
X1588382Y768312D01*
X1589431Y769678D01*
X1590090Y771269D01*
X1590314Y772976D01*
Y798495D01*
X1591213Y799392D01*
X1936718Y798726D01*
X1979468Y755976D01*
Y284226D01*
X1779968D01*
Y335726D01*
X1751388D01*
X1750711Y336996D01*
X1751166Y338095D01*
X1751390Y339802D01*
Y454570D01*
X1807382Y510562D01*
X1808431Y511928D01*
X1809090Y513519D01*
X1809314Y515226D01*
Y596540D01*
X1810578Y596556D01*
X1811184Y594295D01*
X1812354Y592267D01*
X1812872Y591750D01*
Y510708D01*
X1787054Y484890D01*
X1786005Y483524D01*
X1785346Y481933D01*
X1785122Y480226D01*
Y363376D01*
X1785346Y361669D01*
X1786005Y360078D01*
X1787054Y358712D01*
X1823053Y322712D01*
X1824420Y321664D01*
X1826011Y321005D01*
X1827718Y320780D01*
X1873706D01*
X1875413Y321005D01*
X1877004Y321664D01*
X1878371Y322712D01*
X1906176Y350518D01*
X1907225Y351884D01*
X1907884Y353475D01*
X1908108Y355182D01*
Y414115D01*
X1908838Y414436D01*
X1909378Y414469D01*
X1910310Y413256D01*
X1917322Y406244D01*
Y343652D01*
X1916354Y342685D01*
X1915184Y340657D01*
X1914578Y338396D01*
Y336056D01*
X1915184Y333795D01*
X1916354Y331767D01*
X1918009Y330112D01*
X1920037Y328942D01*
X1922298Y328336D01*
X1924638D01*
X1926899Y328942D01*
X1928927Y330112D01*
X1930582Y331767D01*
X1931752Y333795D01*
X1932358Y336056D01*
Y338396D01*
X1931752Y340657D01*
X1930582Y342685D01*
X1930515Y342752D01*
Y408976D01*
X1930290Y410683D01*
X1929631Y412274D01*
X1928582Y413640D01*
X1921570Y420653D01*
Y519954D01*
X1923033Y521416D01*
X1923764D01*
X1926025Y522022D01*
X1928053Y523192D01*
X1929708Y524847D01*
X1930878Y526875D01*
X1931484Y529136D01*
Y531476D01*
X1930878Y533737D01*
X1929708Y535765D01*
X1928053Y537420D01*
X1926025Y538590D01*
X1923764Y539196D01*
X1921424D01*
X1919163Y538590D01*
X1917135Y537420D01*
X1915480Y535765D01*
X1914310Y533737D01*
X1913704Y531476D01*
Y530745D01*
X1910310Y527350D01*
X1909378Y526137D01*
X1908838Y526170D01*
X1908108Y526491D01*
Y571151D01*
X1909378Y571582D01*
X1909548Y571362D01*
X1937080Y543830D01*
Y319067D01*
X1926586Y308573D01*
X1833694D01*
X1833177Y309090D01*
X1831149Y310260D01*
X1828888Y310866D01*
X1826548D01*
X1824286Y310260D01*
X1822259Y309090D01*
X1820604Y307435D01*
X1819434Y305408D01*
X1818828Y303147D01*
Y300806D01*
X1819434Y298545D01*
X1820604Y296518D01*
X1822259Y294862D01*
X1824286Y293692D01*
X1826548Y293086D01*
X1828888D01*
X1831149Y293692D01*
X1833177Y294862D01*
X1833694Y295380D01*
X1929318D01*
X1931025Y295605D01*
X1932616Y296264D01*
X1933982Y297312D01*
X1948340Y311670D01*
X1949389Y313036D01*
X1950048Y314627D01*
X1950272Y316334D01*
Y546562D01*
X1950048Y548269D01*
X1949389Y549860D01*
X1948340Y551226D01*
X1920808Y578758D01*
Y588686D01*
X1939508D01*
Y608766D01*
X1920808D01*
Y616791D01*
X1922078Y617317D01*
X1923303Y616092D01*
X1925593Y614770D01*
X1928146Y614086D01*
X1930790D01*
X1933343Y614770D01*
X1935633Y616092D01*
X1937502Y617961D01*
X1938824Y620251D01*
X1939508Y622804D01*
Y625448D01*
X1938824Y628001D01*
X1937502Y630291D01*
X1935633Y632160D01*
X1933343Y633482D01*
X1930790Y634166D01*
X1928146D01*
X1925593Y633482D01*
X1923303Y632160D01*
X1922078Y630935D01*
X1920808Y631461D01*
Y640382D01*
X1920584Y642089D01*
X1920283Y642814D01*
X1921425Y643377D01*
X1921434Y643361D01*
X1923303Y641492D01*
X1925593Y640170D01*
X1928146Y639486D01*
X1930790D01*
X1933343Y640170D01*
X1935633Y641492D01*
X1937502Y643361D01*
X1938824Y645651D01*
X1939508Y648204D01*
Y650848D01*
X1938824Y653401D01*
X1937502Y655691D01*
X1935633Y657560D01*
X1933343Y658882D01*
X1930790Y659566D01*
X1928146D01*
X1925593Y658882D01*
X1923303Y657560D01*
X1921434Y655691D01*
X1920112Y653401D01*
X1919428Y650848D01*
Y648204D01*
X1920112Y645651D01*
X1920412Y645131D01*
X1919354Y644424D01*
X1918876Y645046D01*
X1909732Y654190D01*
X1908366Y655239D01*
X1906775Y655898D01*
X1905068Y656122D01*
X1895713D01*
X1893912Y658470D01*
X1891292Y660480D01*
X1888736Y661539D01*
Y662913D01*
X1891292Y663972D01*
X1893912Y665982D01*
X1895847Y668505D01*
X1921691D01*
X1923303Y666892D01*
X1925593Y665570D01*
X1928146Y664886D01*
X1930790D01*
X1933343Y665570D01*
X1935633Y666892D01*
X1937502Y668761D01*
X1938824Y671051D01*
X1939508Y673604D01*
Y676248D01*
X1938824Y678801D01*
X1937502Y681091D01*
X1935633Y682960D01*
X1933343Y684282D01*
X1930790Y684966D01*
X1928146D01*
X1925593Y684282D01*
X1923303Y682960D01*
X1922041Y681697D01*
X1895578D01*
X1893912Y683870D01*
X1891292Y685880D01*
X1888736Y686939D01*
Y688313D01*
X1891292Y689372D01*
X1893912Y691382D01*
X1895922Y694002D01*
X1897185Y697052D01*
X1897616Y700326D01*
X1897185Y703600D01*
X1895922Y706650D01*
X1893912Y709270D01*
X1891292Y711280D01*
X1888736Y712339D01*
Y713713D01*
X1891292Y714772D01*
X1893912Y716782D01*
X1895922Y719402D01*
X1897185Y722452D01*
X1897616Y725726D01*
X1897185Y729000D01*
X1895922Y732050D01*
X1893912Y734670D01*
X1891292Y736680D01*
X1888736Y737739D01*
Y739113D01*
X1891292Y740172D01*
X1893912Y742182D01*
X1895922Y744802D01*
X1897185Y747852D01*
X1897616Y751126D01*
X1897185Y754400D01*
X1895922Y757450D01*
X1893912Y760070D01*
X1891292Y762080D01*
X1888736Y763139D01*
Y764513D01*
X1891292Y765572D01*
X1893912Y767582D01*
X1895922Y770202D01*
X1897185Y773252D01*
X1897616Y776526D01*
X1897185Y779800D01*
X1895922Y782850D01*
X1893912Y785470D01*
X1891292Y787480D01*
X1888242Y788743D01*
X1884968Y789174D01*
X1879968D01*
X1876694Y788743D01*
X1873644Y787480D01*
X1871024Y785470D01*
X1869014Y782850D01*
X1867751Y779800D01*
X1867320Y776526D01*
X1867751Y773252D01*
X1869014Y770202D01*
X1871024Y767582D01*
X1873644Y765572D01*
X1876201Y764513D01*
Y763139D01*
X1873644Y762080D01*
X1871024Y760070D01*
X1869014Y757450D01*
X1867751Y754400D01*
X1867320Y751126D01*
X1867751Y747852D01*
X1869014Y744802D01*
X1871024Y742182D01*
X1873644Y740172D01*
X1876201Y739113D01*
Y737739D01*
X1873644Y736680D01*
X1871024Y734670D01*
X1869014Y732050D01*
X1867751Y729000D01*
X1867320Y725726D01*
X1867751Y722452D01*
X1869014Y719402D01*
X1871024Y716782D01*
X1873644Y714772D01*
X1876201Y713713D01*
Y712339D01*
X1873644Y711280D01*
X1871024Y709270D01*
X1869014Y706650D01*
X1867751Y703600D01*
X1867320Y700326D01*
X1867751Y697052D01*
X1869014Y694002D01*
X1871024Y691382D01*
X1873644Y689372D01*
X1876201Y688313D01*
Y686939D01*
X1873644Y685880D01*
X1871024Y683870D01*
X1869014Y681250D01*
X1867751Y678200D01*
X1867320Y674926D01*
X1867751Y671652D01*
X1869014Y668602D01*
X1871024Y665982D01*
X1873644Y663972D01*
X1876201Y662913D01*
Y661539D01*
X1873644Y660480D01*
X1871024Y658470D01*
X1869014Y655850D01*
X1867751Y652800D01*
X1867320Y649526D01*
X1867751Y646252D01*
X1869014Y643202D01*
X1871024Y640582D01*
X1873644Y638572D01*
X1876201Y637513D01*
Y636139D01*
X1873644Y635080D01*
X1871024Y633070D01*
X1869014Y630450D01*
X1867751Y627400D01*
X1867320Y624126D01*
X1867751Y620852D01*
X1869014Y617802D01*
X1871024Y615182D01*
X1873644Y613172D01*
X1876201Y612113D01*
Y610739D01*
X1873644Y609680D01*
X1871024Y607670D01*
X1869014Y605050D01*
X1867751Y602000D01*
X1867320Y598726D01*
X1867751Y595452D01*
X1869014Y592402D01*
X1871024Y589782D01*
X1873644Y587772D01*
X1876201Y586713D01*
Y585339D01*
X1873644Y584280D01*
X1871024Y582270D01*
X1869014Y579650D01*
X1867751Y576600D01*
X1867320Y573326D01*
X1867751Y570052D01*
X1869014Y567002D01*
X1871024Y564382D01*
X1873644Y562372D01*
X1876201Y561313D01*
Y559939D01*
X1873644Y558880D01*
X1871024Y556870D01*
X1869014Y554250D01*
X1867751Y551200D01*
X1867320Y547926D01*
X1867751Y544652D01*
X1869014Y541602D01*
X1871024Y538982D01*
X1873644Y536972D01*
X1876201Y535913D01*
Y534539D01*
X1873644Y533480D01*
X1871024Y531470D01*
X1870084Y530245D01*
X1868814Y530676D01*
Y534670D01*
X1868590Y536377D01*
X1867931Y537968D01*
X1866882Y539334D01*
X1852788Y553429D01*
X1853358Y555556D01*
Y557896D01*
X1852752Y560157D01*
X1851582Y562185D01*
X1849927Y563840D01*
X1847899Y565010D01*
X1845638Y565616D01*
X1843298D01*
X1841037Y565010D01*
X1839009Y563840D01*
X1837354Y562185D01*
X1836184Y560157D01*
X1835578Y557896D01*
Y555556D01*
X1836184Y553295D01*
X1837354Y551267D01*
X1838229Y550393D01*
X1838755Y549122D01*
X1839804Y547756D01*
X1855622Y531938D01*
Y483759D01*
X1854352Y483419D01*
X1853502Y484891D01*
X1851633Y486760D01*
X1849343Y488082D01*
X1846790Y488766D01*
X1844146D01*
X1841593Y488082D01*
X1839303Y486760D01*
X1837434Y484891D01*
X1836112Y482601D01*
X1835428Y480048D01*
Y477404D01*
X1836112Y474851D01*
X1837434Y472561D01*
X1839303Y470692D01*
X1841593Y469370D01*
X1844146Y468686D01*
X1846790D01*
X1849343Y469370D01*
X1851633Y470692D01*
X1853502Y472561D01*
X1854352Y474033D01*
X1855622Y473693D01*
Y426476D01*
X1855846Y424769D01*
X1856505Y423178D01*
X1857554Y421812D01*
X1863104Y416262D01*
X1864470Y415213D01*
X1866061Y414554D01*
X1867428Y414374D01*
Y408386D01*
X1894916D01*
Y357915D01*
X1870974Y333973D01*
X1830450D01*
X1798314Y366109D01*
Y477494D01*
X1824132Y503312D01*
X1825181Y504678D01*
X1825840Y506269D01*
X1826064Y507976D01*
Y591750D01*
X1826582Y592267D01*
X1827752Y594295D01*
X1828358Y596556D01*
Y598896D01*
X1827752Y601157D01*
X1826582Y603185D01*
X1824927Y604840D01*
X1822899Y606010D01*
X1820638Y606616D01*
X1818298D01*
X1816037Y606010D01*
X1814009Y604840D01*
X1812354Y603185D01*
X1811184Y601157D01*
X1810578Y598896D01*
X1809314Y598912D01*
Y637720D01*
X1810584Y637887D01*
X1810712Y637411D01*
X1812034Y635121D01*
X1813903Y633252D01*
X1816193Y631930D01*
X1818746Y631246D01*
X1821390D01*
X1823943Y631930D01*
X1826233Y633252D01*
X1828102Y635121D01*
X1829424Y637411D01*
X1830108Y639964D01*
Y642608D01*
X1829424Y645161D01*
X1828102Y647451D01*
X1826233Y649320D01*
X1823943Y650642D01*
X1821390Y651326D01*
X1818746D01*
X1816193Y650642D01*
X1813903Y649320D01*
X1812034Y647451D01*
X1810712Y645161D01*
X1810584Y644685D01*
X1809314Y644852D01*
Y657244D01*
X1836504Y684434D01*
X1837552Y685800D01*
X1838212Y687391D01*
X1838436Y689098D01*
Y695725D01*
X1838414Y695891D01*
Y722871D01*
X1839142Y723172D01*
X1841762Y725182D01*
X1843772Y727802D01*
X1845035Y730852D01*
X1845466Y734126D01*
Y739126D01*
X1845035Y742400D01*
X1843772Y745450D01*
X1841762Y748070D01*
X1839142Y750080D01*
X1836092Y751343D01*
X1832818Y751774D01*
X1829544Y751343D01*
X1826494Y750080D01*
X1823874Y748070D01*
X1821864Y745450D01*
X1820805Y742893D01*
X1819431D01*
X1818372Y745450D01*
X1816362Y748070D01*
X1813742Y750080D01*
X1810692Y751343D01*
X1807418Y751774D01*
X1804144Y751343D01*
X1801094Y750080D01*
X1798474Y748070D01*
X1796464Y745450D01*
X1795201Y742400D01*
X1794770Y739126D01*
Y734126D01*
X1795201Y730852D01*
X1796464Y727802D01*
X1798474Y725182D01*
X1801094Y723172D01*
X1804144Y721909D01*
X1807418Y721478D01*
X1810692Y721909D01*
X1813742Y723172D01*
X1816362Y725182D01*
X1818372Y727802D01*
X1819431Y730359D01*
X1820805D01*
X1821864Y727802D01*
X1823874Y725182D01*
X1825222Y724149D01*
Y695747D01*
X1825243Y695581D01*
Y691830D01*
X1798054Y664640D01*
X1797005Y663274D01*
X1796346Y661683D01*
X1796122Y659976D01*
Y517958D01*
X1792780Y514617D01*
X1791703Y515336D01*
X1792090Y516269D01*
X1792314Y517976D01*
Y646726D01*
X1792090Y648433D01*
X1791431Y650024D01*
X1790382Y651390D01*
X1757064Y684708D01*
Y687186D01*
X1763008D01*
Y717266D01*
X1737928D01*
Y709766D01*
X1736658Y709514D01*
X1736022Y711050D01*
X1734012Y713670D01*
X1731392Y715680D01*
X1728342Y716943D01*
X1725068Y717374D01*
X1721794Y716943D01*
X1718744Y715680D01*
X1716124Y713670D01*
X1714114Y711050D01*
X1712851Y708000D01*
X1712420Y704726D01*
Y699726D01*
X1712851Y696452D01*
X1714114Y693402D01*
X1716124Y690782D01*
X1718744Y688772D01*
X1720768Y687934D01*
Y626404D01*
X1686892Y592528D01*
X1660720D01*
X1659013Y592304D01*
X1657422Y591645D01*
X1656056Y590596D01*
X1645382Y579922D01*
X1641713D01*
X1639912Y582270D01*
X1637292Y584280D01*
X1634736Y585339D01*
Y586713D01*
X1637292Y587772D01*
X1639912Y589782D01*
X1641713Y592130D01*
X1653468D01*
X1655175Y592354D01*
X1656766Y593013D01*
X1658132Y594062D01*
X1680700Y616630D01*
X1696468D01*
X1698175Y616854D01*
X1699766Y617513D01*
X1701132Y618562D01*
X1712632Y630062D01*
X1713681Y631428D01*
X1714340Y633019D01*
X1714564Y634726D01*
Y659476D01*
X1714340Y661183D01*
X1713681Y662774D01*
X1712632Y664140D01*
X1699015Y677758D01*
Y688981D01*
X1701362Y690782D01*
X1703372Y693402D01*
X1704635Y696452D01*
X1705066Y699726D01*
Y704726D01*
X1704635Y708000D01*
X1703372Y711050D01*
X1701362Y713670D01*
X1698742Y715680D01*
X1695692Y716943D01*
X1692418Y717374D01*
X1689145Y716943D01*
X1686094Y715680D01*
X1683474Y713670D01*
X1681465Y711050D01*
X1680405Y708493D01*
X1679031D01*
X1677972Y711050D01*
X1675962Y713670D01*
X1673342Y715680D01*
X1670292Y716943D01*
X1667018Y717374D01*
X1663745Y716943D01*
X1660694Y715680D01*
X1658074Y713670D01*
X1656064Y711050D01*
X1654801Y708000D01*
X1654370Y704726D01*
Y699726D01*
X1654801Y696452D01*
X1656064Y693402D01*
X1658074Y690782D01*
X1659950Y689343D01*
Y685037D01*
X1644054Y669140D01*
X1643005Y667774D01*
X1642346Y666183D01*
X1642122Y664476D01*
Y657676D01*
X1640852Y657245D01*
X1639912Y658470D01*
X1637292Y660480D01*
X1634736Y661539D01*
Y662913D01*
X1637292Y663972D01*
X1639912Y665982D01*
X1641922Y668602D01*
X1643185Y671652D01*
X1643616Y674926D01*
X1643185Y678200D01*
X1641922Y681250D01*
X1639912Y683870D01*
X1637292Y685880D01*
X1634736Y686939D01*
Y688313D01*
X1637292Y689372D01*
X1639912Y691382D01*
X1641922Y694002D01*
X1643185Y697052D01*
X1643616Y700326D01*
X1643185Y703600D01*
X1641922Y706650D01*
X1639912Y709270D01*
X1637292Y711280D01*
X1634736Y712339D01*
Y713713D01*
X1637292Y714772D01*
X1639912Y716782D01*
X1641922Y719402D01*
X1643185Y722452D01*
X1643616Y725726D01*
X1643185Y729000D01*
X1641922Y732050D01*
X1639912Y734670D01*
X1637292Y736680D01*
X1634736Y737739D01*
Y739113D01*
X1637292Y740172D01*
X1639912Y742182D01*
X1641922Y744802D01*
X1643185Y747852D01*
X1643616Y751126D01*
X1643185Y754400D01*
X1641922Y757450D01*
X1639912Y760070D01*
X1637292Y762080D01*
X1634736Y763139D01*
Y764513D01*
X1637292Y765572D01*
X1639912Y767582D01*
X1641922Y770202D01*
X1643185Y773252D01*
X1643616Y776526D01*
X1643185Y779800D01*
X1641922Y782850D01*
X1639912Y785470D01*
X1637292Y787480D01*
X1634242Y788743D01*
X1630968Y789174D01*
X1625968D01*
X1622695Y788743D01*
X1619644Y787480D01*
X1617025Y785470D01*
X1615014Y782850D01*
X1613751Y779800D01*
X1613320Y776526D01*
X1613751Y773252D01*
X1615014Y770202D01*
X1617025Y767582D01*
X1619644Y765572D01*
X1622201Y764513D01*
Y763139D01*
X1619644Y762080D01*
X1617025Y760070D01*
X1615014Y757450D01*
X1613751Y754400D01*
X1613320Y751126D01*
X1613751Y747852D01*
X1615014Y744802D01*
X1617025Y742182D01*
X1619644Y740172D01*
X1622201Y739113D01*
Y737739D01*
X1619644Y736680D01*
X1617025Y734670D01*
X1615014Y732050D01*
X1613751Y729000D01*
X1613320Y725726D01*
X1613751Y722452D01*
X1615014Y719402D01*
X1617025Y716782D01*
X1619644Y714772D01*
X1622201Y713713D01*
Y712339D01*
X1619644Y711280D01*
X1617025Y709270D01*
X1615014Y706650D01*
X1613751Y703600D01*
X1613320Y700326D01*
X1613751Y697052D01*
X1615014Y694002D01*
X1617025Y691382D01*
X1619644Y689372D01*
X1622201Y688313D01*
Y686939D01*
X1619644Y685880D01*
X1617025Y683870D01*
X1615014Y681250D01*
X1613751Y678200D01*
X1613320Y674926D01*
X1613751Y671652D01*
X1615014Y668602D01*
X1617025Y665982D01*
X1619644Y663972D01*
X1622201Y662913D01*
Y661539D01*
X1619644Y660480D01*
X1617025Y658470D01*
X1615014Y655850D01*
X1613751Y652800D01*
X1613320Y649526D01*
X1613751Y646252D01*
X1615014Y643202D01*
X1617025Y640582D01*
X1619644Y638572D01*
X1622201Y637513D01*
Y636139D01*
X1619644Y635080D01*
X1617025Y633070D01*
X1615014Y630450D01*
X1613751Y627400D01*
X1613320Y624126D01*
X1613751Y620852D01*
X1615014Y617802D01*
X1617025Y615182D01*
X1619644Y613172D01*
X1622201Y612113D01*
Y610739D01*
X1619644Y609680D01*
X1617025Y607670D01*
X1615014Y605050D01*
X1613751Y602000D01*
X1613320Y598726D01*
X1613751Y595452D01*
X1615014Y592402D01*
X1617025Y589782D01*
X1619644Y587772D01*
X1622201Y586713D01*
Y585339D01*
X1619644Y584280D01*
X1617025Y582270D01*
X1615014Y579650D01*
X1613751Y576600D01*
X1613320Y573326D01*
X1613751Y570052D01*
X1615014Y567002D01*
X1617025Y564382D01*
X1619644Y562372D01*
X1622201Y561313D01*
Y559939D01*
X1619644Y558880D01*
X1617025Y556870D01*
X1615014Y554250D01*
X1613751Y551200D01*
X1613320Y547926D01*
X1613751Y544652D01*
X1615014Y541602D01*
X1617025Y538982D01*
X1619644Y536972D01*
X1622201Y535913D01*
Y534539D01*
X1619644Y533480D01*
X1617025Y531470D01*
X1615014Y528850D01*
X1613751Y525800D01*
X1613320Y522526D01*
X1613751Y519252D01*
X1615014Y516202D01*
X1617025Y513582D01*
X1619644Y511572D01*
X1622201Y510513D01*
Y509139D01*
X1619644Y508080D01*
X1617025Y506070D01*
X1615014Y503450D01*
X1613751Y500400D01*
X1613320Y497126D01*
X1613751Y493852D01*
X1615014Y490802D01*
X1617025Y488182D01*
X1619644Y486172D01*
X1622201Y485113D01*
Y483739D01*
X1619644Y482680D01*
X1617025Y480670D01*
X1615014Y478050D01*
X1613751Y475000D01*
X1613320Y471726D01*
X1613751Y468452D01*
X1615014Y465402D01*
X1617025Y462782D01*
X1619644Y460772D01*
X1622201Y459713D01*
Y458339D01*
X1619644Y457280D01*
X1617025Y455270D01*
X1615223Y452922D01*
X1606568D01*
X1604861Y452698D01*
X1603270Y452039D01*
X1601904Y450990D01*
X1590054Y439140D01*
X1589005Y437774D01*
X1588346Y436183D01*
X1588122Y434476D01*
Y403726D01*
X1530218D01*
X1523395Y396903D01*
X1522221Y397388D01*
X1521968Y773726D01*
X1547718Y799476D01*
X1577122Y799419D01*
D02*
G37*
G36*
X2141525Y693402D02*
X2143535Y690782D01*
X2145882Y688981D01*
Y675026D01*
X2146107Y673318D01*
X2146765Y671728D01*
X2147814Y670361D01*
X2161432Y656744D01*
Y637458D01*
X2153796Y629822D01*
X2138028D01*
X2136321Y629598D01*
X2134730Y628939D01*
X2133364Y627890D01*
X2110796Y605322D01*
X2101773D01*
X2099972Y607670D01*
X2097352Y609680D01*
X2094796Y610739D01*
Y612113D01*
X2097352Y613172D01*
X2099972Y615182D01*
X2101982Y617802D01*
X2103245Y620852D01*
X2103676Y624126D01*
X2103668Y624190D01*
X2113442Y633964D01*
X2114300Y635082D01*
X2115679Y635233D01*
X2115744Y635121D01*
X2117613Y633252D01*
X2119903Y631930D01*
X2122456Y631246D01*
X2125100D01*
X2127653Y631930D01*
X2129943Y633252D01*
X2131812Y635121D01*
X2133134Y637411D01*
X2133818Y639964D01*
Y642608D01*
X2133134Y645161D01*
X2131812Y647451D01*
X2129943Y649320D01*
X2127653Y650642D01*
X2125100Y651326D01*
X2122456D01*
X2119903Y650642D01*
X2117613Y649320D01*
X2116644Y648351D01*
X2115374Y648877D01*
Y661744D01*
X2131271Y677640D01*
X2132319Y679006D01*
X2132978Y680597D01*
X2133203Y682305D01*
Y688690D01*
X2133402Y688772D01*
X2136022Y690782D01*
X2138032Y693402D01*
X2139091Y695959D01*
X2140466D01*
X2141525Y693402D01*
D02*
G37*
G36*
X1681465D02*
X1683474Y690782D01*
X1685822Y688981D01*
Y675026D01*
X1686046Y673318D01*
X1686705Y671728D01*
X1687754Y670361D01*
X1701372Y656744D01*
Y637458D01*
X1693736Y629822D01*
X1677968D01*
X1676261Y629598D01*
X1674670Y628939D01*
X1673304Y627890D01*
X1650736Y605322D01*
X1641713D01*
X1639912Y607670D01*
X1637292Y609680D01*
X1634736Y610739D01*
Y612113D01*
X1637292Y613172D01*
X1639912Y615182D01*
X1641922Y617802D01*
X1643185Y620852D01*
X1643616Y624126D01*
X1643608Y624190D01*
X1653382Y633964D01*
X1654240Y635082D01*
X1655619Y635233D01*
X1655684Y635121D01*
X1657553Y633252D01*
X1659843Y631930D01*
X1662396Y631246D01*
X1665040D01*
X1667593Y631930D01*
X1669883Y633252D01*
X1671752Y635121D01*
X1673074Y637411D01*
X1673758Y639964D01*
Y642608D01*
X1673074Y645161D01*
X1671752Y647451D01*
X1669883Y649320D01*
X1667593Y650642D01*
X1665040Y651326D01*
X1662396D01*
X1659843Y650642D01*
X1657553Y649320D01*
X1656584Y648351D01*
X1655314Y648877D01*
Y661744D01*
X1671211Y677640D01*
X1672259Y679006D01*
X1672918Y680597D01*
X1673143Y682305D01*
Y688690D01*
X1673342Y688772D01*
X1675962Y690782D01*
X1677972Y693402D01*
X1679031Y695959D01*
X1680405D01*
X1681465Y693402D01*
D02*
G37*
G36*
X2367676Y637650D02*
Y614351D01*
X2366406Y613920D01*
X2366236Y614140D01*
X2357510Y622866D01*
X2357676Y624126D01*
X2357245Y627400D01*
X2355982Y630450D01*
X2353972Y633070D01*
X2351352Y635080D01*
X2348795Y636139D01*
Y637513D01*
X2351352Y638572D01*
X2353972Y640582D01*
X2355773Y642930D01*
X2362396D01*
X2367676Y637650D01*
D02*
G37*
G36*
X1907616D02*
Y614351D01*
X1906346Y613920D01*
X1906176Y614140D01*
X1897451Y622866D01*
X1897616Y624126D01*
X1897185Y627400D01*
X1895922Y630450D01*
X1893912Y633070D01*
X1891292Y635080D01*
X1888736Y636139D01*
Y637513D01*
X1891292Y638572D01*
X1893912Y640582D01*
X1895713Y642930D01*
X1902336D01*
X1907616Y637650D01*
D02*
G37*
G36*
X2197988Y694686D02*
Y687186D01*
X2203932D01*
Y681976D01*
X2204156Y680269D01*
X2204815Y678678D01*
X2205864Y677312D01*
X2239182Y643994D01*
Y520708D01*
X2232546Y514072D01*
X2147010D01*
X2109649Y551434D01*
X2108283Y552482D01*
X2106692Y553141D01*
X2104984Y553366D01*
X2102348D01*
X2101982Y554250D01*
X2099972Y556870D01*
X2097352Y558880D01*
X2094796Y559939D01*
Y561313D01*
X2097352Y562372D01*
X2099972Y564382D01*
X2101773Y566730D01*
X2108174D01*
X2109881Y566954D01*
X2111472Y567613D01*
X2112838Y568662D01*
X2123512Y579336D01*
X2149684D01*
X2151391Y579560D01*
X2152982Y580219D01*
X2154348Y581268D01*
X2192088Y619007D01*
X2193137Y620374D01*
X2193796Y621965D01*
X2194021Y623672D01*
Y690743D01*
X2194072Y690782D01*
X2196082Y693402D01*
X2196718Y694938D01*
X2197988Y694686D01*
D02*
G37*
G36*
X1737928D02*
Y687186D01*
X1743872D01*
Y681976D01*
X1744096Y680269D01*
X1744755Y678678D01*
X1745804Y677312D01*
X1779122Y643994D01*
Y520708D01*
X1772486Y514072D01*
X1686950D01*
X1649589Y551434D01*
X1648223Y552482D01*
X1646632Y553141D01*
X1644924Y553366D01*
X1642288D01*
X1641922Y554250D01*
X1639912Y556870D01*
X1637292Y558880D01*
X1634736Y559939D01*
Y561313D01*
X1637292Y562372D01*
X1639912Y564382D01*
X1641713Y566730D01*
X1648114D01*
X1649821Y566954D01*
X1651412Y567613D01*
X1652778Y568662D01*
X1663452Y579336D01*
X1689624D01*
X1691331Y579560D01*
X1692922Y580219D01*
X1694289Y581268D01*
X1732029Y619007D01*
X1733077Y620374D01*
X1733736Y621965D01*
X1733961Y623672D01*
Y690743D01*
X1734012Y690782D01*
X1736022Y693402D01*
X1736658Y694938D01*
X1737928Y694686D01*
D02*
G37*
G36*
X2139614Y502812D02*
X2140980Y501763D01*
X2142571Y501104D01*
X2144278Y500880D01*
X2235278D01*
X2236985Y501104D01*
X2237918Y501491D01*
X2238637Y500414D01*
X2200190Y461966D01*
X2199141Y460600D01*
X2198482Y459009D01*
X2198258Y457302D01*
Y342534D01*
X2191449Y335726D01*
X2129278D01*
X2091278Y373726D01*
Y403726D01*
X2061374D01*
Y431744D01*
X2069360Y439729D01*
X2075283D01*
X2077084Y437382D01*
X2079704Y435372D01*
X2081240Y434736D01*
X2080988Y433466D01*
X2073488D01*
Y423426D01*
X2103568D01*
Y433466D01*
X2096069D01*
X2095816Y434736D01*
X2097352Y435372D01*
X2099972Y437382D01*
X2101982Y440002D01*
X2103245Y443052D01*
X2103676Y446326D01*
X2103245Y449600D01*
X2101982Y452650D01*
X2099972Y455270D01*
X2097352Y457280D01*
X2094796Y458339D01*
Y459713D01*
X2097352Y460772D01*
X2099972Y462782D01*
X2101982Y465402D01*
X2103245Y468452D01*
X2103676Y471726D01*
X2103245Y475000D01*
X2101982Y478050D01*
X2099972Y480670D01*
X2097352Y482680D01*
X2094796Y483739D01*
Y485113D01*
X2097352Y486172D01*
X2099972Y488182D01*
X2101982Y490802D01*
X2103245Y493852D01*
X2103676Y497126D01*
X2103245Y500400D01*
X2101982Y503450D01*
X2099972Y506070D01*
X2097352Y508080D01*
X2094796Y509139D01*
Y510513D01*
X2097352Y511572D01*
X2099972Y513582D01*
X2101982Y516202D01*
X2103245Y519252D01*
X2103676Y522526D01*
X2103245Y525800D01*
X2101982Y528850D01*
X2099972Y531470D01*
X2097352Y533480D01*
X2094796Y534539D01*
Y535913D01*
X2097352Y536972D01*
X2099972Y538982D01*
X2100885Y540173D01*
X2102252D01*
X2139614Y502812D01*
D02*
G37*
G36*
X1679554D02*
X1680920Y501763D01*
X1682511Y501104D01*
X1684218Y500880D01*
X1775218D01*
X1776925Y501104D01*
X1777858Y501491D01*
X1778577Y500414D01*
X1740130Y461966D01*
X1739081Y460600D01*
X1738422Y459009D01*
X1738198Y457302D01*
Y342534D01*
X1731389Y335726D01*
X1669218D01*
X1631218Y373726D01*
Y403726D01*
X1601314D01*
Y431744D01*
X1609300Y439729D01*
X1615223D01*
X1617025Y437382D01*
X1619644Y435372D01*
X1621180Y434736D01*
X1620928Y433466D01*
X1613428D01*
Y423426D01*
X1643508D01*
Y433466D01*
X1636009D01*
X1635756Y434736D01*
X1637292Y435372D01*
X1639912Y437382D01*
X1641922Y440002D01*
X1643185Y443052D01*
X1643616Y446326D01*
X1643185Y449600D01*
X1641922Y452650D01*
X1639912Y455270D01*
X1637292Y457280D01*
X1634736Y458339D01*
Y459713D01*
X1637292Y460772D01*
X1639912Y462782D01*
X1641922Y465402D01*
X1643185Y468452D01*
X1643616Y471726D01*
X1643185Y475000D01*
X1641922Y478050D01*
X1639912Y480670D01*
X1637292Y482680D01*
X1634736Y483739D01*
Y485113D01*
X1637292Y486172D01*
X1639912Y488182D01*
X1641922Y490802D01*
X1643185Y493852D01*
X1643616Y497126D01*
X1643185Y500400D01*
X1641922Y503450D01*
X1639912Y506070D01*
X1637292Y508080D01*
X1634736Y509139D01*
Y510513D01*
X1637292Y511572D01*
X1639912Y513582D01*
X1641922Y516202D01*
X1643185Y519252D01*
X1643616Y522526D01*
X1643185Y525800D01*
X1641922Y528850D01*
X1639912Y531470D01*
X1637292Y533480D01*
X1634736Y534539D01*
Y535913D01*
X1637292Y536972D01*
X1639912Y538982D01*
X1640826Y540173D01*
X1642192D01*
X1679554Y502812D01*
D02*
G37*
%LPC*%
G36*
X2035318Y798066D02*
X2028278D01*
Y791026D01*
X2035318D01*
Y798066D01*
D02*
G37*
G36*
X2023278D02*
X2016238D01*
Y791026D01*
X2023278D01*
Y798066D01*
D02*
G37*
G36*
X2035318Y786026D02*
X2028278D01*
Y778986D01*
X2035318D01*
Y786026D01*
D02*
G37*
G36*
X2023278D02*
X2016238D01*
Y778986D01*
X2023278D01*
Y786026D01*
D02*
G37*
G36*
X2390850Y786566D02*
X2388206D01*
X2385653Y785882D01*
X2383363Y784560D01*
X2381494Y782691D01*
X2380172Y780401D01*
X2379488Y777848D01*
Y775204D01*
X2380172Y772651D01*
X2381494Y770361D01*
X2383363Y768492D01*
X2385653Y767170D01*
X2388206Y766486D01*
X2390850D01*
X2393403Y767170D01*
X2395693Y768492D01*
X2397562Y770361D01*
X2398884Y772651D01*
X2399568Y775204D01*
Y777848D01*
X2398884Y780401D01*
X2397562Y782691D01*
X2395693Y784560D01*
X2393403Y785882D01*
X2390850Y786566D01*
D02*
G37*
G36*
Y761166D02*
X2388206D01*
X2385653Y760482D01*
X2383363Y759160D01*
X2381494Y757291D01*
X2380172Y755001D01*
X2379488Y752448D01*
Y749804D01*
X2380172Y747251D01*
X2381494Y744961D01*
X2383363Y743092D01*
X2385653Y741770D01*
X2388206Y741086D01*
X2390850D01*
X2393403Y741770D01*
X2395693Y743092D01*
X2397562Y744961D01*
X2398884Y747251D01*
X2399568Y749804D01*
Y752448D01*
X2398884Y755001D01*
X2397562Y757291D01*
X2395693Y759160D01*
X2393403Y760482D01*
X2390850Y761166D01*
D02*
G37*
G36*
Y735766D02*
X2388206D01*
X2385653Y735082D01*
X2383363Y733760D01*
X2381494Y731891D01*
X2380172Y729601D01*
X2379488Y727048D01*
Y724404D01*
X2380172Y721851D01*
X2381494Y719561D01*
X2383363Y717692D01*
X2385653Y716370D01*
X2388206Y715686D01*
X2390850D01*
X2393403Y716370D01*
X2395693Y717692D01*
X2397562Y719561D01*
X2398884Y721851D01*
X2399568Y724404D01*
Y727048D01*
X2398884Y729601D01*
X2397562Y731891D01*
X2395693Y733760D01*
X2393403Y735082D01*
X2390850Y735766D01*
D02*
G37*
G36*
Y710366D02*
X2388206D01*
X2385653Y709682D01*
X2383363Y708360D01*
X2381494Y706491D01*
X2380172Y704201D01*
X2379488Y701648D01*
Y699004D01*
X2380172Y696451D01*
X2381494Y694161D01*
X2383363Y692292D01*
X2385653Y690970D01*
X2388206Y690286D01*
X2390850D01*
X2393403Y690970D01*
X2395693Y692292D01*
X2397562Y694161D01*
X2398884Y696451D01*
X2399568Y699004D01*
Y701648D01*
X2398884Y704201D01*
X2397562Y706491D01*
X2395693Y708360D01*
X2393403Y709682D01*
X2390850Y710366D01*
D02*
G37*
G36*
X2029501Y668266D02*
X2027055D01*
X2024692Y667633D01*
X2022574Y666410D01*
X2020844Y664680D01*
X2019621Y662562D01*
X2018988Y660199D01*
Y657753D01*
X2019621Y655390D01*
X2020844Y653272D01*
X2022574Y651542D01*
X2024692Y650319D01*
X2027055Y649686D01*
X2029501D01*
X2031864Y650319D01*
X2033982Y651542D01*
X2035712Y653272D01*
X2036935Y655390D01*
X2037568Y657753D01*
Y660199D01*
X2036935Y662562D01*
X2035712Y664680D01*
X2033982Y666410D01*
X2031864Y667633D01*
X2029501Y668266D01*
D02*
G37*
G36*
X2056278Y650260D02*
Y644226D01*
X2062312D01*
X2062062Y645157D01*
X2060892Y647185D01*
X2059237Y648840D01*
X2057209Y650010D01*
X2056278Y650260D01*
D02*
G37*
G36*
X2051278D02*
X2050347Y650010D01*
X2048319Y648840D01*
X2046664Y647185D01*
X2045494Y645157D01*
X2045244Y644226D01*
X2051278D01*
Y650260D01*
D02*
G37*
G36*
X2062312Y639226D02*
X2056278D01*
Y633192D01*
X2057209Y633442D01*
X2059237Y634612D01*
X2060892Y636267D01*
X2062062Y638295D01*
X2062312Y639226D01*
D02*
G37*
G36*
X2051278D02*
X2045244D01*
X2045494Y638295D01*
X2046664Y636267D01*
X2048319Y634612D01*
X2050347Y633442D01*
X2051278Y633192D01*
Y639226D01*
D02*
G37*
G36*
X2306850Y651326D02*
X2304206D01*
X2301653Y650642D01*
X2299363Y649320D01*
X2297494Y647451D01*
X2296172Y645161D01*
X2295488Y642608D01*
Y639964D01*
X2296172Y637411D01*
X2297494Y635121D01*
X2299363Y633252D01*
X2301653Y631930D01*
X2304206Y631246D01*
X2306850D01*
X2309403Y631930D01*
X2311693Y633252D01*
X2313562Y635121D01*
X2314884Y637411D01*
X2315568Y639964D01*
Y642608D01*
X2314884Y645161D01*
X2313562Y647451D01*
X2311693Y649320D01*
X2309403Y650642D01*
X2306850Y651326D01*
D02*
G37*
G36*
X2023028Y608016D02*
X2019528D01*
X2016148Y607110D01*
X2013118Y605361D01*
X2010643Y602886D01*
X2008894Y599856D01*
X2007988Y596476D01*
Y592976D01*
X2008894Y589596D01*
X2010643Y586566D01*
X2013118Y584091D01*
X2016148Y582342D01*
X2019528Y581436D01*
X2023028D01*
X2026408Y582342D01*
X2029438Y584091D01*
X2031913Y586566D01*
X2033662Y589596D01*
X2034568Y592976D01*
Y596476D01*
X2033662Y599856D01*
X2031913Y602886D01*
X2029438Y605361D01*
X2026408Y607110D01*
X2023028Y608016D01*
D02*
G37*
G36*
X2034568Y568416D02*
X2007988D01*
Y541836D01*
X2025239D01*
X2034682Y532394D01*
Y516492D01*
X2033733Y516238D01*
X2033412Y516237D01*
X2030938Y518711D01*
X2027908Y520460D01*
X2024528Y521366D01*
X2021028D01*
X2017648Y520460D01*
X2014618Y518711D01*
X2012144Y516236D01*
X2010394Y513206D01*
X2009488Y509826D01*
Y506326D01*
X2010394Y502946D01*
X2012144Y499916D01*
X2014618Y497441D01*
X2017648Y495692D01*
X2021028Y494786D01*
X2024528D01*
X2027908Y495692D01*
X2030938Y497441D01*
X2033412Y499914D01*
X2033733Y499914D01*
X2034682Y499660D01*
Y489708D01*
X2026272Y481298D01*
X2024528Y481766D01*
X2021028D01*
X2017648Y480860D01*
X2014618Y479110D01*
X2012144Y476636D01*
X2010394Y473606D01*
X2009488Y470225D01*
Y466726D01*
X2010394Y463346D01*
X2012144Y460316D01*
X2014618Y457841D01*
X2017648Y456091D01*
X2021028Y455186D01*
X2024528D01*
X2027908Y456091D01*
X2030938Y457841D01*
X2033413Y460316D01*
X2035163Y463346D01*
X2036068Y466726D01*
Y470225D01*
X2035601Y471970D01*
X2045942Y482311D01*
X2046991Y483677D01*
X2047650Y485268D01*
X2047874Y486976D01*
Y535126D01*
X2047650Y536833D01*
X2046991Y538424D01*
X2045942Y539790D01*
X2034568Y551165D01*
Y568416D01*
D02*
G37*
G36*
X2281450Y488766D02*
X2278806D01*
X2276253Y488082D01*
X2273963Y486760D01*
X2272094Y484891D01*
X2270772Y482601D01*
X2270088Y480048D01*
Y477404D01*
X2270772Y474851D01*
X2272094Y472561D01*
X2273963Y470692D01*
X2276253Y469370D01*
X2278806Y468686D01*
X2281450D01*
X2284003Y469370D01*
X2286293Y470692D01*
X2288162Y472561D01*
X2289484Y474851D01*
X2290168Y477404D01*
Y480048D01*
X2289484Y482601D01*
X2288162Y484891D01*
X2286293Y486760D01*
X2284003Y488082D01*
X2281450Y488766D01*
D02*
G37*
G36*
X2036068Y442166D02*
X2009488D01*
Y415586D01*
X2036068D01*
Y442166D01*
D02*
G37*
G36*
X2231001Y373266D02*
X2228555D01*
X2226192Y372633D01*
X2224074Y371410D01*
X2222344Y369680D01*
X2221121Y367562D01*
X2220488Y365199D01*
Y362753D01*
X2221121Y360390D01*
X2222344Y358272D01*
X2224074Y356542D01*
X2226192Y355319D01*
X2228555Y354686D01*
X2231001D01*
X2233364Y355319D01*
X2235482Y356542D01*
X2237212Y358272D01*
X2238435Y360390D01*
X2239068Y362753D01*
Y365199D01*
X2238435Y367562D01*
X2237212Y369680D01*
X2235482Y371410D01*
X2233364Y372633D01*
X2231001Y373266D01*
D02*
G37*
G36*
X1575258Y798066D02*
X1568218D01*
Y791026D01*
X1575258D01*
Y798066D01*
D02*
G37*
G36*
X1563218D02*
X1556178D01*
Y791026D01*
X1563218D01*
Y798066D01*
D02*
G37*
G36*
X1575258Y786026D02*
X1568218D01*
Y778986D01*
X1575258D01*
Y786026D01*
D02*
G37*
G36*
X1563218D02*
X1556178D01*
Y778986D01*
X1563218D01*
Y786026D01*
D02*
G37*
G36*
X1930790Y786566D02*
X1928146D01*
X1925593Y785882D01*
X1923303Y784560D01*
X1921434Y782691D01*
X1920112Y780401D01*
X1919428Y777848D01*
Y775204D01*
X1920112Y772651D01*
X1921434Y770361D01*
X1923303Y768492D01*
X1925593Y767170D01*
X1928146Y766486D01*
X1930790D01*
X1933343Y767170D01*
X1935633Y768492D01*
X1937502Y770361D01*
X1938824Y772651D01*
X1939508Y775204D01*
Y777848D01*
X1938824Y780401D01*
X1937502Y782691D01*
X1935633Y784560D01*
X1933343Y785882D01*
X1930790Y786566D01*
D02*
G37*
G36*
Y761166D02*
X1928146D01*
X1925593Y760482D01*
X1923303Y759160D01*
X1921434Y757291D01*
X1920112Y755001D01*
X1919428Y752448D01*
Y749804D01*
X1920112Y747251D01*
X1921434Y744961D01*
X1923303Y743092D01*
X1925593Y741770D01*
X1928146Y741086D01*
X1930790D01*
X1933343Y741770D01*
X1935633Y743092D01*
X1937502Y744961D01*
X1938824Y747251D01*
X1939508Y749804D01*
Y752448D01*
X1938824Y755001D01*
X1937502Y757291D01*
X1935633Y759160D01*
X1933343Y760482D01*
X1930790Y761166D01*
D02*
G37*
G36*
Y735766D02*
X1928146D01*
X1925593Y735082D01*
X1923303Y733760D01*
X1921434Y731891D01*
X1920112Y729601D01*
X1919428Y727048D01*
Y724404D01*
X1920112Y721851D01*
X1921434Y719561D01*
X1923303Y717692D01*
X1925593Y716370D01*
X1928146Y715686D01*
X1930790D01*
X1933343Y716370D01*
X1935633Y717692D01*
X1937502Y719561D01*
X1938824Y721851D01*
X1939508Y724404D01*
Y727048D01*
X1938824Y729601D01*
X1937502Y731891D01*
X1935633Y733760D01*
X1933343Y735082D01*
X1930790Y735766D01*
D02*
G37*
G36*
Y710366D02*
X1928146D01*
X1925593Y709682D01*
X1923303Y708360D01*
X1921434Y706491D01*
X1920112Y704201D01*
X1919428Y701648D01*
Y699004D01*
X1920112Y696451D01*
X1921434Y694161D01*
X1923303Y692292D01*
X1925593Y690970D01*
X1928146Y690286D01*
X1930790D01*
X1933343Y690970D01*
X1935633Y692292D01*
X1937502Y694161D01*
X1938824Y696451D01*
X1939508Y699004D01*
Y701648D01*
X1938824Y704201D01*
X1937502Y706491D01*
X1935633Y708360D01*
X1933343Y709682D01*
X1930790Y710366D01*
D02*
G37*
G36*
X1569441Y668266D02*
X1566995D01*
X1564632Y667633D01*
X1562514Y666410D01*
X1560784Y664680D01*
X1559561Y662562D01*
X1558928Y660199D01*
Y657753D01*
X1559561Y655390D01*
X1560784Y653272D01*
X1562514Y651542D01*
X1564632Y650319D01*
X1566995Y649686D01*
X1569441D01*
X1571804Y650319D01*
X1573922Y651542D01*
X1575652Y653272D01*
X1576875Y655390D01*
X1577508Y657753D01*
Y660199D01*
X1576875Y662562D01*
X1575652Y664680D01*
X1573922Y666410D01*
X1571804Y667633D01*
X1569441Y668266D01*
D02*
G37*
G36*
X1596218Y650260D02*
Y644226D01*
X1602252D01*
X1602002Y645157D01*
X1600832Y647185D01*
X1599177Y648840D01*
X1597149Y650010D01*
X1596218Y650260D01*
D02*
G37*
G36*
X1591218D02*
X1590287Y650010D01*
X1588259Y648840D01*
X1586604Y647185D01*
X1585434Y645157D01*
X1585184Y644226D01*
X1591218D01*
Y650260D01*
D02*
G37*
G36*
X1602252Y639226D02*
X1596218D01*
Y633192D01*
X1597149Y633442D01*
X1599177Y634612D01*
X1600832Y636267D01*
X1602002Y638295D01*
X1602252Y639226D01*
D02*
G37*
G36*
X1591218D02*
X1585184D01*
X1585434Y638295D01*
X1586604Y636267D01*
X1588259Y634612D01*
X1590287Y633442D01*
X1591218Y633192D01*
Y639226D01*
D02*
G37*
G36*
X1846790Y651326D02*
X1844146D01*
X1841593Y650642D01*
X1839303Y649320D01*
X1837434Y647451D01*
X1836112Y645161D01*
X1835428Y642608D01*
Y639964D01*
X1836112Y637411D01*
X1837434Y635121D01*
X1839303Y633252D01*
X1841593Y631930D01*
X1844146Y631246D01*
X1846790D01*
X1849343Y631930D01*
X1851633Y633252D01*
X1853502Y635121D01*
X1854824Y637411D01*
X1855508Y639964D01*
Y642608D01*
X1854824Y645161D01*
X1853502Y647451D01*
X1851633Y649320D01*
X1849343Y650642D01*
X1846790Y651326D01*
D02*
G37*
G36*
X1562968Y608016D02*
X1559468D01*
X1556088Y607110D01*
X1553058Y605361D01*
X1550583Y602886D01*
X1548834Y599856D01*
X1547928Y596476D01*
Y592976D01*
X1548834Y589596D01*
X1550583Y586566D01*
X1553058Y584091D01*
X1556088Y582342D01*
X1559468Y581436D01*
X1562968D01*
X1566348Y582342D01*
X1569378Y584091D01*
X1571853Y586566D01*
X1573602Y589596D01*
X1574508Y592976D01*
Y596476D01*
X1573602Y599856D01*
X1571853Y602886D01*
X1569378Y605361D01*
X1566348Y607110D01*
X1562968Y608016D01*
D02*
G37*
G36*
X1574508Y568416D02*
X1547928D01*
Y541836D01*
X1565179D01*
X1574622Y532394D01*
Y516492D01*
X1573673Y516238D01*
X1573352Y516237D01*
X1570878Y518711D01*
X1567848Y520460D01*
X1564468Y521366D01*
X1560968D01*
X1557588Y520460D01*
X1554558Y518711D01*
X1552083Y516236D01*
X1550334Y513206D01*
X1549428Y509826D01*
Y506326D01*
X1550334Y502946D01*
X1552083Y499916D01*
X1554558Y497441D01*
X1557588Y495692D01*
X1560968Y494786D01*
X1564468D01*
X1567848Y495692D01*
X1570878Y497441D01*
X1573352Y499914D01*
X1573673Y499914D01*
X1574622Y499660D01*
Y489708D01*
X1566212Y481298D01*
X1564468Y481766D01*
X1560968D01*
X1557588Y480860D01*
X1554558Y479110D01*
X1552083Y476636D01*
X1550334Y473606D01*
X1549428Y470225D01*
Y466726D01*
X1550334Y463346D01*
X1552083Y460316D01*
X1554558Y457841D01*
X1557588Y456091D01*
X1560968Y455186D01*
X1564468D01*
X1567848Y456091D01*
X1570878Y457841D01*
X1573353Y460316D01*
X1575103Y463346D01*
X1576008Y466726D01*
Y470225D01*
X1575541Y471970D01*
X1585882Y482311D01*
X1586931Y483677D01*
X1587590Y485268D01*
X1587814Y486976D01*
Y535126D01*
X1587590Y536833D01*
X1586931Y538424D01*
X1585882Y539790D01*
X1574508Y551165D01*
Y568416D01*
D02*
G37*
G36*
X1821390Y488766D02*
X1818746D01*
X1816193Y488082D01*
X1813903Y486760D01*
X1812034Y484891D01*
X1810712Y482601D01*
X1810028Y480048D01*
Y477404D01*
X1810712Y474851D01*
X1812034Y472561D01*
X1813903Y470692D01*
X1816193Y469370D01*
X1818746Y468686D01*
X1821390D01*
X1823943Y469370D01*
X1826233Y470692D01*
X1828102Y472561D01*
X1829424Y474851D01*
X1830108Y477404D01*
Y480048D01*
X1829424Y482601D01*
X1828102Y484891D01*
X1826233Y486760D01*
X1823943Y488082D01*
X1821390Y488766D01*
D02*
G37*
G36*
X1576008Y442166D02*
X1549428D01*
Y415586D01*
X1576008D01*
Y442166D01*
D02*
G37*
G36*
X1770941Y373266D02*
X1768495D01*
X1766132Y372633D01*
X1764014Y371410D01*
X1762284Y369680D01*
X1761061Y367562D01*
X1760428Y365199D01*
Y362753D01*
X1761061Y360390D01*
X1762284Y358272D01*
X1764014Y356542D01*
X1766132Y355319D01*
X1768495Y354686D01*
X1770941D01*
X1773304Y355319D01*
X1775422Y356542D01*
X1777152Y358272D01*
X1778375Y360390D01*
X1779008Y362753D01*
Y365199D01*
X1778375Y367562D01*
X1777152Y369680D01*
X1775422Y371410D01*
X1773304Y372633D01*
X1770941Y373266D01*
D02*
G37*
G36*
X2150500Y651326D02*
X2147856D01*
X2145303Y650642D01*
X2143013Y649320D01*
X2141144Y647451D01*
X2139822Y645161D01*
X2139138Y642608D01*
Y639964D01*
X2139822Y637411D01*
X2141144Y635121D01*
X2143013Y633252D01*
X2145303Y631930D01*
X2147856Y631246D01*
X2150500D01*
X2153053Y631930D01*
X2155343Y633252D01*
X2157212Y635121D01*
X2158534Y637411D01*
X2159218Y639964D01*
Y642608D01*
X2158534Y645161D01*
X2157212Y647451D01*
X2155343Y649320D01*
X2153053Y650642D01*
X2150500Y651326D01*
D02*
G37*
G36*
X1690440D02*
X1687796D01*
X1685243Y650642D01*
X1682953Y649320D01*
X1681084Y647451D01*
X1679762Y645161D01*
X1679078Y642608D01*
Y639964D01*
X1679762Y637411D01*
X1681084Y635121D01*
X1682953Y633252D01*
X1685243Y631930D01*
X1687796Y631246D01*
X1690440D01*
X1692993Y631930D01*
X1695283Y633252D01*
X1697152Y635121D01*
X1698474Y637411D01*
X1699158Y639964D01*
Y642608D01*
X1698474Y645161D01*
X1697152Y647451D01*
X1695283Y649320D01*
X1692993Y650642D01*
X1690440Y651326D01*
D02*
G37*
G36*
X2227350Y600816D02*
X2224706D01*
X2222153Y600132D01*
X2219863Y598810D01*
X2217994Y596941D01*
X2216672Y594651D01*
X2215988Y592098D01*
Y589454D01*
X2216672Y586901D01*
X2217994Y584611D01*
X2219863Y582742D01*
X2222153Y581420D01*
X2224706Y580736D01*
X2227350D01*
X2229903Y581420D01*
X2232193Y582742D01*
X2234062Y584611D01*
X2235384Y586901D01*
X2236068Y589454D01*
Y592098D01*
X2235384Y594651D01*
X2234062Y596941D01*
X2232193Y598810D01*
X2229903Y600132D01*
X2227350Y600816D01*
D02*
G37*
G36*
X2204600D02*
X2201956D01*
X2199403Y600132D01*
X2197113Y598810D01*
X2195244Y596941D01*
X2193922Y594651D01*
X2193238Y592098D01*
Y589454D01*
X2193922Y586901D01*
X2195244Y584611D01*
X2197113Y582742D01*
X2199403Y581420D01*
X2201956Y580736D01*
X2204600D01*
X2207153Y581420D01*
X2209443Y582742D01*
X2211312Y584611D01*
X2212634Y586901D01*
X2213318Y589454D01*
Y592098D01*
X2212634Y594651D01*
X2211312Y596941D01*
X2209443Y598810D01*
X2207153Y600132D01*
X2204600Y600816D01*
D02*
G37*
G36*
X2210528Y573974D02*
X2207254Y573543D01*
X2204204Y572280D01*
X2201584Y570270D01*
X2199574Y567650D01*
X2198515Y565094D01*
X2197141D01*
X2196082Y567650D01*
X2194072Y570270D01*
X2191452Y572280D01*
X2188402Y573543D01*
X2185128Y573974D01*
X2181854Y573543D01*
X2178804Y572280D01*
X2176184Y570270D01*
X2174174Y567650D01*
X2172911Y564600D01*
X2172480Y561326D01*
Y556326D01*
X2172911Y553052D01*
X2174174Y550002D01*
X2176184Y547383D01*
X2178804Y545373D01*
X2181854Y544109D01*
X2185128Y543678D01*
X2188402Y544109D01*
X2191452Y545373D01*
X2194072Y547383D01*
X2196082Y550002D01*
X2197141Y552559D01*
X2198515D01*
X2199574Y550002D01*
X2201584Y547383D01*
X2204204Y545373D01*
X2207254Y544109D01*
X2210528Y543678D01*
X2213802Y544109D01*
X2216852Y545373D01*
X2219472Y547383D01*
X2221482Y550002D01*
X2222745Y553052D01*
X2223176Y556326D01*
Y561326D01*
X2222745Y564600D01*
X2221482Y567650D01*
X2219472Y570270D01*
X2216852Y572280D01*
X2213802Y573543D01*
X2210528Y573974D01*
D02*
G37*
G36*
X2152478D02*
X2149205Y573543D01*
X2146154Y572280D01*
X2143535Y570270D01*
X2141525Y567650D01*
X2140466Y565094D01*
X2139091D01*
X2138032Y567650D01*
X2136022Y570270D01*
X2133402Y572280D01*
X2130352Y573543D01*
X2127078Y573974D01*
X2123805Y573543D01*
X2120754Y572280D01*
X2118134Y570270D01*
X2116125Y567650D01*
X2114861Y564600D01*
X2114430Y561326D01*
Y556326D01*
X2114861Y553052D01*
X2116125Y550002D01*
X2118134Y547383D01*
X2120754Y545373D01*
X2123805Y544109D01*
X2127078Y543678D01*
X2130352Y544109D01*
X2133402Y545373D01*
X2136022Y547383D01*
X2138032Y550002D01*
X2139091Y552559D01*
X2140466D01*
X2141525Y550002D01*
X2143535Y547383D01*
X2146154Y545373D01*
X2149205Y544109D01*
X2152478Y543678D01*
X2155752Y544109D01*
X2158802Y545373D01*
X2161422Y547383D01*
X2163432Y550002D01*
X2164695Y553052D01*
X2165126Y556326D01*
Y561326D01*
X2164695Y564600D01*
X2163432Y567650D01*
X2161422Y570270D01*
X2158802Y572280D01*
X2155752Y573543D01*
X2152478Y573974D01*
D02*
G37*
G36*
X2227350Y539266D02*
X2224706D01*
X2222153Y538582D01*
X2219863Y537260D01*
X2217994Y535391D01*
X2216672Y533101D01*
X2215988Y530548D01*
Y527904D01*
X2216672Y525351D01*
X2217994Y523061D01*
X2219863Y521192D01*
X2222153Y519870D01*
X2224706Y519186D01*
X2227350D01*
X2229903Y519870D01*
X2232193Y521192D01*
X2234062Y523061D01*
X2235384Y525351D01*
X2236068Y527904D01*
Y530548D01*
X2235384Y533101D01*
X2234062Y535391D01*
X2232193Y537260D01*
X2229903Y538582D01*
X2227350Y539266D01*
D02*
G37*
G36*
X2204600D02*
X2201956D01*
X2199403Y538582D01*
X2197113Y537260D01*
X2195244Y535391D01*
X2193922Y533101D01*
X2193238Y530548D01*
Y527904D01*
X2193922Y525351D01*
X2195244Y523061D01*
X2197113Y521192D01*
X2199403Y519870D01*
X2201956Y519186D01*
X2204600D01*
X2207153Y519870D01*
X2209443Y521192D01*
X2211312Y523061D01*
X2212634Y525351D01*
X2213318Y527904D01*
Y530548D01*
X2212634Y533101D01*
X2211312Y535391D01*
X2209443Y537260D01*
X2207153Y538582D01*
X2204600Y539266D01*
D02*
G37*
G36*
X1767290Y600816D02*
X1764646D01*
X1762093Y600132D01*
X1759803Y598810D01*
X1757934Y596941D01*
X1756612Y594651D01*
X1755928Y592098D01*
Y589454D01*
X1756612Y586901D01*
X1757934Y584611D01*
X1759803Y582742D01*
X1762093Y581420D01*
X1764646Y580736D01*
X1767290D01*
X1769843Y581420D01*
X1772133Y582742D01*
X1774002Y584611D01*
X1775324Y586901D01*
X1776008Y589454D01*
Y592098D01*
X1775324Y594651D01*
X1774002Y596941D01*
X1772133Y598810D01*
X1769843Y600132D01*
X1767290Y600816D01*
D02*
G37*
G36*
X1744540D02*
X1741896D01*
X1739343Y600132D01*
X1737053Y598810D01*
X1735184Y596941D01*
X1733862Y594651D01*
X1733178Y592098D01*
Y589454D01*
X1733862Y586901D01*
X1735184Y584611D01*
X1737053Y582742D01*
X1739343Y581420D01*
X1741896Y580736D01*
X1744540D01*
X1747093Y581420D01*
X1749383Y582742D01*
X1751252Y584611D01*
X1752574Y586901D01*
X1753258Y589454D01*
Y592098D01*
X1752574Y594651D01*
X1751252Y596941D01*
X1749383Y598810D01*
X1747093Y600132D01*
X1744540Y600816D01*
D02*
G37*
G36*
X1750468Y573974D02*
X1747194Y573543D01*
X1744144Y572280D01*
X1741524Y570270D01*
X1739514Y567650D01*
X1738455Y565094D01*
X1737081D01*
X1736022Y567650D01*
X1734012Y570270D01*
X1731392Y572280D01*
X1728342Y573543D01*
X1725068Y573974D01*
X1721794Y573543D01*
X1718744Y572280D01*
X1716124Y570270D01*
X1714114Y567650D01*
X1712851Y564600D01*
X1712420Y561326D01*
Y556326D01*
X1712851Y553052D01*
X1714114Y550002D01*
X1716124Y547383D01*
X1718744Y545373D01*
X1721794Y544109D01*
X1725068Y543678D01*
X1728342Y544109D01*
X1731392Y545373D01*
X1734012Y547383D01*
X1736022Y550002D01*
X1737081Y552559D01*
X1738455D01*
X1739514Y550002D01*
X1741524Y547383D01*
X1744144Y545373D01*
X1747194Y544109D01*
X1750468Y543678D01*
X1753742Y544109D01*
X1756792Y545373D01*
X1759412Y547383D01*
X1761422Y550002D01*
X1762685Y553052D01*
X1763116Y556326D01*
Y561326D01*
X1762685Y564600D01*
X1761422Y567650D01*
X1759412Y570270D01*
X1756792Y572280D01*
X1753742Y573543D01*
X1750468Y573974D01*
D02*
G37*
G36*
X1692418D02*
X1689145Y573543D01*
X1686094Y572280D01*
X1683474Y570270D01*
X1681465Y567650D01*
X1680405Y565094D01*
X1679031D01*
X1677972Y567650D01*
X1675962Y570270D01*
X1673342Y572280D01*
X1670292Y573543D01*
X1667018Y573974D01*
X1663745Y573543D01*
X1660694Y572280D01*
X1658074Y570270D01*
X1656064Y567650D01*
X1654801Y564600D01*
X1654370Y561326D01*
Y556326D01*
X1654801Y553052D01*
X1656064Y550002D01*
X1658074Y547383D01*
X1660694Y545373D01*
X1663745Y544109D01*
X1667018Y543678D01*
X1670292Y544109D01*
X1673342Y545373D01*
X1675962Y547383D01*
X1677972Y550002D01*
X1679031Y552559D01*
X1680405D01*
X1681465Y550002D01*
X1683474Y547383D01*
X1686094Y545373D01*
X1689145Y544109D01*
X1692418Y543678D01*
X1695692Y544109D01*
X1698742Y545373D01*
X1701362Y547383D01*
X1703372Y550002D01*
X1704635Y553052D01*
X1705066Y556326D01*
Y561326D01*
X1704635Y564600D01*
X1703372Y567650D01*
X1701362Y570270D01*
X1698742Y572280D01*
X1695692Y573543D01*
X1692418Y573974D01*
D02*
G37*
G36*
X1767290Y539266D02*
X1764646D01*
X1762093Y538582D01*
X1759803Y537260D01*
X1757934Y535391D01*
X1756612Y533101D01*
X1755928Y530548D01*
Y527904D01*
X1756612Y525351D01*
X1757934Y523061D01*
X1759803Y521192D01*
X1762093Y519870D01*
X1764646Y519186D01*
X1767290D01*
X1769843Y519870D01*
X1772133Y521192D01*
X1774002Y523061D01*
X1775324Y525351D01*
X1776008Y527904D01*
Y530548D01*
X1775324Y533101D01*
X1774002Y535391D01*
X1772133Y537260D01*
X1769843Y538582D01*
X1767290Y539266D01*
D02*
G37*
G36*
X1744540D02*
X1741896D01*
X1739343Y538582D01*
X1737053Y537260D01*
X1735184Y535391D01*
X1733862Y533101D01*
X1733178Y530548D01*
Y527904D01*
X1733862Y525351D01*
X1735184Y523061D01*
X1737053Y521192D01*
X1739343Y519870D01*
X1741896Y519186D01*
X1744540D01*
X1747093Y519870D01*
X1749383Y521192D01*
X1751252Y523061D01*
X1752574Y525351D01*
X1753258Y527904D01*
Y530548D01*
X1752574Y533101D01*
X1751252Y535391D01*
X1749383Y537260D01*
X1747093Y538582D01*
X1744540Y539266D01*
D02*
G37*
G36*
X2150500Y488766D02*
X2147856D01*
X2145303Y488082D01*
X2143013Y486760D01*
X2141144Y484891D01*
X2139822Y482601D01*
X2139138Y480048D01*
Y477404D01*
X2139822Y474851D01*
X2141144Y472561D01*
X2143013Y470692D01*
X2145303Y469370D01*
X2147856Y468686D01*
X2150500D01*
X2153053Y469370D01*
X2155343Y470692D01*
X2157212Y472561D01*
X2158534Y474851D01*
X2159218Y477404D01*
Y480048D01*
X2158534Y482601D01*
X2157212Y484891D01*
X2155343Y486760D01*
X2153053Y488082D01*
X2150500Y488766D01*
D02*
G37*
G36*
X2125100D02*
X2122456D01*
X2119903Y488082D01*
X2117613Y486760D01*
X2115744Y484891D01*
X2114422Y482601D01*
X2113738Y480048D01*
Y477404D01*
X2114422Y474851D01*
X2115744Y472561D01*
X2117613Y470692D01*
X2119903Y469370D01*
X2122456Y468686D01*
X2125100D01*
X2127653Y469370D01*
X2129943Y470692D01*
X2131812Y472561D01*
X2133134Y474851D01*
X2133818Y477404D01*
Y480048D01*
X2133134Y482601D01*
X2131812Y484891D01*
X2129943Y486760D01*
X2127653Y488082D01*
X2125100Y488766D01*
D02*
G37*
G36*
X2103568Y418426D02*
X2091028D01*
Y408386D01*
X2103568D01*
Y418426D01*
D02*
G37*
G36*
X2086028D02*
X2073488D01*
Y408386D01*
X2086028D01*
Y418426D01*
D02*
G37*
G36*
X2137254Y373221D02*
X2136756Y373166D01*
X2117488D01*
Y368376D01*
X2137528D01*
X2157568D01*
Y373166D01*
X2137614D01*
X2137254Y373221D01*
D02*
G37*
G36*
X2189068Y373266D02*
X2182278D01*
Y366476D01*
X2189068D01*
Y373266D01*
D02*
G37*
G36*
X2177278D02*
X2170488D01*
Y366476D01*
X2177278D01*
Y373266D01*
D02*
G37*
G36*
X2157568Y363376D02*
X2140028D01*
Y358586D01*
X2157568D01*
Y363376D01*
D02*
G37*
G36*
X2135028D02*
X2117488D01*
Y358586D01*
X2135028D01*
Y363376D01*
D02*
G37*
G36*
X2189068Y361476D02*
X2182278D01*
Y354686D01*
X2189068D01*
Y361476D01*
D02*
G37*
G36*
X2177278D02*
X2170488D01*
Y354686D01*
X2177278D01*
Y361476D01*
D02*
G37*
G36*
X1690440Y488766D02*
X1687796D01*
X1685243Y488082D01*
X1682953Y486760D01*
X1681084Y484891D01*
X1679762Y482601D01*
X1679078Y480048D01*
Y477404D01*
X1679762Y474851D01*
X1681084Y472561D01*
X1682953Y470692D01*
X1685243Y469370D01*
X1687796Y468686D01*
X1690440D01*
X1692993Y469370D01*
X1695283Y470692D01*
X1697152Y472561D01*
X1698474Y474851D01*
X1699158Y477404D01*
Y480048D01*
X1698474Y482601D01*
X1697152Y484891D01*
X1695283Y486760D01*
X1692993Y488082D01*
X1690440Y488766D01*
D02*
G37*
G36*
X1665040D02*
X1662396D01*
X1659843Y488082D01*
X1657553Y486760D01*
X1655684Y484891D01*
X1654362Y482601D01*
X1653678Y480048D01*
Y477404D01*
X1654362Y474851D01*
X1655684Y472561D01*
X1657553Y470692D01*
X1659843Y469370D01*
X1662396Y468686D01*
X1665040D01*
X1667593Y469370D01*
X1669883Y470692D01*
X1671752Y472561D01*
X1673074Y474851D01*
X1673758Y477404D01*
Y480048D01*
X1673074Y482601D01*
X1671752Y484891D01*
X1669883Y486760D01*
X1667593Y488082D01*
X1665040Y488766D01*
D02*
G37*
G36*
X1643508Y418426D02*
X1630968D01*
Y408386D01*
X1643508D01*
Y418426D01*
D02*
G37*
G36*
X1625968D02*
X1613428D01*
Y408386D01*
X1625968D01*
Y418426D01*
D02*
G37*
G36*
X1677194Y373221D02*
X1676696Y373166D01*
X1657428D01*
Y368376D01*
X1677468D01*
X1697508D01*
Y373166D01*
X1677554D01*
X1677194Y373221D01*
D02*
G37*
G36*
X1729008Y373266D02*
X1722218D01*
Y366476D01*
X1729008D01*
Y373266D01*
D02*
G37*
G36*
X1717218D02*
X1710428D01*
Y366476D01*
X1717218D01*
Y373266D01*
D02*
G37*
G36*
X1697508Y363376D02*
X1679968D01*
Y358586D01*
X1697508D01*
Y363376D01*
D02*
G37*
G36*
X1674968D02*
X1657428D01*
Y358586D01*
X1674968D01*
Y363376D01*
D02*
G37*
G36*
X1729008Y361476D02*
X1722218D01*
Y354686D01*
X1729008D01*
Y361476D01*
D02*
G37*
G36*
X1717218D02*
X1710428D01*
Y354686D01*
X1717218D01*
Y361476D01*
D02*
G37*
%LPD*%
D10*
X1579968Y340476D02*
D03*
X2040028D02*
D03*
D11*
X1677468Y365876D02*
D03*
Y315076D02*
D03*
X2137528Y365876D02*
D03*
Y315076D02*
D03*
D12*
X1727364Y623672D02*
Y699930D01*
X1689624Y585932D02*
X1727364Y623672D01*
X1785718Y517976D02*
Y646726D01*
X1750468Y681976D02*
X1785718Y646726D01*
X1750468Y681976D02*
Y702226D01*
X1725068D02*
X1727364Y699930D01*
X1692418Y675026D02*
Y702226D01*
X1666546Y701754D02*
X1667018Y702226D01*
X1666546Y682305D02*
Y701754D01*
X1648718Y638629D02*
Y664476D01*
X1666546Y682305D01*
X1750468Y708326D02*
X1750968Y707826D01*
X1724968Y708226D02*
X1725068Y708326D01*
X1664722Y706030D02*
X1667018Y708326D01*
X1867768Y420926D02*
X1882468D01*
X1862218Y426476D02*
X1867768Y420926D01*
X1844468Y552420D02*
X1862218Y534670D01*
Y426476D02*
Y534670D01*
X1882468Y624126D02*
X1886862D01*
X1901512Y609476D01*
X1831818Y695747D02*
X1831840Y695725D01*
X1802718Y659976D02*
X1831840Y689098D01*
X1831818Y695747D02*
Y731626D01*
X1831840Y689098D02*
Y695725D01*
X1882468Y674926D02*
X1882643Y675101D01*
X1929293D01*
X1929468Y675276D01*
X1684218Y507476D02*
X1775218D01*
X1785718Y517976D01*
X1744794Y339802D02*
Y457302D01*
X1802718Y515226D02*
Y659976D01*
X1744794Y457302D02*
X1802718Y515226D01*
X1634215Y624126D02*
X1648718Y638629D01*
X1628468Y624126D02*
X1634215D01*
X1692418Y675026D02*
X1707968Y659476D01*
Y634726D02*
Y659476D01*
X1696468Y623226D02*
X1707968Y634726D01*
X1677968Y623226D02*
X1696468D01*
X1653468Y598726D02*
X1677968Y623226D01*
X1628468Y598726D02*
X1653468D01*
X1791718Y363376D02*
Y480226D01*
X1819468Y507976D01*
Y597726D01*
X1606568Y446326D02*
X1628468D01*
X1594718Y355226D02*
Y434476D01*
X1606568Y446326D01*
X1579968Y340476D02*
X1594718Y355226D01*
X1628468Y547926D02*
X1629624Y546770D01*
X1644924D02*
X1684218Y507476D01*
X1629624Y546770D02*
X1644924D01*
X1579968Y337976D02*
Y340476D01*
X1565718Y813927D02*
X1566866Y812779D01*
X1573703D02*
X1583718Y802764D01*
X1570968Y751015D02*
Y760226D01*
X1583718Y772976D02*
Y802764D01*
X1568218Y748265D02*
X1570968Y751015D01*
Y760226D02*
X1583718Y772976D01*
X1566866Y812779D02*
X1573703D01*
X1625968Y598726D02*
X1628468D01*
Y624126D02*
X1630348Y622246D01*
X1791718Y363376D02*
X1827718Y327376D01*
X1844468Y552420D02*
Y556726D01*
X1923468Y337226D02*
X1923918Y337676D01*
Y408976D01*
X1914974Y417920D02*
X1923918Y408976D01*
X1827718Y327376D02*
X1873706D01*
X1901512Y355182D01*
Y609476D01*
X1827718Y301976D02*
X1929318D01*
X1719718Y314726D02*
X1744794Y339802D01*
X1751968Y296976D02*
X1769718Y314726D01*
X1620968Y296976D02*
X1751968D01*
X1677468Y315076D02*
X1698312D01*
X1698662Y314726D01*
X1719718D01*
X1677056Y366626D02*
X1677468Y365876D01*
X1579968Y337976D02*
X1620968Y296976D01*
X1561218Y555126D02*
X1581218Y535126D01*
Y486976D02*
Y535126D01*
X1562718Y468476D02*
X1581218Y486976D01*
X1660720Y585932D02*
X1689624D01*
X1648114Y573326D02*
X1660720Y585932D01*
X1628468Y573326D02*
X1648114D01*
X1914974Y522686D02*
X1922594Y530306D01*
X1914974Y417920D02*
Y522686D01*
X1882468Y649526D02*
X1905068D01*
X1914212Y640382D01*
Y576026D02*
Y640382D01*
Y576026D02*
X1943676Y546562D01*
Y316334D02*
Y546562D01*
X1929318Y301976D02*
X1943676Y316334D01*
X2187424Y623672D02*
Y699930D01*
X2149684Y585932D02*
X2187424Y623672D01*
X2245778Y517976D02*
Y646726D01*
X2210528Y681976D02*
X2245778Y646726D01*
X2210528Y681976D02*
Y702226D01*
X2185128D02*
X2187424Y699930D01*
X2152478Y675026D02*
Y702226D01*
X2126606Y701754D02*
X2127078Y702226D01*
X2126606Y682305D02*
Y701754D01*
X2108778Y638629D02*
Y664476D01*
X2126606Y682305D01*
X2210528Y708326D02*
X2211028Y707826D01*
X2185028Y708226D02*
X2185128Y708326D01*
X2124782Y706030D02*
X2127078Y708326D01*
X2327828Y420926D02*
X2342528D01*
X2322278Y426476D02*
X2327828Y420926D01*
X2304528Y552420D02*
X2322278Y534670D01*
Y426476D02*
Y534670D01*
X2342528Y624126D02*
X2346922D01*
X2361572Y609476D01*
X2291878Y695747D02*
X2291900Y695725D01*
X2262778Y659976D02*
X2291900Y689098D01*
X2291878Y695747D02*
Y731626D01*
X2291900Y689098D02*
Y695725D01*
X2342528Y674926D02*
X2342703Y675101D01*
X2389353D01*
X2389528Y675276D01*
X2144278Y507476D02*
X2235278D01*
X2245778Y517976D01*
X2204854Y339802D02*
Y457302D01*
X2262778Y515226D02*
Y659976D01*
X2204854Y457302D02*
X2262778Y515226D01*
X2094275Y624126D02*
X2108778Y638629D01*
X2088528Y624126D02*
X2094275D01*
X2152478Y675026D02*
X2168028Y659476D01*
Y634726D02*
Y659476D01*
X2156528Y623226D02*
X2168028Y634726D01*
X2138028Y623226D02*
X2156528D01*
X2113528Y598726D02*
X2138028Y623226D01*
X2088528Y598726D02*
X2113528D01*
X2251778Y363376D02*
Y480226D01*
X2279528Y507976D01*
Y597726D01*
X2066628Y446326D02*
X2088528D01*
X2054778Y355226D02*
Y434476D01*
X2066628Y446326D01*
X2040028Y340476D02*
X2054778Y355226D01*
X2088528Y547926D02*
X2089684Y546770D01*
X2104984D02*
X2144278Y507476D01*
X2089684Y546770D02*
X2104984D01*
X2040028Y337976D02*
Y340476D01*
X2025778Y813927D02*
X2026926Y812779D01*
X2033763D02*
X2043778Y802764D01*
X2031028Y751015D02*
Y760226D01*
X2043778Y772976D02*
Y802764D01*
X2028278Y748265D02*
X2031028Y751015D01*
Y760226D02*
X2043778Y772976D01*
X2026926Y812779D02*
X2033763D01*
X2086028Y598726D02*
X2088528D01*
Y624126D02*
X2090408Y622246D01*
X2251778Y363376D02*
X2287778Y327376D01*
X2304528Y552420D02*
Y556726D01*
X2383528Y337226D02*
X2383978Y337676D01*
Y408976D01*
X2375034Y417920D02*
X2383978Y408976D01*
X2287778Y327376D02*
X2333766D01*
X2361572Y355182D01*
Y609476D01*
X2287778Y301976D02*
X2389378D01*
X2179778Y314726D02*
X2204854Y339802D01*
X2212028Y296976D02*
X2229778Y314726D01*
X2081028Y296976D02*
X2212028D01*
X2137528Y315076D02*
X2158372D01*
X2158722Y314726D01*
X2179778D01*
X2137116Y366626D02*
X2137528Y365876D01*
X2040028Y337976D02*
X2081028Y296976D01*
X2021278Y555126D02*
X2041278Y535126D01*
Y486976D02*
Y535126D01*
X2022778Y468476D02*
X2041278Y486976D01*
X2120780Y585932D02*
X2149684D01*
X2108174Y573326D02*
X2120780Y585932D01*
X2088528Y573326D02*
X2108174D01*
X2375034Y522686D02*
X2382654Y530306D01*
X2375034Y417920D02*
Y522686D01*
X2342528Y649526D02*
X2365128D01*
X2374272Y640382D01*
Y576026D02*
Y640382D01*
Y576026D02*
X2403736Y546562D01*
Y316334D02*
Y546562D01*
X2389378Y301976D02*
X2403736Y316334D01*
D13*
X1750468Y702226D02*
D03*
X2210528D02*
D03*
D14*
X1725068D02*
D03*
X1692418D02*
D03*
X1667018D02*
D03*
X1750468Y558826D02*
D03*
X1725068D02*
D03*
X1692418D02*
D03*
X1667018D02*
D03*
X1832818Y736626D02*
D03*
X1807418D02*
D03*
X2185128Y702226D02*
D03*
X2152478D02*
D03*
X2127078D02*
D03*
X2210528Y558826D02*
D03*
X2185128D02*
D03*
X2152478D02*
D03*
X2127078D02*
D03*
X2292878Y736626D02*
D03*
X2267478D02*
D03*
D15*
X1769718Y314726D02*
D03*
Y363976D02*
D03*
X1568218Y658976D02*
D03*
X2229778Y314726D02*
D03*
Y363976D02*
D03*
X2028278Y658976D02*
D03*
D16*
X1719718Y314726D02*
D03*
Y363976D02*
D03*
X2179778Y314726D02*
D03*
Y363976D02*
D03*
D17*
X1628468Y420926D02*
D03*
X1882468D02*
D03*
X2088528D02*
D03*
X2342528D02*
D03*
D18*
X1628468Y446326D02*
D03*
Y471726D02*
D03*
Y522526D02*
D03*
Y547926D02*
D03*
Y573326D02*
D03*
Y598726D02*
D03*
Y624126D02*
D03*
Y649526D02*
D03*
Y674926D02*
D03*
Y700326D02*
D03*
Y725726D02*
D03*
Y751126D02*
D03*
Y776526D02*
D03*
Y497126D02*
D03*
X1882468Y446326D02*
D03*
Y471726D02*
D03*
Y497126D02*
D03*
Y522526D02*
D03*
Y547926D02*
D03*
Y573326D02*
D03*
Y598726D02*
D03*
Y624126D02*
D03*
Y649526D02*
D03*
Y674926D02*
D03*
Y700326D02*
D03*
Y725726D02*
D03*
Y751126D02*
D03*
Y776526D02*
D03*
X2088528Y446326D02*
D03*
Y471726D02*
D03*
Y522526D02*
D03*
Y547926D02*
D03*
Y573326D02*
D03*
Y598726D02*
D03*
Y624126D02*
D03*
Y649526D02*
D03*
Y674926D02*
D03*
Y700326D02*
D03*
Y725726D02*
D03*
Y751126D02*
D03*
Y776526D02*
D03*
Y497126D02*
D03*
X2342528Y446326D02*
D03*
Y471726D02*
D03*
Y497126D02*
D03*
Y522526D02*
D03*
Y547926D02*
D03*
Y573326D02*
D03*
Y598726D02*
D03*
Y624126D02*
D03*
Y649526D02*
D03*
Y674926D02*
D03*
Y700326D02*
D03*
Y725726D02*
D03*
Y751126D02*
D03*
Y776526D02*
D03*
D19*
X1743218Y590776D02*
D03*
Y529226D02*
D03*
X1929468Y624126D02*
D03*
Y649526D02*
D03*
Y674926D02*
D03*
Y700326D02*
D03*
Y725726D02*
D03*
Y751126D02*
D03*
Y776526D02*
D03*
X1663718Y641286D02*
D03*
X1689118D02*
D03*
X1765968Y529226D02*
D03*
Y590776D02*
D03*
X1845468Y478726D02*
D03*
X1820068D02*
D03*
Y641286D02*
D03*
X1845468D02*
D03*
X1689118Y478726D02*
D03*
X1663718D02*
D03*
X2203278Y590776D02*
D03*
Y529226D02*
D03*
X2389528Y624126D02*
D03*
Y649526D02*
D03*
Y674926D02*
D03*
Y700326D02*
D03*
Y725726D02*
D03*
Y751126D02*
D03*
Y776526D02*
D03*
X2123778Y641286D02*
D03*
X2149178D02*
D03*
X2226028Y529226D02*
D03*
Y590776D02*
D03*
X2305528Y478726D02*
D03*
X2280128D02*
D03*
Y641286D02*
D03*
X2305528D02*
D03*
X2149178Y478726D02*
D03*
X2123778D02*
D03*
D20*
X1929468Y598726D02*
D03*
X2389528D02*
D03*
D21*
X1562718Y508076D02*
D03*
Y468476D02*
D03*
X1561218Y594726D02*
D03*
X2022778Y508076D02*
D03*
Y468476D02*
D03*
X2021278Y594726D02*
D03*
D22*
X1562718Y428876D02*
D03*
X1561218Y555126D02*
D03*
X2022778Y428876D02*
D03*
X2021278Y555126D02*
D03*
D23*
X1565718Y813927D02*
D03*
X2025778D02*
D03*
D24*
X1565718Y788526D02*
D03*
X2025778D02*
D03*
D25*
X1568218Y748976D02*
D03*
X2028278D02*
D03*
D26*
X1593718Y641726D02*
D03*
X1844468Y556726D02*
D03*
X1923468Y337226D02*
D03*
X1819468Y597726D02*
D03*
X1827718Y301976D02*
D03*
X1922594Y530306D02*
D03*
X2053778Y641726D02*
D03*
X2304528Y556726D02*
D03*
X2383528Y337226D02*
D03*
X2279528Y597726D02*
D03*
X2287778Y301976D02*
D03*
X2382654Y530306D02*
D03*
M02*
